<svg xmlns="http://www.w3.org/2000/svg" viewBox="0 0 444 213" width="444" height="213"><title>Ashley Goodwin Studios</title>
    <path
       d="m 187,194.33879 c -10.76414,-1.67425 -18.67067,-4.7258 -19.56774,-7.55223 -1.3461,-4.24117 7.55546,-9.86684 15.2779,-9.65544 l 4.78984,0.13111 -5.81449,0.74358 c -6.5776,0.84116 -11.99546,4.83987 -11.47552,8.46961 0.52559,3.66915 20.39067,8.08198 29.64834,6.58609 8.56473,-1.38393 5.09295,-6.28553 -19.85833,-28.0368 -24.18923,-21.08694 -29.27419,-27.00185 -30.55485,-35.54189 -1.12076,-7.47379 4.59419,-16.50986 14.65101,-23.16515 3.73013,-2.46848 5.35297,-6.31767 2.66358,-6.31767 -0.68214,0 -4.12626,3.0375 -7.65358,6.75 -4.68646,4.93247 -6.21121,6.07684 -5.66271,4.25 0.41283,-1.375 0.80338,-3.25446 0.86787,-4.17658 0.0645,-0.92212 0.39354,-1.50582 0.73123,-1.29712 0.33769,0.2087 2.00417,-2.74934 3.70328,-6.57342 L 161.83512,92 h -10.95938 -10.95939 l -2.8361,6.321129 c -5.53059,12.326661 -8.40914,21.956631 -8.49619,28.423391 -0.087,6.46029 -0.77484,7.63604 -2.53897,4.33973 -1.69062,-3.15896 1.71958,-16.38003 7.84572,-30.41716 3.13969,-7.194128 2.94589,-7.667173 -3.14081,-7.666569 l -5.25,5.2e-4 -7,9.231509 c -17.22752,22.71943 -41.817072,42.59785 -56,45.27091 -1.65,0.31098 -0.3,-0.47894 3,-1.75538 15.419629,-5.96429 32.476774,-20.53299 50.25,-42.91908 7.13362,-8.98508 7.01072,-10.144441 -1,-9.43354 -3.4375,0.305057 -10.3,0.824781 -15.25,1.154943 C 62.679198,97.006325 31.791358,105.50544 20.164681,116.38034 5.0624131,130.50611 18.894462,146.61618 48.5,149.38225 c 2.2,0.20555 0.380462,0.2321 -4.043418,0.059 -17.899856,-0.7004 -32.787447,-10.55069 -32.635054,-21.5928 0.24544,-17.78412 35.782527,-30.858741 95.080242,-34.98143 l 17.40177,-1.209862 11.18754,-17.078574 C 146.12962,58.338069 162.37618,31.588503 168.48796,20.25 170.0444,17.3625 171.74448,15 172.26592,15 c 1.1756,0 2.75599,-3.848825 -15.64738,38.107044 C 148.02834,72.690918 141,89.228418 141,89.857044 141,90.642012 144.30063,91 151.53799,91 h 10.53798 l 3.60536,-8 c 1.98295,-4.4 3.98429,-8 4.44742,-8 0.853,0 -1.9177,7.757404 -4.67538,13.090179 L 163.94864,91 h 9.82479 9.82479 l 1.34049,-3.75 c 2.52001,-7.049733 6.28708,-14.751253 6.69515,-13.687809 0.22418,0.584205 -0.95173,4.358597 -2.61313,8.387538 -1.6614,4.02894 -3.02073,7.713454 -3.02073,8.187809 0,1.55344 15.57629,0.904013 25.13992,-1.048167 10.68031,-2.180122 22.73901,-3.672937 37.76327,-4.674929 10.40103,-0.693662 10.40383,-0.694559 13.43474,-4.304124 23.71123,-28.238138 75.25128,-52.578483 93.88248,-44.337018 7.63798,3.378642 10.46382,11.55013 6.90827,19.9767 -1.66979,3.957357 -3.46956,4.332664 -2.39773,0.5 1.51759,-5.426662 0.89101,-12.940538 -1.32819,-15.927338 C 349.22864,26.629409 299.66402,45.271626 271.75487,73.288737 261.5752,83.507785 261.47934,83.770512 267.75,84.264961 l 4.75,0.374543 -5.68734,0.180248 L 261.12532,85 l -3.30389,6.711158 c -17.6105,35.772002 20.48051,43.997882 47.24652,10.203052 4.3957,-5.550026 -0.36848,-10.856277 -12.06795,-13.441044 -1.925,-0.425291 -2.93951,-0.967568 -2.25446,-1.205059 2.14557,-0.743822 11.58886,2.824482 15.43051,5.830673 l 3.67604,2.876605 2.01052,-3.253075 c 1.10578,-1.789192 3.38732,-6.321732 5.07009,-10.072312 1.87994,-4.190033 3.54302,-6.647721 4.31344,-6.374385 1.90261,0.675019 1.22704,3.541193 -4.35904,18.493659 -2.8213,7.551898 -5.18757,14.855728 -5.25837,16.230728 -0.0708,1.375 -0.72976,2.88142 -1.46435,3.3476 -0.73458,0.46618 -2.63167,3.73628 -4.21575,7.26689 -10.0464,22.39155 -21.77915,34.76549 -31.27489,32.98408 -14.35478,-2.69297 3.5617,-28.85966 25.91238,-37.84454 5.56883,-2.23865 5.75548,-2.4423 8.49745,-9.27148 3.74712,-9.332637 2.5822,-9.170738 -7.18007,0.99787 -31.63992,32.95688 -64.00622,16.28625 -44.12008,-22.724545 0.92441,-1.813416 -35.95197,2.356988 -51.26903,5.79809 -23.08569,5.186389 -24.91497,6.279139 -26.24482,15.677835 -0.6106,4.31537 1.10097,5.63861 4.90229,3.79004 2.22067,-1.07991 2.23853,-1.06038 0.38701,0.42299 -3.86567,3.09704 -9.25617,0.77522 -7.78729,-3.35418 0.36211,-1.01799 -0.0225,-1.22557 -1.38513,-0.74755 -1.74494,0.61216 -1.75812,0.56174 -0.17576,-0.67214 1.63522,-1.27511 4.26697,-6.67096 3.25366,-6.67096 -1.70143,0 -9.40938,4.41437 -9.88862,5.66325 -0.87263,2.27404 0.32354,3.49341 2.75843,2.81192 1.71403,-0.47973 1.85293,-0.3871 0.66584,0.44401 -2.55406,1.78817 -5.82844,1.28674 -6.18045,-0.94646 -0.45942,-2.91466 -9.90038,5.49708 -12.72993,11.34216 -5.78974,11.95999 -1.34303,19.39004 25.8179,43.13942 22.03404,19.26645 27.3442,24.76139 26.90594,27.8422 -0.52346,3.67973 -9.87641,5.58789 -19.81346,4.04229 z m 100.23857,-47.16316 c 6.665,-7.12604 18.14043,-28.12996 16.34801,-29.92238 -2.25395,-2.25396 -20.93222,11.3455 -26.26737,19.12501 -9.96477,14.53022 -1.84185,23.37214 9.91936,10.79737 z M 163.55887,100.5318 C 166.19235,98.539936 170,98.570398 170,100.58333 c 0,0.87084 0.33961,1.43334 0.75468,1.25 0.41508,-0.18333 2.86388,-1.17196 5.44179,-2.196955 3.44925,-1.371447 4.95283,-2.62591 5.6933,-4.75 L 182.89596,92 h -9.42766 -9.42765 l -2.02033,3.960162 c -3.05018,5.978848 -2.49662,7.623688 1.53855,4.571638 z m 28.55107,-6.955867 4.39006,-1.378196 -5.75,-0.09887 c -3.1625,-0.05438 -5.75,0.08933 -5.75,0.319344 0,0.230016 -0.29307,1.181946 -0.65127,2.115399 -0.51803,1.349955 -0.23979,1.566588 1.35994,1.058852 1.10617,-0.351085 3.98674,-1.258524 6.40127,-2.016531 z M 137.9627,90.363035 c 1.5548,-1.701188 17.199,-39.377949 16.82119,-40.51137 -0.21229,-0.63687 -2.5799,2.398468 -5.26136,6.745195 -2.68146,4.346727 -8.62099,13.58672 -13.19895,20.533317 C 131.74561,84.076775 128,90.322798 128,91.01023 c 0,1.414709 8.58812,0.85681 9.9627,-0.647195 z M 286.29507,173.32656 C 285.68897,171.74708 291.12203,166 293.22133,166 c 0.43828,0 0.68028,-2.5875 0.53777,-5.75 l -0.2591,-5.75 3.25,-0.31336 c 1.7875,-0.17235 3.25,0.10275 3.25,0.61133 0,0.50858 -1.125,0.70963 -2.5,0.44678 -2.13484,-0.4081 -2.5,-0.10767 -2.5,2.05689 0,3.38091 0.95674,5.69679 2.35699,5.70532 3.24337,0.0197 1.63899,9.09677 -1.86677,10.56157 -4.59914,1.92165 -8.40331,1.82154 -9.19515,-0.24197 z m 9.59974,-1.69981 C 297.23256,170.01486 296.34184,167 294.52787,167 292.93705,167 288,170.83641 288,172.07258 c 0,1.45727 6.62592,1.08309 7.89481,-0.44583 z m -92.72936,-1.92739 c -1.51835,-1.8295 -0.98415,-4.26611 3.48848,-15.91166 4.17174,-10.86212 4.17728,-11.55783 0.0961,-12.0643 -2.96793,-0.36832 -2.89922,-0.41722 0.79168,-0.56336 3.86723,-0.15313 4.16064,-0.40259 6.79756,-5.77915 3.02514,-6.16815 4.7092,-6.82593 2.21934,-0.86685 -2.0053,4.79936 -1.96492,6.23312 0.19142,6.79663 1.18573,0.30987 0.94332,0.49473 -0.75179,0.57333 -2.91217,0.13503 -10.16116,16.77144 -10.38032,23.8228 -0.21252,6.83784 10.35367,3.17035 14.57105,-5.05757 2.52492,-4.92599 3.59217,-3.45445 1.36337,1.87982 -3.72833,8.92315 -1.72182,9.42628 5.86628,1.47095 5.6931,-5.96862 8.43073,-7.60658 7.10332,-4.25 -3.9843,10.07497 1.26934,10.3158 9.9796,0.45747 2.37644,-2.68967 3.97259,-3.50658 7.66457,-3.92272 l 4.66307,-0.5256 6.38969,-12.06433 c 7.42562,-14.02024 10.39427,-16.61322 5.1832,-4.52727 -11.67429,27.07599 -12.38769,32.87073 -2.87572,23.35877 2.46052,-2.46053 4.47368,-4.31549 4.47368,-4.12213 0,0.19336 -0.675,1.96706 -1.5,3.94157 -1.94247,4.64898 -1.94129,4.65424 1.04284,4.65424 1.63435,0 4.26164,-1.60773 7.35371,-4.5 5.4874,-5.13283 9.90001,-6.4504 4.91813,-1.46852 -2.02404,2.02404 -2.86041,3.68566 -2.5167,5 0.28313,1.08268 0.0648,1.96852 -0.48522,1.96852 -0.55,0 -1.22443,-0.85823 -1.49874,-1.90719 -0.47524,-1.81731 -0.6659,-1.79374 -4.04593,0.5 -4.26897,2.89701 -7.2772,3.08835 -7.95255,0.50583 -0.46875,-1.79253 -0.65777,-1.8092 -3.3025,-0.29134 -3.84983,2.2095 -6.19212,0.38361 -5.31669,-4.14452 l 0.61147,-3.16278 -5.59405,5.25 c -3.07673,2.8875 -6.28015,5.25 -7.11873,5.25 -1.67534,0 -3.90105,-3.36066 -2.89319,-4.36852 1.45912,-1.45911 -0.87008,-0.45704 -4.21704,1.81427 -3.85319,2.61484 -6.22808,2.42248 -7.34427,-0.59487 -0.63885,-1.72698 -0.95937,-1.64247 -4.16632,1.09846 -4.47207,3.82223 -7.72567,4.00169 -8.1578,0.44996 l -0.31642,-2.6007 -2.7846,2.2005 c -3.59598,2.84168 -9.83982,3.76083 -11.54995,1.70026 z m 46.62634,-4.98721 C 254.31427,160.10407 255.23394,157 252.07673,157 248.52319,157 244,161.81002 244,165.58889 c 0,4.40892 0.70975,4.30148 5.79179,-0.87674 z m 31.4405,3.76312 c 0.40276,-0.42525 1.73916,-1.27516 2.96977,-1.88869 3.8731,-1.93095 5.71193,-6.39162 3.35681,-8.14304 C 286.00849,157.29059 285.93352,157 287.18643,157 c 4.2785,0 4.59304,5.02382 0.54638,8.7269 -2.07846,1.90199 -8.11686,4.45498 -6.50052,2.74837 z M 55.75,148.33772 c 0.6875,-0.27741 1.8125,-0.27741 2.5,0 0.6875,0.27741 0.125,0.50439 -1.25,0.50439 -1.375,0 -1.9375,-0.22698 -1.25,-0.50439 z m 140.5,-10.02705 c 0.9625,-0.25152 2.5375,-0.25152 3.5,0 0.9625,0.25153 0.175,0.45733 -1.75,0.45733 -1.925,0 -2.7125,-0.2058 -1.75,-0.45733 z m -7.87995,-1.75106 c -8.773,-3.81788 -3.18336,-9.78354 19.21554,-20.50816 C 214.03367,112.96409 218,110.48752 218,109.54868 c 0,-1.31786 -0.47138,-1.29154 -3.60159,0.20115 -3.50048,1.66927 -3.64935,1.65849 -5.30315,-0.38387 l -1.70157,-2.10135 -2.75261,2.3677 c -1.51393,1.30223 -3.51501,2.35008 -4.44684,2.32855 -0.95537,-0.0221 -0.35453,-0.62254 1.37773,-1.37687 1.68958,-0.73575 4.0714,-2.63064 5.29292,-4.21086 5.35183,-6.923378 6.3346,-7.960294 5.56643,-5.87313 -3.4314,9.32337 0.3909,11.41779 6.38747,3.5 3.68646,-4.867549 5.98621,-6.505234 4.75548,-3.38645 -2.1025,5.32795 -1.97875,8.67329 0.27619,7.46648 1.18225,-0.63272 2.14954,-0.92112 2.14954,-0.64089 0,0.28022 -1.31033,1.1871 -2.91185,2.01527 -2.29065,1.18455 -3.38696,2.95002 -5.13897,8.27568 -4.40087,13.37751 -9.55719,20.35429 -14.94918,20.22703 -0.825,-0.0195 -0.10523,-0.64259 1.59949,-1.38471 3.63723,-1.58339 6.66717,-6.12781 9.41959,-14.12787 3.48028,-10.11561 3.37626,-10.16365 -8.76908,-4.04981 -20.55007,10.3447 -23.89761,14.82237 -13.75,18.39205 1.65,0.58043 2.325,1.07324 1.5,1.09513 -0.825,0.0219 -2.90848,-0.57314 -4.62995,-1.3223 z M 136.41417,118.5609 c -1.98699,-1.45292 -1.72111,-1.80875 5.5417,-7.4165 2.26942,-1.75227 2.36933,-2.17818 1.31595,-5.61039 -1.30714,-4.25904 -0.83795,-6.219552 1.67968,-7.018618 2.13505,-0.677637 5.0485,0.311525 5.0485,1.714038 0,0.58917 -0.62435,0.49729 -1.48727,-0.21886 -0.81799,-0.678877 -2.16799,-0.9731 -3,-0.65383 -3.26742,1.25383 -0.47541,9.03301 2.90433,8.09212 1.52022,-0.42322 1.70963,-0.3216 0.70111,0.37613 -0.97584,0.67512 -1.18547,2.00271 -0.7135,4.51854 0.97791,5.21271 -7.41373,9.56399 -11.9905,6.21737 z M 143.75,117.36971 C 146.15996,116.72387 147.14339,111 144.84439,111 143.29361,111 137,115.85468 137,117.05089 c 0,1.06836 3.3608,1.2271 6.75,0.31882 z m 49.71528,-5.32123 c -4.50818,-1.82735 -4.7743,-3.57842 -1.1309,-7.44155 1.87098,-1.98381 3.99715,-3.60693 4.72483,-3.60693 0.83986,0 0.64965,0.4924 -0.52086,1.3483 -1.01414,0.74156 -1.52359,1.86656 -1.13211,2.5 0.42077,0.68082 0.0744,1.1517 -0.84722,1.1517 -2.81322,0 -1.87538,4.48891 1.19098,5.70058 1.5125,0.59766 2.075,1.10601 1.25,1.12965 -0.825,0.0237 -2.41562,-0.32814 -3.53472,-0.78175 z m 136.30511,-3.93979 c 4.59891,-2.95883 6.27973,-6.86765 3.74891,-8.718237 -1.95461,-1.429242 -0.9086,-1.860808 1.89891,-0.783464 C 338.65394,99.848656 334.71553,109 330.94542,109 c -0.43001,0 -1.60615,0.27288 -2.61363,0.6064 -1.00749,0.33351 -0.36011,-0.34045 1.4386,-1.49771 z m 24.3559,0.12728 c -2.34849,-4.38818 3.49226,-11.213221 10.24771,-11.974657 l 4.45515,-0.502161 6.38969,-12.064332 c 7.42562,-14.020244 10.39427,-16.613224 5.1832,-4.527274 C 372.18565,98.223686 369.42767,107 371.65561,107 373.03766,107 379,101.83701 379,100.64024 c 0,-0.69189 0.67883,-2.131489 1.50851,-3.19911 1.38228,-1.778699 1.45518,-1.501816 0.87117,3.30887 -0.79134,6.51856 0.21945,6.66556 5.0764,0.73829 3.36242,-4.103388 6.01708,-5.255464 5.08377,-2.206265 -2.66781,8.715915 -0.49324,8.853015 5.74132,0.361964 6.15652,-8.384755 8.85604,-10.522243 4.64439,-3.677435 C 395.08231,107.08826 388,112.69968 388,107 c 0,-3.65421 -0.92782,-3.77018 -4,-0.5 -2.91337,3.10114 -6,3.31548 -6,0.41667 0,-1.14584 -0.3375,-1.9189 -0.75,-1.71792 -0.4125,0.20099 -1.97417,0.97965 -3.47039,1.73036 -3.78364,1.89841 -5.92727,0.0993 -5.08326,-4.26633 l 0.61147,-3.16278 -5.59405,5.25 c -5.93269,5.56781 -8.05946,6.3411 -9.58748,3.48597 z m 7.6655,-3.52382 C 366.31427,100.10407 367.23394,97 364.07673,97 360.52319,97 356,101.81002 356,105.58889 c 0,4.40892 0.70975,4.30148 5.79179,-0.87674 z m -38.12512,3.62118 C 321.64302,106.30969 325.81307,99 328.99117,99 c 1.54792,0 1.35316,0.50182 -1.17649,3.03148 -2.02404,2.02404 -2.86041,3.68566 -2.5167,5 0.50708,1.93907 -0.32781,2.60535 -1.63131,1.30185 z m 15.35117,-0.81183 c -1.57887,-1.90242 1.63541,-7.837609 4.5363,-8.37632 1.80789,-0.335733 1.78632,-0.189583 -0.30414,2.06118 -3.04944,3.28328 -3.01033,6.79364 0.0757,6.79364 4.77855,0 9.06988,-8.157993 4.92431,-9.361321 -1.01075,-0.293389 -0.69393,-0.42997 0.75,-0.323324 3.6807,0.271849 3.89923,4.512695 0.41221,7.999705 -3.02918,3.02919 -8.36741,3.64877 -10.39437,1.20644 z m 62.1658,0.19977 c -0.76653,-0.9236 -0.51787,-2.49243 0.89532,-5.6489 2.31258,-5.165303 3.33469,-5.030116 1.72104,0.22763 -2.35095,7.6601 5.10018,5.23594 11.68002,-3.8 1.43096,-1.965103 1.45693,-1.959287 1.48818,0.333333 0.0175,1.283337 0.3693,2.168897 0.7818,1.967917 0.4125,-0.20099 1.9588,-0.972642 3.43623,-1.714797 4.10707,-2.063101 5.95369,-0.917407 4.54341,2.818857 -1.59308,4.22054 -0.2564,4.93141 4.43785,2.36012 2.21577,-1.2137 3.53713,-1.61444 2.93635,-0.89055 -4.3535,5.24565 -12.01967,5.16413 -10.01578,-0.10651 1.80627,-4.750827 -0.41274,-4.495189 -6.35072,0.73163 -4.11754,3.62441 -9.12163,5.98429 -5.93734,2.8 2.48837,-2.48837 1.0621,-2.64614 -2.43955,-0.26986 -4.10305,2.7844 -5.64247,3.0399 -7.17681,1.19113 z m -201.66252,-3.11306 c 1.67408,-1.22411 1.73106,-1.59943 0.47297,-3.11534 -1.27317,-1.534062 -1.22316,-1.683384 0.45488,-1.35821 3.44919,0.6684 1.93271,5.86534 -1.71153,5.86534 -0.61583,0 -0.26318,-0.6263 0.78368,-1.39179 z M 407.04584,91.914354 c 0.61391,-1.147106 1.31533,-1.886513 1.55872,-1.643128 C 409.30446,90.971123 407.88559,94 406.85783,94 c -0.51083,0 -0.42629,-0.937815 0.18801,-2.085646 z M 285.75,86.337719 c 0.6875,-0.277412 1.8125,-0.277412 2.5,0 0.6875,0.277413 0.125,0.504386 -1.25,0.504386 -1.375,0 -1.9375,-0.226973 -1.25,-0.504386 z m -9,-1.043452 c 1.2375,-0.238353 3.2625,-0.238353 4.5,0 1.2375,0.238353 0.225,0.433369 -2.25,0.433369 -2.475,0 -3.4875,-0.195016 -2.25,-0.433369 z"/>
</svg>
