<svg xmlns="http://www.w3.org/2000/svg" viewBox="0 0 547.2052 425.60001" width="547" height="425"><title>Final Gravity Brewing</title>
    <path
       d="m 494.68897,425.29252 c -1.79405,-0.32374 -3.34291,-1.09037 -3.61018,-1.78685 -0.32086,-0.83616 -0.22774,-8.1336 0.11187,-8.76822 0.55024,-1.02813 2.67028,-1.61744 5.81869,-1.61744 4.55354,0 6.12708,0.68266 6.45418,2.8 l 0.16064,1.04 -1.97206,-2.2e-4 c -1.89802,-2.3e-4 -1.97392,-0.0314 -2.02026,-0.83216 -0.0266,-0.45754 -0.18291,-0.96669 -0.34762,-1.1314 -0.49356,-0.49356 -2.4232,-0.67139 -3.36422,-0.31001 l -0.88,0.33795 v 4.15667 c 0,4.63578 0.0882,4.81917 2.31779,4.81917 1.62739,0 2.25443,-0.62154 2.29101,-2.27094 0.0294,-1.32464 -0.0259,-1.4177 -0.9288,-1.56861 -0.72387,-0.12099 -0.96624,-0.33754 -0.98541,-0.88045 -0.0246,-0.69674 0.0705,-0.72 2.94202,-0.72 h 2.96745 l -0.062,2.35146 c -0.0681,2.58243 -0.40788,3.25094 -1.98788,3.91142 -1.29334,0.54064 -5.08339,0.79843 -6.90518,0.46963 z m 21.33149,-0.0154 c -3.21463,-0.57184 -3.83411,-1.74989 -3.64499,-6.93126 0.13456,-3.68621 0.41715,-4.24253 2.46681,-4.85661 1.54112,-0.46173 6.19447,-0.47754 7.8185,-0.0266 1.58675,0.44061 2.45923,1.34083 2.45923,2.53744 v 0.96 h -1.92 -1.92 v -0.96794 c 0,-0.74454 -0.18941,-1.03993 -0.82083,-1.28 -1.19533,-0.45443 -2.45597,-0.38265 -3.26797,0.18608 -0.6671,0.46727 -0.7112,0.73399 -0.7112,4.30186 0,3.56787 0.0441,3.83459 0.7112,4.30186 0.91843,0.64329 2.94058,0.64064 3.58595,-0.005 0.27658,-0.27658 0.50285,-0.92458 0.50285,-1.44 0,-0.93207 0.0106,-0.93716 1.92,-0.93716 h 1.92 v 0.98103 c 0,1.42246 -0.46141,2.07801 -1.85501,2.63565 -1.57776,0.63129 -5.21024,0.9022 -7.24454,0.54032 z m 15.39949,0.004 c -1.89933,-0.3375 -3.0264,-1.04723 -3.45837,-2.17773 -0.18141,-0.47478 -0.28298,-2.46857 -0.2257,-4.43065 0.11952,-4.09504 0.36995,-4.59027 2.64288,-5.22666 1.84221,-0.51577 7.39437,-0.31171 8.65187,0.31802 1.45111,0.72665 1.75994,1.68054 1.75994,5.43603 0,3.85299 -0.3032,4.72403 -1.91309,5.49555 -1.35216,0.648 -5.34259,0.96128 -7.45753,0.58544 z m 4.63488,-1.81059 c 0.50387,-0.456 0.58518,-1.05376 0.58518,-4.30186 0,-3.53539 -0.0447,-3.80352 -0.7112,-4.2704 -0.91075,-0.63792 -2.46685,-0.63792 -3.3776,0 -0.66701,0.4672 -0.7112,0.73412 -0.7112,4.29716 0,3.02694 0.10218,3.90118 0.50285,4.30185 0.6728,0.67277 2.95718,0.65632 3.71197,-0.0269 z m -138.29482,-4.2704 v -6.08 l 4.4,0.0259 c 2.42,0.0141 5.03449,0.19414 5.81001,0.4 2.8378,0.75322 3.43652,3.4353 1.04324,4.67331 l -1.17325,0.60688 0.95942,0.36931 c 1.58669,0.61076 2.08058,1.25604 2.08058,2.71856 0,2.64906 -1.81328,3.36176 -8.56,3.36439 l -4.56,0.003 v -6.08 z m 8.50211,4.14166 c 0.61338,-0.50908 0.58973,-2.67388 -0.0349,-3.19228 -0.27242,-0.22605 -1.38154,-0.42247 -2.48,-0.43917 l -1.98723,-0.0301 -0.0975,1.8903 c -0.0664,1.28835 0.0355,1.98135 0.32,2.17616 0.55078,0.37715 3.69584,0.0797 4.27958,-0.4048 z m -0.82211,-5.51379 c 0.50851,-0.25597 0.83757,-0.72768 0.90313,-1.29462 0.165,-1.4273 -0.4102,-1.81325 -2.7023,-1.81325 h -2.04083 v 1.54666 c 0,0.85068 0.096,1.64268 0.21334,1.76 0.36007,0.36006 2.77994,0.22742 3.62666,-0.19879 z m 8.32,1.33923 v -6.11286 l 5.2,0.12326 c 6.69552,0.15872 7.6,0.55488 7.6,3.32868 0,1.23603 -0.92026,2.37382 -1.92,2.37382 -0.94794,0 -0.77616,0.50595 0.32688,0.96285 1.28902,0.53392 1.39891,0.75997 1.59299,3.27715 l 0.16656,2.16 h -1.96899 c -2.24525,0 -2.35744,-0.12221 -2.35744,-2.56803 0,-1.92896 -0.72048,-2.55197 -2.9512,-2.55197 h -1.5288 v 2.56 2.56 h -2.08 -2.08 z m 8.256,-0.9911 c 0.2112,-0.2112 0.384,-0.9024 0.384,-1.536 0,-1.57952 -0.46531,-1.92 -2.624,-1.92 h -1.856 v 1.92 1.92 h 1.856 c 1.0208,0 2.0288,-0.1728 2.24,-0.384 z m 7.744,1.024 v -6.08 h 5.76 5.76 v 0.8 0.8 h -3.68 -3.68 v 1.76 1.76 h 2.88 c 2.85865,0 2.88,0.006 2.88,0.8 0,0.7944 -0.0202,0.8 -2.89527,0.8 h -2.89526 l 0.0953,2 0.0953,2 h 3.60038 c 3.52051,0 3.60039,0.016 3.6,0.72 0,0.72 0,0.72 -5.76038,0.72 h -5.76 z m 16.34454,4.88 c -0.63798,-2.39158 -2.58454,-10.45274 -2.58454,-10.7032 0,-0.14125 0.8543,-0.2568 1.89843,-0.2568 2.20797,0 1.90813,-0.49853 3.15229,5.24099 0.48534,2.23898 1.02054,4.09968 1.18937,4.13491 0.1688,0.0353 0.72794,-2.0599 1.2425,-4.6559 l 0.93558,-4.72 h 1.9962 1.99619 l 0.4831,2.16 c 0.26573,1.188 0.74803,3.348 1.07181,4.8 0.32381,1.452 0.67213,2.64 0.77411,2.64 0.10195,0 0.67869,-2.16 1.28167,-4.8 l 1.09628,-4.8 h 1.70666 1.70666 l -0.20906,1.04 c -0.22432,1.11587 -1.89168,7.93952 -2.42394,9.92 l -0.32252,1.2 h -2.82602 -2.82605 l -0.38233,-2 c -0.56042,-2.93146 -0.97466,-4.4 -1.24116,-4.4 -0.12953,0 -0.50729,1.26 -0.83939,2.8 -0.33213,1.54 -0.668,2.98 -0.74637,3.2 -0.0994,0.27917 -0.99849,0.4 -2.9759,0.4 h -2.83344 z m 20.45546,-4.88 v -6.08 h 2.08 2.08 v 6.08 6.08 h -2.08 -2.08 z m 7.68,0 v -6.08 l 2.64,0.008 2.64,0.008 2.24,3.75155 2.24,3.75155 0.0901,-3.76 0.0902,-3.76 h 1.74982 1.74986 v 6.09463 6.09462 l -2.15008,-0.0946 -2.15005,-0.0946 -2.564,-4.24 c -1.41021,-2.332 -2.67466,-4.24 -2.80992,-4.24 -0.13526,0 -0.24595,1.944 -0.24595,4.32 v 4.32 h -1.76 -1.76 v -6.08 z m 69.12,5.28 c 0,-0.76445 0.0853,-0.8 1.92,-0.8 1.83466,0 1.92,0.0356 1.92,0.8 0,0.76445 -0.0853,0.8 -1.92,0.8 -1.83466,0 -1.92,-0.0356 -1.92,-0.8 z M 29.440001,402.68865 C 22.378506,402.06724 16.461675,401.01451 12.718825,399.71361 5.8226183,397.31671 1.3058028,392.93083 0.34782506,387.70123 -0.10718321,385.21735 -0.12951117,349.57028 0.32244874,347.18711 1.3977729,341.51694 5.88739,337.31758 13.6,334.76794 c 5.299264,-1.75184 12.989681,-2.656 22.560001,-2.65235 16.063552,0.006 26.161053,2.45968 31.789056,7.72442 3.302596,3.08941 4.336212,6.18045 4.360474,13.04 l 0.01047,2.96 h -11.36 -11.36 v -4.26967 c 0,-3.85273 -0.07274,-4.40739 -0.744845,-5.68 -0.909974,-1.723 -2.794838,-2.95353 -5.625056,-3.67232 -3.156979,-0.80176 -11.985901,-0.52297 -14.485228,0.45738 -2.110475,0.82784 -3.8939,2.61165 -4.423777,4.4247 -0.249937,0.85524 -0.327306,7.15927 -0.258805,21.08752 l 0.09771,19.86765 0.921169,1.32896 c 1.880417,2.7129 5.795776,3.75508 13.115334,3.49098 6.584915,-0.2376 9.264861,-1.25744 10.683498,-4.0656 0.682499,-1.35098 0.72,-1.79667 0.72,-8.55741 v -7.13219 h -5.52 -5.52 l 0.09604,-4.80048 0.09604,-4.80048 h 16.79634 16.796336 l -0.112794,12.24 c -0.107478,11.66323 -0.1459,12.32947 -0.81536,14.13878 -2.388761,6.45594 -9.800125,10.43376 -22.75393,12.21248 -3.258944,0.44749 -16.260774,0.83802 -19.222662,0.57738 z m 495.725829,-0.9192 c -5.83712,-1.85104 -5.4616,-10.08221 0.53271,-11.67728 2.68413,-0.71421 6.11024,1.03162 7.08185,3.60867 0.43607,1.15661 0.43568,3.44323 0,4.59834 -1.07785,2.8528 -4.55846,4.4392 -7.61382,3.47027 z m 5.05239,-1.43392 c 1.18755,-0.8456 2.24774,-2.89056 2.24774,-4.33552 0,-1.44138 -1.0592,-3.48918 -2.23933,-4.32954 -1.49772,-1.06646 -3.96144,-1.22121 -5.65852,-0.35539 -3.64842,1.86128 -3.78106,7.19469 -0.23028,9.25799 1.67245,0.9718 4.33293,0.86435 5.88039,-0.23754 z m -5.73821,-4.17552 v -3.2 h 2.04083 c 1.38557,0 2.16355,0.1479 2.42311,0.46064 0.55132,0.66432 0.28332,2.13578 -0.46394,2.54707 -0.352,0.19376 -0.70058,0.38887 -0.77459,0.43354 -0.074,0.0447 0.15997,0.4047 0.52,0.8 0.36003,0.39533 0.82166,1.04275 1.02585,1.43875 0.3056,0.59264 0.28583,0.72 -0.11177,0.72 -0.2657,0 -0.69939,-0.41837 -0.96381,-0.9297 -0.66323,-1.28252 -1.38861,-1.9503 -2.11853,-1.9503 -0.51811,0 -0.61715,0.2311 -0.61715,1.44 0,1.06666 -0.12445,1.44 -0.48,1.44 -0.39466,0 -0.48,-0.5689 -0.48,-3.2 z m 3.468,-0.60109 c 0.23539,-0.14921 0.37939,-0.61501 0.32,-1.0351 -0.0918,-0.64912 -0.31222,-0.77859 -1.468,-0.86221 l -1.36,-0.0984 v 1.1384 c 0,1.07203 0.0606,1.13811 1.04,1.1335 0.572,-0.003 1.23261,-0.12697 1.468,-0.27619 z M 88.000002,367.33518 V 332.75034 L 111.92,332.89486 c 15.01616,0.0907 24.93248,0.27833 26.64,0.50406 9.38018,1.2399 14.68065,3.2007 18.26089,6.75526 1.81747,1.80445 2.199,2.3938 2.82816,4.36861 0.65835,2.06643 0.71703,2.77917 0.61912,7.52 -0.1013,4.90477 -0.16309,5.35443 -0.97338,7.08359 -0.47649,1.01683 -1.57857,2.54121 -2.45298,3.39289 -1.90279,1.85338 -5.96537,3.94611 -9.30879,4.7952 -1.31259,0.33331 -2.42652,0.73194 -2.47541,0.88579 -0.0489,0.15386 1.24115,0.60189 2.86675,0.99559 4.0731,0.98649 6.7155,2.35673 9.06365,4.70013 3.24585,3.23923 3.40976,3.91955 3.62923,15.06403 l 0.18276,9.28 1.01127,1.84378 1.01126,1.84377 -12.19235,-0.0838 -12.19237,-0.0838 -0.8189,-1.59088 c -0.8101,-1.57373 -0.82063,-1.69078 -0.97891,-10.88 l -0.16,-9.28912 -0.87316,-1.48531 c -0.49359,-0.83965 -1.51281,-1.909 -2.34458,-2.45994 -2.47538,-1.63965 -5.09247,-2.06531 -13.66226,-2.22218 L 112,373.6934 v 14.11328 14.11328 H 100 88.000002 Z m 41.326078,-3.92874 c 3.54368,-0.79805 5.85308,-2.34861 6.65356,-4.46726 0.18785,-0.49719 0.34036,-3.1553 0.34036,-5.9322 0,-4.58243 -0.0642,-5.15843 -0.72,-6.45545 -0.47732,-0.9441 -1.20814,-1.7225 -2.16826,-2.30951 -2.4271,-1.48384 -5.00592,-1.83024 -13.67174,-1.83644 l -7.76,-0.006 v 10.66665 c 0,5.86669 0.108,10.77911 0.24,10.91652 0.41641,0.43344 14.7486,-0.0503 17.08608,-0.57674 z m 41.38293,37.95783 c 0.12141,-0.31034 0.84773,-2.36426 1.61404,-4.56426 0.76632,-2.2 2.49626,-7.096 3.84431,-10.88 1.34805,-3.784 2.92874,-8.248 3.51264,-9.92 0.5839,-1.672 2.16637,-6.136 3.5166,-9.92 1.35023,-3.784 3.00759,-8.464 3.68302,-10.4 0.67543,-1.936 2.25989,-6.4 3.52103,-9.92 1.26114,-3.52 2.79767,-7.876 3.41452,-9.68 l 1.12153,-3.28 h 17.69742 c 16.55787,0 17.71152,0.0361 17.91652,0.56 0.12051,0.308 0.84592,2.36 1.61203,4.56 0.7661,2.2 2.42268,6.88 3.68129,10.4 1.25861,3.52 2.83882,7.984 3.51157,9.92 0.67276,1.936 2.33078,6.616 3.68447,10.4 1.3537,3.784 3.01172,8.464 3.68447,10.4 0.67276,1.936 2.25461,6.4 3.51523,9.92 2.3018,6.42733 4.4803,12.68176 4.4803,12.86288 0,0.11581 -23.9971,0.13293 -24.00647,0.017 -0.004,-0.044 -0.93527,-2.816 -2.07046,-6.16 l -2.06398,-6.08 -15.00515,-0.0831 -15.00514,-0.0831 -2.04668,6.16311 -2.04669,6.1631 -10.99358,0.0843 c -10.39075,0.0796 -10.98147,0.0533 -10.77284,-0.48 z m 50.54598,-27.36407 c -1.12379,-3.3881 -3.73789,-11.30563 -5.80912,-17.59453 -2.07123,-6.28889 -3.85505,-11.43689 -3.96405,-11.44 -0.15082,-0.004 -11.24361,32.85482 -11.74451,34.78963 -0.08,0.30903 2.46517,0.41524 11.52,0.48071 6.39248,0.0462 11.7168,0.0481 11.83181,0.004 0.11502,-0.0439 -0.71034,-2.85187 -1.83413,-6.24 z m 56.82323,27.11511 c -0.30831,-0.81092 -11.33471,-32.91517 -14.61588,-42.5553 -0.95846,-2.816 -2.60613,-7.64 -3.66147,-10.72 -1.05535,-3.08 -2.54754,-7.472 -3.31599,-9.76 -0.76846,-2.288 -1.49533,-4.412 -1.61527,-4.72 -0.20536,-0.52733 0.48844,-0.55984 11.89616,-0.55735 l 12.11424,0.003 2.54766,7.91735 c 2.7417,8.52035 6.19501,19.11744 12.1641,37.32774 2.35778,7.193 3.85897,11.32192 4.01391,11.04 0.23426,-0.4263 2.50737,-7.36592 13.64106,-41.64512 l 4.75327,-14.63469 10.99424,-0.005 c 8.66438,-0.004 10.9622,0.0795 10.84307,0.39472 -0.0831,0.22 -1.02791,2.992 -2.09952,6.16 -1.07162,3.168 -3.18275,9.36 -4.69143,13.76 -1.50867,4.4 -4.04339,11.816 -5.6327,16.48 -1.58931,4.664 -4.71757,13.80801 -6.95166,20.32001 l -4.062,11.84 -18.00691,0.0827 -18.00691,0.0827 -0.30797,-0.81005 z m 71.52179,-33.7553 v -34.56 h 11.92 11.92 v 34.56 34.56 h -11.92 -11.92 z m 60.32,4.8 v -29.76 h -12.72 -12.72 v -4.8 -4.8 h 37.36 37.36 v 4.79632 4.79635 l -12.64349,0.0837 -12.64349,0.0837 1.6e-4,29.68 1.9e-4,29.68 h -11.9967 -11.99667 z m 82.88,18.44598 v -11.31401 l -11.56656,-17.56599 c -6.3616,-9.66128 -13.25245,-20.12198 -15.31299,-23.24598 l -3.7464,-5.68 h 12.52528 12.52531 l 7.50768,12.85254 c 4.12922,7.0689 8.25325,14.1609 9.16451,15.76 0.91127,1.59911 1.75776,2.88195 1.88112,2.85082 0.12336,-0.031 0.53943,-0.60717 0.92461,-1.28 0.68205,-1.19146 9.29674,-15.93882 12.30416,-21.06336 0.82634,-1.408 2.35984,-4.03341 3.40784,-5.83427 l 1.90544,-3.27424 11.42874,-0.006 11.42873,-0.006 -4.22873,6.39289 c -2.3258,3.5161 -9.2328,13.9921 -15.34893,23.28 l -11.12016,16.88711 0.0802,11.28013 0.0802,11.28016 -11.92,-1.6e-4 -11.92,-1.3e-4 V 390.60596 Z M 312.79527,322.5241 c -5.48536,-2.90734 -8.11717,-7.02599 -12.6153,-19.7423 -0.85249,-2.40998 -2.70432,-7.54979 -4.1152,-11.42179 -3.39615,-9.32039 -13.44669,-40.35517 -23.10977,-71.36 -1.26162,-4.048 -2.84383,-9.08801 -3.51604,-11.20001 -0.67221,-2.112 -2.1787,-6.936 -3.34776,-10.72 -2.01854,-6.53361 -3.87829,-12.52506 -7.69793,-24.8 -0.93103,-2.992 -2.58703,-8.32 -3.68,-11.84 -1.09297,-3.52 -2.74897,-8.848 -3.68,-11.84 -0.93104,-2.992 -2.58704,-8.32 -3.68,-11.84 -1.09297,-3.52 -2.75269,-8.848 -3.68828,-11.84 -0.93558,-2.992 -2.65971,-8.536 -3.83139,-12.32 -1.17167,-3.784 -2.75146,-8.824 -3.51063,-11.2 -0.75918,-2.376 -2.49016,-7.847998 -3.84664,-12.159998 -7.8146,-24.841309 -15.32566,-47.565035 -15.9187,-48.160001 -0.67872,-0.680922 0.0878,54.754318 1.06861,77.279999 0.18009,4.136 0.45356,36.32 0.60773,71.52 0.23672,54.04882 0.3579,64.7961 0.77937,69.12001 0.85581,8.77966 0.60968,13.05473 -0.87734,15.23888 -1.11035,1.63087 -2.24692,2.29112 -4.22662,2.4553 -1.72844,0.14333 -1.84422,0.10309 -3.02736,-1.05222 -1.62045,-1.58232 -2.81209,-4.31709 -3.28001,-7.5275 -0.32732,-2.24576 -0.2811,-3.60402 0.33554,-9.85951 0.39333,-3.99023 0.86008,-11.43095 1.03721,-16.53495 0.4185,-12.05947 0.39346,-59.48243 -0.0432,-81.76001 -0.188,-9.592 -0.39032,-34.648 -0.4496,-55.68 -0.0593,-21.031998 -0.1988,-40.759998 -0.31005,-43.839999 -0.37887,-10.489629 -1.14026,-27.653635 -1.79156,-40.387276 -0.59219,-11.5778525 -0.6055,-12.7932509 -0.14975,-13.674584 0.82604,-1.5973831 2.11453,-2.0554471 6.18841,-2.2000042 3.24149,-0.1150208 3.66617,-0.066331 4.07093,0.4667229 2.04179,2.6889735 8.78107,22.7095353 17.59677,52.2751413 1.18077,3.96 2.83587,9.504001 3.678,12.320001 0.84213,2.816 2.42055,8.144 3.50761,11.84 1.08706,3.696 2.74279,9.312 3.67939,12.48 1.95338,6.607208 4.88702,16.546118 7.4146,25.119998 1.61364,5.4737 3.05182,10.3068 6.52271,21.92 0.73642,2.464 1.90856,6.424 2.60474,8.8 0.69619,2.376 1.81918,6.12 2.49553,8.32 0.67636,2.2 2.12125,6.952 3.21087,10.56 13.60805,45.05979 26.02328,81.79289 33.69219,99.68554 2.6454,6.1721 3.6494,8.13211 3.84922,7.51447 0.24625,-0.76114 1.14343,-8.92276 1.6533,-15.04 0.93532,-11.22168 1.21254,-21.87192 1.01618,-39.04 -0.18532,-16.20263 -0.44936,-23.43493 -1.79912,-49.28001 -2.28282,-43.71091 -2.56069,-71.41863 -0.91943,-91.679998 0.1996,-2.464 0.39118,-10.888 0.42573,-18.720001 0.0746,-16.909722 0.62969,-24.673136 2.89314,-40.463112 0.92492,-6.452365 2.76903,-16.1768889 3.0677,-16.1768889 0.50661,0 3.56784,3.0743675 4.29251,4.3109179 3.86664,6.597922 5.10377,21.109388 3.27446,38.409083 -0.58353,5.518371 -0.53755,75.266779 0.074,112.159999 0.61234,36.94465 0.64934,102.06864 0.0634,111.52001 -0.22915,3.696 -0.58201,8.016 -0.78413,9.6 -0.2218,1.73817 -0.38415,8.58911 -0.40949,17.28 -0.0448,15.37357 -0.25676,18.01617 -1.76885,22.0576 -0.75474,2.01721 -1.08171,2.1368 -3.02563,1.10649 z m 125.35306,-43.1015 c -1.75043,-0.69242 -3.74643,-2.64442 -4.77053,-4.66536 -1.09338,-2.15766 -2.16403,-6.57416 -2.80176,-11.55723 -1.78496,-13.94764 -6.34915,-35.10148 -9.00653,-41.7429 -0.52195,-1.30453 -0.54953,-1.3217 -1.84969,-1.1522 -2.31325,0.30158 -17.85248,0.78964 -31.23981,0.98119 -13.4257,0.1921 -29.13408,0.70132 -29.38535,0.95258 -0.19587,0.19586 -0.82246,3.86337 -1.99584,11.68133 -1.61037,10.7298 -3.63805,20.12184 -6.04499,28 -0.86035,2.816 -1.95059,6.41369 -2.42275,7.99487 -1.54064,5.15951 -3.42909,8.17126 -5.4401,8.67598 -1.07449,0.26969 -3.16787,-0.41503 -4.09094,-1.33809 -1.87152,-1.87153 -1.77299,-5.70421 0.32432,-12.61276 0.64361,-2.12013 1.43021,-5.85026 1.85568,-8.8 0.7224,-5.00814 3.10537,-18.51702 4.98099,-28.23668 0.51757,-2.68217 1.37866,-7.50617 1.9135,-10.72 0.53488,-3.21383 1.40935,-8.21933 1.9433,-11.12333 0.53395,-2.904 1.38054,-7.728 1.88138,-10.72 0.5008,-2.992 1.57456,-9.112 2.38614,-13.6 0.81155,-4.488 2.25981,-12.552 3.21827,-17.92 0.9585,-5.368 2.53005,-14.152 3.49235,-19.52 2.45738,-13.70818 5.66727,-31.72673 7.69575,-43.2 0.94905,-5.367998 2.32489,-13.143998 3.05741,-17.279998 0.73248,-4.136 1.81468,-10.4 2.40486,-13.92 5.34701,-31.891368 6.96925,-41.68987 7.99984,-48.320002 0.65658,-4.224 1.30874,-7.988846 1.44925,-8.366325 0.14682,-0.394409 1.04691,-1.073875 2.11619,-1.597492 1.75389,-0.858841 2.09965,-0.911311 6.02074,-0.913675 2.288,-0.0014 5.76717,0.201374 7.73145,0.450562 3.44253,0.43671 3.5768,0.48293 3.71888,1.28 0.0811,0.454812 0.73101,3.92293 1.44436,7.70693 0.71334,3.784001 1.66323,9.256001 2.11088,12.160001 1.16025,7.526867 3.55555,29.380234 5.1559,47.040001 1.23824,13.663763 3.3896,29.906358 5.61597,42.399998 3.41792,19.18051 5.83529,32.63754 7.18544,40 2.89366,15.77941 7.39811,41.66245 8.96605,51.52001 0.6159,3.872 1.61401,9.56 2.21808,12.64 2.26419,11.54475 4.71177,27.93609 5.44726,36.48 0.47974,5.57281 0.66179,16.44884 0.29149,17.41382 -0.25405,0.66206 -1.8016,0.63125 -3.57744,-0.0712 z m -71.42832,-73.69955 c 0.968,-0.17063 12.344,-0.44681 25.28,-0.61374 24.76851,-0.31962 29.81712,-0.59785 30.01766,-1.6543 0.0569,-0.29974 -0.76019,-4.90774 -1.81577,-10.24 -3.04304,-15.37168 -6.81767,-37.99802 -10.13207,-60.73501 -0.62857,-4.312 -1.99267,-13.672 -3.03136,-20.8 -4.01305,-27.53994 -4.66179,-31.758805 -7.84857,-51.039999 -1.96362,-11.880819 -5.20532,-28.67384 -5.61815,-29.104 -0.18384,-0.191574 -0.41625,-0.179473 -0.62848,0.03272 -0.18518,0.185196 -1.10928,5.577998 -2.05357,11.984001 -2.40339,16.304778 -5.34528,33.050423 -10.08534,57.407278 -10.70115,54.98792 -14.49466,77.02872 -16.6329,96.64 -0.36461,3.344 -0.74499,6.62 -0.84531,7.28 -0.17501,1.15135 -0.14557,1.19906 0.72573,1.17664 0.49945,-0.0129 1.70013,-0.16296 2.66813,-0.33359 z m -201.47413,72.81048 c 0.28278,-0.73689 1.0899,-7.34263 1.46298,-11.97352 1.13275,-14.05998 1.57995,-39.99816 1.68827,-97.92001 0.1722,-92.089227 0.168,-92.298501 -2.805,-139.839999 L 164.48151,11.04 163.4689,10.20592 c -0.66232,-0.5455499 -0.94503,-1.0102087 -0.81723,-1.3432289 0.42505,-1.107665 5.78375,-1.8298033 13.18833,-1.7772583 4.21893,0.029939 10.25788,0.4071741 8.71208,0.5442179 -0.73771,0.065402 -1.02868,0.8953402 -1.47611,4.2103493 -1.69315,12.544474 -1.91253,52.507742 -0.68159,124.16 0.79017,45.99546 1.03461,76.22008 0.84729,104.76599 -0.10983,16.73871 -0.28843,31.8176 -0.39687,33.50866 l -0.19717,3.07464 -7.08381,0.18767 c -7.53047,0.19951 -8.58423,0.33328 -8.30744,1.05458 0.12856,0.33501 -0.12857,0.44847 -1.01638,0.44847 -0.95256,0 -1.14989,-0.10054 -0.99412,-0.50648 z M 13.76406,276.24001 c -1.850261,-2.06692 -3.60678,-5.47358 -4.1330278,-8.01575 -0.5275738,-2.54859 -0.4246756,-7.13055 0.2830077,-12.60209 0.3487221,-2.69619 0.8473821,-7.56616 1.1081351,-10.82216 1.26586,-15.80673 1.30046,-17.60339 1.195519,-62.08001 -0.103945,-44.05434 0.0091,-50.48411 1.133545,-64.48 0.645703,-8.03693 0.714735,-31.373809 0.128737,-43.519998 -0.597488,-12.38433 -0.805207,-33.441764 -0.403264,-40.88068 0.307724,-5.695151 0.28629,-7.175948 -0.150539,-10.4 C 11.949138,16.22823 12.273296,13.165002 14.361948,9.8715394 15.45392,8.149678 16.394372,7.8083394 21.336921,7.3399637 25.056747,6.9874581 31.608455,7.2744187 39.95779,8.1555458 52.726356,9.5030453 63.826574,9.4742905 92.995938,8.0181512 111.47276,7.0957854 119.58191,6.9381813 127.68,7.3440546 c 6.52806,0.3271833 16.48157,1.3508467 16.86522,1.7344935 0.33001,0.3300073 -0.98156,4.0087489 -2.31384,6.4899869 -1.68484,3.137824 -2.80513,5.834445 -3.32613,8.006236 l -0.38598,1.608916 -24.03718,0.233688 c -13.22044,0.128528 -38.662341,0.1969 -56.537548,0.151936 l -32.500373,-0.08175 -0.379945,1.736221 c -0.729049,3.331508 -1.674562,12.027261 -2.050288,18.856221 -0.473634,8.608487 -0.21622,22.266516 0.730459,38.757105 0.864207,15.053959 0.97465,39.935092 0.286052,64.442892 -0.247255,8.8 -0.463255,20.752 -0.48,26.56 L 23.52,186.4 l 4.000001,0.10709 c 2.2,0.0589 9.871001,-0.14424 17.046672,-0.45141 10.993555,-0.4706 13.967414,-0.4979 18.897575,-0.17345 3.217993,0.21177 6.154569,0.46445 6.525718,0.56151 0.605754,0.15841 0.698474,0.49196 0.90593,3.25904 0.222784,2.97151 0.04578,12.74222 -0.235943,13.02394 -0.07566,0.0757 -1.929104,0.30287 -4.118758,0.5049 -4.195139,0.38708 -7.253588,0.29521 -18.381194,-0.55211 -6.597127,-0.50235 -19.793533,-0.49319 -20.990782,0.0146 -0.452382,0.19186 -0.535284,1.87041 -0.725099,14.68128 -0.117875,7.95555 -0.348777,15.68865 -0.513117,17.18465 -0.164339,1.496 -0.448928,7.184 -0.632419,12.64 -0.500735,14.88903 -1.238944,20.23408 -3.384887,24.50846 -1.475501,2.93898 -4.759691,6.37155 -6.096113,6.37155 -0.223516,0 -1.147601,-0.828 -2.053524,-1.84 z m 460.47595,1.4569 c -7.40647,-0.21077 -12.56115,-0.73797 -14.43136,-1.47601 -0.75859,-0.29935 -0.8496,-0.53354 -1.03955,-2.67449 -0.53911,-6.07729 -0.57533,-23.93056 -0.0868,-42.8264 0.28435,-11 0.73165,-33.96801 0.99398,-51.04001 0.72848,-47.40948 1.54445,-69.82714 3.36029,-92.319998 0.86944,-10.769808 1.07162,-20.743104 0.6585,-32.480001 -0.54672,-15.531898 -0.79133,-43.35164 -0.39012,-44.367773 0.23495,-0.5950194 1.02141,-1.1912953 2.63792,-2.0000003 5.85767,-2.9304615 9.22103,-0.4474605 11.08208,8.1812993 0.8552,3.965112 0.70176,17.973562 -0.66713,60.906475 -1.58976,49.860478 -1.74784,54.968318 -2.12442,68.639998 -0.37139,13.48293 -1.52355,49.71651 -2.71689,85.44001 -0.43799,13.112 -0.79636,24.50302 -0.79639,25.31338 l -6e-5,1.47338 2.32,0.68102 c 11.3016,3.31748 17.01865,3.76628 39.92,3.13385 9.98381,-0.2757 15.54438,-0.0783 22.4,0.79515 l 2.72,0.34655 -0.007,6.76833 c -0.004,3.72259 -0.11328,6.98434 -0.24362,7.24834 -0.20787,0.42115 -3.63961,0.48 -27.99331,0.48 -15.26601,0 -31.28438,-0.1004 -35.59638,-0.2231 z"/>
</svg>
