<svg width="308" height="85" viewBox="0 0 308 85" version="1.1" xmlns="http://www.w3.org/2000/svg" xmlns:xlink="http://www.w3.org/1999/xlink" xml:space="preserve" xmlns:serif="http://www.serif.com/" style="fill-rule:evenodd;clip-rule:evenodd;stroke-linejoin:round;stroke-miterlimit:2;"><rect x="0" y="0" width="307.267" height="84.421" style="fill:none;"/><clipPath><rect x="0" y="0" width="307.267" height="84.421"/></clipPath><g clip-path="url(#_clip1)"><g serif:id="Layer 1"><path d="M205.175,84.396c-0,-0.404 0.81,-2.728 1.8,-5.164c2.1,-5.17 2.051,-4.899 0.9,-4.911c-0.777,-0.009 -9.233,-18.756 -9.194,-20.384c0.008,-0.326 0.531,-0.488 1.164,-0.36c0.718,0.146 2.591,3.749 4.986,9.593c2.11,5.148 4.063,9.36 4.341,9.36c0.277,0 2.005,-4.208 3.838,-9.351c2.37,-6.645 3.697,-9.421 4.59,-9.593c0.69,-0.133 1.255,-0.084 1.255,0.11c-0,0.443 -6.283,17.613 -9.329,25.494c-1.389,3.594 -2.702,5.94 -3.323,5.94c-0.566,0 -1.028,-0.33 -1.028,-0.734l-0,-0Zm-177.12,-8.545c-12.706,-4.113 -21.587,-12.694 -25.709,-24.842c-2.448,-7.217 -2.451,-17.002 -0.007,-24.029c4.115,-11.833 13.008,-20.612 24.96,-24.638c6.676,-2.249 16.845,-2.166 23.626,0.192c23.664,8.23 33.381,35.396 20.351,56.896c-4.611,7.608 -12.438,13.561 -21.517,16.366c-5.952,1.839 -16.112,1.865 -21.704,0.055l-0,-0Zm6.492,-15.662c1.371,-1.414 3.171,-5.43 5.742,-12.813c5.686,-16.331 7.736,-21.351 9.472,-23.199c3.465,-3.688 5.807,-1.801 11.814,9.522c2.629,4.955 5.535,9.504 6.459,10.11c0.923,0.605 2.73,0.997 4.014,0.871c3.022,-0.297 3.72,-2.03 0.818,-2.03c-2.737,0 -3.613,-1.075 -7.942,-9.745c-5.127,-10.27 -8.879,-13.46 -14.404,-12.247c-4.985,1.095 -7.335,5.211 -13.777,24.132c-4.507,13.237 -5.825,15.86 -7.966,15.86c-2.51,0 -3.594,-3.257 -7.268,-21.823c-2.931,-14.818 -5.069,-18.497 -10.75,-18.497c-2.644,0 -4.304,1.022 -4.304,2.649c-0,0.716 0.392,0.741 1.77,0.114c1.415,-0.645 2.133,-0.57 3.572,0.373c2.158,1.414 3.02,4.108 6.542,20.451c3.05,14.153 3.54,15.58 6.033,17.548c2.685,2.119 7.463,1.52 10.175,-1.276l0,-0Zm-2.587,-15.559c0.844,-1.293 0.971,-3.264 0.627,-9.757l-0.432,-8.137l-5.18,0.434l-0.205,8.632c-0.177,7.49 -0.04,8.752 1.038,9.54c1.804,1.319 2.954,1.122 4.152,-0.712l-0,0Zm24.189,0.153c1.009,-1.885 0.303,-4.095 -1.491,-4.665c-3.329,-1.056 -5.879,1.711 -4.298,4.665c1.067,1.993 4.723,1.993 5.789,-0Zm111.594,30.446c-1.461,-0.732 -2.8,-2.088 -3.199,-3.239c-1.699,-4.898 2.648,-8.407 11.168,-9.017c5.405,-0.387 5.905,-0.952 4.183,-4.73c-1.954,-4.288 -8.094,-4.448 -12.624,-0.329c-0.899,0.817 -1.727,1.108 -1.983,0.695c-1.647,-2.666 4.523,-6.209 9.911,-5.691c2.902,0.279 4.007,0.791 5.633,2.611c1.99,2.227 2.023,2.412 2.023,11.312c-0,6.811 -0.218,8.977 -0.88,8.756c-0.484,-0.162 -1.065,-1.076 -1.291,-2.033c-0.303,-1.285 -0.567,-1.487 -1.009,-0.772c-0.75,1.214 -6.057,3.662 -7.98,3.681c-0.792,0.009 -2.571,-0.552 -3.952,-1.244Zm8.622,-2.16c2.792,-1.401 4.303,-3.817 4.319,-6.91l0.012,-2.05l-4.5,0.499c-5.944,0.66 -8.753,2.272 -9.041,5.188c-0.405,4.111 4.245,5.763 9.211,3.273l-0.001,0Zm53.517,2.696c-2.574,-1.037 -3.107,-3.068 -3.107,-11.828l-0,-8.327l-1.8,0c-1.12,0 -1.8,-0.408 -1.8,-1.08c-0,-0.672 0.68,-1.08 1.8,-1.08c1.62,0 1.8,-0.288 1.8,-2.88c-0,-2.08 0.3,-2.88 1.08,-2.88c0.78,0 1.08,0.8 1.08,2.88l-0,2.88l4.02,0c5.287,0 5.036,1.706 -0.297,2.018l-3.723,0.217l-0,7.116c-0,10.232 1.32,12.705 5.866,10.99c1.666,-0.629 2.054,-0.58 2.054,0.259c-0,0.57 -0.831,1.352 -1.847,1.738c-2.182,0.83 -3.02,0.826 -5.126,-0.023l-0,0Zm29.019,-0.02c-4.546,-1.361 -7.646,-5.939 -7.646,-11.29c-0,-8.671 8.138,-14.06 16.167,-10.705c2.905,1.214 5.31,4.431 4.167,5.574c-0.533,0.533 -1.105,0.233 -1.917,-1.006c-3.473,-5.3 -12.682,-4.111 -15.22,1.965c-1.325,3.17 -1.305,4.707 0.104,8.23c1.496,3.739 4.075,5.37 8.495,5.372c3.046,0.002 3.791,-0.305 5.57,-2.297c2.234,-2.5 3.514,-2.932 3.514,-1.185c-0,1.759 -3.158,4.457 -6.208,5.304c-3.21,0.891 -4.161,0.896 -7.026,0.038l-0,0Zm22.243,-0.34c-3.144,-1.12 -5.087,-3.125 -4.042,-4.17c0.389,-0.39 1.487,-0.035 2.726,0.881c4.321,3.195 11.281,2.521 12.21,-1.183c0.641,-2.553 -1.398,-4.182 -6.943,-5.547c-7.756,-1.909 -9.813,-5.952 -5.34,-10.496c1.524,-1.548 2.418,-1.8 6.378,-1.8c3.89,0 4.896,0.273 6.473,1.755c2.485,2.333 1.249,3.69 -1.437,1.578c-3.827,-3.011 -11.114,-1.403 -11.114,2.451c-0,2.153 2.022,3.493 7.011,4.645c5.054,1.167 7.389,3.07 7.389,6.023c-0,3.161 -1.694,5.311 -4.881,6.196c-3.478,0.966 -4.944,0.908 -8.43,-0.333l0,-0Zm-174.601,-0.482c0.005,-0.524 2.538,-7.433 5.631,-15.353c5.153,-13.195 5.779,-14.418 7.476,-14.62c1.749,-0.208 2.042,0.272 5.268,8.64c1.879,4.873 4.505,11.596 5.836,14.94c2.824,7.093 2.846,7.24 1.063,7.24c-1.02,0 -1.806,-1.212 -3.154,-4.86l-1.794,-4.86l-7.179,-0.204l-7.179,-0.204l-1.788,4.884c-1.107,3.021 -2.246,4.973 -2.988,5.117c-0.66,0.128 -1.197,-0.196 -1.192,-0.72l-0,-0Zm18.712,-12.257c-0,-1.331 -5.127,-14.256 -5.655,-14.255c-0.428,0.001 -5.865,13.582 -5.865,14.65c-0,0.258 2.592,0.469 5.76,0.469c4.001,0 5.76,-0.264 5.76,-0.864Zm13.68,1.944c-0,-9.44 0.166,-11.16 1.08,-11.16c0.6,0 1.08,0.64 1.08,1.44c-0,1.829 0.587,1.816 2.583,-0.059c2.224,-2.09 6.669,-2.562 9.861,-1.047c3.724,1.768 4.836,5.099 4.836,14.493c-0,6.848 -0.125,7.575 -1.26,7.358c-1.091,-0.208 -1.309,-1.387 -1.62,-8.758c-0.349,-8.242 -0.425,-8.573 -2.38,-10.252c-2.316,-1.989 -3.882,-2.146 -7.269,-0.731c-4.095,1.711 -4.751,3.385 -4.751,12.116c-0,6.418 -0.187,7.76 -1.08,7.76c-0.914,0 -1.08,-1.72 -1.08,-11.16l-0,0Zm51.84,-5.1c-0,-12.688 0.197,-16.194 0.9,-15.96c0.676,0.225 0.948,4.272 1.094,16.26c0.168,13.881 0.051,15.96 -0.9,15.96c-0.946,0 -1.094,-2.196 -1.094,-16.26Zm51.84,5.1c-0,-9.44 0.166,-11.16 1.08,-11.16c0.913,0 1.08,1.72 1.08,11.16c-0,9.44 -0.167,11.16 -1.08,11.16c-0.914,0 -1.08,-1.72 -1.08,-11.16Zm-0.458,-18.715c-0.249,-0.65 -0.108,-1.527 0.314,-1.949c1.097,-1.097 3.175,-0.094 2.889,1.394c-0.319,1.657 -2.627,2.057 -3.203,0.555Zm-144.982,-27.365c-0,-14.456 0.091,-15.568 1.26,-15.343c1.152,0.222 1.26,1.534 1.26,15.343c-0,13.809 -0.108,15.121 -1.26,15.343c-1.169,0.225 -1.26,-0.887 -1.26,-15.343Zm11.52,3.9c-0,-8.942 0.205,-11.512 0.9,-11.284c0.495,0.163 1,0.977 1.123,1.809c0.222,1.503 0.241,1.501 2.801,-0.236c4.734,-3.213 11.354,-1.778 13.325,2.888c0.571,1.351 0.931,5.265 0.931,10.123c-0,6.56 -0.186,7.92 -1.08,7.92c-0.879,0 -1.147,-1.587 -1.44,-8.525c-0.349,-8.25 -0.425,-8.581 -2.38,-10.26c-3.261,-2.8 -8.073,-2.006 -11.097,1.832c-0.568,0.721 -0.885,3.967 -0.9,9.213c-0.02,6.71 -0.209,8.1 -1.103,8.1c-0.915,0 -1.08,-1.767 -1.08,-11.58Zm26.64,0c-0,-8.942 0.205,-11.512 0.9,-11.284c0.495,0.163 1.003,1 1.13,1.86c0.291,1.978 0.532,1.959 3.141,-0.236c4.056,-3.413 11.267,-1.831 13.246,2.905c0.676,1.617 1.023,5.163 1.023,10.445c-0,7.226 -0.121,7.972 -1.26,7.755c-1.095,-0.209 -1.307,-1.404 -1.62,-9.119c-0.34,-8.381 -0.46,-8.959 -2.152,-10.326c-2.693,-2.177 -7.59,-1.45 -10.245,1.521c-1.933,2.164 -2.003,2.518 -2.003,10.15c-0,6.55 -0.186,7.909 -1.08,7.909c-0.915,0 -1.08,-1.767 -1.08,-11.58Zm32.04,10.901c-2.332,-0.951 -5.267,-4.295 -6.169,-7.028c-2.428,-7.357 3.096,-15.333 10.618,-15.333c7.003,0 11.132,3.837 11.574,10.753c0.473,7.411 -3.909,12.328 -10.91,12.241c-2.02,-0.025 -4.321,-0.31 -5.113,-0.633Zm10.372,-3.334c6.507,-5.476 3.088,-16.867 -5.063,-16.867c-5.761,0 -9.269,3.547 -9.269,9.372c-0,3.532 0.909,5.544 3.488,7.724c2.786,2.356 7.9,2.248 10.844,-0.229l-0,-0Zm14.717,-7.155c-2.621,-6.598 -4.139,-11.333 -3.717,-11.594c1.225,-0.757 2.014,0.687 5.603,10.243c1.917,5.104 3.76,9.198 4.095,9.099c0.335,-0.099 2.249,-4.472 4.252,-9.72c2.345,-6.142 4.012,-9.54 4.68,-9.54c1.384,0 1.238,0.532 -3.412,12.42c-5.444,13.916 -5.617,13.902 -11.501,-0.908Zm21.891,9.746c-2.596,-2.048 -2.775,-6.248 -0.36,-8.433c2.029,-1.835 5.732,-3.102 9.107,-3.115c4.67,-0.017 5.872,-0.635 5.395,-2.772c-0.651,-2.91 -3.525,-5.138 -6.622,-5.135c-2.846,0.003 -7.34,2.287 -7.34,3.73c-0,0.652 -0.208,0.667 -0.816,0.059c-2.293,-2.293 2.951,-5.945 8.544,-5.949c3.148,-0.002 4.157,0.343 6.12,2.096l2.352,2.099l0.239,9.501c0.192,7.667 0.053,9.439 -0.72,9.184c-0.528,-0.174 -1.063,-1.019 -1.189,-1.879c-0.289,-1.959 -0.699,-1.957 -2.794,0.011c-2.525,2.373 -9.243,2.713 -11.916,0.603l-0,0Zm8.153,-0.741c3.35,-0.931 5.464,-3.273 6.11,-6.771l0.52,-2.813l-4.761,0.444c-2.619,0.245 -5.738,0.95 -6.931,1.567c-3.763,1.946 -3.6,6.029 0.304,7.611c1.931,0.783 1.8,0.784 4.758,-0.038l0,0Zm18.238,0.65c-1.161,-1.281 -1.408,-2.883 -1.61,-10.44c-0.238,-8.896 -0.245,-8.927 -1.98,-8.927c-0.958,0 -1.741,-0.324 -1.741,-0.72c-0,-0.396 0.81,-0.72 1.8,-0.72c1.625,0 1.8,-0.284 1.8,-2.933c-0,-2.404 0.227,-2.89 1.26,-2.694c0.88,0.167 1.327,1.05 1.483,2.933l0.224,2.694l3.556,0c1.956,0 3.557,0.324 3.557,0.72c-0,0.396 -1.62,0.72 -3.6,0.72l-3.6,0l0.011,8.46c0.006,4.653 0.278,8.881 0.605,9.396c0.7,1.104 2.577,1.323 5.324,0.622c1.089,-0.278 1.98,-0.24 1.98,0.084c0,2.642 -6.852,3.25 -9.068,0.805l-0.001,-0Zm14.449,0.64c-0.21,-0.546 -0.291,-5.676 -0.181,-11.4c0.168,-8.681 0.38,-10.407 1.281,-10.407c0.913,0 1.08,1.713 1.08,11.1c-0,8.238 -0.232,11.177 -0.9,11.4c-0.494,0.165 -1.071,-0.147 -1.28,-0.693l-0,-0Zm15.294,-1.421c-4.712,-11.431 -7.883,-20.097 -7.496,-20.484c1.089,-1.089 2.72,1.784 5.994,10.565c1.915,5.133 3.688,9.333 3.94,9.333c0.253,0 2.003,-4.131 3.89,-9.18c3.45,-9.233 4.322,-10.98 5.486,-10.98c1.175,0 0.643,1.841 -3.55,12.274c-3.411,8.487 -4.468,10.448 -5.731,10.632c-1.175,0.172 -1.787,-0.35 -2.533,-2.16Zm22.166,1.603c-2.417,-1.006 -5.234,-4.552 -6.03,-7.589c-1.98,-7.558 3.244,-14.755 10.71,-14.755c5.695,0 9.62,3.608 10.191,9.367l0.249,2.508l-9.54,0.201c-10.462,0.22 -10.619,0.304 -8.448,4.503c2.334,4.513 9.921,5.842 13.958,2.444c1.21,-1.018 2.532,-1.646 2.937,-1.396c1.137,0.703 -0.422,3.064 -2.853,4.321c-2.241,1.159 -8.785,1.391 -11.174,0.396l-0,0Zm12.6,-12.942c-0,-1.519 -1.452,-4.322 -2.972,-5.738c-3.379,-3.148 -10.691,-1.288 -12.565,3.196c-0.563,1.347 -1.023,2.621 -1.023,2.832c-0,0.211 3.726,0.383 8.28,0.383c4.655,0 8.28,-0.295 8.28,-0.673Zm-50.256,-16.031c-1.072,-1.071 -0.236,-2.736 1.373,-2.736c0.857,0 1.363,0.506 1.363,1.363c-0,1.609 -1.665,2.444 -2.736,1.373Z" style="fill-rule:nonzero;"/></g></g></svg>
