<svg data-name="Layer 1" xmlns="http://www.w3.org/2000/svg" viewBox="0 0 189.92 102.76" width="190" height="103"><title>Jaqua Realtors - Nate Hawthorne</title><path d="M89.26,54.94a27.47,27.47,0,0,1-4,1.49,21.63,21.63,0,0,1-3.82.31A13.81,13.81,0,0,1,76.84,56a8.89,8.89,0,0,1-3.41-1.78,17.24,17.24,0,0,1-6.15-9.72c-.23-1.09-.21-2.14-.33-3.21a8.87,8.87,0,0,0-.32-1.21,3.64,3.64,0,0,0,.3-1.24c-.2-4,1.51-7.35,3.69-10.56a13.72,13.72,0,0,1,5.85-5,17,17,0,0,1,6.33-1.49,21.86,21.86,0,0,1,6.83,1.27,7.07,7.07,0,0,1,2.08,1.18c.83.59,1.58,1.29,2.43,2l1.09-2.49-.18-.1,1.09-1h1.13c.78,1.44.59,2.94.59,4.4,0,13.4,0,26.8,0,40.2,0,1.66.3,3.32.49,5.24l1.89,1.59c2.49.07,2.87.29,3.17,1.86L102,77c-.9-.14-2,.31-2.88-.4H88.8c-1.33.78-2.8.2-4.25.44l-.93-1.43c.95-1.22,2.29-1.43,3.79-1.39.33-.35.72-.7,1-1.11A2.78,2.78,0,0,0,89.12,72a21.62,21.62,0,0,0,.4-3.39c.06-2.58.06-5.15,0-7.73C89.5,59,88.88,57.17,89.26,54.94ZM86,24.88a5.49,5.49,0,0,0-4.34-.25c-2.13.69-2.6,2.7-3.61,4.28,0,1.34-.68,2.52-.79,3.83s-.39,2.8-.37,4.19a61.68,61.68,0,0,0,.27,6.78,19.4,19.4,0,0,0,2.08,7.08,5.57,5.57,0,0,0,3.55,3c1.38.49,2.53-.05,3.77-.55s1.41-1.4,1.83-2.4c.93-2.28.81-4.7,1.11-7,.44-3.37-.34-6.74-.37-10.12,0-1.34-.25-2.67-.38-4-.81-.43-.3-1.28-.6-1.93A9.2,9.2,0,0,0,86,24.88Z"/><path d="M5.39,41.31c.63-.13,1.37-.1,2.13-.32A4,4,0,0,1,10,41.6a4.82,4.82,0,0,1,2.81,3.14,5.49,5.49,0,0,1-.37,4.16c-.54,1.3-1.49,2.48-1.28,4.28a1.79,1.79,0,0,1,.46.32,2.4,2.4,0,0,0,1.81.84,4.29,4.29,0,0,0,1.95-.52,5.49,5.49,0,0,0,2.51-3.67,24.38,24.38,0,0,0,.75-6.41c-.13-2.28.57-4.48.43-6.77s0-4.62,0-6.93,0-4.62,0-6.93c0-1.68-.59-3.28-.44-5s0-3.3,0-5,.06-3.43,0-5.15A22.5,22.5,0,0,0,18,5.09a4.4,4.4,0,0,0-4.27-2.24A4,4,0,0,1,11.15,2,1.65,1.65,0,0,1,11.71.08a64.38,64.38,0,0,1,7.72.08,17.51,17.51,0,0,0,5,.26c3.52-.63,7-.15,10.54-.34h.8c.93.48.64,1.19.69,1.79-1.28,1-1.28,1-3.24,1a4.33,4.33,0,0,0-2.49,2.36,9,9,0,0,0-.59,2.13c-.19,2-.38,4-.4,6,0,7.46-.09,14.92,0,22.38,0,2.48-.39,4.9-.5,7.36a14,14,0,0,1-1.17,4.64,13.6,13.6,0,0,1-3.95,5.69,19.48,19.48,0,0,1-7.55,3.78,14.45,14.45,0,0,1-5.38.3c-3.71-.49-7-2-8.83-5.51a5.92,5.92,0,0,1-.82-2.64,4.8,4.8,0,0,0-.31-1,.92.92,0,0,1-.05-.56c.55-1.18.33-2.58,1.16-3.68A9,9,0,0,1,5.39,41.31Z"/><path d="M118.68,52.89l2.82-2.09a9.36,9.36,0,0,0,2-2.52c.29-1.46,1.18-2.81.86-4.4.69-2.42.34-4.9.39-7.36s0-4.89,0-7.33a5.75,5.75,0,0,0-.78-3.45c-.93-.73-2.84.07-4-1.29v-.81l.43-.4a19.2,19.2,0,0,1,5.68-.58c1.85.05,3.7,0,5.55,0h1v3.65q0,11.2,0,22.39c0,1.47-.19,3,.66,4.53l2.55.51c.69.42.26,1.28.37,2.2h-3.93c-1.38,0-2.77,0-4.16,0s-2.58.26-3.93-.35c.15-1.68.28-3.18.44-4.91a4.49,4.49,0,0,0-.85.86c-1.14,2.23-3.41,3.09-5.31,4.38a6.7,6.7,0,0,1-2.62.81,12.57,12.57,0,0,1-6.19-.8,8.24,8.24,0,0,1-2-1.4,10,10,0,0,1-2-3.53c-.14-.93-.34-1.87-.5-2.79-.64-3.51-.23-7-.32-10.54s0-7.13,0-10.43c-.21-1.55-1.37-1.72-2.27-2.18a6.23,6.23,0,0,0-.9-.22,8.26,8.26,0,0,1-.79-.38v-.81a3.2,3.2,0,0,1,2.58-1c3.17.05,6.34,0,9.7,0v1.51q0,10.5,0,21a18.71,18.71,0,0,0,.79,4.62,3.71,3.71,0,0,0,2.37,2.73A11.14,11.14,0,0,0,118.68,52.89Z"/><path d="M51.85,33.9c.25-1.46,1-2.79.82-4.26s-.29-2.73-1.35-3.8a3.39,3.39,0,0,0-2.88-1.2,13.37,13.37,0,0,1-1.42,0,5,5,0,0,0-1.92,3.49,6.43,6.43,0,0,1-1.48,3.56c-.43.43-1.08.58-1.33,1.22H38.73a1.58,1.58,0,0,0-.32-.55c-1.78-1.81-1.87-3-.94-5.43.86-2.27,2.75-3.05,4.69-3.87A20.25,20.25,0,0,1,52,21.94a10.39,10.39,0,0,1,4.92,1.49c2.54,1.68,3.18,2.38,3.8,5.33a24.82,24.82,0,0,1,.32,5c0,4.22,0,8.45,0,12.67,0,.93-.06,1.86,0,2.77s.32,1.72.52,2.75l.7,1.16h3.4l.56,1c-.37,1.37-1.52,1.58-2.41,1.74-2,.37-3.93,1.07-6,.86a3,3,0,0,0-1,.27l-2.68-.39L52.4,54.89l-.59-2.25a12.48,12.48,0,0,1-5.28,3.73c-.56.88-1.55.11-2.33.62a2,2,0,0,1-2.35-.19,6.1,6.1,0,0,1-5-3.32,7.88,7.88,0,0,1-.49-1.19,8.39,8.39,0,0,1-.73-4.63,9.8,9.8,0,0,1,2.46-5.52,11,11,0,0,1,3.36-2.43,62.46,62.46,0,0,1,5.9-2.5A9,9,0,0,0,51.85,33.9ZM48.5,52a7.38,7.38,0,0,0,3.66-4.4c.25-.91-.18-1.93.52-2.75.09-.12,0-.39,0-.59,0-2.3.23-4.64-.52-6.76l-4.3,2.88a19.21,19.21,0,0,0-2.59,1.84A10.31,10.31,0,0,0,44,44.28c0,1.21,0,2.45,0,3.7a4,4,0,0,0,2.2,4Z"/><path d="M152,24.65h-3.12A5.13,5.13,0,0,0,147,28.36a6.05,6.05,0,0,1-1.37,3.4A3.29,3.29,0,0,1,142.77,33a12.69,12.69,0,0,0-1.38,0A4.48,4.48,0,0,1,139,30.84c.13-1.46.27-2.91.4-4.34,1.32-1.11,2.21-2.6,3.93-3.13,1.29-.4,2.56-.83,3.88-1.17a23.09,23.09,0,0,1,6.78-.27,11.27,11.27,0,0,1,6.88,2.91,6.12,6.12,0,0,1,1.66,3.07,12.65,12.65,0,0,1,.35,3.61c0,4,.11,8.06,0,12.08-.09,2.48.46,4.89.48,7.36a7.05,7.05,0,0,0,.87,2.2h3.26l.87,1-.47.84a16.67,16.67,0,0,1-4.33,1.38,26,26,0,0,1-4,.34,3,3,0,0,0-.82.31l-2.76-.51-1.78-1.78v-2c-1.8,1.17-3.23,2.64-5.14,3.43a8.23,8.23,0,0,1-4.55.92c-2.69-.5-5-1.55-6.19-5.12-.33-1-.23-2.11-.75-3.05a16,16,0,0,1,1.84-5.78c1.56-2.53,4.1-3.57,6.6-4.6,2.15-.88,4.25-1.85,6.35-2.84.9-.42,1.19-1.39,1.57-2.26a8.24,8.24,0,0,0,.28-5.89,3.89,3.89,0,0,0-1.54-2.3A7.1,7.1,0,0,1,152,24.65ZM150.73,52a14.49,14.49,0,0,0,2.12-1.74,7.86,7.86,0,0,0,1.62-4.44c.22-2.8.06-5.62.06-8.6-.94.65-1.68,1.19-2.45,1.7-2.06,1.36-4.31,2.48-5.88,4.73-.62,2.91-1,6,1.81,8.35Z"/><path d="M120.19,76.66c-1.69.1-3.47.7-5.13-.14a49.57,49.57,0,0,1-1.4-6.37l-1.57-1.48h-1.48v6.07c.32,1.14,1.69.75,2.36,1.71-.39.18-.76.49-1.12.48-.94-.05-1.93.32-2.82-.34-.16-.12-.59.1-.88.19a3.55,3.55,0,0,1-3.08-.34c.15-1.06,1.46-.29,1.83-1.59V61.2l-2.1-.78,1.19-.9h7.7a5.26,5.26,0,0,1,3.44,1.25,3.29,3.29,0,0,1,1.35,3,12.71,12.71,0,0,0,0,1.38,4.37,4.37,0,0,1-3.85,2.8,10.32,10.32,0,0,1,1.29.72,6,6,0,0,1,1.75,2.83,5.59,5.59,0,0,1,.4,1.61c.12,1.47.67,2.53,2.28,2.76.16,0,.29.27.56.55ZM113,60.78h-2.32v6.66a4,4,0,0,0,3-1c1.2-1.13.76-2.62.84-4.15Z"/><path d="M65.44,100.6l.56.56h1.7v1.08H59.65c.27-.34.38-.6.58-.7.71-.36,1.44-.66,2.29-1V88.16L59.8,87.09l.09-.55h7.82V87.6H66l-.59.59v5h7.8v-5c-.78-.6-2-.52-2.77-1.29a2.78,2.78,0,0,1,.13-.31s.1-.13.14-.13h7.66l.07,1.15H76.7l-.63.64v12.3l.66.6h1.66v1.08h-8c.24-.32.34-.59.54-.69.7-.36,1.44-.65,2.3-1V94.83H65.44Z"/><path d="M18.18,86.53V87.6H15.89v15.05H14.48L4,89.05v11.61l2.26.64v.94H.06c.28-1.06.55-1.25,2.23-1.56V88.15c-.4-.14-.9-.33-1.42-.49S0,87.27,0,86.55H5.39c2.82,3.61,5.72,7.33,8.79,11.28V88.18c-.58-.65-2.08-.18-2.4-1.65Z"/><path d="M130.41,102.25c-.18-1,.69-1,1.14-1.32,0-2.16,0-4.34,0-6.51a18.18,18.18,0,0,0-.28-2.16,4.07,4.07,0,0,0-4.42.35v8.47h1.39l.63.94c-.12.13-.16.22-.21.22h-6.78l2.14-1.62V86.33l-2.28-1.56,5-1.65v8c1.1-.22,1.75-1,2.7-1.3s2.08.07,3-.3c.33.35.6.64.88.91a3.06,3.06,0,0,1,1,2.38c0,2.7,0,5.4,0,8.25h1.88l.63,1.16Z"/><path d="M112.14,90.74l-1.46.55c-.55,1.95-1.34,3.86-2.09,5.79s-1.32,3.8-2,5.63H105.1c-1.14-2.7-2.31-5.45-3.51-8.3-1.1,2.73-2.19,5.45-3.3,8.22-.68.07-1.3.31-1.78-.28-1.06-3.56-2.1-7.09-3.19-10.78-.28-.47-1.45-.31-1.4-1.45h6c-.2.3-.29.59-.48.69a10.86,10.86,0,0,1-1.38.44c.67,2.49,1.29,4.82,1.92,7.15,1.71-2.71,2.55-5.69,4-8.57.38.29.77.43.84.66.56,1.88,1.65,3.54,2.16,5.44a7.54,7.54,0,0,0,.51,1.17c.3.67.59,1.34.86,2,.84-2.33,1.71-4.73,2.57-7.14-.19-1.09-2-.26-2-1.79a10.63,10.63,0,0,1,2.46-.09c.85,0,1.7,0,2.63,0Z"/><path d="M175.94,101.14h1.49l.62,1.1h-6.67a8.39,8.39,0,0,1,.61-.71c.38-.34.79-.65,1.16-.94,0-1.85,0-3.63,0-5.41a5.48,5.48,0,0,0-.37-2A2,2,0,0,0,170,91.78c-.63.21-1.26.46-2,.72V101h1.3l.78,1.21h-7.08l2.14-1.63v-8c-.72-.44-1.71-.51-2.08-1.53l4.76-1.57c.07.63.12,1.12.18,1.63a.8.8,0,0,0,.27,0c.83-.39,1.49-1.16,2.46-1.24a17.27,17.27,0,0,1,3-.07c.9.09,1.31.88,1.54,1.54C176.23,94.55,175.84,97.75,175.94,101.14Z"/><path d="M26.73,101.27a5.55,5.55,0,0,1-4.61,1.39l-1.92-1.93v-1A2.68,2.68,0,0,1,22,97.14a14.58,14.58,0,0,1,3.5-1.59,4.84,4.84,0,0,0,1.41-.83,3.05,3.05,0,0,0-1.28-3.06H23v1.69l-.64.64h-.92l-1.24-1.32c.92-1.43,2.49-2.22,4.38-3,1.5.21,3.67-.76,4.4,1.12,1,3.63.63,6.7.72,9.84a1.74,1.74,0,0,0,1.81-.23l.7.8-2.31,1.51h-2Zm-3.16-.53c1.12-.06,2.31.23,3.36-.59,0-.61,0-1.26,0-1.91s0-1.25-.07-2c-1.54.6-3.06.9-3.87,2.39v1.5Z"/><path d="M87.12,94.76a3.25,3.25,0,0,0-1.35-3.14H83.26l-.1,1.83A2.17,2.17,0,0,1,81.4,94l-1-1.2c.28-.32.59-.72.94-1.07a7.13,7.13,0,0,1,6.23-2.08c1.48.51,1.78,1.5,2.07,2.78.62,2.72.07,5.44.41,8.3.57-.08,1.21.26,1.57-.2l1,.49-2.5,1.69H88l-1-1.27-2.46,1.27H82.28l-1.84-1.86V99.2a3.82,3.82,0,0,1,2.45-2.46C84.31,96.19,85.66,95.45,87.12,94.76Zm-3.33,6c1.13,0,2.3.23,3.37-.57,0-1.23,0-2.51,0-3.83a6,6,0,0,0-3.94,2.3v1.53Z"/><path d="M146.4,89.64c2.11.59,2.91,2.36,3.77,4.4,0,.9,0,2.08,0,3.26-.07,1.93-1.93,4.6-3.81,5.08a25.94,25.94,0,0,1-4.1.34,9.33,9.33,0,0,1-1.08-.5,5.53,5.53,0,0,1-1.49-1.13,17.55,17.55,0,0,1-1.28-2.43.66.66,0,0,1-.11-.35c.14-1.59-.25-3.19.36-4.79a5.59,5.59,0,0,1,5.18-3.88C144.69,89.63,145.55,89.64,146.4,89.64Zm-.64,11.49a9.12,9.12,0,0,0,1-1.58,7.62,7.62,0,0,0,.6-2.5,19.76,19.76,0,0,0-.4-4,2.77,2.77,0,0,0-1.06-1.5,3,3,0,0,0-1.84-.69,2.49,2.49,0,0,0-2.24,1.7c-.44,1.18-1.13,3.33-.71,4.21a9.59,9.59,0,0,1,.39,2.64l1.27,1.7Z"/><path d="M187.22,89.64c2.37,2.09,2.63,2.64,2.51,5.48h-8.22c.19,2.25.53,4.31,2.65,5.6h2.93l2.18-1.13.65.59c-.76,1.54-2.41,1.63-3.53,2.53a16.71,16.71,0,0,0-1.73,0c-2.44.25-4.5-1.17-5.55-3.92a5.18,5.18,0,0,1-.39-2.8c.15-.84.43-1.66.66-2.49A5.69,5.69,0,0,1,181.06,91a5.54,5.54,0,0,1,3.39-1.37A23.26,23.26,0,0,1,187.22,89.64ZM182,93.94a10.45,10.45,0,0,0,4.65-.51,2.77,2.77,0,0,0-.93-2.57h-2.44C182.33,91.7,181.64,92.57,182,93.94Z"/><path d="M51.27,89.66a5.26,5.26,0,0,1,2.56,5.46H45.58c.26,2.16.42,4.22,2.79,5.61h2.77l2.19-1.13.67.58c-.76,1.54-2.42,1.63-3.53,2.53H47a6.7,6.7,0,0,1-4.05-7.46c.76-2.46,1.41-3.77,2.68-4.62C47.32,89.47,49.32,89.55,51.27,89.66Zm-3.93,1.17c-.91.86-1.69,1.75-1.23,3.29l4.53-.53a2.75,2.75,0,0,0-.92-2.76Z"/><path d="M162.67,65.46c.5,0,1.42.05,2.34,0a2.51,2.51,0,0,1,1.87.71,7.13,7.13,0,0,1,2.26,2.76c.2,3.81.45,4.46-2.69,7.42a5.65,5.65,0,0,1-6-.46c-2.2-1.68-2-4.11-1.89-6.43A5.73,5.73,0,0,1,162.67,65.46Zm.38,1.2A5.06,5.06,0,0,0,162,68.17a11,11,0,0,0,.22,6.34,5,5,0,0,0,.73,1.26h1.66s.1-.08.15-.12c1.05-2.28,1.59-1.22.89-6.62-.12-.92-.82-1.51-1-2.36Z"/><path d="M142.27,76c-1.27,1.33-2.79.87-4.27,1l-.69-1.13c-1.37,1.11-1.41,1.13-3.53,1-1.5-.13-1.51-1.42-1.8-2.36s.66-1.81.93-2.69c1.34-1.26,3.44-1,4.57-2.63V67.46l-1-1.32c-.26.17-.48.22-.56.36-.28.54-.5,1.11-.76,1.67-.13.27-.31.53-.47.82h-1.7c-.8-.43-.59-1.13-.58-1.77.33-.32.66-.64,1-1a2.54,2.54,0,0,1,2-.78c1,0,2,0,3.06,0l1.65,1.15c.93,3,.39,5.83.62,8.76Zm-4.83-5.13a3.82,3.82,0,0,0-2.8,2.86c.5.5.38,1.54,1.44,1.67l1.36-1.4Z"/><path d="M127.58,65.44l2.08,1.07c.27.52.62,1.11.88,1.73s.45,1.27.71,2l-.66.75H124.4a5.56,5.56,0,0,0,1.81,4.37h2.17l1.12-1.24,1.45.19c-.91,1.48-2,2.57-3.51,2.59-2.75,0-2.76.84-5.8-2.59C120,68.94,123.34,64.56,127.58,65.44Zm-1.2.59-1.51,1.68-.26,2h3.32v-2.2l-.25.21Z"/><path d="M142.07,76.23l2.16-.86V73c0-3.22,0-6.45,0-9.68a12.33,12.33,0,0,0-.29-2l-2-1.1c1.73-.84,3.42-.53,5-1.22,0,.42.07.79.07,1.16,0,4.41,0,8.82,0,13.23a16.74,16.74,0,0,0,.33,2.25h1l.66.91c-.1.15-.14.25-.18.25-2,0-4,0-5.55,0Z"/><path d="M159.22,91.83l-2.25.65v8.64h2.6l.67,1.11h-8.4a9.51,9.51,0,0,0,1.3-.73,11.3,11.3,0,0,0,1-1V92.62c-.62-.55-1.73-.45-2-1.59l4.83-1.56V91.3a18.37,18.37,0,0,1,2.65-1.62,5.7,5.7,0,0,1,2,0l1,1.6-1.77,2.44Z"/><path d="M34.45,91.67l-2.33-.15a10.9,10.9,0,0,1,1.75-1.45c.71-.36,1-1.06,1.5-1.54s1-1,1.79-1.78V90h4.18c.57.68.23,1.13-.31,1.62H37.24c0,2.35-.07,4.63,0,6.91A8.53,8.53,0,0,0,38,100.7h2.68l.48-.8,1,.74c-.61,1.15-1.9,1.27-2.71,2.08-1.67-.12-3.68.58-4.36-1.51C34.19,97.94,34.53,94.88,34.45,91.67Z"/><path d="M112.12,90.89c2.06-.56,2.74-2.86,4.69-3.77V90c1.47.19,2.9,0,4.3.11.32.67.12,1.16-.62,1.6h-3.61c0,2.24-.06,4.4,0,6.57a10.52,10.52,0,0,0,.67,2.45h2.71l.79-.79.64.73c-.53,1.16-1.83,1.29-2.68,2.11-1.64-.15-3.64.58-4.5-1.88,0-1.42-.61-2.88-.47-4.45s0-3.14,0-4.77h-1.93Z"/><path d="M183.63,66.24l-1.41,1c.08.26.09.41.17.49a12.7,12.7,0,0,0,3.73,2.45,2.78,2.78,0,0,1,1.7,2.68c0,.46,0,.93,0,1.39a4.84,4.84,0,0,1-2.76,2.67c-1.07,0-2.37.25-3.4-.78l-1.69.51v-4l.51-.42s.17.08.19.16a6.69,6.69,0,0,0,2.19,3.29h2c1.17-.74.33-1.48.2-2C183.48,72.29,181.3,72,180.3,70V67.15c.65-.54,1.39-1.14,2-1.69,2.4,0,2.4,0,3.73.75l.78-.77c1.1,1.26.37,2.66.54,4h-.58C186.18,67.88,185.3,66.57,183.63,66.24Z"/><path d="M176.12,65.47h2.12l1.33,1.92L178.66,69h-1.44l-1.17-1.65a2.34,2.34,0,0,0-1.31,2.2c0,2,0,4.08,0,6.09.62.29,1.57,0,1.59,1.24-1.92.25-3.86,0-5.75.12l-.72-.72,1.66-.65V67.05l-1.58-.66c.95-1,.95-1,4.38-.89v2.16c.4-.59.6-.93.84-1.22S175.72,65.87,176.12,65.47Z"/><path d="M157.47,65.39,157,67h-2.83c0,1.5-.06,2.93,0,4.36s-.41,2.73.51,4.09l3-.52-.43,1a5.37,5.37,0,0,1-4.23.86l-1.5-1c-.93-3-.39-5.83-.61-8.79H149l0-.52c3.8-2,3-1.56,4.53-4.6l.61.57v2.92Z"/></svg>
