<svg xmlns="http://www.w3.org/2000/svg" viewBox="0 0 256 123.62" width="256" height="124">
  <title>Kalamazoo Loaves &amp; Fishes</title>
  <path d="M0,70.68s.09,0,.1-.08A9.22,9.22,0,0,1,4.66,65c.07,0,.1-.13.2-.27-.33-.54-.72-1.09-1-1.69A6.66,6.66,0,0,1,4,55.75c1.89-2.82,6.12-3.18,8.5-1.61a5.55,5.55,0,0,1,.31,8.77,43.07,43.07,0,0,1-3.54,2.55c1,1.12,2,2.28,3,3.42s2,2.3,3.14,3.55a17.72,17.72,0,0,0,2.46-7.67l.09-.08.1-.07.13,0h133.1l.13,0,.26-.12c0-.46,0-1,0-1.54,0-4.88-.07-9.77,0-14.65a37.2,37.2,0,0,1,1.48-10.76,8.55,8.55,0,0,0,.54-4.65,28.67,28.67,0,0,0-.86-2.8c-.58-1.65-1.3-3.26-1.76-4.93a9.67,9.67,0,0,1,.25-5.81A24.75,24.75,0,0,1,161.84,6.2,38.44,38.44,0,0,1,177.06.8c1.56-.23,3.14-.36,4.71-.56a7.88,7.88,0,0,0,1-.24h8.48a7.8,7.8,0,0,0,1.21.27A70.69,70.69,0,0,1,207,2.84a8,8,0,0,1,3.32,1.85L211.81,6c-2.14-.52-4.24-1.09-6.37-1.52a70.66,70.66,0,0,0-9.52-1.24,57.1,57.1,0,0,0-8.59.12A56.27,56.27,0,0,0,174.69,6a40.61,40.61,0,0,0-10.08,4.72,20.37,20.37,0,0,0-7.82,9.12,16.51,16.51,0,0,0-1.33,5.45,15.09,15.09,0,0,0,1.27,6.24c.2.52.41,1,.65,1.54a9.18,9.18,0,0,1,.45,7,32.56,32.56,0,0,0-1.38,9.61q-.12,9.25-.24,18.49c0,.34,0,.68,0,1.09-1.11-.56-2.11-1.11-3.17-1.57a4.43,4.43,0,0,0-1.71-.39q-64.83,0-129.66,0H20.41a19,19,0,0,1-3.18,7.12l4,4.41H17.11l-1.93-2.35c-.49.36-.85.64-1.24.9a10.22,10.22,0,0,1-9.53,1.27A6.22,6.22,0,0,1,.28,74.06,2.89,2.89,0,0,0,0,73.51Zm6.3-4.2a19.33,19.33,0,0,0-2,1.94,5.11,5.11,0,0,0,2.58,8.22,6.7,6.7,0,0,0,5.88-1.41,5.37,5.37,0,0,0,.69-.75Zm1.49-2.81a14.35,14.35,0,0,0,3-2.2,4,4,0,0,0,1.07-3.54A3,3,0,0,0,9,55.43a3.21,3.21,0,0,0-3.16,2.93A6.46,6.46,0,0,0,7.79,63.67Z"/>
  <path d="M126.71,123.62l-1.45-.59v-.84a2,2,0,0,1,.43,0,11.63,11.63,0,0,0,1.36.36c1.71.22,2.68-.93,2.41-2.87a11,11,0,0,1-1.1.6,2.71,2.71,0,0,1-3.47-1.35,4,4,0,0,1,0-3.82,3,3,0,0,1,4.7-.76l.35-.66h.74a2.88,2.88,0,0,1,.09.5q0,2.82,0,5.65c0,2.17-.62,3-2.71,3.56a1.44,1.44,0,0,0-.32.2Zm2.9-6.6h0a6.93,6.93,0,0,0,0-.89,1.85,1.85,0,0,0-3.47-.69,3,3,0,0,0,0,3.16,1.82,1.82,0,0,0,1.93.94,1.75,1.75,0,0,0,1.5-1.38A6.37,6.37,0,0,0,129.61,117Z"/>
  <path d="M239,59.8a48.89,48.89,0,0,1,10.09,4.73,15.34,15.34,0,0,1,4.62,4.2c2,2.82,1.8,5.84-.77,8.18l-.93.87c.35-1.09.68-2.05,1-3a4.13,4.13,0,0,0-1.61-4.65,21.16,21.16,0,0,0-5-2.82,44.11,44.11,0,0,0-10.68-3.1l-6-1a38.12,38.12,0,0,0-2.9,6.17,31.78,31.78,0,0,0-1.87,10.41,25.5,25.5,0,0,0,2.8,11.48,7.58,7.58,0,0,0,3.59,3.57c3.78-1,7.6-2,11-4.16a44.07,44.07,0,0,0,9.92-8.27,22.59,22.59,0,0,0,3.11-4.85,2.41,2.41,0,0,1,.72-1c-.16.8-.3,1.61-.49,2.4a22.36,22.36,0,0,1-3.64,7.44,33.47,33.47,0,0,1-13.8,11.17,57.7,57.7,0,0,1-15.38,4.67,68.86,68.86,0,0,1-14.57.94,80.1,80.1,0,0,1-19.89-3.54,93,93,0,0,1-25-12,3.91,3.91,0,0,0-.5-.22,86.48,86.48,0,0,0-8.31,8.93l.35,4.5-.14,0-.85-3.72-2.19,2.63a21.64,21.64,0,0,1,1.91-3.78,47.86,47.86,0,0,0-9.83-18.86l1.48-6.66c5.26,5.47,11.49,9.26,18,12.93,1-1.11,2.07-2.23,3.14-3.32s2.19-2.16,3.33-3.28c0-.54,0-1,0-1.55,0-3.51-.19-7-.11-10.53a55.79,55.79,0,0,1,1.83-11.88c.49-2,.95-4.08,1.43-6.11a2.63,2.63,0,0,0-.89-2.86,13.07,13.07,0,0,1-4.55-11.21,15.51,15.51,0,0,1,4.42-10A27.55,27.55,0,0,1,184,15.44a55.93,55.93,0,0,1,9.93-1.84A78.08,78.08,0,0,1,204.44,13a56.62,56.62,0,0,1,17.06,2.48,55.56,55.56,0,0,1,10.16,4.87A44.58,44.58,0,0,1,240,26.22a14,14,0,0,1,4.92,10.6,18.08,18.08,0,0,1-2.86,9.57c-.61,1-1.26,2-1.94,3a9.79,9.79,0,0,0-1.57,6C238.59,56.82,238.85,58.26,239,59.8ZM233.29,58c-.18-2.47-.36-4.89-.53-7.31a9.67,9.67,0,0,1,0-1.27,9.08,9.08,0,0,1,2.14-4.85,21.65,21.65,0,0,0,2-2.82,17.62,17.62,0,0,0,1.72-12.29,10.58,10.58,0,0,0-7.24-8.24A70.77,70.77,0,0,0,211.81,17a58.43,58.43,0,0,0-19.2,1.78,33,33,0,0,0-15.39,8.82c-2.85,3-4.61,6.47-4.3,10.74a12.5,12.5,0,0,0,2.72,7.2c.68.83,1.4,1.62,2,2.48a4.16,4.16,0,0,1,.74,3.76c-.37,1.31-.66,2.65-1,4a54.87,54.87,0,0,0-1.95,14.95c0,.31.06.63.11,1.08.44-.3.76-.5,1.07-.73a79.34,79.34,0,0,1,15.53-8.94,61.52,61.52,0,0,1,23.36-5.22c3.29-.08,6.59.1,9.88.28,1.79.1,3.55.48,5.34.67A5.72,5.72,0,0,0,233.29,58Zm-6.83,37.9a21.61,21.61,0,0,1-3.38-3.56,21.27,21.27,0,0,1-3.5-10.84,28.15,28.15,0,0,1,.71-8.27,20.48,20.48,0,0,1,4.59-9.61,2.17,2.17,0,0,0,.21-.46c-1-.09-2-.22-3-.25a70.79,70.79,0,0,0-21.38,2.73,90.69,90.69,0,0,0-32,16.56c-1,.81-2,1.67-3.07,2.59.47.26.76.43,1.06.58a106.59,106.59,0,0,0,21.07,7.91,97.57,97.57,0,0,0,15.07,2.88c2.55.26,5.1.62,7.66.66,3.5.06,7-.06,10.51-.23C222.84,96.55,224.65,96.19,226.46,95.94ZM148.3,75.44c.78,2.11,1.62,4.2,2.33,6.33s1.34,4.31,2,6.48.93,4.34,1.57,6.54l6.63-8.72A91.45,91.45,0,0,1,148.3,75.44Z"/>
  <path d="M164.8,76.31c-1.7-1.42-3.76-1.67-5.13-3.09a5.6,5.6,0,0,1-.09-.67c-.06-4.88-.14-9.76-.14-14.63,0-2.52.09-5,.25-7.56a20.38,20.38,0,0,1,1.5-7,7.45,7.45,0,0,0-.22-6.79c-.44-.83-.83-1.69-1.29-2.51a10.94,10.94,0,0,1-1.48-5,13.6,13.6,0,0,1,.9-5.14,20.55,20.55,0,0,1,3.68-6.13,30.47,30.47,0,0,1,11.29-8.26,46,46,0,0,1,14.34-3.63A57.12,57.12,0,0,1,210.85,8a34.09,34.09,0,0,1,5.37,2.06A17.35,17.35,0,0,1,220.08,13c-1.35-.47-2.69-1-4.06-1.41a51.22,51.22,0,0,0-14.79-2.17,59,59,0,0,0-23.59,4.71,24,24,0,0,0-10.57,8.29,19.25,19.25,0,0,0-3.56,9.36,9.53,9.53,0,0,0,1,5.09,22.83,22.83,0,0,0,1.56,2.65,6.27,6.27,0,0,1,.65,6.32,32.06,32.06,0,0,0-2.07,9.47,122.33,122.33,0,0,0-.14,13.86C164.57,71.45,164.7,73.72,164.8,76.31Z"/>
  <path d="M96.25,99.92H93.13c-.05-3.82,0-7.61,0-11.48H81.18A7.69,7.69,0,0,0,81,91.19c0,1,0,2,0,3v5.72H78.11c-.27-.83-.4-21.7-.13-24.65h3V85.29c1,.37,10.41.46,12.09.13V75.32a9.6,9.6,0,0,1,3.18-.17Z"/>
  <path d="M33.78,70.82H49.53v3.12H37.58v9.62c1.82.08,3.6,0,5.38,0H48.4a9.87,9.87,0,0,1,.08,3.19h-11v13.1H33.78Z"/>
  <path d="M104.68,85.66h9.56v2.68h-9.33a39.05,39.05,0,0,0,0,9c3.41.16,6.86,0,10.4.1v2.47H101.71c-.26-.87-.37-22.65-.1-24.73,4.32-.05,8.67,0,13.14,0v2.67H104.67C104.61,80.46,104.63,83,104.68,85.66Z"/>
  <path d="M73.3,76l-.74,2.36c-1.29-.31-2.47-.61-3.67-.88a6.13,6.13,0,0,0-3.4.33,3.66,3.66,0,0,0-1,6.34,13.66,13.66,0,0,0,2.11,1.21c1.19.57,2.45,1,3.63,1.63a6.6,6.6,0,0,1,3.65,3.78c1.09,3.48.17,7.57-4.51,9.13a12.9,12.9,0,0,1-9-.5,4.6,4.6,0,0,1-.68-.37,3.2,3.2,0,0,1-.33-.27l.8-2.43c1,.37,1.88.77,2.81,1a8.94,8.94,0,0,0,5.06.12,3.9,3.9,0,0,0,3-3.42A3.85,3.85,0,0,0,69.2,90,25.76,25.76,0,0,0,66,88.41a19.2,19.2,0,0,1-3.7-2,6.29,6.29,0,0,1,1-10.53,8.22,8.22,0,0,1,3.67-1,12.89,12.89,0,0,1,5.06.55C72.41,75.54,72.82,75.76,73.3,76Z"/>
  <path d="M131.92,75.88c-.19.66-.3,1.11-.45,1.55s-.26.61-.38.89c-1.26-.31-2.44-.64-3.64-.89a6.11,6.11,0,0,0-3.4.38,3.65,3.65,0,0,0-.87,6.33,20.4,20.4,0,0,0,2.69,1.47c1,.5,2.14.88,3.15,1.42,1.83,1,3.37,2.32,3.75,4.46.78,4.38-1.22,7.51-5.49,8.6a13,13,0,0,1-8.75-1,5,5,0,0,1-.54-.35l.76-2.53c.47.19.85.33,1.22.5a9.74,9.74,0,0,0,6.62.69,3.89,3.89,0,0,0,3-3.13,3.74,3.74,0,0,0-1.57-4.16,19.87,19.87,0,0,0-3.41-1.73,16.56,16.56,0,0,1-3.8-2.09,6.28,6.28,0,0,1,1-10.49C125.2,74.25,128.48,74.53,131.92,75.88Z"/>
  <path d="M55.65,99.93H52.71c-.25-.9-.34-22.73-.1-24.59a6.19,6.19,0,0,1,3.05-.09Z"/>
  <path d="M59.12,120.46H58l-2-6.71,1.2-.1,1.38,5.16h.22l1.64-5.07h1.05l1.68,5.38,1.56-5.4h1.18l-2.17,6.74H62.53l-1.68-5.16Z"/>
  <path d="M53.6,113.64l1.18.09-2.16,6.69-1.11.1-1.73-5.23L48,120.42l-1.13.13-2.09-6.82h1.26l1.35,5.2a9.49,9.49,0,0,0,1-2.61c.3-.84.58-1.69.89-2.58l1-.07L52,119.11Z"/>
  <path d="M41,119.1l1.53-5.38h1.19l-2.17,6.73-1.14.05-1.69-5.22-1.75,5.18H35.81l-2-6.71,1.21-.12,1.36,5.19.21,0,1.66-5.11,1-.08Z"/>
  <path d="M73.17,116.51l2.91,3.95H74.62l-2.29-3.12c-1.24.83-.34,2.13-.84,3.11h-1V110.6l1.09-.12.08,6.25,2.62-3H75.7Z"/>
  <path d="M114.44,113.57a3.51,3.51,0,0,1,3,5.44,3.21,3.21,0,0,1-3,1.7,3,3,0,0,1-2.81-1.69,4.08,4.08,0,0,1,0-3.82A2.93,2.93,0,0,1,114.44,113.57Zm-2,3.48a12.63,12.63,0,0,0,.38,1.47,1.82,1.82,0,0,0,1.64,1.25,1.9,1.9,0,0,0,1.79-1,3.31,3.31,0,0,0-.1-3.51,1.88,1.88,0,0,0-2.8-.28A3,3,0,0,0,112.42,117Z"/>
  <path d="M87,113.57a3.26,3.26,0,0,1,3.11,3.76,3.36,3.36,0,0,1-3.46,3.38c-2,0-3.3-1.6-3.19-3.82A3.19,3.19,0,0,1,87,113.57Zm-.51.84a4.91,4.91,0,0,0-1.24.85,3.46,3.46,0,0,0-.1,3.63,1.84,1.84,0,0,0,2.88.36,2.94,2.94,0,0,0,.76-2.84A2.27,2.27,0,0,0,86.53,114.4Z"/>
  <path d="M91.73,117a3.22,3.22,0,0,1,2.77-3.43,3.17,3.17,0,0,1,3.88,2.91,3.54,3.54,0,0,1-3.15,4.18A3.33,3.33,0,0,1,91.73,117Zm1.15-.08a11.92,11.92,0,0,0,.41,1.59A1.79,1.79,0,0,0,95,119.77a1.9,1.9,0,0,0,1.78-1.07,3.18,3.18,0,0,0-.09-3.41,1.83,1.83,0,0,0-2.88-.32A3.09,3.09,0,0,0,92.88,117Z"/>
  <path d="M82.42,113.74a12.18,12.18,0,0,1-.78,1.47c-.94,1.27-1.92,2.51-2.89,3.77-.1.13-.17.27-.35.57h3.74v.9h-5.2c-.28-.64.11-1,.41-1.43.77-1,1.57-2,2.35-3.05.28-.36.53-.74,1-1.34H77.13v-.88Z"/>
  <path d="M104.37,114.76l-.93-.32v-.66l.86-.28c.12-2.12.87-3.56,3.44-3.09v.82c-1.67-.13-2.32.66-2.11,2.31l1.51.2,0,.73-1.57.16c-.1,1.87,0,3.77-.06,5.77h-1.18Z"/>
  <path d="M235.92,73.75a2.08,2.08,0,0,1,2.1-2.24,2.2,2.2,0,0,1,2.2,2.19A2.22,2.22,0,0,1,238,76,2.08,2.08,0,0,1,235.92,73.75Z"/>
  <path d="M101.62,120.45l-1.12.05c-.07-3.33,0-6.58,0-9.92l1.15-.08Z"/>
  <path d="M121.24,120.45h-1.18v-6.74l.82,0,.25,1c.6-.57,1.07-1.33,2.11-1.05l.06.88c-.25.07-.45.11-.64.18a1.79,1.79,0,0,0-1.41,1.88C121.22,117.84,121.24,119.07,121.24,120.45Z"/>
  <path d="M107.86,120.09c.7-1.28.75-1.3,1.74-.74.26.77-.08,1.17-1.1,1.41Z"/>
  <path d="M67.56,120.72l-.68-.34v-1.26l1.23-.06C68.49,119.9,68.37,120.41,67.56,120.72Z"/>
  <path d="M54.37,60.7a10.3,10.3,0,0,1-10.22-7.29,15.47,15.47,0,0,1,.67-12.21,10.42,10.42,0,0,1,8.26-6c6.53-.95,11.56,3.11,12.65,9.49a17.15,17.15,0,0,1-.57,8.36A10.73,10.73,0,0,1,54.37,60.7ZM46.71,48.06a11,11,0,0,0,2.1,7.17A7.22,7.22,0,0,0,56.42,58a7.45,7.45,0,0,0,5-4.29,13.63,13.63,0,0,0,1-8.25,12,12,0,0,0-1.89-4.71,7.26,7.26,0,0,0-11.88.12A12,12,0,0,0,46.71,48.06Z"/>
  <path d="M81.42,52.52H72.63L70,60.28H66.76l8.42-24.69h3.88l8.42,24.68H84.11ZM77,38.6c-.61,2-1.17,3.83-1.77,5.69S74,48,73.28,50.07H80.8Z"/>
  <path d="M121.94,46.06v2.66h-9.36a41.33,41.33,0,0,0-.12,8.88H123c0,.53.06.94.08,1.36s0,.84,0,1.32h-14V35.72a117.06,117.06,0,0,1,13.38-.12c0,.39,0,.8.05,1.21s0,.84,0,1.41H112.31c0,2.61,0,5.12,0,7.67a12,12,0,0,0,3.21.16c1,0,2.05,0,3.08,0Z"/>
  <path d="M94.29,60.3l-8.1-24.7H89.7l6.49,21,7-21h3.43c-2.93,8.3-5.9,16.49-8.83,24.72Z"/>
  <path d="M26.1,31.21h3.67c.05,1.7,0,3.4,0,5.09s0,3.51,0,5.27V57.25c4.24.07,8.33,0,12.49,0v3H26.1Z"/>
  <path d="M139.58,36.38l-.8,2.41c-.71-.25-1.33-.5-2-.68a8.17,8.17,0,0,0-4.68-.11,3.57,3.57,0,0,0-2.65,2.69,3.47,3.47,0,0,0,1.14,3.59,13.08,13.08,0,0,0,3.46,1.92c1.12.53,2.26,1,3.33,1.64,3.8,2.21,3.91,7,2,9.75a7.08,7.08,0,0,1-4.82,2.91,13.68,13.68,0,0,1-7.93-.81c-.31-.13-.6-.31-1-.53l.76-2.39c1.53.43,2.95.87,4.38,1.23a6.5,6.5,0,0,0,3.3-.12,4.16,4.16,0,0,0,1.28-7.64A24.9,24.9,0,0,0,133,49a42.74,42.74,0,0,1-3.89-1.95,6.15,6.15,0,0,1-2.26-8.1,6.34,6.34,0,0,1,4.15-3.4,12.87,12.87,0,0,1,7.58.21,3.76,3.76,0,0,1,.58.27C139.24,36.13,139.34,36.21,139.58,36.38Z"/>
  <path d="M86.4,25.1H85.15l-.43-8.39-.15-.05-3,8.32-1,.17L77.74,16.9h-.13c-.09,1.35-.19,2.71-.28,4.06s-.16,2.64-.25,4.08l-1.23.08.72-10.34h1.69L81.11,23l3-8.25h1.69Z"/>
  <path d="M130.77,19.93a16.39,16.39,0,0,1,.35-1.87c.77-2.51,2.57-3.64,5.3-3.36A4.54,4.54,0,0,1,140.23,19a10.55,10.55,0,0,1-.19,2.54,4.44,4.44,0,0,1-4.77,3.76c-2.74-.2-4-1.85-4.4-4.37a6.65,6.65,0,0,1,0-1Zm8.08,0a4.42,4.42,0,0,0-1-3.11,3,3,0,0,0-4.75.05,5.48,5.48,0,0,0,0,6.13,3,3,0,0,0,5-.16A4.65,4.65,0,0,0,138.85,19.92Z"/>
  <path d="M125.95,20.26a13.33,13.33,0,0,1-.35,1.84,4.47,4.47,0,0,1-4.42,3.25,4.39,4.39,0,0,1-4.34-3.15,6.59,6.59,0,0,1,0-4.39,4.62,4.62,0,0,1,9,1.13C125.91,19.27,125.91,19.62,125.95,20.26Zm-8.2-.32a6.27,6.27,0,0,0,.88,2.84,3,3,0,0,0,5.19,0,5.16,5.16,0,0,0,0-5.58,3,3,0,0,0-5.29.23A14.89,14.89,0,0,0,117.75,19.94Z"/>
  <path d="M70.9,25.09H69.54l-1.2-3.2h-3.6L63.61,25.1H62.28l3.53-10.32h1.55Zm-4.26-8.6-.22,0L65,20.76H68.1Z"/>
  <path d="M33.66,25.11H32.14l-3.38-5-1.07,1.12V25l-1,.09a67.43,67.43,0,0,1-.13-10.26,1.28,1.28,0,0,1,.33-.13c.21,0,.42,0,.8,0v4.68l.25.07,3.86-4.71h1.43a11.43,11.43,0,0,1-1.77,2.27c-.55.7-1.14,1.37-1.78,2.13Z"/>
  <path d="M41.68,14.75h1.55l3.54,10.32H45.38L44.24,21.9H40.59l-1.11,3.16H38.17Zm2.29,6-1.44-4.28-.25,0-1.4,4.25Z"/>
  <path d="M94.93,14.78h1.54L100,25.06l-1.32.08-1.22-3.26H93.86l-1.15,3.18-1.3.07C92.55,21.57,93.76,18.19,94.93,14.78Zm-.82,6H97.2l-1.53-4.66Z"/>
  <path d="M112.2,24.06v1h-7.38c-.31-.53.05-.85.28-1.18,1.53-2.27,3.07-4.53,4.61-6.79.21-.31.4-.63.71-1.12-1.8-.19-3.44,0-5.17-.13l0-1.05H112c.52.47.18.88-.07,1.26-.8,1.21-1.63,2.41-2.45,3.61s-1.6,2.33-2.39,3.49c-.16.23-.28.49-.51.91Z"/>
  <path d="M51.95,25.08V14.79h1.2V24.1h4.29l.07,1Z"/>
</svg>
