<svg xmlns="http://www.w3.org/2000/svg" viewBox="0 0 266.88812 149.32887" width="266.88812" height="149.32887">
  <title>Kreis Enderle</title>
  <g transform="translate(-16.758173,-20.366969)">
    <path
       d="m 38.151816,169.27689 c -1.242308,-0.75549 -1.272381,-1.16366 -0.380682,-5.16687 0.358125,-1.60777 0.601626,-3.07174 0.541117,-3.25327 -0.06051,-0.18154 -0.429175,0.18634 -0.819251,0.8175 -0.952922,1.54186 -4.55288,4.87318 -6.223458,5.75904 -2.086846,1.10661 -5.852549,1.0297 -8.294377,-0.16941 -2.277676,-1.11849 -4.463818,-3.50177 -5.429713,-5.91936 -1.05816,-2.64851 -1.048025,-9.19941 0.02065,-13.34452 1.571223,-6.09438 6.483321,-16.84151 10.317675,-22.57393 1.840589,-2.75171 4.373527,-5.36625 6.027236,-6.22142 2.45478,-1.26942 5.243843,-0.82926 7.537264,1.18948 1.757885,1.54735 2.766,3.23774 3.637229,6.09884 0.73247,2.40541 1.262121,7.26703 0.791709,7.26703 -0.235588,0 -1.289879,-0.61281 -1.998007,-1.16135 -0.06644,-0.0515 -0.319171,-1.43122 -0.561632,-3.06611 -0.849727,-5.72967 -2.349039,-8.57254 -4.521091,-8.57254 -3.328669,0 -8.773812,6.14881 -12.807838,14.46297 -6.307583,12.99998 -8.187936,22.52518 -5.490454,27.81268 1.287855,2.5244 4.126456,3.42876 7.386794,2.35336 2.291686,-0.75589 5.954538,-4.40457 8.057725,-8.02654 1.381348,-2.37886 3.634567,-7.21882 4.201741,-9.02542 0.227892,-0.72588 0.193997,-0.72001 -1.4756,0.25576 -2.744966,1.60425 -7.898533,4.16719 -8.379398,4.16719 -0.557618,0 -2.173332,-1.59011 -1.962439,-1.93134 0.08636,-0.13974 1.848112,-1.14336 3.915005,-2.23027 2.06689,-1.08692 5.245943,-2.9712 7.064557,-4.1873 1.818615,-1.2161 3.483671,-2.21109 3.700128,-2.21109 0.216458,0 0.772035,0.396 1.234615,0.88 l 0.841056,0.88 -0.617367,2.88 c -0.339552,1.584 -1.549757,7.25947 -2.689347,12.61216 -1.13959,5.35269 -2.188992,9.84917 -2.332006,9.99219 -0.143015,0.14301 -0.72434,-0.0223 -1.291837,-0.36746 z M 200.64001,164.9755 c 0,-0.0684 3.564,-2.71544 7.92,-5.88226 4.356,-3.16681 9.792,-7.36632 12.08,-9.33223 12.00086,-10.31145 29.17811,-26.84197 34.93259,-33.61735 13.67353,-16.09934 20.3863,-30.041852 21.88342,-45.452118 0.95907,-9.872044 -1.95749,-20.323865 -7.86946,-28.20112 -11.12268,-14.820121 -30.53841,-20.025243 -46.41214,-12.44253 -1.83138,0.874829 -4.44153,2.355938 -5.80034,3.291353 -3.60233,2.479865 -8.20678,7.071504 -11.13407,11.10311 -1.408,1.939162 -2.632,3.528893 -2.72,3.532739 -0.088,0.0038 -0.952,-1.096208 -1.92,-2.444566 -2.45242,-3.416054 -8.43566,-9.531395 -11.42076,-11.672902 -7.02586,-5.040354 -13.32356,-7.098794 -21.69924,-7.092533 -8.95287,0.0067 -18.50258,2.582018 -24.58717,6.630561 -3.46874,2.308023 -8.24758,7.28977 -12.03774,12.548874 -3.69344,5.124883 -3.73646,5.169824 -2.88645,3.015472 0.38193,-0.968 0.97781,-2.48 1.32416,-3.36 1.7799,-4.522227 6.04229,-11.02289 9.57681,-14.605794 4.61445,-4.677618 10.29705,-7.642874 18.05039,-9.418922 3.14399,-0.720192 4.84184,-0.905776 9.36738,-1.023912 7.72781,-0.201726 12.64462,0.737568 18.83681,3.598534 4.93806,2.281526 11.26135,6.99865 15.18607,11.328699 l 2.00715,2.214438 3.38651,-3.406521 c 7.0711,-7.112869 15.24438,-11.618809 24.24971,-13.368883 3.84449,-0.747129 11.08067,-0.731699 15.12637,0.03225 18.9192,3.572539 33.48147,18.39976 37.0249,37.698567 0.73136,3.983235 0.71975,12.647065 -0.0228,17.031539 -2.07144,12.230851 -6.91607,23.202358 -15.6251,35.385755 -4.96024,6.93909 -11.85137,14.14012 -22.97698,24.01033 -13.02212,11.55271 -22.61181,18.79849 -32.15609,24.29649 -4.14081,2.38533 -11.68391,6.00256 -11.68391,5.60293 z m -17.11865,-7.21408 -0.91838,-0.95858 1.46778,-3.68015 1.46778,-3.68015 -2.12926,1.77103 c -2.97922,2.47798 -5.45957,3.66643 -7.65202,3.66643 -2.23493,0 -3.76103,-0.73765 -4.81212,-2.32596 -0.70645,-1.06751 -0.83461,-1.60929 -0.8177,-3.45661 l 0.0201,-2.19068 -1.51091,1.99585 c -2.78474,3.67856 -5.68267,5.58892 -7.92593,5.22489 -2.42501,-0.39353 -4.55066,-2.66852 -4.55066,-4.87038 0,-0.83946 -0.0932,-0.78323 -1.7673,1.06676 -2.34984,2.59665 -5.29068,4.55613 -6.83797,4.55613 -2.18577,0 -3.55493,-1.68872 -3.55448,-4.38411 6.3e-4,-3.8397 5.71456,-11.61589 8.53534,-11.61589 0.87724,0 1.22812,0.23155 2.03151,1.34059 0.53411,0.73732 1.05463,1.67332 1.1567,2.08 0.26005,1.03613 0.4697,0.93849 1.50558,-0.70116 0.50016,-0.79169 1.08522,-1.43943 1.30013,-1.43943 0.21491,0 0.79827,0.42537 1.29636,0.94526 l 0.90562,0.94526 -0.65834,1.53474 c -1.07148,2.49788 -1.49558,5.15301 -1.07046,6.70184 0.20034,0.7299 0.58199,1.41064 0.84811,1.51277 0.26611,0.10211 1.30855,-0.11569 2.31652,-0.48401 1.55845,-0.56947 2.38333,-1.22856 5.51268,-4.40469 2.024,-2.05425 4.3156,-4.60703 5.09244,-5.67283 0.77685,-1.06581 1.88677,-2.26285 2.4665,-2.66009 1.25634,-0.86085 3.00516,-0.93884 4.1552,-0.1853 2.10971,1.38233 2.86168,6.75224 0.85642,6.11579 -0.34614,-0.10985 -0.94275,-0.53336 -1.32582,-0.94111 -0.65902,-0.7015 -0.6705,-0.80356 -0.21347,-1.89738 0.28928,-0.69236 0.36103,-1.2314 0.17888,-1.34397 -1.41692,-0.87571 -6.36773,7.44473 -6.39914,10.75454 -0.0144,1.52189 0.60054,2.0024 2.31157,1.80611 2.30993,-0.26498 6.48615,-2.65624 11.77521,-6.74236 0.27378,-0.21151 2.21249,-4.61287 4.30825,-9.7808 2.09575,-5.16793 3.99686,-9.46777 4.22468,-9.55519 0.48843,-0.18742 1.96989,0.71643 2.2131,1.35024 0.13244,0.34513 -4.59546,12.44142 -8.37281,21.42178 -0.52856,1.25661 -0.52197,1.25306 2.08086,-1.12 4.94716,-4.51043 7.38693,-5.93786 7.89336,-4.61813 0.29885,0.7788 -0.70666,1.97047 -3.24916,3.85074 -2.94209,2.17578 -3.33101,2.79323 -2.48597,3.94675 0.33846,0.46202 1.10915,1.09687 1.71264,1.41077 2.27006,1.18076 5.02455,-0.12942 9.376,-4.45972 2.89402,-2.87994 4.04126,-3.57996 4.04126,-2.46588 0,0.77985 -5.60738,6.23215 -7.98503,7.76419 -2.49275,1.60621 -5.05087,2.41772 -6.66614,2.11469 -1.40459,-0.2635 -3.58883,-2.31819 -3.58883,-3.37596 0,-0.70932 -0.0159,-0.71283 -0.64626,-0.14239 -0.35544,0.32167 -1.44832,1.85599 -2.42861,3.4096 -0.9803,1.55361 -1.95854,2.82474 -2.17387,2.82474 -0.21534,0 -0.8048,-0.43136 -1.30991,-0.95858 z m -33.05785,-8.2612 c 1.40468,-1.34203 3.13238,-3.13089 3.83931,-3.97525 l 1.28535,-1.5352 -0.86389,-1.13261 c -0.48862,-0.64061 -1.08814,-1.08942 -1.38014,-1.03319 -0.89395,0.17216 -4.12419,4.35038 -5.48126,7.08985 -2.25635,4.55482 -1.68736,4.68312 2.60063,0.5864 z m -19.44881,7.48953 c -0.54192,-0.23807 -1.27309,-0.82792 -1.62483,-1.31078 l -0.63952,-0.87792 -0.41399,0.99947 c -0.2277,0.54972 -0.50453,0.99894 -0.61518,0.99828 -0.60441,-0.004 -2.28125,-1.35148 -2.2817,-1.8341 -6.4e-4,-0.54372 11.72764,-29.76339 12.13644,-30.23689 0.25357,-0.2937 2.2296,0.88998 2.45163,1.46858 0.0913,0.238 -1.4441,4.37718 -3.41205,9.19817 -1.96796,4.82099 -3.6522,9.0323 -3.74276,9.35847 -0.14131,0.50894 0.0336,0.46791 1.23323,-0.28942 2.36016,-1.4899 4.70546,-2.38361 6.25516,-2.38361 1.237,0 1.63087,0.168 2.55087,1.088 0.94154,0.94153 1.088,1.29927 1.088,2.65735 0,1.20867 -0.23032,1.93253 -1.00216,3.14961 -1.55791,2.45656 -3.0457,4.14348 -4.86741,5.51889 -3.23143,2.43975 -5.46235,3.22227 -7.11573,2.4959 z m 2.69468,-3.48528 c 3.35871,-2.01294 8.69168,-8.49935 7.24317,-8.80974 -0.2702,-0.0579 -1.31505,0.35739 -2.3219,0.92284 -2.27443,1.27734 -7.25189,4.66146 -7.76428,5.27886 -0.25825,0.31117 -0.30891,1.03345 -0.15749,2.24539 0.25451,2.03701 0.21476,2.03221 3.0005,0.36265 z M 100.544,155.136 c -0.2112,-0.2112 -0.384,-0.72235 -0.384,-1.13589 0,-1.94535 2.10958,-4.07501 6.08564,-6.14358 1.36639,-0.71088 2.5721,-1.52119 2.67936,-1.80069 0.51592,-1.34448 -0.17412,-3.97584 -1.04262,-3.97584 -0.29425,0 -1.70863,1.20389 -3.14305,2.67532 -5.817211,5.96724 -11.639941,9.16468 -16.689433,9.16468 -2.467715,0 -4.088349,-0.57708 -5.210784,-1.85546 -0.892707,-1.01674 -0.961734,-1.26334 -0.864633,-3.08891 l 0.105523,-1.98396 -1.586631,0.82416 c -1.863715,0.9681 -4.938144,1.13369 -6.411242,0.34531 -0.86104,-0.46082 -0.920147,-0.44305 -1.568444,0.47152 -0.370525,0.52271 -1.446295,1.77663 -2.390596,2.78649 -4.405561,4.71142 -7.816925,3.15976 -7.27736,-3.31011 l 0.216839,-2.60007 -2.761956,2.61442 c -4.511619,4.27063 -7.580061,6.11661 -10.167178,6.11661 -4.468387,0 -4.709133,-5.01135 -0.58032,-12.08 1.271837,-2.17742 1.423696,-2.32 2.471044,-2.32 1.466848,0 1.652297,0.59815 0.668579,2.15646 -2.515277,3.98446 -4.785402,9.71887 -4.113482,10.39079 0.416579,0.41658 2.856451,-0.38343 5.020746,-1.64625 0.88,-0.51347 3.399846,-2.35207 5.599658,-4.08577 2.935705,-2.31368 4.195929,-3.52702 4.737488,-4.56123 0.813078,-1.55272 1.53055,-2.22833 2.382854,-2.24382 0.672653,-0.0122 0.673539,0.0308 0.07563,3.66982 -0.774902,4.71627 -0.492393,7.19394 0.849735,7.45241 1.317913,0.25381 4.538435,-3.92875 4.843369,-6.29019 0.213764,-1.65538 1.525117,-3.43847 3.205271,-4.35829 0.88383,-0.48386 1.251002,-0.54692 1.534406,-0.26352 0.283402,0.2834 0.05657,0.95836 -0.947929,2.82064 -0.726266,1.34645 -1.320483,2.51608 -1.320483,2.59917 0,0.33693 2.785232,1.38573 3.68,1.38573 1.554963,0 3.429462,-1.05751 4.8,-2.70793 5.129472,-6.17702 8.430285,-8.25378 10.648797,-6.69988 1.095693,0.76746 0.960771,2.55941 -0.328797,4.36689 -1.292329,1.81136 -3.066768,3.30414 -6.252077,5.25967 -1.357357,0.83331 -2.52704,1.55927 -2.599296,1.61325 -0.07225,0.054 0.143408,0.40175 0.479245,0.77285 2.227626,2.46149 6.905136,2.36595 11.642099,-0.23781 2.671162,-1.46826 3.025476,-1.75417 7.130268,-5.75377 3.67208,-3.57798 5.22849,-4.54326 6.35416,-3.94081 0.90868,0.48631 1.5656,2.21202 1.5656,4.11275 v 1.59172 l 2.96,-1.36258 c 4.34262,-1.99905 6.63428,-2.87269 6.88298,-2.62399 0.12099,0.12099 0.005,0.60375 -0.2587,1.07281 -0.36451,0.64942 -1.6125,1.35239 -5.23233,2.94728 l -4.75365,2.09446 -0.9231,1.954 c -1.35216,2.86226 -3.13847,4.74317 -5.25757,5.53603 -1.96714,0.736 -3.97163,0.8571 -4.55363,0.27511 z m 6.08295,-3.0939 c 0.47683,-0.46315 1.09213,-1.38536 1.36733,-2.04935 l 0.50037,-1.20726 -2.55453,1.2844 c -2.87513,1.44558 -3.71151,2.39938 -2.51412,2.86707 1.03961,0.40607 2.19383,0.0834 3.20095,-0.89486 z m -19.266947,-7.09954 c 1.885606,-1.28588 3.950426,-3.32351 4.255194,-4.19916 0.271084,-0.77887 -0.563808,-1.33556 -1.611037,-1.07422 -1.946355,0.48573 -4.400432,3.19933 -5.364509,5.93182 -0.453251,1.28464 -0.452586,1.28705 0.252953,0.9149 0.389069,-0.20521 1.499399,-0.91322 2.467399,-1.57334 z m -36.357006,-8.1236 c -0.377386,-0.98345 0.678832,-1.61542 2.768269,-1.65634 1.302153,-0.0255 1.908736,0.0858 1.908736,0.3504 0,0.75657 -1.214467,1.46937 -2.82936,1.66063 -1.363632,0.16151 -1.672301,0.10225 -1.847645,-0.35469 z M 103.8317,121.62702 c -1.02261,-0.6417 -16.455339,-16.1306 -20.249841,-20.32354 -1.262515,-1.395086 -2.363527,-2.468475 -2.446688,-2.385314 -0.08316,0.08316 -0.01414,4.576784 0.153408,9.985824 0.357264,11.53456 0.488694,12.05601 3.03871,12.05601 0.415219,0 0.830717,0.1226 0.923328,0.27245 0.281648,0.45572 -10.157091,0.69066 -23.314612,0.52473 -11.559847,-0.14577 -15.048794,-0.42779 -11.817683,-0.95523 1.92375,-0.31404 2.662691,-0.7184 3.066397,-1.67802 0.261273,-0.62104 0.411401,-6.07529 0.504793,-18.33949 C 53.805583,85.542374 53.759576,83.178426 53.326699,82.142403 52.802837,80.888627 51.841391,80.32 50.245342,80.32 c -1.105715,0 -1.92534,-0.287024 -1.92534,-0.674237 0,-0.162358 5.078457,-0.289142 11.76,-0.293587 6.796611,-0.0045 12.355498,-0.145088 13.170941,-0.333056 0.776019,-0.17888 1.530999,-0.205181 1.677732,-0.05845 0.329667,0.329667 -0.342416,7.478534 -0.744266,7.916653 -0.395181,0.430848 -0.893255,-0.399447 -0.899507,-1.499482 -0.0026,-0.474185 -0.334612,-1.245465 -0.737591,-1.713958 -0.649168,-0.754704 -1.072403,-0.885882 -3.712736,-1.150717 -1.639024,-0.1644 -4.081312,-0.25712 -5.427309,-0.206038 L 60.960002,82.4 v 7.52 7.52 l 5.081744,0.08834 c 4.643028,0.08071 5.203901,0.02922 6.496704,-0.596633 0.778224,-0.376733 1.474916,-0.625008 1.548199,-0.551725 0.263974,0.263974 -0.653818,8.597178 -0.947616,8.603988 -0.165536,0.004 -0.474896,-0.678 -0.687472,-1.5152 -0.212576,-0.83721 -0.692871,-1.77028 -1.067325,-2.07349 -0.871341,-0.70557 -3.194083,-0.98045 -7.224234,-0.85494 l -3.2,0.0997 v 7.89721 c 0,10.36959 -0.09322,10.22697 6.72,10.28107 5.277149,0.0419 6.783594,-0.72118 7.567194,-3.83314 0.220359,-0.87511 0.528375,-1.38514 0.836522,-1.38514 0.411472,0 0.45784,0.38778 0.296541,2.48 -0.105156,1.364 -0.291258,3.03653 -0.413559,3.71675 -0.214617,1.19367 -0.195619,1.22864 0.545469,1.00403 0.42231,-0.12799 0.906534,-0.36243 1.076054,-0.52097 0.350112,-0.32743 0.744765,-11.33693 0.790052,-22.039809 0.0312,-7.371939 0.145836,-8.642803 0.779049,-8.63624 0.199472,0.0019 1.72218,1.478067 3.383796,3.28 1.661612,1.801933 6.89855,7.236239 11.637642,12.076239 l 8.616518,8.8 -0.19953,-10.30909 c -0.13076,-6.756224 -0.32807,-10.591207 -0.5725,-11.127677 -0.37037,-0.81287 -0.84307,-1.027043 -2.638568,-1.195485 -0.514429,-0.04826 -0.998032,-0.278557 -1.074675,-0.511769 -0.114804,-0.349328 2.643013,-0.40169 15.655323,-0.297255 14.69227,0.11792 15.94259,0.171648 17.91398,0.76977 6.64062,2.014768 10.28584,6.617104 10.73331,13.551506 0.63231,9.79905 -6.25183,17.00457 -16.53262,17.30444 -3.52536,0.10283 -16.30556,-0.42891 -16.15522,-0.67216 0.0781,-0.12629 0.57928,-0.31709 1.11384,-0.424 0.62008,-0.12402 1.07572,-0.46735 1.2586,-0.94837 0.15767,-0.41468 0.33529,-6.76638 0.39472,-14.11489 L 112.8,92.424106 112.04455,91.812051 C 111.46449,91.342093 110.77901,91.2 109.09193,91.2 c -3.48935,0 -3.28034,-0.938976 -3.5311,15.86295 -0.11615,7.78218 -0.33859,14.37709 -0.49431,14.65535 -0.25439,0.45457 -0.37974,0.4453 -1.23482,-0.0913 z m 24.57519,-1.96493 c 4.35671,-0.85111 7.24473,-3.74932 8.2702,-8.29938 0.44332,-1.96707 0.41264,-6.5507 -0.0568,-8.49023 -1.29586,-5.35353 -5.31882,-9.018461 -11.28988,-10.285139 -2.4213,-0.513645 -6.4087,-0.437008 -6.97986,0.13415 -0.5064,0.506403 -0.22606,24.676339 0.29683,25.591179 1.0244,1.79227 4.81193,2.31596 9.75955,1.34942 z m 19.51311,2.01848 c -3.09936,-0.0575 -5.2,-0.22249 -5.2,-0.4085 0,-0.17164 0.396,-0.31427 0.88,-0.31697 2.27641,-0.0127 2.32,-0.30364 2.32,-15.48634 0,-14.722389 0.13325,-13.857954 -2.24,-14.532635 -0.8111,-0.230589 1.5056,-0.326365 8.40001,-0.347264 l 9.52,-0.02886 v 1.075338 c 0,1.695113 -0.38228,4.044662 -0.65807,4.044662 -0.1381,0 -0.34704,-0.43688 -0.46432,-0.970842 -0.34394,-1.565955 -1.28684,-1.938601 -5.42031,-2.142172 l -3.6973,-0.182093 v 5.468669 c 0,3.870057 0.11085,5.537177 0.37923,5.703047 0.67412,0.41663 7.36059,0.10889 8.31083,-0.3825 0.48299,-0.24976 0.93962,-0.45411 1.01474,-0.45411 0.13403,0 0.103,0.53373 -0.28394,4.88295 -0.20218,2.27242 -0.57004,2.58118 -0.91085,0.76452 -0.33932,-1.80877 -0.89716,-2.06058 -4.83001,-2.18031 l -3.52,-0.10716 -0.0871,5.81388 c -0.0863,5.75928 -0.0798,5.82239 0.69297,6.72 0.77097,0.89552 0.8198,0.90557 4.17319,0.85895 3.92873,-0.0546 4.77549,-0.41871 5.54806,-2.38548 0.54311,-1.38262 1.03637,-1.63604 1.02646,-0.52735 -0.0156,1.74237 -0.63545,4.84398 -1.0164,5.08561 -0.39779,0.2523 -2.0003,0.25632 -13.93717,0.035 z M 195.68001,121.6 c -8.71252,-0.15558 -8.99344,-0.18079 -10.1707,-0.91271 -0.76833,-0.47769 -2.56926,-2.58228 -4.92892,-5.76 -2.04502,-2.75401 -4.00015,-5.25929 -4.34475,-5.56729 -0.4609,-0.41196 -1.17786,-0.56 -2.71202,-0.56 h -2.08548 l 0.22093,5.2 c 0.12151,2.86 0.29625,5.46025 0.38831,5.77833 0.19478,0.67298 1.35427,1.18167 2.69346,1.18167 0.51654,0 0.93917,0.144 0.93917,0.32 0,0.20239 -2.29334,0.32 -6.24,0.32 -3.94667,0 -6.24,-0.11761 -6.24,-0.32 0,-0.176 0.40447,-0.32 0.89883,-0.32 1.75453,0 2.06443,-0.55636 2.33652,-4.19471 0.29558,-3.95244 0.30263,-20.428032 0.01,-23.163719 -0.19253,-1.799379 -0.27443,-1.950992 -1.31975,-2.443229 -1.11114,-0.523225 -1.10109,-0.525516 3.35038,-0.763936 2.45567,-0.131523 5.96101,-0.162774 7.78964,-0.06945 2.82928,0.144397 3.59191,0.306304 5.11722,1.086378 2.64532,1.35286 3.69276,2.994128 3.84587,6.026169 0.10136,2.007085 -0.003,2.623427 -0.70167,4.149827 -0.45138,0.98596 -1.63888,2.65043 -2.63889,3.69883 l -1.81818,1.90618 0.84719,1.2802 c 1.31507,1.9872 6.2731,7.64387 8.51026,9.70946 1.48663,1.37262 2.11076,1.76797 2.37466,1.50425 0.2526,-0.25242 0.358,-4.30008 0.358,-13.74763 0,-12.717946 -0.0306,-13.423731 -0.60959,-14.064256 C 191.21513,91.503466 190.61491,91.2 190.21658,91.2 c -0.93504,0 -1.73657,-0.3112 -1.73657,-0.674237 0,-0.394285 12.39022,-0.36991 12.6342,0.02486 0.10558,0.170842 -0.17392,0.386842 -0.62112,0.48 -0.4472,0.09316 -1.17089,0.243575 -1.60821,0.334256 -0.52189,0.108215 -0.87928,0.465607 -1.04,1.04 -0.13468,0.481309 -0.24487,6.275117 -0.24487,12.875121 0,12.95331 0.0236,13.14506 1.69945,13.81427 0.4733,0.189 2.32519,0.35011 4.11532,0.35802 3.83267,0.0169 4.6265,-0.34082 5.59013,-2.51928 0.34378,-0.77715 0.70881,-1.41301 0.81119,-1.41301 0.10237,0 0.11945,1.152 0.0379,2.56 l -0.14819,2.56 h 0.92811 c 1.32694,0 2.03933,-0.47504 2.50926,-1.67324 0.46412,-1.18339 0.8495,-30.547807 0.45616,-34.756889 -0.26308,-2.815171 -0.75167,-3.436445 -2.93631,-3.733709 -0.84868,-0.115478 -1.79506,-0.279564 -2.10306,-0.36463 -1.91012,-0.527552 0.86269,-0.722685 12.16,-0.855741 6.996,-0.0824 13.08,-0.200659 13.52,-0.262806 0.79648,-0.112493 0.79953,-0.103091 0.69357,2.13703 -0.1918,4.054787 -0.49062,5.749981 -1.01357,5.749981 -0.27337,0 -0.52085,-0.344394 -0.57489,-0.8 -0.361,-3.043834 -1.23334,-3.47344 -7.58518,-3.735536 l -4.97175,-0.205149 0.0859,7.650343 0.0859,7.650342 h 5.4595 5.4595 l 1.06068,-0.893152 c 0.58337,-0.491232 1.11866,-0.835174 1.18951,-0.764317 0.0709,0.07086 -0.0417,2.164775 -0.25023,4.653153 -0.28077,3.35112 -0.48897,4.52432 -0.80292,4.52432 -0.23312,0 -0.50763,-0.396 -0.61002,-0.88 -0.1024,-0.484 -0.25143,-1.20218 -0.33118,-1.59595 -0.30717,-1.51666 -1.46465,-1.84405 -6.51971,-1.84405 h -4.65513 v 8.07321 8.0732 l 0.88774,0.8868 0.88776,0.88679 h 4.88683 c 4.16605,0 5.01635,-0.0849 5.7649,-0.57566 0.887,-0.58153 1.61885,-1.89048 1.95932,-3.50434 0.27512,-1.30417 1.13345,-1.13996 1.13345,0.21684 0,1.62163 -0.64992,6.00376 -0.98262,6.62543 -0.26516,0.49545 -1.5347,0.53528 -15.57304,0.48857 -8.40639,-0.028 -19.31634,-0.12284 -24.24434,-0.21084 z m -18.19114,-15.24464 c 0.75775,-0.35957 1.37563,-1.03915 1.96388,-2.16 0.73522,-1.40089 0.85837,-2.02534 0.85893,-4.35536 6.4e-4,-3.070893 -0.63177,-4.710035 -2.38758,-6.18745 -1.59542,-1.342457 -5.13449,-1.99415 -6.02009,-1.10855 -0.27403,0.274029 -0.384,2.288422 -0.384,7.033904 0,7.457856 -0.23727,6.757296 2.4,7.086406 1.97795,0.24683 2.4913,0.20239 3.56886,-0.30895 z m 6.78081,-18.778013 c -2.76029,-0.624733 -2.83046,-0.736429 -2.82477,-4.496528 0.005,-3.495497 0.3616,-4.801837 0.91368,-3.349766 0.17342,0.45615 0.47018,1.404473 0.65945,2.107382 0.73972,2.747095 2.49397,3.922368 5.85169,3.920368 3.55546,-0.0022 5.49944,-1.889344 5.29194,-5.137446 -0.15792,-2.47193 -1.06187,-3.763357 -4.61323,-6.590624 -5.16366,-4.110829 -6.8881,-6.407488 -7.34793,-9.786157 -0.44119,-3.241786 1.49673,-6.491078 4.74744,-7.959984 1.4846,-0.670848 2.14326,-0.761322 5.37206,-0.73792 2.024,0.01469 4.076,0.191107 4.56,0.39208 0.87358,0.362746 0.88,0.387818 0.88,3.439994 0,3.308972 -0.36573,3.832134 -1.1283,1.613977 -0.53812,-1.565273 -1.87319,-2.957574 -3.28179,-3.422454 -1.48367,-0.489655 -4.08063,-0.203488 -5.13375,0.565699 -1.24616,0.910186 -2.08654,2.77536 -1.84076,4.085485 0.28364,1.511907 1.00851,2.321414 5.3577,5.983257 5.70747,4.805463 7.18968,7.22154 6.9302,11.296583 -0.2334,3.665424 -2.69772,6.821571 -6.1339,7.855904 -1.93006,0.580969 -6.16659,0.693891 -8.25973,0.22015 z M 154.72001,87.372 145.76,87.2 144.32,86.348547 c -1.82471,-1.078928 -2.43056,-1.754733 -6.05478,-6.753958 -1.62897,-2.246979 -3.1579,-4.281559 -3.39763,-4.52129 -0.59982,-0.599824 -3.06403,-0.925267 -4.08031,-0.53888 l -0.83656,0.318064 0.18207,5.053757 c 0.12008,3.332826 0.32546,5.28393 0.60314,5.72968 0.30208,0.484915 0.8925,0.738461 2.08934,0.897229 1.12989,0.149885 1.56334,0.326246 1.34311,0.54648 -0.20715,0.207145 -2.92459,0.288006 -7.48678,0.222771 -7.144,-0.102147 -7.16526,-0.10455 -8.65086,-0.977875 -2.48366,-1.460042 -4.87541,-3.891082 -11.88922,-12.084525 -3.69118,-4.312 -6.845481,-7.984 -7.009552,-8.16 -0.516393,-0.553952 -0.155901,17.752301 0.37025,18.801706 0.436019,0.869641 1.526442,1.344227 3.627732,1.578902 0.48947,0.05467 0.92147,0.243392 0.96,0.419392 0.045,0.205312 -2.94054,0.350576 -8.329947,0.405312 -4.892739,0.04969 -8.4,-0.03622 -8.4,-0.205763 0,-0.372215 0.799747,-0.679549 1.768326,-0.679549 0.415792,0 1.121632,-0.324 1.568535,-0.72 0.765219,-0.678061 0.831312,-0.990272 1.134678,-5.36 0.368967,-5.31463 0.406324,-27.146966 0.0525,-30.681373 -0.283884,-2.835763 -0.778787,-3.376777 -3.387072,-3.702662 -1.9163,-0.239427 -2.558326,-0.690583 -1.390054,-0.976807 0.4032,-0.09878 4.105171,-0.139004 8.226605,-0.08938 5.565879,0.06701 7.527119,0.191155 7.624119,0.482586 0.0823,0.24734 -0.34894,0.469043 -1.16682,0.599827 -1.838707,0.294022 -2.320582,0.764896 -2.614416,2.554723 C 98.816336,50.700211 98.811709,63.36 99.170963,63.36 c 0.299069,0 8.307507,-8.326003 11.850097,-12.32 1.09276,-1.232 2.2039,-2.651757 2.46921,-3.155014 0.45824,-0.869248 0.43954,-0.959719 -0.37402,-1.808893 -0.77781,-0.811856 -0.80225,-0.908061 -0.26633,-1.048435 1.28157,-0.335684 13.33505,-0.07092 13.45753,0.295609 0.0741,0.221776 -0.61957,0.493786 -1.78097,0.698362 -3.30291,0.581795 -4.69141,1.558742 -11.6205,8.176198 -3.57829,3.417363 -6.97715,6.800362 -7.55302,7.51777 l -1.04704,1.304377 2.32704,2.645773 c 7.02872,7.991463 17.29745,18.304035 17.99488,18.071709 0.22017,-0.07334 0.36035,-4.37664 0.41579,-12.764109 0.0958,-14.498454 0.21692,-13.843488 -2.64364,-14.298758 -3.16568,-0.503834 -0.52328,-0.714099 7.72276,-0.614531 7.78645,0.09402 8.35443,0.14126 9.57907,0.796768 2.98442,1.597465 4.56187,4.49286 4.14879,7.615056 -0.31857,2.407836 -1.15051,3.983888 -3.33645,6.320662 l -1.97375,2.109946 4.46607,5.423081 c 4.70876,5.717767 6.82452,7.761776 7.28968,7.042439 0.14511,-0.224404 0.30833,-6.393565 0.36271,-13.709248 0.11235,-15.113757 0.20074,-14.569252 -2.42215,-14.921053 C 147.49053,56.637622 146.88,56.430691 146.88,56.277866 146.88,56.12504 150.82201,56 155.64001,56 c 4.818,0 9.23308,-0.09462 9.8113,-0.210262 l 1.05131,-0.21026 -0.20223,2.622455 c -0.25959,3.366265 -0.66293,4.19976 -1.1525,2.381629 -0.53886,-2.001168 -0.91838,-2.168938 -5.19694,-2.297268 l -3.79094,-0.113702 V 63.806294 69.44 l 3.76,-0.01133 c 2.6551,-0.008 3.99508,-0.145725 4.56,-0.468659 0.44,-0.251527 0.9266,-0.462426 1.08134,-0.468659 0.27314,-0.01101 -0.0199,4.365616 -0.32539,4.85992 -0.0829,0.134176 -0.49015,-0.15097 -0.90496,-0.633655 -0.72938,-0.848742 -0.87616,-0.881142 -4.46259,-0.985142 l -3.7084,-0.107552 v 6.084313 6.084311 l 0.84315,0.663225 c 0.72423,0.56968 1.29066,0.663226 4.01589,0.663226 4.32801,0 4.84933,-0.297501 5.84145,-3.33351 0.1386,-0.424116 0.30306,-0.510935 0.53276,-0.281236 0.51482,0.51482 -0.22574,5.273341 -0.89871,5.774746 -0.29528,0.22 -1.04934,0.369398 -1.67571,0.332 -0.62636,-0.0374 -5.17083,-0.145402 -10.09883,-0.24 z M 136.66416,71.45057 c 2.90568,-2.44497 3.09797,-8.644759 0.36362,-11.724074 -1.32587,-1.493142 -5.72289,-2.423386 -6.72378,-1.422496 -0.27271,0.272714 -0.384,2.213587 -0.384,6.697142 0,7.553533 -0.10768,7.318858 3.35831,7.318858 2.09266,0 2.46675,-0.09606 3.38585,-0.86943 z m 31.18854,15.609968 c -0.1018,-0.164708 0.47608,-0.398612 1.28416,-0.519792 1.08747,-0.163076 1.53515,-0.397076 1.7229,-0.900535 0.28378,-0.761001 0.52706,-13.770825 0.414,-22.139049 -0.0519,-3.839674 -0.19573,-5.625652 -0.48498,-6.021226 -0.2273,-0.310851 -1.01449,-0.643302 -1.76,-0.743296 C 165.96425,56.3256 168.0555,56 173.76001,56 c 5.73426,0 7.66243,0.305162 4.8101,0.761267 -0.84459,0.135056 -1.40597,0.443485 -1.67616,0.920899 -0.31169,0.550762 -0.39739,3.742813 -0.3682,13.714768 0.0443,15.114077 -0.0293,14.686858 2.60082,15.105511 0.9242,0.14711 1.5983,0.40024 1.49801,0.562515 -0.24125,0.390349 -12.53053,0.386093 -12.77188,-0.0044 z"/>
  </g>
</svg>
