<?xml version="1.0" encoding="UTF-8" standalone="no"?>
<!DOCTYPE svg PUBLIC "-//W3C//DTD SVG 1.1//EN" "http://www.w3.org/Graphics/SVG/1.1/DTD/svg11.dtd">
<svg width="100%" height="100%" viewBox="0 0 423 260" version="1.1" xmlns="http://www.w3.org/2000/svg" xmlns:xlink="http://www.w3.org/1999/xlink" xml:space="preserve" xmlns:serif="http://www.serif.com/" style="fill-rule:evenodd;clip-rule:evenodd;stroke-linejoin:round;stroke-miterlimit:2;">
    <g id="Layer-1" serif:id="Layer 1" transform="matrix(1,0,0,1,-321.062,-460.709)">
        <g id="g3713" transform="matrix(1,0,0,1,378.87,531.587)">
            <path id="path3715" d="M6.667,186.924C6.732,186.676 8.521,177.009 10.643,165.445L14.501,144.417L19.598,144.417C22.402,144.417 24.696,144.485 24.696,144.573C24.696,144.661 24.018,148.378 23.189,152.832C22.359,157.284 21.68,161.003 21.68,161.093C21.68,161.182 25.149,161.227 29.388,161.189L37.094,161.121L38.626,152.833L40.157,144.541L45.239,144.473C48.035,144.435 50.322,144.5 50.322,144.619C50.322,144.819 42.946,185.192 42.636,186.686L42.493,187.375L32.223,187.375L32.356,186.81C32.614,185.72 35.498,169.926 35.498,169.61C35.498,169.355 33.894,169.29 27.841,169.29L20.183,169.29L20.056,169.855C19.807,170.97 16.907,186.875 16.907,187.122C16.907,187.286 15.053,187.376 11.728,187.376C6.873,187.374 6.556,187.345 6.667,186.924Z" style="fill-rule:nonzero;"/>
            <path id="path3717" d="M6.938,187.289C6.627,187.238 6.589,187.185 6.646,186.894C6.683,186.709 8.452,177.075 10.58,165.486L14.449,144.417L24.784,144.417L24.67,145.011C23.786,149.63 21.723,161.074 21.768,161.12C21.871,161.231 31.046,161.257 34.112,161.154L37.058,161.059L38.596,152.768C39.441,148.208 40.136,144.463 40.138,144.444C40.143,144.427 42.463,144.417 45.297,144.417L50.45,144.417L50.383,144.697C50.347,144.852 48.594,154.391 46.489,165.895C44.384,177.396 42.631,186.935 42.594,187.09L42.526,187.373L37.379,187.373C34.547,187.373 32.231,187.359 32.231,187.34C32.231,187.322 32.965,183.327 33.863,178.457C34.982,172.374 35.452,169.569 35.363,169.478C35.194,169.308 20.173,169.219 20.173,169.385C20.173,169.452 19.667,172.239 19.048,175.58C18.43,178.923 17.697,182.892 17.422,184.403C17.145,185.917 16.883,187.188 16.841,187.233C16.746,187.323 7.471,187.378 6.938,187.289Z" style="fill-rule:nonzero;"/>
            <path id="path3719" d="M59.673,187.997C55.641,187.47 52.448,185.066 51.416,181.783C51.057,180.636 51.035,178.313 51.374,177.075C52.277,173.784 55.076,171.161 59.259,169.686C62.398,168.576 67.767,167.705 73.024,167.448C74.184,167.393 74.858,167.31 74.941,167.21C75.012,167.127 75.189,166.586 75.334,166.009C76.177,162.675 74.444,160.616 70.803,160.621C68.006,160.627 66.023,161.638 64.652,163.758C64.376,164.182 64.088,164.723 64.009,164.963C63.926,165.218 63.784,165.394 63.664,165.394C63.225,165.394 54.778,164.491 54.725,164.436C54.695,164.408 54.989,163.748 55.382,162.97C57.687,158.408 61.691,155.841 67.774,155.021C69.548,154.782 73.393,154.752 75.131,154.965C80.29,155.591 83.866,157.924 85.004,161.393C85.269,162.202 85.304,162.543 85.296,164.136C85.288,166.176 85.145,167.143 83.616,175.371C82.35,182.184 82.293,182.594 82.292,185.081L82.291,187.25L77.496,187.25L72.701,187.252L72.61,186.402C72.548,185.835 72.587,185.008 72.728,183.921C73.015,181.668 73.011,181.652 72.4,182.667C71.748,183.744 69.741,185.777 68.763,186.35C66.329,187.773 62.825,188.411 59.673,187.997ZM67.753,181.96C68.786,181.606 69.501,181.144 70.46,180.224C71.499,179.226 72.267,178.101 72.867,176.697C73.303,175.682 73.959,173.404 74.125,172.334L74.208,171.799L73.474,171.803C71.489,171.809 68.443,172.291 66.624,172.891C63.692,173.857 62.144,175.318 61.742,177.498C61.428,179.2 62.108,180.895 63.434,181.717C64.498,182.372 66.265,182.471 67.753,181.96Z" style="fill-rule:nonzero;"/>
            <path id="path3721" d="M90.113,186.715C90.171,186.421 91.466,179.366 92.987,171.045C94.509,162.719 95.782,155.779 95.818,155.625L95.882,155.342L100.715,155.342C104.862,155.342 105.549,155.369 105.549,155.525C105.549,155.626 105.266,157.247 104.921,159.122C104.575,161.005 104.294,162.575 104.294,162.615C104.294,162.659 104.662,162.023 105.111,161.205C106.093,159.419 106.882,158.29 107.81,157.347C109.422,155.703 110.833,155.149 114.001,154.915L114.855,154.849L114.788,155.253C114.752,155.476 114.521,157.438 114.277,159.612C114.034,161.789 113.808,163.69 113.776,163.836C113.723,164.078 113.608,164.107 112.428,164.174C109.346,164.346 107.186,165.552 105.454,168.064C103.788,170.481 103.285,172.152 101.844,180.026C101.39,182.514 100.907,185.131 100.771,185.841C100.635,186.554 100.524,187.162 100.524,187.194C100.524,187.224 98.156,187.253 95.263,187.253L90.003,187.253L90.113,186.715Z" style="fill-rule:nonzero;"/>
            <path id="path3723" d="M124.639,187.82C122.573,187.481 120.983,186.706 119.531,185.325C116.953,182.876 115.728,179.468 115.727,174.746C115.726,170.732 116.544,167.21 118.311,163.648C121.56,157.091 126.073,154.206 132.266,154.73C134.426,154.912 136.063,155.602 137.326,156.863C138.043,157.583 138.88,158.989 139.221,160.052C139.357,160.479 139.395,160.515 139.479,160.305C139.533,160.165 140.217,156.535 140.999,152.233L142.419,144.417L152.524,144.417L152.442,144.822C152.398,145.05 150.629,154.671 148.51,166.21L144.66,187.186L139.928,187.218C137.326,187.239 135.195,187.236 135.195,187.212C135.195,187.187 135.391,186.103 135.631,184.798C135.87,183.494 136.048,182.407 136.027,182.387C136.005,182.364 135.842,182.56 135.667,182.82C134.049,185.215 131.604,187.068 129.229,187.694C128.167,187.972 125.942,188.035 124.639,187.82ZM131.736,181.277C132.713,181.023 133.586,180.541 134.397,179.796C135.955,178.378 136.795,176.168 137.569,171.478C138.153,167.927 138.261,166.734 138.094,165.64C137.811,163.803 136.873,162.394 135.415,161.618C134.757,161.266 134.464,161.191 133.613,161.146C131.769,161.049 130.34,161.752 129.227,163.315C127.376,165.907 126.022,171.609 126.176,176.171C126.225,177.637 126.28,178.004 126.549,178.663C126.915,179.56 127.255,180.01 128.013,180.595C129.08,181.416 130.328,181.643 131.736,181.277Z" style="fill-rule:nonzero;"/>
            <path id="path3725" d="M159.976,187.142C159.976,187.039 155.027,156.404 154.896,155.689L154.833,155.342L160.028,155.342C164.87,155.342 165.224,155.358 165.28,155.563C165.307,155.685 165.924,160.15 166.64,165.486C167.362,170.825 167.977,175.19 168.016,175.19C168.055,175.19 169.954,170.738 172.237,165.298L176.383,155.405L181.051,155.374L185.719,155.342L185.781,155.625C185.814,155.779 186.27,160.12 186.792,165.267C187.316,170.413 187.774,174.76 187.812,174.926C187.847,175.09 187.919,175.176 187.975,175.114C188.025,175.051 190.184,170.58 192.772,165.175L197.473,155.348L201.329,155.348L205.183,155.342L203.634,158.514C202.781,160.259 199.223,167.437 195.726,174.466L189.368,187.251L180.33,187.251L180.267,186.967C180.198,186.651 177.811,167.005 177.811,166.755C177.811,166.658 177.77,166.644 177.701,166.715C177.639,166.782 175.627,171.43 173.228,177.041L168.871,187.251L164.424,187.251C161.978,187.251 159.976,187.201 159.976,187.142Z" style="fill-rule:nonzero;"/>
            <path id="path3727" d="M212.672,188.051C209.691,187.595 207.776,186.702 206.05,184.958C204.485,183.375 203.73,181.288 203.857,178.895C204.113,174.076 207.744,170.651 214.367,168.973C217.355,168.215 223.765,167.402 226.757,167.402C227.496,167.402 227.563,167.376 227.723,167.053C228.274,165.952 228.414,164 228.018,162.979C227.68,162.102 226.635,161.198 225.592,160.873C224.582,160.56 222.723,160.531 221.539,160.81C219.51,161.291 217.975,162.497 217.064,164.323C216.789,164.878 216.554,165.35 216.543,165.372L207.475,164.445C207.367,164.334 208.216,162.595 208.879,161.58C210.819,158.606 213.795,156.541 217.531,155.589C221.849,154.482 227.567,154.52 231.22,155.669C234.878,156.822 237.243,159.138 237.935,162.237C238.329,164.012 238.118,165.7 236.18,176.258C235.07,182.31 234.934,183.38 234.99,185.59L235.029,187.251L230.238,187.251C225.986,187.251 225.441,187.225 225.372,187.05C225.234,186.69 225.291,184.891 225.492,183.473C225.596,182.704 225.666,182.016 225.641,181.945C225.619,181.872 225.374,182.206 225.103,182.68C224.443,183.826 222.607,185.673 221.456,186.351C220.391,186.978 218.913,187.534 217.564,187.812C216.595,188.011 213.433,188.166 212.672,188.051ZM220.306,182.016C222.197,181.46 224.092,179.706 225.23,177.455C225.89,176.148 226.562,174.012 226.86,172.267L226.941,171.798L226.257,171.798C224.291,171.798 220.933,172.333 219.196,172.923C216.952,173.689 215.551,174.769 214.832,176.289C214.472,177.047 214.433,177.252 214.433,178.269C214.438,179.539 214.663,180.205 215.363,180.998C216.458,182.249 218.252,182.618 220.306,182.016Z" style="fill-rule:nonzero;"/>
            <path id="path3729" d="M242.812,186.78C242.861,186.518 244.179,179.353 245.743,170.858L248.58,155.406L253.442,155.375C256.119,155.356 258.31,155.375 258.31,155.414C258.31,155.458 258.029,157.034 257.68,158.923C257.333,160.81 257.054,162.431 257.056,162.527C257.056,162.616 257.359,162.122 257.728,161.422C258.721,159.534 259.51,158.413 260.634,157.291C261.741,156.186 262.697,155.606 263.928,155.287C264.683,155.094 267.359,154.817 267.474,154.925C267.527,154.971 266.677,162.804 266.521,163.708L266.455,164.101L265.111,164.178C263.596,164.265 262.608,164.497 261.514,165.022C259.466,166.001 257.441,168.561 256.473,171.405C255.829,173.285 255.394,175.407 253.442,186.153L253.242,187.254L242.723,187.254L242.812,186.78Z" style="fill-rule:nonzero;"/>
            <path id="path3731" d="M281.859,188.051C279.483,187.789 277.63,187.254 275.769,186.29C270.934,183.783 268.23,179.148 268.23,173.366C268.23,168.087 270.374,163.175 274.342,159.353C277.629,156.188 281.565,154.708 286.697,154.696C291.642,154.686 295.076,155.974 297.807,158.872C299.872,161.059 301.111,163.722 301.533,166.879C301.672,167.932 301.621,170.96 301.437,172.333L301.361,172.928L278.556,172.928L278.461,174.023C278.342,175.471 278.461,176.973 278.77,177.859C279.627,180.334 282.124,181.795 285.069,181.55C287.699,181.326 289.647,179.972 290.964,177.443L291.458,176.493L295.669,177.137C297.983,177.487 299.901,177.803 299.935,177.835C300.052,177.953 299.103,179.801 298.326,180.961C297.82,181.72 297.066,182.61 296.271,183.381C293.779,185.797 291.011,187.194 287.453,187.826C286.396,188.011 282.836,188.155 281.859,188.051ZM292.146,167.371C292.296,166.811 292.224,164.562 292.041,163.935C291.42,161.849 289.371,160.493 286.836,160.493C284.918,160.493 283.443,161.038 282.172,162.215C280.956,163.342 280.145,164.79 279.494,166.994L279.302,167.655L292.07,167.655L292.146,167.371Z" style="fill-rule:nonzero;"/>
            <path id="path3733" d="M107.704,75.175C107.661,77.974 106.599,82.871 108.517,91.854C108.517,91.854 114.365,135.125 158.426,135.979C171.098,135.112 176.446,132.701 182.968,129.509C207.447,117.529 211.518,90.686 211.518,90.686L188.491,90.686C175.169,120.756 149.287,110.665 149.287,110.665L163.85,42.248C191.827,43.014 192.87,69.371 192.87,69.371L216.28,69.371C216.28,69.371 217.926,41.682 190.94,25.256C185.41,21.893 176.294,19.526 167.371,19.317C167.371,19.316 117.537,16.19 107.704,75.175" style="fill-rule:nonzero;"/>
            <path id="polyline3735" d="M307.118,26.743L302.556,48.06L263.347,48.06L258.779,69.376L298.079,69.376L293.609,90.692L254.308,90.692L249.835,112.006L289.138,112.006L284.57,133.226L205.396,133.226L227.947,26.743L307.118,26.743" style="fill-rule:nonzero;"/>
            <path id="polyline3737" d="M58.045,133.413L45.295,65.468L0,133.413L58.045,133.413" style="fill-rule:nonzero;"/>
            <path id="polyline3739" d="M113.526,133.413L70.228,133.413L55.004,50.812L88.88,0L113.526,133.413" style="fill-rule:nonzero;"/>
            <path id="path3741" d="M288.644,127.889C288.644,124.738 291.199,122.411 294.224,122.411C297.21,122.411 299.765,124.737 299.765,127.889C299.765,131.069 297.21,133.391 294.224,133.391C291.198,133.391 288.644,131.069 288.644,127.889M294.224,132.475C296.703,132.475 298.663,130.531 298.663,127.889C298.663,125.285 296.703,123.327 294.224,123.327C291.707,123.327 289.747,125.285 289.747,127.889C289.747,130.531 291.707,132.475 294.224,132.475ZM293.058,131.069L292.099,131.069L292.099,124.738L294.507,124.738C296.009,124.738 296.747,125.286 296.747,126.54C296.747,127.672 296.033,128.161 295.107,128.277L296.906,131.069L295.831,131.069L294.162,128.328L293.058,128.328L293.058,131.069ZM294.206,127.509C295.019,127.509 295.745,127.454 295.745,126.475C295.745,125.695 295.032,125.55 294.364,125.55L293.057,125.55L293.057,127.509L294.206,127.509Z" style="fill-rule:nonzero;"/>
        </g>
        <g transform="matrix(1,0,0,1,289.563,488.613)">
            <g transform="matrix(1,0,0,1,52.74,32.857)">
                <path d="M35.754,0L-2.32,0L-1.934,-1.301C0.34,-1.301 1.998,-1.74 3.041,-2.619C4.084,-3.498 5.051,-5.473 5.941,-8.543L14.801,-39.164C15.293,-40.852 15.539,-42.176 15.539,-43.137C15.539,-44.074 15.188,-44.824 14.484,-45.387C13.781,-45.949 12.398,-46.277 10.336,-46.371L10.723,-47.672L33.609,-47.672L33.223,-46.371C31.02,-46.324 29.373,-45.832 28.283,-44.895C27.193,-43.957 26.227,-42.047 25.383,-39.164L17.297,-11.145C16.266,-7.582 15.75,-5.414 15.75,-4.641C15.75,-4.172 16.014,-3.732 16.541,-3.322C17.068,-2.912 17.918,-2.707 19.09,-2.707C22.98,-2.707 26.736,-3.598 30.357,-5.379C33.979,-7.16 37.043,-9.82 39.551,-13.359L41.027,-13.359L35.754,0Z"/>
            </g>
            <g transform="matrix(1,0,0,1,52.74,32.857)">
                <path d="M73.16,-15.363L58.395,-15.363L55.441,-11.707L52.066,-7.664C51.41,-6.797 50.93,-6.012 50.625,-5.309C50.391,-4.77 50.273,-4.23 50.273,-3.691C50.273,-3.129 50.572,-2.607 51.17,-2.127C51.768,-1.646 52.758,-1.371 54.141,-1.301L54.141,0L39.902,0L40.254,-1.301C41.52,-1.512 42.645,-1.957 43.629,-2.637C44.941,-3.574 46.828,-5.508 49.289,-8.438L83.074,-48.762L84.656,-48.762L83.074,-9.738C83.004,-7.699 82.969,-6.469 82.969,-6.047C82.969,-4.453 83.291,-3.293 83.936,-2.566C84.58,-1.84 85.652,-1.418 87.152,-1.301L86.801,0L66.164,0L66.551,-1.301C68.59,-1.488 69.762,-1.652 70.066,-1.793C70.723,-2.121 71.32,-2.807 71.859,-3.85C72.398,-4.893 72.727,-6.703 72.844,-9.281L73.16,-15.363ZM73.16,-18.246L74.074,-33.785L60.82,-18.246L73.16,-18.246Z"/>
            </g>
            <g transform="matrix(1,0,0,1,52.74,32.857)">
                <path d="M136.16,0L115.523,0L115.91,-1.301C117.27,-1.418 118.277,-1.811 118.934,-2.479C119.59,-3.146 119.918,-3.973 119.918,-4.957C119.918,-6.012 119.555,-7.688 118.828,-9.984L113.766,-26.227L108.738,-8.824C108.176,-6.879 107.895,-5.473 107.895,-4.605C107.895,-3.621 108.281,-2.83 109.055,-2.232C109.828,-1.635 111.223,-1.324 113.238,-1.301L112.852,0L89.684,0L90.07,-1.301C91.922,-1.348 93.305,-1.594 94.219,-2.039C95.133,-2.484 95.859,-3.176 96.398,-4.113C96.938,-5.051 97.582,-6.844 98.332,-9.492L106.348,-37.23C107.262,-40.418 107.719,-42.445 107.719,-43.313C107.719,-44.109 107.35,-44.801 106.611,-45.387C105.873,-45.973 104.473,-46.301 102.41,-46.371L102.797,-47.672L125.227,-47.672L124.84,-46.371C123.34,-46.371 122.191,-46.148 121.395,-45.703C120.34,-45.094 119.484,-44.203 118.828,-43.031C118.383,-42.258 117.773,-40.465 117,-37.652L113.766,-26.262L126.176,-37.652C128.59,-39.879 129.938,-41.215 130.219,-41.66C130.594,-42.246 130.781,-42.867 130.781,-43.523C130.781,-44.227 130.529,-44.836 130.025,-45.352C129.521,-45.867 128.648,-46.207 127.406,-46.371L127.793,-47.672L145.758,-47.672L145.371,-46.371C143.988,-46.254 142.863,-46.055 141.996,-45.773C140.848,-45.398 139.535,-44.76 138.059,-43.857C136.582,-42.955 135.082,-41.895 133.559,-40.676L130.289,-37.652L122.73,-30.867L128.355,-13.289C130.184,-7.5 131.602,-4.078 132.609,-3.023C133.617,-1.969 134.93,-1.395 136.547,-1.301L136.16,0Z"/>
            </g>
            <g transform="matrix(1,0,0,1,52.74,32.857)">
                <path d="M167.238,-45.035L161.93,-26.543L163.547,-26.543C167.813,-26.543 170.924,-27.105 172.881,-28.23C174.838,-29.355 176.496,-31.348 177.855,-34.207L179.156,-34.207L173.813,-15.645L172.582,-15.645C172.793,-16.887 172.898,-17.895 172.898,-18.668C172.898,-19.957 172.518,-21.012 171.756,-21.832C170.994,-22.652 170.004,-23.238 168.785,-23.59C167.988,-23.824 166.336,-23.941 163.828,-23.941L161.086,-23.941L156.516,-7.945C156.117,-6.539 155.918,-5.496 155.918,-4.816C155.918,-4.277 156.176,-3.844 156.691,-3.516C157.441,-3.047 158.859,-2.813 160.945,-2.813C164.953,-2.813 168.727,-3.662 172.266,-5.361C175.805,-7.061 178.98,-9.633 181.793,-13.078L183.234,-13.078L178.277,0L137.496,0L137.918,-1.301C140.309,-1.301 142.055,-1.752 143.156,-2.654C144.258,-3.557 145.254,-5.543 146.145,-8.613L155.109,-39.305C155.602,-41.016 155.848,-42.363 155.848,-43.348C155.848,-44.238 155.531,-44.924 154.898,-45.404C154.266,-45.885 152.824,-46.207 150.574,-46.371L150.961,-47.672L188.965,-47.672L185.906,-35.754L184.641,-35.754C184.547,-38.098 184.184,-39.75 183.551,-40.711C182.566,-42.211 181.26,-43.307 179.631,-43.998C178.002,-44.689 175.359,-45.035 171.703,-45.035L167.238,-45.035Z"/>
            </g>
            <g transform="matrix(1,0,0,1,52.74,32.857)">
                <path d="M223.805,0L185.73,0L186.117,-1.301C188.391,-1.301 190.049,-1.74 191.092,-2.619C192.135,-3.498 193.102,-5.473 193.992,-8.543L202.852,-39.164C203.344,-40.852 203.59,-42.176 203.59,-43.137C203.59,-44.074 203.238,-44.824 202.535,-45.387C201.832,-45.949 200.449,-46.277 198.387,-46.371L198.773,-47.672L221.66,-47.672L221.273,-46.371C219.07,-46.324 217.424,-45.832 216.334,-44.895C215.244,-43.957 214.277,-42.047 213.434,-39.164L205.348,-11.145C204.316,-7.582 203.801,-5.414 203.801,-4.641C203.801,-4.172 204.064,-3.732 204.592,-3.322C205.119,-2.912 205.969,-2.707 207.141,-2.707C211.031,-2.707 214.787,-3.598 218.408,-5.379C222.029,-7.16 225.094,-9.82 227.602,-13.359L229.078,-13.359L223.805,0Z"/>
            </g>
            <g transform="matrix(1,0,0,1,52.74,32.857)">
                <path d="M261.211,-15.363L246.445,-15.363L243.492,-11.707L240.117,-7.664C239.461,-6.797 238.98,-6.012 238.676,-5.309C238.441,-4.77 238.324,-4.23 238.324,-3.691C238.324,-3.129 238.623,-2.607 239.221,-2.127C239.818,-1.646 240.809,-1.371 242.191,-1.301L242.191,0L227.953,0L228.305,-1.301C229.57,-1.512 230.695,-1.957 231.68,-2.637C232.992,-3.574 234.879,-5.508 237.34,-8.438L271.125,-48.762L272.707,-48.762L271.125,-9.738C271.055,-7.699 271.02,-6.469 271.02,-6.047C271.02,-4.453 271.342,-3.293 271.986,-2.566C272.631,-1.84 273.703,-1.418 275.203,-1.301L274.852,0L254.215,0L254.602,-1.301C256.641,-1.488 257.813,-1.652 258.117,-1.793C258.773,-2.121 259.371,-2.807 259.91,-3.85C260.449,-4.893 260.777,-6.703 260.895,-9.281L261.211,-15.363ZM261.211,-18.246L262.125,-33.785L248.871,-18.246L261.211,-18.246Z"/>
            </g>
            <g transform="matrix(1,0,0,1,52.74,32.857)">
                <path d="M305.719,-47.672L320.625,-15.891L327.34,-38.953C327.691,-40.219 327.867,-41.344 327.867,-42.328C327.867,-43.5 327.498,-44.438 326.76,-45.141C326.021,-45.844 324.75,-46.254 322.945,-46.371L323.332,-47.672L338.449,-47.672L338.098,-46.371C336.176,-46.254 334.588,-45.715 333.334,-44.754C332.08,-43.793 331.02,-41.859 330.152,-38.953L318.516,0.527L317.18,0.527L298.055,-40.113L288.809,-8.438C288.504,-7.336 288.352,-6.352 288.352,-5.484C288.352,-4.219 288.768,-3.205 289.6,-2.443C290.432,-1.682 291.762,-1.301 293.59,-1.301L293.273,0L277.734,0L278.051,-1.301C279.387,-1.301 280.336,-1.418 280.898,-1.652C281.883,-2.027 282.844,-2.748 283.781,-3.814C284.719,-4.881 285.48,-6.422 286.066,-8.438L296.156,-43.066C294.914,-44.449 293.871,-45.34 293.027,-45.738C292.184,-46.137 290.918,-46.348 289.23,-46.371L289.617,-47.672L305.719,-47.672Z"/>
            </g>
            <g transform="matrix(1,0,0,1,52.74,32.857)">
                <path d="M329.449,0L329.871,-1.301C332.168,-1.301 333.908,-1.775 335.092,-2.725C336.275,-3.674 337.254,-5.449 338.027,-8.051L346.676,-38.109C347.238,-40.078 347.52,-41.695 347.52,-42.961C347.52,-44.039 347.191,-44.836 346.535,-45.352C345.879,-45.867 344.203,-46.207 341.508,-46.371L341.93,-47.672L358.242,-47.672C366.844,-47.672 373.049,-45.932 376.857,-42.451C380.666,-38.971 382.57,-34.09 382.57,-27.809C382.57,-23.379 381.691,-19.664 379.934,-16.664C376.488,-10.805 372.398,-6.563 367.664,-3.938C362.93,-1.313 356.848,0 349.418,0L329.449,0ZM359.227,-44.859L348.75,-8.719C348.258,-7.055 348.012,-5.859 348.012,-5.133C348.012,-4.477 348.281,-3.949 348.82,-3.551C349.523,-3.012 350.566,-2.742 351.949,-2.742C355.254,-2.742 358.207,-3.773 360.809,-5.836C364.137,-8.484 366.674,-12.047 368.42,-16.523C370.166,-21 371.039,-25.441 371.039,-29.848C371.039,-33.035 370.535,-35.813 369.527,-38.18C368.52,-40.547 366.961,-42.352 364.852,-43.594C363.375,-44.438 361.5,-44.859 359.227,-44.859Z"/>
            </g>
        </g>
    </g>
</svg>
