<svg width="487" height="354" viewBox="0 0 487 354" version="1.1" xmlns="http://www.w3.org/2000/svg" xmlns:xlink="http://www.w3.org/1999/xlink" xml:space="preserve" xmlns:serif="http://www.serif.com/"><g clip-path="url(#_clip1)"><g serif:id="Layer 1"><path d="M87.712,353.811c-1.438,-0.289 -1.61,-3.621 -1.61,-31.25l0,-30.927l-19,0l0,-16.692l13.885,-0.662c7.636,-0.365 20.461,-0.364 28.5,0.001l14.615,0.664l0,16.689l-20,0l0,61.842l-7.39,0.329c-4.064,0.181 -8.114,0.183 -9,0.006l0,0Zm13.39,-2.177l0,-63l20,0l0,-12.033l-25.75,0.267l-25.75,0.266l-0.3,5.75l-0.3,5.75l20.1,0l0,63l12,0Zm225.497,1.852c-0.286,-0.746 -0.403,-18.905 -0.259,-40.354l0.262,-38.998l12,0.02c13.869,0.026 17.993,1.125 23.787,6.35c15.107,13.62 7.133,37.397 -13.355,39.823l-4.932,0.585l0,32.721l-6.918,-0c-3.805,-0 -7.626,0.272 -8.492,0.604c-0.878,0.337 -1.803,0.005 -2.093,-0.753l-0,0.002Zm14.503,-1.852l0,-33.726l6.438,-0.517c10.909,-0.875 18.437,-7.394 19.335,-16.743c0.739,-7.694 -0.465,-11.725 -4.961,-16.602c-5.172,-5.611 -10.88,-7.412 -23.493,-7.412l-9.319,0l0,75l12,0Zm0,-46l0,-17.26l4.563,0.514c6.091,0.687 9.437,3.824 9.437,8.848c0,5.001 -3.535,7.898 -9.635,7.898l-4.365,0Zm9.75,-4.26c1.752,-1.38 1.559,-6.288 -0.321,-8.168c-0.864,-0.865 -2.664,-1.572 -4,-1.572c-2.303,0 -2.429,0.313 -2.429,6.019l0,6.019l2.75,-0.656c1.513,-0.362 3.313,-1.1 4,-1.642Zm30.15,52.26l-8.601,-0.5l13.94,-37l-6.62,-20.026c-3.64,-11.014 -6.619,-20.577 -6.619,-21.25c0,-0.873 2.552,-1.224 8.919,-1.224l8.918,0l2.205,6.75c1.213,3.713 2.502,7.079 2.863,7.481c0.361,0.402 1.909,-2.635 3.439,-6.75l2.782,-7.481l18.857,0l-2.342,6.25c-1.288,3.438 -7.878,21.1 -14.645,39.25c-6.767,18.15 -12.797,33.45 -13.4,34c-0.647,0.591 -4.619,0.796 -9.696,0.5Zm21.473,-38.324c7.495,-19.978 13.627,-36.874 13.627,-37.547c0,-0.864 -1.8,-1.137 -6.125,-0.926l-6.124,0.297l-3.492,9.75c-1.921,5.363 -3.794,9.75 -4.163,9.75c-0.369,0 -2.145,-4.5 -3.948,-10l-3.278,-10l-5.935,0c-4.008,0 -5.935,0.397 -5.935,1.222c0,0.672 2.769,9.569 6.154,19.77l6.154,18.548l-3.777,9.98c-2.077,5.489 -5.067,13.468 -6.643,17.73l-2.867,7.75l12.725,0l13.627,-36.324Zm-276.373,38.324l0,-80.078l17.5,0.578l0.278,14.25l0.277,14.25l11.89,0l0.278,-14.25l0.277,-14.25l17.5,-0.578l0,80.078l-18,0l0,-33l-12,0l0,33l-18,0Zm14.774,-19.25l0.275,-16.75l17.903,0l0.274,16.75l0.274,16.75l11.5,0.6l0,-75.1l-12,0l0,29l-18,0l0,-29l-12,0l0,75.1l11.5,-0.6l0.274,-16.75Zm35.226,19.25l0,-80l44,0l0,18l-26,0l0,10.919l8.25,0.291l8.25,0.29l0.289,8.75l0.289,8.75l-17.078,0l0,16l26,0l0,17l-44,0Zm41,-2l0,-13l-26,0l0,-21l17,0l0,-12l-17,0l0,-17l26,0l0,-12l-38,0l0,36.834c0,20.258 0.3,37.133 0.667,37.5c0.367,0.366 8.917,0.666 19,0.666l18.333,0Zm5,-37.348l0,-39.348l10.25,-0.614c14.661,-0.88 21.124,0.88 27.45,7.475c6.465,6.74 8.216,17.247 4.242,25.456c-1.914,3.954 -1.949,4.464 -0.5,7.266c1.242,2.403 1.558,6.674 1.558,21.064l0,18.049l-16.95,0l-0.275,-16.25l-0.275,-16.25l-3.75,-0.31l-3.75,-0.31l0,33.12l-18,0l0,-39.348Zm15,20.348l0,-17l4.809,0c7.994,0 8.122,0.274 8.426,18l0.265,15.5l12,0l-0.345,-17c-0.279,-13.724 -0.674,-17.578 -2.05,-20c-1.643,-2.891 -1.622,-3.145 0.579,-7c2.517,-4.408 3.094,-12.303 1.257,-17.185c-1.801,-4.785 -7.952,-10.241 -13.355,-11.845c-2.807,-0.834 -8.981,-1.47 -14.267,-1.47l-9.319,0l0,75l12,0l0,-17Zm0,-29l0,-17.26l4.563,0.514c6.091,0.687 9.437,3.824 9.437,8.848c0,5.001 -3.535,7.898 -9.635,7.898l-4.365,0Zm9.75,-4.26c1.752,-1.38 1.559,-6.288 -0.321,-8.168c-0.864,-0.865 -2.664,-1.572 -4,-1.572c-2.303,0 -2.429,0.313 -2.429,6.019l0,6.019l2.75,-0.656c1.513,-0.362 3.313,-1.1 4,-1.642Zm21.496,52.26l20.004,-80l10.308,0c8.954,0 10.375,0.23 10.822,1.75c0.715,2.433 14.62,75.82 14.62,77.161c0,0.703 -3.12,1.089 -8.805,1.089l-8.805,0l-2.52,-15l-13.699,0l-1.768,7.5l-1.768,7.5l-18.389,0Zm16.783,-6.25c0.608,-2.337 1.543,-5.937 2.077,-8l0.971,-3.75l17.781,0l1.155,5.75c2.229,11.103 1.603,10.25 7.537,10.25c2.933,0 5.563,-0.374 5.846,-0.831c0.283,-0.457 -2.609,-16.995 -6.426,-36.75c-3.818,-19.755 -6.947,-36.256 -6.955,-36.669c-0.009,-0.412 -3.734,-0.75 -8.279,-0.75l-8.264,0l-8.905,35.75c-4.897,19.663 -9.106,36.538 -9.352,37.5c-0.39,1.524 0.338,1.75 5.63,1.75l6.078,0l1.106,-4.25Zm6.223,-25c0.256,-0.687 1.518,-5.637 2.804,-11c3.245,-13.533 4.781,-13.278 7.511,1.252l2.066,10.998l-6.423,0c-4.721,0 -6.3,-0.331 -5.958,-1.25Zm8.306,-5.5c-1.356,-7.65 -1.748,-8.048 -3.186,-3.238c-1.866,6.244 -1.734,6.988 1.24,6.988c2.469,0 2.575,-0.204 1.946,-3.75Zm-239.319,-94l0.261,-39.75l17.476,-0.577l4.235,8.539c2.329,4.696 4.507,8.538 4.839,8.538c0.332,0 2.369,-3.712 4.527,-8.25l3.923,-8.25l17.5,-0.578l0,80.078l-17,0l-0.118,-39.5l-4.163,8.25c-2.29,4.538 -4.413,8.25 -4.719,8.25c-0.305,0 -2.429,-3.712 -4.719,-8.25l-4.163,-8.25l-0.118,39.5l-18.023,0l0.262,-39.75Zm14.992,15.583c0.204,-16.815 0.575,-22.269 1.537,-22.589c0.793,-0.264 2.815,2.977 5.407,8.667c2.277,4.999 4.454,9.089 4.838,9.089c0.383,0 2.571,-4.032 4.861,-8.961c3.06,-6.587 4.556,-8.811 5.645,-8.393c1.246,0.478 1.481,4.052 1.481,22.511l0,21.943l11.5,-0.6l0.262,-37.25l0.263,-37.25l-13.569,0l-5.308,10.673l-5.308,10.673l-5.08,-10.673l-5.081,-10.673l-13.679,0l0,36.834c0,20.258 0.3,37.133 0.667,37.5c0.367,0.366 3.058,0.666 5.981,0.666l5.314,0l0.269,-22.167Zm40.743,23.417c-0.015,-0.412 4.37,-18.426 9.745,-40.031l9.771,-39.281l10.482,0.281l10.483,0.281l2.77,14.5c1.523,7.975 4.948,25.863 7.61,39.75l4.84,25.25l-17.598,0l-0.944,-3.75c-0.519,-2.062 -1.231,-5.437 -1.583,-7.5l-0.64,-3.75l-13.544,0l-3.536,15l-8.915,0c-4.903,0 -8.927,-0.337 -8.941,-0.75l-0,0Zm17.343,-9.5l1.907,-7.75l8.869,0c8.384,0 8.896,0.123 9.364,2.25c0.272,1.238 1.068,4.725 1.769,7.75l1.274,5.5l5.75,0.3c4.105,0.214 5.75,-0.059 5.75,-0.955c0,-1.206 -11.055,-59.284 -13.159,-69.134l-1.023,-4.789l-8.099,0.289l-8.099,0.289l-9.179,36.715c-5.048,20.193 -8.918,36.975 -8.599,37.294c0.318,0.318 3.051,0.446 6.073,0.285l5.494,-0.294l1.908,-7.75Zm7.612,-30.498c3.603,-14.365 5.225,-14.808 7.513,-2.053c0.918,5.116 1.899,10.089 2.181,11.051c0.45,1.539 -0.267,1.75 -5.939,1.75l-6.452,0l2.697,-10.748Zm6.06,6.498c-0.027,-3.105 -1.323,-8.75 -2.008,-8.75c-0.417,0 -1.06,1.607 -1.428,3.571c-0.369,1.964 -0.917,4.214 -1.218,5c-0.389,1.014 0.209,1.429 2.058,1.429c1.434,0 2.602,-0.562 2.596,-1.25Zm29.011,34.249l0,-16.836l12.591,-0.331c12.018,-0.317 12.682,-0.445 14.603,-2.82c1.564,-1.933 1.902,-3.466 1.518,-6.874c-0.575,-5.106 -1.749,-6.101 -7.218,-6.122c-13.225,-0.051 -22.191,-8.375 -23.252,-21.588c-0.441,-5.494 -0.143,-7.109 2.188,-11.873c3.212,-6.565 8.212,-10.975 14.134,-12.466c2.377,-0.599 9.973,-1.089 16.879,-1.089l12.557,0l0,18l-12.8,0c-14.001,0 -15.21,0.434 -15.184,5.45c0.024,4.808 1.103,5.549 9.445,6.484c14.14,1.586 19.776,7.981 20.382,23.127c0.509,12.745 -3.396,19.96 -13.302,24.572c-4.516,2.103 -6.473,2.349 -18.791,2.358l-13.75,0.008Zm31.518,-5.053c2.623,-1.35 6.167,-4.182 7.876,-6.293c3.023,-3.735 3.106,-4.114 3.106,-14.068c0,-9.545 -0.189,-10.516 -2.816,-14.486c-3.74,-5.652 -9.076,-7.751 -20.434,-8.041c-6.098,-0.156 -8.603,-9.795 -3.795,-14.603c2.322,-2.323 3.075,-2.455 14,-2.455l11.545,0l0,-12l-12.342,0c-10.992,0 -12.826,0.255 -16.75,2.327c-2.424,1.28 -5.719,4.189 -7.323,6.465c-5.307,7.536 -4.54,20.099 1.604,26.243c3.937,3.937 6.587,4.985 15.07,5.96c9.241,1.061 9.887,1.76 9.532,10.308c-0.264,6.342 -0.552,7.186 -3.107,9.089c-2.39,1.78 -4.552,2.153 -14.25,2.461l-11.434,0.363l0,5.226c0,2.874 0.338,5.572 0.75,5.996c0.413,0.424 5.981,0.588 12.374,0.366c9.891,-0.344 12.336,-0.77 16.394,-2.858Zm18.482,5.054l0,-16.837l12.398,-0.331c14.722,-0.394 16.602,-1.347 16.602,-8.415c0,-5.494 -1.916,-7.417 -7.393,-7.417c-15.743,0 -26.958,-14.827 -22.63,-29.919c1.531,-5.337 5.964,-10.961 10.953,-13.894c4.305,-2.531 5.426,-2.706 19.32,-3.028l14.75,-0.342l0,18.183l-12.965,0c-11.794,0 -13.058,0.175 -14,1.935c-1.49,2.785 -1.273,6.623 0.456,8.058c0.82,0.68 4.622,1.581 8.45,2.001c8.344,0.916 12.516,3.157 16.545,8.89c2.668,3.794 3.055,5.258 3.368,12.74c0.523,12.477 -0.177,14.835 -6.175,20.796c-6.642,6.603 -10.066,7.58 -26.545,7.58l-13.134,0Zm31,-4.65c11.18,-5.009 15.361,-17.349 10.858,-32.05c-2.021,-6.6 -10.895,-11.3 -21.334,-11.3c-6.821,0 -10.01,-9.025 -5.071,-14.354c2.379,-2.567 2.796,-2.646 14,-2.646l11.547,0l0,-12l-11.25,0.006c-13.621,0.006 -17.724,1.035 -22.27,5.581c-7.872,7.873 -8.668,20.282 -1.822,28.418c3.638,4.324 7.731,6.16 15.674,7.032c3.867,0.424 7.547,1.413 8.388,2.254c1.872,1.873 1.91,13.245 0.051,15.486c-2.462,2.969 -7.58,4.223 -17.239,4.223l-9.532,0l0,12.247l11.75,-0.441c8.917,-0.334 12.835,-0.926 16.25,-2.456l0,0Zm27.248,-35.35l10.002,-40l10.308,0c8.956,0 10.374,0.23 10.816,1.75c0.742,2.551 14.626,75.746 14.626,77.103c0,0.776 -2.847,1.147 -8.805,1.147l-8.805,0l-1.26,-7.5l-1.26,-7.5l-13.699,0l-1.768,7.5l-1.768,7.5l-18.389,0l10.002,-40Zm6.781,33.75c0.608,-2.337 1.543,-5.937 2.077,-8l0.971,-3.75l17.781,0l1.155,5.75c2.242,11.166 1.519,10.25 8.096,10.25c3.24,0 5.891,-0.266 5.891,-0.591c0,-0.325 -3.15,-16.903 -7,-36.838c-3.85,-19.936 -7,-36.545 -7,-36.909c0,-0.364 -3.719,-0.662 -8.264,-0.662l-8.264,0l-8.905,35.75c-4.897,19.663 -9.106,36.538 -9.352,37.5c-0.39,1.524 0.338,1.75 5.63,1.75l6.078,0l1.106,-4.25Zm6.223,-25c0.257,-0.687 1.518,-5.637 2.804,-11c1.751,-7.303 2.74,-9.75 3.94,-9.75c1.251,0 2.043,2.413 3.61,11l2.008,11l-6.414,0c-4.713,0 -6.29,-0.331 -5.948,-1.25Zm8.306,-5.5c-1.361,-7.68 -1.807,-8.063 -3.204,-2.75c-1.735,6.595 -1.753,6.5 1.258,6.5c2.469,0 2.575,-0.204 1.946,-3.75Zm38.442,35.63c-1.375,-0.547 -3.777,-2.206 -5.339,-3.687c-5.562,-5.275 -5.661,-5.882 -5.661,-34.805c0,-26.663 0.006,-26.72 2.491,-30.963c1.371,-2.338 4.183,-5.302 6.25,-6.588c3.35,-2.082 4.965,-2.337 14.845,-2.337c10.478,0 11.304,0.152 15.073,2.764c5.434,3.766 8.341,9.211 8.341,15.623l0,5.113l-17,0l0,-6l-13.038,0l0.269,22.25l0.269,22.25l12,0l0.292,-7.75l0.292,-7.75l-8.162,0l0.289,-8.75l0.289,-8.75l12.25,-0.281l12.25,-0.28l0,18.465c0,10.616 -0.452,19.663 -1.063,21.281c-1.448,3.831 -5.763,8.273 -9.655,9.938c-3.762,1.61 -21.427,1.789 -25.282,0.257l0,-0Zm24.634,-3.199c7.773,-4.043 9.353,-8.925 9.361,-28.931l0.005,-14.75l-20,0l0,12l8,0l-0.014,9.25c-0.008,5.088 -0.371,9.81 -0.805,10.494c-1.156,1.82 -16.143,1.922 -17.286,0.118c-1.25,-1.973 -1.121,-44.568 0.142,-46.927c0.883,-1.65 2.144,-1.935 8.586,-1.935c7.473,0 7.564,0.032 8.685,3c1.079,2.861 1.403,3 6.958,3l5.826,0l-0.667,-3.75c-1.747,-9.823 -8.247,-14.25 -20.924,-14.25c-9.65,0 -15.323,2.371 -18.712,7.821c-2.176,3.499 -2.304,4.78 -2.624,26.179c-0.4,26.675 0.322,31.464 5.415,35.935c1.902,1.67 4.687,3.307 6.19,3.638c1.502,0.332 3.181,0.782 3.731,1.002c2.214,0.883 15.452,-0.499 18.134,-1.894l-0.001,0Zm14.366,4.319l0,-80l44.078,0l-0.289,8.75l-0.289,8.75l-13.25,0.279l-13.25,0.279l0,10.942l17,0l0,18l-17.084,0l0.292,7.75l0.292,7.75l13.25,0.279l13.25,0.279l0,16.942l-44,-0Zm40.5,-2.5l0,-12l-25.5,-0.559l0,-20.94l17.1,-0l-0.3,-5.75l-0.3,-5.75l-16.5,-0.581l0,-16.919l26,-0l0,-12l-38,-0l0,75.044l18.75,-0.272l18.75,-0.273Zm-354.088,-88.416c-0.226,-0.229 -0.412,-14.292 -0.412,-31.25l0,-30.834l-19,0l0,-16.692l13.885,-0.662c7.636,-0.365 20.461,-0.364 28.5,0.001l14.615,0.664l0,16.689l-20,0l0,61.853l-8.588,0.324c-4.723,0.178 -8.773,0.136 -9,-0.093l0,-0Zm14.588,-2.084l0,-63l20,0l0,-12.033l-51.5,0.533l-0.3,5.75l-0.3,5.75l20.1,0l0,63l12,0Zm198.413,2.084c-0.227,-0.229 -0.413,-4.13 -0.413,-8.669l0,-8.252l12.398,-0.331c14.722,-0.394 16.602,-1.347 16.602,-8.415c0,-5.511 -1.913,-7.417 -7.445,-7.417c-23.625,0 -32.261,-31.006 -12.11,-43.473c4.78,-2.957 5.232,-3.034 19.724,-3.368l14.831,-0.342l0,18.183l-12.965,0c-11.794,0 -13.058,0.175 -14,1.935c-1.49,2.785 -1.273,6.623 0.456,8.058c0.82,0.68 4.545,1.572 8.279,1.982c14.649,1.608 20.23,8.347 20.23,24.428c0,9.934 -0.695,12.148 -5.479,17.442c-5.916,6.549 -9.075,7.563 -25.358,8.144c-7.885,0.281 -14.523,0.324 -14.75,0.095l0,-0Zm30.587,-4.538c10.357,-5.249 14.206,-13.849 12.041,-26.906c-1.766,-10.65 -7.206,-15.17 -19.66,-16.333c-5.293,-0.494 -6.825,-1.056 -8.425,-3.09c-2.722,-3.461 -2.513,-8.323 0.497,-11.571c2.379,-2.567 2.796,-2.646 14,-2.646l11.547,0l0,-12l-12.032,0c-13.601,0 -17.257,1.03 -22.049,6.206c-7.369,7.961 -7.911,19.897 -1.261,27.799c3.604,4.284 7.578,6.087 15.651,7.1c9.359,1.175 9.836,1.688 9.482,10.198c-0.263,6.334 -0.554,7.187 -3.095,9.08c-2.35,1.751 -4.579,2.15 -13.75,2.464l-10.946,0.375l0,12.048l12.25,-0.475c9.007,-0.35 13.177,-0.945 15.75,-2.249Zm-311,4.453l0,-16.836l12.591,-0.331c12.018,-0.317 12.682,-0.445 14.603,-2.82c1.553,-1.92 1.902,-3.472 1.527,-6.799c-0.268,-2.371 -0.776,-4.602 -1.131,-4.956c-0.354,-0.355 -3.814,-0.983 -7.688,-1.397c-13.391,-1.431 -20.627,-8.57 -21.654,-21.365c-0.447,-5.565 -0.156,-7.162 2.171,-11.918c3.058,-6.25 8.242,-10.836 14.081,-12.456c2.2,-0.61 9.738,-1.112 16.75,-1.115l12.75,-0.006l0,18l-12.8,0c-14.001,0 -15.21,0.434 -15.184,5.45c0.024,4.799 1.107,5.549 9.352,6.474c14.389,1.613 20.603,8.954 20.622,24.358c0.016,12.259 -3.716,18.714 -13.49,23.335c-4.497,2.126 -6.383,2.365 -18.75,2.373l-13.75,0.009Zm31.518,-5.053c2.623,-1.35 6.167,-4.182 7.876,-6.293c3.023,-3.735 3.106,-4.114 3.106,-14.068c0,-9.403 -0.215,-10.556 -2.661,-14.251c-3.31,-5.003 -7.869,-7.225 -16.474,-8.029c-8.143,-0.76 -10.365,-2.55 -10.365,-8.35c0,-2.962 0.658,-4.703 2.455,-6.5c2.322,-2.323 3.075,-2.455 14,-2.455l11.545,0l0,-12l-12.288,0c-10.758,0 -12.842,0.28 -16.736,2.25c-11.701,5.918 -14.792,23.422 -5.766,32.654c3.983,4.074 6.371,5.047 15.175,6.185c9.282,1.2 9.759,1.718 9.406,10.214c-0.264,6.342 -0.552,7.186 -3.107,9.089c-2.39,1.78 -4.552,2.153 -14.25,2.461l-11.434,0.363l0,5.226c0,2.874 0.338,5.572 0.75,5.996c0.413,0.424 5.981,0.588 12.374,0.366c9.891,-0.344 12.336,-0.77 16.394,-2.858Zm84.662,3.373c-4.391,-2.164 -7.828,-6.826 -9.099,-12.339c-0.587,-2.547 -1.042,-17.746 -1.056,-35.23l-0.025,-30.75l18,0l0,63.096l12.5,-0.596l0.265,-31.25l0.264,-31.25l17.046,0l-0.287,34.33l-0.288,34.329l-2.866,3.756c-5.027,6.589 -7.669,7.58 -20.134,7.559c-8.134,-0.014 -11.865,-0.445 -14.32,-1.655l-0,-0Zm27.558,-2.956c1.519,-1.126 3.775,-3.534 5.012,-5.352c2.217,-3.258 2.25,-3.771 2.25,-35.208l0,-31.902l-5.75,0.299l-5.75,0.3l-0.256,30c-0.294,34.32 0.23,32.5 -9.363,32.5c-9.282,0 -8.881,1.493 -8.881,-33.071l0,-29.929l-12,0l0,30.788c0,29.953 0.061,30.908 2.25,35.207c1.603,3.146 3.546,5.102 6.75,6.794c4.004,2.114 5.519,2.334 13.738,1.998c7.343,-0.3 9.805,-0.798 12,-2.424Zm14.262,4.764l0,-80.292l17.25,0.333c16.108,0.31 17.503,0.489 21.068,2.706c2.099,1.305 5.024,4.197 6.5,6.426l2.682,4.054l0,26.573c0,25.91 -0.057,26.674 -2.303,30.591c-1.267,2.209 -3.932,5.134 -5.923,6.5c-3.469,2.38 -4.357,2.495 -21.446,2.795l-17.828,0.314Zm31.9,-3.198c5.884,-1.263 11.604,-6.766 12.611,-12.135c0.343,-1.829 0.481,-14.119 0.307,-27.31c-0.304,-22.925 -0.416,-24.121 -2.542,-27.102c-4.513,-6.327 -6.211,-6.848 -23.526,-7.22l-15.75,-0.337l0,75.175l11.951,0c6.573,0 14.2,-0.482 16.949,-1.071Zm-16.9,-11.929l0,-50l7.8,0c4.734,0 8.272,0.472 9,1.2c1.269,1.269 1.806,44.058 0.593,47.219c-0.487,1.268 -2.269,1.581 -9,1.581l-8.393,0Zm15,-2l0,-45l-13,0l0,21.834c0,12.008 0.3,22.133 0.667,22.5c0.367,0.366 3.292,0.666 6.5,0.666l5.833,0Zm20,17l0,-80l18,0l0,80l-18,0Zm14.762,-39.75l0.263,-37.25l-12.025,0l0,75.1l11.5,-0.6l0.262,-37.25Zm15.74,38.175c-4.508,-2.351 -6.594,-4.51 -8.621,-8.925c-1.627,-3.542 -1.837,-6.858 -1.837,-29c0,-22.194 0.207,-25.449 1.846,-29c3.876,-8.397 8.304,-10.5 22.11,-10.5c13.806,0 18.235,2.103 22.11,10.5c1.639,3.551 1.846,6.806 1.846,29c0,22.195 -0.207,25.449 -1.846,29c-2.136,4.628 -5.422,7.917 -9.425,9.434c-4.481,1.698 -22.627,1.345 -26.183,-0.509Zm25.478,-2.675c8.578,-4.383 8.52,-4.142 8.52,-35.25c0,-31.116 0.074,-30.811 -8.558,-35.319c-3.862,-2.017 -5.559,-2.272 -13.005,-1.951c-9.419,0.405 -13.629,2.128 -17.332,7.091c-1.987,2.663 -2.122,4.229 -2.421,28c-0.337,26.864 0.136,30.752 4.205,34.574c5.799,5.449 20.619,6.929 28.591,2.855Zm-19.23,-10.83c-1.587,-0.924 -1.75,-3.181 -1.75,-24.269c0,-16.751 0.336,-23.586 1.2,-24.451c1.581,-1.58 14.02,-1.58 15.6,0c0.866,0.866 1.2,7.797 1.2,24.884l0,23.683l-2.25,0.603c-3.536,0.948 -12.071,0.674 -14,-0.45Zm13.25,-1.92l0,-45l-12,0l0,45l12,0Zm91,-23.039l0,-40.039l8.75,0.289l8.75,0.289l0.264,31.25l0.265,31.25l25.971,0l0,17l-44,0l0,-40.039Zm41,38.039l0,-13l-26,0l0,-62l-12,0l0,75l38,0Zm5,2l0,-80l18,0l0,63l26,0l0,17l-44,0Zm41,-2l0,-13l-26,0l0,-62l-12,0l0,75l38,0Zm15.5,0.335c-4.632,-2.448 -6.623,-4.488 -8.619,-8.835c-1.623,-3.535 -1.839,-6.882 -1.859,-28.782c-0.022,-26.497 0.411,-29.338 5.276,-34.549c4.55,-4.873 7.268,-5.567 23.452,-5.987l15.25,-0.395l0,18.213l-26,0l0,45l26,0l0,17l-15.25,-0.04c-11.932,-0.031 -15.902,-0.384 -18.25,-1.625l0,0Zm30.5,-6.805l0,-6.47l-12.75,-0.28l-12.75,-0.279l-0.268,-23.93c-0.207,-18.477 0.02,-24.113 1,-24.735c0.698,-0.443 6.556,-0.812 13.018,-0.82l11.75,-0.014l0,-12.152l-13.93,0.326c-15.136,0.354 -16.803,0.912 -21.508,7.208c-1.941,2.598 -2.078,4.294 -2.341,28.939c-0.256,24.041 -0.125,26.462 1.602,29.647c3.909,7.208 8.256,8.733 25.427,8.917l10.75,0.115l0,-6.472Zm-60.75,-82.343l-3.25,-0.313l0,-16.874l11.55,0c8.397,0 12.355,-0.416 14.5,-1.525c2.71,-1.402 2.95,-1.963 2.95,-6.878c0,-3.087 -0.529,-5.77 -1.25,-6.341c-0.687,-0.544 -3.982,-1.225 -7.322,-1.512c-13.879,-1.193 -21.535,-9.415 -21.615,-23.214c-0.043,-7.451 2.271,-12.566 8.044,-17.781c5.324,-4.81 9.258,-5.736 24.393,-5.743l12.75,-0.006l0,18l-12.345,0c-10.689,0 -12.567,0.245 -14,1.829c-1.995,2.205 -2.124,5.147 -0.334,7.595c0.965,1.319 3.333,2.004 8.777,2.537c8.306,0.813 10.214,1.588 14.038,5.703c4.797,5.161 5.864,8.524 5.864,18.471c0,13.077 -2.843,18.313 -13,23.938c-2.444,1.354 -22.703,2.793 -29.75,2.114l0,-0Zm28.25,-4.915c8.468,-4.438 12.489,-11.287 12.489,-21.272c0,-6.22 -1.598,-11.382 -4.646,-15.005c-3.597,-4.274 -7.025,-5.804 -14.782,-6.599c-7.812,-0.8 -10.402,-2.525 -11.19,-7.451c-0.463,-2.892 -0.068,-4.151 2.119,-6.75l2.688,-3.195l22.822,0l0,-12l-11.25,0.006c-14.288,0.007 -17.505,0.92 -22.561,6.406c-5.999,6.508 -7.316,12.43 -4.712,21.197c2.371,7.987 9.775,13.391 18.342,13.391c6.775,0 10.036,1.711 10.776,5.652c1.047,5.583 -0.161,11.513 -2.743,13.46c-3.067,2.314 -6.444,2.888 -16.977,2.888l-8.875,0l0,12.242l12.25,-0.437c9.925,-0.354 13.01,-0.834 16.25,-2.533l0,0Zm-431.261,-35.022l0.261,-39.75l17.476,-0.577l4.235,8.539c2.329,4.696 4.494,8.538 4.81,8.538c0.316,0 2.353,-3.712 4.527,-8.25l3.952,-8.25l17.5,-0.578l0,80.078l-17,0l-0.073,-19.75l-0.073,-19.75l-3.947,8c-2.17,4.4 -4.286,8.116 -4.701,8.258c-0.414,0.142 -2.629,-3.458 -4.921,-8l-4.167,-8.258l-0.059,19.75l-0.059,19.75l-18.023,0l0.262,-39.75Zm14.992,15.583c0.204,-16.815 0.575,-22.269 1.537,-22.589c0.793,-0.264 2.815,2.977 5.407,8.667c2.277,4.999 4.44,9.089 4.805,9.089c0.366,0 2.545,-4.036 4.843,-8.968c3.099,-6.653 4.565,-8.82 5.677,-8.393c1.271,0.487 1.5,3.936 1.5,22.518l0,21.943l11.5,-0.6l0.525,-74.5l-13.569,0l-5.308,10.673l-5.308,10.673l-5.08,-10.673l-5.081,-10.673l-13.679,0l0,36.834c0,20.258 0.3,37.133 0.667,37.5c0.367,0.366 3.058,0.666 5.981,0.666l5.314,0l0.269,-22.167Zm40.743,23.417c-0.015,-0.412 4.367,-18.412 9.737,-40l9.764,-39.25l10.203,0c5.613,0 10.411,0.338 10.664,0.75c0.254,0.413 1.628,7.05 3.055,14.75c1.427,7.7 4.774,25.363 7.436,39.25l4.842,25.25l-8.77,0c-9.822,0 -8.922,0.764 -10.907,-9.25l-1.14,-5.75l-13.492,0l-1.768,7.5l-1.768,7.5l-8.915,0c-4.903,0 -8.927,-0.337 -8.941,-0.75Zm14.624,-2.015c0.604,-0.404 1.89,-3.997 2.858,-7.985l1.76,-7.25l8.873,0c8.389,0 8.9,0.123 9.368,2.25c0.272,1.238 1.068,4.725 1.769,7.75l1.274,5.5l5.75,0.3c4.164,0.217 5.75,-0.053 5.75,-0.981c0,-1.14 -12.243,-65.895 -13.539,-71.609c-0.496,-2.187 -0.883,-2.277 -8.68,-2l-8.161,0.29l-9.179,36.715c-5.048,20.193 -8.937,36.955 -8.643,37.25c0.802,0.802 9.537,0.616 10.8,-0.23Zm10.331,-37.983c3.603,-14.365 5.225,-14.808 7.513,-2.053c0.918,5.116 1.899,10.089 2.181,11.051c0.45,1.539 -0.267,1.75 -5.939,1.75l-6.452,0l2.697,-10.748Zm6.06,6.498c-0.027,-3.078 -1.32,-8.75 -1.995,-8.75c-0.409,0 -1.014,1.238 -1.345,2.75c-0.33,1.513 -0.889,3.763 -1.241,5c-0.548,1.924 -0.261,2.25 1.976,2.25c1.439,0 2.611,-0.562 2.605,-1.25Zm27.011,-5.75l0,-40l8.5,0c7.418,0 8.504,0.223 8.529,1.75c0.016,0.963 0.003,14.394 -0.028,29.846c-0.031,15.453 0.229,28.841 0.578,29.75c0.545,1.421 2.457,1.654 13.528,1.654l12.893,0l0,17l-44,0l0,-40Zm40.5,37.5l0,-12l-25.5,-0.559l0,-61.941l-12,0l0,75.044l37.5,-0.544Zm5.5,-37.5l0,-40l8.5,0c8.142,0 8.501,0.095 8.522,2.25c0.012,1.238 0.124,15.3 0.25,31.25l0.228,29l13.25,0.279l13.25,0.279l0,16.942l-44,0l0,-40Zm40.5,37.5l0,-12l-12.75,-0.279l-12.75,-0.28l0,-61.941l-12,0l0,36.834c0,20.258 0.31,37.143 0.689,37.521c0.378,0.379 8.816,0.567 18.75,0.417l18.061,-0.272Zm5.5,2.5l0,-80l44,0l0,18l-27,0l0,11l17,0l0,17.919l-8.25,0.291l-8.25,0.29l0,15l13.25,0.279l13.25,0.279l0,16.942l-44,0Zm40.5,-2.5l0,-12l-12.75,-0.279l-12.75,-0.28l0,-20.94l17.161,-0l-0.661,-11.5l-8.25,-0.291l-8.25,-0.29l0,-16.919l26,-0l0,-12l-38,-0l0,75.044l18.75,-0.272l18.75,-0.273Zm14.866,0.582c-1.724,-1.051 -4.424,-3.602 -6,-5.669l-2.866,-3.757l0,-56.47l3.071,-3.843c4.862,-6.083 8.321,-7.339 20.219,-7.341c12.261,-0.002 16.678,1.725 20.959,8.195l2.751,4.157l0,54.292l-2.751,4.158c-4.333,6.548 -8.653,8.197 -21.459,8.193c-8.858,-0.003 -11.351,-0.346 -13.924,-1.915Zm26.727,-2.375c3.132,-1.63 5.059,-3.573 6.657,-6.712c2.149,-4.219 2.25,-5.502 2.25,-28.495c0,-22.979 -0.102,-24.279 -2.25,-28.538c-3.144,-6.234 -8.717,-8.962 -18.312,-8.962c-8.047,0 -12.845,1.294 -16.283,4.389c-4.946,4.454 -5.155,5.793 -5.155,33.111c0,27.412 0.179,28.543 5.275,33.302c3.322,3.102 6.814,4.01 15.818,4.112c6.082,0.069 8.47,-0.37 12,-2.207Zm-19.343,-10.787c-1.589,-0.925 -1.75,-3.209 -1.75,-24.862c0,-20.82 0.201,-23.921 1.582,-24.451c2.824,-1.083 13.976,-0.649 15.218,0.593c0.865,0.865 1.2,7.704 1.2,24.465c0,21.978 -0.107,23.322 -1.934,24.3c-2.469,1.321 -12.022,1.291 -14.316,-0.045l0,0Zm13.25,-24.42l0,-22.5l-5.893,0c-4.451,0 -6.041,0.387 -6.5,1.582c-0.829,2.16 -0.773,41.919 0.06,42.752c0.367,0.366 3.292,0.666 6.5,0.666l5.833,0l0,-22.5l0,0Zm20,-0.539l0,-40.039l8.75,0.289l8.75,0.289l0.264,31.25l0.265,31.25l25.971,0l0,17l-44,0l0,-40.039Zm40.798,31.289l0.298,-6.25l-26.096,0l0,-62l-12,0l0,75.044l18.75,-0.272l18.75,-0.272l0.298,-6.25Zm13.276,5.689c-7.821,-5.665 -8.027,-6.797 -8.052,-44.228l-0.022,-32.789l8.75,0.289l8.75,0.289l0.264,31.25l0.264,31.25l11.943,0l0.264,-31.25l0.264,-31.25l8.75,-0.289l8.75,-0.289l0,32.572c0,34.913 -0.253,36.935 -5.297,42.338c-4.115,4.407 -6.915,5.168 -19.003,5.168c-11.13,0 -11.499,-0.072 -15.626,-3.061l0.001,-0Zm27.906,-1.189c8.682,-4.436 8.481,-3.519 8.81,-40.321l0.289,-32.429l-12.079,0l0,30.465c0,34.733 0.608,32.535 -9,32.535c-9.608,0 -9,2.198 -9,-32.535l0,-30.465l-12.078,0l0.289,32.429c0.276,30.911 0.386,32.56 2.348,35.25c3.527,4.835 9.791,7.321 18.441,7.321c5.886,0 8.559,-0.502 11.98,-2.25Z"/></g></g></svg>
