<svg data-name="Layer 1" xmlns="http://www.w3.org/2000/svg" viewBox="0 0 256 102.4" width="256" height="102">
  <title>Ray Ray's Italian Beef &amp; Sausage</title>
  <path d="M250.77,82.19Q256,80.57,256,77q0-1.67-2.12-2.29a14.86,14.86,0,0,0-4.25-.59,28.93,28.93,0,0,0-4.26.46,28.93,28.93,0,0,1-4.26.46q-.6,0-1,0c-.69-.07-1.26-.59.25-.89q1.3-.3,2.09-.53a22.49,22.49,0,0,1,5.69-.92A15.15,15.15,0,0,1,253.91,74a13.62,13.62,0,0,0,1.6-1.4,1.37,1.37,0,0,0,.25-.81,1.85,1.85,0,0,0-.25-.76,18,18,0,0,0-6.28-1.21,22.61,22.61,0,0,0-7.45,1.38q-4.74,1.67-4.74,4,0,1.64,4.58,1.86l5.78.19a29.23,29.23,0,0,1,6.31.65,35.72,35.72,0,0,1-11.78,1.59h-4.37q-1,0-1,.7v.13q0,3,5.38,3A30.62,30.62,0,0,0,250.77,82.19ZM28.64,24.65H43.44l.45.22h-.08l1,.68c15.58,10.59,34.82,26.57,55.49,29a36.65,36.65,0,0,0,4.26.26q14.68,0,16.09-8.25l-.09-.92a4,4,0,0,0-.86-.7l-4.77,2.72a22.9,22.9,0,0,1-8,1.08,58.67,58.67,0,0,1-6.51-.4c-26.37-3-28.52-10.65-49.54-23.46-2.15-1.31-2-.94,2.2-1.6q10.69-1.67,14.15-2.58a39.49,39.49,0,0,0,13.07-5.76c3.9-2.77,2.67-6.43-.71-8.88Q71.25,0,49.23,0a166.32,166.32,0,0,0-21,1.51A132.37,132.37,0,0,0,12.37,4.42Q0,7.58,0,11.27q0,1.46,1,1.48L5.23,11.4A115.07,115.07,0,0,1,24.16,6.95C35.44,5.32,65.5,4.64,76.28,10.37A22.38,22.38,0,0,1,79,12.05q-2.58,3.07-11,5.8Q64.24,19,60.19,20c-13.63,3.24-21.5,2.43-35.3,1.7l-1-.05q0-1.46.08-2.57A65,65,0,0,1,25,9.62c.12-2.14-6.85.11-8.64,1.71q-.18,6-.29,9.36l-.95-.26C7.55,19,10,23,13.78,23.81l2.29.15a32.36,32.36,0,0,0,1,8.08,3.83,3.83,0,0,0,4,3.15L22.92,35a55,55,0,0,0,.68-5.61q.1-2.74.17-4.93l4.7.31ZM118,38.56a23.28,23.28,0,0,0,3.17-11.92q0-.94-.12-4.31l-3.66,1.51q-3.17,1.81-3.2,3.69l.18.67L113,30.07a6.12,6.12,0,0,1-2.49,2L107,26.18a7.16,7.16,0,0,0-6.52-3.67q-3,0-3.69,2.13,1.75,1.19,5.26,6.71,3,4.72,7.45,4.77a41.21,41.21,0,0,1,4.62-3.1,32.74,32.74,0,0,1,0,6.42,4.54,4.54,0,0,1-2.28.59,11.38,11.38,0,0,1-2.82-.78,10.76,10.76,0,0,0-3.31-.78h-.62L104.57,40l-.18,1.21a3.07,3.07,0,0,0,1.6,2.62,5.75,5.75,0,0,0,3.29,1Q114.33,44.84,118,38.56Zm24.79,33.68h14.81l.45.22h-.08l1,.68c15.58,10.59,34.82,26.57,55.49,29a36.65,36.65,0,0,0,4.26.26q14.68,0,16.09-8.25l-.09-.92a4,4,0,0,0-.86-.7l-4.77,2.72a22.9,22.9,0,0,1-8,1.08,58.67,58.67,0,0,1-6.51-.4C188.22,93,186.07,85.29,165,72.48c-2.15-1.31-2-.94,2.2-1.6q10.69-1.67,14.15-2.58a39.49,39.49,0,0,0,13.07-5.76c3.9-2.77,2.67-6.43-.71-8.88q-8.37-6.07-30.39-6.07a166.32,166.32,0,0,0-21,1.51A132.37,132.37,0,0,0,126.51,52q-12.37,3.15-12.37,6.85,0,1.46,1,1.48L119.36,59a115.07,115.07,0,0,1,18.93-4.45c11.29-1.63,41.35-2.31,52.12,3.42a22.38,22.38,0,0,1,2.7,1.68q-2.58,3.07-11,5.8-3.7,1.2-7.74,2.16c-13.63,3.24-21.5,2.43-35.3,1.7l-1-.05q0-1.46.08-2.57a65,65,0,0,1,1.08-9.47c.12-2.14-6.85.11-8.64,1.71q-.18,6-.29,9.36l-.95-.26c-7.58-1.45-5.13,2.52-1.36,3.37l2.29.15a32.36,32.36,0,0,0,1,8.08,3.83,3.83,0,0,0,4,3.15l1.85-.19a55,55,0,0,0,.68-5.61q.1-2.74.17-4.93l4.7.31Zm89.35,13.91a23.28,23.28,0,0,0,3.17-11.92q0-.94-.12-4.31l-3.66,1.51q-3.17,1.81-3.2,3.69l.18.67-1.32,1.86a6.12,6.12,0,0,1-2.49,2l-3.57-5.85a7.16,7.16,0,0,0-6.52-3.67q-3,0-3.69,2.13,1.75,1.19,5.26,6.71,3,4.72,7.45,4.77a41.21,41.21,0,0,1,4.62-3.1,32.74,32.74,0,0,1,0,6.42,4.54,4.54,0,0,1-2.28.59,11.38,11.38,0,0,1-2.82-.78,10.76,10.76,0,0,0-3.31-.78h-.62l-.49,1.54-.18,1.21a3.07,3.07,0,0,0,1.6,2.62,5.75,5.75,0,0,0,3.29,1Q228.46,92.44,232.12,86.16ZM208,74.83a4.59,4.59,0,0,1,.74-2.1,10.18,10.18,0,0,0-4.3-2.45,21.93,21.93,0,0,0-5.28-.49,24.56,24.56,0,0,0-10,1.92q-5.25,2.32-5.25,6.62a4.35,4.35,0,0,0,3,4.38,14.3,14.3,0,0,0,5,.62q4.89,0,11-3.48,0,1.94,0,2.51.06,1,1.14,1,4.74,0,4.74-3.07l-.37-2.64Q208.1,75.26,208,74.83Zm-7.59,1.3a19.76,19.76,0,0,1-2,.75,25.62,25.62,0,0,1-8.4,1.39l-.49,0q5.38-3.49,9.79-3.83C201.06,74.28,203.6,74.73,200.45,76.13ZM93.9,27.24a4.59,4.59,0,0,1,.74-2.1,10.18,10.18,0,0,0-4.3-2.45,21.93,21.93,0,0,0-5.28-.49,24.56,24.56,0,0,0-10,1.92q-5.25,2.32-5.25,6.62a4.35,4.35,0,0,0,3,4.38,14.3,14.3,0,0,0,5,.62q4.89,0,11-3.48,0,1.94,0,2.51.06,1,1.14,1,4.74,0,4.74-3.07L94.27,30Q94,27.67,93.9,27.24Zm-7.59,1.3a19.76,19.76,0,0,1-2,.75,25.62,25.62,0,0,1-8.4,1.39l-.49,0q5.38-3.49,9.79-3.83C86.92,26.68,89.47,27.14,86.31,28.53Z" fill-rule="evenodd"/>
  <polygon points="33.63 94.07 34.86 94.07 34.86 96.07 36.29 94.07 37.67 94.07 35.98 96.19 37.85 98.69 36.32 98.69 34.86 96.55 34.86 98.69 33.63 98.69 33.63 94.07" fill-rule="evenodd"/>
  <path d="M39.37,94.07h1.49l1.75,4.62H41.29l-.33-1H39.18l-.34,1H37.62Zm.72,1-.6,1.73h1.18Z" fill-rule="evenodd"/>
  <polygon points="42.88 94.07 44.11 94.07 44.11 97.78 45.97 97.78 45.97 98.69 42.88 98.69 42.88 94.07" fill-rule="evenodd"/>
  <path d="M47.74,94.07h1.49L51,98.69H49.66l-.33-1H47.55l-.34,1H46Zm.72,1-.6,1.73H49Z" fill-rule="evenodd"/>
  <path d="M51.25,94.07h1.88L54,96.85a2.79,2.79,0,0,1,.08.37q0,.21,0,.44,0-.26.06-.47a3.07,3.07,0,0,1,.08-.37l.85-2.75h1.85v4.62H55.78v-3.1q0-.22,0-.46t0-.51q0,.21-.09.4t-.1.36l-1,3.31H53.49l-1-3.25q-.05-.17-.1-.38t-.09-.44q0,.33,0,.59t0,.4v3.08H51.25Z" fill-rule="evenodd"/>
  <path d="M59,94.07H60.5l1.75,4.62H60.93l-.33-1H58.83l-.34,1H57.26Zm.72,1-.6,1.73h1.18Z" fill-rule="evenodd"/>
  <polygon points="62.45 94.07 65.96 94.07 65.96 95.05 63.63 97.8 65.96 97.8 65.96 98.69 62.38 98.69 62.38 97.66 64.67 94.96 62.45 94.96 62.45 94.07" fill-rule="evenodd"/>
  <path d="M68.72,94a2.2,2.2,0,0,1,1.68.64,2.92,2.92,0,0,1,0,3.56,2.55,2.55,0,0,1-3.37,0,2.91,2.91,0,0,1,0-3.56A2.22,2.22,0,0,1,68.72,94Zm0,.9a.9.9,0,0,0-.77.41,1.87,1.87,0,0,0-.29,1.1A1.89,1.89,0,0,0,68,97.47a.9.9,0,0,0,.77.41.89.89,0,0,0,.76-.41,1.91,1.91,0,0,0,.29-1.11,1.89,1.89,0,0,0-.29-1.1A.89.89,0,0,0,68.72,94.86Z" fill-rule="evenodd"/>
  <path d="M73.87,94a2.2,2.2,0,0,1,1.68.64,2.92,2.92,0,0,1,0,3.56,2.55,2.55,0,0,1-3.37,0,2.91,2.91,0,0,1,0-3.56A2.22,2.22,0,0,1,73.87,94Zm0,.9a.9.9,0,0,0-.77.41,1.87,1.87,0,0,0-.29,1.1,1.89,1.89,0,0,0,.29,1.11.9.9,0,0,0,.77.41.89.89,0,0,0,.76-.41,1.91,1.91,0,0,0,.29-1.11,1.89,1.89,0,0,0-.29-1.1A.89.89,0,0,0,73.87,94.86Z" fill-rule="evenodd"/>
  <polygon points="76.83 97.64 77.93 97.64 77.28 99.42 76.4 99.42 76.83 97.64" fill-rule="evenodd"/>
  <path d="M80.79,94.07h1.88l.85,2.78a2.78,2.78,0,0,1,.08.37q0,.21,0,.44,0-.26.06-.47a3.07,3.07,0,0,1,.08-.37l.85-2.75h1.85v4.62H85.31v-3.1q0-.22,0-.46t0-.51q0,.21-.09.4t-.1.36l-1,3.31H83l-1-3.25q-.05-.17-.1-.38t-.09-.44q0,.33,0,.59t0,.4v3.08H80.79Z" fill-rule="evenodd"/>
  <rect x="87.36" y="94.07" width="1.23" height="4.62"/>
  <rect x="18.3" y="61.05" width="2.74" height="10.26"/>
  <path d="M26.33,61.12V63.7h1.86v1.88H26.33V68.2a2,2,0,0,0,.27,1.19,1.13,1.13,0,0,0,.94.35l.24,0,.41-.09,0,1.7q-.42.09-.81.14a6,6,0,0,1-.77.05,2.88,2.88,0,0,1-2.24-.76,3.65,3.65,0,0,1-.69-2.48V65.58H22.26V63.7h1.61V61.95Z" fill-rule="evenodd"/>
  <path d="M36.72,67.33v4H34.46l-.06-1.18a2.83,2.83,0,0,1-1.12,1,3.69,3.69,0,0,1-1.58.31,2.55,2.55,0,0,1-1.84-.66A2.32,2.32,0,0,1,29.18,69a2,2,0,0,1,1-1.87,6,6,0,0,1,3.07-.61h1v-.1a1.09,1.09,0,0,0-.48-1,2.42,2.42,0,0,0-1.39-.33,3.85,3.85,0,0,0-1,.16,8.22,8.22,0,0,0-1.23.46l0-1.72a6.39,6.39,0,0,1,1.38-.4,9.44,9.44,0,0,1,1.63-.13,3.59,3.59,0,0,1,2.73.93A4.15,4.15,0,0,1,36.72,67.33Zm-2.9.52a4,4,0,0,0-1.65.25.89.89,0,0,0-.23,1.44,1,1,0,0,0,.72.25,1.53,1.53,0,0,0,1.16-.48,1.73,1.73,0,0,0,.45-1.24v-.22Z" fill-rule="evenodd"/>
  <rect x="38.59" y="60.22" width="2.61" height="11.09"/>
  <path d="M43.2,60.22h2.61v2.12H43.2Zm0,3.49h2.61v7.61H43.2Z" fill-rule="evenodd"/>
  <path d="M54.9,67.33v4H52.64l-.06-1.18a2.83,2.83,0,0,1-1.12,1,3.69,3.69,0,0,1-1.58.31A2.55,2.55,0,0,1,48,70.74,2.32,2.32,0,0,1,47.36,69a2,2,0,0,1,1-1.87,6,6,0,0,1,3.07-.61h1v-.1a1.09,1.09,0,0,0-.48-1,2.42,2.42,0,0,0-1.39-.33,3.85,3.85,0,0,0-1,.16,8.22,8.22,0,0,0-1.23.46l0-1.72a6.39,6.39,0,0,1,1.38-.4,9.44,9.44,0,0,1,1.63-.13,3.59,3.59,0,0,1,2.73.93A4.15,4.15,0,0,1,54.9,67.33Zm-2.9.52a4,4,0,0,0-1.65.25.89.89,0,0,0-.23,1.44,1,1,0,0,0,.72.25A1.53,1.53,0,0,0,52,69.31a1.73,1.73,0,0,0,.45-1.24v-.22Z" fill-rule="evenodd"/>
  <path d="M64.73,66.86v4.45H62.14V67.4a2.27,2.27,0,0,0-.32-1.33,1.12,1.12,0,0,0-1-.44,1.29,1.29,0,0,0-1.09.55,2.41,2.41,0,0,0-.41,1.47v3.65H56.75V63.7h2.37v1.37a3.11,3.11,0,0,1,1.16-1.17,3.18,3.18,0,0,1,1.6-.4,2.64,2.64,0,0,1,2.12.86A3.76,3.76,0,0,1,64.73,66.86Z" fill-rule="evenodd"/>
  <path d="M71.14,61h4.2a4.83,4.83,0,0,1,2.8.67,2.28,2.28,0,0,1,.94,2,2.23,2.23,0,0,1-.49,1.48,2.76,2.76,0,0,1-1.43.85,2.78,2.78,0,0,1,1.62.83,2.33,2.33,0,0,1,.57,1.61,2.4,2.4,0,0,1-1,2.14,5.78,5.78,0,0,1-3.19.7h-4Zm2.68,1.85v2.29h.83a2.32,2.32,0,0,0,1.3-.29,1,1,0,0,0,.43-.89.94.94,0,0,0-.4-.82,2.08,2.08,0,0,0-1.19-.28Zm0,4.11v2.41h1.08a2.15,2.15,0,0,0,1.27-.31,1.06,1.06,0,0,0,.43-.91,1,1,0,0,0-.4-.89A2,2,0,0,0,75,67Z" fill-rule="evenodd"/>
  <path d="M86.07,66.74a2,2,0,0,0-.49-1.2,1.38,1.38,0,0,0-1-.44,1.35,1.35,0,0,0-1,.44,2.06,2.06,0,0,0-.49,1.2Zm2.3.9v.64H83a1.55,1.55,0,0,0,.64,1.15,2.55,2.55,0,0,0,1.52.4,5,5,0,0,0,1.21-.16,7.08,7.08,0,0,0,1.31-.48v1.86a7.49,7.49,0,0,1-1.33.35,8.71,8.71,0,0,1-1.44.12,4.56,4.56,0,0,1-3.25-1.1,4,4,0,0,1-1.17-3,3.75,3.75,0,0,1,1.08-2.82,4,4,0,0,1,2.91-1,3.71,3.71,0,0,1,2.85,1.08A4.32,4.32,0,0,1,88.37,67.64Z" fill-rule="evenodd"/>
  <path d="M94.89,66.74a2,2,0,0,0-.49-1.2,1.38,1.38,0,0,0-1-.44,1.35,1.35,0,0,0-1,.44,2.06,2.06,0,0,0-.49,1.2Zm2.3.9v.64H91.85a1.55,1.55,0,0,0,.64,1.15,2.55,2.55,0,0,0,1.52.4,5,5,0,0,0,1.21-.16,7.08,7.08,0,0,0,1.31-.48v1.86a7.49,7.49,0,0,1-1.33.35,8.71,8.71,0,0,1-1.44.12,4.56,4.56,0,0,1-3.25-1.1,4,4,0,0,1-1.17-3,3.75,3.75,0,0,1,1.08-2.82,4,4,0,0,1,2.91-1,3.71,3.71,0,0,1,2.85,1.08A4.32,4.32,0,0,1,97.19,67.64Z" fill-rule="evenodd"/>
  <path d="M103.92,60.24,103.76,62a1.82,1.82,0,0,0-.32-.11,1.38,1.38,0,0,0-.33,0,1,1,0,0,0-.81.33,1.72,1.72,0,0,0-.26,1v.46h1.82V65.6H102v5.71H99.47V65.6h-1.6V63.7h1.6V63a3,3,0,0,1,.75-2.2,3.05,3.05,0,0,1,2.23-.74,6.7,6.7,0,0,1,.79,0A4.72,4.72,0,0,1,103.92,60.24Z" fill-rule="evenodd"/>
  <path d="M26.15,80a3.25,3.25,0,0,0,1-.68,1.1,1.1,0,0,0,.31-.75.86.86,0,0,0-.31-.7,1.45,1.45,0,0,0-1.65,0,.78.78,0,0,0-.31.64,1.27,1.27,0,0,0,.26.7A4,4,0,0,0,26.15,80Zm1.19,1.2L29.15,83a3.43,3.43,0,0,0,.61-1A3.52,3.52,0,0,0,30,80.91h2.15a5.54,5.54,0,0,1-.44,2,4.74,4.74,0,0,1-1.12,1.59l2,2H29.71L29,85.73a4.54,4.54,0,0,1-1.38.7,5.57,5.57,0,0,1-1.65.23,4.3,4.3,0,0,1-2.84-.88,2.92,2.92,0,0,1-1.05-2.37,2.46,2.46,0,0,1,.49-1.5A3.81,3.81,0,0,1,24,80.79a5.05,5.05,0,0,1-.94-1.19,2.41,2.41,0,0,1-.29-1.13,2.14,2.14,0,0,1,.93-1.82A4.22,4.22,0,0,1,26.26,76a4.1,4.1,0,0,1,2.48.66,2.14,2.14,0,0,1,.9,1.82A2.4,2.4,0,0,1,29.05,80,4.49,4.49,0,0,1,27.34,81.22Zm-2,.87a2.43,2.43,0,0,0-.62.64,1.32,1.32,0,0,0-.2.7A1.38,1.38,0,0,0,25,84.49a1.65,1.65,0,0,0,1.15.44,2.23,2.23,0,0,0,1.5-.53Z" fill-rule="evenodd"/>
  <path d="M45.08,76.32l-.2,2.12a7.29,7.29,0,0,0-1.21-.4,5,5,0,0,0-1.12-.13,2.65,2.65,0,0,0-1.3.26.81.81,0,0,0-.47.73.78.78,0,0,0,.24.57,1.78,1.78,0,0,0,.72.4l.46.14a9.08,9.08,0,0,1,2.34,1,2.63,2.63,0,0,1,.79,1,2.94,2.94,0,0,1,.25,1.26,3.11,3.11,0,0,1-1.13,2.59,5.17,5.17,0,0,1-3.26.89,11.2,11.2,0,0,1-1.55-.11,11.49,11.49,0,0,1-1.54-.33L38.33,84a8.33,8.33,0,0,0,1.4.49,5.35,5.35,0,0,0,1.29.17,2.34,2.34,0,0,0,1.28-.3.94.94,0,0,0,.47-.82q0-.64-1.5-1.16l-.56-.2a5.15,5.15,0,0,1-2.09-1.22A2.56,2.56,0,0,1,38,79.16a2.79,2.79,0,0,1,1.11-2.38A5.2,5.2,0,0,1,42.27,76a11.41,11.41,0,0,1,1.46.09A9,9,0,0,1,45.08,76.32Z" fill-rule="evenodd"/>
  <path d="M54.24,82.49v4H52l-.06-1.18a2.83,2.83,0,0,1-1.12,1,3.69,3.69,0,0,1-1.58.31,2.55,2.55,0,0,1-1.84-.66,2.32,2.32,0,0,1-.69-1.76,2,2,0,0,1,1-1.87,6,6,0,0,1,3.07-.61h1v-.1a1.09,1.09,0,0,0-.48-1,2.42,2.42,0,0,0-1.39-.33,3.85,3.85,0,0,0-1,.16,8.22,8.22,0,0,0-1.23.46l0-1.72a6.39,6.39,0,0,1,1.38-.4,9.44,9.44,0,0,1,1.63-.13,3.59,3.59,0,0,1,2.73.93A4.15,4.15,0,0,1,54.24,82.49Zm-2.9.52a4,4,0,0,0-1.65.25.89.89,0,0,0-.23,1.44,1,1,0,0,0,.72.25,1.53,1.53,0,0,0,1.16-.48,1.73,1.73,0,0,0,.45-1.24V83Z" fill-rule="evenodd"/>
  <path d="M55.94,78.86h2.6V82.7A2.29,2.29,0,0,0,58.86,84a1.11,1.11,0,0,0,1,.44,1.24,1.24,0,0,0,1.12-.6,3.31,3.31,0,0,0,.38-1.76V78.86h2.61v7.61H61.56V85a3.1,3.1,0,0,1-1.15,1.16,3.2,3.2,0,0,1-1.6.4,2.66,2.66,0,0,1-2.13-.86,3.74,3.74,0,0,1-.73-2.5Z" fill-rule="evenodd"/>
  <path d="M71.46,79.06l-.25,1.83a4.91,4.91,0,0,0-1.05-.45,3.61,3.61,0,0,0-1-.16,1.35,1.35,0,0,0-.74.17.54.54,0,0,0-.26.48q0,.4,1.06.69l.53.15a3.78,3.78,0,0,1,1.69.88,2,2,0,0,1,.48,1.42A2.23,2.23,0,0,1,71,86a4.27,4.27,0,0,1-2.59.69A8.81,8.81,0,0,1,67,86.57a8.56,8.56,0,0,1-1.34-.33l.17-2a5.32,5.32,0,0,0,1.14.43,4.93,4.93,0,0,0,1.2.15,1.87,1.87,0,0,0,.86-.16.5.5,0,0,0,.29-.47q0-.46-1.17-.81l-.46-.14A4.18,4.18,0,0,1,66,82.43a1.73,1.73,0,0,1-.47-1.26,2.14,2.14,0,0,1,.94-1.85,4.54,4.54,0,0,1,2.64-.66,6.7,6.7,0,0,1,1.14.1A8.26,8.26,0,0,1,71.46,79.06Z" fill-rule="evenodd"/>
  <path d="M80.41,82.49v4H78.15l-.06-1.18a2.83,2.83,0,0,1-1.12,1,3.69,3.69,0,0,1-1.58.31,2.55,2.55,0,0,1-1.84-.66,2.32,2.32,0,0,1-.69-1.76,2,2,0,0,1,1-1.87,6,6,0,0,1,3.07-.61h1v-.1a1.09,1.09,0,0,0-.48-1,2.42,2.42,0,0,0-1.39-.33,3.85,3.85,0,0,0-1,.16,8.22,8.22,0,0,0-1.23.46l0-1.72a6.39,6.39,0,0,1,1.38-.4,9.44,9.44,0,0,1,1.63-.13,3.59,3.59,0,0,1,2.73.93A4.15,4.15,0,0,1,80.41,82.49Zm-2.9.52a4,4,0,0,0-1.65.25.89.89,0,0,0-.23,1.44,1,1,0,0,0,.72.25,1.53,1.53,0,0,0,1.16-.48A1.73,1.73,0,0,0,78,83.23V83Z" fill-rule="evenodd"/>
  <path d="M87.92,80.09V78.86h2.41v6.59a4.14,4.14,0,0,1-1.13,3.17,4.75,4.75,0,0,1-3.37,1.06,10.1,10.1,0,0,1-1.61-.12,7.57,7.57,0,0,1-1.44-.38l.14-1.94a6.07,6.07,0,0,0,1.27.47,5.3,5.3,0,0,0,1.27.16,2.53,2.53,0,0,0,1.71-.52,1.86,1.86,0,0,0,.59-1.48v-.71a3.36,3.36,0,0,1-1.13.95,3.17,3.17,0,0,1-1.42.31,3.08,3.08,0,0,1-2.43-1.06,4.65,4.65,0,0,1,0-5.62,3.17,3.17,0,0,1,2.49-1.08,3,3,0,0,1,1.46.35A3.57,3.57,0,0,1,87.92,80.09Zm-1.79.52a1.38,1.38,0,0,0-1.13.53,2.15,2.15,0,0,0-.43,1.39A2.12,2.12,0,0,0,85,83.92a1.38,1.38,0,0,0,1.13.52,1.4,1.4,0,0,0,1.13-.52,2.1,2.1,0,0,0,.43-1.38,2.13,2.13,0,0,0-.43-1.39A1.39,1.39,0,0,0,86.12,80.61Z" fill-rule="evenodd"/>
  <path d="M97.29,81.9a2,2,0,0,0-.49-1.2,1.38,1.38,0,0,0-1-.44,1.35,1.35,0,0,0-1,.44,2.06,2.06,0,0,0-.49,1.2Zm2.3.9v.64H94.26a1.55,1.55,0,0,0,.64,1.15,2.55,2.55,0,0,0,1.52.4,5,5,0,0,0,1.21-.16,7.08,7.08,0,0,0,1.31-.48v1.86a7.49,7.49,0,0,1-1.33.35,8.71,8.71,0,0,1-1.44.12,4.56,4.56,0,0,1-3.25-1.1,4,4,0,0,1-1.17-3,3.75,3.75,0,0,1,1.08-2.82,4,4,0,0,1,2.91-1,3.71,3.71,0,0,1,2.85,1.08A4.32,4.32,0,0,1,99.6,82.8Z" fill-rule="evenodd"/>
</svg>
