<svg data-name="Layer 1" xmlns="http://www.w3.org/2000/svg" viewBox="0 0 574.03888 246.76418" width="574.03888" height="246.76418"><title>Schultz Sweets</title>
  <g transform="translate(-19.60844,-20.192768)">
    <path
       d="M 100.09453,264.25063 C 89.571499,259.13414 88.826869,257.85502 79.573582,229 77.016143,221.025 70.496529,201 65.085551,184.5 59.674574,168 51.306723,142.35 46.490328,127.5 41.673932,112.65 33.68798,88.35 28.743767,73.5 21.298366,51.137653 19.73245,45.355535 19.627145,39.837029 19.514531,33.935546 19.84286,32.688572 22.5,28.926088 c 1.65,-2.336384 4.8,-5.188047 7,-6.337029 L 33.5,20.5 304.86637,20.242791 c 176.73917,-0.167519 272.64823,0.08796 275.04241,0.732646 4.6518,1.252599 9.83396,6.250756 12.35596,11.917234 2.75829,6.19735 2.2146,9.073438 -9.37762,49.607329 -23.36207,81.68888 -39.98852,139.9817 -43.92433,154 -2.31629,8.25 -4.81869,16.19233 -5.56089,17.64963 -2.0163,3.95896 -8.60074,9.16791 -14.06432,11.12628 -4.53274,1.62471 -17.72419,1.72985 -209.33758,1.66847 l -204.5,-0.0655 -5.40547,-2.62824 z m 32.31244,-46.21526 c 5.36533,-2.0399 3.9878,-8.99302 -2.86027,-14.43734 -2.78834,-2.21677 -3.57897,-3.51541 -3.34846,-5.5 0.44459,-3.82774 4.21991,-4.07849 6.16066,-0.4092 1.23063,2.3267 1.59961,2.52304 2.14099,1.13931 0.35977,-0.91952 0.15363,-2.60702 -0.45807,-3.75 -1.58506,-2.96171 -8.50408,-2.95143 -10.09167,0.015 -1.67643,3.13245 -0.50338,6.01618 4.51993,11.11147 4.85417,4.92372 5.69995,8.09884 2.59937,9.75822 C 128.90093,217.12339 126,215.05326 126,212.34524 c 0,-0.83155 -0.5625,-1.31522 -1.25,-1.07483 -1.78074,0.62266 -0.99887,3.92107 1.41742,5.97959 2.37918,2.02691 2.8261,2.08316 6.23955,0.78537 z M 208.48593,213.75 c 0.37049,-2.8875 1.04279,-6.825 1.49401,-8.75 1.87118,-7.98293 2.09249,-12 0.66109,-12 -0.98138,0 -1.58576,2.06169 -2.08266,7.10438 -0.38502,3.90741 -1.05448,8.06252 -1.48769,9.23358 -0.76547,2.06926 -0.80333,2.07336 -1.3451,0.14562 C 205.41898,208.39261 204.873,205.25 204.5123,202.5 203.50676,194.8338 202.90437,193 201.39159,193 200.62622,193 200,193.96062 200,195.1347 200,198.81037 197.68965,210 196.93072,210 c -0.39796,0 -1.29263,-3.825 -1.98816,-8.5 -0.78003,-5.24304 -1.72449,-8.5 -2.46484,-8.5 -0.87292,0 -0.97855,1.15907 -0.38732,4.25 0.44712,2.3375 1.30722,7.4099 1.91134,11.272 1.10273,7.04965 2.3716,10.438 3.49001,9.31958 0.33027,-0.33027 1.31775,-4.50673 2.1944,-9.28101 0.87664,-4.77429 1.92982,-8.31603 2.34039,-7.87054 0.41057,0.44548 1.26708,3.95997 1.90336,7.80997 0.63628,3.85 1.39268,7.7875 1.68088,8.75 0.97626,3.26042 2.19868,1.77234 2.87515,-3.5 z M 281,217.3865 c 0,-1.22396 -0.72428,-1.5072 -3,-1.17319 -2.93894,0.43134 -3,0.35224 -3,-3.8865 0,-2.37975 -0.1125,-4.66431 -0.25,-5.07681 -0.1375,-0.4125 0.9875,-0.89239 2.5,-1.06642 1.5125,-0.17403 2.75,-0.76686 2.75,-1.31739 0,-0.55053 -0.7875,-0.75591 -1.75,-0.45641 -2.88639,0.89818 -3.92279,-0.64381 -3.46796,-5.15978 0.39507,-3.92272 0.65096,-4.25 3.323,-4.25 1.59223,0 2.89496,-0.45 2.89496,-1 0,-0.55 -2.1375,-0.99933 -4.75,-0.99852 l -4.75,0.001 0.13864,9.24852 c 0.25552,17.04581 -0.12136,15.5773 4.11136,16.02005 2.0625,0.21575 4.0875,0.46791 4.5,0.56037 0.4125,0.0925 0.75,-0.55797 0.75,-1.4454 z m 75,0 c 0,-1.22396 -0.72428,-1.5072 -3,-1.17319 -2.93894,0.43134 -3,0.35224 -3,-3.8865 0,-2.37975 -0.1125,-4.66431 -0.25,-5.07681 -0.1375,-0.4125 0.9875,-0.89239 2.5,-1.06642 3.77931,-0.43486 3.47899,-2.18358 -0.375,-2.18358 -2.96667,0 -3.09333,-0.15833 -2.5,-3.125 0.34375,-1.71875 0.625,-3.74375 0.625,-4.5 0,-0.86111 1.12121,-1.375 3,-1.375 1.65,0 3,-0.45 3,-1 0,-0.55 -2.14576,-1 -4.76836,-1 h -4.76836 l 0.10415,10.25 c 0.15765,15.51407 -0.10435,14.57311 4.18257,15.02153 2.0625,0.21575 4.0875,0.46791 4.5,0.56037 0.4125,0.0925 0.75,-0.55797 0.75,-1.4454 z m 146.75,-1.13236 c 2.49737,-3.26936 0.61706,-7.58814 -5.5535,-12.75553 -2.45385,-2.05491 -3.22544,-3.43708 -3,-5.37397 0.40804,-3.50574 3.60135,-4.0441 5.90135,-0.99492 2.22966,2.95592 3.68712,1.70552 1.90134,-1.63123 C 500.93364,193.50749 499.89103,193 496.8662,193 c -7.49295,0 -7.6501,6.81223 -0.31468,13.64157 4.67564,4.35306 5.63342,7.59592 2.7243,9.22395 C 496.95081,217.16666 494,215.49766 494,212.88148 c 0,-1.13658 -0.52852,-1.87197 -1.1875,-1.65231 -2.21414,0.73804 -1.96953,2.70471 0.66396,5.3382 2.04675,2.04675 3.21823,2.48104 5.32386,1.97367 1.48483,-0.35778 3.26218,-1.38688 3.94968,-2.2869 z M 427,206.5 V 195 h 2.5 c 1.375,0 2.5,-0.45 2.5,-1 0,-0.5641 -2.83333,-1 -6.5,-1 -3.66667,0 -6.5,0.4359 -6.5,1 0,0.55 1.125,1 2.5,1 h 2.5 v 11.5 c 0,9.55556 0.25362,11.5 1.5,11.5 1.24638,0 1.5,-1.94444 1.5,-11.5 z M 142.3204,172.50476 c 14.97923,-3.90159 21.84627,-11.43984 21.84627,-23.9816 0,-8.22553 -4.73255,-15.29501 -15.62167,-23.33564 -2.72524,-2.01235 -6.16653,-4.34028 -7.6473,-5.17317 -1.48077,-0.83289 -11.00862,-6.16415 -21.173,-11.84724 -11.08744,-6.1992 -20.029697,-11.92023 -22.352696,-14.300708 -3.660608,-3.751184 -3.870824,-4.306268 -3.850395,-10.167107 0.01917,-5.500973 0.453541,-6.848502 3.856052,-11.962576 7.999919,-12.024103 26.383469,-24.281584 40.266029,-26.847915 4.57122,-0.845036 5.96361,-0.683147 10.34854,1.203197 3.01365,1.296439 6.7777,4.082727 9.28944,6.87639 2.32255,2.58323 4.79377,4.506462 5.49161,4.273849 1.98454,-0.661513 4.44871,-6.221635 3.83718,-8.658165 -0.6046,-2.40892 -5.86358,-5.376 -14.4333,-8.14318 -13.5337,-4.370053 -32.1272,2.044292 -48.54827,16.748071 -8.071202,7.227131 -13.194376,14.944416 -15.332327,23.095829 -1.449177,5.52531 -1.506765,7.198056 -0.415662,12.073622 1.826402,8.161223 7.403075,13.483763 23.119099,22.065523 43.79697,23.91544 48,27.16193 48,37.07606 0,10.89585 -10.70003,17.5 -28.35345,17.5 -17.00829,0 -30.21236,-5.99709 -38.275103,-17.38397 l -2.042061,-2.88397 -2.664693,2.87375 c -4.965378,5.35494 -2.957397,8.04135 10.852856,14.51971 15.479091,7.26121 31.473681,9.59058 43.802851,6.37924 z m 71.65151,-4.08906 c 7.39171,-2.1951 11.85439,-5.24364 20.00528,-13.66597 l 7.01609,-7.24973 0.003,8.52749 c 0.004,9.48754 1.46867,12.97251 5.45308,12.97251 2.8126,0 3.55028,-1.64366 3.55028,-7.9106 0,-4.21333 0.6034,-5.52517 5.367,-11.66821 6.59633,-8.50652 12.19537,-17.59866 18.19992,-29.55443 2.51909,-5.01582 4.95248,-8.72527 5.40752,-8.24321 0.45504,0.48205 1.0286,9.65145 1.27456,20.37645 0.34538,15.05988 0.84363,20.63849 2.1882,24.5 5.66565,16.27135 13.68635,17.29417 27.63583,3.52419 4.19225,-4.13831 8.76166,-9.04663 10.15424,-10.9074 l 2.53198,-3.3832 2.31396,7.7946 c 3.99606,13.46075 10.67272,18.11177 20.25344,14.10869 7.54299,-3.15167 15.77286,-16.33477 21.31077,-34.13688 l 2.79973,-9 0.69999,12.08362 c 1.55945,26.92024 4.94991,33.93025 15.46127,31.96719 3.17028,-0.59207 5.63539,-2.48107 13.15159,-10.07802 l 9.25,-9.34938 0.01,3.6883 c 0.005,2.02856 1.08685,6.00153 2.40327,8.82882 1.936,4.15792 3.08168,5.36764 5.9937,6.32869 7.11577,2.34842 15.38801,-1.71893 25.51616,-12.54595 3.30476,-3.5328 6.1861,-6.42327 6.40297,-6.42327 0.21688,0 0.65061,2.48313 0.96384,5.51808 1.05654,10.2369 6.79926,15.49386 15.20326,13.91726 6.79691,-1.27511 19.93237,-12.72924 26.53221,-23.13609 5.18007,-8.16812 2.71906,-12.05739 -2.56225,-4.04925 -6.6658,10.10749 -17.84125,20.70465 -23.21658,22.01521 -1.37935,0.3363 -3.12512,-0.15592 -4.5,-1.26878 -2.55578,-2.0687 -2.4501,0.74998 -1.99635,-53.24643 L 459,79 h 27.44098 c 15.09254,0 27.66285,-0.358986 27.93402,-0.797746 0.27117,-0.43876 0.0897,-1.45126 -0.40336,-2.25 -0.73932,-1.19776 -5.52117,-1.504093 -27.28733,-1.74807 l -26.39094,-0.295815 -0.70183,-14.179248 c -0.45572,-9.207125 -1.12082,-14.44562 -1.89668,-14.938872 -0.65717,-0.417793 -2.87033,-0.766514 -4.91813,-0.774936 L 449.05347,44 448.77673,58.75 448.5,73.5 437.25,73.782751 C 428.06982,74.013481 426,74.340006 426,75.557502 426,77.917956 430.42093,79 440.0651,79 H 449 v 30.06982 30.06983 l -3.14142,4.5659 c -4.78322,6.95216 -15.18802,17.11633 -19.26565,18.82007 -4.65715,1.94588 -7.15323,0.72637 -8.50052,-4.1531 -0.66082,-2.39329 -0.65278,-22.73493 0.0239,-60.554205 0.73384,-41.011691 0.71395,-57.31787 -0.0711,-58.263772 -0.59957,-0.722433 -2.42511,-1.580511 -4.05676,-1.906841 C 407.63242,36.376484 408,33.193933 408,89.49698 v 51.283 l -4.34115,5.86001 c -9.86434,13.31564 -18.25037,18.44625 -21.54019,13.1784 -2.90311,-4.64862 -3.41517,-9.2054 -4.00699,-35.65792 -0.60772,-27.162953 -0.62687,-27.351833 -2.96583,-29.244639 -1.29479,-1.047811 -2.69798,-1.692623 -3.1182,-1.432916 -0.42021,0.259708 -1.07719,2.832944 -1.45994,5.718303 -1.38759,10.460102 -8.48455,35.723692 -12.07503,42.984362 -10.19875,20.62392 -19.54927,25.2973 -24.44333,12.21675 -4.70108,-12.56475 -5.2103,-43.46784 -0.94379,-57.27542 2.22161,-7.189754 2.23144,-7.407329 0.39523,-8.75 C 332.46511,87.619609 329.91412,87 327.83192,87 c -6.71841,0 -7.00472,1.226775 -6.74271,28.89151 l 0.2276,24.03137 -2.82412,4.28856 c -3.71415,5.64011 -13.6651,15.20312 -17.45215,16.77177 -7.40391,3.0668 -11.081,-2.06752 -11.78266,-16.45212 -0.24228,-4.9671 0.0463,-12.63109 0.64121,-17.03109 2.49226,-18.43157 3.35609,-28.347126 2.69801,-30.969127 C 291.64405,92.73362 286.70658,88 283.69885,88 c -2.09919,0 -2.78871,0.905818 -4.75754,6.25 -5.89041,15.98888 -15.47003,33.75123 -24.4163,45.27227 L 250,145.34958 V 92.365921 c 0,-41.77235 -0.27384,-53.358159 -1.29414,-54.753503 -0.909,-1.24313 -2.32262,-1.672016 -4.75,-1.44113 L 240.5,36.5 l 0.33726,51.199063 0.33727,51.199067 -3.69536,5.56729 C 229.85407,155.95312 216.65934,165 207.52981,165 c -6.31664,0 -10.50247,-1.98186 -14.80688,-7.01059 -5.85099,-6.83556 -7.2236,-12.25273 -7.21872,-28.48941 0.004,-13.12842 0.18086,-14.41794 2.84167,-20.71335 1.5606,-3.69234 4.63445,-8.75484 6.83078,-11.250001 C 198.58299,93.666846 199.72266,93 202.93,93 c 4.87064,0 6.76638,2.154578 8.2069,9.32746 0.88255,4.39456 1.54809,5.67254 2.9541,5.67254 2.90187,0 6.82205,-2.15068 7.43387,-4.07835 0.95457,-3.00759 -2.16399,-8.647683 -6.53048,-11.810753 -5.46497,-3.958803 -11.19388,-4.776237 -18.52908,-2.643835 -7.45895,2.168373 -14.79895,9.321637 -19.55805,19.060458 C 173.54349,115.411 173.5,115.67232 173.5,129 c 0,13.06694 0.10025,13.70851 3.1252,20 4.95077,10.29694 12.38474,16.79978 22.3748,19.57229 6.16988,1.71231 8.77022,1.68512 14.97191,-0.15659 z M 534.5,168.9873 c 13.62354,-1.30937 15.5,-1.78874 15.5,-3.95977 0,-2.63315 -1.8682,-2.98617 -10.12778,-1.9138 -6.86414,0.89119 -38.34589,0.2266 -40.20089,-0.84866 -0.45576,-0.26419 3.15179,-4.5944 8.01679,-9.62271 17.61706,-18.20839 40.42192,-42.50582 43.33393,-46.17011 1.63787,-2.06099 2.97795,-4.72619 2.97795,-5.92266 0,-3.041767 -5.0448,-7.544778 -9.60469,-8.573202 -2.10539,-0.474841 -15.29904,-0.946041 -29.31923,-1.04711 l -25.49125,-0.183762 -0.82526,2.475764 c -0.4648,1.394401 -0.41025,3.567303 0.12489,4.974821 l 0.95014,2.499059 6.3327,-1.409222 c 6.74034,-1.499932 44.49551,-3.013043 47.39726,-1.899537 1.35525,0.520057 -1.32231,3.722439 -12.86378,15.385179 -23.19144,23.43514 -34.44034,35.83489 -38.56842,42.51426 -2.80765,4.54288 -2.31959,7.68077 1.84193,11.84229 L 496.84615,170 510.67308,169.9742 C 518.27788,169.96001 529,169.5159 534.5,168.9873 Z"/>
  </g>
</svg>
