<?xml version="1.0" encoding="UTF-8" standalone="no"?><!DOCTYPE svg PUBLIC "-//W3C//DTD SVG 1.1//EN" "http://www.w3.org/Graphics/SVG/1.1/DTD/svg11.dtd"><svg width="100%" height="100%" viewBox="0 0 1000 1000" version="1.1" xmlns="http://www.w3.org/2000/svg" xmlns:xlink="http://www.w3.org/1999/xlink" xml:space="preserve" xmlns:serif="http://www.serif.com/" style="fill-rule:evenodd;clip-rule:evenodd;stroke-linejoin:round;stroke-miterlimit:2;"><rect id="Logo" x="-0" y="0" width="1000" height="1000" style="fill:none;"/><clipPath id="_clip1"><rect x="-0" y="0" width="1000" height="1000"/></clipPath><g clip-path="url(#_clip1)"><g id="Layer-1" serif:id="Layer 1"><g><path d="M500,-0c276.143,-0 500,223.857 500,500c0,276.143 -223.857,500 -500,500c-276.143,-0 -500,-223.857 -500,-500c0,-276.143 223.857,-500 500,-500Zm0,33.732c-62.945,0 -124.006,12.322 -181.487,36.635c-55.525,23.485 -105.39,57.109 -148.214,99.932c-42.823,42.824 -76.447,92.689 -99.932,148.214c-24.313,57.481 -36.635,118.542 -36.635,181.487c0,62.945 12.322,124.006 36.635,181.487c23.485,55.525 57.109,105.39 99.932,148.214c42.824,42.823 92.689,76.447 148.214,99.932c57.481,24.313 118.542,36.635 181.487,36.635c62.945,-0 124.006,-12.322 181.487,-36.635c55.525,-23.485 105.39,-57.109 148.214,-99.932c42.823,-42.824 76.447,-92.689 99.932,-148.214c24.313,-57.481 36.635,-118.542 36.635,-181.487c-0,-62.945 -12.322,-124.006 -36.635,-181.487c-23.485,-55.525 -57.109,-105.39 -99.932,-148.214c-42.824,-42.823 -92.689,-76.447 -148.214,-99.932c-57.481,-24.313 -118.542,-36.635 -181.487,-36.635Z"/><path d="M500,53.863c246.23,-0 446.137,199.907 446.137,446.137c0,246.23 -199.907,446.137 -446.137,446.137c-246.23,0 -446.137,-199.907 -446.137,-446.137c-0,-246.23 199.907,-446.137 446.137,-446.137Zm-142.543,722.384c5.197,-0.238 9.403,-0.357 12.616,-0.357l19.995,0.357c5.355,-0 9.818,-0.665 13.389,-1.994c3.57,-1.329 6.734,-3.124 9.491,-5.385c2.757,-2.262 5.009,-4.989 6.754,-8.183c1.746,-3.193 2.619,-6.754 2.619,-10.681c-0,-3.729 -0.853,-7.111 -2.559,-10.146c-1.706,-3.035 -3.977,-5.267 -6.814,-6.695c-2.836,-1.428 -7.865,-2.579 -15.085,-3.451c6.03,-1.667 9.918,-2.996 11.664,-3.987c2.935,-1.627 5.345,-3.908 7.23,-6.844c1.884,-2.935 2.826,-6.109 2.826,-9.521c0,-3.174 -0.823,-6.04 -2.469,-8.599c-1.647,-2.559 -4.245,-4.513 -7.796,-5.861c-3.55,-1.349 -8.599,-2.024 -15.144,-2.024c-1.746,0 -5.475,0.119 -11.188,0.357c-2.261,0.08 -5.375,0.119 -9.343,0.119c-4.006,0 -7.359,-0.019 -10.056,-0.059l-8.212,-0.238c-0.952,-0.04 -1.865,-0.06 -2.738,-0.06l0,4.94c5.118,0.317 8.093,0.753 8.926,1.309c0.397,0.238 0.695,0.654 0.893,1.249c0.317,0.952 0.536,4.761 0.655,11.426c0.198,8.648 0.297,15.016 0.297,19.102c0,15.273 -0.079,25.806 -0.238,31.598c-0.079,2.817 -0.238,5.197 -0.476,7.141c-1.388,1.23 -3.134,2.46 -5.237,3.69l0,2.797Zm22.554,-48.916l-0,-8.509l0.119,-9.224c0.04,-3.729 0.178,-7.022 0.416,-9.878c2.103,-0.318 4.444,-0.476 7.022,-0.476c3.571,-0 6.249,0.426 8.034,1.279c1.785,0.853 3.233,2.281 4.344,4.285c1.111,2.003 1.666,4.433 1.666,7.289c0,2.817 -0.486,5.306 -1.458,7.469c-0.972,2.162 -2.172,3.788 -3.6,4.879c-1.428,1.091 -3.293,1.855 -5.594,2.291c-2.301,0.437 -4.8,0.655 -7.498,0.655l-3.451,-0.06Zm0.238,42.251c-0.079,-0.833 -0.119,-1.349 -0.119,-1.547l-0.119,-7.082l-0,-27.135c1.428,-0.159 2.955,-0.238 4.582,-0.238c4.602,-0 8.212,0.545 10.83,1.636c2.619,1.091 4.721,2.966 6.308,5.624c1.587,2.658 2.38,6.129 2.38,10.413c0,6.03 -1.517,10.662 -4.552,13.895c-3.035,3.234 -7.012,4.85 -11.931,4.85c-3.61,0 -6.07,-0.139 -7.379,-0.416Zm-290.893,-99.832l821.288,-0c21.471,-52.337 33.317,-109.665 33.317,-169.75c-0,-60.085 -11.846,-117.413 -33.317,-169.75l-821.288,0c-21.471,52.337 -33.317,109.665 -33.317,169.75c0,60.085 11.846,117.413 33.317,169.75Zm93.149,28.185l6.546,0.416c0.992,0.198 1.676,0.417 2.053,0.655c0.377,0.238 0.645,0.515 0.803,0.833c0.278,0.516 0.466,1.368 0.566,2.559c0.099,1.19 0.188,4.185 0.267,8.985l0.238,11.188l0,21.006c0,7.776 -0.218,14.837 -0.654,21.185c-0.159,2.34 -0.377,3.788 -0.655,4.344c-0.198,0.396 -0.476,0.694 -0.833,0.892c-1.15,0.595 -3.927,0.933 -8.331,1.012l0,5.237c5.118,-0.238 10.493,-0.357 16.127,-0.357c5.117,-0 12.754,0.119 22.91,0.357l0,-5.237l-8.033,-0.536c-0.992,-0.158 -1.677,-0.386 -2.054,-0.684c-0.376,-0.298 -0.644,-0.645 -0.803,-1.041c-0.317,-0.913 -0.535,-3.095 -0.654,-6.546c-0.159,-5.951 -0.238,-11.703 -0.238,-17.257l-0,-22.554l0.178,-11.663c0.04,-4.761 0.159,-8.371 0.357,-10.831c2.737,-0.515 5.217,-0.773 7.439,-0.773c4.681,-0 8.331,1.368 10.949,4.106c2.618,2.737 3.927,6.823 3.927,12.258c0,5.197 -1.249,9.155 -3.749,11.872c-2.499,2.718 -5.673,4.076 -9.521,4.076c-0.635,0 -1.339,-0.069 -2.112,-0.208c-0.774,-0.139 -1.597,-0.347 -2.47,-0.625l-1.249,1.309c1.031,1.706 1.745,3.115 2.142,4.225c1.19,0.278 2.39,0.486 3.6,0.625c1.21,0.139 2.45,0.209 3.719,0.209c5.039,-0 9.769,-1.24 14.193,-3.72c4.423,-2.479 7.676,-5.643 9.759,-9.491c2.083,-3.848 3.124,-8.014 3.124,-12.497c0,-4.483 -1.081,-8.132 -3.243,-10.949c-2.162,-2.817 -4.751,-4.761 -7.766,-5.832c-3.015,-1.071 -7.121,-1.607 -12.318,-1.607l-26.6,0.536l-17.614,-0.417l0,4.94Zm73.908,-0l7.736,0.833c0.794,0.595 1.29,1.11 1.488,1.547c0.357,0.793 0.595,2.063 0.714,3.808c0.238,4.444 0.357,9.442 0.357,14.996l0,15.115l-0.059,11.426c-0,6.268 0.099,10.116 0.297,11.544c0.278,2.301 1.052,4.691 2.321,7.171c1.27,2.479 3.114,4.721 5.534,6.724c2.42,2.004 5.535,3.6 9.343,4.791c5.237,1.626 10.87,2.439 16.9,2.439c5.158,0 9.7,-0.555 13.627,-1.666c3.928,-1.111 7.32,-2.757 10.176,-4.939c2.857,-2.182 5.068,-4.622 6.635,-7.319c1.567,-2.698 2.609,-5.951 3.125,-9.76c0.515,-3.808 0.773,-7.498 0.773,-11.068l0,-13.984c0,-4.126 0.139,-9.76 0.417,-16.901c0.277,-7.14 0.565,-11.157 0.863,-12.05c0.297,-0.892 0.684,-1.497 1.16,-1.815c0.952,-0.595 3.273,-0.892 6.962,-0.892l0,-4.94l-13.21,0.357c-0.714,0.04 -1.25,0.06 -1.607,0.06c-1.349,-0 -5.614,-0.139 -12.794,-0.417l-0,4.94c4.403,0.119 7.26,0.515 8.569,1.19c0.635,0.317 1.091,0.793 1.369,1.428c0.436,1.031 0.714,4.046 0.833,9.045c0.039,2.301 0.059,8.688 0.059,19.161l0,12.14c0,8.45 -0.694,14.183 -2.083,17.198c-1.388,3.015 -3.719,5.465 -6.992,7.349c-3.273,1.884 -7.666,2.827 -13.181,2.827c-4.8,-0 -8.757,-0.705 -11.871,-2.113c-3.115,-1.408 -5.426,-3.253 -6.933,-5.534c-1.508,-2.281 -2.44,-5.286 -2.797,-9.016c-0.159,-1.705 -0.238,-6.188 -0.238,-13.448l-0.059,-6.963l-0,-13.805c-0,-8.371 0.277,-13.786 0.833,-16.246c0.198,-1.032 0.595,-1.726 1.19,-2.083c1.15,-0.754 3.868,-1.13 8.152,-1.13l0,-4.94l-2.201,0.06l-8.034,0.178l-8.034,0.119l-19.34,-0.357l0,4.94Z"/><g><rect x="380.305" y="352.013" width="63.112" height="78.346"/><rect x="456.474" y="352.013" width="63.112" height="78.346"/><rect x="532.644" y="352.013" width="63.112" height="78.346"/><rect x="608.814" y="352.013" width="63.112" height="78.346"/><rect x="684.984" y="352.013" width="63.112" height="78.346"/><rect x="761.153" y="352.013" width="63.112" height="78.346"/><rect x="837.323" y="352.013" width="63.112" height="78.346"/><rect x="99.565" y="352.013" width="52.231" height="52.231"/><rect x="164.853" y="352.013" width="52.231" height="52.231"/><rect x="230.141" y="352.013" width="52.231" height="52.231"/><rect x="295.43" y="352.013" width="52.231" height="52.231"/><rect x="99.565" y="417.301" width="52.231" height="52.231"/><rect x="164.853" y="417.301" width="52.231" height="52.231"/><rect x="230.141" y="417.301" width="52.231" height="52.231"/><rect x="295.43" y="417.301" width="52.231" height="52.231"/><rect x="99.565" y="482.59" width="52.231" height="52.231"/><rect x="164.853" y="482.59" width="52.231" height="52.231"/><rect x="230.141" y="482.59" width="52.231" height="52.231"/><rect x="295.43" y="482.59" width="52.231" height="52.231"/></g><g><path d="M165.716,569.116l-4.999,0c-0.079,-4.602 -0.277,-7.855 -0.595,-9.759c-1.23,-1.746 -3.362,-3.293 -6.397,-4.642c-3.035,-1.349 -6.437,-2.023 -10.205,-2.023c-5.396,-0 -9.571,1.359 -12.527,4.076c-2.955,2.718 -4.433,5.901 -4.433,9.551c0.04,2.618 0.476,4.741 1.309,6.367c0.833,1.627 2.023,2.916 3.571,3.868c1.547,0.953 3.828,1.825 6.843,2.619c2.301,0.476 5.504,1.071 9.61,1.785c4.106,0.714 6.774,1.21 8.004,1.488c3.214,0.833 5.812,1.835 7.796,3.005c1.983,1.17 3.56,2.519 4.731,4.046c1.17,1.528 2.132,3.452 2.886,5.773c0.753,2.32 1.13,4.929 1.13,7.825c0,5.078 -1.051,9.541 -3.154,13.389c-1.586,2.896 -3.788,5.544 -6.605,7.944c-2.817,2.4 -5.713,4.196 -8.688,5.386c-4.761,1.904 -10.473,2.856 -17.138,2.856c-4.88,0 -9.224,-0.456 -13.032,-1.369c-3.809,-0.912 -7.994,-2.479 -12.557,-4.701c1.23,-4.522 1.865,-11.405 1.905,-20.649l4.998,0c-0.079,2.857 0.139,6.407 0.655,10.652c1.507,2.46 4.086,4.622 7.736,6.486c3.65,1.865 7.637,2.797 11.961,2.797c3.769,0 7.131,-0.664 10.087,-1.993c2.955,-1.329 5.097,-3.164 6.426,-5.505c1.329,-2.34 1.994,-4.998 1.994,-7.974c-0,-2.499 -0.466,-4.641 -1.399,-6.427c-0.932,-1.785 -2.39,-3.213 -4.373,-4.284c-1.984,-1.071 -5.475,-2.182 -10.474,-3.333c-7.18,-1.507 -11.901,-2.598 -14.163,-3.272c-3.411,-1.032 -6.159,-2.52 -8.241,-4.463c-2.083,-1.944 -3.64,-4.295 -4.672,-7.052c-1.031,-2.757 -1.547,-5.723 -1.547,-8.897c0,-4.443 0.932,-8.539 2.797,-12.288c1.865,-3.749 4.324,-6.655 7.379,-8.718c3.055,-2.063 6.506,-3.54 10.354,-4.433c3.848,-0.893 7.796,-1.339 11.842,-1.339c4.205,0 8.282,0.377 12.229,1.131c3.947,0.753 7.369,1.844 10.265,3.273l0.476,1.428c-0.555,2.578 -0.962,5.108 -1.22,7.587c-0.258,2.479 -0.446,5.742 -0.565,9.789Z" style="fill-rule:nonzero;"/><path d="M250.157,625.886l0,4.701c-5.95,-0.158 -9.838,-0.238 -11.663,-0.238c-1.23,0 -5.277,0.08 -12.14,0.238l-0.595,-0.595l0.833,-12.437c0.119,-2.182 0.179,-4.78 0.179,-7.795l-0,-11.545c-0,-5.395 -0.903,-9.134 -2.708,-11.217c-1.805,-2.083 -4.393,-3.124 -7.766,-3.124c-2.459,-0 -4.601,0.615 -6.426,1.845c-1.825,1.229 -3.214,2.896 -4.166,4.998c-0.357,0.754 -0.535,2.381 -0.535,4.88l-0,7.498c-0,3.094 0.059,7.032 0.178,11.812c0.119,4.781 0.258,7.607 0.417,8.48c0.119,0.476 0.277,0.833 0.476,1.071c0.198,0.238 0.476,0.436 0.833,0.595c0.595,0.278 1.507,0.476 2.737,0.595l4.582,0.238l0,4.701c-10.83,-0.277 -16.86,-0.416 -18.09,-0.416l-14.758,0.416l-0,-4.701c3.531,-0.158 5.604,-0.317 6.219,-0.476c0.614,-0.158 1.071,-0.387 1.368,-0.684c0.298,-0.298 0.526,-0.724 0.685,-1.28c0.277,-1.229 0.476,-4.998 0.595,-11.306c0.119,-6.308 0.178,-11.921 0.178,-16.841l0,-19.28c0,-6.387 -0.159,-12.179 -0.476,-17.376c-0.119,-2.658 -0.297,-4.225 -0.535,-4.701c-0.159,-0.278 -0.377,-0.496 -0.655,-0.655c-0.436,-0.278 -1.17,-0.496 -2.202,-0.655c-0.674,-0.119 -2.4,-0.238 -5.177,-0.357l-0,-4.403c5.594,-0.675 9.65,-1.29 12.169,-1.845c2.519,-0.555 6.139,-1.587 10.86,-3.094l1.31,0.714l-0.476,14.163c-0.159,7.18 -0.238,13.845 -0.238,19.994l-0,5.713l10.473,-8.688c2.777,-1.071 5.653,-1.607 8.628,-1.607c3.135,0 5.921,0.506 8.361,1.517c2.44,1.012 4.354,2.351 5.743,4.017c1.388,1.666 2.37,3.481 2.945,5.445c0.576,1.964 0.863,4.533 0.863,7.706c0,1.072 -0.079,4.166 -0.238,9.284c-0.119,3.768 -0.178,6.863 -0.178,9.283c-0,7.339 0.139,11.643 0.416,12.913c0.199,0.873 0.635,1.488 1.309,1.845c0.675,0.357 2.896,0.575 6.665,0.654Z" style="fill-rule:nonzero;"/><path d="M311.391,626.124l-0,4.463c-4.563,-0.198 -8.609,-0.297 -12.14,-0.297c-3.332,-0 -6.566,0.099 -9.7,0.297l-0.535,-0.654l0.535,-7.796c-1.428,0.913 -5.633,4.047 -12.615,9.402c-1.786,0.397 -3.491,0.596 -5.118,0.596c-4.324,-0 -7.706,-1.27 -10.146,-3.809c-2.44,-2.539 -3.66,-6.189 -3.66,-10.949c0,-3.214 0.546,-5.852 1.637,-7.915c1.091,-2.063 2.261,-3.58 3.511,-4.552c1.249,-0.972 3.183,-1.914 5.802,-2.827c6.268,-2.221 13.131,-3.967 20.589,-5.236c0.08,-4.721 -0.892,-8.312 -2.916,-10.771c-2.062,-2.46 -5.197,-3.69 -9.402,-3.69c-1.706,0 -3.332,0.218 -4.879,0.655c-0.675,0.198 -1.468,0.595 -2.381,1.19l-2.499,6.01l-4.047,-0.892l0.358,-7.677c2.935,-1.983 5.732,-3.709 8.39,-5.177c2.658,-1.468 4.523,-2.361 5.594,-2.678c1.468,-0.436 3.531,-0.654 6.189,-0.654c4.324,-0 7.884,0.624 10.681,1.874c2.797,1.25 4.86,2.727 6.189,4.433c1.329,1.706 2.241,3.531 2.737,5.475c0.496,1.944 0.744,4.404 0.744,7.379c0,1.269 -0.099,4.582 -0.297,9.938c-0.119,3.57 -0.179,6.486 -0.179,8.747c0,7.062 0.198,11.346 0.595,12.854c0.159,0.714 0.476,1.19 0.952,1.428c0.635,0.318 2.639,0.595 6.011,0.833Zm-21.84,-24.279c-3.372,0.714 -6.456,1.577 -9.253,2.589c-2.797,1.011 -4.731,2.261 -5.802,3.749c-1.071,1.487 -1.607,3.362 -1.607,5.623c0,2.539 0.645,4.503 1.934,5.891c1.29,1.389 2.985,2.083 5.088,2.083c1.785,0 3.58,-0.515 5.386,-1.547c1.805,-1.031 3.223,-2.341 4.254,-3.927l0,-14.461Z" style="fill-rule:nonzero;"/><path d="M387.382,625.827l-0,4.76c-1.666,-0.119 -5.138,-0.178 -10.414,-0.178c-5.514,-0 -8.966,0.059 -10.354,0.178c-2.063,-3.491 -6.259,-8.837 -12.586,-16.037c-6.328,-7.2 -9.908,-11.118 -10.741,-11.753c-0.278,-0.238 -0.714,-0.377 -1.309,-0.416l-0,5.832c-0,2.896 0.119,6.803 0.357,11.723c0.119,2.221 0.277,3.57 0.476,4.046c0.119,0.317 0.337,0.575 0.654,0.774c0.437,0.317 1.19,0.555 2.262,0.714c0.476,0.079 2.34,0.198 5.593,0.357l0,4.76c-4.84,-0.277 -10.136,-0.416 -15.888,-0.416c-6.149,-0 -11.862,0.139 -17.139,0.416l0,-4.76c3.492,-0.159 5.545,-0.308 6.16,-0.447c0.614,-0.138 1.081,-0.357 1.398,-0.654c0.317,-0.298 0.536,-0.684 0.655,-1.161c0.317,-1.19 0.515,-4.423 0.595,-9.699c0.158,-7.181 0.238,-13.37 0.238,-18.567l-0,-19.28c-0,-6.387 -0.159,-12.179 -0.476,-17.376c-0.119,-2.658 -0.298,-4.225 -0.536,-4.701c-0.159,-0.278 -0.377,-0.496 -0.655,-0.655c-0.476,-0.278 -1.21,-0.496 -2.201,-0.655c-0.675,-0.119 -2.4,-0.238 -5.178,-0.357l0,-4.403c5.594,-0.675 9.651,-1.29 12.17,-1.845c2.519,-0.555 6.139,-1.587 10.86,-3.094l1.309,0.714l-0.416,12.913c-0.159,7.141 -0.238,14.321 -0.238,21.542l-0,21.66c1.269,-0.952 2.737,-2.182 4.403,-3.689c3.491,-3.174 6.387,-5.871 8.688,-8.093c0.833,-0.873 2.301,-2.341 4.404,-4.404c2.102,-2.063 3.868,-3.927 5.296,-5.593l-0,-3.333c3.57,0.08 7.181,0.099 10.83,0.06c1.587,-0 4.245,-0.02 7.974,-0.06l0,4.642l-6.248,0.416c-0.674,0.08 -1.329,0.278 -1.964,0.595c-1.19,0.596 -3.035,1.885 -5.534,3.868c-3.491,2.777 -5.594,4.503 -6.308,5.178c-0.714,0.674 -1.269,1.19 -1.666,1.547l-5.058,4.403c3.491,4.126 9.402,10.91 17.733,20.352c4.681,5.356 7.756,8.45 9.224,9.283c0.833,0.476 2.043,0.774 3.63,0.893Z" style="fill-rule:nonzero;"/><path d="M443.855,621.423l-2.619,5.832c-3.253,1.984 -6.605,3.451 -10.057,4.404c-2.578,0.674 -5.514,1.011 -8.807,1.011c-3.927,0 -7.389,-0.456 -10.384,-1.369c-2.995,-0.912 -5.554,-2.162 -7.676,-3.749c-2.123,-1.586 -3.987,-3.53 -5.594,-5.831c-1.607,-2.301 -2.767,-4.959 -3.481,-7.974c-0.714,-3.015 -1.071,-6.308 -1.071,-9.879c-0,-5.197 0.694,-9.838 2.082,-13.924c0.953,-2.857 2.063,-4.92 3.333,-6.189c0.793,-0.794 2.856,-2.281 6.189,-4.463c3.332,-2.182 5.752,-3.61 7.26,-4.285c2.777,-1.23 6.05,-1.844 9.818,-1.844c5.316,-0 9.68,1.11 13.092,3.332c3.412,2.222 5.822,5.058 7.23,8.51c1.409,3.451 2.113,7.636 2.113,12.556c-0,1.11 -0.04,2.182 -0.119,3.213c-0.992,0.317 -2.5,0.674 -4.523,1.071c-2.698,0.516 -4.522,0.794 -5.475,0.833c-2.975,0.238 -6.902,0.377 -11.782,0.417c-4.88,0.04 -7.577,0.079 -8.093,0.119c-0.516,0.04 -1.091,0.059 -1.726,0.059l-3.927,0c0.317,6.269 2.261,11.218 5.831,14.848c3.571,3.629 7.974,5.444 13.211,5.444c2.261,0 4.344,-0.247 6.248,-0.743c1.905,-0.496 4.404,-1.518 7.498,-3.065l1.429,1.666Zm-14.163,-24.636c0.158,-6.308 -0.695,-10.731 -2.559,-13.27c-1.904,-2.499 -4.364,-3.749 -7.379,-3.749c-3.094,-0 -5.653,1.309 -7.677,3.927c-2.062,2.658 -3.015,7.022 -2.856,13.092c2.341,0.357 6.248,0.536 11.723,0.536c3.491,-0 6.407,-0.179 8.748,-0.536Z" style="fill-rule:nonzero;"/><path d="M455.935,611.842l4.76,0c0.199,4.444 0.397,7.241 0.595,8.391c1.786,2.182 3.749,3.799 5.892,4.85c2.142,1.051 4.601,1.577 7.378,1.577c3.73,-0 6.586,-0.893 8.57,-2.678c1.983,-1.785 2.975,-3.947 2.975,-6.486c-0,-1.667 -0.327,-3.045 -0.982,-4.136c-0.654,-1.091 -1.974,-2.093 -3.957,-3.005c-1.547,-0.556 -4.513,-1.309 -8.897,-2.262c-4.383,-0.952 -7.706,-2.003 -9.967,-3.153c-2.261,-1.151 -4.027,-2.867 -5.296,-5.148c-1.27,-2.281 -1.904,-4.949 -1.904,-8.004c-0,-5.474 2.062,-10.027 6.188,-13.657c4.126,-3.63 10.057,-5.445 17.793,-5.445c3.213,0 6.169,0.278 8.867,0.834c2.697,0.555 5.137,1.388 7.319,2.499l0.179,0.595c-0.238,1.388 -0.417,2.797 -0.536,4.225c-0.119,1.428 -0.297,4.8 -0.535,10.116l-4.583,-0.059c-0.039,-0.437 -0.099,-1.171 -0.178,-2.202c-0.119,-1.785 -0.357,-3.511 -0.714,-5.177c-1.23,-1.587 -2.747,-2.777 -4.553,-3.571c-1.805,-0.793 -3.917,-1.19 -6.337,-1.19c-3.372,0 -5.981,0.754 -7.825,2.262c-1.845,1.507 -2.767,3.312 -2.767,5.415c-0,2.142 0.416,3.729 1.249,4.76c0.833,1.032 2.063,1.805 3.69,2.321c1.626,0.516 4.631,1.18 9.015,1.994c4.384,0.813 7.329,1.497 8.837,2.053c2.182,0.833 3.927,1.884 5.237,3.154c1.309,1.269 2.311,2.846 3.005,4.73c0.694,1.885 1.041,3.958 1.041,6.219c0,5.911 -2.291,10.89 -6.873,14.936c-4.582,4.047 -11.019,6.07 -19.31,6.07c-2.777,0 -5.475,-0.248 -8.093,-0.744c-2.619,-0.496 -5.812,-1.398 -9.581,-2.707l-0.655,-0.893c0.318,-3.055 0.516,-5.217 0.596,-6.486l0.357,-9.998Z" style="fill-rule:nonzero;"/><path d="M530.617,630.171l-0,22.018c-0,1.825 0.178,2.965 0.535,3.421c0.357,0.457 1.012,0.784 1.964,0.982c0.397,0.08 3.075,0.318 8.034,0.714l-0,4.701l-18.864,-0.416l-15.591,0.416l-0,-4.701c3.61,0 5.831,-0.158 6.664,-0.476c0.477,-0.158 0.863,-0.446 1.161,-0.863c0.297,-0.416 0.486,-0.922 0.565,-1.517c0.199,-1.587 0.377,-4.999 0.536,-10.235l0.178,-12.795l0,-27.552c0,-4.998 -0.079,-9.372 -0.238,-13.121c-0.158,-3.749 -0.436,-5.961 -0.833,-6.635c-0.278,-0.436 -0.694,-0.764 -1.25,-0.982c-0.555,-0.218 -2.816,-0.347 -6.783,-0.387l-0,-4.641c5.911,-0.635 10.374,-1.31 13.389,-2.024c3.015,-0.714 6.129,-1.785 9.343,-3.213l1.368,0.893l-0.178,9.997c0.595,-0.476 1.587,-1.289 2.975,-2.44l5.951,-4.88c0.397,-0.357 0.992,-0.912 1.785,-1.666c1.547,-0.635 2.846,-1.061 3.898,-1.279c1.051,-0.218 2.509,-0.327 4.374,-0.327c4.205,-0 7.597,0.595 10.175,1.785c3.69,1.706 6.725,4.354 9.105,7.944c2.38,3.59 3.571,7.964 3.571,13.121c-0,3.254 -0.437,6.487 -1.31,9.7c-0.872,3.214 -1.854,5.772 -2.945,7.677c-1.091,1.904 -2.252,3.491 -3.481,4.76c-0.913,0.952 -2.45,2.222 -4.612,3.809c-2.162,1.587 -4.156,3.134 -5.981,4.641c-1.825,1.508 -3.134,2.52 -3.927,3.035c-1.27,0.794 -2.48,1.349 -3.63,1.666c-1.587,0.477 -3.432,0.715 -5.534,0.715c-1.667,-0 -3.373,-0.159 -5.118,-0.477c-1.746,-0.317 -3.511,-0.773 -5.296,-1.368Zm-0,-11.426c1.825,1.865 3.729,3.263 5.712,4.196c1.984,0.932 4.047,1.398 6.189,1.398c2.857,0 5.386,-0.714 7.587,-2.142c2.202,-1.428 3.928,-3.829 5.178,-7.201c1.249,-3.372 1.874,-7.26 1.874,-11.663c0,-2.817 -0.317,-5.485 -0.952,-8.004c-0.635,-2.519 -1.508,-4.562 -2.618,-6.129c-1.111,-1.567 -2.629,-2.876 -4.553,-3.928c-1.924,-1.051 -4.016,-1.577 -6.278,-1.577c-2.182,0 -4.393,0.556 -6.635,1.667c-2.241,1.11 -4.076,2.519 -5.504,4.225l-0,29.158Z" style="fill-rule:nonzero;"/><path d="M633.327,621.423l-2.619,5.832c-3.253,1.984 -6.605,3.451 -10.056,4.404c-2.579,0.674 -5.515,1.011 -8.807,1.011c-3.928,0 -7.389,-0.456 -10.385,-1.369c-2.995,-0.912 -5.554,-2.162 -7.676,-3.749c-2.122,-1.586 -3.987,-3.53 -5.594,-5.831c-1.606,-2.301 -2.767,-4.959 -3.481,-7.974c-0.714,-3.015 -1.071,-6.308 -1.071,-9.879c-0,-5.197 0.694,-9.838 2.083,-13.924c0.952,-2.857 2.063,-4.92 3.332,-6.189c0.794,-0.794 2.857,-2.281 6.189,-4.463c3.332,-2.182 5.752,-3.61 7.26,-4.285c2.777,-1.23 6.05,-1.844 9.819,-1.844c5.316,-0 9.68,1.11 13.091,3.332c3.412,2.222 5.822,5.058 7.23,8.51c1.409,3.451 2.113,7.636 2.113,12.556c-0,1.11 -0.04,2.182 -0.119,3.213c-0.992,0.317 -2.499,0.674 -4.523,1.071c-2.697,0.516 -4.522,0.794 -5.474,0.833c-2.976,0.238 -6.903,0.377 -11.783,0.417c-4.879,0.04 -7.577,0.079 -8.093,0.119c-0.516,0.04 -1.091,0.059 -1.726,0.059l-3.927,0c0.317,6.269 2.261,11.218 5.832,14.848c3.57,3.629 7.974,5.444 13.21,5.444c2.262,0 4.344,-0.247 6.249,-0.743c1.904,-0.496 4.403,-1.518 7.498,-3.065l1.428,1.666Zm-14.163,-24.636c0.159,-6.308 -0.694,-10.731 -2.559,-13.27c-1.904,-2.499 -4.364,-3.749 -7.379,-3.749c-3.094,-0 -5.653,1.309 -7.676,3.927c-2.063,2.658 -3.015,7.022 -2.857,13.092c2.341,0.357 6.249,0.536 11.723,0.536c3.491,-0 6.407,-0.179 8.748,-0.536Z" style="fill-rule:nonzero;"/><path d="M697.178,626.124l0,4.463c-4.562,-0.198 -8.608,-0.297 -12.139,-0.297c-3.332,-0 -6.566,0.099 -9.7,0.297l-0.535,-0.654l0.535,-7.796c-1.428,0.913 -5.633,4.047 -12.615,9.402c-1.786,0.397 -3.492,0.596 -5.118,0.596c-4.324,-0 -7.706,-1.27 -10.146,-3.809c-2.44,-2.539 -3.66,-6.189 -3.66,-10.949c0,-3.214 0.546,-5.852 1.637,-7.915c1.091,-2.063 2.261,-3.58 3.511,-4.552c1.249,-0.972 3.183,-1.914 5.802,-2.827c6.268,-2.221 13.131,-3.967 20.589,-5.236c0.08,-4.721 -0.892,-8.312 -2.916,-10.771c-2.063,-2.46 -5.197,-3.69 -9.402,-3.69c-1.706,0 -3.332,0.218 -4.88,0.655c-0.674,0.198 -1.467,0.595 -2.38,1.19l-2.499,6.01l-4.047,-0.892l0.357,-7.677c2.936,-1.983 5.733,-3.709 8.391,-5.177c2.658,-1.468 4.523,-2.361 5.594,-2.678c1.468,-0.436 3.53,-0.654 6.188,-0.654c4.325,-0 7.885,0.624 10.682,1.874c2.797,1.25 4.86,2.727 6.189,4.433c1.329,1.706 2.241,3.531 2.737,5.475c0.496,1.944 0.744,4.404 0.744,7.379c0,1.269 -0.099,4.582 -0.297,9.938c-0.119,3.57 -0.179,6.486 -0.179,8.747c0,7.062 0.198,11.346 0.595,12.854c0.159,0.714 0.476,1.19 0.952,1.428c0.635,0.318 2.638,0.595 6.01,0.833Zm-21.839,-24.279c-3.372,0.714 -6.456,1.577 -9.253,2.589c-2.797,1.011 -4.731,2.261 -5.802,3.749c-1.071,1.487 -1.607,3.362 -1.607,5.623c0,2.539 0.645,4.503 1.934,5.891c1.289,1.389 2.985,2.083 5.088,2.083c1.785,0 3.58,-0.515 5.385,-1.547c1.805,-1.031 3.224,-2.341 4.255,-3.927l0,-14.461Z" style="fill-rule:nonzero;"/><path d="M737.822,626.005l0,4.582c-4.483,-0.198 -9.481,-0.297 -14.996,-0.297c-6.149,-0 -12.536,0.099 -19.161,0.297l-0,-4.582c3.094,0 5.236,-0.218 6.427,-0.654c0.555,-0.199 0.972,-0.536 1.249,-1.012c0.397,-0.754 0.615,-2.182 0.655,-4.284l0.238,-5.297c0.04,-1.11 0.059,-2.916 0.059,-5.415l0,-7.795c0,-3.531 -0.119,-7.816 -0.357,-12.854c-0.119,-2.539 -0.287,-3.977 -0.505,-4.314c-0.219,-0.337 -0.566,-0.585 -1.042,-0.744c-0.754,-0.278 -2.995,-0.476 -6.724,-0.595l-0,-4.582c7.22,-1.23 11.961,-2.143 14.222,-2.738c2.261,-0.595 4.82,-1.547 7.677,-2.856l1.606,0.714l-0.119,12.021c2.579,-2.658 4.563,-4.86 5.951,-6.606c2.063,-2.459 3.61,-4.026 4.642,-4.701c1.428,-0.952 3.312,-1.428 5.653,-1.428c1.468,-0 2.797,0.238 3.987,0.714l-0.357,8.45c-0.119,4.602 -0.218,7.24 -0.298,7.915l-2.499,0.773c-0.992,-1.309 -1.944,-2.221 -2.856,-2.737c-1.468,-0.833 -3.075,-1.25 -4.82,-1.25c-2.341,0 -4.354,0.724 -6.041,2.172c-1.686,1.448 -2.687,2.926 -3.005,4.434c-0.158,0.872 -0.238,4.225 -0.238,10.056l0,5.951l0.119,8.093c0.04,3.055 0.149,4.929 0.328,5.624c0.178,0.694 0.585,1.239 1.22,1.636c0.634,0.397 2.003,0.675 4.106,0.833l4.879,0.476Z" style="fill-rule:nonzero;"/><path d="M802.626,621.423l-2.618,5.832c-3.253,1.984 -6.606,3.451 -10.057,4.404c-2.579,0.674 -5.515,1.011 -8.807,1.011c-3.928,0 -7.389,-0.456 -10.384,-1.369c-2.996,-0.912 -5.554,-2.162 -7.677,-3.749c-2.122,-1.586 -3.987,-3.53 -5.594,-5.831c-1.606,-2.301 -2.767,-4.959 -3.481,-7.974c-0.714,-3.015 -1.071,-6.308 -1.071,-9.879c0,-5.197 0.694,-9.838 2.083,-13.924c0.952,-2.857 2.063,-4.92 3.332,-6.189c0.794,-0.794 2.857,-2.281 6.189,-4.463c3.333,-2.182 5.753,-3.61 7.26,-4.285c2.777,-1.23 6.05,-1.844 9.819,-1.844c5.316,-0 9.68,1.11 13.091,3.332c3.412,2.222 5.822,5.058 7.231,8.51c1.408,3.451 2.112,7.636 2.112,12.556c0,1.11 -0.04,2.182 -0.119,3.213c-0.992,0.317 -2.499,0.674 -4.522,1.071c-2.698,0.516 -4.523,0.794 -5.475,0.833c-2.976,0.238 -6.903,0.377 -11.783,0.417c-4.879,0.04 -7.577,0.079 -8.093,0.119c-0.515,0.04 -1.091,0.059 -1.725,0.059l-3.928,0c0.317,6.269 2.261,11.218 5.832,14.848c3.57,3.629 7.974,5.444 13.211,5.444c2.261,0 4.344,-0.247 6.248,-0.743c1.904,-0.496 4.403,-1.518 7.498,-3.065l1.428,1.666Zm-14.163,-24.636c0.159,-6.308 -0.694,-10.731 -2.559,-13.27c-1.904,-2.499 -4.364,-3.749 -7.379,-3.749c-3.094,-0 -5.653,1.309 -7.676,3.927c-2.063,2.658 -3.015,7.022 -2.856,13.092c2.34,0.357 6.248,0.536 11.723,0.536c3.491,-0 6.407,-0.179 8.747,-0.536Z" style="fill-rule:nonzero;"/><path d="M827.917,573.758l-4.047,-0l8.45,-25.351c0.595,-1.825 1.428,-3.163 2.5,-4.016c1.071,-0.853 2.281,-1.28 3.63,-1.28c1.626,0 2.965,0.506 4.016,1.518c1.052,1.011 1.577,2.37 1.577,4.076c0,0.595 -0.139,1.428 -0.416,2.499c-0.199,0.754 -0.456,1.349 -0.774,1.785l-14.936,20.769Z" style="fill-rule:nonzero;"/><path d="M845.174,611.842l4.761,0c0.198,4.444 0.396,7.241 0.595,8.391c1.785,2.182 3.749,3.799 5.891,4.85c2.142,1.051 4.602,1.577 7.379,1.577c3.729,-0 6.585,-0.893 8.569,-2.678c1.984,-1.785 2.975,-3.947 2.975,-6.486c0,-1.667 -0.327,-3.045 -0.982,-4.136c-0.654,-1.091 -1.973,-2.093 -3.957,-3.005c-1.547,-0.556 -4.512,-1.309 -8.896,-2.262c-4.384,-0.952 -7.706,-2.003 -9.968,-3.153c-2.261,-1.151 -4.026,-2.867 -5.296,-5.148c-1.269,-2.281 -1.904,-4.949 -1.904,-8.004c-0,-5.474 2.063,-10.027 6.189,-13.657c4.125,-3.63 10.056,-5.445 17.792,-5.445c3.214,0 6.169,0.278 8.867,0.834c2.698,0.555 5.138,1.388 7.319,2.499l0.179,0.595c-0.238,1.388 -0.417,2.797 -0.536,4.225c-0.119,1.428 -0.297,4.8 -0.535,10.116l-4.582,-0.059c-0.04,-0.437 -0.099,-1.171 -0.179,-2.202c-0.119,-1.785 -0.357,-3.511 -0.714,-5.177c-1.23,-1.587 -2.747,-2.777 -4.552,-3.571c-1.805,-0.793 -3.918,-1.19 -6.338,-1.19c-3.372,0 -5.98,0.754 -7.825,2.262c-1.845,1.507 -2.767,3.312 -2.767,5.415c-0,2.142 0.416,3.729 1.25,4.76c0.833,1.032 2.062,1.805 3.689,2.321c1.627,0.516 4.632,1.18 9.015,1.994c4.384,0.813 7.33,1.497 8.837,2.053c2.182,0.833 3.928,1.884 5.237,3.154c1.309,1.269 2.311,2.846 3.005,4.73c0.694,1.885 1.042,3.958 1.042,6.219c-0,5.911 -2.292,10.89 -6.874,14.936c-4.582,4.047 -11.018,6.07 -19.31,6.07c-2.777,0 -5.475,-0.248 -8.093,-0.744c-2.618,-0.496 -5.812,-1.398 -9.581,-2.707l-0.654,-0.893c0.317,-3.055 0.516,-5.217 0.595,-6.486l0.357,-9.998Z" style="fill-rule:nonzero;"/></g></g></g></g></svg>