<svg width="89" height="41" viewBox="0 0 89 41" version="1.1" xmlns="http://www.w3.org/2000/svg">
  <title>Signs &amp; More</title>
  <g transform="matrix(1,0,0,1,-415.9,-105.482)">
    <path d="M442.8,124.5C444.3,123.7 452.2,120.1 456.4,118.1C457.8,117.5 460.1,116.5 462.7,115.4C466.3,113.8 470.4,112.2 471.5,111.9C471.6,112 471.7,112 471.8,112.1C472,112.2 472.1,112.2 472.4,112.3C473,112.4 473.6,112.1 474.1,111.8C474.8,111.3 475.8,110.9 476.8,110.8C476.9,110.8 477.2,110.7 477.3,110.7C477.4,110.6 477.6,110.6 477.5,110.5C477.2,110.2 476.8,110 476.4,109.8C475.1,109.1 473.2,109.2 472,110.1C471.8,110.3 471.5,110.5 471.4,110.7C471.4,110.8 471.3,110.9 471.3,111C470,111.3 464.7,112.9 461.2,114.6C458.9,115.7 443.5,123.7 442.4,124.3C442.1,124.5 442.6,124.2 438.8,123.2C438.1,123 437.2,122.8 436.4,122.3C435.1,121.6 434.5,120.9 434.7,119.8C434.8,119 435.1,118.2 435.5,117.5C437.1,114.7 439.6,112.5 442.5,110.6C444.8,109.1 447.3,107.7 450.3,107.2C451.4,107 452.8,106.8 453.4,107.7C453.8,108.3 453.8,109.3 453.4,110.1C453.3,110.4 453,110.8 452.9,111C452.1,112.2 450.6,113.4 449.1,114.4C448,115.3 447.7,115.7 447.9,116.9C450.3,115.6 452.4,114.2 453.9,112.2C454.5,111.4 455.1,110.4 455.4,109.5C456.2,106.8 454.6,105.3 451.2,105.5C451,105.5 450.8,105.6 450.6,105.6C442.3,107 436.3,111.3 432.8,117.7C431,120.9 431.8,123.4 436.2,124.7C437.6,125.1 439.1,125.5 440.5,126.1C441.3,126.4 442,127.1 442.4,127.7C443.2,128.9 442.7,130.2 441.8,131.3C438.3,135.8 433.5,139.2 428,141.9C425.7,143 423.6,144 420.6,144.5C419.8,144.6 418.5,144.6 418,144.1C417.2,143.3 417.5,142.3 418,141.4C418.2,141.1 418.5,140.8 418.8,140.5C420.9,138.5 423,136.6 425.4,134.9C429.7,132 434.2,129.3 438.6,126.5C438.8,126.4 438.6,125.9 437.1,126.7C435.4,127.7 433.6,128.6 431.9,129.6C426.9,132.7 421.8,135.7 418,139.8C416.8,141.1 415.9,142.4 415.9,144.1C415.9,145.4 416.6,146.1 418.2,146.2C418.8,146.3 419.5,146.3 420.1,146.2C423.3,145.8 426.3,144.8 429.2,143.4C434.7,140.7 439.5,137.5 443.2,133.2C446.5,129.6 445,125.8 442.8,124.5Z"/>
  </g>
  <g transform="matrix(1,0,0,1,-415.9,-105.482)">
    <path d="M475.3,144.3L473.1,138L471.6,138L471.6,145.4L472.6,145.4L472.6,139.4L474.8,145.4L475.9,145.4L478,139.2L478,145.4L479.1,145.4L479.1,138L477.6,138L475.3,144.3Z"/>
  </g>
  <g transform="matrix(1,0,0,1,-415.9,-105.482)">
    <path d="M487.9,140C487.8,139.8 487.7,139.5 487.6,139.3C487.5,139.1 487.3,138.9 487.1,138.8C486.9,138.6 486.7,138.5 486.5,138.4C486.3,138.3 486.1,138.2 485.8,138.1C485.6,138 485.3,138 485,137.9C484.7,137.9 484.5,137.8 484.2,137.8C483.9,137.8 483.6,137.8 483.4,137.9C483.1,138 482.9,138 482.7,138.2C482.5,138.3 482.3,138.4 482.1,138.6C481.9,138.8 481.7,138.9 481.6,139.1C481.4,139.3 481.3,139.5 481.2,139.7C481.1,139.9 481,140.1 480.9,140.4C480.8,140.6 480.8,140.9 480.7,141.1C480.7,141.3 480.6,141.6 480.6,141.8C480.6,142 480.6,142.3 480.7,142.5C480.7,142.7 480.8,143 480.9,143.2C481,143.4 481.1,143.7 481.2,143.9C481.3,144.1 481.5,144.3 481.6,144.5C481.8,144.7 481.9,144.8 482.1,145C482.3,145.1 482.5,145.3 482.7,145.4C482.9,145.5 483.2,145.6 483.4,145.6C483.7,145.7 483.9,145.7 484.2,145.7C484.5,145.7 484.8,145.7 485,145.6C485.3,145.6 485.5,145.5 485.7,145.4C485.9,145.3 486.2,145.2 486.4,145.1C486.6,145 486.8,144.8 487,144.7C487.2,144.5 487.3,144.4 487.4,144.1C487.5,143.9 487.6,143.7 487.7,143.4C487.8,143.2 487.8,142.9 487.9,142.6C487.9,142.3 488,142 488,141.7C488,141.4 488,141.1 487.9,140.8C488.1,140.5 488,140.2 487.9,140ZM487.2,142.3C487.2,142.5 487.1,142.7 487.1,142.9C487.1,143.1 487,143.3 486.9,143.4C486.8,143.6 486.7,143.7 486.6,143.9C486.5,144 486.4,144.2 486.2,144.3C486,144.4 485.9,144.5 485.7,144.6C485.5,144.7 485.3,144.7 485.1,144.8C484.9,144.8 484.7,144.9 484.4,144.9C484.2,144.9 483.9,144.9 483.7,144.8C483.5,144.7 483.3,144.7 483.1,144.6C482.9,144.5 482.8,144.4 482.6,144.3C482.5,144.2 482.3,144 482.2,143.9C482.1,143.8 482,143.6 481.9,143.4C481.8,143.2 481.8,143.1 481.7,142.9C481.7,142.7 481.6,142.6 481.6,142.4L481.6,141.4C481.6,141.2 481.7,141.1 481.7,140.9C481.7,140.7 481.8,140.6 481.9,140.4C482,140.2 482.1,140.1 482.2,139.9C482.3,139.7 482.4,139.6 482.5,139.5C482.6,139.4 482.8,139.3 482.9,139.2C483.1,139.1 483.3,139 483.5,139C483.7,138.9 483.9,138.9 484.2,138.9C484.4,138.9 484.7,138.9 484.9,139C485.1,139 485.3,139.1 485.5,139.2C485.7,139.3 485.8,139.4 486,139.5C486.1,139.6 486.3,139.7 486.4,139.9C486.5,140 486.6,140.2 486.7,140.4C486.8,140.6 486.9,140.7 486.9,140.9C487,141.1 487,141.3 487,141.5L487,142.1C487.2,141.9 487.2,142.1 487.2,142.3Z"/>
  </g>
  <g transform="matrix(1,0,0,1,-415.9,-105.482)">
    <path d="M496.5,144.9C496.5,144.8 496.5,144.7 496.4,144.6L496.4,143.5C496.4,143.3 496.4,143.1 496.3,142.9C496.3,142.7 496.2,142.5 496.1,142.4C496,142.3 495.9,142.1 495.8,142C495.7,141.9 495.5,141.8 495.4,141.8C495.5,141.7 495.6,141.7 495.7,141.6C495.8,141.5 495.9,141.4 496,141.3C496.1,141.2 496.2,141.1 496.2,141C496.3,140.9 496.3,140.8 496.3,140.7C496.3,140.5 496.4,140.4 496.4,140.2L496.4,139.7C496.4,139.5 496.3,139.4 496.3,139.2C496.2,139.1 496.1,138.9 496,138.8C495.9,138.7 495.8,138.6 495.6,138.5C495.5,138.4 495.3,138.3 495.2,138.3C495,138.2 494.9,138.2 494.7,138.1C494.5,138.1 494.4,138 494.2,138L490.3,138L490.3,145.4L491.4,145.4L491.4,142.2L494.3,142.2C494.5,142.2 494.6,142.3 494.8,142.3C494.9,142.4 495,142.4 495.1,142.5C495.2,142.6 495.3,142.7 495.3,142.8C495.3,142.9 495.4,143.1 495.4,143.3L495.4,144.8C495.4,144.9 495.4,145.1 495.5,145.2L496.8,145.2L496.8,145C496.7,145 496.7,144.9 496.6,144.9C496.6,145.1 496.5,145 496.5,144.9ZM495.4,140.4C495.4,140.5 495.4,140.6 495.3,140.7C495.3,140.8 495.2,140.9 495.2,140.9C495.2,141 495.1,141 495,141.1C494.9,141.2 494.9,141.2 494.8,141.3C494.7,141.3 494.7,141.4 494.6,141.4C494.5,141.4 494.4,141.4 494.4,141.5L491.4,141.5L491.4,139L494.3,139C494.4,139 494.6,139.1 494.7,139.1C494.8,139.1 495,139.2 495,139.3C495.1,139.4 495.1,139.4 495.2,139.5C495.2,139.6 495.3,139.6 495.3,139.7C495.3,139.8 495.4,139.9 495.4,139.9L495.4,140.4Z"/>
  </g>
  <g transform="matrix(1,0,0,1,-415.9,-105.482)">
    <path d="M499.9,142.1L504.2,142.1L504.2,141.2L499.9,141.2L499.9,139L504.5,139L504.5,138.1L498.9,138.1L498.9,145.4L504.6,145.4L504.6,144.6L499.9,144.6L499.9,142.1Z"/>
  </g>
  <g transform="matrix(1,0,0,1,-415.9,-105.482)">
    <path d="M465.4,143.3C465.5,143.1 465.5,143 465.6,142.8C465.6,142.6 465.7,142.5 465.7,142.3C465.7,142.1 465.8,142 465.8,141.8L464.9,141.8C464.9,142 464.8,142.2 464.8,142.4C464.8,142.6 464.7,142.8 464.6,143L463.2,141.4C463.3,141.3 463.5,141.2 463.6,141.1C463.7,141 463.9,140.9 464,140.8C464.1,140.7 464.2,140.5 464.3,140.4C464.4,140.3 464.5,140.1 464.5,139.9L464.5,139.4C464.5,139.2 464.5,139.1 464.4,138.9C464.3,138.7 464.3,138.6 464.2,138.5C464.1,138.4 464,138.3 463.8,138.2C463.7,138.2 463.7,138.1 463.6,138.1C463.5,138.1 463.4,138 463.3,138L462.7,138C462.5,138 462.3,138 462.1,138.1C461.9,138.1 461.8,138.2 461.6,138.3C461.4,138.4 461.3,138.5 461.2,138.7C461.1,138.8 461,139 460.9,139.2C460.8,139.4 460.8,139.5 460.8,139.7L460.8,140.2C460.8,140.3 460.9,140.4 460.9,140.6C461,140.7 461,140.8 461.1,140.9C461.2,141 461.2,141.1 461.3,141.2C461.4,141.3 461.4,141.4 461.5,141.5C461.4,141.6 461.3,141.7 461.1,141.7C461,141.8 460.8,141.9 460.7,142C460.6,142.1 460.5,142.1 460.5,142.2C460.4,142.3 460.3,142.3 460.3,142.4C460.2,142.5 460.2,142.5 460.1,142.6C460,142.7 460,142.8 460,142.8C459.9,142.9 459.9,143.1 459.9,143.3L459.9,143.8C459.9,144 459.9,144.1 460,144.3C460,144.5 460.1,144.6 460.2,144.8C460.3,144.9 460.4,145.1 460.5,145.2C460.6,145.3 460.7,145.4 460.9,145.5C461.1,145.6 461.3,145.7 461.5,145.7C461.7,145.8 461.9,145.8 462.2,145.8L462.6,145.8C462.7,145.8 462.9,145.8 463,145.7C463.1,145.7 463.3,145.6 463.4,145.6C463.5,145.6 463.7,145.5 463.8,145.4C463.9,145.3 464.1,145.2 464.2,145.1C464.3,145 464.4,144.9 464.6,144.8L465.4,145.6L466.6,145.6L465.2,144C465.3,143.7 465.4,143.5 465.4,143.3ZM462,139.4C462,139.3 462,139.2 462.1,139.1C462.2,139 462.2,138.9 462.3,138.9C462.4,138.9 462.5,138.8 462.6,138.8L463.2,138.8C463.3,138.8 463.4,138.9 463.4,138.9C463.5,139 463.5,139 463.6,139.1C463.7,139.2 463.7,139.2 463.7,139.3L463.7,139.6C463.7,139.7 463.7,139.9 463.6,140C463.6,140.1 463.5,140.2 463.5,140.3C463.4,140.4 463.4,140.4 463.3,140.5C463.2,140.6 463.1,140.6 463,140.7C462.9,140.8 462.8,140.8 462.7,140.9C462.6,140.8 462.2,140.4 462.1,140.3C462.1,140.2 462,140.1 462,140.1C462,140 461.9,139.9 461.9,139.8C461.9,139.6 461.9,139.5 462,139.4ZM463.8,144.3C463.7,144.4 463.6,144.5 463.5,144.5C463.4,144.6 463.3,144.6 463.1,144.6C463,144.6 462.8,144.7 462.7,144.7L462.1,144.7C462,144.7 461.9,144.7 461.8,144.6C461.7,144.6 461.6,144.5 461.6,144.5C461.5,144.5 461.4,144.4 461.4,144.3C461.3,144.2 461.3,144.2 461.2,144.1C461.1,144 461.1,143.9 461.1,143.9C461.1,143.8 461,143.7 461,143.6C461,143.4 461,143.3 461.1,143.1C461.2,142.9 461.2,142.8 461.4,142.6C461.5,142.5 461.7,142.3 461.8,142.2C462,142.1 462.2,142 462.4,141.9L464.2,143.9C464,144.1 463.9,144.2 463.8,144.3Z"/>
  </g>
  <g transform="matrix(1,0,0,1,-415.9,-105.482)">
    <path d="M452.4,122.5L451.5,122.5C451.4,122.5 451.3,122.5 451.2,122.6C450.9,122.7 450.7,122.8 450.6,123.1C450.5,123.3 450.4,123.6 450.4,123.8C450.4,124.1 450.5,124.3 450.7,124.4C451,124.6 451.2,124.7 451.6,124.7C451.9,124.7 452.2,124.7 452.5,124.6C452.8,124.5 453,124.4 453.3,124.2C453.5,124 453.6,123.9 453.6,123.7C453.7,123.5 453.7,123.3 453.6,123.1C453.6,123.1 453.5,123 453.4,122.8C453.2,122.7 452.9,122.6 452.4,122.5Z"/>
  </g>
  <g transform="matrix(1,0,0,1,-415.9,-105.482)">
    <path d="M481.3,128.5C481.6,128.1 481.8,127.7 482,127.3C482.1,126.9 482.2,126.4 482.3,125.9C482.3,125.4 482.4,125 482.4,124.5C482.4,124 482.4,123.6 482.5,123.1C482.5,122.7 482.6,122.2 482.7,121.9C482.8,121.6 482.9,121.4 483.1,121.2L482.3,121.2C482,121.2 481.7,121.3 481.4,121.4C481.1,121.5 480.9,121.6 480.7,121.8C480.5,122 480.3,122.2 480.2,122.4C480,122.7 479.7,123 479.4,123.3C479.1,123.6 478.8,123.9 478.6,124.3L477.7,125.3C477.4,125.6 477.1,126 476.9,126.3L476.8,126.3C476.3,126.4 475.9,126.5 475.5,126.7C475.1,126.9 474.7,127.2 474.4,127.5C474.1,127.8 473.9,128.1 473.8,128.5C473.7,128.9 473.7,129.2 473.8,129.5L473.8,129.6L473.7,129.6C473.6,129.7 473.5,129.7 473.4,129.8C473,130.1 472.6,130.2 472.3,130.3C471.9,130.3 471.7,130.2 471.5,130C471.4,129.8 471.4,129.4 471.6,128.9C471.8,128.5 472,128.1 472.2,127.7C472.5,127.3 472.7,126.9 472.9,126.6C473.1,126.3 473.2,126.1 473.4,125.8C473.6,125.5 473.7,125.3 473.9,125C474.1,124.8 474.2,124.5 474.3,124.3C474.4,124.2 474.4,124.1 474.4,124.1L474.3,124C473.8,123.8 473.3,123.7 472.8,123.7C472.3,123.7 471.8,123.8 471.4,124C471.1,124.2 470.7,124.4 470.4,124.6C470,124.9 469.7,125.2 469.3,125.5C469,125.8 468.6,126.1 468.3,126.4C468,126.7 466.9,127.8 466.9,127.8L467.3,127.1C467.4,126.8 467.6,126.6 467.8,126.2C468,125.9 468.2,125.6 468.4,125.4C468.6,125.2 468.7,125 468.8,124.8C468.9,124.7 468.9,124.5 468.9,124.5C468.9,124.4 468.9,124.4 468.8,124.3C468.7,124.2 468.6,124.2 468.4,124.1C468,124 467.7,124 467.5,124C467.3,124.1 467.2,124.2 467.1,124.3C466.8,124.6 466.6,124.9 466.4,125.2C466.2,125.5 466,125.8 465.8,126.1C465.3,126.8 464.8,127.6 464.3,128.4C464,128.9 463.7,129.4 463.6,129.9C463.4,130 463.3,130 463.1,130C462.7,130 462.5,129.9 462.3,129.7C462.3,129.6 462.2,129.6 462.2,129.5C462.3,129.3 462.4,129.1 462.5,128.9C462.7,128.4 463,127.9 463.3,127.4C463.6,126.9 463.8,126.4 464.1,126C464.3,125.5 464.5,125.2 464.7,124.8C464.8,124.5 465,124.3 465,124.2L464.7,124.2C464.5,124.2 464.4,124.2 464.2,124.3C464,124.3 463.8,124.4 463.7,124.4C463.5,124.5 463.4,124.5 463.3,124.6C463,124.8 462.7,124.9 462.5,125.1C462.3,125.3 462,125.5 461.8,125.7L461.6,125.9L461.5,125.7C461.4,125.5 461.3,125.4 461.2,125.2C460.9,124.9 460.5,124.7 460,124.7C459.5,124.7 459.1,124.7 458.6,124.8C458.1,124.9 457.6,125.1 457.2,125.3C456.7,125.5 456.3,125.8 456,126C455.4,126.5 454.8,127 454.3,127.6C453.9,128.1 453.5,128.6 453.3,129.2C453,129.6 452.7,130 452.4,130.4C452,130.8 451.6,131.2 451.1,131.6C450.6,132 450.2,132.2 449.9,132.4C449.6,132.6 449.3,132.6 449.1,132.6C448.9,132.5 448.7,132.4 448.7,132.1C448.7,131.9 448.7,131.6 448.8,131.3C448.9,130.9 449,130.6 449.2,130.2C449.4,129.9 449.5,129.5 449.7,129.1C449.8,128.9 449.9,128.7 450.1,128.4C450.3,128.1 450.5,127.8 450.6,127.5C450.8,127.2 451,126.9 451.2,126.6C451.4,126.4 451.5,126.1 451.7,126C451.6,125.9 451.4,125.9 451.3,125.9L450.5,125.9C450.3,125.9 450.1,126 449.9,126C449.7,126.1 449.5,126.2 449.4,126.2C449,126.5 448.7,126.8 448.4,127.2C448.1,127.6 447.9,128 447.6,128.3C447.2,128.9 446.9,129.5 446.7,130.2C446.5,130.9 446.4,131.5 446.5,132.2C446.5,132.5 446.6,132.9 446.9,133.2C447.1,133.5 447.4,133.7 448,133.8C448.5,133.9 449,133.8 449.6,133.5C450.2,133.2 450.9,132.8 451.6,132.1C452,131.8 452.3,131.4 452.7,131L452.9,130.8L452.9,131.4C453,131.7 453.1,132 453.3,132.2C453.5,132.4 453.8,132.6 454.2,132.8C454.6,133 455,133.1 455.4,133C455.8,133 456.2,132.9 456.5,132.8C456.9,132.7 457.2,132.5 457.5,132.2C457.8,132 458.1,131.7 458.3,131.5L458.8,131L457.7,133.4L457.6,133.4C456.9,133.4 456.2,133.5 455.4,133.5L455.3,133.5C454.6,133.6 453.9,133.7 453.3,133.9C452.7,134.1 452.1,134.4 451.7,134.8C451.3,135.2 451.1,135.6 451,136.2C451,136.7 451.1,137.2 451.5,137.5C451.9,137.8 452.3,138 452.8,138.1C453.3,138.2 453.9,138.2 454.6,138.1C455.2,138 455.8,137.8 456.3,137.5C456.9,137.2 457.4,136.8 457.8,136.4C458.2,136 458.6,135.5 458.9,135.1L458.9,135L459,135C459.6,135 460.2,135.1 460.7,135.1L462.5,135.1C462.9,135.1 463.3,135.1 463.7,135L463.8,135C464.1,135 464.5,134.9 464.8,134.8C465.2,134.7 465.6,134.6 465.9,134.5C466.3,134.4 466.6,134.2 466.9,134C467,133.9 467.2,133.8 467.3,133.7C467.4,133.6 467.6,133.4 467.7,133.3C467.8,133.2 467.9,133 467.9,132.9L467.9,132.7C467.7,132.8 467.5,132.9 467.3,133C467,133.1 466.7,133.2 466.4,133.2C466,133.3 465.6,133.3 465.1,133.3L463.8,133.3C463.4,133.3 462.9,133.3 462.5,133.2C462.1,133.2 461.7,133.1 461.3,133.1L459.9,133.1L461.1,131L461.4,131C461.8,131 462.2,131 462.5,130.9C462.7,130.8 463,130.7 463.2,130.6C463.2,130.6 463.2,130.7 463.3,130.7C463.4,130.8 463.5,130.9 463.7,131C463.9,131.1 464,131.2 464.2,131.2C464.4,131.2 464.5,131.3 464.7,131.2L464.8,131.2C465,131.2 465.1,131.1 465.2,131L465.5,130.6C465.6,130.4 465.8,130.1 465.9,129.9C466.1,129.7 466.2,129.4 466.4,129.2C466.7,128.7 467.1,128.3 467.5,127.8C467.9,127.4 468.3,126.9 468.7,126.5C469,126.2 469.4,125.8 469.9,125.4C470.4,125 470.8,124.7 471.2,124.4L471.6,124.1L471.4,124.5C471.1,125 469.9,127 469.6,127.5C469.5,127.8 469.4,128 469.3,128.3C469.2,128.6 469.1,128.9 469.1,129.2C469.1,129.5 469.1,129.8 469.2,130C469.3,130.2 469.5,130.5 469.8,130.6C470.1,130.8 470.5,130.9 470.9,130.9C471.3,130.9 471.7,130.9 472,130.8C472.4,130.7 472.7,130.5 473.1,130.3C473.5,130.1 473.8,129.9 474,129.7L474.1,129.6L474.2,129.7C474.4,129.8 474.6,130 474.8,130C475.4,130.2 476,130.2 476.7,130.2C477.4,130.1 478.1,130 478.8,129.7C479.5,129.5 480,129.2 480.5,128.8C480.7,129.2 481,128.9 481.3,128.5ZM455.8,136.2C455.6,136.5 455.3,136.8 454.9,137C454.7,137.1 454.4,137.3 454.1,137.3C453.8,137.4 453.5,137.4 453.2,137.4C452.9,137.4 452.7,137.3 452.5,137.2C452.3,137.1 452.2,136.9 452.1,136.7C452,136.5 452.1,136.3 452.2,136.1C452.3,135.9 452.5,135.8 452.7,135.7C452.9,135.6 453.2,135.5 453.4,135.4C453.6,135.4 453.7,135.3 453.9,135.3L456.3,135.3C456.2,135.7 456,135.9 455.8,136.2ZM459.1,129.8C459,129.9 459,130 458.9,130.1C458.8,130.2 458.7,130.3 458.6,130.5C458.5,130.6 458.4,130.7 458.3,130.8C458,131 457.7,131.3 457.3,131.5C456.9,131.7 456.5,131.8 456.1,131.8C455.8,131.8 455.5,131.7 455.5,131.5C455.4,131.3 455.4,131 455.5,130.7C455.6,130.4 455.7,130.1 455.8,129.8C455.9,129.5 456,129.3 456.1,129.1C456.3,128.8 456.5,128.5 456.7,128.2C456.9,127.9 457.2,127.6 457.4,127.4C457.6,127.2 457.9,126.9 458.3,126.7C458.6,126.5 459,126.3 459.5,126.2L460.1,126.2C460.2,126.3 460.4,126.3 460.4,126.4C460.5,126.5 460.5,126.6 460.6,126.8L460.6,127.2C460.6,127.3 460.5,127.4 460.5,127.5C460.1,128.1 459.8,128.8 459.4,129.4L459.1,129.8ZM479.7,124.2C479.6,124.7 479.6,125.3 479.6,125.8C479.6,126.4 479.5,126.9 479.4,127.5C479.3,127.8 479.1,128.1 478.9,128.5C478.7,128.8 478.4,129.1 478.1,129.4C477.8,129.7 477.4,129.9 477,130C476.8,130.1 476.6,130.1 476.4,130.1L475.7,130.1C475.4,130.1 475.2,130 475.1,129.9C475,129.8 474.9,129.8 474.9,129.7L474.9,129.6L475,129.5C475.3,129.2 475.5,129 475.6,128.8C475.8,128.6 476,128.3 476.2,128L476.5,128C477,128 477.5,128 477.9,128.2C478.1,128.1 478.2,127.9 478.3,127.8C478.4,127.6 478.5,127.5 478.5,127.3C478.5,127.2 478.5,127 478.3,126.9C478.2,126.8 478,126.7 477.8,126.6L477.6,126.6L477.7,126.5C478,126.2 478.3,125.8 478.6,125.4C478.9,125 479.2,124.7 479.5,124.4L479.8,124.1L479.7,124.2Z"/>
  </g>
  <g transform="matrix(1,0,0,1,-415.9,-105.482)">
    <path d="M490.7,117.4C490.7,117.3 490.8,117.3 490.9,117.2C490.9,117.1 491,117 491.1,117C491.2,116.9 491.2,116.9 491.3,116.8L491.3,116.5C491.3,116.4 491.4,116.4 491.4,116.3L491.4,116L491.5,116L491.5,116.8L491.6,116.8C491.6,116.8 491.7,116.8 491.7,116.7L491.9,116.5L491.9,116.2L492.1,116.2C492.2,116.2 492.3,116.1 492.3,116.1L492.3,116.5L492.2,116.5L492.1,116.6C492.1,116.7 492,116.7 492,116.8L492,117.1L492.1,117.1L492.1,117L492.2,117L492.2,116.9L492.3,116.9C492.4,116.9 492.4,116.8 492.5,116.8L492.7,116.8L492.7,116.3C492.7,116.2 492.8,116.2 492.8,116.1L492.8,116L494.3,116C494.3,116 494.3,115.9 494.4,115.9L494.5,115.8L494.6,115.8L494.6,115.5L495,115.5C495.1,115.5 495.2,115.5 495.2,115.6L495.3,115.6C495.5,115.7 495.6,115.7 495.8,115.8C495.9,115.9 496,115.9 496.1,116C496.2,116.1 496.4,116.3 496.4,116.3L496.4,116C496.4,115.9 496.4,115.9 496.5,115.8L496.5,115.7C496.5,115.6 496.6,115.6 496.7,115.6C496.7,115.6 496.8,115.6 496.8,115.7L496.9,115.7L497,115.8L497.6,115.8L497.7,115.9L498.4,115.9L498.4,115.6L498.3,115.5C498.3,115.5 498.2,115.5 498.2,115.4L498.2,115.2C498.2,115.2 498.2,115.1 498.1,115.1L498.1,115L498,115C498,115 497.9,115 497.9,115.1C497.9,115.1 497.9,115.2 497.8,115.2C497.8,115.2 497.7,115.1 497.7,115C497.7,114.9 497.7,114.9 497.8,114.8L497.8,114.9L497.9,114.9L497.8,114.9C497.8,114.8 497.7,114.7 497.7,114.6C497.7,114.4 497.6,114.3 497.5,114.1C497.5,114 497.4,114 497.4,113.9L497.1,113.9L497,114C496.9,114.1 496.9,114.1 496.8,114.1L496.7,114.1L496.7,114L496,114C495.9,114 495.9,113.9 495.8,113.9L495.6,113.9C495.6,113.9 495.6,113.8 495.7,113.8L495.8,113.7C495.8,113.6 495.8,113.6 495.9,113.5L495.9,113L495.2,113L495.1,113.1C495,113.1 494.9,113.2 494.8,113.2C494.7,113.2 494.7,113.3 494.6,113.3L493.2,113.3C493.1,113.3 493.1,113.3 493,113.4C493,113.4 492.9,113.4 492.9,113.5L492.8,113.5C492.8,113.5 492.7,113.5 492.7,113.4L492.6,113.4C492.6,113.4 492.5,113.4 492.5,113.5C492.5,113.5 492.4,113.5 492.4,113.6C492.4,113.6 492.3,113.6 492.3,113.7C492.3,113.7 492.2,113.7 492.2,113.8C492.2,113.8 492.1,113.8 492.1,113.9C492.1,113.9 492,113.9 492,114C492,114 491.9,114.1 491.8,114.1L491.7,114.1L491.6,114.2L491.6,114.3C491.6,114.3 491.5,114.3 491.5,114.4L491.3,114.4L491.1,114.3C491.1,114.3 491,114.3 491,114.2L490.8,114.2L490.7,114.1C490.7,114.1 490.6,114.1 490.6,114C490.6,114 490.6,113.9 490.5,113.9L490.1,113.9C490.1,113.9 490,113.9 490,114L489.8,114L489.8,113.9C489.8,113.9 489.8,113.8 489.7,113.8L489.6,113.7C489.5,113.7 489.5,113.6 489.4,113.6L489.3,113.5C489.3,113.4 489.2,113.4 489.2,113.3L489.2,113C489.2,113 489.2,112.9 489.1,112.9L489,112.8L488.8,112.7L488.7,112.6C488.6,112.5 488.5,112.5 488.3,112.4L487.6,112.4C487.5,112.4 487.5,112.5 487.4,112.6L487.4,112.7L487.3,112.7C487.3,112.7 487.2,112.6 487.3,112.5C487.3,112.4 487.4,112.3 487.5,112.3L487.5,112.2C487.4,112.2 487.4,112.3 487.4,112.4C487.4,112.5 487.3,112.6 487.2,112.6L487,112.8C487,112.9 486.9,112.9 486.9,112.9L486.9,112.3C486.9,112.2 486.9,112.1 487,112C487.1,111.7 487.3,111.5 487.5,111.3C487.5,111.3 487.6,111.2 487.6,111.1C487.6,111 487.7,110.9 487.7,110.9C487.8,110.8 487.8,110.8 487.9,110.8L488,110.8C488.1,110.8 488.1,110.7 488.2,110.7C488.3,110.7 488.3,110.6 488.3,110.5L488.3,110.4L488.9,110.4L488.9,110.3L487.7,110.3C487.8,110.2 487.8,110.2 487.9,110.1C488,110.1 488.1,110 488.2,110C488.3,110 488.4,110 488.5,109.9L488.7,109.9L488.4,109.9C488.3,109.9 488.2,109.9 488.2,110C488.1,110 488.1,110.1 488,110.1C488,110.1 487.9,110.1 487.9,110.2L487.8,110.3C487.7,110.4 487.6,110.4 487.4,110.5L487.2,110.5C487.1,110.5 487,110.6 486.9,110.6C486.9,110.6 486.7,110.8 486.6,110.9C486.6,110.9 486.6,111 486.5,111L486.3,111C486.2,111 486.2,111.1 486.1,111.1C486.1,111.1 486,111.1 486,111.2L485.9,111.3C485.9,111.3 485.8,111.3 485.8,111.4L485.7,111.5L485.7,111.8L485.2,111.8C485.1,111.8 485,111.9 484.9,112C484.9,112 484.7,112.2 484.6,112.3C484.6,112.3 484.5,112.3 484.5,112.4L483.4,112.4C483.3,112.4 483.3,112.4 483.2,112.5C483.1,112.6 483.1,112.6 483,112.7C483,112.7 482.9,112.7 482.9,112.8L482.8,112.9C482.8,112.9 482.7,112.9 482.7,113C482.6,113.1 482.6,113.1 482.5,113.1L481.8,113.1L481.7,113.2L481.7,113.3L482.1,113.3C482.1,113.4 482.2,113.4 482.2,113.5C482.2,113.6 482.3,113.8 482.3,113.9C482.3,114 482.4,114 482.5,114.1C482.6,114.1 482.6,114.1 482.7,114.2C482.8,114.2 483,114.3 483.1,114.3L483.3,114.4C483.4,114.4 483.6,114.5 483.7,114.5L483.9,114.5C484,114.5 484.1,114.5 484.2,114.6C484.3,114.6 484.5,114.7 484.6,114.8C484.7,114.8 484.7,114.9 484.8,114.9L485.2,114.9L485.2,115L485.3,115.1L485.5,115.1C485.5,115.1 485.6,115.1 485.6,115.2L485.7,115.2L485.8,115.3L485.9,115.3C486,115.3 486.1,115.3 486.1,115.4L486.2,115.5L486.3,115.5L486.3,115.4L486.4,115.4C486.5,115.4 486.5,115.4 486.6,115.5C486.6,115.5 486.7,115.5 486.7,115.6L487.3,115.6L487.3,115.7C487.3,115.8 487.4,115.8 487.4,115.8L487.5,115.9L487.5,116C487.5,116 487.5,116.1 487.6,116.1L487.8,116.1L487.9,116.2L488,116.2C488.1,116.2 488.2,116.3 488.2,116.3L488.3,116.4L488.3,116.9C488.3,116.9 488.3,117 488.2,117L488.2,117.1C488.2,117.1 488.2,117.2 488.3,117.2L488.3,117.3C488.3,117.4 488.3,117.4 488.2,117.5L488.1,117.6L488.1,117.9L488.3,117.9L488.3,117.8L488.3,118C488.3,118.1 488.3,118.1 488.2,118.1C488.2,118.2 488.1,118.2 488.1,118.3L488.1,118.4C488.1,118.5 488.2,118.5 488.2,118.6L488.2,118.7L488.4,118.7L488.4,118.5C488.4,118.5 488.4,118.4 488.5,118.4C488.6,118.3 488.6,118.3 488.7,118.2C488.8,118.1 488.8,118 488.9,118C489,117.8 489.2,117.5 489.2,117.3C490.7,117.5 490.7,117.5 490.7,117.4Z"/>
  </g>
  <g transform="matrix(1,0,0,1,-415.9,-105.482)">
    <path d="M504.8,127.8C504.7,127.7 504.6,127.5 504.6,127.4C504.5,127.3 504.4,127.2 504.4,127.1L504.4,125.4C504.4,125.3 504.4,125.3 504.3,125.2L504.3,124.4C504.3,124.3 504.2,124.3 504.2,124.2L504.2,124L504.1,124C504.1,124 504,123.9 504,123.8C503.9,123.7 503.9,123.7 503.8,123.6C503.6,123.6 503.5,123.6 503.3,123.7L503.2,123.8C503.1,123.9 503,123.9 502.9,124L502.8,124C502.7,124 502.7,124 502.6,124.1L502.4,124.3L502.3,124.3L502.3,124.5C502.3,124.5 502.3,124.6 502.2,124.6L502.1,124.7C502,124.8 502,124.9 501.9,125C501.9,125 501.8,125 501.8,125.1L501.5,125.4C501.5,125.4 501.4,125.4 501.4,125.5L501.3,125.4L501,125.4C500.9,125.4 500.9,125.3 500.9,125.2L500.9,124.5C500.9,124.5 500.9,124.4 501,124.4C501,124.4 501,124.3 501.1,124.3L501.6,124.3L501.6,124.1L501.7,124.1C501.7,124 501.8,124 501.8,123.9L501.8,123.7C501.8,123.6 501.8,123.6 501.9,123.6C501.9,123.6 501.9,123.5 502,123.5L502,123.4C502,123.3 502.1,123.3 502.1,123.2L502.2,123.2L502.2,121C502.1,121 502.1,120.9 502,120.8C502,120.8 501.9,120.7 501.9,120.6L501.9,120.4L502.1,120.4L502.1,120.3C502.1,120.2 502.1,120.1 502,120C502,120 502,119.9 501.9,119.9L501.8,119.9L501.7,119.8C501.7,119.8 501.7,119.7 501.6,119.7C501.6,119.7 501.6,119.6 501.5,119.6C501.4,119.6 501.4,119.5 501.3,119.5L501,119.5L500.9,119.4L500.5,119.4L500.3,119.2L499.8,119.2C499.7,119.2 499.6,119.1 499.6,119C499.6,118.9 499.5,118.9 499.5,118.8C499.5,118.7 499.4,118.7 499.4,118.6C499.3,118.5 499.3,118.5 499.2,118.5C499.2,118.5 499.1,118.5 499.1,118.4L498.6,118.4C498.5,118.4 498.5,118.3 498.4,118.3C498.4,118.2 498.3,118.2 498.3,118.1L498.2,118L498.1,118C498.1,118 498,118 498,117.9L498,117.8L497.9,117.8C497.9,117.8 497.8,117.8 497.8,117.9L497.8,118C497.7,118 497.6,117.9 497.6,117.9L497.4,117.9L497.4,118C497.4,118.1 497.3,118.1 497.3,118.2L497.2,118.3L497.2,118.4C497.2,118.4 497.2,118.5 497.1,118.5C497.1,118.5 497.1,118.6 497,118.6L497,118.8C497,118.8 497,118.9 497.1,118.9L497.3,119.1L497.3,119.2C497.3,119.2 497.2,119.2 497.2,119.3L496.6,119.3C496.6,119.3 496.5,119.3 496.5,119.4L496.4,119.5L496.2,119.5C496.2,119.7 496.1,119.9 496.1,120.1L496.1,120.8C496.1,120.9 496,121 496,121.2L496,121.3C496,121.4 495.9,121.4 495.9,121.5L495.9,121.6C495.9,121.6 495.9,121.5 495.8,121.5L495.8,121.3L495.8,121.4L495.8,121.2C495.8,121.2 495.8,121.1 495.9,121.1L495.9,120.7C495.8,120.7 495.8,120.6 495.7,120.6L495.6,120.6L495.5,120.7L495.3,120.7L495.3,120.8L495.3,120.7C495.3,120.7 495.2,120.7 495.2,120.8L495.1,120.9C495.1,121 495,121 495,121.1L495,121.2C495,121.3 495,121.4 494.9,121.4L494.8,121.4C494.7,121.4 494.7,121.5 494.6,121.5L494.6,121.6C494.6,121.6 494.6,121.7 494.7,121.7L494.7,122.3C494.7,122.4 494.7,122.4 494.6,122.5L494.6,122.6C494.6,122.7 494.6,122.7 494.5,122.8L494.5,122.9C494.5,123 494.5,123 494.4,123.1C494.3,123.3 494.3,123.4 494.2,123.6C494.1,123.7 494,123.8 494,123.9L494,124.1C494.1,124.2 494.1,124.4 494.1,124.5L494.1,125.1C494.1,125.1 494.1,125.2 494,125.2C494,125.3 493.9,125.3 493.9,125.4C493.9,125.5 493.9,125.5 494,125.5C494,125.5 494,125.6 494.1,125.6L494.2,125.7L494.2,126.1C494.3,126.2 494.3,126.4 494.4,126.5C494.4,126.6 494.5,126.7 494.5,126.9L494.5,127.3C494.5,127.4 494.6,127.5 494.7,127.7C494.8,127.8 494.8,127.8 494.8,127.9L494.8,129.5C494.8,129.6 494.8,129.7 494.7,129.7C494.7,129.8 494.7,129.9 494.6,130L494.6,130.1C494.6,130.2 494.5,130.2 494.5,130.3C494.4,130.4 494.4,130.5 494.3,130.6C494.3,130.7 494.2,130.8 494.1,130.9L494,131C494,131.1 493.9,131.2 493.9,131.3C493.9,131.3 493.9,131.4 493.8,131.4C493.8,131.4 493.8,131.5 493.7,131.5C493.7,131.5 493.7,131.6 493.6,131.6C493.6,131.7 493.5,131.9 493.4,132L493,132.4L493,132.5L498.4,132.5L498.4,132.6L502.4,132.6C502.4,132.6 502.5,132.6 502.5,132.5C502.5,132.4 502.6,132.4 502.6,132.4C502.7,132.3 503.2,131.8 503.2,131.8L503.2,130.5C503.2,130.4 503.3,130.3 503.4,130.3L503.7,130.3L503.7,129.7C503.7,129.6 503.7,129.6 503.8,129.5L503.9,129.5L503.9,129.1C504,129.1 504,129.1 504.1,129L504.3,129L504.3,129.1L504.2,129.1L504.3,129.2L504.4,129.2L504.5,129.1C504.5,129 504.6,128.9 504.6,128.9C504.6,128.8 504.6,128.8 504.7,128.7L504.7,127.9C504.7,127.9 504.7,127.8 504.8,127.8Z"/>
  </g>
</svg>
