<svg xmlns="http://www.w3.org/2000/svg" viewBox="0 0 160 110.72" width="160" height="110">
  <title>The Root Beer Stand</title>
  <path d="M78.06,110.72l-22.47,0a55.59,55.59,0,0,1-12-1.38,57.76,57.76,0,0,1-17.91-7.49A54.64,54.64,0,0,1,3.15,73.57a56.55,56.55,0,0,1-3-14.15,55.52,55.52,0,0,1,.75-14A52.3,52.3,0,0,1,6.57,29.2a55.61,55.61,0,0,1,8.25-11.29,52.7,52.7,0,0,1,11.1-9.28A46.61,46.61,0,0,1,37.36,3.21a55.68,55.68,0,0,1,7.3-2c2.5-.35,5-.83,7.51-.94C56.52.07,60.88.1,65.24.07Q76.79,0,88.35,0C93.57,0,98.78,0,104,0a56.48,56.48,0,0,1,16.4,2.44,58.32,58.32,0,0,1,10.12,4.21A57.58,57.58,0,0,1,147,20a47.57,47.57,0,0,1,8.35,13.35A63.71,63.71,0,0,1,158.11,41,49.87,49.87,0,0,1,160,52.47c.07,2.36,0,4.71,0,7.05a34.22,34.22,0,0,1-.72,6.24,59.51,59.51,0,0,1-3.06,10.52,59,59,0,0,1-6.92,12.13,55,55,0,0,1-11,11.06,52.34,52.34,0,0,1-9.9,6,61.15,61.15,0,0,1-11.26,3.89,55.38,55.38,0,0,1-13.3,1.29c-8.57,0-17.14,0-25.7,0Zm2.12-5.32c.79,0,1.87.06,2.95.06L99,105.39a96.19,96.19,0,0,0,12.57-.37,50.83,50.83,0,0,0,8.49-1.87,46.92,46.92,0,0,0,14.15-7.24,54.14,54.14,0,0,0,9.19-8.54,48.09,48.09,0,0,0,9.5-17.63,50.12,50.12,0,0,0,1.93-16.44,49.22,49.22,0,0,0-7.13-23.54A50.46,50.46,0,0,0,134.08,15,47.46,47.46,0,0,0,119.8,7.72a48.64,48.64,0,0,0-13-2.38C100.9,5.21,95,5.22,89,5.22c-7.32,0-14.65.05-22,.09-4.9,0-9.81-.07-14.69.17a55.27,55.27,0,0,0-9.08,1.3c-5.86,1.28-11.1,4-16.09,7.28A49.17,49.17,0,0,0,8.32,38.14,48,48,0,0,0,5.75,47.8,47.11,47.11,0,0,0,5.33,58.9,49.91,49.91,0,0,0,22.07,92.57a50,50,0,0,0,10.31,7.14,52.49,52.49,0,0,0,25.37,5.78C65.13,105.33,72.52,105.42,80.19,105.39Z"/>
  <path d="M98.83,89.52l1.87.62-.19.9-1.16,0C97.57,91,95.8,91,94,91c-.53,0-1.12.16-1.24-.76L94,89.4c.74-1.92.53-7.49-.39-9.09a8.09,8.09,0,0,0-1.43-.47A1.92,1.92,0,0,0,90,81.47a53,53,0,0,0,.22,7.88c.3.62,1.64.3,1.3,1.65l-7.33-.16-.19.34-.45-.93c-3.75,1.41-3.94,1.4-7-.2a8.13,8.13,0,0,1-1.37.63,9.24,9.24,0,0,1-2.65.5,3.17,3.17,0,0,1-2.86-4.71,6.46,6.46,0,0,1,.38-.66c1.8-1.5,4.14-1.55,6.11-2.41.78-1.53.77-1.75-.22-3.83-.93-.81-1.74-.44-2.48.31-.95,2.43-1.69,2.92-4,2.52a2,2,0,0,1,.62-2.29,8.37,8.37,0,0,1,7.94-2.55,3.46,3.46,0,0,1,2.57,3.49c0,1.07,0,2.15-.05,3.23s-.07,1.94,0,2.91a2,2,0,0,0,1.4,2.08l1.58-.4.37,1.29.41-.35c1,0,1.26-.67,1.33-1.47s.06-1.61,0-2.42c0-1.71,0-3.43-.07-5.15l-1.33-1.3c.15-.25.24-.59.42-.66,1.67-.66,3.36-1.27,5.2-1.95l.1,2c.9-.38,1.66-.71,2.43-1A4.51,4.51,0,0,1,94,77.41c3.08,0,4.21.83,4.52,3.46.26,2.18.14,4.4.2,6.61C98.69,88.16,98.78,88.83,98.83,89.52Zm-22.61-.86c.11-1.17.7-2.33,0-3.73l-2.05.74c-.67,1.56-.63,2.5.1,3.12A1.26,1.26,0,0,0,76.22,88.67Z"/>
  <path d="M88.06,44.05c.8-.12,1.47-.25,2.14-.3,1.18-.09,2.35-.13,3.53-.2a31.43,31.43,0,0,1,8,.55,4.78,4.78,0,0,1,3.86,6,3.65,3.65,0,0,1-2.41,2.61c-.35.12-.69.27-1.32.52.52.32.83.54,1.16.71a20.53,20.53,0,0,1,2.41,1.26c1.29.92,1.5,2.41,1.77,3.94a3.53,3.53,0,0,0-.19.69c-.31,3.14-2.35,4.56-5.18,5.11a19.16,19.16,0,0,1-3.36.33c-3,0-5.91,0-8.87,0l-1.51,0,.1-.87,2.33-1a11.26,11.26,0,0,0,.3-1.78c0-4.62,0-9.25,0-13.87A8.44,8.44,0,0,0,90.47,46C89.72,45,88.46,45.48,88.06,44.05Zm7.26,17.49c.14.27.21.42.29.56a3.13,3.13,0,0,0,5.5.33,5.58,5.58,0,0,0,.58-4.94c-.62-2.28-4.12-3.82-6.22-2.52ZM95.53,53c2.6.33,4.37-.32,5-1.73a4.52,4.52,0,0,0-.8-5.07,3.83,3.83,0,0,0-4.28-.61A40.27,40.27,0,0,0,95.53,53Z"/>
  <path d="M27.4,55c1.3,2.3,2.5,4.57,3.83,6.77a4.93,4.93,0,0,0,3.54,2.55c.13,0,.24.19.37.3a.92.92,0,0,1-1,.85c-4.32.32-6.71-.64-8.71-4.35-.64-1.18-1.13-2.44-1.74-3.64C23,56,22.49,55.78,20.58,56.06c-.55,1.83-.09,3.77-.22,5.67a5.72,5.72,0,0,0,.6,2c2,.54,2,.54,2.2,1.36-1.36.44-8.72.44-9.88-.05.24-1.29,1.68-.71,2.49-1.77A113.15,113.15,0,0,0,15.68,46c-.44-1-2-.44-2.33-1.84,1-.1,1.83-.22,2.71-.26,1.77-.08,3.54,0,5.3-.17a17,17,0,0,1,5.58.61c3.16.82,4.65,3.24,4.13,6.47a3.85,3.85,0,0,1-1.54,2.55Zm-7-1c2.19,1,4.26.42,5.17-1.24a5.11,5.11,0,0,0,.64-2.14c.13-2.76-1-5.93-5.43-5.29C20,48.16,20.56,51.09,20.35,54Z"/>
  <path d="M110.47,69.66l5.84-2.26a13.66,13.66,0,0,1,.16,1.48c-.06,4.3-.16,8.59-.19,12.89,0,2,.1,4.08.21,6.11a8.38,8.38,0,0,0,.4,1.56l1.81-.17,0,1.17-6.18,1.14L112,90.19c-.41.16-.76.27-1.09.43a5.94,5.94,0,0,1-8.63-4.16,7.45,7.45,0,0,1,7.32-9c.74,0,1.49,0,2.43.06,0-1.1.08-2.1.11-3.1s0-1.93.06-2.82Zm-.56,9.22c-2.5,1-3.32,2.57-3.17,5.92a4.66,4.66,0,0,0,3.74,4.53l1.66-.72c0-.58,0-1.11,0-1.63,0-1.78-.07-3.55-.09-5.33S111.74,79.46,109.91,78.87Z"/>
  <path d="M49.6,41.74a5.05,5.05,0,0,0,.21-1.05c0-1.94.11-3.88,0-5.81a2.32,2.32,0,0,0-3.24-2.28c-.66.21-1.21.6-1.22,1.34,0,2.42,0,4.84,0,7.26a3,3,0,0,0,.29.88l1.74,1.1a13,13,0,0,1-4.24.4c-1.32.09-2.64,0-4-.06l0-.78L40.93,42a17.2,17.2,0,0,0,.18-1.84c0-4.95,0-9.89-.06-14.84A2.17,2.17,0,0,0,40,23.12c-.2-.11-.29-.41-.55-.81a51,51,0,0,1,5.78-2.22,54.15,54.15,0,0,1,.06,5.73c0,1.81,0,3.62,0,5.75l1.93-.91a5.54,5.54,0,0,1,4.07-.44,3.22,3.22,0,0,1,2.54,2.61,19.19,19.19,0,0,1,.24,2.89c0,1.4,0,2.8,0,4.2A16.52,16.52,0,0,0,54.42,42l2,.93c-.48.31-.76.65-1,.65-2.36,0-4.71-.08-7.07-.13C47.83,42.27,49.08,42.53,49.6,41.74Z"/>
  <path d="M43.55,90.25a9.83,9.83,0,0,1-1-5.64,1.17,1.17,0,0,1,1.45.72c.4.7.79,1.4,1.21,2.09A5.31,5.31,0,0,0,49,89.9a3,3,0,0,0,3.7-2.25c.1-.31.19-.62.26-.84a5.18,5.18,0,0,0-2.68-4.26c-.92-.56-1.84-1.11-2.79-1.61a7.21,7.21,0,0,1-3.81-4.55,5.44,5.44,0,0,1,2.69-6.46A11.58,11.58,0,0,1,56,69.75a18.86,18.86,0,0,1,.76,4.49l-1.25.12c-.56-.9-1-1.75-1.6-2.52a3.63,3.63,0,0,0-5.16-.71,7.84,7.84,0,0,0-1.22,1.64A4.64,4.64,0,0,0,49.9,76.6c.88.52,1.81,1,2.66,1.52a22.77,22.77,0,0,1,3.07,2.33c3,2.91,2.72,8.53-2.74,10.39A12.73,12.73,0,0,1,43.55,90.25Z"/>
  <path d="M41.81,65.68a7.69,7.69,0,0,1-4.3-1.25c-2.77-1.73-3.17-5.43-2.37-7.89,1.3-4,6-5.33,9.07-4.57a10.51,10.51,0,0,1,2.12.76c2.87,1.42,3.73,4.15,3.26,7.38C49,64,46,65.8,41.81,65.68ZM43.63,64A8.34,8.34,0,0,0,44.69,62a13.41,13.41,0,0,0-.27-6.54,2.61,2.61,0,0,0-2.19-2.11c-1.25-.1-1.68,1-2.2,1.84a1.55,1.55,0,0,0-.2.44c-.63,2.93-.61,5.75,1.51,8.37Z"/>
  <path d="M51.91,58.86c-.29-3.94,2.83-6.61,6.32-7a8,8,0,0,1,5.43,1.11c2.7,1.75,3.27,4.37,2.81,7.35s-2.41,4.44-5.1,5.17a8.91,8.91,0,0,1-5.25-.28A5.84,5.84,0,0,1,51.91,58.86Zm8.48,5.23a2.28,2.28,0,0,0,1.23-2c.07-1.82.14-3.64.07-5.45A5.06,5.06,0,0,0,61,54.5a1.9,1.9,0,0,0-3.53,0,8.59,8.59,0,0,0,.15,8.32A2.23,2.23,0,0,0,60.39,64.09Z"/>
  <path d="M121.27,57.34l-7.8.16c-.1.51-.39,1.08-.24,1.47a11.59,11.59,0,0,0,1.56,2.94c.8,1,2.1.89,3.28,1,1.41.14,2.06-1,3-1.73l.66.78c-2.14,5.08-9.3,4.5-11.54,1a8,8,0,0,1,.44-8.65,7,7,0,0,1,7.87-2.11A4.56,4.56,0,0,1,121.49,56,4.84,4.84,0,0,1,121.27,57.34Zm-3.84-1.42c.42-1.83.07-2.31-1.81-2.79-1,.58-2.08,1.18-2.29,2.7Z"/>
  <path d="M69.84,35.55l-7.9.22a4.32,4.32,0,0,0,1.73,4.8,3.56,3.56,0,0,0,3.08.58,18.37,18.37,0,0,0,2.79-1.48c.54.6.61,1,.07,1.63a6.31,6.31,0,0,1-4.34,2.54c-2.55.25-4.89-.28-6.42-2.54a7.27,7.27,0,0,1,6.46-11.38,5.08,5.08,0,0,1,4.47,4A10.78,10.78,0,0,1,69.84,35.55Zm-4-1.59a1.5,1.5,0,0,0-.5-2.12c-1.09-.71-2-.23-3,.57l-.46,1.46C63.23,34.74,64.5,34.29,65.81,34Z"/>
  <path d="M127.23,57.64a4.23,4.23,0,0,0,2,4.66,5.15,5.15,0,0,0,2.93.57,9.22,9.22,0,0,0,2.69-1.54.76.76,0,0,1,.33,1.32c-1.28,1.63-2.69,3.12-5,3a14.07,14.07,0,0,1-2.56-.24c-3.29-.81-4.86-3.89-4.59-7.19.38-4.64,4.58-7.29,9.23-6.07a4.21,4.21,0,0,1,2.58,5.11c-.4,0-.86.11-1.33.11-1.61,0-3.23,0-4.84,0A9.1,9.1,0,0,0,127.23,57.64Zm4.09-1.74c.33-1.6.06-2.24-.93-2.55s-2.42.54-3.14,2.38C128.61,56.25,129.94,55.88,131.32,55.91Z"/>
  <path d="M76.61,63.55l2-.63a1.33,1.33,0,0,1-.84,1.82,9.22,9.22,0,0,1-4.38.9,3,3,0,0,1-3-3.17c-.05-2.31-.06-4.63-.1-6.94,0-.47-.1-.94-.15-1.39L68,53.52c1.06-1.19,2.47-1.35,3.38-2.21s1.73-1.7,2.63-2.59c.94,1,.31,2.11.62,3,1,1.28,2.53-.13,3.68.8l-.08,1.16c-.68,0-1.31.08-1.93.14s-1.11.15-1.56.21c-.05,2.47-.18,4.72-.12,7A2.59,2.59,0,0,0,76.61,63.55Z"/>
  <path d="M30.28,32.59l-1.73-.48c-.35-.69,0-1,.47-1.22a8.31,8.31,0,0,0,4.21-3.35.82.82,0,0,1,1.24-.3l.22,3.31,3.72.08-.28,1.58-3.57.19c0,.64,0,1.11,0,1.59,0,1.61,0,3.23,0,4.84a3,3,0,0,0,1.9,3.06l2.13-.39a1,1,0,0,1-.6,1.33A6.53,6.53,0,0,1,33.38,44c-2.15-.34-3-1.34-3-3.49s0-4.09,0-6.14C30.39,33.74,30.32,33.16,30.28,32.59Z"/>
  <path d="M68.32,88.66c0,2.19-3.57,3.17-6.93,2.13a3.78,3.78,0,0,1-1-2.61c-.08-2.09-.13-4.19-.18-6.28,0-.59,0-1.17,0-1.86l-2.33-.85A5.45,5.45,0,0,1,59,78.3,12.13,12.13,0,0,0,63,75a.92.92,0,0,1,1.25-.29l.39,3,3.39.24.09,1.55-3.91.23c.27,3.1-.52,6.12.92,9l1.32.56Z"/>
  <path d="M142.88,63.91l2.14.57,0,1-8.44-.18,0-.92,1.36-.37c.12-.19.26-.32.28-.46.08-.69.17-1.38.19-2.07,0-1.45,0-2.91,0-4.36,0-1.22,0-2.41-1.42-3,.23-.39.33-.78.54-.87,1.58-.65,3.18-1.24,5-1.92l0,1.74c.57.38.85,0,1.22-.19a8.11,8.11,0,0,1,2-.91,1.66,1.66,0,0,1,2.15,1.18,1.88,1.88,0,0,1-1.24,2.44,7,7,0,0,1-.77.19l-2.56-1.17a4.11,4.11,0,0,0-.53,1.22A47.18,47.18,0,0,0,142.88,63.91Z"/>
</svg>
