<svg width="100%" height="100%" viewBox="0 0 729 167" version="1.1" xmlns="http://www.w3.org/2000/svg" xmlns:xlink="http://www.w3.org/1999/xlink" xml:space="preserve" xmlns:serif="http://www.serif.com/"><title>Trestlewood Pediatrics</title><g clip-path="url(#_clip1)"><g serif:id="Layer 1"><path d="M47.517,82.832c1.86,-1.49 -0.745,-9.301 6.326,-9.301c4.109,-0 3.72,5.581 3.72,5.581c-0,-0 -0.163,5.955 -0,12.647c0.371,15.256 16.368,14.141 16.368,14.141c12.281,-1.119 14.141,-6.326 14.882,-7.816c2.234,-4.464 1.86,-15.252 1.86,-15.252c-0,-0 -0.741,-8.556 4.84,-8.931c4.454,-0.294 5.206,4.466 5.206,4.466c-0,-0 -0.37,12.277 0.745,16.742c1.744,6.973 7.441,10.791 16.742,10.417c8.931,-0.357 15.627,-5.952 15.627,-15.998l-0,-14.137l19.718,-0l-0,-43.16l-11.907,-0l-0,-31.994l-55.432,-0l-0,31.624l-20.652,-0l-0,-13.581l-6.881,-6.882l-10.417,-0l-7.071,7.071l-0,13.392l-8.926,-0l-0,-28.649l-20.837,-0l-0,14.138l2.975,-0l-0,11.906l-9.206,3.35l-0,21.672l-5.116,5.116l-0,11.347l12.092,12.091l35.344,-0Zm47.251,-70.69l3.346,-3.72l14.511,-0l2.976,2.976l-0,20.832l-20.833,0l-0,-20.087Z"/><path d="M15.708,105.696c5.228,0 9.472,-4.244 9.472,-9.473c-0,-5.231 -4.244,-9.471 -9.472,-9.471c-5.232,0 -9.472,4.24 -9.472,9.471c-0,5.229 4.24,9.473 9.472,9.473"/><path d="M40.447,106.626c5.231,-0 9.471,-4.243 9.471,-9.472c0,-5.232 -4.24,-9.472 -9.472,-9.472c-5.228,-0 -9.468,4.24 -9.468,9.472c0,5.229 4.24,9.472 9.468,9.472"/><path d="M201.172,105.899c5.232,0 9.472,-4.244 9.472,-9.472c0,-5.232 -4.24,-9.472 -9.472,-9.472c-5.229,0 -9.472,4.24 -9.472,9.472c0,5.228 4.243,9.472 9.472,9.472"/><path d="M225.729,105.881c5.229,-0 9.468,-4.24 9.468,-9.472c0,-5.228 -4.239,-9.468 -9.468,-9.468c-5.232,-0 -9.472,4.24 -9.472,9.468c0,5.232 4.24,9.472 9.472,9.472"/><path d="M284.883,105.889c5.232,-0 9.471,-4.24 9.471,-9.472c0,-5.228 -4.239,-9.468 -9.471,-9.468c-5.228,-0 -9.472,4.24 -9.472,9.468c-0,5.232 4.243,9.472 9.471,9.472"/><path d="M309.44,105.87c5.228,0 9.468,-4.236 9.468,-9.468c0,-5.232 -4.24,-9.472 -9.468,-9.472c-5.232,0 -9.472,4.24 -9.472,9.472c0,5.232 4.24,9.468 9.472,9.468"/><path d="M166.943,89.898l-0,-62.129l42.785,-10.046l91.897,0l42.041,11.161l-0,61.014l-176.723,0Zm148.11,-56.547l0,46.875l-119.521,0l0,-46.875l119.521,-0Zm-139.55,-0.001l14.137,-0l0,46.876l-14.137,-0l0,-46.876Zm145.469,-0l14.137,-0l-0,46.876l-14.137,-0l-0,-46.876Zm-33.484,8.622l18.602,0l-0,18.603l-18.602,0l-0,-18.603Zm-83.34,-0.066l18.602,-0l-0,18.603l-18.602,-0l-0,-18.603Zm55.806,-0.087l18.603,0l-0,18.603l-18.603,0l-0,-18.603Zm-28.172,-0.098l18.602,-0l-0,18.602l-18.602,-0l-0,-18.602Z"/><path d="M393.336,105.899c5.225,0 9.469,-4.244 9.469,-9.472c-0,-5.232 -4.244,-9.472 -9.469,-9.472c-5.231,0 -9.475,4.24 -9.475,9.472c-0,5.228 4.244,9.472 9.475,9.472"/><path d="M417.889,105.881c5.232,-0 9.469,-4.24 9.469,-9.472c0,-5.228 -4.237,-9.468 -9.469,-9.468c-5.231,-0 -9.476,4.24 -9.476,9.468c0,5.232 4.245,9.472 9.476,9.472"/><path d="M477.047,105.889c5.225,-0 9.469,-4.24 9.469,-9.472c-0,-5.228 -4.244,-9.468 -9.469,-9.468c-5.231,-0 -9.476,4.24 -9.476,9.468c-0,5.232 4.245,9.472 9.476,9.472"/><path d="M501.6,105.87c5.232,0 9.469,-4.236 9.469,-9.468c0,-5.232 -4.237,-9.472 -9.469,-9.472c-5.231,0 -9.476,4.24 -9.476,9.472c0,5.232 4.245,9.468 9.476,9.468"/><path d="M359.107,89.898l0,-62.129l42.781,-10.046l91.901,0l42.037,11.161l0,61.014l-176.719,0Zm148.104,-56.548l-0,46.876l-119.521,0l-0,-46.876l119.521,0Zm-139.547,0l14.133,0l-0,46.876l-14.133,-0l-0,-46.876Zm145.468,0l14.141,0l-0,46.876l-14.141,-0l-0,-46.876Zm-33.484,8.622l18.603,0l-0,18.603l-18.603,0l-0,-18.603Zm-83.34,-0.066l18.603,-0l-0,18.603l-18.603,-0l-0,-18.603Zm55.806,-0.087l18.603,0l-0,18.603l-18.603,0l0,-18.603Zm-28.171,-0.098l18.603,-0l-0,18.602l-18.603,-0l-0,-18.602Z"/><path d="M586.052,105.899c5.232,0 9.476,-4.244 9.476,-9.472c0,-5.232 -4.244,-9.472 -9.476,-9.472c-5.225,0 -9.469,4.24 -9.469,9.472c0,5.228 4.244,9.472 9.469,9.472"/><path d="M610.606,105.881c5.231,-0 9.476,-4.24 9.476,-9.472c0,-5.228 -4.245,-9.468 -9.476,-9.468c-5.225,-0 -9.468,4.24 -9.468,9.468c0,5.232 4.243,9.472 9.468,9.472"/><path d="M669.763,105.889c5.231,-0 9.476,-4.24 9.476,-9.472c0,-5.228 -4.245,-9.468 -9.476,-9.468c-5.225,-0 -9.469,4.24 -9.469,9.468c0,5.232 4.244,9.472 9.469,9.472"/><path d="M694.317,105.87c5.231,0 9.476,-4.236 9.476,-9.468c0,-5.232 -4.245,-9.472 -9.476,-9.472c-5.225,0 -9.469,4.24 -9.469,9.472c0,5.232 4.244,9.468 9.469,9.468"/><path d="M551.827,89.898l-0,-62.129l42.786,-10.046l91.893,0l42.044,11.161l-0,61.014l-176.723,0Zm148.107,-56.548l0,46.876l-119.521,0l0,-46.876l119.521,0Zm5.922,0l14.134,0l-0,46.876l-14.134,-0l-0,-46.876Zm-145.477,0l14.141,0l-0,46.876l-14.141,-0l-0,-46.876Zm111.992,8.622l18.603,0l-0,18.603l-18.603,0l-0,-18.603Zm-83.34,-0.066l18.603,-0l-0,18.603l-18.603,-0l-0,-18.603Zm55.807,-0.087l18.603,0l0,18.603l-18.603,0l0,-18.603Zm-28.172,-0.098l18.603,-0l-0,18.602l-18.603,-0l-0,-18.602Z"/><path d="M20.093,158.721c0,2.109 0.05,3.466 0.352,4.068c0.2,0.403 0.753,0.604 2.059,0.703l1.859,0.152l0,2.009c-2.06,-0.05 -4.823,-0.151 -7.787,-0.151c-3.013,-0 -5.776,0.101 -7.836,0.151l0,-2.009l1.859,-0.152c1.306,-0.099 1.858,-0.3 2.059,-0.703c0.302,-0.602 0.352,-1.959 0.352,-4.068l0,-24.312l-5.877,-0c-1.356,-0 -2.763,-0 -3.114,0.452c-0.201,0.251 -0.403,0.653 -0.452,1.206l-0.252,3.466l-2.009,-0c-0.101,-3.266 -0.251,-5.577 -0.653,-7.988l0.301,-0.251c5.275,0.05 10.499,0.151 15.572,0.151c5.124,-0 10.348,-0.101 15.623,-0.151l0.301,0.251c-0.402,2.411 -0.553,4.722 -0.653,7.988l-2.01,-0l-0.251,-3.466c-0.05,-0.553 -0.251,-0.955 -0.452,-1.206c-0.351,-0.452 -1.758,-0.452 -3.114,-0.452l-5.877,-0l0,24.312Z"/><path d="M39.529,138.226c0,-2.109 -0.05,-3.466 -0.352,-4.068c-0.251,-0.502 -0.753,-0.754 -2.059,-0.854l-1.859,-0.151l0,-1.859c3.315,0.05 5.877,0.151 8.439,0.151c3.416,-0 6.781,-0.101 10.197,-0.151c5.124,-0.1 9.845,1.457 9.845,7.435c0,4.42 -3.315,7.384 -7.484,8.891l9.092,13.763c0.351,0.553 0.904,1.106 1.457,1.558c0.452,0.351 1.105,0.502 2.059,0.703l0,2.009c-1.607,-0.05 -3.265,-0.151 -4.872,-0.151c-1.507,-0 -3.014,0.101 -4.521,0.151l-11.252,-17.43l0.352,-0.904c4.621,0.401 8.037,-2.462 8.037,-7.184c0,-4.119 -2.864,-6.329 -6.782,-6.329c-1.055,-0 -2.411,0.05 -3.214,0.452l0,24.463c0,2.109 0.05,3.466 0.351,4.068c0.201,0.403 0.754,0.604 2.06,0.704l1.858,0.151l0,2.009c-2.06,-0.05 -4.822,-0.151 -7.786,-0.151c-3.014,-0 -5.776,0.101 -7.836,0.151l0,-2.009l1.859,-0.151c1.306,-0.1 1.858,-0.301 2.059,-0.704c0.302,-0.602 0.352,-1.959 0.352,-4.068l0,-20.495Z"/><path d="M82.874,146.414c1.155,0.101 2.26,0.101 3.366,0.101l3.315,0c1.758,0 2.762,-0.101 2.863,-1.056l0.301,-2.863l2.009,0c-0.05,1.808 -0.15,3.567 -0.15,5.375c0,1.808 0.1,3.617 0.15,5.425l-2.009,0l-0.301,-2.511c-0.151,-1.408 -1.105,-1.86 -2.863,-1.86l-3.315,0c-1.106,0 -2.211,0.051 -3.366,0.152l0,13.412c2.11,0.1 4.27,0.15 6.43,0.15c2.31,0 6.028,-0.452 6.128,-0.854l1.155,-4.722l1.959,0l-0.552,7.937l-0.251,0.402c-3.265,0.251 -9.092,0.251 -12.357,0.15c-2.06,-0.05 -4.119,-0.15 -6.179,-0.15c-2.11,0 -4.169,0.1 -6.028,0.15l0,-1.155l1.608,-0.904c0.803,-0.452 1.004,-1.306 1.004,-2.864l0,-22.503c0,-2.11 -0.05,-3.466 -0.352,-4.069c-0.251,-0.502 -0.753,-0.754 -2.059,-0.853l-1.859,-0.152l0,-1.858c3.316,0.05 5.878,0.15 7.837,0.15c4.722,0 8.137,-0.1 11,-0.15c2.813,-0.05 5.024,-0.05 7.334,0.15l0.302,0.352l-0.703,7.134l-1.809,0l-0.401,-3.768c-0.101,-0.754 -3.467,-0.955 -5.777,-0.955c-2.16,0 -4.32,0.051 -6.43,0.151l0,12.056Z"/><path d="M105.877,155.355l0.352,4.42c1.356,2.31 5.274,3.868 7.886,3.868c4.27,0 7.887,-2.261 7.887,-6.631c-0,-2.16 -1.307,-3.817 -4.17,-4.672l-7.032,-2.109c-4.22,-1.256 -7.334,-4.22 -7.334,-8.539c-0,-8.037 5.977,-11.102 13.261,-11.102c3.114,0 6.43,0.553 9.343,1.708l0.251,0.603c-0.502,1.607 -0.703,4.52 -0.703,7.133l-2.059,0l-0.302,-4.119c-1.507,-1.708 -4.319,-2.763 -6.681,-2.763c-4.671,0 -6.882,2.713 -6.882,6.078c-0,2.261 1.608,3.918 5.325,4.873l5.727,1.507c4.621,1.205 7.585,4.119 7.585,8.64c-0,8.539 -7.083,12.105 -14.718,12.105c-3.617,0 -7.284,-0.753 -10.499,-2.311c0.603,-2.962 0.754,-5.826 0.754,-8.689l2.009,0Z"/><path d="M151.232,158.721c0,2.109 0.05,3.466 0.352,4.068c0.201,0.403 0.753,0.604 2.059,0.703l1.859,0.152l0,2.009c-2.06,-0.05 -4.822,-0.151 -7.786,-0.151c-3.014,-0 -5.776,0.101 -7.836,0.151l0,-2.009l1.858,-0.152c1.306,-0.099 1.859,-0.3 2.06,-0.703c0.301,-0.602 0.351,-1.959 0.351,-4.068l0,-24.312l-5.876,-0c-1.357,-0 -2.763,-0 -3.115,0.452c-0.201,0.251 -0.402,0.653 -0.452,1.206l-0.251,3.466l-2.01,-0c-0.1,-3.266 -0.251,-5.577 -0.652,-7.988l0.301,-0.251c5.274,0.05 10.498,0.151 15.572,0.151c5.124,-0 10.348,-0.101 15.622,-0.151l0.301,0.251c-0.401,2.411 -0.552,4.722 -0.653,7.988l-2.009,-0l-0.251,-3.466c-0.05,-0.553 -0.251,-0.955 -0.452,-1.206c-0.352,-0.452 -1.759,-0.452 -3.115,-0.452l-5.877,-0l0,24.312Z"/><path d="M177.751,162.589c2.11,0.101 4.27,0.15 6.43,0.15c2.31,-0 6.028,-0.452 6.128,-0.854l1.155,-5.123l1.959,-0l-0.552,8.338l-0.251,0.402c-3.265,0.251 -9.093,0.251 -12.357,0.15c-2.06,-0.049 -4.119,-0.15 -6.179,-0.15c-2.11,-0 -4.169,0.101 -6.028,0.15l-0,-1.155l1.608,-0.904c0.803,-0.452 1.004,-1.306 1.004,-2.863l-0,-22.504c-0,-2.11 -0.05,-3.466 -0.352,-4.069c-0.2,-0.401 -0.753,-0.602 -2.059,-0.703l-1.859,-0.15l-0,-2.01c2.06,0.05 4.823,0.15 7.837,0.15c2.963,-0 5.726,-0.1 7.786,-0.15l-0,2.01l-1.859,0.15c-1.306,0.101 -1.858,0.302 -2.059,0.703c-0.302,0.603 -0.352,1.959 -0.352,4.069l-0,24.363Z"/><path d="M208.439,146.414c1.155,0.101 2.26,0.101 3.366,0.101l3.315,0c1.758,0 2.762,-0.101 2.863,-1.056l0.301,-2.863l2.009,0c-0.05,1.808 -0.15,3.567 -0.15,5.375c-0,1.808 0.1,3.617 0.15,5.425l-2.009,0l-0.301,-2.511c-0.151,-1.408 -1.105,-1.86 -2.863,-1.86l-3.315,0c-1.106,0 -2.211,0.051 -3.366,0.152l-0,13.412c2.11,0.1 4.27,0.15 6.43,0.15c2.31,0 6.028,-0.452 6.128,-0.854l1.155,-4.722l1.959,0l-0.552,7.937l-0.251,0.402c-3.265,0.251 -9.092,0.251 -12.357,0.15c-2.06,-0.05 -4.119,-0.15 -6.179,-0.15c-2.11,0 -4.169,0.1 -6.028,0.15l-0,-1.155l1.608,-0.904c0.803,-0.452 1.004,-1.306 1.004,-2.864l-0,-22.503c-0,-2.11 -0.05,-3.466 -0.352,-4.069c-0.251,-0.502 -0.753,-0.754 -2.059,-0.853l-1.859,-0.152l-0,-1.858c3.316,0.05 5.878,0.15 7.837,0.15c4.722,0 8.137,-0.1 11,-0.15c2.813,-0.05 5.024,-0.05 7.334,0.15l0.302,0.352l-0.703,7.134l-1.809,0l-0.401,-3.768c-0.101,-0.754 -3.467,-0.955 -5.777,-0.955c-2.16,0 -4.32,0.051 -6.43,0.151l-0,12.056Z"/><path d="M249.424,137.271c0.854,-2.06 1.708,-4.169 2.562,-6.229l2.26,0c0.804,2.311 1.608,4.521 2.462,6.681l6.831,17.079l0.101,0l4.822,-18.837c0.151,-0.602 0.201,-1.054 0.201,-1.658c-0,-0.602 -0.904,-0.954 -1.758,-1.004l-2.311,-0.151l-0,-1.859c2.261,0.05 4.019,0.151 5.425,0.151c1.357,0 3.114,-0.101 5.425,-0.151l-0,1.859l-1.657,0.151c-0.905,0.1 -1.558,1.356 -2.16,3.466l-6.129,21.7c-0.653,2.361 -1.105,4.772 -1.657,7.183l-3.667,0c-0.653,-1.758 -1.206,-3.516 -1.909,-5.275l-7.485,-18.836l-7.786,17.833c-0.903,2.059 -1.557,4.168 -2.361,6.278l-3.516,0l-6.982,-30.239c-0.352,-1.457 -0.954,-2.01 -1.858,-2.11l-1.608,-0.151l-0,-1.859c3.316,0.05 5.877,0.151 7.836,0.151c1.96,0 4.471,-0.101 6.731,-0.151l-0,1.859l-2.109,0.151c-0.654,0.05 -1.507,0.603 -1.507,1.155c-0,0.352 0.05,0.854 0.15,1.407l4.069,19.088l0.101,0l7.484,-17.682Z"/><path d="M285.937,147.921c0,8.288 3.466,15.622 10.549,15.622c9.343,-0 11.553,-6.932 11.553,-14.467c0,-8.288 -3.466,-15.673 -10.548,-15.673c-9.344,-0 -11.554,6.983 -11.554,14.518m29.637,0.251c0,11.854 -7.585,18.184 -19.088,18.184c-11.252,-0 -18.084,-6.128 -18.084,-17.581c0,-11.855 7.585,-18.184 19.089,-18.184c11.252,-0 18.083,6.128 18.083,17.581"/><path d="M327.776,147.921c-0,8.288 3.466,15.622 10.549,15.622c9.343,-0 11.553,-6.932 11.553,-14.467c-0,-8.288 -3.466,-15.673 -10.548,-15.673c-9.344,-0 -11.554,6.983 -11.554,14.518m29.637,0.251c-0,11.854 -7.585,18.184 -19.088,18.184c-11.252,-0 -18.084,-6.128 -18.084,-17.581c-0,-11.855 7.585,-18.184 19.089,-18.184c11.252,-0 18.083,6.128 18.083,17.581"/><path d="M372.829,162.639c1.457,0.251 2.913,0.251 4.32,0.251c9.996,-0 14.517,-4.923 14.517,-14.969c-0,-9.946 -4.32,-14.115 -15.773,-14.115c-1.004,-0 -2.008,0.05 -3.064,0.201l-0,28.632Zm-7.083,-24.413c-0,-2.109 -0.05,-3.466 -0.352,-4.068c-0.251,-0.502 -0.753,-0.754 -2.059,-0.854l-1.858,-0.151l-0,-1.859c3.315,0.05 5.876,0.151 7.835,0.151c3.266,-0 8.491,-0.151 12.911,-0.151c10.799,-0 16.978,4.421 16.978,15.673c-0,12.155 -10.146,18.887 -20.896,18.686c-2.512,-0.05 -4.973,-0.151 -7.485,-0.151c-2.512,-0 -4.972,0.101 -7.685,0.151l-0,-1.156l1.607,-0.904c0.804,-0.452 1.004,-1.306 1.004,-2.863l-0,-22.504Z"/><path d="M421.597,138.226c0,-2.109 -0.05,-3.466 -0.352,-4.068c-0.251,-0.502 -0.752,-0.754 -2.059,-0.854l-1.859,-0.151l0,-1.859c3.316,0.05 5.877,0.151 7.836,0.151c3.416,-0 6.782,-0.101 10.198,-0.151c5.124,-0.1 9.845,1.457 9.845,7.435c0,6.681 -5.173,10.749 -11.603,10.749c-0.904,-0 -1.859,-0.251 -2.612,-0.352l-0.854,-1.757l0.502,-0.502c0.703,0.1 1.406,0.3 2.109,0.3c3.567,-0 5.225,-3.164 5.225,-6.329c0,-4.119 -1.507,-7.032 -6.078,-7.032c-1.055,-0 -2.411,0.05 -3.215,0.452l0,24.463c0,2.109 0.05,3.466 0.352,4.068c0.201,0.403 0.753,0.604 2.059,0.704l2.361,0.151l0,2.009c-2.562,-0.05 -5.325,-0.151 -8.289,-0.151c-3.013,-0 -5.776,0.101 -7.836,0.151l0,-2.009l1.859,-0.151c1.307,-0.1 1.858,-0.301 2.059,-0.704c0.302,-0.602 0.352,-1.959 0.352,-4.068l0,-20.495Z"/><path d="M459.368,146.414c1.155,0.101 2.261,0.101 3.365,0.101l3.316,0c1.757,0 2.762,-0.101 2.863,-1.056l0.302,-2.863l2.008,0c-0.049,1.808 -0.15,3.567 -0.15,5.375c-0,1.808 0.101,3.617 0.15,5.425l-2.008,0l-0.302,-2.511c-0.15,-1.408 -1.106,-1.86 -2.863,-1.86l-3.316,0c-1.104,0 -2.21,0.051 -3.365,0.152l-0,13.412c2.109,0.1 4.27,0.15 6.43,0.15c2.31,0 6.027,-0.452 6.128,-0.854l1.155,-4.722l1.959,0l-0.552,7.937l-0.252,0.402c-3.264,0.251 -9.092,0.251 -12.356,0.15c-2.06,-0.05 -4.119,-0.15 -6.179,-0.15c-2.109,0 -4.169,0.1 -6.027,0.15l-0,-1.155l1.607,-0.904c0.803,-0.452 1.004,-1.306 1.004,-2.864l-0,-22.503c-0,-2.11 -0.05,-3.466 -0.352,-4.069c-0.251,-0.502 -0.753,-0.754 -2.059,-0.853l-1.859,-0.152l-0,-1.858c3.316,0.05 5.877,0.15 7.836,0.15c4.722,0 8.138,-0.1 11.001,-0.15c2.814,-0.05 5.024,-0.05 7.334,0.15l0.302,0.352l-0.703,7.134l-1.809,0l-0.402,-3.768c-0.101,-0.754 -3.466,-0.955 -5.776,-0.955c-2.16,0 -4.321,0.051 -6.43,0.151l-0,12.056Z"/><path d="M489.854,162.639c1.457,0.251 2.914,0.251 4.32,0.251c9.996,-0 14.517,-4.923 14.517,-14.969c0,-9.946 -4.319,-14.115 -15.773,-14.115c-1.004,-0 -2.009,0.05 -3.064,0.201l0,28.632Zm-7.083,-24.413c0,-2.109 -0.05,-3.466 -0.352,-4.068c-0.251,-0.502 -0.753,-0.754 -2.058,-0.854l-1.86,-0.151l0,-1.859c3.316,0.05 5.877,0.151 7.837,0.151c3.265,-0 8.49,-0.151 12.91,-0.151c10.799,-0 16.978,4.421 16.978,15.673c0,12.155 -10.146,18.887 -20.896,18.686c-2.512,-0.05 -4.973,-0.151 -7.485,-0.151c-2.512,-0 -4.973,0.101 -7.685,0.151l0,-1.156l1.607,-0.904c0.804,-0.452 1.004,-1.306 1.004,-2.863l0,-22.504Z"/><path d="M531.893,158.721c0,2.109 0.05,3.466 0.352,4.068c0.201,0.403 0.753,0.604 2.059,0.703l1.859,0.152l0,2.009c-2.06,-0.05 -4.823,-0.151 -7.787,-0.151c-3.013,-0 -5.776,0.101 -7.836,0.151l0,-2.009l1.859,-0.152c1.306,-0.099 1.858,-0.3 2.059,-0.703c0.302,-0.602 0.352,-1.959 0.352,-4.068l0,-20.495c0,-2.109 -0.05,-3.466 -0.352,-4.068c-0.201,-0.402 -0.753,-0.603 -2.059,-0.704l-1.859,-0.15l0,-2.01c2.06,0.05 4.823,0.151 7.836,0.151c2.964,-0 5.727,-0.101 7.787,-0.151l0,2.01l-1.859,0.15c-1.306,0.101 -1.858,0.302 -2.059,0.704c-0.302,0.602 -0.352,1.959 -0.352,4.068l0,20.495Z"/><path d="M550.276,152.341l10.247,-0l-5.224,-12.759l-5.023,12.759Zm-1.206,2.813l-2.109,5.626c-0.704,1.91 0.301,2.813 1.205,2.864l2.511,0.15l0,1.859c-2.411,-0.05 -4.218,-0.151 -5.675,-0.151c-1.457,-0 -3.266,0.101 -5.676,0.151l0,-1.859l1.507,-0.15c1.305,-0.152 2.21,-1.558 2.812,-3.014l9.092,-22.002l1.307,-3.466l0.803,-2.059l0.753,-2.06l3.567,-0l13.01,30.391c0.552,1.256 1.205,2.009 2.763,2.21l1.205,0.15l0,1.859c-3.365,-0.05 -5.827,-0.151 -7.786,-0.151c-1.959,-0 -4.471,0.101 -7.785,0.151l0,-1.859l2.662,-0.15c0.804,-0.051 1.356,-1.156 0.703,-2.763l-2.261,-5.727l-12.608,-0Z"/><path d="M592.88,158.721c-0,2.109 0.05,3.466 0.352,4.068c0.201,0.403 0.752,0.604 2.059,0.703l1.859,0.152l-0,2.009c-2.06,-0.05 -4.823,-0.151 -7.787,-0.151c-3.013,-0 -5.776,0.101 -7.836,0.151l-0,-2.009l1.859,-0.152c1.306,-0.099 1.858,-0.3 2.059,-0.703c0.302,-0.602 0.352,-1.959 0.352,-4.068l-0,-24.312l-5.877,-0c-1.356,-0 -2.763,-0 -3.114,0.452c-0.201,0.251 -0.403,0.653 -0.452,1.206l-0.251,3.466l-2.01,-0c-0.101,-3.266 -0.251,-5.577 -0.653,-7.988l0.301,-0.251c5.275,0.05 10.499,0.151 15.573,0.151c5.123,-0 10.347,-0.101 15.622,-0.151l0.3,0.251c-0.401,2.411 -0.551,4.722 -0.652,7.988l-2.01,-0l-0.251,-3.466c-0.049,-0.553 -0.251,-0.955 -0.452,-1.206c-0.351,-0.452 -1.758,-0.452 -3.114,-0.452l-5.877,-0l-0,24.312Z"/><path d="M612.315,138.226c0,-2.109 -0.05,-3.466 -0.352,-4.068c-0.251,-0.502 -0.752,-0.754 -2.059,-0.854l-1.859,-0.151l0,-1.859c3.316,0.05 5.877,0.151 8.44,0.151c3.415,-0 6.781,-0.101 10.196,-0.151c5.124,-0.1 9.846,1.457 9.846,7.435c0,4.42 -3.316,7.384 -7.484,8.891l9.091,13.763c0.352,0.553 0.905,1.106 1.457,1.558c0.453,0.351 1.105,0.502 2.06,0.703l0,2.009c-1.607,-0.05 -3.266,-0.151 -4.873,-0.151c-1.507,-0 -3.014,0.101 -4.521,0.151l-11.252,-17.43l0.352,-0.904c4.621,0.401 8.037,-2.462 8.037,-7.184c0,-4.119 -2.863,-6.329 -6.781,-6.329c-1.055,-0 -2.411,0.05 -3.215,0.452l0,24.463c0,2.109 0.05,3.466 0.352,4.068c0.201,0.403 0.753,0.604 2.059,0.704l1.859,0.151l0,2.009c-2.06,-0.05 -4.823,-0.151 -7.787,-0.151c-3.013,-0 -5.776,0.101 -7.836,0.151l0,-2.009l1.859,-0.151c1.307,-0.1 1.858,-0.301 2.059,-0.704c0.302,-0.602 0.352,-1.959 0.352,-4.068l0,-20.495Z"/><path d="M655.661,158.721c-0,2.109 0.05,3.466 0.352,4.068c0.201,0.403 0.753,0.604 2.059,0.703l1.859,0.152l-0,2.009c-2.06,-0.05 -4.823,-0.151 -7.787,-0.151c-3.013,-0 -5.776,0.101 -7.836,0.151l-0,-2.009l1.859,-0.152c1.306,-0.099 1.858,-0.3 2.059,-0.703c0.302,-0.602 0.352,-1.959 0.352,-4.068l-0,-20.495c-0,-2.109 -0.05,-3.466 -0.352,-4.068c-0.201,-0.402 -0.753,-0.603 -2.059,-0.704l-1.859,-0.15l-0,-2.01c2.06,0.05 4.823,0.151 7.836,0.151c2.964,-0 5.727,-0.101 7.787,-0.151l-0,2.01l-1.859,0.15c-1.306,0.101 -1.858,0.302 -2.059,0.704c-0.302,0.602 -0.352,1.959 -0.352,4.068l-0,20.495Z"/><path d="M695.543,163.593c-3.466,2.11 -7.535,2.763 -11.553,2.763c-11.453,-0 -19.892,-6.43 -19.892,-18.435c-0,-11.554 9.393,-17.33 20.092,-17.33c4.12,-0 7.485,0.352 12.307,2.36l0.302,0.553c-0.502,1.809 -0.904,5.526 -1.155,7.686l-1.959,-0l-0.251,-4.32c-2.462,-2.562 -5.626,-3.466 -9.042,-3.466c-8.339,-0 -12.759,5.927 -12.759,13.864c-0,9.192 5.324,15.823 14.818,15.823c2.964,-0 7.032,-1.055 9.594,-2.561l0.603,0.602l-1.105,2.461Z"/><path d="M703.776,155.355l0.352,4.42c1.356,2.31 5.274,3.868 7.886,3.868c4.27,0 7.886,-2.261 7.886,-6.631c0,-2.16 -1.306,-3.817 -4.169,-4.672l-7.032,-2.109c-4.22,-1.256 -7.334,-4.22 -7.334,-8.539c0,-8.037 5.977,-11.102 13.262,-11.102c3.114,0 6.429,0.553 9.342,1.708l0.251,0.603c-0.502,1.607 -0.703,4.52 -0.703,7.133l-2.059,0l-0.302,-4.119c-1.507,-1.708 -4.319,-2.763 -6.681,-2.763c-4.671,0 -6.882,2.713 -6.882,6.078c0,2.261 1.608,3.918 5.326,4.873l5.725,1.507c4.622,1.205 7.586,4.119 7.586,8.64c0,8.539 -7.083,12.105 -14.719,12.105c-3.616,0 -7.283,-0.753 -10.498,-2.311c0.603,-2.962 0.754,-5.826 0.754,-8.689l2.009,0Z"/></g></g></svg>
