<svg xmlns="http://www.w3.org/2000/svg" viewBox="0 0 216 144" width="216" height="144">
  <title>Kalamazoo Hot Dog Walk</title>
  <path class="bun-solid" d="M208.2,65.2c-12.08-25-43.55.46-97.27,1s-77-26.41-97.27,1c-17.09,23.08,44.06,48.12,97.78,47.55S219.33,88.28,208.2,65.2Z"></path>
  <path class="bun-top" d="M106.1,40.26C63.16,40.71,41.93,21,24.93,34.59c.32,0,.64,0,1,0a10.09,10.09,0,0,1,3.45.58,10.07,10.07,0,0,1,3.44-.58A9.41,9.41,0,0,1,38,36a10.65,10.65,0,0,1,1.42.16,10.33,10.33,0,0,1,2-.21A9.12,9.12,0,0,1,47.49,38c.26,0,.53,0,.81,0a9.35,9.35,0,0,1,5.3,1.51,10.32,10.32,0,0,1,1.78.26c.28,0,.55,0,.85,0a9.28,9.28,0,0,1,5.47,1.63,10.79,10.79,0,0,1,1.6.15,10.84,10.84,0,0,1,1.19-.07,9.43,9.43,0,0,1,5.07,1.36c.28,0,.55,0,.85,0a10.31,10.31,0,0,1,3,.43l.72,0a9.59,9.59,0,0,1,4.63,1.1,10.49,10.49,0,0,1,2.28.29,9.92,9.92,0,0,1,3.77-.7,9.34,9.34,0,0,1,5.35,1.55,10.26,10.26,0,0,1,3.09-.46,9.39,9.39,0,0,1,5.19,1.44,10.26,10.26,0,0,1,8.83.11c1.41-1,3.11-.68,5.27-.68,1.93,0,3.64-.4,5,.39A10.28,10.28,0,0,1,118.7,46c1.5-1.27,3-1.08,5.58-1.08,1.81,0,3.82-.57,5.11.13.28-.08.57-.14.87-.2,1.48-1.19,3-.87,5.38-.87,1.37,0,3.06-.81,4.13-.4a10.25,10.25,0,0,1,1.39-.21c1.55-1.56,3-1.58,5.84-1.58,1.62,0,3.76-.65,5-.08a9,9,0,0,1,1.09-.36c1.54-1.48,2.49-1.56,5.25-1.56.93,0,3-.76,3.77-.56a8.86,8.86,0,0,1,2.08-.78c1.48-1.18,1.84-1.1,4.26-1.1.67,0,2.88-.76,3.48-.65a10.78,10.78,0,0,1,2-.18h.19c1.49-1.22,2.87-1,5.35-1,1.35,0,3.14-.79,4.2-.39a9.27,9.27,0,0,1,5.56-1.69h.18C176.34,20.92,149.22,39.8,106.1,40.26Z"></path>
  <path class="dog" d="M20.15,76,19,75.28C4.62,66.53-.54,56.28,4.5,46.42c9.14-17.92,24.56-14.39,47.9-9,14.88,3.41,33.45,7.65,55.72,7.41s41.14-4.36,56.25-7.67c23.68-5.19,39.32-8.61,47.38,7.13h0c4.83,9.43-.91,19.81-16.16,29.21l-1.57,1,0-1.85a10.57,10.57,0,0,0-1.53-5.5c-4.83-8.51-15.78-6.17-24.58-4.29-1.14.24-2.23.48-3.26.68a208.91,208.91,0,0,0-24.33,5.78l-.23.07-.24,0a31.07,31.07,0,0,0-5.73-.46,68.45,68.45,0,0,0-11.49,1.54c-2.39.46-4.86.94-7.34,1.24A11.78,11.78,0,0,0,110,73.55l-.54.37-.56-.34a12.45,12.45,0,0,0-1.82-.93c-6-2.45-13.75-3.34-19.79-3.83a14.67,14.67,0,0,0-9.62,2.35l-.5.35-.54-.29a9,9,0,0,0-4.1-1.13c-4.27-.07-6-1.21-8.56-2.93l-1.46-1a12.09,12.09,0,0,0-8.11-1.84l-.46.06-.34-.32A7.18,7.18,0,0,0,52,63c-6.29-3.07-13-3.87-18.46-2.2a14.57,14.57,0,0,0-7.68,5.38,17.8,17.8,0,0,0-1.36,2.27l-.38.7a3.22,3.22,0,0,0-.31.66c-.05.52-.3.73-.72,1.07l-.4.34a6.72,6.72,0,0,0-2.16,3.51ZM26.21,35C17.41,35,11,38.11,6.28,47.33.74,58.18,9.86,67.13,19,72.92a8.54,8.54,0,0,1,2.38-3.27l.42-.35.06-.05a5.17,5.17,0,0,1,.48-1.1l.37-.68A19.6,19.6,0,0,1,24.2,65a16.53,16.53,0,0,1,8.71-6.12c5.92-1.82,13.18-1,19.92,2.32a9,9,0,0,1,1.82,1.18,14.15,14.15,0,0,1,9,2.19c.54.34,1,.67,1.49,1,2.45,1.63,3.8,2.53,7.49,2.59a10.87,10.87,0,0,1,4.48,1.09,16.79,16.79,0,0,1,10.41-2.36c6.18.51,14.08,1.42,20.37,4a14.15,14.15,0,0,1,1.56.75,14,14,0,0,1,5.63-1.93c2.41-.3,4.85-.77,7.2-1.22a70,70,0,0,1,11.83-1.58,32.86,32.86,0,0,1,5.86.45,212.51,212.51,0,0,1,24.34-5.77c1-.2,2.1-.43,3.22-.67,8.94-1.91,21.19-4.53,26.74,5.26A13.44,13.44,0,0,1,196,70.86c8.21-5.33,19.46-15,14-25.7h0c-7.36-14.37-21.59-11.25-45.17-6.09-15.21,3.33-34.13,7.48-56.66,7.71s-41.2-4-56.18-7.46C41.67,37,33.2,35,26.21,35Z"></path>
  <!-- start bun-bottom -->
    <path d="M153.57,78.92c.23,3.58.34,5.37.55,9l1.81-.35c-.92-3.44-1.37-5.17-2.26-8.62Z"></path>
    <path d="M53.83,75.59q-.94-.24-1.75,1.33a17.07,17.07,0,0,0-1.37,4.17,17.29,17.29,0,0,0-.47,4.44c.06,1.23.43,1.92,1.08,2.09s1.26-.29,1.8-1.36A16.92,16.92,0,0,0,54.46,82a17.59,17.59,0,0,0,.42-4.41Q54.77,75.82,53.83,75.59Z"></path>
    <path d="M83.42,80.82l-.32,0L81.88,93.44l.33,0c.75.09,1.4-.41,1.92-1.48a13.11,13.11,0,0,0,1-4.51,14.46,14.46,0,0,0-.2-4.79C84.65,81.53,84.14,80.91,83.42,80.82Z"></path>
    <path d="M208.2,65.2c-12.08-25-43.55.46-97.27,1s-77-26.41-97.27,1c-17.09,23.08,44.06,48.12,97.78,47.55S219.33,88.28,208.2,65.2ZM34.62,90.71,37.3,80.62l-2.37-.77L32.17,89.91C30,89.18,28.86,88.8,26.66,88L34.4,61.91c2,.71,3,1.05,5,1.71l-2.47,9,2.31.75,2.39-9c2,.64,3,.95,5,1.54L40.17,92.41C37.95,91.75,36.84,91.41,34.62,90.71Zm25.29-7.44A30.34,30.34,0,0,1,58.33,89,15.62,15.62,0,0,1,56,93.21a7.77,7.77,0,0,1-3,2.32,5.26,5.26,0,0,1-3.4.24,5.64,5.64,0,0,1-3-1.84,8.73,8.73,0,0,1-1.76-3.51,16.73,16.73,0,0,1-.46-4.87,30.71,30.71,0,0,1,.86-5.95A31.55,31.55,0,0,1,47.16,74a17,17,0,0,1,2.43-4,7.71,7.71,0,0,1,2.83-2.21,4.75,4.75,0,0,1,3.09-.24,5.08,5.08,0,0,1,2.69,1.69,8.65,8.65,0,0,1,1.67,3.34,18.32,18.32,0,0,1,.59,4.78A32.51,32.51,0,0,1,59.91,83.27ZM72.2,79l-3-.53-3,20.06c-2.24-.4-3.36-.62-5.59-1.07l3.39-20-3-.64,1.27-7c4.38,1,6.58,1.37,11,2.11Zm18.47,9a31.6,31.6,0,0,1-.81,5.44,13.65,13.65,0,0,1-1.71,4.17,7.29,7.29,0,0,1-2.78,2.58,6.78,6.78,0,0,1-4,.61c-2.4-.28-3.6-.43-6-.77L78.6,72.79c2.17.31,3.26.44,5.43.7a6.24,6.24,0,0,1,3.44,1.4,7.83,7.83,0,0,1,2.14,3.06,15.73,15.73,0,0,1,1,4.46A34.6,34.6,0,0,1,90.67,88Zm15.52,6.58a16.29,16.29,0,0,1-1.6,4.57,8.16,8.16,0,0,1-2.52,2.88,5.3,5.3,0,0,1-3.28.93,5.36,5.36,0,0,1-3.21-1.21,8.33,8.33,0,0,1-2.3-3.1A16.51,16.51,0,0,1,92,94a31.11,31.11,0,0,1-.15-6A32.51,32.51,0,0,1,92.77,82a17.8,17.8,0,0,1,1.71-4.45,8.09,8.09,0,0,1,2.4-2.74,4.78,4.78,0,0,1,3-.86,4.84,4.84,0,0,1,2.91,1.12A8.27,8.27,0,0,1,105,78a18,18,0,0,1,1.38,4.58,32.68,32.68,0,0,1,.45,6A31,31,0,0,1,106.19,94.58Zm13,7.71A8,8,0,0,1,116,103a5.59,5.59,0,0,1-3.39-1A8.13,8.13,0,0,1,110,99.08a16.34,16.34,0,0,1-1.55-4.54,29,29,0,0,1-.51-5.86,31.14,31.14,0,0,1,.56-6A18.66,18.66,0,0,1,110,78.14a8.68,8.68,0,0,1,2.22-2.94,4.54,4.54,0,0,1,2.81-1.08,5.47,5.47,0,0,1,1.82.24,6,6,0,0,1,1.48.7,5.46,5.46,0,0,1,1.15,1,9.05,9.05,0,0,1,.86,1.18c-1,2.58-1.5,3.87-2.54,6.43a3.6,3.6,0,0,0-.9-1.08,1.87,1.87,0,0,0-1.24-.37,1.48,1.48,0,0,0-1.12.55,4.36,4.36,0,0,0-.77,1.41,9.46,9.46,0,0,0-.44,2,18.73,18.73,0,0,0-.12,2.43,21.72,21.72,0,0,0,.16,2.36,11.06,11.06,0,0,0,.44,2.07,4.23,4.23,0,0,0,.77,1.46,1.4,1.4,0,0,0,1.14.54,1.22,1.22,0,0,0,.79-.29l-.06-2.37-1.58,0-.14-7.33c2.43-.05,3.64-.1,6.07-.22l.64,15.65A6.82,6.82,0,0,1,119.19,102.29Zm26.88-2.6c-2.25.34-3.37.49-5.62.78-1.39-6-2.06-9-3.37-15H137c-.1,6.16-.16,9.24-.34,15.4-2.25.25-3.38.36-5.64.56-2.18-10.83-3.21-16.25-5.13-27.12,2.11-.16,3.17-.25,5.28-.45,1,6.35,1.48,9.53,2.52,15.87h.13c0-6.45-.07-9.67-.16-16.12,1.86-.2,2.79-.31,4.65-.56,1.22,6.31,1.84,9.46,3.12,15.76h.08c-.25-6.44-.39-9.66-.69-16.09,2-.29,3-.44,5-.77C146.06,83,146.11,88.59,146.07,99.68Zm12.71-2.26-1.13-3.64-3.14.61c0,1.54.06,2.3.09,3.84-2.27.42-3.4.62-5.68,1,.28-11.15.34-16.72.29-27.84,2.55-.46,3.82-.71,6.37-1.25,3.48,10.45,5.3,15.65,9.11,26C162.34,96.69,161.16,96.94,158.79,97.43Zm7.16-1.57L160.68,69c2.06-.49,3.09-.74,5.15-1.28L170,86.9c1.83-.48,2.75-.73,4.58-1.24l1.76,7.51C172.19,94.33,170.11,94.87,165.94,95.85Zm20.22-5.67c-2.26-4.25-3.37-6.38-5.54-10.67l-.1,0,3,11.48c-2.22.7-3.33,1-5.55,1.67l-6.39-26.55c2-.58,3-.89,5-1.52L179.34,75l.12,0c-.14-4.46-.23-6.68-.45-11.13,2.23-.73,3.34-1.11,5.55-1.89.06,5.21.06,7.82,0,13.06,3.1,5.24,4.68,7.84,7.93,13C190,88.92,188.7,89.35,186.16,90.18Z"></path>
    <path d="M99.55,82.26c-.64,0-1.13.52-1.49,1.66a21.21,21.21,0,0,0-.37,8.83c.27,1.19.74,1.8,1.41,1.83s1.18-.54,1.53-1.7a17.39,17.39,0,0,0,.6-4.42,17.71,17.71,0,0,0-.33-4.42Q100.51,82.3,99.55,82.26Z"></path>
  <!-- end bun-bottom -->
  <g class="ring-top">
    <path d="M118.33,9.61c1,.16,1.46.26,2.43.46.23-1.32.35-2,.58-3.3l-.08,0C120,7.87,119.45,8.44,118.33,9.61Z"></path>
    <path d="M94.68,6.92C94,8.44,93.74,9.2,93.2,10.73c1-.25,1.44-.37,2.41-.58-.33-1.3-.5-1.95-.84-3.25Z"></path>
    <path d="M141.42,14.66a2.19,2.19,0,0,0-.65-.56,2.78,2.78,0,0,0-1.4-.42,3.27,3.27,0,0,0-1.32.25,3.56,3.56,0,0,0-1.08.7,3.51,3.51,0,0,0-.71.9,1.91,1.91,0,0,0-.2.56,1.32,1.32,0,0,0,0,.55,1.26,1.26,0,0,0,.29.52,2.44,2.44,0,0,0,.63.49,2.66,2.66,0,0,0,1.26.36,3.45,3.45,0,0,0,1.25-.19,3.93,3.93,0,0,0,1.09-.59,3.28,3.28,0,0,0,.78-.82,2.22,2.22,0,0,0,.25-.56,1.26,1.26,0,0,0,0-.59A1.45,1.45,0,0,0,141.42,14.66Z"></path>
    <path d="M76.22,14.25c-.16,1.66-.21,2.48-.27,4.12.85-.56,1.29-.83,2.16-1.34l-1.82-2.82Z"></path>
    <path d="M151.19,21.95a3,3,0,0,0-1.32-.74,3.34,3.34,0,0,0-1.37-.05,3.52,3.52,0,0,0-1.21.45,3.41,3.41,0,0,0-.88.73,1.85,1.85,0,0,0-.3.51,1.23,1.23,0,0,0,.1,1.13,2.61,2.61,0,0,0,.54.62,2.83,2.83,0,0,0,1.19.64,3.55,3.55,0,0,0,1.29.09,3.9,3.9,0,0,0,1.21-.33,3.17,3.17,0,0,0,.94-.64,2.14,2.14,0,0,0,.36-.49,1.24,1.24,0,0,0,.15-.58,1.51,1.51,0,0,0-.15-.65A2.35,2.35,0,0,0,151.19,21.95Z"></path>
    <path d="M108,0A71.86,71.86,0,0,0,50.15,29.18C55.9,30.4,62.34,32.24,69.72,34a53.9,53.9,0,0,1,75.76-.79c7.47-1.68,14.11-3.41,19.95-4.57A71.86,71.86,0,0,0,108,0ZM79.53,19.4l-.8-1.23c-1.11.66-1.66,1-2.73,1.73,0,.72,0,1.08,0,1.79-1,.7-1.5,1.07-2.46,1.82S72,24.76,70.94,25.65c-1.57-.56-2.38-.82-4-1.29l0,0c.65,1.4,1,2.09,1.69,3.46-.86.85-1.28,1.29-2.1,2.19-1.64-2.83-2.41-4.29-3.84-7.29,1-1,1.47-1.45,2.47-2.37.54,1.28.82,1.91,1.4,3.17l0,0a51.94,51.94,0,0,1,1.12-5.33c1.22-1,1.84-1.47,3.1-2.38A51.15,51.15,0,0,0,68.91,22c1.88.52,2.81.82,4.58,1.47a52.49,52.49,0,0,1,.69-10c1.42-.89,2.14-1.31,3.61-2.1,1.76,2.6,2.63,3.91,4.32,6.55C81.07,18.51,80.56,18.8,79.53,19.4Zm3.71-2c-.55-3.21-.77-4.84-1.07-8.12,1.2-.53,1.81-.79,3-1.26.12,2.63.22,3.94.49,6.53,1.36-.57,2-.84,3.43-1.32,0,.65,0,1,.08,1.63A46.85,46.85,0,0,0,83.25,17.39Zm13-4.54-.37-1.42c-1.23.27-1.84.42-3.05.76-.23.67-.34,1-.55,1.68-1.14.34-1.71.52-2.84.92A51.37,51.37,0,0,1,93,5.58c1.59-.39,2.38-.55,4-.84.86,3,1.27,4.53,2.05,7.57C97.91,12.49,97.35,12.6,96.22,12.85Zm13-1.3c.71-2.16,1.09-3.23,1.92-5.37h-.06A50.54,50.54,0,0,0,107,11.56c-.81,0-1.22,0-2,.08-.37-2.15-.56-3.23-1-5.37h-.06c-.5,2.21-.72,3.32-1.11,5.54-1,.1-1.53.16-2.55.31.46-3.22.76-4.83,1.48-8,1.62-.17,2.43-.22,4-.29.37,2,.54,3,.86,5.08h.08a52.18,52.18,0,0,1,3.92-5.09c1.78.06,2.67.13,4.45.31-1.36,3-2,4.51-3.1,7.57C110.89,11.59,110.33,11.57,109.22,11.55Zm11,1.24.25-1.45c-1.23-.26-1.85-.37-3.09-.57-.49.52-.73.78-1.2,1.31-1.17-.16-1.76-.23-2.94-.33a50.42,50.42,0,0,1,7.07-6.91c1.6.3,2.4.48,4,.88-.47,3.1-.72,4.65-1.26,7.74C121.89,13.16,121.33,13,120.2,12.78ZM130.49,16a47,47,0,0,0-7.07-2.46l.75-1.22a45.52,45.52,0,0,1,7.18-2.79c-1.54-.6-2.32-.88-3.89-1.38l.94-1.26a53.36,53.36,0,0,1,7.49,3l-1,1a45.28,45.28,0,0,0-7.37,2.33c1.61.56,2.4.87,4,1.55ZM140.76,20a7.27,7.27,0,0,1-2.34-.1,8.38,8.38,0,0,1-2.5-1,8.07,8.07,0,0,1-1.5-1.05,4.52,4.52,0,0,1-.94-1.15,2.77,2.77,0,0,1-.36-1.21,2.59,2.59,0,0,1,.25-1.23,4.21,4.21,0,0,1,1.21-1.53,4.82,4.82,0,0,1,1.94-.92,6.41,6.41,0,0,1,2.51,0,8.06,8.06,0,0,1,2.84,1.11,8.39,8.39,0,0,1,1.72,1.34,4.57,4.57,0,0,1,.94,1.37,2.56,2.56,0,0,1,.21,1.3,2.5,2.5,0,0,1-.47,1.17,4.26,4.26,0,0,1-1.48,1.27A5.87,5.87,0,0,1,140.76,20Zm13.88,5.68a2.42,2.42,0,0,1-.69,1.05,4.13,4.13,0,0,1-1.73.91,5.93,5.93,0,0,1-2.15.16,7.69,7.69,0,0,1-2.32-.64,9,9,0,0,1-2.32-1.51,8.64,8.64,0,0,1-1.3-1.38,4.74,4.74,0,0,1-.72-1.35,2.8,2.8,0,0,1-.12-1.27,2.54,2.54,0,0,1,.49-1.16,4.11,4.11,0,0,1,1.51-1.24,4.82,4.82,0,0,1,2.12-.48,6.62,6.62,0,0,1,2.52.52A8.53,8.53,0,0,1,152.54,21,9,9,0,0,1,154,22.71a4.86,4.86,0,0,1,.68,1.58A2.6,2.6,0,0,1,154.64,25.63Z"></path>
  </g>
  <g class="ring-bottom">
    <path d="M76.3,124.88a1.81,1.81,0,0,0,.17-.21.86.86,0,0,0,.15-.7,1.23,1.23,0,0,0-.55-.67,2,2,0,0,0-.67-.31,2.23,2.23,0,0,0-.66-.06,2.5,2.5,0,0,0-.61.11,1.74,1.74,0,0,0-.49.24c1,.73,1.47,1.08,2.48,1.76A.66.66,0,0,0,76.3,124.88Z"></path>
    <path d="M123.37,131a2.42,2.42,0,0,0-.19-.5,1.33,1.33,0,0,0-.29-.39.94.94,0,0,0-.41-.21,1.2,1.2,0,0,0-.56,0,1.67,1.67,0,0,0-.84.47,2.87,2.87,0,0,0-.55.84,5.19,5.19,0,0,0-.33,1.06,8.47,8.47,0,0,0-.15,1.12,10.05,10.05,0,0,0,0,1,5.29,5.29,0,0,0,.07.75,2.2,2.2,0,0,0,.16.5,1.12,1.12,0,0,0,.28.38,1,1,0,0,0,.42.22,1.32,1.32,0,0,0,.6,0,1.83,1.83,0,0,0,.92-.48,2.91,2.91,0,0,0,.61-.86,4.12,4.12,0,0,0,.33-1.07,7.87,7.87,0,0,0,.11-1.12,7.42,7.42,0,0,0,0-1A5.3,5.3,0,0,0,123.37,131Z"></path>
    <path d="M142.14,113.84a54,54,0,0,1-68.95-.57,179.22,179.22,0,0,1-29-8,72,72,0,0,0,127.38.61A173.67,173.67,0,0,1,142.14,113.84ZM74.22,128.5a7.62,7.62,0,0,1-2.72-1.33,6.37,6.37,0,0,1-2.33-2.71,2.16,2.16,0,0,1,.35-2.31,3.62,3.62,0,0,1,1.49-1,5.16,5.16,0,0,1,1.89-.33,6.79,6.79,0,0,1,2.07.36,7.87,7.87,0,0,1,2,1,8.22,8.22,0,0,1,1.35,1.13,3.77,3.77,0,0,1,.73,1.06A2.07,2.07,0,0,1,79,126.3a4.31,4.31,0,0,1-.41.55,5.38,5.38,0,0,1-.76.71A50.2,50.2,0,0,1,72.57,124a1.72,1.72,0,0,0-.32.3.92.92,0,0,0-.16.83,1.75,1.75,0,0,0,.73.91,2.43,2.43,0,0,0,1.06.47,3.33,3.33,0,0,0,.94,0c.62.84.95,1.25,1.61,2.06A5,5,0,0,1,74.22,128.5Zm11.52.36a4.14,4.14,0,0,0-.88-.54,2.35,2.35,0,0,0-.91-.23.57.57,0,0,0-.59.29.46.46,0,0,0,.08.52,6,6,0,0,0,.79.77q.38.34.72.67a4.34,4.34,0,0,1,.56.67,2.16,2.16,0,0,1,.31.69,1.08,1.08,0,0,1,0,.68,1.56,1.56,0,0,1-.85.88,3.2,3.2,0,0,1-1.36.24,6,6,0,0,1-1.61-.28,10.32,10.32,0,0,1-3.64-2A6.21,6.21,0,0,1,77,129.75c1,0,1.42,0,2.35-.08a4,4,0,0,0,.69.86,4.13,4.13,0,0,0,1,.71,2.55,2.55,0,0,0,1,.29.58.58,0,0,0,.62-.29c.09-.18,0-.4-.17-.64a8.89,8.89,0,0,0-.89-.91,6.52,6.52,0,0,1-.66-.65,3.36,3.36,0,0,1-.46-.66,1.72,1.72,0,0,1-.19-.66,1.12,1.12,0,0,1,.15-.63,1.55,1.55,0,0,1,.9-.74,3.34,3.34,0,0,1,1.31-.14,7,7,0,0,1,1.48.29,11.39,11.39,0,0,1,1.46.55,11,11,0,0,1,1.67.93,5.45,5.45,0,0,1,1.13,1c-.81.22-1.23.32-2.06.52A3.14,3.14,0,0,0,85.73,128.87Zm6.07,6.42.43.09.41.06-.84,1.29a5.59,5.59,0,0,1-.88-.1,7.92,7.92,0,0,1-1-.24,5.08,5.08,0,0,1-2.16-1.15,1.23,1.23,0,0,1-.36-1.34,1.88,1.88,0,0,1,.12-.25,2.3,2.3,0,0,1,.18-.27c.85-1.09,1.27-1.64,2.08-2.75l-1.47-.54,1-1.28,1.42.5c.4-.57.6-.86,1-1.43,1.15.38,1.72.55,2.89.87-.37.59-.55.89-.93,1.48.75.21,1.12.31,1.87.49-.33.55-.5.83-.85,1.38-.74-.19-1.1-.28-1.83-.5-.65,1-1,1.47-1.66,2.44a1,1,0,0,0-.14.21,1.24,1.24,0,0,0-.08.19C90.87,134.81,91.14,135.1,91.81,135.29ZM97.7,137a1.07,1.07,0,0,1-.81.79,3,3,0,0,1-1.65,0,2.42,2.42,0,0,1-1.27-.61.85.85,0,0,1-.28-.78A.88.88,0,0,1,94,136a1.5,1.5,0,0,1,.53-.3,2.65,2.65,0,0,1,.73-.13,3.34,3.34,0,0,1,.87.08,2.66,2.66,0,0,1,1.28.56A.86.86,0,0,1,97.7,137Zm17.42-4.41a2.61,2.61,0,0,1-.5.84,6.61,6.61,0,0,1-.94.87c-.39.3-.85.63-1.4,1-1.43.91-2.18,1.35-3.71,2.17a51.36,51.36,0,0,0,5.66-.23c-.16.72-.24,1.08-.41,1.79a52.86,52.86,0,0,1-10.28,0c.3-.7.44-1.06.72-1.77a46.08,46.08,0,0,0,5.92-3.11,6,6,0,0,0,1.38-1.07,1.21,1.21,0,0,0,.34-.84.7.7,0,0,0-.08-.29.77.77,0,0,0-.22-.25,1.08,1.08,0,0,0-.37-.17,2,2,0,0,0-.57-.05,2,2,0,0,0-1.14.35,1.7,1.7,0,0,0-.63.83c-1.26-.11-1.89-.18-3.14-.36a4.15,4.15,0,0,1,2-1.88,8.18,8.18,0,0,1,3.23-.7,9,9,0,0,1,1.62.07,4.56,4.56,0,0,1,1.3.36,2.62,2.62,0,0,1,.9.67,1.75,1.75,0,0,1,.41,1A2,2,0,0,1,115.13,132.56Zm11.79.23a6,6,0,0,1-.4,1.59,5.28,5.28,0,0,1-.95,1.53A6.31,6.31,0,0,1,124,137.2a7.79,7.79,0,0,1-2.36.86,6.89,6.89,0,0,1-2.21.14,3.82,3.82,0,0,1-1.52-.48,2.46,2.46,0,0,1-.89-.89,3.06,3.06,0,0,1-.37-1.12,7.65,7.65,0,0,1,0-1.3,7,7,0,0,1,.23-1.48,8.4,8.4,0,0,1,.56-1.51,5.57,5.57,0,0,1,1-1.38,6.42,6.42,0,0,1,1.43-1.14,7.35,7.35,0,0,1,2-.79,6.51,6.51,0,0,1,1.9-.22,3.74,3.74,0,0,1,1.42.33,2.78,2.78,0,0,1,1,.76,3.34,3.34,0,0,1,.57,1.05,6.81,6.81,0,0,1,.27,1.27A6.47,6.47,0,0,1,126.92,132.8Zm5.83,1.71c-.2-3-.35-4.44-.76-7.36-.83.83-1.26,1.23-2.15,2-.63-.41-.95-.62-1.56-1a44.44,44.44,0,0,0,3.73-3.49c1-.48,1.52-.74,2.52-1.28a88.41,88.41,0,0,1,1.7,9.61C134.85,133.62,134.15,133.93,132.75,134.5Zm11.5-6.16c-.79-2.88-1.23-4.3-2.21-7.08-.67,1-1,1.5-1.75,2.47-.71-.26-1.07-.4-1.76-.68a45.69,45.69,0,0,0,3-4.26c.92-.71,1.38-1.07,2.27-1.83a87.22,87.22,0,0,1,3.58,9.1C146.17,127,145.54,127.47,144.26,128.34Z"></path>
  </g>
</svg>
