<svg data-name="Layer 1" xmlns="http://www.w3.org/2000/svg" viewBox="0 0 478.36 203.89"><title>Brite Eyes Brewing</title><g><path d="M0,5.07c12.05-1,22.32.68,28.11,10.71,8.77,15.22-1.39,26.9-9.53,39.43,3.74,2.42,7.52,4.67,11.09,7.21C45,73.31,48.08,90.61,37.36,105.94c-9,12.92-22.11,19.92-37.36,25ZM8.67,115.7c15.64-7.94,23.06-18.83,21-30.46-1.78-9.94-9.76-17-21-18.17ZM7.91,50.43C21.7,39.3,22,27.54,9.78,20.09,9.14,30.54,8.52,40.48,7.91,50.43Z"/><path d="M68.68,91l26.9,39.33-14.11,7.6-15.93-36.5-1.06,0v36l-8.55-.71c1.23-44.06,2.43-87.55,3.66-131.77,14.55,2.59,28.08,6.78,34.73,21,6.8,14.54,4.05,29.13-4.86,41.91C83.86,75.89,76.33,82.6,68.68,91ZM68.55,19.2c-1.63,20.26-3.2,39.74-4.92,61.14C78,68.49,85.05,55.34,84.81,38.73,84.66,28.33,80.35,23.3,68.55,19.2Z"/><path d="M158.45,23.56l-24.2,2.87c-.79-1.88-1.54-3.69-3.09-7.37l50.52-7.87v10l-14.36.89c4.25,34.43,8.43,68.42,12.73,103.29l-26.35-1.31C155.29,90.45,156.85,57.35,158.45,23.56Z"/><path d="M392.05,6l22.48,11.43-.31,1.34H394.93c-1.95,9.61-3.82,18.79-5.89,29h16.24l-13.9,8.84c-2.31,17,1.17,32.66,10.15,47.64l23.55-4.55c.32.69.64,1.38.95,2.07l-35.08,24C368.54,99.69,369.16,40.14,392.05,6Z"/><path d="M207.22,6l22.1,11.2-.13,1.25H209.88c-2,9.89-3.91,19.26-6.08,29.93l14.27-1,.65,1.3-13.85,8.74c.77,16.58,1.83,32.65,11.81,46.9l23.75-4.83,1,1.84-35.12,24.23C186.57,105.91,180.79,40.89,207.22,6Z"/><path d="M319.81,9.7l15.34,2.63q1.19,23.64,2.38,47.15l1.72.25c6.28-14.19,12.57-28.38,19.29-43.57l12.52,3.65c-9,20.5-18.05,40.39-26.28,60.62a40.14,40.14,0,0,0-2.57,18.16c1.26,13.44,3.8,26.75,5.93,40.89L341,142.69C334,98.58,327.05,55.22,319.81,9.7Z"/><path d="M284.62,6.09H312.2c-.37,4.48-.65,7.92-1,11.79l-15.09.68c-.52,10-1,19.53-1.56,30l14.26.68V60.43l-13.72,2.14c-1.8,21.16-3.57,42-5.4,63.66h18.43v10.11H281.85C282.76,93.2,283.68,50,284.62,6.09Z"/><path d="M429.87,30.27c11.52-9.59,23.42-19.48,36.4-30.27l4.58,4.72c-8.45,7.56-15.88,14.1-23.16,20.8-1.73,1.6-3,3.76-4.76,6.11,8.14,18.73,20.74,34.29,35.43,49-6.08,24.73-22.75,40.87-43.13,55.25L433,131c13.14-12.28,25.14-25.27,30.12-43.81C449.15,71.16,435.88,54.38,429.87,30.27Z"/><path d="M123.35,131.86c-16.37-28.09-21.2-77.39-3.61-102.37C128.78,48.94,129.37,106.07,123.35,131.86Z"/><path d="M153.34,165.57,141,176l4,4.41c1.33,7.82-8.34,11.88-22.71,10.07l-2.15,5C118.7,180,103,177.58,95.22,168.31c1.87-10,10-11.18,16.68-11.17C125.28,157.16,140.08,152.2,153.34,165.57Zm-5.11,1.88-.41-3.94-26.11-2v24.73l20.16-1.32.18-2.92-17.53-4.25-.65-2.16Zm-49.8-2.23.5,2.27,19.56,11.6V161.54Z"/><path d="M173.16,180.36l10.55-11.16,5.81,6.18-4.3,10.22,7.41-1.69c2.11-4,3.74-7.1,5.37-10.21l2.28.78c1,2.42,2,4.84,3,7.31l7.24-9.11,9.31,12.6-.19-.15L212,191.18l-4.84-8.32-7.86,9.67-4.1-7.47c-9.07,7.39-17.5,11-21.66-4.32Zm11.67-5.56-3.55-.49q-.27,3.57-.56,7.16l2.59.36C183.81,179.49,184.32,177.14,184.83,174.8Z"/><path d="M262.44,186.31,253.28,193,249,185.08l-8.48,6.65-1.93-6.09L228.07,193V174.41l6.68-2.57c.36,3.82.66,7,1.1,11.67L244,171.87c1.61,3.74,2.5,5.77,3.65,8.44l6-8.85c3.88,6.42,6.51,10.77,9.13,15.12Z"/><path d="M273.11,174.85,285,170.62c.61,4.78,1,7.59,1.33,10.45l3.75,2.05-.22-.21c-1.32,3.1-3.61,6.15-3.75,9.3-.28,6.3-2.4,10.38-9.06,11.68-5-2.74-5.8-6.27-2.15-10.79l.71,7.62,2.57-.16c.22-2.75.43-5.5.69-8.82l-4.27,1.69-8.07-10.19-2.4,1.09.22.22,9-10c-1.52,4.4-2.63,8.63,4.14,10.35C279.44,179.63,278.18,176.39,273.11,174.85Z"/><path d="M65.79,167.26V173l5.65,2.76-6.55,2.5,2,5.11-4.43-1c-.66,3.44-1.32,6.84-2.31,12l-1.69-12-4.93,1,1.78-5.21-9-2.42,8.5-2.72c-.32-2-.59-3.63-.86-5.31l-.2.2,4.66,1.07c.47-3.64.9-7,1.63-12.58,1,5.67,1.57,9.05,2.3,13.23L66,167.49Z"/><path d="M419.18,167.45c-.16,1.71-.31,3.42-.5,5.5l6.15,2.75-6.62,2.68,1.94,5.16-4.6-1.14c-.69,3.56-1.36,7-2.29,11.75l-1.56-11.58-5.61,1.53c.84-1.62,1.61-3.12,2.69-5.22l-7-3,6.19-3c-.2-1.64-.42-3.33-.63-5l-.21.22,4.53,1.05c.5-3.65.93-6.84,1.58-11.55,1,4.8,1.7,8.11,2.5,12l3.72-1.79Z"/><path d="M309.34,182.19c-5.18-6.62-2.73-15.25,6.3-22.19,8.46-6.49,18.3-6.78,22.54-.36,3.38,5.11,3.8,10.42-2.58,15.48-.21-3.63-.43-7.26-.7-12-5.54-5.42-11.75-2.36-17.85,1.2-6.95,4.06-10.54,9.7-7.89,18Z"/><path d="M367.83,183l-8.29,4.6L351,192.31c-2.32-3.35-4-5.73-5.45-7.85,2.89-11.24,5.24-13.08,12.81-11.67L368,183.17Zm-10.26,1.87,3-2.78-6.83-7-2.56,2.36Z"/><path d="M128.87,6c3.94,7,3.33,11.14-1,14.28-4.73,3.47-11,1.53-17.35-5-2-7.21,1.57-11.18,8.45-13.6-3.82,5.14-7.92,10.15-1.9,16.73,4.12,1,8.48,2.26,8.88-5.59l-7.55-1.42-.66-2.19Z"/><path d="M166.82,184.86l-5.18,7.32-2.86-1-3.06-10.44-.5.43-4.3-7.46,12.49.58q1.72,5.36,3.44,10.67Z"/><path d="M309.16,182.35c5.72,1.22,11.4,3.06,17.18,3.49s11.45-.61,18.11-1.06c-10.06,9.73-29,7.81-35.11-2.59Z"/><path d="M236.38,167.45l-11.91-1.24c5.32-8,8.81-7.63,12.25-3.26Z"/><path d="M223.45,181.24l-3.83,3.89.19.15-2.91-12.05,2.58-.63,3.75,8.46Z"/><path d="M83.7,176h7.72v-.06H84.08Z"/><path d="M373.86,191.52l-4.14-1.07.33-2.32,4.56.44Z"/><path d="M393.14,176h-4.37v-.2h4.32Z"/><polygon points="38.86 176 38.17 176.1 38.29 175.7 38.86 176"/><polygon points="437.81 175.98 437.13 176.12 437.27 175.6 437.81 175.98"/><polygon points="407.29 167.79 406.86 167.66 407.08 168.01 407.29 167.79"/><path d="M293.05,178.82c.19-.47.37-.94.15-.37.45-.25.05,0-.35.18Z"/><path d="M291.58,181l1.47-2.16-.2-.19-1.47,2.15Z"/><path d="M369.07,180.56c.25-.45.49-.89.14-.26l-.32.1Z"/><path d="M173.58,180.74c-.39.78-.78,1.57-1.18,2.35l.07.08.69-2.81Z"/><path d="M223.23,181.06l.57,0-.35.2Z"/><path d="M290.08,183.12c-.17-.51-.34-1-.66-2l2.16-.19-.2-.2-1.52,2.13Z"/><path d="M368,183.17l1-2.61-.18-.16c-.35.86-.7,1.72-1.06,2.58Z"/><path d="M170.48,184.77l2-1.6-.07-.08-2.16,1.47Z"/><path d="M419.41,167.68l.69-.28-.92,0Z"/><path d="M170.24,184.56l-3.42.3,0,.07,3.63-.16Z"/><path d="M264.13,184.33l-1.69,2,.28.27,1.63-2Z"/><path d="M53.94,167.79l-.63-.44s.21.31.43.64Z"/><path d="M66,167.49c.42-.19.83-.38.36-.16l-.59-.07Z"/></g></svg>
