<svg xmlns="http://www.w3.org/2000/svg" viewBox="0 0 320 79.81" width="320" height="80">
  <title>Coney Island Hot Dogs</title>
  <path d="M212.33,31.86a6,6,0,0,1,.4-2.21c-.56-2.35-2.28-4.23-3-6.72l.43-2c0-1.05-1-1.22-1.29-2.09a59.12,59.12,0,0,0,6.31.33C215.8,13,216,7,216.8.93c1.59.43,1.43,1.62,1.39,2.57-.07,2-.31,4-.48,5.93a2.77,2.77,0,0,0,.07,1.54c.46.55,1.31.1,2.05.94.28,1.52-.94,3.14-.83,4.94a11.14,11.14,0,0,1-.7,5.25c-1,.25-2-.1-3,.07s-1.8-.76-2.72,0c.06.77.86,1,1,1.87a6.66,6.66,0,0,0-.2,3.11,47.12,47.12,0,0,1,2.39,4.63c.83,1.49.55,3.5,2.11,4.69a1.78,1.78,0,0,1-.14,1.61c-.49.54-1.18.22-1.84.59-.06,2.5-.73,5-.5,7.77,2.35,1.24,4.39,0,6.51-.66.87.58,1.53,1.6,2.77,1.59.29.62.83.46,1.33.43.18.39.42.55.78.18a.9.9,0,0,0-.83-.12c-.24-.75-.77-.63-1.32-.43-.44-1.23-1.63-1.77-2.36-2.68-1.18,0-1.78,1.14-2.85,1.22s-1.82.72-2.92,0c-.39-1.91-.07-3.94-.1-6,1.11-.58,2.4-.88,2.85-2,.71-3.24.46-6.43,1.07-9.77a4.09,4.09,0,0,0-1.66-2.87c.22-1.11,1.22-1.41,1.81-2.47.85-3.08.6-6.62,1.14-10.22-.21-1.43-1.32-2.19-2.83-2.66.32-2.15.15-4.28.85-6.52,2.63-.63,4.3,1.11,6.12,2.74,1.69-1.64,3.73-1.84,6.07-1.49.68,2.34-.52,4.59-.23,6.71-.79.75-1.66.2-2.29.68A3.71,3.71,0,0,0,228.17,15c-.19,2.12-.23,4.26-.56,6.36a4.77,4.77,0,0,0,.94,3.91,2,2,0,0,1,.46,1.1c-1.83.94-2.24,2.58-2.25,4.57a62.24,62.24,0,0,1-.57,6.57c-.17,1.51-.21,1.51.8,3a2.49,2.49,0,0,0,2.73-.05c1.71-2.32.56-5.55,1.79-8.26a24.57,24.57,0,0,1,6.1.93c-.11,5.31-1.45,10.45-1.59,15.91-1.81-.3-2.34-1.59-3.2-2.67l-2.67,1.54c.65.84,1.53.43,2.38.44,1,1.27,2.87,1.45,3.59,3.07l.05-.07c-1.52,0-3,.52-4.55.46-1.9-.08-3.67-.29-4.92-1.68a6.47,6.47,0,0,0-3.16.51c-2.59.82-4.9.59-7-1.32-.59-.55-1.25-1-2-1.61a9,9,0,0,1-4.23,2,14.82,14.82,0,0,1-4.91.34c-1.12-.66-2.29-1.42-3.53-2a5.84,5.84,0,0,0-1.77-.25,3.81,3.81,0,0,1-4.62.13c-3.33.53-4.25.66-7.44-1.49a9.41,9.41,0,0,1-6.55,1.71c-1-.11-1.78-.84-3.49-2.89,2.29-.29,4.63,0,6.38-1.79a8.89,8.89,0,0,0,7.37,1.73V36.36c-.51-.62-1.22-.09-1.67-.45-1-.66-1.15-6.78-.25-10.76.46-.84,1.36-1.36,1.62-2.09a1.77,1.77,0,0,0-.53-1.81,4.21,4.21,0,0,1-1.19-3.62c.08-1.91,0-3.83,0-5.74,0-.94-.07-1.94.5-2.44,1-.75,1.89-.1,2.64-.76l.38-8.16c1.44.38,2,1.58,2.89,2.28.76,2-.74,3.57-1,5.35a10,10,0,0,1-1.93,5.17c0,1.51,0,3.06,0,4.6s.23,2.94-.27,4.15c.32,1.56,1.75,2.24,2,3.69-.67,1.06-1.86,1.9-2,3.29-.12,1.24-.06,2.5-.14,3.75-.16,2.57.49,5.1.31,7.67a23.68,23.68,0,0,0-.16,4.92,4.53,4.53,0,0,0,3.83-.38c0-.58.5-1,.39-1.65l.49-.43a.58.58,0,0,0,.38-.51.6.6,0,0,0,.63-.11c-.3-.33-.48-.23-.57.17-.22.1-.41.22-.38.51-.3,0-.49.1-.5.43-.78-.24-1.36.5-2.1.43-.61-.24-.65-.78-.65-1.29a37.12,37.12,0,0,1,.14-5.73,48.82,48.82,0,0,0,.39-6.58,1.39,1.39,0,0,1,.42-1.18,44.1,44.1,0,0,1,4.7.25c.29,2.54.23,5.06,1.17,7.46a5.53,5.53,0,0,0,2.27,1.17c2.56-.6,2.74-2.75,2.73-4.68a7.89,7.89,0,0,0-3-6.12c-.74-.63-1.75-.31-2.34-.93a.92.92,0,0,1-.16-.89,3.8,3.8,0,0,0-.7-3.9c-1.46-2.11-3-4.2-3.55-6.77-.87-4.31-.3-8.24,3-11.58,2.11-2.13,7.18-2.33,9.35-.37l2.17,2c1.09-.65,1.92-1.81,3.33-1.87.67,1.7.25,10.17-.71,14.73-2.43.44-3.69.29-5.21-.62,0-2.7-.06-5.4-2.16-7.31a3.74,3.74,0,0,0-2.12-.23,3.6,3.6,0,0,0-1.65,4,13.52,13.52,0,0,0,3.19,6.3c1,.43,2.05.26,2.84,1.29-1.05,2.46.39,4.45,1.64,6.53a12.32,12.32,0,0,1,1,2.42,3.33,3.33,0,0,0,1,1.88c0,.34-.21.75.22,1C212.95,32.35,212.8,32,212.33,31.86Zm-1.27,11.09c1.64-1.82,2.59-6.08,1.79-9a14.38,14.38,0,0,1-.71,4.89,17.54,17.54,0,0,0-1,4.15c-.2,0-.5-.06-.6.05A14.85,14.85,0,0,1,206.21,46C208.15,45.49,210.11,45,211.07,42.95Zm-7.85,2.58-3.46-1.74C200.67,45.48,201.92,45.53,203.21,45.53Z"/>
  <path d="M281.65,59.08c-1.43.14-1.38-1.33-2.13-1.93-.88.37-1.67,1-2.76.8-1.11-.86-.84-2.26-.9-3.38-.23-5-.51-10.07-1.06-15.08,0-.12-.15-.24-.38-.6-.41,2.23-.79,4.26-1.15,6.29-.07.36-.09.73-.16,1.09-.46,2.3-.23,2.83,1.79,4.19.58,1.13-.16,2.16-.41,3.17s-.24,2.18-.6,3.27c-2.78.23-4.08-1.76-5.6-3.45-2,1-3.89,1.88-6.16.56a32.24,32.24,0,0,1,1.35-6.39c1-.24,2.16-.2,2.83-1.73.64-2,.88-4.45,1.43-6.88.48-2.07.65-4.07-1.26-5.56,2.66-2.66,2.76-2.65,3.3-6.37.26-1.81.79-3.57,1-5.39a6.2,6.2,0,0,0,0-.77c-.51-1.17-1.49-1.76-2.39-2.69l1.11-6.48c2.4.27,3.71,1.73,5,3.37,1.11-.39,1.93-1.33,3.21-1.57a1.11,1.11,0,0,1,.81,1c.33,3.43.64,6.85,1,10.28l.62,6.66c1.06-1.1,1.94-6.18,1.63-8.63-.29-.74-1.14-.88-1.64-1.47-.16-2.25.82-4.29,1-6.68,2.82.13,4.37,1.94,5.89,3.91,2.09-1.21,4.18-2,6.59-.45l-1.36,6.14c-1.19.57-2.64.5-3.25,1.86-.53,2-.9,4.1-1.47,6.15-.93,3.32-.83,3.35.71,6.21a1.13,1.13,0,0,1-.63.85c-1.64.67-2.11,2.05-2.43,3.65-.89,4.52-1.83,9-2.88,13.53C282.11,57.43,282.47,58.44,281.65,59.08Zm-1.27-26.47c.14-.26.22-.47-.17-.63C280.05,32.24,280,32.45,280.37,32.61Z"/>
  <path d="M91.53,9.49c2.24-1.14,4.17-.26,6.06.73,1.86-1.1,3.15-3.09,5.61-3.06A4.66,4.66,0,0,1,104,9.8c.12.94.29,1.88.46,3a6.72,6.72,0,0,0-2.55,3.72c.35,2.27.8,4.58,1,6.91.18,1.92.66,3.59,2.63,4.7-2.93,3-1.14,6.34-.9,9.52.26,3.37.77,6.71,1.17,10.07,0,.35.14.73-.14,1-.74.3-1.17-.6-1.9-.43-.87.42-1.25,1.64-2.55,1.7a4.49,4.49,0,0,1-1.53-2.26c-1.47-4.08-3.58-7.86-5.42-11.77-.62-1.32-1.19-2.67-1.74-4a1.12,1.12,0,0,0-.84-.77c.38,2.12.75,4.19,1.12,6.26a29.67,29.67,0,0,1,.58,3.47c.12,2.16,1,3.65,3.26,4.06.85,1.95.87,4,1.19,6-2.35,1.08-4.16.14-6-1a11.21,11.21,0,0,1-5,3.55c-1.59-1.67-1.06-3.88-1.63-5.86,2.48-1.54,2.71-3.51,2-6a26,26,0,0,1-1-6.06,2.52,2.52,0,0,0-1.24-2c-.47-.33-1.09-.51-1.31-1.33,1.73-1.8,1.4-4.06,1-6.33-.38-2.09-.72-4.2-1.06-6.18a15.09,15.09,0,0,0-3-1.76c-.84-1.73-.79-3.66-1.23-5.5,1.16-.84,2.37-.32,3.36-.47.8.14,1.25.7,1.79,1,1.08-.76,1.73-1.88,3.14-2.48,3.36,6.17,6.28,12.5,9.59,18.64q-.85-5.71-1.7-11.43A2.32,2.32,0,0,0,94,15.7a12.86,12.86,0,0,0-1.44-.36C91.4,13.49,91.67,11.49,91.53,9.49Z"/>
  <path d="M297.09,27.31l-1.57-1.43a30.06,30.06,0,0,1,1.64-6.79,9.64,9.64,0,0,1,5.18,4.58c.28-.14.55-.24.8-.39,2.86-1.7,5.55-1,8.06.71,4.13,2.86,4.66,6.48,3.86,10.84-.4,2.16-1.08,4.26-1.64,6.39-.85,3.26-.85,3.26.13,6.1-.17,1.07-1.35,1-2.07,1.92-.91,1.4-1.17,3.31-1.61,5.16-.67,2.79-1.4,5.54-3.18,7.91a7.14,7.14,0,0,1-7.76,2.94A8.08,8.08,0,0,1,294,61.79c-.24-.36-.28-.85-.89-1.14a6.68,6.68,0,0,1-5.69.5,49.15,49.15,0,0,1,1.42-6c.56-.61,1.13-.44,1.61-.58A2.24,2.24,0,0,0,292,52.87c.64-2.86,1.24-5.73,1.8-8.61a4.5,4.5,0,0,0,0-1.24c-.31-1.29-1.4-1.59-1.21-2.49.16-.61.63-.68,1-.83a3,3,0,0,0,1.85-2.31c.55-2.35,1-4.73,1.74-7A4.8,4.8,0,0,0,297.09,27.31Zm4.17,30.26a2.08,2.08,0,0,0,1-1.25c.41-1.33.9-2.64,1.25-4,1.6-6.16,3.16-12.33,4.73-18.49a4.84,4.84,0,0,0,0-2.59c-.63-1-1.25-1.91-2.6-1.62s-1.61,1.22-1.94,2.37c-1.78,6.26-2.87,12.69-4.67,19-.54,1.87-1.52,3.9-.32,6A2.77,2.77,0,0,0,301.26,57.57Z"/>
  <path d="M239.06,42.6c.6-.6,1.43-.19,2-.71,1.72-4.37,3.91-8.66,2.07-13.8,2.34-.82,3.1-2.81,3.58-5,.32-1.5.85-3,1.31-4.44a5.28,5.28,0,0,0,.19-2.73L247,14.37c0-2.25.72-4.44.88-6.82,3.3-.65,4.86,1.7,6.73,3.78A31.46,31.46,0,0,1,258,9.71c1.34-.47,2.43,0,3.77.46a38.66,38.66,0,0,1-1,6.86c-.49.73-1.16.48-1.52.89a3.35,3.35,0,0,0-.63,2.28c0,1.91.05,3.83,0,5.74s-.12,4,1.7,5.16c.12.66.06,1-.23,1.29a4.87,4.87,0,0,0-1.53,4.18c.05,2.28,0,4.57,0,6.85a3.94,3.94,0,0,0,.27,2c.26.62,1.11.65,1.53,1.44a32.66,32.66,0,0,1-1.15,6.53c-2.42.14-3.36-2-5-3.12-1.76.61-3.44,2.28-5.55.7-.45-.08-.87.45-1.57.17a8.77,8.77,0,0,1-3.34-2.83c-1.86.39-3.37,2.07-5.58,1.09C237.92,47,238.87,44.78,239.06,42.6Zm9.2-3.72c-1.11,2.91-.86,3.77,1.49,5.6,2.89-.67,3.05-.93,2.85-4.61Zm2.1-6.7a3.24,3.24,0,0,0,2.3.55A35.09,35.09,0,0,0,252.3,25Z"/>
  <path d="M80,33.71a4.6,4.6,0,0,0-1.23,3.87A60.74,60.74,0,0,0,80,45.44c.08.51.2,1,.27,1.52.64,4.74-.75,7.44-5,9.77-.38.21-.74.47-1.09.7a30.39,30.39,0,0,1-6,0,9.36,9.36,0,0,1-4.87-6.86,82.59,82.59,0,0,1-1.75-8.35,3.53,3.53,0,0,0-1.3-2c-.41-.41-1.09-.51-1.34-1.3,1.51-1.84,1.14-4,.59-6.16s-.92-4.62-1.53-6.88a7.6,7.6,0,0,1,1.56-7,10.6,10.6,0,0,1,9.56-4,7,7,0,0,1,6.23,4.91A30.34,30.34,0,0,1,77,27.66,8.1,8.1,0,0,0,80,33.71ZM74.34,49.52a4.63,4.63,0,0,0,.14-.86,20.76,20.76,0,0,0-1.19-6.9c-.61-1.6-.4-3.37-.84-5A47.7,47.7,0,0,1,71,29.28c-.18-1.62-.91-3.13-1-4.71a3.54,3.54,0,0,0-3.1-3.65,4.72,4.72,0,0,0-3.09,2.86C65.72,32.55,67.22,41.3,69.34,50l2.18,1.39A7.67,7.67,0,0,0,74.34,49.52Z"/>
  <path d="M118.48,45c-2,1-3,3.17-5.18,3.15-.68-1-.34-2-.45-2.92s-.21-1.89-.33-2.93l1.67-1.76A80.84,80.84,0,0,0,114,32.2c-.26-2.69-.5-3.07-2.75-5.12.39-.91,1.5-1.44,1.41-3.13-.54-1.53-.13-3.68-.31-5.8a10.94,10.94,0,0,0-.64-3.2,4.06,4.06,0,0,0-2.75-2.7,24.77,24.77,0,0,1-.59-5.75c2-.91,3.65.39,5.58.91a32,32,0,0,1,4.6-3.37h3.71A13.24,13.24,0,0,1,125.39,6c1.16-.49,1.92-1.52,3.21-2.43l1.2,13c-1.83,1.37-3.83.37-5.72,1.15l-.76-5.22a4.68,4.68,0,0,0-1.47-1.65A3.33,3.33,0,0,0,118.18,12a32.17,32.17,0,0,0,.89,10.84c1.9,0,3.61-1,5.53-.53,1,1.65.48,3.55.91,5.36-1.79,1.27-4,.78-5.92,1.57.6,2.61.24,5.1.49,7.57.15,1.54.54,2.89,2,3.74a2.22,2.22,0,0,0,2.68-.85,3.52,3.52,0,0,0,.78-3.29,6.68,6.68,0,0,1-.16-3.49,5,5,0,0,1,1-.4c1.51-.21,3-.37,4.83-.59.12,4.4.87,8.64.59,12.9-.68.41-1-.08-1.47-.28s-.63-.63-1.32-.68C126,47.06,122.48,48.59,118.48,45Z"/>
  <path d="M142,38.39a4.13,4.13,0,0,0,2.48-2c-.35-3.89-.08-7.71-.28-11.59-2.44-4.54-4.93-9.12-7.34-13.74-.68-1.31-1.9-1.74-3.16-2.36l-.28-5.25c.8-1,1.72-.7,2.56-.75a15.74,15.74,0,0,0,3.49,1.83c2.08-.87,3.42-3.33,6.34-2.52A24.51,24.51,0,0,1,146,7.27a2.12,2.12,0,0,1-1,.9c-1.65,1.17-1.9,2-.86,3.69.88,1.43,1.18,3.2,2.52,4.37a13.73,13.73,0,0,0,2.87-6.69c-.78-1-.78-1-2.57-1.5-.19-1.91,0-3.9-.44-5.87,2.59-1.28,4.34.76,6.43,1.43,1.63-1.3,3.33-2.44,5.82-2.15a38.93,38.93,0,0,1,.12,5.65c-2.62,1.06-3.2,3.56-4.16,5.71-1.61,3.6-2.43,7.52-4.33,11a3.13,3.13,0,0,0-.27,1.72c.13,2.78.21,5.57.39,8.35.11,1.72,1.08,2.72,3.37,3.73a28.84,28.84,0,0,1,0,5.91c-2.33.6-3.89-.83-5.53-1.93L145,44.16a5.15,5.15,0,0,1-2.41-.11Z"/>
  <path d="M46.61,23.49c1.33-.81,1.82-2.3,3.15-2.92,1.63,4.15,3.05,10.49,3,13.3a22.31,22.31,0,0,1-5.2,1.66A16.44,16.44,0,0,1,46,30.18a4.63,4.63,0,0,0-1.53-1.69c-2.67-.3-4,.79-4.1,3.31a12.2,12.2,0,0,0,1,4.72c.8,2.22,1,4.55,1.64,6.8,1.11,4.17,2.09,8.37,3.16,12.55.45,1.75,1.36,2.36,3.38,2.41a4.57,4.57,0,0,0,2.3-2.64,34.23,34.23,0,0,1-1.16-6c1.64-1.16,3.6-1.23,5.2-1.9a1.23,1.23,0,0,1,.85,1.07A53,53,0,0,1,58,54.15c.61,5.18-1.53,7.62-6.51,9.89a8.14,8.14,0,0,1-5.63.43c-2.95-.85-4.3-3.27-5-6-.73-2.92-1.7-5.77-2.34-8.71-.31-1.42-1.69-2-2.61-2.79,0-.22-.09-.41,0-.5,1.55-2.11.65-4.27,0-6.29-.81-2.38-1.05-4.86-1.64-7.27a8.47,8.47,0,0,1,4.92-9.84A8,8,0,0,1,46.61,23.49Z"/>
  <path d="M184.49,41.51c-1.51,1.44-3,2.7-5.48,2a42,42,0,0,1-.16-5.65c.55-.87,1.46-.76,2.13-1.51a4.58,4.58,0,0,0,.89-2.65c0-3,0-6,0-9.05l-1.81-2.2c.23-1.11,1.29-1.5,1.89-2.36,0-3.45,0-6.9,0-10.35,0-1.59-1.38-2.11-2.65-2.68a46.78,46.78,0,0,1,0-6.25c2.56-.34,4.36,1,6.13,2.37,2.31-1.85,3.78-2.3,6-1.77a44.74,44.74,0,0,1,.07,5.67c-.34.63-.85.57-1.24.73a2.89,2.89,0,0,0-1.89,2.48,23.73,23.73,0,0,0,0,2.85,23.71,23.71,0,0,1-.06,4A5.08,5.08,0,0,0,190,22.36c0,.65-.43.82-.75,1.11a3.74,3.74,0,0,0-1.31,2.9c0,2.72,0,5.45,0,8.17,0,1.65.93,2.54,2.38,3.19a24.18,24.18,0,0,1,0,6C187.77,44.68,186.41,42.7,184.49,41.51Z"/>
  <path d="M106.87,26.9c-2-.8-2.56-2.49-2.61-4.57a34.39,34.39,0,0,0-.49-3.94c-.41-2.84-.26-3.09,2.51-4.07.1-1.35-.45-2.68-.47-4.06s-.57-2.72-.39-4.3c1.79.89,1.09,2.49,1.36,3.7s.35,2.61.5,3.87c.6.68,1.51.13,1.92.53a2.47,2.47,0,0,1,1,1.9c-.23.75-.54,1.51-1.43,1.74a2.07,2.07,0,0,0-1.63,1.52l1,8.38c.55,1.45,2.43,2,2.5,3.42a2.21,2.21,0,0,1-.74,1.66,4.24,4.24,0,0,0-.83,3.46c.43,4.23,1.56,8.36,1.61,12.64a23.66,23.66,0,0,0,.69,4.09,1.81,1.81,0,0,1-.06,1.51c-1.32-.14-2.37-1.09-3.75-1.35a13.68,13.68,0,0,1-3.77,2.24c-.33.06-1.16-.36-2,0a6.83,6.83,0,0,1-5.86-.51,13.52,13.52,0,0,1-7.43,3.41c-1.14-.63-1.88-1.8-2.94-2.5-.94.21-1.13,1-1.54,1.57a10.75,10.75,0,0,1-4,3.63C75.5,63.09,70.62,63,66.6,58.44a11.51,11.51,0,0,0,7.27.45,11.26,11.26,0,0,0,7.74-6.34,9.48,9.48,0,0,0,.55-5.63c-.44-2.68-1-5.36-1.51-8-.32-1.57-.45-3,.81-4.33.26-.27.27-.79.44-1.34,1.56,1,3.09,2,3,4.33-1.21,1.2-1,2.79-.68,4.41a10,10,0,0,1,.41,3.24c-.17.82-1,.7-1.08,1.3a82.57,82.57,0,0,0,1.59,8.73c2.76-.11,4.94-1.5,7.17-3.42,2.71,1.54,5.63.4,8.55.13a7.35,7.35,0,0,0,3.2-1.92,21.27,21.27,0,0,0,4.24,1.78c-.33-2.49-.61-4.65-.91-6.81-.56-3.93-1.07-7.88-1.73-11.79a3.8,3.8,0,0,1,.78-3.48A2.55,2.55,0,0,0,106.87,26.9Z"/>
  <path d="M31.53,58.42c-.11,1.11,1.38,1.34,1.33,2.55-.2.93-1.23,1.22-1.65,1.57-.78.84,0,1.78-.92,2.31a3.82,3.82,0,0,0-2.38-2.78c-.66.63.18,1.15-.06,1.82l-1,.78c.5,1.46.68,3.07,1.77,4.3.64,0,.6-.61.9-.94.52.8-.21,1.49-.17,2.43.59,1,.65,2.44,2,3.29a1.56,1.56,0,0,1,.27,2.38A5.21,5.21,0,0,1,29.54,74c-4.71-3-6.14-7.74-8.6-12a20.13,20.13,0,0,0,3.67-2.09c1.8-3.73-.73-6.54-1.8-9.92-3.75.58-7.22,1.48-10.94,2.22l-1.32-1.76a1.09,1.09,0,0,1,.14-1.56c3.71.36,7.08-.61,10.51-1.64-.3-2.27-.71-4.33-.82-6.41a8.51,8.51,0,0,1,3.31-7.36c1-1.12.49-2.8,1.68-3.76l-.06-.05a5.36,5.36,0,0,1-.48,2.58,5.18,5.18,0,0,0,.51,4.44,77.06,77.06,0,0,1,4.15,8.94A46.87,46.87,0,0,0,33,52.46c.4.62,1.14,1.21.49,2.08-1-.15-.23-1.53-1.25-1.68s-1.67.71-2.59,1.13c-1.78-2.88-2.22-6.56-5.28-8.66-1.39,4.1,3.33,11.85,7.27,13.15Z"/>
  <path d="M296.76,66a1.26,1.26,0,0,1,1.06.09c4,1.56,7.83-.2,10.09-3.32A12.68,12.68,0,0,0,310,58.43c.49-1.92,1.09-3.82,1.53-5.76A5.1,5.1,0,0,1,314,49a3.64,3.64,0,0,0,.73-.67,2,2,0,0,0-.14-2.18,3.49,3.49,0,0,1-.38-3.36c.61-2.27,1.16-4.56,1.82-6.82,1-3.38,1.13-6.65-1.1-9.83,3.57,1.58,6,7.22,4.7,11.33-.95,2.91-1.38,6-2.37,8.87a7.22,7.22,0,0,0,0,2.1L318.42,50a2.08,2.08,0,0,1-1.3,1.94,3.26,3.26,0,0,0-1.86,2.53c-.64,2.62-1.29,5.25-2.14,7.81a10.31,10.31,0,0,1-7.56,7.23,4.94,4.94,0,0,1-2.62,0c-2.32-.7-4.63-1.46-6.18-3.53Z"/>
  <path d="M294.07,26.43c.77.93,2.15,1.07,1.92,2.47-.48.68-1.28.07-2,.42C292.43,33,292,37,291.39,40.9c0,.75.86,1.15,1,2.07-2,.93-2.55,2.74-2.77,4.79-.31,2.93-1.79,5.55-2.37,8.41-.37,1.8-.81,3.58-1.24,5.48,2,1.49,4.24,1.15,6.53.61,1,.9,1.79,2.13,3.14,2.83a9.52,9.52,0,0,1-6.2-.25c-.92-.61-1.45-1.68-2.45-2.05-1.21.39-.56,1.48-1.08,2.23a12.17,12.17,0,0,1-3.36-2.74l4.32-20.55c1-1.21,2.47-1.47,2.6-2.9,0-.12,0-.3,0-.41a6.24,6.24,0,0,1-.69-5.47c.49-1.61.68-3.31,1-5a2.76,2.76,0,0,1,.7-1.72c.84-.53,1.46.25,2.35.18,1.22-2.52,1-5.49,2.13-8.18.61,1,.62,1,0,4.06C294.72,23.68,294.38,25,294.07,26.43Z"/>
  <path d="M10.85,20c-.36-.87.76-1.36.66-2.19-1.07.14-1.07.14-2.48,2a3,3,0,0,1-1.55-1l.67-1.45A38.57,38.57,0,0,0,1,9c-.07-1,.71-1.43,1.35-2C5,9.55,7,12.71,9.26,15.51c.68-.28.63-.64.42-1-1.9-3-3.81-6-5.75-9.12l.61-.53L11,14.22c.2-.22.3-.31.29-.33C9.67,11,7.82,8.26,6,5.49a1.33,1.33,0,0,0-1.53-.56,5.57,5.57,0,0,1,1.37-1.4A31.89,31.89,0,0,1,13.14,0c1.61,3.72,1.64,8,4,11.13,1.18.59,2.29,0,3.31.6l-.62,2.07c-2.17,2-4.8,3.29-7.26,4.85A8.55,8.55,0,0,0,10.79,20Zm1.33-2.66c2.51-.62,4.31-2,4.65-3.58C14.24,14.58,12.71,15.76,12.17,17.32Z"/>
  <path d="M48.62,56.58c-.61-.44-.63-1.14-.79-1.77-1.85-7.2-3.68-14.4-5.55-21.59-.34-1.3-.4-2.44,1.08-3.45,1.92,2.37,1.61,5.47,2.89,8.12l8.89-3.08-3.9-16.62a8.58,8.58,0,0,1,3.11,2.35C55.55,25.3,57,30.07,57.94,35A3.08,3.08,0,0,1,57,38.27c-2.35,1-4.94,1.77-7.31,2.55-1.33-.47-1.78-1.68-2.88-2.07-.54.41-.26.92-.13,1.36,1.29,4.36,2,8.85,3.17,13.25a5.21,5.21,0,0,1,.2,2C50,56.15,49.59,56.72,48.62,56.58Z"/>
  <path d="M155.14,35.56l-1.75.24a2.58,2.58,0,0,1-1.12-2.38c-.1-2.57-.18-5.13-.29-7.7a3.49,3.49,0,0,1,.15-1.51c1.92-4.77,3.82-9.56,5.74-14.33.11-.26.33-.48.27-.39.84-.89,1.71-.5,2.46-1,.39-2.6-.23-5.31.06-8,1.17-.27,1.43.85,2.1,1.27a2.37,2.37,0,0,1,1.33,1.92c0,2.63,0,5.27,0,7.69-.69.88-1.61.39-2,.74-1.25,1-1.37,2.3-1.85,3.42-1.52,3.56-2.88,7.18-4.34,10.77a10.36,10.36,0,0,0-.37,5.83A4.5,4.5,0,0,1,155.14,35.56Z"/>
  <path d="M123.53,31.35a35.53,35.53,0,0,0,.38,5.21c0,.9.27,1.95-.78,2.36-.51,0-.8-.2-.86-.47a61.58,61.58,0,0,1-.89-7.9c1.93-.84,4-.48,6.15-1.17l-.88-8.89c-2-.15-3.95.66-6,.44a49.3,49.3,0,0,1-1-7.3,1.31,1.31,0,0,1,1.1-1.46c1,.15,1,.93,1,1.67.16,1.81.35,3.62.54,5.56l9.29-1c0-5.79-1.13-11.46-1.24-17.64,1.77,1.64,1,3.46,1.36,5a29.17,29.17,0,0,1,.33,4.75c.68.73,1.5-.07,2.16.34a7,7,0,0,1,2,2.5c-.46.7-1-.32-1.67.79a8.62,8.62,0,0,0,.12,3.15,14,14,0,0,1,.29,3.65c-1.84,1.38-4.18.34-6.31,1.31,2,2.5,1.64,5.3,2,8.05C128.21,31,125.8,30.77,123.53,31.35Z"/>
  <path d="M259.79,44.25V35.17a6.11,6.11,0,0,1,1.22-2,2.31,2.31,0,0,0,.86-2,3.16,3.16,0,0,0-1-1.36,3.32,3.32,0,0,1-1-2.81c.37-2.57,0-5.14.23-7.69.39-.7,1.13,0,1.79-.58l1.55-9.06a17.55,17.55,0,0,1,3.35,2.65c-.27,3.22-1.35,6.29-1.39,9.38-.59.59-1.28.13-1.83.55-.07.13-.25.32-.25.52,0,2.57-.08,5.15,0,7.72,0,1.33.34,1.82,2,3.8a2.46,2.46,0,0,1-.76,1.73,4.51,4.51,0,0,0-1.31,3.6c0,2,0,3.95,0,5.67a1.57,1.57,0,0,1-1.29.72A4.4,4.4,0,0,1,259.79,44.25Z"/>
  <path d="M137.33,50.59,132.92,49c-3.41,2.49-7,3.41-11.1,1.16-1.8,1.8-4.18,2.34-6.75,2.52-.87-.76-2-1.18-2.75-2.55,2.15-.81,4.45-1.18,6-2.84,4.12,2.27,7.77,1.75,11-1.37l4.63,2c.15-3-.37-5.75-.47-8.48s-.46-5.53-.72-8.51c1.46.47,2,1.66,3.06,2.29C136.52,38.86,136.89,44.54,137.33,50.59Z"/>
  <path d="M235.78,16l-1.68-.32a2.3,2.3,0,0,0-1.34,2c-.06,3-.91,6-.43,9.13.52.83,1.83,1.51,1.11,3-.23.53-.75.82-1.25,1.23h-2a26.76,26.76,0,0,0-.62,4.32c-.23,1.38-.07,2.9-1.07,4.09a1.34,1.34,0,0,1-1.13-1.58,88.33,88.33,0,0,1,1-9.24c.82-.9,1.94-1.25,2.14-2.52s-1.17-1.87-1.76-3.14c.47-3.17.56-6.6,1.22-9.71,1-.75,1.68,0,2.5-.32.67-2.69.48-5.59,1.27-8.53A8.05,8.05,0,0,1,237,7.25C236.48,10,236.53,13,235.78,16Z"/>
  <path d="M145.18,66.87a8,8,0,0,1-3.37,0v-5.2a2.59,2.59,0,0,0-2.42-.14c-.4,1.7,0,3.48-.3,5.23a6.12,6.12,0,0,1-3,.18c-.53-1.49-.67-10-.22-13A5.4,5.4,0,0,1,139,53.9c.46,1.47,0,3,.36,4.38a2.46,2.46,0,0,0,2.23.06c.47-1.4-.09-2.91.38-4.38,1-.46,2-.16,3-.23C145.5,55.29,145.64,63.82,145.18,66.87Z"/>
  <path d="M12.49,34.05c-.87.35-.83,1.1-.84,1.85,0,3.51-1.08,6.88-1.35,10.44-1.35-.65-1-1.75-.83-2.56.81-3.3-.88-5.71-2.9-7.82A52.3,52.3,0,0,0,.86,31.4L0,29.34A24.75,24.75,0,0,1,5.42,22l1.86,2a4,4,0,0,0,1.56-.83c-.82-.87-1.32-2-2.53-2.41l.06.06.56-1c.64,1,1.3,1.9,2.55,2l-.07-.07c-.11.19-.31.37-.31.56,0,2,0,2-2,2.74-.14,1.25-1.42,2-1.8,3.47a5.3,5.3,0,0,1,3.22,1.44,25.51,25.51,0,0,1,2,2.32,2.64,2.64,0,0,0,1.93-1.79v3.65Z"/>
  <path d="M44.27,66a1.6,1.6,0,0,1,1.28,0,12.1,12.1,0,0,0,12.77-5.35c1.5-2.43,1.38-5.06.92-7.69-.35-2-.89-4-1.34-6-.06-.28-.19-.56.1-.87,1.25.5,1.77,1.92,3,2.44a51.3,51.3,0,0,1,1.85,9.24C63.58,64,58.95,67.83,54,69a9.36,9.36,0,0,1-9.69-3Z"/>
  <path d="M179.05,55c2,2.53,2.08,5.43,1.13,8.46a4.68,4.68,0,0,1-3.52,3.29,17.25,17.25,0,0,1-5.55.19V53.82C173.84,53.72,176.53,53.22,179.05,55ZM175,56.66a22.07,22.07,0,0,0,0,7.27c2-.74,2-2.42,2.08-4A3,3,0,0,0,175,56.66Z"/>
  <path d="M146.66,60.57c0-2.26.45-4.19,2.15-5.67a4.36,4.36,0,0,1,6.43.45,8.77,8.77,0,0,1,.49,9.52,4.75,4.75,0,0,1-8.28-.58A8,8,0,0,1,146.66,60.57Zm4.63-3.47c-1.55,2.59-1.25,5.44.72,6.57,1.71-1.41,1-3.34,1-5.08A1.47,1.47,0,0,0,151.29,57.11Z"/>
  <path d="M191.7,60.31a7,7,0,0,1-.71,3.75A4.77,4.77,0,0,1,186.9,67a4.39,4.39,0,0,1-4.22-2.23c-1.79-2.72-1.38-7.46.84-9.6a4.41,4.41,0,0,1,7.13.86A7.27,7.27,0,0,1,191.7,60.31Zm-5.08,3.19a4.22,4.22,0,0,0,0-6.28A4.47,4.47,0,0,0,186.61,63.5Z"/>
  <path d="M236.13,51.44l1.34-1a7.45,7.45,0,0,0,5.72-.74,9.34,9.34,0,0,0,10.61,2.11A15.49,15.49,0,0,0,268,55.13c.84,1.28,2.53,1.65,3.52,2.9l.05-.06-3.75.83c-3.63-.9-7.57-1.28-10.63-4-4.09,1.88-7.46.51-10.56-2.19a8.71,8.71,0,0,1-5.84.66l-.94.7a24.36,24.36,0,0,1-3.68-2.62Z"/>
  <path d="M141.71,46.16a13.78,13.78,0,0,0,3.57-.71,11.22,11.22,0,0,0,3.11-1.78,10.56,10.56,0,0,0,7.22,1.25c.4-2.77-.35-5.59-.13-8.57,1.38.53,2,1.7,3,2.43,0,3.09.74,6,.27,9.18-2.46.71-4.62-.28-6.84-1.38a14.58,14.58,0,0,1-5.09,2.25,4,4,0,0,1-4.27-1.34C142.19,47.14,141.64,46.91,141.71,46.16Z"/>
  <path d="M201.66,54.75a4.12,4.12,0,0,1-.81,2.37,2.7,2.7,0,0,0-3.12.53c-1.34,1.24-1.26,2.72-1.15,4.27a3.13,3.13,0,0,0,1.83,1.66c.62-.65,0-1.6.55-2.31.37-.42.92-.28,1.42-.3s1,0,1.51,0c.63.88.33,1.78.36,2.63s0,1.61,0,2.37a5.7,5.7,0,0,1-8.49-2.37,8,8,0,0,1,.3-7.18A5.3,5.3,0,0,1,201.66,54.75Z"/>
  <path d="M159.93,56.89c-.9-.69-1.75-.21-2.4-.74a2.59,2.59,0,0,1-.06-2.17c1.38-.52,2.86-.19,4.3-.25s2.92,0,4.39,0a3,3,0,0,1,.2,2.39c-.77.57-1.66.13-2.67.6-.45,3.21.12,6.65-.31,10.09a6.3,6.3,0,0,1-3.16.11c-.55-1.66-.21-3.35-.27-5S159.93,58.53,159.93,56.89Z"/>
  <path d="M18.12,61.48c-.27.86-.85,1-1.5,1.37.4,1.68-1.31,2.23-2,3.57,1.86,1.61,2.07,4.23,3.7,6,.64.71.32,1.67.27,2.46-.28.4-.64.64-1,.56-1.95-.45-3.9.82-6.19,0l3.6-2.7c.3-1.25-.58-1.69-1.28-2.16a6.3,6.3,0,0,1-3-4.39,15.6,15.6,0,0,1,4.07-6.86C16.24,59.81,16.93,61.06,18.12,61.48Z"/>
  <path d="M208.19,53.81a6.55,6.55,0,0,0,1.66,1.6c.12.78.05,1.33-.38,1.57-.76.38-1.06-.41-1.6-.25a.88.88,0,0,0-.19,1A10.33,10.33,0,0,0,209,59.22a5.23,5.23,0,0,1,1.76,2.68c-.18,1.5.36,3.46-1.65,4.47a5.6,5.6,0,0,1-5.61-.37,4.44,4.44,0,0,1,.67-2.12c.75-.2,1.24.45,1.91.49.91-.17,1.47-.6,1.14-1.73-1.22-.32-1.82-1.47-2.66-2.2-.78-2-1.16-3.91,0-5.89A4.09,4.09,0,0,1,208.19,53.81Z"/>
  <path d="M131,72.54a2.93,2.93,0,0,1-.44,2.3c-.2.44-.63.88,0,1.48.87.13,1.3-1.17,2.14-.72,1.29-1.73,1.69-3.7,2.9-5.24,0,2-1.42,3.56-1.8,5.49,1,.55,1.7-.52,2.42-.33.84-.74.81-1.85,1.59-2.6.92,1.29-1.31,2.25-.11,3.53,1.67-.5,1.38-2.58,2.78-3.69,0,2.16-2,3.62-.93,5.59-1.47,1.5-3.12.53-4.62.72,1.06-.87,2.59.18,3.65-1.06-.7-.94-2.08-.61-2.57-1.49-1,0-1.6.78-2.43.85s-.85-.8-1.5-.8-1,.84-1.77.81c-.76.22-1.08-.6-1.6-.79-.94.36-1.68,1.16-2.69.62-.61-.94,0-1.86,0-2.8-1.23.66-1.52,2-2.42,3.07-1-1.18.6-2.08.12-3.19l-2.09,2.88c-1.88-.26-3.74.36-5.61.14-1-2.68.28-4.21,3.8-4.44-.62,1.21-.62,1.21-.51,3.15l2.07-.51c.82-.7,1-1.63,1.59-2.42a19,19,0,0,1,4.36-.06c.75,1.07-.46,1.9-.06,2.95.78.28,1.29-.71,1.89-.4,1.11-.82,1-2.29,2-3Zm-14.39,3.71a1.82,1.82,0,0,0,1.63-2.36A1.83,1.83,0,0,0,116.57,76.25Z"/>
  <path d="M169,72.54c.31,1.22-1.07,2.09-.72,3.45.93.09,1.66-.57,2.45-.45.51-.76,1.14-1.38.25-2.41,1.35,0,1.42-1.21,2-1.85.68.53-.42,1.75,1.48,1.72-1.08.59-1.92.64-2.18,1.36-.21.57-.9,1.06-.45,1.75.54.46.84,0,1.17-.23a.85.85,0,0,1,1.06-.08c-.53,1.14-1.7,1.16-2.5,1.54-.91,0-.83-.91-1.45-1.13-.76.31-1.32,1.11-2.26,1.14-.58,0-.83-.59-1.44-.83-1.22,1.19-2.89.51-4.31.82-.72,0-.91-.85-1.52-.87-.82,0-1.38.58-2.23.88a3.25,3.25,0,0,0-2.54.08l-1.32-.94c-1.31,0-2.35,1.42-3.87.69-.85-1.14.23-1.92.69-2.84l0-.08,0,.13-.71-.57a2.92,2.92,0,0,1,.56-1.65c.9.06,1.1,1,1.81,1.13,0,1.4-1.44,1.66-1.61,2.87,1.33.87,2.16-.92,3.36-.56a5,5,0,0,1,4.4-3c-.06,1.31-1.09,2.35-.63,3.66,1,.2,1.44-1.15,2.41-.64a5,5,0,0,1,3.93-2.88c.81-.69.62-1.91,1.74-2.49.19,2.3-2,3.79-1.91,6,1.07.08,1.54-1.09,2.32-.83,1.09-.83.73-2.41,2-2.93Zm-6.42,4c.58-.89,1.43-1.17,1-2.19A1.84,1.84,0,0,0,162.59,76.59Zm-5.06-2.28c-.83.6-1.45,1-1.23,1.91C157.07,75.9,157.34,75.35,157.53,74.3Z"/>
  <path d="M81.9,32.5a4.51,4.51,0,0,1-3.22-3.85,73.74,73.74,0,0,0-2.22-10.88,15,15,0,0,1,2.76,2.18c.69.18,1.22-.53,2.08-.3,1.31.48,1,1.77,1.22,3-.94.11-1.29-.84-2.11-.84C80.75,25.37,82.32,28.73,81.9,32.5Z"/>
  <path d="M200.86,72.56c.22,1.2-1.07,2.07-.77,3.48l2.15-.57c.79-.69.94-1.61,1.54-2.41a6.6,6.6,0,0,1,2.65,0c.13,1.1-.66,1.88-.58,3a3,3,0,0,0,2.74-1.5,3.18,3.18,0,0,1,3.05-1.6c.4.85-.35,1.14-.36,1.61-.58.15-.9-.46-1.37-.17a2.21,2.21,0,0,0-1,1.69c1.82,1.24,3.09-1,4.55-.6.7-.52.43-1.21.75-1.77.48-.33.95-.82,1.7-.65.13.5-.49.66-.46,1.09.22.29.48.56.34,1s-.77.41-.77.93c0,0-.2.12-.05-.05a11.71,11.71,0,0,0,2.54-.25,5.74,5.74,0,0,1-2.65,1.53c-1.17.12-1.65-.6-2.36-.79-1,.22-1.88.79-2.58.83a5.48,5.48,0,0,1-2.41-.86l-1.8.82a1.1,1.1,0,0,1-1.19-.67c-.09-.93,1-1.64.48-2.77-1.83.38-1.55,2.34-2.65,3.42a2.51,2.51,0,0,0-2.58,0,1.35,1.35,0,0,1-1.1-.8c.83-1.21.56-3.09,2.23-3.94Z"/>
  <path d="M12.43,34.12c.63-.35,1.29.28,2-.09-.15-.78-.76-.66-1.31-.68-.08-.55-.37-1.14.39-1.63.94.06,1.13,1.24,2,1.51,1.89.67,3.9.05,5.86.44.18,1.49-1.21,2.41-.93,3.84l-5.22-1.7c-.77.07-1.19.89-2.06.9-.65-.76,0-1.87-.61-2.65Zm6.32,1.09c.5.27.87.39,1.17-.06C19.56,34.78,19.21,34.8,18.75,35.21Z"/>
  <path d="M241.85,35.35l-1.53,5.3a1.76,1.76,0,0,1-2.13.2l1-8.16A8.93,8.93,0,0,1,241.85,35.35Z"/>
  <path d="M112.93,74.22c0,.57.52,1.05.32,1.68-1.09,3.59-2.35,4.64-4.33,3.39l2.17-5.12-.79-1.1c2,.15,1.9-1.89,3-2.85.49.92-.49,1.42-.34,1.95.28.9,1.07.63,1.52,1C114.09,73.69,113.29,73.38,112.93,74.22Zm-2.67,4.67c2-1.4,2.22-2.15,1.45-3.73A9.63,9.63,0,0,0,110.25,78.89Z"/>
  <path d="M177,72.57c.1,1.18-1.09,2.07-.84,3.21.49.44.77.08,1.09,0s.7-.18,1-.26c.66-.67.72-1.66,1.53-2.32a1.78,1.78,0,0,1,2.26.31c.24,2.33-.17,3-2.2,3.88-.89,0-1.14-.87-1.77-1.23-.78.52-1.46,1.25-2.44,1.24-.55-.14-.76-.51-.91-1.11.78-1.12.75-2.86,2.33-3.63Zm2.83,3.84a2,2,0,0,0,1-2.51A2.19,2.19,0,0,0,179.82,76.41Z"/>
  <path d="M271.52,58a3.7,3.7,0,0,1,2.54.47,6.77,6.77,0,0,0,4.94.28c.78,1,1.9,1.64,2.51,3.15-4,0-7.34-1.06-9.93-4Z"/>
  <path d="M205,10.58c2,1.44,2.25,2.37,1.89,7.58-.59.25-.77-.26-.94-.6-.63-1.31-1.26-2.62-1.8-4A2.36,2.36,0,0,1,205,10.58Z"/>
  <path d="M203.55,36.17c-1.13-1.48-1.29-2.65-1-7.71C205.19,30.24,205.71,34.16,203.55,36.17Z"/>
  <path d="M226.5,76.93,229.16,75c-.6-.92-2.28-.68-2.12-2.26.83-2.2,1.26-2.47,3.92-2.29a2.29,2.29,0,0,1,.52,3.11,7.83,7.83,0,0,1-4.69,3.79Zm1.39-4c.5.93,1.47.66,1.93,1.27a3.42,3.42,0,0,0,1.27-2.37C229.6,70.44,229,70.64,227.89,73Z"/>
  <path d="M105.31,76c-.34.89-1.11,1-1.85,1.39a2.36,2.36,0,0,0-2.46.09c-1.8-2.18-.51-4,3.33-4.82l-.75,3C104.07,76.53,104.68,75.75,105.31,76Zm-2.23-2.07c-2.19,1.12-2.33,1.4-1.43,2.53C102.61,76,102.86,75.2,103.08,73.95Z"/>
  <path d="M18.49,26.05c-1.66-1.85-1.67-2.36-.17-5.16a1.8,1.8,0,0,1,2.05.4c.58,1.34.06,2.52-.69,3.69l.49.57C19.57,25.75,18.9,25.6,18.49,26.05Zm.39-4.56c-.42.8-.21,1.09.66,1C19.72,21.83,19.44,21.59,18.88,21.49Z"/>
  <path d="M239.83,76.52a4,4,0,0,0,1.65-1.64c-.26-1.61-1.43-1.31-2.58-1.07-.22-1.44.57-2.34,1.07-3.41h3.87c-1.15.7-2.13.25-2.88.5s-.81.91-1.06,1.5c.64.84,2.23.52,2.44,1.94-.75,2.84-2.77,3.82-5.06,2.39.31-.5.77-.17,1.16-.21S239.32,76.52,239.83,76.52Z"/>
  <path d="M183.78,77.43a12.74,12.74,0,0,1,1.65-4.31,5.18,5.18,0,0,1,2.31-.11c.88,1-.35,1.82-.09,2.74.42.66,1,.14,1.79,0a2.7,2.7,0,0,1-2.24,1.63c-1.92-.71.14-2.19-.76-3.09C184.67,74.5,185.26,76.67,183.78,77.43Z"/>
  <path d="M23.06,23.51c0-.28-.09-.58.18-.85.5-.26.93,0,1.39.32a3.56,3.56,0,0,1,.46,2c-1.4,2-1.4,2-3,2-1.05-1.79-.68-3.05,1-3.55.09.45-.32,1,.33,1.33C24.16,23.93,24.16,23.93,23.06,23.51Z"/>
  <path d="M194,75.7c.73-.24.89.58,1.43.53s.55-.6.5-1c-.27-.65-.86,0-1.21-.5-.08-1.13.59-2,1.48-3.39.17,2,1.09,3.5.63,5.2a1.51,1.51,0,0,1-2.06.64C194.17,77,193.46,76.68,194,75.7Z"/>
  <path d="M147.08,76.22c.85.4,1.17-.67,1.89-.47-.77,1.21-.88,1.27-2.71,1.52-.77-1.2.16-2.19.48-3.16l-.53-1c1.05-.15,1.48-1,1.83-1.85,1,.47-.31,1.72,1.4,1.72C147.84,73.89,146.76,74.65,147.08,76.22Z"/>
  <path d="M20.46,30.09a5.84,5.84,0,0,0,2-.5c.66.39.81.81.54,1.36-2.89,1.53-4.75,1.36-6.47-.72,1.45-.16,2.55,1.37,4,.59l0-.77Z"/>
  <path d="M233.39,77.22c.29-1.86,1.54-3.36,1.87-5,.26-.82-.82-.92-.63-1.62a2.73,2.73,0,0,1,2-.08c0,1.38-.85,2.44-1.43,3.54S234.63,76.5,233.39,77.22Z"/>
  <path d="M223.59,70.57a2.09,2.09,0,0,1,1.83-.07c-.63,2.44-2.06,4.49-3.14,6.71-.07-2,1.28-3.57,1.9-5.44C224.24,71.3,223.29,71.23,223.59,70.57Z"/>
  <path d="M147.81,10l-1.14,2.59c-1-.73-1.11-1.67-1.63-2.41C146,9.26,146.73,9.44,147.81,10Z"/>
  <path d="M25.36,29.71a7.17,7.17,0,0,1,.59-3c.58-2.08,1.4-4.11,1.32-6.32.68,3.36-.71,6.29-2,9.24Z"/>
  <path d="M21.47,27.43c-.5,1.48-1.35,1.51-2.07,1.2s-1.84-.39-1.45-1.85c.43.49.75,1,1.39,1.07A3.41,3.41,0,0,0,21.47,27.43Z"/>
  <path d="M178.36,8.74c1.88.23,1.88.23,2.06,1.83A3.27,3.27,0,0,1,178.36,8.74Z"/>
  <path d="M16.06,29.18c-1.1-.32-1.33-.87-.4-2,.59.93,1.76,1,2.14,2l0,0a1,1,0,0,1-1-.17c-.37-.27-.65-.15-.84.23Z"/>
  <path d="M269.41,21.54a4.14,4.14,0,0,1-1.87-2C268.67,20,269.35,20.25,269.41,21.54Z"/>
  <path d="M30.92,56.27c.57.44,1,1.1,1.72,1.38l-1.11.77.07.06L31,56.22Z"/>
  <path d="M18.71,19.28l.65-.62a1.25,1.25,0,0,1,1.14.69C19.85,19.92,19.33,19.58,18.71,19.28Z"/>
  <path d="M94.06,18.66c-.57-.15-.7-.61-.8-1.12.47-.37.63.07.82.32A.58.58,0,0,1,94.06,18.66Z"/>
  <path d="M25.16,20.89c.85-.07.67.65,1,1-.28.12-.47.26-.52.22C25.15,21.75,25.15,21.74,25.16,20.89Z"/>
  <path d="M20.5,30c-.77-.06-1.61.32-2.28-.37l-.05,0c.79,0,1.62-.36,2.29.37Z"/>
  <path d="M169.08,72.61c0-.42-.16-.87.19-1.24.5.46.5.46-.26,1.18Z"/>
  <path d="M131,72.6c.09-.4-.13-.84.19-1.21.64.43.64.43-.26,1.14Z"/>
  <path d="M246.94,16.72c-.42,0-.6-.24-.74-.58C246.83,15.87,247.1,16,246.94,16.72Z"/>
  <path d="M30,66.78a.85.85,0,0,1-.09-1C30.31,66.11,30.05,66.47,30,66.78Z"/>
  <path d="M280.25,13c0,.6-.11.77-.48.64C279.59,13.22,279.79,13.09,280.25,13Z"/>
  <path d="M89.14,8.74c.34.08.55.26.53.76C89.21,9.41,88.91,9.3,89.14,8.74Z"/>
  <path d="M28.26,74.53c0,.3.14.61,0,.7-.36.34-.25-.12-.25-.22S28.16,74.76,28.26,74.53Z"/>
  <path d="M6.3,20.77c-.17.26-.3.57-.69.62,0-.6.49-.41.75-.56Z"/>
  <path d="M34,57.65l.41-.45C34.7,57.57,34.43,57.68,34,57.65Z"/>
  <path d="M200.93,72.63c0-.4-.21-.82.13-1.19.56.49.22.81-.2,1.12Z"/>
  <path d="M31,56.22a.64.64,0,0,1-.24-.73.88.88,0,0,1,.79-.16l-.05-.05a1.49,1.49,0,0,1-.58,1Z"/>
  <path d="M177.07,72.63c-.07-.42-.34-.84.09-1.28.49.5.29.87-.17,1.22Z"/>
  <path d="M10.49,47.83a.76.76,0,0,1,0-.17s.06,0,.09,0a.8.8,0,0,1,0,.17S10.52,47.81,10.49,47.83Z"/>
  <path d="M95.46,42.57s-.11,0-.11-.06c0-.19.06-.23.15-.11S95.47,42.51,95.46,42.57Z"/>
  <path d="M12.7,29.15s.1,0,.1.06a.71.71,0,0,1,0,.18s-.11,0-.11-.06A.74.74,0,0,1,12.7,29.15Z"/>
  <path d="M13.2,28.07s-.11,0-.11-.06c0-.2.08-.25.15-.12S13.22,28,13.2,28.07Z"/>
  <path d="M15,40c.22.17.13.33,0,.49C14.81,40.28,14.71,40.11,15,40Z"/>
  <path d="M58.9,41.68l.2,0-.19-.08Z"/>
  <polygon points="58.91 41.63 58.86 41.52 58.9 41.68 58.91 41.63"/>
  <polygon points="10.79 19.96 10.7 20 10.85 19.98 10.79 19.96"/>
  <path d="M31.55,55.34c0-.2,0-.44.3-.22l-.35.17Z"/>
  <path d="M17.8,29.21c.3,0,.52.14.37.51l.05,0c-.25-.07-.49-.16-.38-.51Z"/>
  <path d="M16,29.23c.21,0,.39,0,.29.31-.31,0-.23-.19-.24-.36Z"/>
  <path d="M9.94,21.31c-.06,0,.16-.24-.06-.06Z"/>
  <polygon points="44.28 65.97 44.27 65.87 44.27 66.03 44.28 65.97"/>
  <path d="M9.88,21.25l-.47.47.07.07c0-.33.16-.47.47-.48Z"/>
  <polygon points="296.77 65.95 296.74 65.86 296.76 66.01 296.77 65.95"/>
  <path d="M306.11,30.68c1.37.7,1.09,2,.84,3.05-.59,2.65-1.3,5.27-2,7.9-1.13,4.41-2.26,8.81-3.42,13.21-.18.67-.14,1.52-1.15,1.79a1.91,1.91,0,0,1-.83-2.4q2.64-10.91,5.29-21.83C305,31.71,305.16,30.94,306.11,30.68Z"/>
  <path d="M249.06,40.54a2.14,2.14,0,0,1,2.16.28,1.52,1.52,0,0,1-.17,2C249.26,43,249.06,42.77,249.06,40.54Z"/>
  <path d="M65.57,24.37A2.43,2.43,0,0,1,67,22.75c1.25.2,1.28,1.27,1.46,2.17C69.27,29,70,33.13,70.79,37.25c.57,3.1,1.13,6.21,1.68,9.31a15.12,15.12,0,0,1,.23,1.52c.06.84-.26,1.41-1,1.53a1.25,1.25,0,0,1-1-1.16Q68.1,36.4,65.57,24.37Z"/>
</svg>
