<?xml version="1.0" encoding="UTF-8" standalone="no"?>
<!DOCTYPE svg PUBLIC "-//W3C//DTD SVG 1.1//EN" "http://www.w3.org/Graphics/SVG/1.1/DTD/svg11.dtd">
<svg width="100%" height="100%" viewBox="0 0 500 300" version="1.1" xmlns="http://www.w3.org/2000/svg" xmlns:xlink="http://www.w3.org/1999/xlink" xml:space="preserve" xmlns:serif="http://www.serif.com/" style="fill-rule:evenodd;clip-rule:evenodd;stroke-linejoin:round;stroke-miterlimit:2;">
    <g transform="matrix(1,0,0,1,153.5,269)">
        <rect x="0" y="0" width="2" height="2" style="fill-rule:nonzero;"/>
    </g>
    <g transform="matrix(1,0,0,1,241.5,260)">
        <path d="M0,0L6,0L6,7L8,8L3,9L-2,8L-3,4L0,0ZM1,1L-1,3L0,8L4,6L3,1L1,1Z" style="fill-rule:nonzero;"/>
    </g>
    <g transform="matrix(1,0,0,1,239.5,256)">
        <path d="M0,0L9,0L12,3L12,10L10,11L10,4L7,2L0,3L-2,6L-2,13L0,15L9,16L8,18L0,18L-4,14L-5,12L-5,6L0,0Z" style="fill-rule:nonzero;"/>
    </g>
    <g transform="matrix(1,0,0,1,471.5,253)">
        <path d="M0,0L13,0L13,5L11,3L4,2L4,8L10,8L11,10L4,10L4,16L12,16L13,13L13,18L0,18L0,16L2,16L2,2L0,2L0,0Z" style="fill-rule:nonzero;"/>
    </g>
    <g transform="matrix(1,0,0,1,461.5,253)">
        <path d="M0,0L6,0L6,2L4,2L4,16L6,16L6,18L-1,18L0,16L2,16L2,2L-1,1L0,0Z" style="fill-rule:nonzero;"/>
    </g>
    <g transform="matrix(1,0,0,1,441.5,253)">
        <path d="M0,0L9,0L14,3L16,7L15,14L10,18L0,18L0,16L2,16L2,2L0,2L0,0ZM4,2L4,16L10,16L13,13L13,5L9,2L4,2Z" style="fill-rule:nonzero;"/>
    </g>
    <g transform="matrix(1,0,0,1,426.5,253)">
        <path d="M0,0L8,1L11,5L11,13L6,18L-1,18L-6,12L-5,4L0,0ZM1,2L-3,5L-3,13L0,16L6,16L9,12L9,6L5,2L1,2Z" style="fill-rule:nonzero;"/>
    </g>
    <g transform="matrix(1,0,0,1,405.5,253)">
        <path d="M0,0L8,1L11,5L11,13L6,18L-1,18L-6,12L-5,4L0,0ZM1,2L-3,5L-3,13L0,16L6,16L9,12L9,6L5,2L1,2Z" style="fill-rule:nonzero;"/>
    </g>
    <g transform="matrix(1,0,0,1,382.5,253)">
        <path d="M0,0L13,0L14,4L12,5L12,2L5,2L5,8L11,8L11,10L5,10L5,16L8,16L8,18L0,18L0,16L2,16L2,2L0,2L0,0Z" style="fill-rule:nonzero;"/>
    </g>
    <g transform="matrix(1,0,0,1,368.5,253)">
        <path d="M0,0L10,0L10,6L8,6L5,3L-1,4L-2,6L-2,13L0,15L8,15L8,13L4,12L4,10L11,10L11,18L8,17L6,18L0,18L-5,14L-6,8L-3,2L0,0Z" style="fill-rule:nonzero;"/>
    </g>
    <g transform="matrix(1,0,0,1,341.5,253)">
        <path d="M0,0L5,1L12,11L12,13L14,13L13,3L11,2L11,0L18,0L18,2L16,2L16,18L12,17L5,6L4,16L6,16L6,18L0,18L0,16L2,16L2,2L0,2L0,0Z" style="fill-rule:nonzero;"/>
    </g>
    <g transform="matrix(1,0,0,1,331.5,253)">
        <path d="M0,0L6,0L6,2L4,2L4,16L6,16L6,18L0,18L0,16L2,16L2,2L0,2L0,0Z" style="fill-rule:nonzero;"/>
    </g>
    <g transform="matrix(1,0,0,1,312.5,253)">
        <path d="M0,0L15,0L15,5L13,5L13,2L8,2L8,16L10,16L10,18L4,18L4,16L6,16L6,2L2,2L1,5L-1,5L0,0Z" style="fill-rule:nonzero;"/>
    </g>
    <g transform="matrix(1,0,0,1,298.5,253)">
        <path d="M0,0L9,0L9,6L7,6L5,3L-1,3L1,7L9,10L10,15L7,18L-4,18L-4,12L-1,13L-1,15L6,15L6,12L-3,8L-3,2L0,0Z" style="fill-rule:nonzero;"/>
    </g>
    <g transform="matrix(1,0,0,1,277.5,253)">
        <path d="M0,0L5,1L10,13L13,16L13,18L7,18L7,13L0,12L1,18L-6,18L-5,16L-3,16L-2,10L0,5L0,0ZM3,3L1,10L6,10L4,3L3,3Z" style="fill-rule:nonzero;"/>
    </g>
    <g transform="matrix(1,0,0,1,255.5,253)">
        <path d="M0,0L13,0L13,5L11,5L11,2L4,2L4,8L10,8L10,10L4,10L4,16L7,16L7,18L0,18L0,16L2,16L2,2L0,2L0,0Z" style="fill-rule:nonzero;"/>
    </g>
    <g transform="matrix(1,0,0,1,199.5,253)">
        <path d="M0,0L5,0L9,9L9,12L11,12L14,2L16,0L20,0L20,2L18,2L18,16L20,16L20,18L14,18L14,16L16,16L15,7L11,16L9,16L5,7L4,16L6,16L6,18L0,18L0,16L2,16L2,2L0,2L0,0Z" style="fill-rule:nonzero;"/>
    </g>
    <g transform="matrix(1,0,0,1,184.5,253)">
        <path d="M0,0L8,1L11,5L11,13L6,18L-1,18L-6,12L-5,4L0,0ZM1,2L-3,5L-3,13L0,16L6,16L9,12L9,6L5,2L1,2Z" style="fill-rule:nonzero;"/>
    </g>
    <g transform="matrix(1,0,0,1,164.5,253)">
        <path d="M0,0L7,1L10,0L10,6L6,4L5,3L0,3L-2,5L-2,13L0,15L6,15L10,13L8,17L6,18L-1,18L-6,12L-5,4L0,0Z" style="fill-rule:nonzero;"/>
    </g>
    <g transform="matrix(1,0,0,1,136.5,253)">
        <path d="M0,0L14,0L14,5L12,5L12,2L4,2L4,8L11,8L11,10L4,10L4,16L12,16L13,13L14,18L0,18L0,16L2,16L2,2L0,2L0,0Z" style="fill-rule:nonzero;"/>
    </g>
    <g transform="matrix(1,0,0,1,118.5,253)">
        <path d="M0,0L10,0L13,2L13,9L14,15L11,18L0,18L0,16L2,16L2,2L0,2L0,0ZM4,2L4,8L10,8L11,3L4,2ZM4,10L4,16L10,16L12,15L11,10L4,10Z" style="fill-rule:nonzero;"/>
    </g>
    <g transform="matrix(1,0,0,1,97.5,253)">
        <path d="M0,0L6,0L6,2L4,2L5,14L6,15L11,15L12,14L13,2L11,2L11,0L17,0L17,2L15,2L15,14L12,18L5,18L2,15L2,2L-1,1L0,0Z" style="fill-rule:nonzero;"/>
    </g>
    <g transform="matrix(1,0,0,1,77.5,253)">
        <path d="M0,0L16,0L16,5L14,5L14,2L9,2L9,16L11,16L11,18L5,18L5,16L7,16L7,2L2,2L2,5L0,5L0,0Z" style="fill-rule:nonzero;"/>
    </g>
    <g transform="matrix(1,0,0,1,56.5,253)">
        <path d="M0,0L6,0L6,2L4,2L5,14L6,15L11,15L12,14L13,2L11,2L11,0L17,0L17,2L15,2L15,15L12,18L5,18L2,15L2,2L0,2L0,0Z" style="fill-rule:nonzero;"/>
    </g>
    <g transform="matrix(1,0,0,1,41.5,253)">
        <path d="M0,0L7,1L11,5L11,13L6,18L-1,18L-5,14L-6,12L-6,6L-2,1L0,0ZM0,2L-4,7L-3,13L0,16L7,15L9,12L8,5L5,2L0,2Z" style="fill-rule:nonzero;"/>
    </g>
    <g transform="matrix(1,0,0,1,15.5,253)">
        <path d="M0,0L6,0L6,4L7,8L10,5L10,0L16,0L16,2L13,5L10,10L9,16L11,16L11,18L5,18L5,16L7,16L5,8L2,3L0,2L0,0Z" style="fill-rule:nonzero;"/>
    </g>
    <g transform="matrix(1,0,0,1,229.5,252)">
        <path d="M0,0L2,1L-4,21L-6,21L-4,11L-1,1L0,0Z" style="fill-rule:nonzero;"/>
    </g>
    <g transform="matrix(1,0,0,1,394.5,157)">
        <path d="M0,0L12,4L26,3L24,12L19,17L17,18L10,18L3,15L-2,9L-3,2L0,0Z" style="fill-rule:nonzero;"/>
    </g>
    <g transform="matrix(1,0,0,1,372.5,139)">
        <path d="M0,0L68,0L68,12L61,12L59,28L54,37L47,43L43,45L42,48L53,54L57,59L59,65L59,87L68,87L68,99L-1,99L-1,88L0,87L8,87L8,68L11,59L16,53L25,48L23,44L17,40L11,33L8,26L7,21L7,12L0,12L0,0ZM11,12L11,22L14,31L20,38L28,43L29,49L24,53L16,58L12,66L12,87L56,87L56,71L54,62L49,56L40,51L39,50L39,44L50,36L55,28L57,19L57,12L11,12Z" style="fill-rule:nonzero;"/>
    </g>
    <g transform="matrix(1,0,0,1,323.5,139)">
        <path d="M0,0L38,0L40,1L41,9L39,13L15,13L15,43L33,43L35,44L35,55L33,56L15,56L15,86L39,86L41,89L40,98L38,99L0,99L-2,97L-2,2L0,0Z" style="fill-rule:nonzero;"/>
    </g>
    <g transform="matrix(1,0,0,1,292.5,139)">
        <path d="M0,0L13,0L15,2L15,97L13,99L0,99L-2,97L-2,2L0,0Z" style="fill-rule:nonzero;"/>
    </g>
    <g transform="matrix(1,0,0,1,228.5,139)">
        <path d="M0,0L30,0L39,3L45,8L48,16L48,83L45,91L39,96L31,99L0,99L-2,96L-2,3L0,0ZM16,13L16,86L24,86L29,84L31,80L31,19L29,15L24,13L16,13Z" style="fill-rule:nonzero;"/>
    </g>
    <g transform="matrix(1,0,0,1,49.5,139)">
        <path d="M0,0L38,0L40,1L41,9L39,13L15,13L15,43L33,43L35,44L35,55L34,56L15,56L15,97L13,99L0,99L-2,97L-2,2L0,0Z" style="fill-rule:nonzero;"/>
    </g>
    <g transform="matrix(1,0,0,1,183.5,138)">
        <path d="M0,0L9,0L21,3L28,11L30,19L30,82L28,90L25,95L16,100L10,101L-2,101L-12,98L-17,94L-20,88L-21,83L-21,18L-18,9L-13,4L-6,1L0,0ZM0,14L-3,17L-3,84L0,87L8,87L12,83L12,18L8,14L0,14Z" style="fill-rule:nonzero;"/>
    </g>
    <g transform="matrix(1,0,0,1,119.5,138)">
        <path d="M0,0L9,0L21,3L26,8L29,13L30,18L30,83L27,92L22,97L16,100L10,101L-1,101L-9,99L-16,95L-20,88L-21,82L-21,19L-19,11L-16,6L-9,2L0,0ZM0,14L-3,18L-3,83L0,87L9,87L12,83L12,18L9,14L0,14Z" style="fill-rule:nonzero;"/>
    </g>
    <g transform="matrix(1,0,0,1,291.5,27)">
        <path d="M0,0L14,0L16,3L16,95L13,99L1,99L-2,96L-2,2L0,0Z" style="fill-rule:nonzero;"/>
    </g>
    <g transform="matrix(1,0,0,1,405.5,26)">
        <path d="M0,0L20,0L28,3L34,10L36,19L36,30L34,34L32,35L22,35L18,32L17,17L14,14L7,14L4,17L4,83L6,85L11,86L16,84L17,83L18,61L11,60L10,58L10,50L14,47L32,47L35,49L36,52L36,80L34,89L30,95L22,99L18,100L3,100L-6,97L-11,93L-14,87L-15,83L-15,17L-12,8L-5,2L0,0Z" style="fill-rule:nonzero;"/>
    </g>
    <g transform="matrix(1,0,0,1,325.5,26)">
        <path d="M0,0L12,0L15,2L29,48L32,60L32,63L34,63L33,61L32,48L32,2L35,0L46,0L48,2L48,97L46,99L32,99L29,94L18,58L13,39L13,98L12,99L-1,99L-3,97L-3,2L0,0Z" style="fill-rule:nonzero;"/>
    </g>
    <g transform="matrix(1,0,0,1,222.5,26)">
        <path d="M0,0L49,0L52,2L52,11L49,14L33,14L33,98L32,99L18,99L16,97L16,14L1,14L-3,10L-3,3L0,0Z" style="fill-rule:nonzero;"/>
    </g>
    <g transform="matrix(1,0,0,1,176.5,26)">
        <path d="M0,0L20,0L28,4L33,10L35,18L35,33L33,36L19,36L17,33L16,17L13,14L6,14L3,17L3,28L6,34L15,43L23,50L30,57L34,66L35,81L33,90L28,96L22,99L17,100L2,100L-7,97L-12,93L-15,87L-16,80L-16,67L-13,63L-1,63L2,66L3,83L5,85L10,86L15,84L16,83L16,71L12,64L-1,52L-10,44L-14,37L-16,23L-14,10L-8,3L0,0Z" style="fill-rule:nonzero;"/>
    </g>
    <g transform="matrix(1,0,0,1,110.5,26)">
        <path d="M0,0L24,0L26,3L39,88L39,97L38,98L25,98L23,96L21,85L21,79L3,79L2,95L0,98L-13,98L-15,96L-14,83L-2,4L0,0ZM11,32L2,44L1,51L4,57L10,60L17,59L22,54L23,52L23,46L17,37L13,32L11,32Z" style="fill-rule:nonzero;"/>
    </g>
    <g transform="matrix(1,0,0,1,49.5,26)">
        <path d="M0,0L37,0L40,3L40,11L37,14L15,14L15,43L32,43L35,46L35,54L33,56L15,56L15,95L13,99L-1,99L-3,97L-3,3L0,0Z" style="fill-rule:nonzero;"/>
    </g>
</svg>
