<svg data-name="Layer 1" xmlns="http://www.w3.org/2000/svg" viewBox="0 0 175.15 46.23" width="175" height="46"><title>J. Hertel &amp; Associates LLC</title><path d="M4.62,25.73V25h1.3c4.62,0,9.26.2,13.86-.07,3.74-.21,7.47-.12,11.21-.18s7.53,0,11.3,0H87.51c3.76,0,7.53-.07,11.3,0,3.26.08,6.52.29,9.78.25s6.6,0,9.89,0h29.68c3.29,0,6.59,0,9.89,0,.95,0,1.88.31,2.85.26s1.95,0,2.95,0V26H33.62c-3.17-.5-6.35-.19-9.53-.24s-6.51,0-9.76,0Z"/><path d="M25.4,5.94a22.78,22.78,0,0,0-3.52,0,22.52,22.52,0,0,1-2.78.21l-.28.28-.72,4.26,1.64.47-.4.4a5.87,5.87,0,0,1-1.91-.23,1.48,1.48,0,0,0-1.34.11c-.24.15-.62.08-.92.11l-.06-.39,1.44-.4c.55-.61.34-1.41.59-2.09a11.59,11.59,0,0,0,.3-2.32c0-.31.18-.61.24-.92s0-.61.21-1,0-.94.18-1.45A12.86,12.86,0,0,0,18.52.84H17L16.91.35h4.6l0,.41H20.08c-.85,1.41-.57,3.09-1.21,4.61h6.72l.9-4.55H25L24.84.33c1.47-.08,2.89,0,4.35,0l.09.48H27.75l-1.83,9.85a1.62,1.62,0,0,0,1.49.46l.05.41c-.77.37-1.47-.34-2.24-.17a21.72,21.72,0,0,1-2.34.27l-.06-.39,1.75-.37C24.74,9.15,25.41,7.63,25.4,5.94Z"/><path d="M65.13,1.76l-.62-.26V.36A.89.89,0,0,1,66,.37V1.62l-6.83,7.6a3.44,3.44,0,0,0,2.5,1.09c.38,0,.76,0,1.15,0a5.64,5.64,0,0,0,3.95-1.62A9.28,9.28,0,0,0,69,5.55L67.1,4.17h-1l-.45.63c-.27.36-.07.64.25.87l.57-.87.66.55-.3.8H65.5l-.55-1a2.84,2.84,0,0,1,1.13-1.77h2c.64.44,1.38.92,2.1,1.43a2.31,2.31,0,0,0,1.72.3l.37-1.35-.64-.48-.16.11.17.44-.93.42V3.18l1-.39,1,1.06c0,1,0,1-1,2l-1,.34a2.44,2.44,0,0,0-.5-.23,3.58,3.58,0,0,0-.66,0,5.06,5.06,0,0,0-.57.93A9.86,9.86,0,0,1,67,9.41a7.4,7.4,0,0,1-2,1.3,7.26,7.26,0,0,1-3.22.89,4.55,4.55,0,0,1-1.9-.39L59.15,11c-2.57-1.86-2.15-3.7-1.32-5.5a3.86,3.86,0,0,1,1.93-1.71c.88-.43.87-.45,2.5-.16l.5.84ZM61.35,3.82A3.61,3.61,0,0,0,58.68,6a2.17,2.17,0,0,0,.19,2.76c1-1,1.94-2,2.91-3.06a.87.87,0,0,0,.12-.27l-.55-.64Z"/><path d="M86.92.3h.51s.14.12.13.17a16.89,16.89,0,0,1-.2,2.73c-.27,1.2,0,2.48-.26,3.74a21.68,21.68,0,0,0,0,3.78l1.3.44-.07.42a4.18,4.18,0,0,0-2.77,0,5.26,5.26,0,0,1-1.78,0v-.42l1.64-.32a9.13,9.13,0,0,0,.38-3.63,19,19,0,0,0-3.12,0,14.72,14.72,0,0,1-2.06.22,23.08,23.08,0,0,0-1.91,1.6,15.05,15.05,0,0,1-1.6,1.61l1.76.51v.25a.59.59,0,0,1-.19.13c-.66.23-1.31-.74-2,0H74.53l-.08-.35c.09,0,.18-.15.27-.14A3.17,3.17,0,0,0,77.23,10c1.68-1.7,3.37-3.4,5.08-5.08a18.84,18.84,0,0,1,2.5-2.3,3.36,3.36,0,0,0,1.31-1.49C86.26.8,86.64.58,86.92.3ZM86.39,2c-.8.64-1.4,1.08-2,1.58a22.51,22.51,0,0,0-1.62,1.62c-.49.55-1.19.92-1.46,1.71,1.53.36,2.92-.39,4.33-.16A3.13,3.13,0,0,0,86,5.86,12.08,12.08,0,0,1,86.39,2Z"/><path d="M168.2.81V3C167.51,2,167,1.1,165.78.88a8.32,8.32,0,0,0-2,.11A4.17,4.17,0,0,0,161,3.68a9.62,9.62,0,0,0-.26,3,5.55,5.55,0,0,0,.67,2.68,3.26,3.26,0,0,0,2.73,1.74,8.36,8.36,0,0,0,1.5,0,5.3,5.3,0,0,0,2.72-2.34,3.41,3.41,0,0,1-.21,2.24c-.16.54-.87.2-1.14.62a20.84,20.84,0,0,1-3.71-.06,6.41,6.41,0,0,1-2.78-1.31,4.05,4.05,0,0,1-1.47-2.58,6.38,6.38,0,0,1,.28-3.8,5.51,5.51,0,0,1,2.18-2.67,7.45,7.45,0,0,1,2.71-.89c.21,0,.43,0,.64,0a5.37,5.37,0,0,1,2.87.51C167.87.85,168,.81,168.2.81Z"/><path d="M36.71,6.73a7.62,7.62,0,0,0,.91-1.35c.35-.88,1-1,1.77-1l.38.38,1.76-.16.9-2.23h.88c0,.09.1.23.06.32-.18.48-.4.95-.61,1.42-.06.14-.12.27-.25.53h1.74l-.39.75H42.27L40,10.72a13.54,13.54,0,0,0,2.37-2,1.79,1.79,0,0,1-.13.59,7.73,7.73,0,0,1-2.51,2.25,1.66,1.66,0,0,1-.45.09l-.51-.42c.74-2,1.87-3.86,2.42-6a2.51,2.51,0,0,0-1.76,1h-.57l-.13-.73h-.59a27,27,0,0,0-3.25,6.1h-.63a.55.55,0,0,1-.09-.23,2.53,2.53,0,0,1,.26-1.43c.56-1.1.78-2.32,1.26-3.46a2,2,0,0,0,0-.77l0,0,.21-.17-.08-.09a1.37,1.37,0,0,0-.17.23c-.55.22-.78.92-1.53,1.15a2.88,2.88,0,0,1,.28-.77C34.93,5.51,35.48,5,36,4.42h.82c.39.82-.19,1.53-.15,2.31,0,0,0,0,0,0l-.21.18.08.08A1.12,1.12,0,0,0,36.71,6.73Z"/><path d="M142.33,10.8h3.85c1.21-.34,1.56-1.54,2.48-2.56l-.51,3.06h-8.22l-.43.33-.86-.44,1.88-.52c.07,0,.12-.12.2-.2v-9A2.58,2.58,0,0,0,139,1.06l0-.34c.05-.06.11-.16.16-.16h5.15l.14.46-1.75.08-.32.32Z"/><path d="M158.45,8.52l-.57,2.79h-9.36a3.19,3.19,0,0,1,2-.56V1.4a6.63,6.63,0,0,0-.88-.33,4.73,4.73,0,0,0-.84,0l0-.34c.06-.06.11-.16.16-.16H154l.13.46H152.5l-.41.4v9.42c1.2,0,2.43.07,3.65,0a2.15,2.15,0,0,0,1.74-1.37C157.64,9.09,157.69,8.46,158.45,8.52Z"/><path d="M6,1.16,4.35.7V.34H8.67V.77H7.47A4.54,4.54,0,0,0,6.93,2c-.06.53-.2,1-.25,1.56a12.27,12.27,0,0,1-.49,2.24C6,6.39,6,7.06,5.87,7.69c-.34,1.56-.65,3.13-1.13,4.66a5.55,5.55,0,0,1-2.22,3.11L1,15.75l-1-.6v-.64l.4-.39,1,.31c.14.24.28.48.42.74l.22-.1a1.79,1.79,0,0,0,1.11-1.32c.25-.93.51-1.84.73-2.78a11.69,11.69,0,0,1,.66-2.79c.22-.43.06-.93.28-1.43a9,9,0,0,0,.31-2c.17-1,.39-2.06.6-3.08C5.73,1.51,5.84,1.42,6,1.16Z"/><path d="M130,43.2l-.85,1-.29-.84A3.68,3.68,0,0,0,129,43l-.15-.09a3,3,0,0,1-.41.39c-.5.35-1,1-1.68.38-.53.31-1-.17-1.53,0l-2.16-3a5.67,5.67,0,0,0-.78,2.69l.75.12c0,.14,0,.22,0,.3s-.13.16-.17.15a4.59,4.59,0,0,0-.92-.23A5.16,5.16,0,0,0,121,44c-.1,0-.21-.07-.42-.16.16-.15.24-.31.36-.34.54-.12.47-.57.59-1a28.94,28.94,0,0,0,1-4.6,2.76,2.76,0,0,0,0-.29l-.76-.16v-.12h2.56l-1,.77c-.1.71-.2,1.36-.27,2l0,0-.21.18.08.08a1.37,1.37,0,0,0,.17-.23c.14,0,.35,0,.45-.1.73-.71,1.44-1.43,2.24-2.23l-.82-.47c.91-.06,1.65,0,2.68,0-.51.36-.79.58-1.1.77a11.45,11.45,0,0,0-1,.56,6.88,6.88,0,0,0-.82.8l-1,1c1.11.93,1.46,2.43,2.77,3.14,1.11-2.36.42-2.63,4.17-3.64a12.86,12.86,0,0,1-1.17,3.33Zm-2.68,0h.78c.64-.86,1.92-1.38,1.57-2.89C128.21,40.78,127.73,41.87,127.28,43.2Z"/><path d="M118.38,10.57c.44.12.62-.23.85-.45a3.07,3.07,0,0,1,.65-.53c-.1.79-.77,1.14-1.25,1.6a1.33,1.33,0,0,1-1.45.35c-.33-.75.37-1.27.49-2.06l-2.43,2.1h-1.12l-.61-.8a6.58,6.58,0,0,1,1.77-3.88c1.1-1.09,2.33-2,4-1.71l.17-.48h1c-.72,2-1.42,3.91-2.08,5.86,0,0,0,0,0,0l-.21.18.08.08A.45.45,0,0,0,118.38,10.57Zm-3.23.21a5.26,5.26,0,0,0,2.5-2.11,5.73,5.73,0,0,0,1.27-2.95H117.8a2.88,2.88,0,0,0-.68.36,10.42,10.42,0,0,0-2.25,3.29A1.09,1.09,0,0,0,115.15,10.78Z"/><path d="M103.37,4.46c1,.29,1.17,1,1.17,1.92a5.25,5.25,0,0,1-.81,3.11,9,9,0,0,1-1.82,1.83,2,2,0,0,1-2.25-.07l-.49-1.73a2.28,2.28,0,0,0,.21-.68,5.3,5.3,0,0,1,1.4-3.12,6.33,6.33,0,0,1,.44-.46A2.07,2.07,0,0,1,103.37,4.46Zm-2.8,6.64.57-.1c.62-.1.79-.65,1.07-1.07a9.24,9.24,0,0,0,1.56-4.78l-.86-.28a8.68,8.68,0,0,0-2.79,5.79Z"/><path d="M49.5,10.64c1.06-.29,1.35-1.4,2.37-1.66a4.7,4.7,0,0,1-3.62,2.71,8,8,0,0,1,.16-.88c.76-2.07,1.82-4,2.43-6.16.14-.49.43-.92.58-1.43a11.53,11.53,0,0,1,.91-1.95c.13-.79-.87-.5-.68-1.24.66.1,1.38-.26,2,.3a29.08,29.08,0,0,0-1.19,3.11c-.15.54-.66.95-.55,1.57-.67.83-.7,1.91-1.18,2.84S50,9.66,49.5,10.64Z"/><path d="M121.68,10.75c1.06-.57,1.53-1.42,2.42-2.08-.1.32-.11.53-.22.64a9.54,9.54,0,0,1-1.7,1.72l-1.16.69-.58-.51,2.42-5.59-.47-.4-.57.32-.1-.83h1.46l1-2.34h.93a1.36,1.36,0,0,1,0,.5c-.25.54-.53,1.06-.85,1.71l1.28.11.36.36-.42.36h-1.51Z"/><path d="M30.16,10.81H31L32.31,9l.31.07a4,4,0,0,1-1.95,2.47H29.38l-.63-1.25a4.17,4.17,0,0,1,.32-2.26,10,10,0,0,1,2.25-3.3L32.4,4.4l1,.57V6.56a4,4,0,0,1-3.23,1.72C29.82,9.12,29.48,10,30.16,10.81Zm2.32-6c-1.26.61-1.68,1.74-2.23,3l1.26-.37C32.63,6.29,32.63,6.29,32.48,4.83Z"/><path d="M125.68,11.54l-.6-1.19a6.27,6.27,0,0,1,1.1-3.8,4.2,4.2,0,0,1,2.39-2.18l1.1.54V6.58a4.06,4.06,0,0,1-3.29,1.71l-.32,2c.35.66.8.53,1.32.52L128.68,9a.47.47,0,0,1,.19.73C128.12,10.82,127.36,12,125.68,11.54Zm3.21-5.16V4.94h-.67a9.2,9.2,0,0,0-1.54,2.8C127.79,7.79,128.27,6.91,128.89,6.38Z"/><path d="M48,5V6.53a4.11,4.11,0,0,1-3.33,1.76l-.34,2.08.45.45h.82L47.1,9a3.06,3.06,0,0,1-1.9,2.56h-1l-.85-1.16A7.76,7.76,0,0,1,45.91,4.8L47,4.4Zm-.82,1.39V4.83A4,4,0,0,0,45,7.71C45.93,7.63,45.93,7.63,47.19,6.37Z"/><path d="M141,40.9c.59-.48,1.19-.94,1.84-1.43l.51.62c-.52.93-1.06,1.89-1.58,2.86l0,0-.21.18.09.08c.05-.07.11-.14.16-.22h.5a2.42,2.42,0,0,1-1.44,1c-.32-.55.12-.93.33-1.32.39-.7.84-1.36,1.26-2a.61.61,0,0,0,0-.45,12.18,12.18,0,0,0-2.78,3.12,1.1,1.1,0,0,1-1.1.7l2-3.71a9.64,9.64,0,0,0-3.32,3.79c-.47-.21-.42-.56-.28-.76.56-.79.91-1.69,1.43-2.49a2.31,2.31,0,0,0,.05-.56l-.91.9c.12-1,.82-1.27,1.68-1.62,0,.45,0,.78,0,1.12l0,0-.21.18.09.08a1.12,1.12,0,0,0,.16-.22c.5-.38,1-.75,1.62-1.18l.38.69c0,.13-.13.43-.2.75l0,0-.21.18.08.08A1.84,1.84,0,0,0,141,40.9Z"/><path d="M133.35,5.09l-.8.34a4.33,4.33,0,0,0,.19,1.49,6.41,6.41,0,0,1,.53,3.25l-.67.88-1.07.55h-1.1l-.72-.38v-1l.35-.44c.81.15.82,1,1.42,1.36l.78-.66A3.51,3.51,0,0,0,132,9a4.66,4.66,0,0,1-.49-2.08c.1-.87.26-1.88,1.33-2.26a1.09,1.09,0,0,0,.29-.24,2.26,2.26,0,0,1,1.64.35V5.91h-.95Z"/><path d="M88.85,11V9.84l.66-.05,1,1.41,1-.81-.81-3.5C91,6,91,4.8,92.55,4.4h1.06c.12.12.24.25.35.35V5.91H93l-.48-.78-.83.27a4.21,4.21,0,0,0,.2,1.53,6.49,6.49,0,0,1,.52,3.24l-.66.87a2.75,2.75,0,0,1-2,.52Z"/><path d="M99,4.63l.31.68L99,5.94c-.13,0-.34.07-.45,0a9.87,9.87,0,0,1-.95-.81l-.77.3A3.93,3.93,0,0,0,97,7a6.72,6.72,0,0,1,.52,3.21l-.67.89c-.54.23-1.17.77-2,.53l-.9-.53V9.84l.63-.06,1.06,1.39.83-.69A3.23,3.23,0,0,0,96.32,9a4.78,4.78,0,0,1-.48-2.08c.1-.87.27-1.87,1.33-2.26.11,0,.19-.15.37-.3Z"/><path d="M109.08,5.21c-.64-.19-.89.23-1.14.54a14.64,14.64,0,0,0-1.61,4.33,2.86,2.86,0,0,0,0,.43h1L108.53,9l.47.23c-1,.94-1.31,2.51-3.11,2.4l-.56-.87a5.57,5.57,0,0,1,.93-3.59,6.32,6.32,0,0,1,2.62-2.71h1l.66,1.11-.59.3C109.48,6,109.2,5.75,109.08,5.21Z"/><path d="M112,5.37l-1.69,1.16a3,3,0,0,1,1.34-1.6,3.68,3.68,0,0,1,.75-.35c.55-.27.55-.27,1.1.33-.62,2-1.87,3.8-2.62,5.82.78-.37,1.18-1.14,2.09-1.58a5.22,5.22,0,0,1-1.71,2.17,3.37,3.37,0,0,1-1.18.33l-.48-.46c.45-2.07,1.82-3.73,2.63-5.65Z"/><path d="M168.58,40.23a21.19,21.19,0,0,1-2,3.92c-.35-2-.67-3.74-1-5.62a30.51,30.51,0,0,0-1.61,4.66l1.08.47h-2.57a2.73,2.73,0,0,0,1.49-1.87,23.63,23.63,0,0,1,1.61-4.22h-1.67l.91-.51c.13.41.42-.06.64.08a2.65,2.65,0,0,0,.72.23c.3,1.63.62,3.3,1,5C167.76,41.88,167.72,40.82,168.58,40.23Z"/><path d="M148.64,40.6l.43.75H148l-.05-1.1a1.84,1.84,0,0,1,1.58-.65l1.36,1c.25-.31.23-.87.87-.76v.71l-2.85,2.49c.77.14,1,.67,1.1,1.27.08.35.16.7.26,1,.17.57.19.57,1,.54a1.62,1.62,0,0,1-.1-.18l-.17-.28.38-.44a1,1,0,0,1,.18.08c.4.36.37.72-.09,1.11h-1.11a2.54,2.54,0,0,1-1.13-2c0-.24-.23-.5-.37-.78l-1.56.35.44-.81.81,0L150.69,41l-2-.89c-.25.15-.59.26-.38.76Z"/><path d="M172.86,43.44h1l.09.18-.46.15.12.2h-2.14l-.44-.45,1-.1a34.27,34.27,0,0,0,1.17-5.87h-1.09c.08-.15.12-.26.15-.26a16,16,0,0,1,2.92.18l-1,.12C173.76,39.47,173.32,41.41,172.86,43.44Z"/><path d="M146.66,43.2l-.83.74a.67.67,0,0,1-.47-.76s0,0,0,0l.21-.18-.08-.08a1.84,1.84,0,0,0-.17.22c-.46.31-.93.6-1.45.92-.24-.23-.52-.36-.57-.55a1.43,1.43,0,0,1,.1-.84,4.26,4.26,0,0,1,2.24-2.51l1.63-.31a12.49,12.49,0,0,1-1.18,3.31Zm-1.91,0c1.65-1.65,1.65-1.65,1.56-2.84-1.32.33-1.76,1.42-2.21,2.47,0,.1,0,.23,0,.37Z"/><path d="M136.38,43.2a2.24,2.24,0,0,1-.35.46,2.57,2.57,0,0,1-.57.24.64.64,0,0,1-.38-.72s0,0,0,0l.21-.18-.08-.08a1.84,1.84,0,0,0-.17.22c-.51.28-.89.87-1.66.78l-.41-.85c.81-1.83,1-2.08,2.32-2.9l1.7-.32a12.39,12.39,0,0,1-1.17,3.31Zm-.32-2.89a3.55,3.55,0,0,0-2.24,2.54c0,.09.05.23.07.34h.58C135.13,42.36,136.37,41.81,136.06,40.31Z"/><path d="M169.46,38.37l.62-1.08h1.44c-.85.27-.76,1.08-.94,1.65a15.67,15.67,0,0,1-.26,1.55c-.16.43,0,.94-.25,1.43a4.07,4.07,0,0,0,0,1.45l.78.16v.12h-2.5l-.07-.07.68-.19a5.31,5.31,0,0,0,.57-2.43C169.56,40.13,170.24,39.28,169.46,38.37Z"/><path d="M154.24,39.6l.58.58a3.26,3.26,0,0,1-.59,2.73A2,2,0,0,1,152.41,44l-.59-.78V41.81C153,39.56,153.36,39.78,154.24,39.6Zm-.58.52a10.26,10.26,0,0,0-1.34,3c0,.1,0,.23.06.35h.55c1-.95,1.75-2.88,1.32-3.32Z"/><path d="M156,44l-.61-.61V41.82c1-1.84,1.09-1.89,2.4-2.26l.49.82a2.62,2.62,0,0,1-.47,2.52A2.06,2.06,0,0,1,156,44Zm1.22-3.82a6.39,6.39,0,0,0-1.35,3.29l.64,0A4.88,4.88,0,0,0,158,40.14Z"/><path d="M132.27,42.93v.4l-1.5.75c0-.34-.09-.61,0-.78.91-1.59,1.33-3.38,2.16-5a.64.64,0,0,0-.14-.88.72.72,0,0,1,1-.34,1.79,1.79,0,0,1-.18,1.14c-.68,1.59-1.25,3.22-1.92,5Z"/><path d="M8.06,11.6l-.38-.38c0-.46-.21-1,.36-1.4H9.13l.44,1.12-.91.49.17.17Z"/><path d="M159,44.35l-.35-1.61.55-.39.49.42v1.16l-1,1.29h-.89Z"/><path d="M113.94,2.08H112.8V.83l.76-.39.75.78Z"/><path d="M168.5,40.37c.23-.66.33-1.4,1-1.8C169.29,39.23,169.19,40,168.5,40.37Z"/><path d="M132.26,42.94l0-.51.49,0-.39.61Z"/><path d="M130,43.2l0-.51.49,0-.39.6Z"/><path d="M146.66,43.2l.26-.26Z"/><path d="M136.38,43.2l.26-.26Z"/><path d="M146.89,42.92l.18-.21.08.08-.21.18Z"/><path d="M142.26,42.92l.18-.21.08.08-.21.18Z"/><path d="M136.61,42.92l.18-.21.08.08-.21.18Z"/></svg>
