<svg data-name="Layer 1" xmlns="http://www.w3.org/2000/svg" viewBox="0 0 128 14.36" width="128" height="15">
  <title>MI Print Works</title>
  <g>
    <path d="M36.77,7.61a7,7,0,0,1,1.45,1.14,11.19,11.19,0,0,1,1.2,1.66c.23.38.47.74.7,1.12l.94,1.53c.09.14.18.27.3.43-.54,0-1.06,0-1.59,0H38.19c-.67-1-1.35-2-2-3a14.35,14.35,0,0,0-.85-1.2c-.14-.17-.24-.37-.37-.55a2.74,2.74,0,0,0-.82-.62.47.47,0,0,0-.11,0A6.61,6.61,0,0,0,32.15,8v5.52H29.57c-.08-.39-.11-11.39,0-13.3H30c1.69,0,3.38,0,5.06,0A15.48,15.48,0,0,1,37,.3a3.56,3.56,0,0,1,1.55.44,2.81,2.81,0,0,1,.89.79,2.78,2.78,0,0,1,.58,1.07,3.17,3.17,0,0,1,.16.68c0,.14.09.29.08.43a4.37,4.37,0,0,1-.46,2.06,3.18,3.18,0,0,1-1.32,1.32,6.4,6.4,0,0,1-1.25.49A2.8,2.8,0,0,1,36.77,7.61Zm-4.6-5.17V5.81c.67,0,1.32,0,2,0a13,13,0,0,0,2-.07A1.86,1.86,0,0,0,37,5.39a1.28,1.28,0,0,0,.48-1c0-.23,0-.47,0-.7a.87.87,0,0,0-.07-.3,1.49,1.49,0,0,0-1.46-1C34.71,2.4,33.44,2.44,32.16,2.44Z"/>
    <path d="M50.54,13.49H48.1V.21h2.55L56,9.06V.25l0,0h2.39V13.48H55.87c-.14-.21-.31-.47-.46-.73-.46-.78-.94-1.55-1.43-2.32s-.75-1.25-1.13-1.88L52,7.1,51,5.61l-.48-.77Z"/>
    <path d="M17.07.19h.85c1.37,0,2.75,0,4.12,0a17.28,17.28,0,0,1,2,.1,3.41,3.41,0,0,1,2,1,3,3,0,0,1,.7.93,5.45,5.45,0,0,1,.35,1A14.24,14.24,0,0,1,27.18,5s0,.11,0,.14c-.16.24-.08.55-.22.8s-.25.52-.4.77a4,4,0,0,1-1.82,1.46c-.14.06-.32-.05-.42.12l-.9.09a16,16,0,0,1-1.79.1c-.61,0-1.21,0-1.84,0v5l0,0H17.07Zm2.72,2.25V6.19h1.32c.31,0,.63,0,.94,0a6.59,6.59,0,0,0,.94-.1,1.66,1.66,0,0,0,1-.55,1.8,1.8,0,0,0,.33-1.88,1.57,1.57,0,0,0-.83-.94,2.55,2.55,0,0,0-1.06-.25C21.58,2.41,20.69,2.44,19.79,2.44Z"/>
    <path d="M0,.2H2.1s.1.07.1.11a7.93,7.93,0,0,0,.33,1.27c.13.47.23,1,.4,1.42a9.22,9.22,0,0,1,.31,1.13c.09.43.25.84.33,1.27s.23.87.35,1.31.22.94.38,1.39c.1.28.12.57.24.84a5.11,5.11,0,0,1,.21.85q.14.55.28,1.1c0,.14.09.28.14.44h.1c.14-.48.25-1,.38-1.44s.25-.84.33-1.27.18-.64.27-1,.28-.8.36-1.21.23-.78.32-1.18.24-.78.34-1.17.16-.78.29-1.14.16-.56.26-.83a8.14,8.14,0,0,0,.2-.81c.07-.26.17-.52.25-.79a2.15,2.15,0,0,0,0-.33h2V13.49H8.91a.07.07,0,0,1,0,0c0-3.53,0-7.06-.05-10.6a6.4,6.4,0,0,0-.22.73,10.29,10.29,0,0,1-.31,1.14A3.81,3.81,0,0,1,8,5.78,4.63,4.63,0,0,1,7.66,7c-.1.39-.22.78-.34,1.17s-.18.65-.27,1-.2.64-.27,1-.25.84-.33,1.28c0,.27-.19.52-.25.78s-.25.78-.31,1.19c0,.07-.08.13-.12.19H4.5c-.1-.31-.21-.64-.3-1-.14-.52-.27-1-.42-1.56s-.24-.75-.32-1.13-.23-.78-.32-1.18-.23-.81-.35-1.21-.27-1-.41-1.52S2.16,5.11,2,4.7s-.24-1-.4-1.48a5.15,5.15,0,0,0-.26-.78v11H0Z"/>
    <path d="M81.81,11.44,84,.19h1.5c0,.17-.09.31-.12.45a6,6,0,0,1-.2,1c-.12.32-.07.68-.27,1A7.92,7.92,0,0,1,84.66,4c-.1.49-.23,1-.34,1.45s-.18.75-.24,1.13-.22.88-.28,1.33c-.19.16,0,.4-.16.59s-.06.41-.11.61a10.45,10.45,0,0,0-.29,1.33c-.19.16,0,.4-.16.59s-.08.4-.11.61-.15.54-.2.81-.1.55-.18.82a1,1,0,0,1-.11.2H81.12L78.52,2,75.91,13.5c-.25,0-.52,0-.8,0s-.53.09-.73-.08a6.4,6.4,0,0,0-.13-.73c-.12-.41-.18-.83-.27-1.25a1.83,1.83,0,0,1-.11-.52.94.94,0,0,0-.14-.5c-.1-.17.07-.38-.12-.51a4.41,4.41,0,0,0-.21-1.13c-.06-.34-.16-.68-.23-1S73,7,72.92,6.62a5.24,5.24,0,0,0-.23-1A3.42,3.42,0,0,1,72.57,5a14.4,14.4,0,0,0-.36-1.54c-.06-.18,0-.38-.1-.57s0-.48-.12-.65,0-.44-.17-.59c.05-.4-.2-.75-.19-1.14a1,1,0,0,0-.1-.3H73a1.2,1.2,0,0,1,.14.49,2.19,2.19,0,0,0,.15.73c.08.17,0,.34.1.52a2.64,2.64,0,0,1,.11.75,6.18,6.18,0,0,0,.23,1.12c.09.23,0,.47.13.7s0,.49.12.69,0,.48.16.69,0,.24,0,.37.07.19.09.29a3.18,3.18,0,0,0,.11.61c.09.22,0,.49.11.65s0,.4.15.6a2.44,2.44,0,0,1,.12.79,2.85,2.85,0,0,0,.09.43,1.85,1.85,0,0,1,.09.71c.23.18,0,.48.18.68s0,.26.09.4a4.87,4.87,0,0,1,.12-.78,6.4,6.4,0,0,1,.27-1.15A12.52,12.52,0,0,1,75.86,8a8.28,8.28,0,0,1,.24-.88,7.42,7.42,0,0,1,.22-.94,3.87,3.87,0,0,0,.1-.52c0-.17,0-.4.11-.51s0-.38.17-.5A12.68,12.68,0,0,1,77,3.11a7.27,7.27,0,0,1,.24-.88c.06-.29.14-.57.19-.86s.16-.66.22-1a1.1,1.1,0,0,0,0-.19h1.74l.08.08c.12.54.22,1.06.36,1.57.09.34.17.68.24,1s.16.69.23,1,.15.71.25,1.07.25,1,.35,1.45.17.75.24,1.13a5.9,5.9,0,0,0,.24,1c.07.18,0,.4.11.56a9,9,0,0,0,.21,1.42A7.91,7.91,0,0,0,81.81,11.44Z"/>
    <path d="M108.26,13.49h-1.83c-.25-.44-.54-.88-.76-1.36-.37-.81-.83-1.56-1.23-2.35a8.93,8.93,0,0,0-.88-1.41,1.85,1.85,0,0,0-1.21-.7c-.74-.13-1.47,0-2.22-.08v5.9h-1.5V.19h.41c1.59,0,3.19,0,4.78,0A9.85,9.85,0,0,1,105,.3a2,2,0,0,1,.84.32c.26.16.57.3.66.65a2.72,2.72,0,0,1,.67,1.32,4.24,4.24,0,0,1,.17.82,5.14,5.14,0,0,1,0,.8,4.2,4.2,0,0,1-.29,1.29,3.5,3.5,0,0,1-1,1.31,3.87,3.87,0,0,1-1.73.64l.34.23.28.22a.9.9,0,0,1,.17.15,14.74,14.74,0,0,1,1.23,1.83c.38.72.73,1.45,1.13,2.16C107.73,12.48,107.94,13,108.26,13.49ZM100.14,6c1,0,2,0,3,0,.37,0,.72-.11,1.09-.11a1.48,1.48,0,0,0,.62-.2c.14-.07.22-.25.4-.29a3,3,0,0,0,.51-1.06A2.67,2.67,0,0,0,105.71,3a1.73,1.73,0,0,0-1.15-1c-.16,0-.33,0-.47-.1a1.44,1.44,0,0,0-.53-.08h-3.41Z"/>
    <path d="M70.87.2V2.42H67l0,0a.08.08,0,0,0,0,0q0,5.48,0,11H64.34l0,0a.08.08,0,0,1,0,0q0-5.48,0-11H60.45l-.05,0a.07.07,0,0,1,0,0c0-.72,0-1.43,0-2.16Z"/>
    <path d="M90.8.28h.85c.5.69,1,1.38,1.5,2.05.3.4.66.75,1,1.16s.55.7.82,1.06.5.64.75,1a4.4,4.4,0,0,1,.64,1c.06.16.2.29.27.45a4.74,4.74,0,0,1,.49,1.58,5.21,5.21,0,0,1,.07,1A5.54,5.54,0,0,1,96.87,11a5.84,5.84,0,0,1-.7,1.26,5.28,5.28,0,0,1-2.07,1.57,4.36,4.36,0,0,1-1.09.31,5.28,5.28,0,0,1-1.23.19,11.46,11.46,0,0,1-1.26,0,6.92,6.92,0,0,1-2.25-.56,4.27,4.27,0,0,1-1.4-.93c-.35-.13-.5-.47-.71-.73a3.7,3.7,0,0,1-.66-1.41,3.42,3.42,0,0,1-.09-.95,8.2,8.2,0,0,1,.1-1.88,5.56,5.56,0,0,1,.26-.78,7.34,7.34,0,0,1,1.15-1.91q.55-.7,1.16-1.35c.42-.44.82-.9,1.19-1.38s.89-1.19,1.33-1.79A3,3,0,0,0,90.8.28Zm.49,2c-.25.32-.49.57-.67.86-.45.72-1.08,1.29-1.6,2-.27.35-.6.66-.89,1a5.55,5.55,0,0,0-.65.86,7.14,7.14,0,0,0-.72,1.53,2.74,2.74,0,0,0,.12,2,7.23,7.23,0,0,0,.55.85,4.32,4.32,0,0,0,1.65,1.33,6,6,0,0,0,.76.31c.26.1.55.09.81.19A5.73,5.73,0,0,0,92.4,13,7.41,7.41,0,0,0,94,12.27a4.68,4.68,0,0,0,.93-.81,3.77,3.77,0,0,0,.72-1.11,2.17,2.17,0,0,0,.19-1.45,6.16,6.16,0,0,0-1-2,11,11,0,0,0-1-1.29c-.48-.53-.89-1.13-1.33-1.69l-.5-.64Z"/>
    <path d="M119.26,9.13c.27,0,.49-.1.71-.12s.44,0,.68,0a7.07,7.07,0,0,0,.28,1.32,1.83,1.83,0,0,0,.33.61,2.94,2.94,0,0,0,1,.87,2.6,2.6,0,0,0,.91.29c.14,0,.29.07.43.09a1.39,1.39,0,0,0,.42,0,4.19,4.19,0,0,0,1.4-.36,2.06,2.06,0,0,0,1.07-1.75c0-.25,0-.5,0-.68l-.11-.26A2.15,2.15,0,0,0,125.14,8c-.39-.16-.8-.26-1.2-.39l-1.4-.47a5.33,5.33,0,0,1-1.78-.91,2.77,2.77,0,0,1-.57-.74,3.81,3.81,0,0,1-.43-1,.51.51,0,0,1,0-.13,10.46,10.46,0,0,1,0-1.5,3.51,3.51,0,0,1,.52-1.28A3.4,3.4,0,0,1,121.6.39a3.44,3.44,0,0,1,1-.31A5.92,5.92,0,0,1,123.87,0a3.7,3.7,0,0,1,2.92,1.4,3.47,3.47,0,0,1,.73,1.71,2.37,2.37,0,0,1,.07.78c-.23,0-.44.1-.66.12s-.46,0-.7,0a4.73,4.73,0,0,0-.36-1.31,1.9,1.9,0,0,0-1.19-1c-.08,0-.17-.1-.24-.09s-.38-.1-.57-.1a1.89,1.89,0,0,0-.56,0c-.3.09-.61.06-.91.17a2,2,0,0,0-1.18,1.19,2.26,2.26,0,0,0-.06.68,1.46,1.46,0,0,0,1,1.52,8.94,8.94,0,0,0,1.93.66,6.73,6.73,0,0,1,1.2.39,6.92,6.92,0,0,1,1.27.67,3.55,3.55,0,0,1,.92,1,2.7,2.7,0,0,1,.47,1.54c0,.1,0,.21.08.3a.18.18,0,0,1,0,.18c-.2.31,0,.67-.17,1A6,6,0,0,1,127.3,12a3.54,3.54,0,0,1-1.63,1.35,7,7,0,0,1-.87.27,6.25,6.25,0,0,1-1.56.07,3.57,3.57,0,0,1-1.68-.46,4.08,4.08,0,0,1-1.54-1.4c-.16-.25-.24-.53-.38-.78a3.45,3.45,0,0,1-.25-.79A5.35,5.35,0,0,1,119.26,9.13Z"/>
    <path d="M118.52,13.48h-1.85a4,4,0,0,1-.4-.6c-.26-.57-.6-1.1-.91-1.64-.4-.7-.76-1.41-1.22-2.08-.2-.29-.34-.61-.51-.91l-.83-1.45L111,8.94v4.54h-1.38V.2H111V6.71a1.18,1.18,0,0,0,.19-.14c.17-.21.32-.43.5-.64.37-.44.76-.87,1.12-1.32s.81-1,1.22-1.51l1.2-1.47c.39-.48.77-1,1.14-1.43h2a3.44,3.44,0,0,1-.23.34c-.43.5-.87,1-1.29,1.48s-.67.82-1,1.22-.71.83-1.06,1.25-.61.71-.89,1.1c.47.79,1,1.6,1.46,2.4s.8,1.45,1.25,2.15.83,1.38,1.26,2.06c.24.37.45.75.67,1.13A.57.57,0,0,1,118.52,13.48Z"/>
    <path d="M45.45,13.49H42.86V.2h2.59Z"/>
    <path d="M14.41,13.5H12.94V.19c.22,0,.47,0,.71,0h.76Z"/>
  </g>
</svg>
