<svg xmlns="http://www.w3.org/2000/svg" viewBox="0 0 160 167.85" width="160" height="168">
  <title>Nagle's Top Dog and Malt Shoppe</title>
  <path d="M0,139.88l76-.39v-14.6H50.32c-2,0-2-.09-2.54-2q-5-17.41-10-34.81c-.07-.25-.19-.48-.32-.82l-1.81,1.28-2.29-1.82V77.39L60.81,52c-2.41-1.84-4-5.65-3-8a10.1,10.1,0,0,0,.32-3c-2.71-.61-3.62-2.71-4.62-4.86A9.17,9.17,0,0,1,53,31a29.31,29.31,0,0,0,0-3.31A6.38,6.38,0,0,1,53,26.2c.6-2.49,1-5,3.19-6.87.94-.8,1.43-2.13,2.14-3.21,1.38-2.08,3.49-3,5.81-3.46,1-.21,1.94-.29,2.87-.57,1.31-.39,2.59-.91,3.93-1.39L70.61,8.8l3.24-2.23,1.37,1.49L76.07.14c2.65-.82,12.06,2,14.8,5l-.72,1.1c-.16,1-.25,1.79-.44,2.59-.73,3.16.61,5.94,1.64,8.77.42,1.16,1,2.29,1.44,3.43,1.17,2.75.43,5.48,0,8.23-.19,1.17-.23,2.36-.3,3.09l4.06,4.34L94.31,50.88C100,55.94,105.61,61,111.26,66c.1.09.43-.09.84-.18l-.38.66,12.47,11.5c-.37,3.86-1.82,7.47-2.77,11-1.36,1.12-2.06-.07-3.06-.55-.52,1.77-1,3.44-1.52,5.12q-2.55,9.19-5.08,18.4c-1,3.58-2,7.16-3,10.75-.49,1.8-1,2.25-3,2.25H81.28l.46,14.41h39.68l0,.27a5.29,5.29,0,0,1,1.24-.27c3.11.06,6.23.23,9.34.23,3,0,5.91-.22,8.87-.22,2.06,0,4.12.31,6.18.32,1.85,0,3.7-.3,5.55-.3,2.48,0,5,.16,7.44.25v4.38c-1.18.11-2.36.33-3.53.33q-44.14,0-88.28,0c-.29,0-.58,0-1,0l1,1.18L65,151l-1.84-1,1.92-5.69H0ZM79.38,11.73c1.83,1,3.65,2.15,5.89,1.31l-1.45.26,0-.19-4.51-1.35L75.27,9.63l-.1.19,1.08.8-.51,1.3L76,12l.67-1Zm0,13.17.29-3.81L81,17l1.45.09.26-.39c-.43-.41-.78-1-1.29-1.21-3-1.37-6.07-2.67-8.59-3.76-3.07.81-5.77,1.5-8.44,2.24a22.47,22.47,0,0,0-2.24.87l.23,1.74L61,17.65l1.65,3.18L64,19.31l.29.12-.14,2.34c2.05.21,4.13.34,6.17.65A14.78,14.78,0,0,1,74.2,23.5a2.35,2.35,0,0,1,1.11,2.83,1.85,1.85,0,0,1-1.1,1.25c-3.23.45-6.47,1.18-9.74.31l-2.35-.6-.23,1.66c4.17,2.36,8.28.17,12.4.35L73.06,32c3.65-.5,4.48-.27,5.14,1.5-2.87-.73-5.73-1.43-7.34,2l2,2.3-.13.49a4.18,4.18,0,0,0-4.68.61l1.62,5.66,3.43-3.12-1.41.34-.12-.23,3.59-3.29h1.49l.47-1.61,2.49-.43.28.51,3.91-1.25-4-4.28a13.65,13.65,0,0,1,2.74-1.62c2.3-.65,4.66-1,7-1.67a16.12,16.12,0,0,0,2.68-1.27A11.07,11.07,0,0,0,92.06,24c-1.15-3.33-2.39-6.63-3.68-9.91-.24-.61-.74-1.3-1.33-1l-.79,3.5a10.54,10.54,0,0,1,4.06,6c.31,1.38-.05,2.16-1.3,2.58-2.49.84-5,1.61-7.41,2.39L80,29.89c-1.12-1.09-.48-1.72.24-2.38C78.56,27,77.35,26,77.3,24.25a9,9,0,0,1,.77-3.72,6,6,0,0,0,.7-4,3.65,3.65,0,0,1,.15-1.29l.54,0a7.36,7.36,0,0,1,.54,2c0,1.33-.2,2.67-.31,4a8.3,8.3,0,0,0-.8,2.05,4.67,4.67,0,0,0,.5,1.71c.13,1.46,1.43,1.32,2.32,1.51a3.14,3.14,0,0,0,3.36-1.61C83.28,25.75,80.64,25.76,79.37,24.91Zm22.81,74.35-3.93,15.68a55.6,55.6,0,0,0,9.93.05L118,77.17,79.08,41.56h-.89L39,78.13,49.5,114.81H60.63a9.73,9.73,0,0,0-.17-1.16c-1.13-4.12-2.21-8.25-3.44-12.34-1-3.22-2.19-6.37-3.18-9.58a9.79,9.79,0,0,1-.2-6.53,36.35,36.35,0,0,0,1.05-4.43L50,81.73V74.8l1.58.35-1.14.62v4.85l5.85-.47a12.34,12.34,0,0,1-.81,8h6.16c-.38-1.56-.81-2.92-1-4.3s-.24-2.83-.33-4.08l4-1.44-.44-4.54c-2.59.39-5.08.66-7.52,1.16-1.62.33-3.17.92-4.81.22.2-.11.4-.3.61-.32,1.43-.13,2.88-.17,4.31-.36a4.49,4.49,0,0,0,2.06-.74c.94-.72,1.67-1.69,2.57-2.47C63.73,69,66.47,67,69.9,66.2c1.86-.44,3.74-.8,5.63-1.14a23,23,0,0,1,3.94-.48,22.75,22.75,0,0,1,3.17.55,26.07,26.07,0,0,1,15.57,8.43c3,3.23,4.37,7.43,5.86,11.48a48.34,48.34,0,0,1,1.24,4.74l2.76-1.33,1,8.93-4.42,2.34-1.26-1.11L105,99l3.4-1.82-.87-7.45-6,2.57.56,1-.67,1.82c-1.3.51-2.43.47-3.32-.64a3.39,3.39,0,0,1-.23-3.69,2.62,2.62,0,0,1,2.92-1.6l3.09.28-1.46-4.58a4.27,4.27,0,0,0-.79-.25c-5.44-.76-10.34,5.52-7.86,10.94A5.55,5.55,0,0,0,97.51,99,23.81,23.81,0,0,0,102.18,99.26ZM67.5,104.32l.11-.32c2.88.77,5,.25,6.34-2a16,16,0,0,0,1.92-5.15A5.66,5.66,0,0,0,71.35,90c-1.74-.36-3.61-.06-5.69-.06l-.29-1.21-5.42,2.46a128.23,128.23,0,0,0,1.49,14.61c1.19-1.07,2.47-.88,3.71-1A16.49,16.49,0,0,0,67.5,104.32ZM94.61,73.83c-3.3-2.7-2.33-3.07-7.9-2.82l-.29-1.67-7.18,3c2.1,4.52,1.78,9.31,1.16,14h7l-.63-4.08c2.69.41,4.89.12,6.59-1.89S94.88,76.12,94.61,73.83ZM92.45,96.9A12.78,12.78,0,0,0,92.54,95c-.16-1.53,0-3.28-1.34-4.34-4.59-3.7-10.84-3.2-13.59,2.82-.89,1.94-1.31,4.21.3,6.28,3.3,4.23,10.34,3.39,13-.55C91.47,98.49,91.95,97.69,92.45,96.9ZM73.1,73.43,73,73c-1.34.51-2.7,1-4,1.55A7,7,0,0,0,64.8,80c-.33,1.85-.41,3.92,1.35,5.13,2.37,1.64,5,2.66,8,1.79a7.77,7.77,0,0,0,5-9.93,3.89,3.89,0,0,0-.95-1.86C76.75,74,75.2,72.86,73.1,73.43ZM86.65,40.84l.33,0a5.54,5.54,0,0,0,2.24,5.89c1.46,1.1,2.3,1.17,3.35-.35A14.86,14.86,0,0,0,95,38.47a3.83,3.83,0,0,0-3.28-3.79,3.35,3.35,0,0,0-4.13,2.17A22.24,22.24,0,0,0,86.65,40.84Zm-27.59-.7a3.14,3.14,0,0,0,.24,1.29c1.59,2.43,3.31,4.72,6.4,5.43,1.4.32,2.73-.41,2.73-1.82a11.6,11.6,0,0,0-2.72-7.74,4.34,4.34,0,0,0-4.77-.68A3.64,3.64,0,0,0,59.05,40.14Zm1.49-20.72c-1.55-.44-1.6.73-1.79,1.47-.4,1.6-.64,3.24-.93,4.86-.33,1.83-.68,3.66-1,5.5-.12.84,0,1.61,1.35,1.32l.94-2.44.44,1,1.2-5.73.28.06.47,1.12.25,0,.33-5.31-1.41-.36Zm20,18.07c.88,2.87,3.16,4.27,5.46,6.22V37.3C84.27,36.47,82.5,37.32,80.55,37.49ZM54.27,26.26l1,.48L56.37,25l-.57-.49.29-1C54.3,23.73,54.35,24.91,54.27,26.26ZM78.74,1.74l-.58,6.73A9.76,9.76,0,0,0,78.74,1.74ZM54.93,29.82l.3,0,.62-2.48-.91-.24Zm3.24-10c-1.33.59-2.1,2.29-1.53,3.1Zm50.63,119.89,0,0h3.55v0Z"/>
  <path d="M13.71,165.93l-2.87-.48L8.77,154l-.21,0L5.49,165.89l-2.57-.79c1.75-6.21,2.23-12.62,4.48-18.83l2.62.61,2.31,9.53,2.55-9.78,3,.2Z"/>
  <path d="M84,150V146.5H94.63l.15,2.68c2.66-3.35,5.53-4.27,8.34-2.73a5.91,5.91,0,0,1,2.81,6.81,5.55,5.55,0,0,1-6.22,3.8c-2.44-.45-5.17-2.1-5.1-7H91V157H87.4v-7Zm19.21,1.5a2.77,2.77,0,0,0-5.54-.12,3.12,3.12,0,0,0,2.92,2.89A2.9,2.9,0,0,0,103.24,151.45Z"/>
  <path d="M73.25,162.48a3.05,3.05,0,0,0-.68-3.29c-.94-1-1.79-2.16-2.74-3.18a6.4,6.4,0,0,1-.69-8.66c1.08-1.58,3.66-2,5.82-.9,1.78.89,2.34,2.59,1.49,5H73.77l-.7-2.83c-2.38,1.11-2.75,3.3-1.2,5,1.2,1.3,2.49,2.53,3.57,3.92a6.74,6.74,0,0,1,1.17,6.35c-.48,1.57-1.43,2.75-3.19,2.69a19.22,19.22,0,0,1-4.39-.64c-3-.82-3.17-4.94-2-7.1,2.19-.05,2.57.39,2.57,2.56a2.29,2.29,0,0,0,.9,1.61A2,2,0,0,0,73.25,162.48Z"/>
  <path d="M61.13,155.21l-.71,2.21H54.89l-1,5.11,6,.41v3.21c-1-.06-1.86-.15-2.71-.14-1.55,0-3.11.09-4.66.16-1.89.09-2.33-.4-2-2.25.76-5,1.49-10,2.28-15a10.51,10.51,0,0,1,.74-2,20.87,20.87,0,0,1,9.1.46l-.75,2.58H56.13l-.79,4.48C57.21,154.89,59.18,154,61.13,155.21Z"/>
  <path d="M38.46,152.65H36l-.16-3.27a7.23,7.23,0,0,0-1.82,1,13.35,13.35,0,0,0-3.51,11.2,2.27,2.27,0,0,0,1.37,1.61,2.44,2.44,0,0,0,1.88-.93,22.69,22.69,0,0,0,1.82-3.12l-3.17-.4.22-2c2,.16,4-.52,5.88.54a5.72,5.72,0,0,1,.06,1.33,10.6,10.6,0,0,1-4.1,6.72,4.13,4.13,0,0,1-6.19-1.58,10.39,10.39,0,0,1-.94-6.34,15.19,15.19,0,0,1,2.91-7.12,13,13,0,0,1,3.41-3.06,3.1,3.1,0,0,1,4.23.61A4.25,4.25,0,0,1,38.46,152.65Z"/>
  <path d="M21.44,146.75h3.19l1.71,19-2.83.18-.84-4.73-3.73.41-1.79,4.29-2.51-1.24Zm.89,11.94v-6.07l-.27,0L19.86,159Z"/>
  <path d="M121.08,157.84l-.62-11.7a45.91,45.91,0,0,1,5.7,0c3.64.47,6.07,4.73,4.8,8.18a4.69,4.69,0,0,1-3.6,2.94A51.05,51.05,0,0,1,121.08,157.84Zm3-3.07c1.65.16,3,.18,3.84-1.2a3,3,0,0,0-.19-3.38,3.58,3.58,0,0,0-4-1.41Z"/>
  <path d="M42.43,146.52l3,.49-3.07,15.5c2.13.47,4.58-.54,6.61,1.39l-1.25,2.66c-2.56-1.28-5-.5-7.59-.14l-1.39-1.58Z"/>
  <path d="M151.39,154.29l-2.07-.13-.31-2.53h5.61c.85,3.31-.76,5.53-3.95,5.81a6.63,6.63,0,0,1-6.74-4.06,5.37,5.37,0,0,1,2.48-6.66c1.93-1,5.58-1,7.3,1.78l-2,1.19c-2.26-1.27-3.26-1.3-4.29-.21a4.25,4.25,0,0,0-.17,4A3.29,3.29,0,0,0,151.39,154.29Z"/>
  <path d="M142.78,152c0,3.16-2,5.33-4.84,5.35a6.28,6.28,0,0,1-6.33-6,5.19,5.19,0,0,1,5.4-5.22A5.74,5.74,0,0,1,142.78,152Zm-8.05-.53a2.61,2.61,0,0,0,2.82,2.8,2.23,2.23,0,0,0,2.32-2.54,2.69,2.69,0,0,0-2.75-2.93A2.4,2.4,0,0,0,134.72,151.43Z"/>
  <path d="M106.85,146.22a48,48,0,0,1,6.42.06c2,.27,3.13,2.39,2.89,4.55s-1.6,3.26-3.93,3.45c-.56,0-1.13,0-1.79,0l-.18,3h-2.94Zm6.37,5.22.25-2.55L110,148.6l.29,3Z"/>
  <path d="M153.68,166.38l-.37-3-3.57,1.34v1.68h-1.27l-.3-3-3.47,1.41-.14,1.51-1.26.14-.35-6.72c3-.56,3.81-.31,5.16,1.69l-.07-1.64a4.43,4.43,0,0,1,4.89,1l.08-1.21h3.82l.17,1.15-2.52.19.09,1.39,2.2.19.16,1.11-2.14.24.21,1.35,2.16.18.27,1.05Zm-9.22-3.31,2.15-.3-.12-1.76-2-.11Zm5.1,0,2-.53c-.15-1.61-.38-1.73-2.1-1.27Z"/>
  <path d="M100.69,159.52h1.53l2.29,5,2.46-5h1.46l.32,6.21.32.07,2-6.25,1.3-.15,2.45,7h-1.32l-.75-1.68h-2l-.65,1.73h-3v-3.6l-.29-.07-1.73,3.68h-1.32l-1.63-3.69-.26,0,.23,3.54-1.48.2Z"/>
  <path d="M143,163.07c-.18,1.93-1,3.32-2.24,3.48-1.39.18-2.65-.8-3.07-2.71a6.75,6.75,0,0,1,.12-2.87,2.09,2.09,0,0,1,2.11-1.74,2.34,2.34,0,0,1,2.32,1.51C142.57,161.5,142.77,162.29,143,163.07Zm-3.09-2.34c-1.48,1.58-1.23,3.38.53,4.36C142,163.66,141.8,161.59,139.93,160.74Z"/>
  <path d="M134.15,162.38h1.66c0-.49.07-.94.09-1.39s0-.92,0-1.52l1.19.05.34,7c-1.82-.2-1-1.76-1.65-2.53h-1.45v2.3l-1.22.41-.62-7.15h1.32Z"/>
  <path d="M132,161.26l-2.41-.66-.82.59c.14.26.18.46.28.51.66.28,1.36.48,2,.78a2.59,2.59,0,0,1,1.44,3.12c-.44,1.35-1.55,1.32-2.69,1.21s-2.19-.56-2.14-2.45l2.17,1.06h1c.58-1.35-.23-1.73-1.25-1.93s-1.8-.54-2.07-1.6a1.88,1.88,0,0,1,1.33-2.45C130.19,159,131.28,159.54,132,161.26Z"/>
  <path d="M93.74,161.59,95,163.27l-2,1.08c1,2.3,2.25-.62,3.42.54l-1,1.42-1.09,1.49-.8,0c-.64-1.06-1.48-1.9-1.63-2.84a6.31,6.31,0,0,1,.67-3,22.22,22.22,0,0,1,1.52-2.73h.73L96.55,162Z"/>
  <path d="M124.25,160.47l-1.91.33v5.51c-1,.38-1.18-.21-1.22-1-.09-1.5-.16-3-.25-4.66l-2.35-.24v-1h5.83Z"/>
  <path d="M114.74,159.5H116l.43,5.85,3.2.29,0,.61c-1.39.49-2.85.07-4.42.24Z"/>
  <path d="M68.88,14.9l1.47-1.56,1.14,1.91-.25.36Z"/>
  <path d="M65.65,95.26a3.4,3.4,0,0,1,3.94-.91c1.63,2,1.74,2.85.61,4.46a2.12,2.12,0,0,1-2.54,1C66.28,99.35,65.5,97.59,65.65,95.26Z"/>
  <path d="M86.46,75.6l2.17-.54c1.1.69,1.33,1.42.9,2.38s-1.11,1.67-2.1,1.47c-.64-.13-1.16-.88-1.66-1.29Z"/>
  <path d="M82.21,96.6c-.12-3.33,1.08-4.48,3.95-4.11L87.93,95c-.47,1.61-1,2.83-2.94,3.14Z"/>
  <path d="M69.8,80.91,71,78h2.56l1.64,2.19L74,82.88C72,83.39,70.94,82.53,69.8,80.91Z"/>
  <path d="M90.68,35.52c1.72.33,1.18,1.44,1.07,2.58l-1.56.22Z"/>
  <path d="M93.32,36.21c.92.75,1,1.05.51,2.61C92.39,38.4,92.18,37.31,93.32,36.21Z"/>
  <path d="M89.2,35.65c1,.79.18,1.48,0,2.41C88,37.11,88.44,36.42,89.2,35.65Z"/>
  <path d="M61.26,39.59l-1.13-1.77c1.79-.93,2.75-.21,2.72,1.84l-1.63-.1Z"/>
  <path d="M65.05,39.12a1.69,1.69,0,0,1-2-1.82C64.8,36.85,65.37,37.36,65.05,39.12Z"/>
  <path d="M61.22,39.55l.48,2c-1.86-.32-2.2-.79-1.71-2.29l1.26.37Z"/>
</svg>
