<svg data-name="Layer 1" xmlns="http://www.w3.org/2000/svg" viewBox="0 0 416.95 178.45" width="417" height="178"><title>Professional Cannabis Education Network</title><g><path class="cls-1" d="M276.78,80.86c-.12.4-.39.47-.74.27a17.79,17.79,0,0,0-2.16-1.22,60.46,60.46,0,0,0-15-4,103,103,0,0,0-12.65-.74,129.9,129.9,0,0,0-19.77,2c-6,1-11.77,2.59-17.6,4.09-5.43,1.4-10.79,3.07-16.21,4.52a149.67,149.67,0,0,1-20.6,4.24,84.26,84.26,0,0,1-25.51-.27,81.09,81.09,0,0,1-18.49-5.46A45.85,45.85,0,0,1,109,69.53a20.5,20.5,0,0,1-3.18-7.16,3,3,0,0,1,0-.85,3.19,3.19,0,0,0,.46.57c2.94,2.53,5.24,5.75,8.46,8A60,60,0,0,0,131,78.21,92.15,92.15,0,0,0,165.12,82a97.29,97.29,0,0,0,12.3-1.55c2.49-.47,5-.94,7.54-1.35,3.18-.51,6.31-1.34,9.44-2.07,5.22-1.23,10.34-2.82,15.57-4,2.64-.59,5.27-1.33,7.86-2.11s5-1.08,7.52-1.6a84.59,84.59,0,0,1,19.06-1.57,53.5,53.5,0,0,1,16.88,2.7c5.55,2,10.94,4.7,14.92,9.41C276.48,80.15,276.84,80.36,276.78,80.86Z"/><path class="cls-1" d="M202.79,34.21A36,36,0,0,1,201,46.63,71.49,71.49,0,0,1,193.69,63c-.95,1.56-1.46,3.37-2.73,4.73-.18.2-.1.79-.6.52-.12-.06-.08-.46-.07-.71a13,13,0,0,1,.2-2.73c1.4-5,1-10,.11-15-1-5.66-3.76-10.51-6.79-15.25A54.85,54.85,0,0,1,178.35,24c-1.75-4.78-1.42-9.68-.69-14.53A46.67,46.67,0,0,1,180,1.69c.69-2,1.23-2.14,2.88-.86,5,3.91,10,7.93,13.58,13.25a33.44,33.44,0,0,1,5,10.3A37.06,37.06,0,0,1,202.79,34.21Z"/><path class="cls-1" d="M188.36,65.48v.74l.06,2a3.33,3.33,0,0,1-1.54-1.79c-1.34-5.27-4.45-9.47-7.91-13.48a39.48,39.48,0,0,0-7.72-6.53c-3.08-2.14-6.3-4.09-9.5-6.07a84.51,84.51,0,0,1-10.42-7.08,38.08,38.08,0,0,1-10.92-15.4,5.41,5.41,0,0,1-.2-1.72c0-.9.42-1.26,1.25-1,3.48,1.27,7.14,1.91,10.61,3.28A63.6,63.6,0,0,1,174.5,32.88a49.19,49.19,0,0,1,10.62,16.61C187.18,54.7,187.53,60.1,188.36,65.48Z"/><path class="cls-1" d="M237.77,163.3c0-3.92.08-7.84,0-11.75-.06-2,.87-3,2.4-3.92,1.68-1.06,3-.25,4.08.62,3.65,2.79,7.2,5.72,10.78,8.6l12.72,10.27a9.31,9.31,0,0,0,1.05.66c.86.49,1.26.06,1.3-.77.06-1.16,0-2.33,0-3.49,0-4.58,0-9.17,0-13.75,0-1.35.33-2,1.79-1.88.91.08,1.83,0,2.74,0,2.39,0,2.54.12,2.55,2.55,0,7,0,14,0,21,0,1.09,0,2.17,0,3.25,0,1.51-.54,2.94-1.95,3.44a4.07,4.07,0,0,1-4.19-.6c-4-3.28-8.17-6.38-12.24-9.6-3.23-2.57-6.37-5.26-9.62-7.81-.84-.66-1.27-1.67-2.23-2.21s-1.41-.31-1.56.68a12.71,12.71,0,0,0,0,1.75c0,5.16,0,10.33,0,15.49,0,2.36,0,2.42-2.32,2.4-5.55,0-5.24.86-5.23-5.19Q237.78,168.17,237.77,163.3Z"/><path class="cls-1" d="M228.56,23.15a42.75,42.75,0,0,1-7,22A78.23,78.23,0,0,1,212,56.65a67.54,67.54,0,0,1-14.73,11,.81.81,0,0,1-.93,0c-.39-.3,0-.54.13-.82,1.76-3.29,4.22-6.13,6.1-9.34a67.23,67.23,0,0,0,3.76-8.23c1.94-4.69,2.38-9.73,3.63-14.57a32.91,32.91,0,0,1,11.66-18.37c1.16-.92,2.32-1.84,3.5-2.75.7-.54,1.18-.71,1.6.45C227.91,17.23,228.1,20.53,228.56,23.15Z"/><path class="cls-1" d="M127.81,147.91c2.83,0,5.66.07,8.48,0a12,12,0,0,1,10.61,5.24c1.66,2.29,1.64,5,1.32,7.65-.66,5.46-4.4,8.84-9.94,9.53-5.72.72-11.46.19-17.19.38-1.32,0-2-.39-1.91-1.87.1-4.61-.28-3.73,3.67-3.78s7.65,0,11.47,0a8.54,8.54,0,0,0,3.62-.71A5.62,5.62,0,0,0,141,157.2c-1.1-3.54-4-4-6.81-4.19-4.56-.25-9.15-.08-13.72,0a5.87,5.87,0,0,0-1.7.32c-2.27.69-2.28.7-2.29,3,0,6.16,0,12.33,0,18.49,0,3.81.31,3.4-3.55,3.43h-2.24c-1.2,0-1.82-.52-1.82-1.82,0-7.08-.07-14.16.07-21.23.06-3.31,4.23-7,7.9-7.18s7.32,0,11,0Z"/><path class="cls-1" d="M214.3,147.9c4.91,0,9.82,0,14.72,0,.77,0,1.93-.38,2.18.63a6.4,6.4,0,0,1-.09,3.92c-.31.73-1.34.46-2.07.46-4.74,0-9.48,0-14.22,0-3,0-6,0-9,0-2.39,0-2.64.27-2.65,2.54q0,6.87,0,13.74c0,2.94.35,3.26,3.38,3.26,7.32,0,14.64,0,22,0,2.81,0,2.81,0,2.8,2.92,0,.41,0,.83,0,1.25.07,1.2-.55,1.59-1.67,1.57-2.16,0-4.33,0-6.49,0-5.07,0-10.15-.12-15.22,0a17.57,17.57,0,0,1-8.74-2,5.26,5.26,0,0,1-3.2-4.86c0-6.83,0-13.66,0-20.48,0-2.1.86-3,3.07-3,5.08-.06,10.15,0,15.22,0Z"/><path class="cls-1" d="M174.53,147.9c4.16,0,8.32,0,12.48,0,.87,0,2-.34,2.46.7a5.89,5.89,0,0,1,.06,3.69c-.21.78-1.26.63-2,.63-3.41,0-6.83,0-10.24,0-4.07,0-8.15,0-12.23,0-3,0-4.2,1.24-4.2,4.21,0,3.92,0,7.83,0,11.75,0,2.82.77,3.57,3.53,3.58,7.41,0,14.82,0,22.22,0,2.81,0,4.09,2,2.92,4.6a1.94,1.94,0,0,1-2,1.15c-2.17-.05-4.33,0-6.49,0-5.66,0-11.32-.05-17,0a14.22,14.22,0,0,1-6.19-1.6,6.32,6.32,0,0,1-4-5.74c-.16-5.4-.47-10.82.16-16.2a7.69,7.69,0,0,1,7.49-6.74c4.33-.11,8.66,0,13,0Z"/><path class="cls-1" d="M130.07,42.3c8.51.29,16.28,1,23.74,3.35A66,66,0,0,1,179,60.59a23.71,23.71,0,0,1,5.28,6.4c.11.22.7.37.22.72a.78.78,0,0,1-.7-.09c-1.17-.78-2.35-1.55-3.46-2.41-4.18-3.23-9-5-14-6.5a125.4,125.4,0,0,0-12.61-2.63c-6.78-1.29-13.66-2.36-20-5.29a46.67,46.67,0,0,1-10.42-6.56c-.28-.24-.48-.45-.42-.82s.47-.41.78-.44C126,42.71,128.41,42.47,130.07,42.3Z"/><path class="cls-1" d="M251.05,39.42c.51.12,0,.78-.2,1.31a38.34,38.34,0,0,1-6.09,8.93c-4.68,5.26-10.47,9-16.67,12.17a93.33,93.33,0,0,1-13.71,5.53,62.33,62.33,0,0,1-13.73,2.86,4.07,4.07,0,0,1-.59-.06l.6-.41c2.76-1.84,5.93-2.88,8.79-4.55a69.87,69.87,0,0,0,12.29-9.11c2.38-2.2,4.75-4.41,7.07-6.66,4.12-4,9.12-6.42,14.44-8.34A26.19,26.19,0,0,1,251.05,39.42Z"/><path class="cls-1" d="M142.7,62.85c6.32,0,12.66-.19,18.92.82a80,80,0,0,1,12.28,2.58,52.13,52.13,0,0,0,6.18,1.8c1.28.25,2.86,1.12,2.8,1.88-.1,1.06-1.86.86-2.93,1.15a3.11,3.11,0,0,1-.74.08c-5.24.07-10.44.71-15.68.66a148,148,0,0,1-19.87-1.29,107,107,0,0,1-21.08-5.28c-.57-.21-.93-.5-.79-1,.2-.75.94-.5,1.48-.57A153.7,153.7,0,0,1,142.7,62.85Z"/><path class="cls-1" d="M249.33,78.24c4.09-.48,8,.39,11.94,1s7.68,2.33,11.51,3.59c.28.09.49.43.73.65s.55.15.34.5c-.05.1-.29.11-.44.12a2.73,2.73,0,0,1-1,0c-2.44-.89-5.06-.73-7.53-1.31a17.17,17.17,0,0,0-3.16-.5,114.73,114.73,0,0,0-16.69.17A92.65,92.65,0,0,0,234.79,84c-3.38.75-6.83,1.35-10.27,1.88-2.11.33-4.18.93-6.27,1.4-3.61.8-7.2,1.69-10.8,2.52-3.13.72-6.28,1.32-9.43,1.92-2.83.54-5.64,1.16-8.48,1.65a111.65,111.65,0,0,1-12.1,1.08,48.91,48.91,0,0,1-9.68-.17c-.33,0-1,.23-.88-.44,0-.31.55-.2.86-.24,5.43-.59,10.89-1,16.29-1.84,3.57-.52,7.09-1.43,10.61-2.23,4-.9,7.82-2,11.74-3q5.13-1.22,10.17-2.72c2.42-.72,4.94-1.31,7.45-1.8,4.35-.86,8.64-2.15,13-2.67C241.13,78.83,245.2,77.75,249.33,78.24Z"/><path class="cls-1" d="M216.73,165.77H208c-2.64,0-2.71-.1-2.73-2.61,0-2.9.13-3.06,3.11-3.07h17.18c2.36,0,2.39,0,2.39,2.28,0,3.85.31,3.36-3.27,3.4C222,165.79,219.39,165.77,216.73,165.77Z"/><path class="cls-1" d="M363.38,117.86c0,1.4-.31,3,1.94,2.93.39,0,.61.2.57.62s-.24.52-.62.61c-2.51.64-4-.48-4.09-3.09-.09-1.56.69-3.42-1.31-4.44-.05,0-.09-.21-.08-.21,1.16-.5,1.16-2.1,2.29-2.54.91-.35,1.25.29,1.44,1.16s1.15.81,1.86.9a9.36,9.36,0,0,0,2,0c.91-.07,1.93-.37,2.68.12s.16,1.55.38,2.33a7.15,7.15,0,0,0,.33,1.19c.5,1,1.33,1,1.78,0,.33-.75,1.05-1.31,1.09-2.2,0-.71.18-1.36,1-1.44s1.16.8,1.67,1.28c.2.19.16.63.19,1,.09,1.08.76,1.36,1.72,1.33,1.13,0,1.29-.81,1.37-1.7.05-.63-.32-1.47.41-1.81a2.12,2.12,0,0,1,2.14,0c.66.55,0,1.12-.33,1.7a27.65,27.65,0,0,0-1.81,4,5.39,5.39,0,0,1-.93,1.72c-.84,1-1.61.92-2.24-.29a5.08,5.08,0,0,1-.77-2.08c0-.67-.08-1.44-1-1.49s-1,.7-1.29,1.29a5.4,5.4,0,0,0-.85,2,1.19,1.19,0,0,1-1.34,1.17c-.88,0-1.25-.4-1.49-1.3a29.16,29.16,0,0,0-1.9-4.69,2.3,2.3,0,0,0-3-1.41,2.17,2.17,0,0,0-1.85,2.73A4.17,4.17,0,0,1,363.38,117.86Z"/><path class="cls-1" d="M3.85,110.19c1,0,2,0,3,0a3.22,3.22,0,0,1,2.9,1.65c.74,2,2,2.09,3.7,1.91,1.48-.16,3,0,4.48-.06.74,0,1.1.33,1.06,1s-.44.75-1,.78c-.92,0-2.25-.46-2.45,1s-.7,2.87.63,4,.41,1.34-.48,1.53a8.81,8.81,0,0,1-2,0c-2.14-.06-2.14-.06-1-2,.83-1.43.67-4.08-.31-5.14-1.45-1.57-1.38-1.51-2.92,0a5.9,5.9,0,0,1-4,1.66c-1,0-2.33-.37-2.74,1.07a2.31,2.31,0,0,0,1.17,3c.32.17.56.39.44.77a1,1,0,0,1-1,.67c-.58,0-1.17,0-1.75,0-1.8-.05-1.94-.22-1-1.73A3.84,3.84,0,0,0,1,118.13c0-1.58,0-3.16,0-4.75a2.28,2.28,0,0,1,0-.74c.4-1-1.57-1.59-.81-2.25s2.24-.18,3.39-.26h.25Zm1.47,5A6.33,6.33,0,0,0,6.49,115,1.77,1.77,0,0,0,8,113.1a1.81,1.81,0,0,0-1.7-1.8,6.3,6.3,0,0,0-1.23-.07c-1.93,0-2.12.15-2.17,1.8C2.87,114.89,3.14,115.17,5.32,115.18Z"/><path class="cls-1" d="M343.62,114.33c-.17-1,.49-2.44-.91-3.43-.37-.26,0-.74.55-.75.75,0,1.5,0,2.25,0,1.15,0,2,.15.83,1.45a2.91,2.91,0,0,0-.46,2.14c0,2-.07,4,0,6a2.17,2.17,0,0,1-1.29,2.18c-.81.42-1.35-.38-1.93-.82a8.61,8.61,0,0,1-2.47-3.31c-.66-1.42-2-2.11-2.86-3.37a.66.66,0,0,0-1.21.42c.12,2-1.07,4.12.93,5.81.69.59,0,1.16-.46,1.28a12.59,12.59,0,0,1-2.23.1,1.28,1.28,0,0,1-1.42-.72c-.34-.71.24-.85.61-1.11a1.7,1.7,0,0,0,.59-1.56q0-3,0-6a1.62,1.62,0,0,0-.31-1.17c-.34-.36-1.42-.24-.91-1.09.29-.49,1.09-.16,1.66-.24a3.34,3.34,0,0,1,3.55,1.7c1.21,1.85,2.49,3.65,3.72,5.48.28.43.51.88,1.14.7s.58-.73.6-1.22C343.64,116,343.62,115.29,343.62,114.33Z"/><path class="cls-1" d="M231.87,110.13c1.16,0,2.32,0,3.49,0,1.78.05,2,.33,1.84,2,0,.41,0,.87-.54,1s-.83.07-1-.42c-.66-1.53-2-1.54-3.37-1.52-2,0-2.25.32-2.2,2.33,0,1.24.49,1.84,1.77,1.82a11.35,11.35,0,0,1,1.73.21c.27,0,.47.17.47.46s-.24.57-.63.56-.83,0-1.25,0c-1.88.1-2.12.32-2.07,1.94s.42,2,2.12,2.06c1.53,0,3.05,0,3.59-1.89a.49.49,0,0,1,.79-.28c1,.63.57,1.64.6,2.52a.91.91,0,0,1-1,1.07c-2.83,0-5.65,0-8.48,0-1.32,0-1.41-.36-.57-1.54a4.07,4.07,0,0,0,.76-2.57c0-1.5,0-3,0-4.5a2.18,2.18,0,0,0-.72-2c-.31-.23-.9-.34-.61-.89s.73-.32,1.12-.32c1.41,0,2.82,0,4.24,0Z"/><path class="cls-1" d="M135.11,110c1.54-.29,3.31.59,5.06,1.6.41.24.63.52.53,1s-.62.44-1,.49a2.81,2.81,0,0,1-2.21-1c-3.16-2.66-7.33.16-8.12,3.26-.4,1.57.61,2.88,1.7,3.87a5.05,5.05,0,0,0,6.43.49,13,13,0,0,0,1.44-1c.54-.45,1.15-.9,1.67-.2.39.53-.11,1.06-.52,1.51-3.08,3.33-10.5,2.29-12.46-1.76-1.55-3.2,1.13-7.67,4.91-8.18C133.2,110.08,133.87,110.1,135.11,110Z"/><path class="cls-1" d="M96.05,113.82l.25,0c4-.63,5.67.49,5.48,4.68a2.68,2.68,0,0,0,1,2.16c.85.76.2,1.2-.5,1.32a9.8,9.8,0,0,1-2.48,0c-1.31-.1-1.49-.48-.66-1.57a4.32,4.32,0,0,0,.56-3.8A2.13,2.13,0,0,0,97.24,115c-1.23.1-2.1.71-2,2s-.51,2.63.75,3.73c.68.6,0,1.09-.6,1.19a13.92,13.92,0,0,1-2.24.05c-.59,0-1.26,0-1.5-.61s.58-.61.86-.94c.79-1,.71-4.55-.34-5.56s-.16-1.07.43-1.13c1.15-.1,2.31,0,3.47,0Z"/><path class="cls-1" d="M196.65,122h-.88c-2,0-2,0-2-2.1s0-4,0-6c0-1.13.25-2.29-1-3.08-.61-.37-.2-.86.4-1a1.68,1.68,0,0,1,2.17,1.6c.29,2.29.29,2.35,2.78,2.24a4.69,4.69,0,0,1,4.68,2.48c.95,1.54.81,2.45-.27,3.66A6,6,0,0,1,196.65,122Zm1.28-1.34c2.11,0,3.45-1.28,3.32-3.09a3.26,3.26,0,0,0-3.26-2.78c-1.92,0-2.66.85-2.65,3C195.36,120.24,195.75,120.66,197.93,120.63Z"/><path class="cls-1" d="M171.86,113.86l1-.11c4.1-.29,4.72.25,4.95,4.41a3.09,3.09,0,0,0,1,2.44c.83.71.25,1.21-.48,1.36a9.21,9.21,0,0,1-2.23,0c-1.65-.09-1.75-.31-.78-1.71a4.17,4.17,0,0,0,.62-2.85c-.13-1.66-.84-2.45-2.18-2.47a2.55,2.55,0,0,0-2.85,2.67,3.26,3.26,0,0,0,.85,2.74c.95.9.48,1.48-.64,1.6a12.78,12.78,0,0,1-2.23,0c-.58,0-.67-.86-1.3-.86.31-.25.62-.49.92-.76a3.93,3.93,0,0,0,.12-4.86c-.4-.45-.94-.79-.55-1.45s.89-.31,1.36-.3C170.28,113.75,171.19,113.83,171.86,113.86Z"/><path class="cls-1" d="M258.87,117.48a8,8,0,0,0-.19-2.22c-.17-.49-1.29-.77-.59-1.33s1.6-.25,2.42-.14a1.09,1.09,0,0,1,1,1.21,27.11,27.11,0,0,1,0,4.23c-.14.93,1.51,1.58.3,2.48-.83.62-1.7.17-2.59-.06s-1.72.42-2.65.43c-2.73,0-3.8-.84-3.87-3.51a5.65,5.65,0,0,0-1.15-3.72c-.1-.12-.68,0-.24-.52.73-.86,1.66-.6,2.54-.56s.79.9.82,1.52c0,1,0,2,0,3,.06,1.66.73,2.38,2.16,2.4s2-.64,2.06-2.45C258.88,118,258.87,117.73,258.87,117.48Z"/><path class="cls-1" d="M323.63,122h-1.24c-1.16,0-1.77-.53-.87-1.44s.78-2.13.7-3.24c-.13-1.67-.91-2.39-2.28-2.37a2.55,2.55,0,0,0-2.75,2.54,3.29,3.29,0,0,0,.92,3c.83.77.35,1.36-.58,1.53a7.37,7.37,0,0,1-2,0c-1.16-.13-1.31-.62-.55-1.62.91-1.22,1-4-.11-5s-.6-1.5.39-1.57a49.73,49.73,0,0,1,6.46,0c1.53.1,2.29,1.21,2.39,2.9.08,1.45-.33,3,1.13,4.12.54.41.1,1-.39,1.13A4,4,0,0,1,323.63,122Z"/><path class="cls-1" d="M157.32,118.64a3.93,3.93,0,0,0,.22,1.45c.26.6,1.39,1.23.34,1.74a4.21,4.21,0,0,1-3.35-.08c-.14-.06-.23-.7-.1-.91a5.29,5.29,0,0,0,.07-6.17.57.57,0,0,1,.64-.91c2.13.58,4.22-.23,6.32-.05,1.75.16,2.65,1.3,2.76,3.15.07,1.35-.49,2.88,1,3.88.12.08.29.32.26.39-.15.29-.34.74-.57.77a6.53,6.53,0,0,1-3.4-.13.67.67,0,0,1,0-1.08c1-.63.72-1.59.74-2.47,0-2.4-.54-3.13-2.42-3.15S157.31,115.82,157.32,118.64Z"/><path class="cls-1" d="M248.57,115.41c0,1.41-.32,2.91.08,4.2.55,1.82-.22,1.78-1.53,1.71-1.65-.08-3.31,0-5,0a2.6,2.6,0,0,1-2.85-1.89c-.33-1.48-.67-3.18.81-4.38a5.26,5.26,0,0,1,3.84-1.4c.76.06,1.75.39,2.19-.62a1.62,1.62,0,0,0-.78-2.12c-.18-.12-.78-.4-.16-.65a3.1,3.1,0,0,1,2.63-.25c.79.38.71,1,.71,1.68,0,1.25,0,2.49,0,3.74ZM247,117.79c0-2.35-.53-3-2.48-3s-3.76,1.28-3.8,3c0,1.88,1.13,2.89,3.41,2.92C246.6,120.67,247,120.25,247,117.79Z"/><path class="cls-1" d="M186.57,122c-1.55,0-3.1.43-4.54-.69s-1.53-2.12-.07-3.29a5.24,5.24,0,0,1,3.52-.87c.69,0,1.42-.12,1.37-1s-.61-1.13-1.36-1.14-1.5,0-2.24,0c-.32,0-.72.19-.86-.23s.19-.62.47-.77a4.42,4.42,0,0,1,6.73,3.8,5.22,5.22,0,0,0,.19,2.46c.79,1.48.05,1.77-1.22,1.76Zm-2-1.36c1.16.08,2.14,0,2.77-.94.2-.31.27-.65,0-.88a2.54,2.54,0,0,0-3-.41c-.61.31-1.59.29-1.41,1.37S184,120.54,184.53,120.64Z"/><path class="cls-1" d="M281.46,122a14,14,0,0,1-3,0c-1.1-.25-2.27-.65-2.3-2.18a2.4,2.4,0,0,1,2.18-2.55,24.7,24.7,0,0,1,2.73-.15c.52,0,1-.22,1-.85a1.05,1.05,0,0,0-.95-1.24c-1.07-.07-2.16,0-3.23,0-.27,0-.53,0-.63-.26s.14-.62.41-.78a4.48,4.48,0,0,1,6.78,3.71,11.93,11.93,0,0,0,.11,2.24c.42,2.07.46,2.06-1.65,2h-1.5Zm-1.26-1.35c.8-.12,1.85.1,1.9-1.09s-.84-1.56-1.84-1.45-2,.31-2,1.39C278.13,121,279.42,120.51,280.2,120.69Z"/><path class="cls-1" d="M353.29,122.08c-3.15,0-5.22-1.85-5.11-4.47a4.34,4.34,0,0,1,3-3.79,5.74,5.74,0,0,1,6.33,2.11c.72,1.06.55,1.48-.77,1.87a16.78,16.78,0,0,1-3.94.19c-.74.05-1.61-.07-1.75,1s.71,1.42,1.51,1.64a4.75,4.75,0,0,0,2.93-.14c.35-.12.86-.4,1,.2s-.53.51-.75.8C355.07,122.31,354.1,122,353.29,122.08Zm-.24-5c.74-.2,2,.39,2-1.1-.05-1.2-1.09-1.28-2-1.28s-1.92.26-1.88,1.44S352.3,116.93,353.05,117.1Z"/><path class="cls-1" d="M389.29,113.66c2.21.22,4.21.78,5.2,3.2a2.13,2.13,0,0,1-.17,2.26c-2.28,3.56-6.71,4.23-9.67.74a3.8,3.8,0,0,1,.12-4.14C386,114.4,387.26,113.26,389.29,113.66Zm-.12,7c2.25,0,2.92-.6,3-2.72s-.89-3.2-2.9-3.16a3,3,0,0,0-3.16,2.82A2.85,2.85,0,0,0,389.17,120.67Z"/><path class="cls-1" d="M110.12,122a5,5,0,0,1-5.17-1.8c-.46-.52-.43-.66,0-1.12a5.35,5.35,0,0,1,4-1.94c.77,0,2.2.53,2.12-.87-.06-1.1-1.34-1.25-2.38-1.32-.88-.06-1.81.42-2.65-.21-.12-.09-.32-.06-.48-.09,0,.29.11.3.24.06,0,0,.18,0,.23,0,1.07-1,4.42-1.4,5.59-.61a2.68,2.68,0,0,1,1.23,2.51c0,1.45-.3,2.93,1.08,4.14.66.58,0,1.22-.79,1.28S111.38,122,110.12,122Zm-.83-1.32c.85-.11,2,.17,1.94-1.25a1.35,1.35,0,0,0-1.75-1.28c-.93.15-2.16.22-2.11,1.57S108.54,120.56,109.29,120.67Z"/><path class="cls-1" d="M46.05,122.08a5.57,5.57,0,0,1-5.27-3.5c-.6-1.62,1.47-4.42,3.56-4.86a5.69,5.69,0,0,1,5.53,1.92,1.66,1.66,0,0,1,.39,1.57c-.08.8-.75.76-1.33.77l-4.23,0c-.64,0-1.14.23-1.26.92a1.25,1.25,0,0,0,.84,1.36,5.37,5.37,0,0,0,4.11.09c.53-.15,1.12-.12,1.27.4s-.57.44-.86.71C48,122.25,46.94,122,46.05,122.08Zm-.31-5c.49,0,.82,0,1.14,0s1,.08,1.26-.51-.28-1-.72-1.41a2.11,2.11,0,0,0-1.13-.42c-1.39-.16-2.87.53-2.75,1.4C43.75,117.68,45.09,116.8,45.74,117.06Z"/><path class="cls-1" d="M306.86,122c-1.62.36-2.89-.55-4.08-1.34-1.48-1-1.61-4-.33-5.26,2.59-2.62,6.09-2.52,8.82.29.75.76.85,3.49,0,4.18C310,121,308.88,122.49,306.86,122Zm2.84-4.32c0-2.06-.73-2.7-2.95-2.7s-3.15.93-3.09,2.94,1.15,2.78,3.34,2.7S309.74,119.93,309.7,117.72Z"/><path class="cls-1" d="M36.15,122a8.68,8.68,0,0,1-1.25,0c-1.09-.17-1.59-.24-.7-1.64a5.71,5.71,0,0,0,0-5.43c-.15-.33-.79-.8-.48-1,1.44-.73,1.51-2.32,2.36-3.39.43-.54,4-.74,4.55-.3a.44.44,0,0,1-.24.72c-.58,0-1.16,0-1.74,0a1.72,1.72,0,0,0-1.9,1.59c-.14,1.13.91.89,1.56,1.08.35.11.91-.09.93.52,0,.44-.42.44-.72.52a1.54,1.54,0,0,0-1.2,1.89c.2,1.4-.64,3,.83,4.17.58.47.3,1.08-.5,1.16a12.36,12.36,0,0,1-1.49,0Z"/><path class="cls-1" d="M147.54,122.06a17.08,17.08,0,0,1-2.48,0,2.39,2.39,0,0,1-2.32-2.12c-.22-1.47.73-1.76,1.83-2.11a9.25,9.25,0,0,1,2.44-.29c.86-.06,1.45-.41,1.41-1.35a1.42,1.42,0,0,0-1.44-1.42,8.41,8.41,0,0,0-2.69.27c-.2,0-.44-.16-.67-.24a3.41,3.41,0,0,0-.46-.1c0,.21.08.2.19,0s.16-.06.21-.11c1.4-1.3,3.14-1.08,4.7-.75a3.09,3.09,0,0,1,2.48,2.72,18.87,18.87,0,0,0,.72,4.1c.31.76-.21,1.4-1.2,1.38s-1.82,0-2.72,0Zm-1.09-1.38c1-.09,2.18.18,2.32-1.3.09-1-.78-1.67-2-1.63s-2.21.59-2.28,1.81C144.37,121,145.7,120.51,146.45,120.68Z"/><path class="cls-1" d="M409.87,113.55c0,.67,0,1.33,0,2,0,1,.33,1.67,1.41,1.56,2-.21,2.1,1.82,3.25,2.58a.46.46,0,0,1-.08.41.44.44,0,0,1-.43,0,13.9,13.9,0,0,0-1.8-1.3c-1.52-.72-2.34-.12-2.05,1.54.19,1.11-.13,1.58-1.18,1.62-.67,0-1.33,0-2,0a.9.9,0,0,1-.77-.57c-.17-.4.1-.62.44-.71,1-.27.95-1,1-1.8q0-3,0-6c0-.66.05-1.36-.7-1.71-.37-.17-.9-.26-.67-.8.09-.21.55-.29.85-.38,2.08-.56,2.72-.08,2.75,2,0,.5,0,1,0,1.5Z"/><path class="cls-1" d="M21.82,117.64c0-2.86,1.37-4,4.69-4,3.12,0,5,1.62,5,4.22s-2.05,4.24-5.07,4.22S21.79,120.65,21.82,117.64Zm4.63,3c2.13,0,3.43-1.13,3.42-3,0-1.47-1.82-3-3.6-2.93a2.79,2.79,0,0,0-2.86,3C23.4,119.81,24.27,120.65,26.45,120.67Z"/><path class="cls-1" d="M84.41,122.1c-1.81-.29-3.62-.51-4.67-2.47-1.34-2.52-.48-4.29,2.22-5.21a7.58,7.58,0,0,1,4.89,0,3.61,3.61,0,0,1,2.83,3c.34,1.66-1,2.73-2,3.62A3.7,3.7,0,0,1,84.41,122.1Zm0-7.38c-1.68,0-3.76,1.54-3.85,2.91s1.82,3,3.55,3c2.39,0,3.66-1,3.65-3A3.18,3.18,0,0,0,84.45,114.72Z"/><path class="cls-1" d="M66.75,113.67a3.43,3.43,0,0,1,2.88.92c.31.24.46.55.28.85s-.56.23-.9.17c-.74-.14-1.16-1-2-.91s-1.4.17-1.54,1,.38,1.08,1,1.25,1.14.19,1.69.37A2.38,2.38,0,0,1,70,120.06c-.26,1.28-1.18,1.78-2.43,2-1.81.4-3.07-1.07-4.71-1.15-.1,0-.25-.2-.27-.33-.07-.31.14-.43.42-.5.63-.14,1.24-.4,1.9,0a3,3,0,0,0,1.38.52c.77,0,1.82.37,2-.81s-.74-1.28-1.59-1.35a4.78,4.78,0,0,1-2.07-.81c-.78-.47-2.12-1.2-1.77-1.92.46-.93,1.2-2.26,2.75-2.13C66,113.7,66.34,113.67,66.75,113.67Z"/><path class="cls-1" d="M215.51,122.09c-1.35.46-2.38-1-3.78-1.14-.66-.09-.28-.58.07-.85a1.66,1.66,0,0,1,1.87-.14,4.71,4.71,0,0,0,1.31.65c.69.08,1.6.27,1.78-.78.15-.87-.5-1.2-1.21-1.21-.89,0-1.51-.63-2.28-.89A1.67,1.67,0,0,1,212,115.9c.07-.83.77-1,1.38-1.48,1.72-1.22,3.32-.5,5-.1a.7.7,0,0,1,.47,1c-.21.52-.69.44-1,.18a3.44,3.44,0,0,0-2.53-.81c-.72,0-1.37.18-1.39,1.06S214.15,117,215,117a5.26,5.26,0,0,1,3.72,1.59c1.25,1.17,1.19,1.7-.22,2.66C217.3,122.07,217.3,122.07,215.51,122.09Z"/><path class="cls-1" d="M56.76,122.09c-1.17.37-2.14-.59-3.24-1.12a.62.62,0,0,1-.36-.81.77.77,0,0,1,.87-.33c.87.2,1.48,1.1,2.51.91.65-.11,1.39-.06,1.49-.95a1,1,0,0,0-1-1.18c-1-.06-1.59-.91-2.52-1s-1.1-.8-1.16-1.6.5-1.12,1.15-1.59c1.94-1.39,3.61-.33,5.35.26.3.1.63.42.47.76a.6.6,0,0,1-.87.14,4,4,0,0,0-3.25-.87,1.15,1.15,0,0,0-1,.61c-.27.63.32.85.6,1.21a1.49,1.49,0,0,0,1.07.57c.24,0,.49,0,.74.08,2,.38,3.23,1.34,3.18,2.53S59.05,122.08,56.76,122.09Z"/><path class="cls-1" d="M400.32,113.83c1,0,1.76-.11,2.5-.12.49,0,1,0,1.06.73a1,1,0,0,1-.84,1.06,1.66,1.66,0,0,1-.5,0c-1,0-2.43-.35-2.61,1.11s-.75,3,1.14,3.91c1,.48.46,1.06-.12,1.28a6.61,6.61,0,0,1-3.42.11.81.81,0,0,1-.44-1.47c1.64-1.62,1.14-3.4.34-5.16-.58-1.28-.48-1.53.93-1.55C399.11,113.72,399.85,113.8,400.32,113.83Z"/><path class="cls-1" d="M270.17,122.11c-1.89-.36-3.78-.7-4.74-2.79s0-3.81,2-4.84a5.69,5.69,0,0,1,5.77.34c.26.15.41.5.61.76a6.3,6.3,0,0,1-.86.1,4.18,4.18,0,0,1-1.62-.56,3,3,0,0,0-3.75.89,3,3,0,0,0,3.25,4.64c.78-.2,1.51-.64,2.29-.87a.74.74,0,0,1,.79.48c.11.27-.13.5-.35.58C272.45,121.23,271.59,122.37,270.17,122.11Z"/><path class="cls-1" d="M118.65,122c-.25,0-.5,0-.74,0-1.46-.12-1.52-.3-.79-1.56,1.57-2.7.69-5.62.66-8.46,0-.19-.28-.39-.44-.58-.34-.36-.67-.73-1-1.07s-.07-.09,0-.16c.86-.9,3.37-.34,3.47.86s-.07,2.65,0,4c.18,2-.72,4.13.94,5.93.31.33,0,1-.62,1-.49,0-1,0-1.49,0Z"/><path class="cls-1" d="M291.66,122.07a2.6,2.6,0,0,1-2.81-2.5c-.08-.82,0-1.66,0-2.49,0-.58.13-1.37-.4-1.62-2.1-1-1.22-1.56.23-2.16.22-.1.32-.56.39-.88a.84.84,0,0,1,.87-.7c.58,0,.71.34.69.79a1.7,1.7,0,0,0,.83,1.45c.66.45,1.05.66-.12,1-.86.24-.79,1.23-.69,1.94.23,1.54-1.09,4,2.11,4,.28,0,.33.31.29.58C292.88,122.31,292.15,122,291.66,122.07Z"/><path class="cls-1" d="M297.72,122c-.84-.1-1.52.14-2.12-.3s-.78-.48-.05-1.12c1.3-1.14,1.22-4.5-.13-5.79-.81-.77-.35-.87.25-1,2.16-.56,2.76,0,2.93,2.13.14,1.68-.9,3.71,1.27,4.94.35.19,0,.86-.39,1A10.3,10.3,0,0,1,297.72,122Z"/><path class="cls-1" d="M75.08,122c-.41,0-.82,0-1.24,0-1.06,0-1.06-.7-.66-1.34a5.07,5.07,0,0,0,0-5.94c-.39-.58-.13-.88.51-1,1.6-.29,2.14.09,2.2,1.67q0,1.36,0,2.73c0,1.05,0,2,1.2,2.45.3.12.65.24.6.66a.86.86,0,0,1-.88.73,16.8,16.8,0,0,1-1.74,0Z"/><path class="cls-1" d="M207.42,122c-.42,0-.83,0-1.24,0-1.28-.13-1-.79-.53-1.54a4.66,4.66,0,0,0,.09-5.09c-.25-.45-.64-.86-.31-1.32.47-.63,1.22-.26,1.85-.3s.91.3.92.89c0,1.16,0,2.32.05,3.47,0,.73-.19,1.54.53,2.07.47.34,1.07.61.68,1.34s-1,.46-1.55.49Z"/><path class="cls-1" d="M297.61,110.16c.52,0,1,.15,1,.83a1,1,0,0,1-1.05.85,1.26,1.26,0,0,1-1.08-1C296.43,110.36,297.07,110.12,297.61,110.16Z"/><path class="cls-1" d="M415.52,114.43c.21.13.57-.21.69.23-.8,0-1,1.09-1.79,1.08a.51.51,0,0,1-.51-.66C414.13,114.15,414.93,114.54,415.52,114.43Z"/><path class="cls-1" d="M417,121.05a.66.66,0,0,1-.74.47c-.39,0-.87-.18-.74-.71.08-.37.49-.31.8-.26S416.92,120.61,417,121.05Z"/></g></svg>
