<svg data-name="Layer 1" xmlns="http://www.w3.org/2000/svg" viewBox="0 0 1317.3472 1350.0173" width="1317" height="1350"><title>Schultz's Treat Street</title>
    <path
       d="m 651.71511,1365.3999 c 0.45224,-0.7734 6.5972,-9.352 13.65547,-19.0636 8.63117,-11.8758 12.83323,-18.5094 12.83323,-20.2592 0,-8.9003 -6.69913,-49.3998 -6.93232,-41.9092 -0.0486,1.5599 -3.17433,4.5259 -11.0655,10.5 -6.04879,4.5792 -10.97644,8.5509 -10.95032,8.8259 0.0261,0.275 4.69691,6.8 10.37955,14.5 5.68264,7.7 10.15685,14.3001 9.94269,14.6669 -0.21415,0.3667 -7.54292,5.874 -16.28614,12.2382 l -15.89677,11.5714 -26.5882,-3.8142 c -14.6235,-2.0978 -26.88596,-4.1119 -27.24989,-4.4759 -0.36394,-0.3639 0.024,-5.5047 0.8622,-11.424 1.39782,-9.872 1.4808,-12.3126 0.38009,-11.1791 -0.22253,0.2292 -1.13324,5.3399 -2.02379,11.3572 -0.89056,6.0172 -1.75462,11.0759 -1.92014,11.2414 -0.52825,0.5282 -108.11792,-14.9662 -108.95379,-15.6909 -0.44128,-0.3826 7.54622,-7.1346 17.75,-15.0043 10.20378,-7.8698 18.55233,-14.6994 18.55233,-15.1769 0,-0.4776 1.37783,-10.1091 3.06185,-21.4035 1.68402,-11.2944 2.89588,-21.0331 2.69303,-21.6416 -0.20284,-0.6086 -5.02307,9.2079 -10.7116,21.8144 -13.08228,28.9919 -10.88977,26.6954 -33.19556,34.7698 l -9.4408,3.4174 -24.95346,-11.2439 c -16.10466,-7.2567 -24.90241,-11.7366 -24.80951,-12.6332 0.0792,-0.764 3.99693,-9.8576 8.70614,-20.2079 4.70921,-10.3503 8.06293,-18.6523 7.45273,-18.4489 -0.81727,0.2724 -14.90598,30.0611 -18.05624,38.1775 -0.19423,0.5004 -23.15582,-9.3476 -51.02575,-21.8845 -27.87,-12.5369 -50.4802,-23.1058 -50.245,-23.4863 0.2352,-0.3806 10.0629,-4.4574 21.8394,-9.0596 l 21.4118,-8.3677 9.2262,-20.3829 c 5.0744,-11.2105 9.0387,-20.5703 8.8096,-20.7994 -0.2291,-0.2291 -8.032,8.468 -17.3397,19.327 -19.5642,22.8247 -17.9441,21.8328 -37.6913,23.0771 l -13.0822,0.8244 -64.146,-54.579 c -44.7392,-38.0666 -63.6707,-54.7567 -62.5749,-55.1665 0.8642,-0.3232 11.0213,-1.3933 22.5713,-2.378 25.4724,-2.1718 20.7199,0.8358 46.4772,-29.4142 24.696,-29.0037 22.7721,-27.6897 42.5002,-29.0276 11.3929,-0.7726 13.2319,-0.6794 15.0613,0.7636 1.1461,0.904 25.597,21.6687 54.3353,46.1437 33.12842,28.2138 53.17146,44.6185 54.76518,44.8238 1.38252,0.1781 31.83174,13.5356 67.66493,29.6835 42.65231,19.2207 65.53632,29.0401 66.26628,28.4343 0.70164,-0.5824 27.21738,2.8084 71.5223,9.1461 51.01002,7.2969 70.86172,9.7891 72.05679,9.0462 0.90723,-0.5639 33.53223,-5.5834 72.49995,-11.1544 47.2268,-6.7517 71.0888,-10.5535 71.565,-11.402 0.393,-0.7001 30.0282,-14.4812 65.856,-30.6246 40.0667,-18.0533 65.3894,-29.9943 65.7855,-31.0211 0.5971,-1.548 128.31203,-110.9734 128.91603,-110.4546 0.1497,0.1286 -0.4598,10.8613 -1.3545,23.8505 l -1.6268,23.6167 22.1896,26.1223 c 26.0425,30.6581 24.635,27.8135 23.013,46.5094 l -1.2521,14.4329 -64.1207,54.6361 c -51.8797,44.2059 -64.1795,54.2433 -64.4293,52.5786 -0.1697,-1.1317 0.3723,-11.7963 1.2045,-23.6991 l 1.5132,-21.6414 -14.70433,-17.3528 c -8.0875,-9.544 -14.8781,-17.1816 -15.0902,-16.9725 -0.2121,0.209 4.4547,11.2138 10.3708,24.455 12.48293,27.9395 12.1962,25.23 4.6683,44.1033 l -4.8163,12.0751 -76.9186,34.727 c -42.3052,19.0999 -77.0057,34.6823 -77.1122,34.6274 -0.1065,-0.055 3.381,-9.9608 7.75,-22.0132 9.5277,-26.2836 9.5493,-20.6221 -0.1606,-42.1034 -4.4573,-9.861 -8.5199,-19.004 -9.0279,-20.3178 -2.1651,-5.5984 -1.7597,0.1699 1.7337,24.6658 l 3.7083,26.0036 -1.9049,3.661 c -1.0477,2.0136 -5.4603,8.2704 -9.8057,13.904 l -7.9007,10.2429 -26.9902,3.7314 c -14.8447,2.0523 -27.1881,3.5335 -27.43,3.2917 -0.2418,-0.2418 -1.7917,-9.8159 -3.4441,-21.2757 -1.6525,-11.4598 -3.1912,-21.0235 -3.4194,-21.2527 -1.2104,-1.2156 -0.9312,2.1074 1.6738,19.9167 1.5687,10.725 2.8655,20.4143 2.8818,21.5317 0.028,1.9236 -2.7236,2.4219 -51.72046,9.3657 -28.4625,4.0338 -53.28246,7.5772 -55.15548,7.8744 -2.73811,0.4345 -3.24434,0.2648 -2.58322,-0.8657 z m -8.12939,-45.1561 c -0.40486,-0.6875 -3.75094,-5.3389 -7.43573,-10.3365 l -6.69961,-9.0866 14.37632,-10.9029 c 11.86798,-9.0006 14.46404,-11.4281 14.87906,-13.9134 0.2765,-1.6558 0.97551,-6.1432 1.55334,-9.9719 1.22968,-8.1479 1.13114,-8.0049 10.10013,-14.6539 3.81001,-2.8245 6.6625,-5.4002 6.33887,-5.7238 -0.32363,-0.3237 -29.41831,-4.6883 -64.65485,-9.6993 l -64.06643,-9.1108 -8.6365,6.5932 -8.63651,6.5932 -3.65364,26.9813 c -2.00951,14.8398 -3.79372,28.9943 -3.96493,31.4546 l -0.31128,4.4732 11.46493,2.7458 c 10.6492,2.5505 37.32625,7.8605 37.56489,7.4772 0.058,-0.093 0.95926,-5.4701 2.00276,-11.9488 l 1.89727,-11.7794 10.78797,13.9141 10.78796,13.9141 11.21204,1.1715 c 11.77114,1.2298 28.25501,2.6883 33.02105,2.9216 1.99605,0.098 2.59597,-0.2243 2.07289,-1.1125 z m -52.70955,-42.7737 c -14.09535,-2.143 -13.01067,-1.3036 -12.14388,-9.3976 0.82753,-7.7274 -0.44334,-7.3842 17.47152,-4.7185 l 11.5,1.7112 -0.26688,4.9643 c -0.39986,7.438 -1.05489,9.4784 -3.00217,9.3516 -0.95202,-0.062 -7.05339,-0.9219 -13.55859,-1.911 z m 132.47342,42.4843 c 21.70028,-1.8288 19.31599,-0.098 17.85422,-12.9606 -1.44891,-12.7495 -3.08005,-11.0649 12.99986,-13.426 15.4893,-2.2743 14.5328,-2.5013 15.3752,3.6487 0.3599,2.6275 1.1308,7.5146 1.7132,10.8602 l 1.0589,6.0829 10.1764,-1.851 c 5.597,-1.0181 16.5889,-3.2709 24.4264,-5.0063 l 14.25,-3.1553 -0.026,-3.0766 c -0.014,-1.6921 -1.7335,-15.6683 -3.82,-31.0582 l -3.7937,-27.9817 5.88,-8.0183 c 3.9535,-5.3912 5.4228,-8.114 4.4845,-8.3101 -1.2401,-0.2592 -119.48796,16.0609 -125.72432,17.352 -1.66591,0.3449 -4.63173,3.3436 -8.88934,8.988 l -6.38934,8.4704 4.2065,28.2406 c 2.31358,15.5324 4.45006,29.2532 4.74775,30.4907 0.68054,2.8291 5.13823,2.9297 31.47021,0.7106 z m 14.54448,-39.2106 c -0.23527,-0.4125 -0.73145,-3.5384 -1.10262,-6.9465 l -0.67485,-6.1965 3.29361,-0.5661 c 25.66296,-4.411 25.56566,-4.4275 25.98636,4.4234 l 0.3072,6.4642 -11.5,1.7112 c -13.28293,1.9765 -15.72097,2.1425 -16.3097,1.1103 z m 137.9171,6.8534 c 34.6053,-12.1731 103.3462,-44.2429 103.3863,-48.2329 0.01,-0.7104 -11.7419,-27.9521 -12.2932,-28.5034 -0.3197,-0.3197 -55.1903,24.1102 -58.9524,26.2472 -1.3654,0.7757 -1.2073,1.6587 1.2717,7.1069 l 2.8307,6.2212 6.5528,-2.9712 c 3.6041,-1.6342 6.7832,-2.9712 7.0648,-2.9712 0.5554,0 6.7165,13.2067 6.2908,13.4847 -3.2419,2.1167 -26.232,11.4241 -26.773,10.8388 -1.2894,-1.3951 -17.2823,-38.3604 -16.8035,-38.8391 0.2475,-0.2476 6.0182,-2.9781 12.8237,-6.0679 12.8585,-5.838 14.9939,-5.9497 14.9939,-0.7844 0,2.8835 2.9715,1.9467 24.1703,-7.6196 26.8418,-12.1129 24.5274,-9.5238 19.1982,-21.4764 l -4.4424,-9.9639 3.4998,-9.4899 c 1.925,-5.2194 3.3658,-9.624 3.2019,-9.7879 -0.164,-0.164 -26.9617,11.704 -59.5505,26.3732 l -59.2523,26.6712 -2.2342,5.0806 c -1.2288,2.7943 -3.0571,7.3843 -4.063,10.1999 l -1.8289,5.1193 9.798,21.3807 c 12.2233,26.6729 15.3123,32.8807 16.3614,32.8807 0.4562,0 7.0933,-2.2034 14.7491,-4.8966 z m -376.48597,-31.2621 11.27037,-24.6588 9.38204,-3.7133 c 5.24911,-2.0776 9.00254,-4.0929 8.52054,-4.5749 -1.49329,-1.4932 -116.72021,-53.1949 -118.29434,-53.0779 -0.825,0.061 -5.55,1.6299 -10.5,3.4858 l -9,3.3744 -7.84273,17.4117 c -4.3135,9.5764 -10.25189,23.0092 -13.19643,29.8506 l -5.35371,12.439 5.69644,3.4386 c 7.06023,4.2619 37.16998,20.1835 38.16943,20.1835 0.40257,0 3.16084,-5.1602 6.12947,-11.4671 l 5.39753,-11.467 13,5.8895 c 8.36246,3.7885 12.88172,6.363 12.66845,7.217 -0.18236,0.7302 -2.33358,6.0164 -4.78049,11.7471 -2.44691,5.7307 -4.09771,10.7337 -3.66845,11.1176 0.81945,0.7329 26.79266,10.9008 38.78049,15.1816 l 7,2.4997 2.67551,-5.1092 c 1.47153,-2.8101 7.74718,-16.2056 13.94588,-29.7679 z m -60.87139,-25.5986 c -13.68064,-6.2187 -13.26113,-5.6239 -9.49688,-13.4633 l 2.74688,-5.7206 12.75,5.7162 c 7.0125,3.1439 12.75,6.2263 12.75,6.8497 0,1.7308 -5.05356,12.3883 -5.82331,12.2809 -0.37218,-0.052 -6.18919,-2.6003 -12.92669,-5.6629 z m 592.65919,-24.6766 c 27.2736,-19.8698 53.3305,-41.9862 73.3617,-62.2674 l 8.771,-8.8805 -3.2231,-4.1936 c -3.154,-4.1038 -3.2669,-4.155 -5.271,-2.3907 -2.2384,1.9705 -35.7824,30.362 -36.475,30.8723 -0.2349,0.1731 0.7776,1.5721 2.25,3.1089 3.576,3.7326 4.0504,2.942 -7.8911,13.1504 -12.4111,10.61 -11.1866,10.2993 -16.3387,4.1457 -5.3802,-6.426 -6.8148,-4.322 16.3695,-24.0064 22.6346,-19.2178 21.3334,-17.0593 14.7722,-24.5041 l -3.2652,-3.705 -19.7348,16.8564 c -24.1233,20.6049 -21.5321,19.115 -25.471,14.6456 -6.5178,-7.3956 -6.7993,-6.2959 3.9963,-15.6118 12.4942,-10.7816 11.6923,-10.4141 14.965,-6.8576 l 2.7749,3.0155 17,-14.5329 c 9.35,-7.993 18.0466,-15.5622 19.3258,-16.8204 l 2.3258,-2.2875 -7.1339,-8.2825 -7.1339,-8.2824 0.7046,-10.5186 c 0.542,-8.0909 0.4267,-10.3468 -0.4995,-9.7744 -0.6623,0.4093 -23.1157,19.4045 -49.8965,42.2116 l -48.69233,41.4674 -0.6718,5.188 c -0.3695,2.8533 -0.8195,7.7547 -1,10.892 l -0.3282,5.704 16.2,18.796 c 16.06063,18.6343 22.05753,25.2959 22.77173,25.2959 0.2038,0 8.0506,-5.5953 17.4375,-12.4339 z m -688.98686,-5.8804 c 6.2823,-7.2522 11.5409,-13.6357 11.6857,-14.1857 0.2232,-0.8478 -41.5913,-37.1222 -47.8051,-41.4713 -1.9746,-1.382 -2.3661,-1.1713 -6.4525,3.4726 -5.2822,6.0028 -5.3872,5.0935 1.1969,10.3613 6.5301,5.2246 6.4805,4.4195 0.6708,10.9019 l -4.7181,5.2644 -10.489,-8.9812 c -5.7689,-4.9396 -10.6121,-9.351 -10.7628,-9.8029 -0.1506,-0.4519 5.9836,-8.0856 13.6317,-16.9637 l 13.9055,-16.142 10.6073,9.0473 c 11.7497,10.0219 11.419,9.5119 8.5423,13.1691 -1.1358,1.4438 -1.8186,3.0239 -1.5174,3.5112 0.6888,1.1146 36.4574,31.5274 37.5521,31.9293 0.4434,0.1628 3.9976,-3.4372 7.8982,-8 l 7.09209,-8.296 10.72628,-1 10.72628,-1 -49.32595,-42 c -27.1293,-23.1 -49.8346,-42.2842 -50.4563,-42.6315 -1.053,-0.5882 -21.6161,0.647 -22.0425,1.3241 -0.1064,0.1691 -5.1516,6.1574 -11.2114,13.3074 -6.0599,7.15 -15.6405,18.5762 -21.2903,25.3916 l -10.2724,12.3916 11.8431,11.93 c 26.0232,26.2139 83.9617,73.7851 87.8185,72.1046 0.5635,-0.2456 6.1647,-6.38 12.447,-13.6321 z m 293.07767,-42.3534 C 355.28374,1132.076 160.85824,882.74124 205.29614,606.50477 c 40.03,-248.83525 273.04033,-423.85125 524.40767,-393.88685 57.87106,6.8985 125.28826,28.073 168.49996,52.9227 2.475,1.4233 7.65,4.3027 11.5,6.3987 114.34993,62.2538 205.56103,189.32106 230.09963,320.5545 9.5863,51.26798 11.3145,114.55286 4.3416,158.98202 -34.3451,218.8354 -198.10033,377.55566 -417.94119,405.09076 -9.12144,1.1424 -81.39787,2.1428 -91,1.2595 z m 76.5,-102.2459 c 20.7261,-2.4613 40.19386,-5.8993 52.49996,-9.2714 4.125,-1.1303 9.975,-2.7309 13,-3.5568 7.4497,-2.034 25.8554,-8.1734 30.5,-10.1736 1.1,-0.4737 4.925,-2.0758 8.5,-3.5602 3.575,-1.4844 8.075,-3.3863 10,-4.2264 6.2568,-2.7304 24.4864,-11.6729 25,-12.2636 0.275,-0.3163 1.625,-1.1463 3,-1.8443 1.375,-0.6981 3.4,-1.8199 4.5,-2.4929 1.1,-0.673 4.925,-2.9235 8.5,-5.001 10.1718,-5.91106 10.8919,-6.37976 15.6444,-10.18106 1.7294,-1.3833 3.4359,-2.5151 3.7922,-2.5151 0.3563,0 1.1914,-0.4582 1.8557,-1.0183 0.6642,-0.56 5.7077,-4.4111 11.2077,-8.558 5.5,-4.1469 10.4997,-8.1887 11.1103,-8.9818 0.6106,-0.793 1.3518,-1.4419 1.6472,-1.4419 1.535,0 42.7425,-39.8557 42.7425,-41.3404 0,-0.2949 1.3724,-2.0265 3.0497,-3.8479 1.6773,-1.8214 4.9386,-5.7867 7.2474,-8.8117 2.3087,-3.025 4.7614,-5.8599 5.4503,-6.2997 0.689,-0.4398 1.2526,-1.2222 1.2526,-1.7386 0,-0.5164 0.6457,-1.7315 1.4348,-2.7003 3.3164,-4.0716 8.2934,-11.0323 10.5546,-14.7614 1.334,-2.2 2.7821,-4.15 3.2181,-4.3333 0.4359,-0.1834 0.7925,-0.886 0.7925,-1.5615 0,-0.6754 0.7875,-2.103 1.75,-3.1722 0.9625,-1.0693 2.8294,-3.9667 4.1486,-6.4386 1.3192,-2.4719 2.9535,-5.1694 3.6317,-5.9944 0.6783,-0.825 1.5417,-2.5125 1.9189,-3.75 0.37703,-1.2375 1.10523,-2.25 1.61813,-2.25 0.513,0 0.9326,-0.608 0.9326,-1.3511 0,-0.7431 1.1886,-3.5556 2.6414,-6.25 3.4676,-6.4313 7.2417,-14.0456 9.1197,-18.3989 0.8304,-1.925 2.3292,-5.3 3.3306,-7.5 3.2011,-7.0328 10.5741,-27.3856 13.2224,-36.50002 0.879,-3.025 2.4571,-8.425 3.507,-12 3.4735,-11.82788 7.3307,-31.45563 10.1664,-51.73386 2.7763,-19.85381 3.041,-70.56283 0.4528,-86.76614 -0.8785,-5.5 -1.9591,-12.925 -2.4014,-16.5 -1.087,-8.78754 -2.899,-18.43621 -4.6176,-24.58789 -0.7817,-2.79834 -1.4213,-5.86401 -1.4213,-6.81259 0,-1.50119 -1.6868,-7.37835 -5.1949,-18.09952 -0.5398,-1.65 -1.3755,-4.60447 -1.8569,-6.5655 -0.4815,-1.96102 -1.564,-4.88602 -2.4056,-6.5 -0.8417,-1.61397 -1.5358,-3.6095 -1.5426,-4.4345 -0.01,-0.825 -0.6845,-2.78894 -1.5062,-4.36431 -0.8216,-1.57537 -1.4938,-3.49397 -1.4938,-4.26357 0,-0.76959 -0.4109,-2.18065 -0.9131,-3.13569 -0.8193,-1.55803 -3.9094,-8.45806 -7.4953,-16.73643 -3.88,-8.95753 -13.2875,-27.07872 -18.42953,-35.5 -1.1754,-1.925 -2.5649,-4.46879 -3.0878,-5.65286 -0.5229,-1.18407 -1.3819,-2.41933 -1.9089,-2.74501 -0.527,-0.32568 -1.9263,-2.44965 -3.1096,-4.71993 -2.1099,-4.0479 -7.3942,-11.67033 -10.4905,-15.1322 -0.8608,-0.9625 -1.5652,-2.00785 -1.5652,-2.323 0,-0.89772 -11.092,-14.88737 -12.0995,-15.26033 -0.4953,-0.18334 -0.9005,-0.72538 -0.9005,-1.20455 0,-0.47917 -1.0125,-1.93765 -2.25,-3.24107 -1.2375,-1.30343 -4.95,-5.47542 -8.25,-9.2711 -7.6783,-8.83172 -21.1182,-22.27156 -29.9499,-29.94995 -3.7957,-3.3 -7.9677,-7.0125 -9.2711,-8.25 -1.3034,-1.2375 -2.7513,-2.25 -3.2174,-2.25 -0.4662,0 -1.1066,-0.675 -1.4232,-1.5 -0.3166,-0.825 -1.0147,-1.5 -1.5513,-1.5 -0.5367,0 -2.6883,-1.57608 -4.7814,-3.5024 -2.0931,-1.92632 -4.5932,-3.75665 -5.5557,-4.06739 -0.9625,-0.31074 -1.75,-0.98466 -1.75,-1.4976 0,-0.51291 -0.6375,-0.93261 -1.4166,-0.93261 -0.7792,0 -1.5667,-0.3375 -1.75,-0.75 -0.4161,-0.9362 -7.4803,-6.25 -8.3088,-6.25 -0.3349,0 -1.1525,-0.479 -1.8168,-1.0644 -0.6642,-0.5855 -4.3578,-3.0407 -8.2078,-5.456 -3.85,-2.4153 -7.4691,-4.7488 -8.0425,-5.1855 -4.7916,-3.6499 -42.5682,-22.2223 -54.4575,-26.7734 -2.475,-0.9474 -5.9777,-2.3522 -7.7839,-3.1216 -1.8061,-0.7695 -3.8836,-1.3991 -4.6166,-1.3991 -0.733,0 -3.5303,-0.8494 -6.2161,-1.8876 -2.6858,-1.0381 -7.3584,-2.6034 -10.3834,-3.4783 -3.025,-0.875 -8.425,-2.4398 -12,-3.4775 -3.575,-1.0376 -10.1,-2.6428 -14.5,-3.567 -4.4,-0.9242 -10.025,-2.1452 -12.49996,-2.7134 -2.475,-0.5682 -7.875,-1.4183 -12,-1.8892 -4.125,-0.4708 -12.87409,-1.595 -19.44242,-2.4981 -16.29186,-2.2402 -65.39052,-1.727 -83.05758,0.8681 -24.92963,3.6619 -46.76121,8.3268 -60,12.8208 -1.65,0.5601 -4.575,1.3849 -6.5,1.833 -4.92796,1.1471 -24.40824,8.3886 -32.5,12.0814 -2.2,1.0041 -6.7,3.0139 -10,4.4664 -10.03978,4.4189 -16.93087,7.876 -18.32143,9.1914 -0.72678,0.6875 -1.76876,1.25 -2.3155,1.25 -0.54674,0 -4.8034,2.25 -9.45925,5 -4.65585,2.75 -8.84627,5 -9.31205,5 -0.46579,0 -1.44599,0.7219 -2.17823,1.6042 -0.73224,0.8823 -2.24984,2.0062 -3.37244,2.4976 -3.08297,1.3495 -6.28233,3.4613 -11.18546,7.3831 -1.72939,1.3833 -3.64189,2.5151 -4.25,2.5151 -0.6081,0 -1.10564,0.3827 -1.10564,0.8505 0,0.4678 -2.25,2.2492 -5,3.95872 -2.75,1.70949 -5,3.57676 -5,4.14948 0,0.57271 -0.46899,1.0413 -1.04221,1.0413 -0.95625,0 -1.79226,0.56635 -5.24249,3.55147 -0.66842,0.5783 -3.90126,3.23174 -7.18409,5.89651 -3.28284,2.66478 -7.09555,6.12912 -8.47269,7.69854 -1.37714,1.56941 -2.81874,2.85348 -3.20356,2.85348 -0.6731,0 -19.30494,18.70638 -27.88844,28 -2.28588,2.475 -7.13836,8.325 -10.78329,13 -3.64492,4.675 -6.86731,8.725 -7.16087,9 -1.56975,1.47054 -9.02233,12.04528 -9.02233,12.80211 0,0.48835 -0.9,1.7024 -2,2.69789 -1.1,0.99549 -2,2.41523 -2,3.15499 0,0.73975 -0.3477,1.34501 -0.7726,1.34501 -0.425,0 -1.6208,1.575 -2.6575,3.5 -1.0367,1.925 -2.264,3.5 -2.7274,3.5 -0.4634,0 -0.8425,0.9 -0.8425,2 0,1.1 -0.3423,2 -0.7606,2 -0.4183,0 -2.2918,2.925 -4.1633,6.5 -1.8715,3.575 -3.7792,6.5 -4.2394,6.5 -0.4602,0 -0.8367,0.46858 -0.8367,1.04128 0,0.93716 -5.9163,13.44115 -8.7337,18.45872 -0.6177,1.1 -2.0259,4.025 -3.1293,6.5 -6.238,13.99185 -7.4136,16.72777 -8.1646,19 -0.4544,1.375 -2.03,5.65 -3.5012,9.5 -1.4712,3.85 -3.0396,8.35 -3.4853,10 -0.4457,1.65 -1.2713,4.35 -1.8346,6 -16.4267,48.10926 -21.0052,114.23385 -11.8057,170.5 2.964,18.1281 3.9193,22.37856 9.3269,41.5 3.9166,13.84925 4.7023,16.32168 6.4441,20.27675 1.0358,2.35221 1.8834,4.92447 1.8834,5.71607 0,1.3494 0.6006,2.9008 5.0363,13.0072 0.9656,2.2 2.5106,5.8 3.4334,8 3.847,9.1714 6.6678,15.0994 10.4685,22 1.2117,2.2 2.9145,5.6875 3.7841,7.75 0.8696,2.0625 1.9188,3.75 2.3315,3.75 0.4128,0 1.238,1.2375 1.8339,2.75 0.5958,1.5125 1.6524,3.6355 2.3478,4.7178 0.6955,1.0823 3.3794,5.3573 5.9643,9.5 5.9095,9.4709 10.7906,16.6165 13.05017,19.1049 0.9625,1.06 1.75,2.3398 1.75,2.844 0,0.5041 0.34731,1.0666 0.7718,1.25 0.42448,0.1833 2.98627,3.3708 5.69286,7.0833 2.70659,3.7125 5.208,6.75 5.55869,6.75 0.35069,0 2.09273,2.0262 3.87121,4.5027 3.71914,5.1788 29.93468,32.0126 38.10544,39.0041 3.025,2.5884 6.85,5.9236 8.5,7.4116 1.65,1.488 7.95,6.3856 14,10.8836 15.3488,11.4114 15.53047,11.5405 20,14.2065 2.2,1.3122 4.225,2.6682 4.5,3.0133 0.275,0.345 2.525,1.71876 5,3.05276 2.475,1.334 4.725,2.6801 5,2.9914 0.75322,0.8527 10.77295,6.4283 17,9.4598 3.025,1.4727 6.4,3.159 7.5,3.7473 3.04561,1.6289 11.63173,5.7503 15,7.2 9.78394,4.2113 15.52407,6.5178 19.54584,7.8541 2.50021,0.8308 6.10021,2.1673 8,2.97 1.89979,0.8028 6.15416,2.243 9.45416,3.2004 3.3,0.9575 8.025,2.328 10.5,3.0457 15.59768,4.5228 32.32718,8.4567 35.96348,8.4567 1.19753,0 5.85814,0.6612 10.35692,1.4692 24.34206,4.3725 68.95917,5.6123 94.1796,2.6172 z m -62,-19.6658 c -1.65,-0.2252 -7.95,-0.8936 -14,-1.4854 C 489.83722,1020.1616 364.06824,909.17424 330.82734,765.38464 279.28804,542.44183 446.11719,331.94292 674.20381,332.12492 c 230.27166,0.1837 398.09209,217.0068 340.84439,440.3689 -35.82033,139.75962 -152.87353,242.21278 -298.84439,261.56958 -10.8392,1.4374 -59.58882,2.7943 -66.5,1.851 z m 19.5,-106.37526 v -97.9547 l -3.25,-0.4976 c -1.7875,-0.2736 -6.175,-0.7721 -9.75,-1.1076 -64.87486,-6.089 -118.75616,-60.92382 -128.46215,-130.73542 l -0.6604,-4.75 -96.18872,0.0634 c -88.102,0.058 -107.4756,0.61059 -83.1395,2.37115 4.9229,0.35615 15.9258,1.29607 24.45077,2.08872 8.525,0.79265 25.85,2.38826 38.5,3.5458 74.93549,6.85696 76.20728,7.06535 93.55977,15.33037 18.4108,8.76908 30.72438,19.21132 36.04644,30.56829 13.17085,28.10585 38.89406,53.98333 68.39379,68.80389 24.11796,12.1169 38.46902,40.1968 42.51346,83.1838 2.97687,31.6401 5.77891,62.202 7.5222,82.0446 3.53935,40.28566 3.83866,42.21456 6.86404,44.23466 3.64019,2.4306 3.6003,3.5074 3.6003,-97.18936 z m 71.30205,-113.1289 c 23.48281,-11.69748 46.72251,-33.1927 59.91381,-55.41642 5.5724,-9.388 9.9116,-18.5 8.8097,-18.5 -0.5518,0 -2.8656,3.7125 -5.1418,8.25 -13.1873,26.2883 -36.3679,49.6802 -63.26175,63.83842 -8.67833,4.5687 -10.73869,5.9116 -9.06996,5.9116 0.30363,0 4.24113,-1.8376 8.75,-4.0836 z m -11.30205,-86.07858 c 8.18525,-2.81703 17.82346,-7.35261 25.24996,-11.88227 2.8285,-1.72512 4.7515,-2.40328 4.7538,-1.67635 0,0.67143 0.8509,-0.1685 1.8863,-1.86651 1.0355,-1.69801 4.1646,-4.84801 6.9537,-7 2.7891,-2.15199 5.0902,-4.36696 5.1136,-4.92216 0.023,-0.5552 0.9426,-1.57152 2.0426,-2.25848 1.1,-0.68696 2.0183,-1.8077 2.0407,-2.49054 0.022,-0.68284 1.3723,-2.79953 3,-4.70376 1.6276,-1.90422 2.9593,-4.21162 2.9593,-5.12755 0,-0.91593 0.6399,-2.19634 1.4219,-2.84534 0.782,-0.64901 1.7329,-3.06661 2.113,-5.37245 0.3802,-2.30584 1.1062,-4.70756 1.6133,-5.33717 0.5071,-0.62961 0.8228,-1.52961 0.7016,-2 -0.1213,-0.47039 0.1267,-4.04875 0.551,-7.9519 0.7447,-6.85079 -0.4028,-14.37784 -2.5693,-16.85336 -0.4573,-0.5225 -0.8315,-1.70389 -0.8315,-2.62532 0,-2.4174 -10.7717,-23.92468 -11.9824,-23.92468 -0.5597,0 -1.0176,-0.75259 -1.0176,-1.67242 0,-2.9334 -24.5572,-29.32758 -27.2864,-29.32758 -0.4397,0 -3.14257,-1.7374 -6.00647,-3.86089 -6.04257,-4.48037 -20.84954,-12.13911 -23.46906,-12.13911 -0.98616,0 -2.68065,-0.62056 -3.76552,-1.37901 -1.08488,-0.75846 -4.44751,-1.88981 -7.47251,-2.51412 -3.025,-0.62431 -6.625,-1.36689 -8,-1.65018 -27.7497,-5.71723 -64.34696,1.08932 -84,15.62277 -1.925,1.42354 -4.175,2.90567 -5,3.29362 -8.3463,3.92479 -31,26.90032 -31,31.4404 0,0.49196 -1.0125,2.00755 -2.25,3.36797 -6.58997,7.24455 -15.49659,30.20685 -14.86301,38.31855 0.12888,1.65 0.38131,5.025 0.56096,7.5 0.4441,6.11824 5.79233,21.31518 8.96554,25.47546 1.42258,1.8651 2.58651,3.64561 2.58651,3.95667 0,0.80587 7.63238,8.56787 8.42479,8.56787 1.27679,0 4.4563,3.55704 5.40134,6.04268 0.56695,1.49121 1.81899,2.58031 3.07513,2.67493 1.16535,0.0878 2.78363,0.82443 3.5962,1.63699 2.69462,2.69463 23.88138,12.47257 31.50254,14.5388 7.09444,1.92343 9.93337,2.01965 52.5,1.77951 l 45,-0.25387 z m 262.99996,-58.85012 c -8.525,-0.98033 -26.525,-2.75971 -40,-3.95416 -13.475,-1.19445 -30.8,-2.79485 -38.5,-3.55645 -7.7,-0.76159 -20.075,-1.88857 -27.5,-2.50439 -37.7216,-3.1286 -68.1017,-19.3023 -79.6478,-42.40286 -11.6373,-23.28297 -28.9767,-43.24561 -49.687,-57.20401 -9.1723,-6.18195 -25.79308,-14.86277 -25.12532,-13.12262 0.29436,0.76708 2.65581,2.41971 5.24768,3.67251 42.96804,20.76901 72.10824,59.81936 81.21434,108.83426 l 2.2758,12.25 93.6112,-0.11493 93.61103,-0.11493 z M 544.1154,616.87181 c 22.69075,-43.10157 62.79954,-70.86968 112.71376,-78.034 l 12.37465,-1.77616 v -97.78391 -97.78392 l 2.75,-0.1362 c 2.50516,-0.124 2.54062,-0.1759 0.39829,-0.5829 -8.57975,-1.6297 -10.21556,2.175 -12.13275,28.2191 -0.52633,7.15 -1.41918,17.725 -1.98411,23.5 -0.56493,5.775 -1.93522,20.625 -3.04509,33 -1.94404,21.6758 -2.85545,31.54087 -4.98012,53.90463 -2.9494,31.04464 -20.20157,61.14665 -41.0438,71.61424 -29.39523,14.76318 -53.56556,38.71236 -67.85193,67.23113 -5.77859,11.53533 -3.37387,10.35748 2.8011,-1.37201 z m -252.56036,-5.21359 c 9.3392,-10.31975 21.9113,-61.50184 16.4488,-66.9644 -4.1973,-4.19726 -10.1149,4.63058 -20.3112,30.3 -7.3748,18.56621 -11.384,22.54153 -10.1006,10.01518 1.263,-12.32851 7.7312,-28.10138 11.7661,-28.6924 1.9756,-0.28938 3.5227,-4.01687 4.8033,-11.57278 0.1734,-1.02311 -2.952,0.0928 -4.2012,1.5 -8.866,9.98742 -20.1643,57.24218 -14.9362,62.47029 3.4069,3.40682 8.1309,-3.02571 16.7935,-22.86705 11.7156,-26.8339 17.181,-26.14059 8.8647,1.1245 -2.9923,9.8101 -6.1775,15.0098 -9.2208,15.0523 -2.8594,0.0399 -2.9333,0.15394 -4.0329,6.21996 -1.0545,5.81716 0.6647,7.23967 4.1265,3.4144 z m 769.34176,-14.1644 -0.4988,-7.5 3.2539,7 c 9.8101,21.10417 13.8648,7.59499 6.0288,-20.0864 -3.3286,-11.75857 -13.6708,-45.92194 -14.0061,-46.26655 -0.4997,-0.51346 -22.8611,6.27151 -24.2485,7.35754 -0.1527,0.11952 0.8278,3.76738 2.1789,8.10636 1.3511,4.33898 2.9384,9.68905 3.5273,11.88905 1.7547,6.5544 2.0023,6.70968 7.904,4.95706 6.4386,-1.91206 6.7654,-1.71065 8.1655,5.03366 1.8306,8.81815 1.1501,11.70233 -3.2481,13.76572 -4.7368,2.22224 -4.7379,2.88976 -0.031,18.83969 l 3.7188,12.60224 3.8772,-4.09918 3.8772,-4.09919 -0.4989,-7.5 z m -1.2653,-19.46989 c -1.6834,-2.56922 -6.4278,-14.77526 -6.4278,-16.53705 0,-1.66952 8.1736,-3.33021 9.0903,-1.84695 5.9285,9.59249 3.3305,27.53058 -2.6625,18.384 z m -749.37926,-80.5294 c 3.3797,-5.49961 6.4388,-9.82545 6.7982,-9.61297 0.3593,0.21247 4.8779,2.94015 10.0411,6.06151 5.1633,3.12136 9.7149,5.3097 10.1146,4.86297 2.2793,-2.54728 14.9726,-24.54373 14.554,-25.22098 -0.2755,-0.44589 -4.5524,-3.14891 -9.5041,-6.0067 -11.2738,-6.50653 -10.8967,-4.94844 -3.9681,-16.3921 5.9754,-9.86929 6.9277,-12.1964 4.6852,-11.44888 -1.157,0.38564 -40.6838,65.39332 -40.7422,67.00644 -0.096,2.64301 2.6803,-0.55791 8.0213,-9.24929 z m 708.23546,8.22618 c -0.1189,-0.56271 -4.9564,-8.22858 -10.75,-17.03526 -12.04533,-18.30967 -11.58213,-16.99662 -7.0356,-19.94163 4.8483,-3.14048 4.3373,-3.52608 12.9193,9.75 7.079,10.95106 9.5823,13.81238 9.5823,10.95263 0,-0.57606 -3.375,-6.22359 -7.5,-12.55008 -4.125,-6.32649 -7.5,-11.83314 -7.5,-12.23702 0,-0.82949 5.9727,-4.55035 6.4416,-4.01296 0.1668,0.19109 4.4565,6.75993 9.5327,14.59743 5.0763,7.8375 9.6337,14.25 10.1276,14.25 2.4135,0 1.9626,-0.75843 -23.5972,-39.69361 -4.4026,-6.70649 -8.4547,-12.90575 -9.0047,-13.77614 -0.8799,-1.3926 -16.23953,7.39187 -21.84993,12.4964 -0.4675,0.42535 1.3007,4.08087 3.9293,8.12336 2.6286,4.04249 9.3193,14.32499 14.8683,22.84999 5.54883,8.525 11.88073,18.30823 14.07063,21.74052 3.438,5.3884 6.4512,7.73303 5.7657,4.48637 z M 390.85969,420.95534 c 12.12917,-7.10817 37.87801,-32.01379 42.20793,-40.82572 2.84144,-5.7827 2.70726,-6.1475 -5.54848,-15.0862 l -6.18467,-6.6963 -3.67857,3.3712 -3.67856,3.3711 6.69754,7.2982 c 7.56483,8.2433 7.75549,9.5071 2.44556,16.21147 -4.27278,5.39481 -13.79476,13.86897 -17.6492,15.70703 l -3.32152,1.58392 -7.36619,-7.31703 c -8.66249,-8.60468 -6.93981,-8.83302 -18.88267,2.50285 l -9.56832,9.08205 6.84754,7.31057 c 7.74725,8.27111 9.07056,8.5321 17.67961,3.48686 z m 561.28368,-15.96297 c -3.9631,-9.11121 -6.9769,-16.79449 -6.6975,-17.07395 0.2795,-0.27946 5.1205,1.32947 10.7579,3.5754 5.6374,2.24593 10.4076,3.92578 10.6004,3.73299 1.6381,-1.63812 -10.5582,-8.64438 -24.6571,-14.16449 -18.9739,-7.4287 -17.9678,-6.6376 -14.0763,-11.0697 1.7232,-1.9626 3.133,-3.978 3.133,-4.4786 0,-1.1788 -19.4332,-18.0202 -20.7934,-18.0202 -1.3372,0 -17.6275,18.9124 -16.9092,19.6307 0.2994,0.2994 5.1924,4.5429 10.8735,9.4301 l 10.3291,8.88588 3.5305,-4.06138 c 4.7308,-5.4421 6.3329,-4.0785 12.6902,10.80022 l 4.7793,11.18552 11.5,9.91646 c 6.325,5.45405 11.6452,9.54755 11.8226,9.09667 0.1775,-0.45087 -2.9199,-8.2744 -6.883,-17.38562 z M 476.65321,353.09432 c 54.28293,-24.6578 71.63744,-37.1881 65.17217,-47.0553 -3.46011,-5.2808 -12.44785,-5.1399 -27.55964,0.432 -7.15485,2.638 -11.67635,4.7125 -42.27957,19.3981 l -11.71764,5.623 4.56446,9.7508 c 2.51045,5.363 5.04843,10.775 5.63995,12.0268 0.59152,1.2517 1.33546,2.128 1.65318,1.9473 0.31773,-0.1808 2.35492,-1.136 4.52709,-2.1227 z m 15.30227,-21.8505 c -5.14478,-10.5429 -5.27169,-10.0956 4.01351,-14.1441 12.27193,-5.3507 20.23482,-2.1442 20.23482,8.1483 0,4.1216 -14.11062,15.2458 -19.33871,15.2458 -0.21766,0 -2.42699,-4.1625 -4.90962,-9.25 z m 374.24829,17.7506 c 0,-0.2746 -2.2792,-6.0121 -5.065,-12.75 -2.7858,-6.7378 -5.7761,-14.0506 -6.6451,-16.2506 -0.8691,-2.2 -2.0773,-4.5278 -2.685,-5.173 -1.2215,-1.2967 -21.2011,-10.3055 -22.9838,-10.3634 -1.7226,-0.056 -36.6096,11.4613 -36.6157,12.0879 -0.021,2.1621 9.7749,4.5217 13.5489,3.2637 6.2815,-2.0938 29.7257,8.3866 32.8596,14.6894 2.1367,4.2973 27.5861,17.6705 27.5861,14.496 z m -41.3733,-27.0082 c -5.4303,-2.4232 -10.0491,-4.5816 -10.264,-4.7965 -0.2149,-0.2149 2.9861,-1.5486 7.1134,-2.9639 4.1272,-1.4152 7.7438,-2.1853 8.0367,-1.7114 0.7169,1.1599 5.5343,13.9929 5.2287,13.9285 -0.1328,-0.028 -4.6845,-2.0336 -10.1148,-4.4567 z m -225.18726,-14.5229 c 7.18333,-1.1167 17.3356,-2.676 22.5606,-3.4649 28.84913,-4.3561 31,-4.7909 31,-6.2663 0,-1.7518 -3.7181,-1.4107 -26.33478,2.4157 -8.15913,1.3804 -14.97953,2.3604 -15.15646,2.1779 -0.17692,-0.1826 -0.63152,-2.4138 -1.01023,-4.9583 l -0.68855,-4.6264 6.34501,-1.1194 c 3.48976,-0.6156 10.05751,-1.6394 14.59501,-2.2751 5.6832,-0.7962 8.25,-1.5753 8.25,-2.5042 0,-1.7872 -1.70283,-1.7148 -16.59134,0.7051 -6.94914,1.1295 -12.76721,1.917 -12.92904,1.75 -0.16183,-0.167 -0.44845,-1.8418 -0.63693,-3.7217 l -0.34269,-3.4182 7.48437,-1.276 c 4.11641,-0.7018 11.38314,-1.8088 16.14828,-2.46 9.25198,-1.2643 12.00353,-2.2569 10.35899,-3.7368 -0.58453,-0.526 -4.27597,-0.378 -8.99164,0.3605 -4.4,0.6891 -12.5,1.9685 -18,2.8432 -5.5,0.8746 -15.81475,2.4959 -22.92166,3.6028 -15.50702,2.4153 -13.93529,0.8404 -12.08661,12.1104 0.84737,5.1657 1.77877,10.8547 2.06978,12.6422 0.63268,3.8861 0.0134,3.8414 16.87789,1.2195 z m 166.61656,-2.8137 c 4.1833,-3.3875 0.3451,-7.1775 -10.375,-10.2448 l -6.181,-1.7685 6.0589,-0.071 c 15.243,-0.1793 11.7562,-7.9634 -5.1967,-11.6013 -10.29871,-2.21 -60.72448,-8.5165 -61.48359,-7.6894 -0.75865,0.8265 -3.84095,24.5095 -3.27047,25.1287 0.29408,0.3192 32.48181,4.8189 52.76747,7.3767 10.26439,1.2942 25.45219,0.6741 27.68039,-1.1302 z m -48.27878,-3.8827 -3.72282,-0.3906 0.6137,-4.6912 c 0.79287,-6.061 0.17441,-5.7672 9.33209,-4.4325 23.89351,3.4825 18.26753,12.0842 -6.22297,9.5143 z m 0.35853,-12.9938 c -2.13264,-0.4044 -2.6631,-7.0853 -0.71708,-9.0313 0.71619,-0.7162 14.01259,1.9236 16.70693,3.3169 8.30234,4.2933 -2.71697,8.2314 -15.98985,5.7144 z M 115.21504,566.5191 c -5.1281,-11.57187 -9.816,-21.44503 -10.4175,-21.94034 -0.6016,-0.49531 -14.818701,-6.37947 -31.593701,-13.07592 -36.9001,-14.73019 -34.9731,-13.16272 -43.9421,-35.74441 l -3.271,-8.23539 31.4239,-78.55861 31.4239,-78.55861 9.7654,21.9649 9.765401,21.9649 9.6494,3.8842 9.6494,3.8842 5.4705,12.44493 c 3.0088,6.84468 5.5443,12.5724 5.6345,12.72826 0.3633,0.62744 18.4434,-7.24027 18.1966,-7.91838 -0.1463,-0.40189 -11.5159,-9.19842 -25.2659,-19.54791 -28.6426,-21.5588 -26.5041,-18.6832 -29.1777,-39.2346 l -1.6482,-12.6704 16.2864,-21.706 c 8.9575,-11.9384 16.7042,-21.7061 17.2147,-21.7061 0.5105,0 13.3493,9.2657 28.5305,20.5905 25.7777,19.2294 30.2943,22.3801 30.2943,21.1332 0,-0.2696 -13.0456,-10.267 -28.9902,-22.2164 l -28.9902,-21.7261 2.22,-3.1406 c 24.0539,-34.0274 64.6717,-86.3043 65.1761,-83.8844 0.3146,1.5091 1.9229,11.2938 3.5741,21.7438 1.6512,10.45 3.2246,19.9609 3.4964,21.1353 0.4636,2.0027 26.0626,22.1492 26.9791,21.2327 0.2186,-0.2186 -5.1946,-7.5043 -12.0293,-16.1904 -6.8348,-8.686 -12.7334,-17.0044 -13.108,-18.4852 -1.3246,-5.2353 2.6344,-31.3736 5.0405,-33.2785 87.5728,-69.3311 130.1852,-102.533696 130.39,-101.596896 0.1421,0.6507 -0.817,11.307096 -2.1315,23.680996 l -2.39,22.4981 20.0604,25.5019 c 27.16576,34.5348 25.26114,29.6292 21.54884,55.502 l -1.14786,8 -55.77828,43.9889 c -34.2985,27.0491 -55.9303,44.7634 -56.173,46 -0.2171,1.1061 -19.149,27.1115 -42.0709,57.7898 -25.9227,34.69446 -41.6762,56.62613 -41.6762,58.02064 0,2.18733 -18.4505,49.45227 -19.8932,50.96067 -0.3998,0.41801 -5.1618,-1.04449 -10.5822,-3.25 -5.4205,-2.2055 -10.2575,-4.01001 -10.749,-4.01001 -2.592,0 1.2199,2.0901 10.1808,5.58231 5.524,2.15276 10.0436,4.25046 10.0436,4.66156 0,1.20293 -40.0855,101.1774 -40.9131,102.03866 -0.4136,0.43039 -4.9477,-8.68537 -10.0757,-20.25725 z m 21.4265,-44.04747 c 7.2404,-18.19702 11.5687,-30.34071 11,-30.86221 -0.5158,-0.4729 -9.3752,-4.13726 -19.6877,-8.14303 -10.3125,-4.00576 -18.75,-7.59912 -18.75,-7.98524 0,-0.38612 8.199,-4.17345 18.2201,-8.4163 l 18.2201,-7.71426 6.8361,2.68205 c 3.7599,1.47512 6.9926,2.51985 7.1838,2.32161 0.1913,-0.19824 3.2791,-7.67986 6.8618,-16.62582 l 6.5141,-16.2654 -4.0315,-9.97351 c -2.2173,-5.48543 -4.3179,-9.81023 -4.668,-9.61067 -4.3539,2.48179 -32.6204,13.67676 -32.8546,13.01211 -0.1739,-0.49343 -2.4847,-5.39714 -5.1351,-10.89714 l -4.8191,-10 -2.6555,5.20028 c -6.7889,13.29455 -14.7332,32.64399 -13.672,33.29987 1.416,0.87511 -8.348301,25.84888 -10.947401,27.99985 -1.659,1.37298 -9.5447,23.801 -13.5366,38.5 -0.8962,3.3 -1.8439,6.73901 -2.106,7.64224 -0.4741,1.63362 6.9389,5.18012 28.089801,13.43856 9.1391,3.56842 8.6534,3.07167 13.1264,13.42389 2.1304,4.93072 4.0986,8.96731 4.3736,8.97022 0.275,0.003 5.8719,-13.49579 12.4377,-29.9971 z m 81.1986,-157.64361 c 20.825,-27.8662 38.2467,-51.3077 38.7149,-52.0921 1.0879,-1.8229 -1.1797,-20.6877 -2.7083,-22.5306 -0.9659,-1.1645 -24.0618,-18.3388 -34.2869,-25.496 l -3.1439,-2.2006 -9.8298,11.65 c -11.122,13.1814 -21.3823,26.2681 -21.3823,27.2724 0,0.3702 5.2426,4.6982 11.6502,9.6179 6.4076,4.9196 12.5255,9.6361 13.5952,10.4811 1.8769,1.4825 1.6605,1.9203 -6.1766,12.5 -10.0372,13.5496 -7.6273,13.3418 -23.175,1.9991 -7.2445,-5.2852 -13.6132,-9.4623 -14.1526,-9.2825 -1.0299,0.3433 -16.0152,23.4223 -22.7462,35.0317 l -3.9336,6.7845 8.2193,6.3906 c 4.5206,3.5147 12.4894,9.6953 17.7085,13.73453 l 9.4893,7.34404 1.4111,9.73087 c 0.7761,5.35197 1.7423,9.73086 2.1471,9.73086 0.4048,0 17.7747,-22.79962 38.5996,-50.6658 z m 103.3637,-108.559 48.49997,-38.3359 1.14206,-6.4696 c 2.5853,-14.6455 2.89931,-13.7692 -11.39203,-31.7909 -7.0125,-8.8428 -13.0569,-16.1006 -13.432,-16.1284 -0.3751,-0.028 -14.7273,11.0158 -31.8938,24.5412 l -31.2119,24.5916 -3.6062,-4.1362 -3.6061,-4.1362 -6.5,5.6959 c -3.575,3.1328 -11.8326,10.7994 -18.3502,17.0369 l -11.8502,11.341 5.8502,7.9747 c 3.2176,4.3861 6.2034,7.9896 6.6352,8.0077 0.4317,0.018 14.7746,-11.0266 31.873,-24.544 17.0984,-13.5173 31.3927,-24.2048 31.765,-23.75 3.7624,4.5959 8.077,10.2453 8.077,10.5758 0,0.2267 -5.0181,4.4035 -11.1513,9.2818 l -11.1513,8.8696 -2.7144,-3.2515 -2.7145,-3.2514 -19.8843,15.7024 c -10.9363,8.6363 -19.97,15.7577 -20.0748,15.8253 -0.1049,0.068 2.9552,4.1503 6.8001,9.0727 6.3067,8.0742 6.9399,9.2948 6.4715,12.4761 -0.2855,1.9394 -0.8183,6.6373 -1.1841,10.4397 l -0.665,6.9135 2.884,-2.108 c 1.5863,-1.1594 24.7091,-19.3591 51.3841,-40.4438 z m 0.5,-82.8507 c 10.45,-8.2784 19.15,-15.473 19.3333,-15.988 1.0818,-3.0393 -6.3911,1.3244 -22.5401,13.162 -19.7377,14.4681 -19.2776,14.0621 -18.2049,16.0665 1.4373,2.6857 0.8452,3.0519 21.4117,-13.2405 z m 904.49986,386.20832 c -2.475,-0.9755 -8.8177,-3.67284 -14.0949,-5.9941 l -9.595,-4.22046 -26.2026,-65.89497 c -14.5631,-36.62357 -26.8001,-66.03453 -27.5475,-66.20913 -0.7397,-0.17279 -8.7685,-10.27096 -17.8418,-22.44038 l -16.4969,-22.12618 8.2648,-6.1213 c 8.0255,-5.944 11.523,-9.1263 10.0302,-9.1263 -0.4006,0 -2.3682,1.2751 -4.3724,2.8336 -2.0041,1.5585 -6.2018,4.7008 -9.3281,6.9829 l -5.6842,4.1494 -25.1146,-33.733 c -13.8131,-18.5531 -25.9633,-33.9579 -27.0006,-34.2329 -1.0374,-0.275 -26.642,-20.0396 -56.8992,-43.9213 -33.52483,-26.4609 -55.91223,-43.4715 -57.31513,-43.5498 -1.2661,-0.071 -30.7073,-12.3886 -65.425,-27.3731 l -63.123,-27.2445 -3.377,1.605 c -3.2872,1.5625 -4.3336,1.3928 -39.377,-6.3854 l -35.99996,-7.9906 -22.32899,-0.7166 -22.32899,-0.7166 0.70748,-11.8535 c 0.51051,-8.5535 0.3933,-11.8536 -0.42101,-11.8536 -0.7759,0 -1.12849,3.786 -1.12849,12.1175 v 12.1175 l -7.25,-0.5894 c -3.9875,-0.3242 -29.34972,-1.1323 -56.36048,-1.7957 l -49.11049,-1.2063 17.344,-17.0718 17.34401,-17.0718 1.06451,-34.392496 c 1.24428,-40.2006 0.1467,-36.3717 14.18525,-49.4859 9.39458,-8.7761 10.62886,-9.6097 14.2832,-9.6468 2.2,-0.022 40.34886,0.9683 84.77525,2.2013 l 80.77521,2.242 -11.2589,11.2909 c -6.1924,6.2101 -10.9756,11.291 -10.6294,11.291 0.3462,0 4.9651,-2.7249 10.2641,-6.0554 l 9.6346,-6.0555 29.7196,6.6593 c 16.3457,3.6627 31.2945,6.8348 33.2195,7.0492 6.5965,0.7347 24.0781,5.7361 22.8033,6.524 -1.869,1.1551 -3.6591,0.3131 49.7424,23.3947 56.33633,24.35 52.9503,22.2036 59.07013,37.445196 6.5932,16.4203 6.689,14.8652 -2.1577,35.0385 -12.05943,27.4995 -12.16373,27.292 3.5418,7.0426 14.7849,-19.0623 14.4893,-18.8903 36.177,-21.0383 l 10.6769,-1.0575 66.0823,52.184 c 36.3452,28.7013 65.919,52.3473 65.7195,52.5469 -0.3612,0.3611 -43.0759,6.3134 -45.3484,6.3192 -1.182,0 -21.2875,24.7976 -21.3005,26.2683 -0.01,0.6588 13.3417,-8.8784 27.8552,-19.9031 6.2703,-4.7631 20.0972,-4.9565 36.6593,-0.5127 1.9701,0.5286 104.019,134.91753 103.1368,135.82165 -0.092,0.0941 -10.8107,-1.22931 -23.8199,-2.94085 l -23.653,-3.112 -7.6132,5.73021 c -9.6788,7.2849 -7.9308,6.92383 -23.072,4.7658 -7.15,-1.01908 -13.0958,-1.7784 -13.2128,-1.6874 -0.5358,0.41659 -3.1959,18.9978 -2.7794,19.41431 0.2588,0.25881 13.266,-4.61197 28.905,-10.82394 33.3194,-13.23485 31.0553,-13.0088 49.405,-4.9328 l 12.2113,5.37441 30.6249,77.02061 c 16.8438,42.36133 30.9974,77.75091 31.4527,78.64351 0.5415,1.06185 -6.9296,-1.58536 -21.6111,-7.65734 l -22.4387,-9.28024 -32.2784,12.89826 c -34.7037,13.86738 -34.0665,13.69471 -40.7785,11.04923 z m 24.2478,-19.20618 c 9.4348,-3.89034 18.1766,-7.60906 19.4262,-8.26381 l 2.2721,-1.19046 -14.4731,-36.26498 c -16.3236,-40.90205 -15.4674,-37.96479 -11.473,-39.35723 1.65,-0.5752 3,-1.15237 3,-1.28261 0,-2.51954 -19.0918,-44.66554 -20.4733,-45.19566 -1.8731,-0.7188 -17.7089,5.71565 -17.2032,6.99009 0.2483,0.62591 6.8221,17.05317 14.6083,36.50503 16.0268,40.03847 15.367,36.58422 7.5916,39.7476 -7.1102,2.89273 -6.2383,3.71122 -12.3716,-11.61461 l -5.0024,-12.5 3.8369,-1.74931 3.837,-1.74931 -9.062,-22.75069 c -4.9841,-12.51288 -9.391,-23.12481 -9.793,-23.58207 -0.4021,-0.45726 -5.2277,0.93381 -10.7236,3.09126 l -9.9925,3.92263 -9.3761,-3.7414 c -5.1569,-2.05776 -9.5428,-3.58211 -9.7466,-3.38743 -0.2038,0.19468 10.5023,27.53142 23.7913,60.74831 l 24.1617,60.39435 9.2088,4.08484 c 5.0648,2.24666 9.5673,4.11499 10.0055,4.15183 0.4383,0.0368 8.5162,-3.11602 17.951,-7.00637 z m -73.9239,-135.17664 c 0.2974,-1.2375 1.5109,-9 2.6966,-17.25 1.1858,-8.25 2.2976,-15.1438 2.4706,-15.3196 0.1731,-0.1757 6.4297,0.4205 13.9036,1.3249 7.4739,0.9045 14.2311,1.4983 15.016,1.3196 1.5988,-0.364 -1.134,-5.4224 -14.6201,-27.061 l -7.9376,-12.7361 -3.6586,2.4861 c -4.8543,3.2985 -3.8317,3.9746 -13.5423,-8.9535 l -8.5925,-11.4396 3.9702,-3.1444 c 2.1836,-1.7295 3.9702,-3.4982 3.9702,-3.9305 0,-1.0011 -15.5718,-21.3681 -23.9897,-31.3773 l -6.4182,-7.6314 -2.546,1.6455 c -1.4004,0.9051 -10.8252,7.7216 -20.9442,15.1478 l -18.3981,13.5023 -10.0105,-1.1745 c -5.5057,-0.6459 -10.155,-1.0299 -10.3317,-0.8532 -0.1767,0.1767 8.4456,12.1111 19.1606,26.5208 l 19.4819,26.1996 17.2325,-12.9449 c 9.4779,-7.1196 17.3907,-12.7866 17.5841,-12.5932 0.3434,0.3434 -4.4873,34.0498 -5.4479,38.0126 -0.2666,1.1 -2.9346,3.7662 -5.9288,5.9248 -2.9942,2.1587 -5.444,4.3121 -5.444,4.7854 0,3.1002 21.2127,28.73847 24.2412,29.29854 15.9532,2.95031 17.4269,2.96997 18.0827,0.24126 z m -97.4712,-117.3524 6.3527,-0.6792 6.6473,-8.485 c 3.656,-4.6668 6.6473,-8.843 6.6473,-9.2805 0,-0.4375 -8.775,-7.7846 -19.5,-16.327 l -19.5,-15.5315 -2.7749,2.9964 c -3.2383,3.4969 -2.2624,3.9065 -15.3842,-6.4561 l -10.1591,-8.0229 4.5139,-5.8661 c 4.0384,-5.2483 4.6871,-5.7155 6.1591,-4.4366 9.3547,8.128 41.5848,32.6216 42.1079,32.0003 3.8322,-4.5517 7.1407,-9.4884 6.8708,-10.2523 -0.1834,-0.5193 -9.5585,-8.221 -20.8335,-17.1148 -11.275,-8.8939 -20.6756,-16.3323 -20.8902,-16.53 -0.2145,-0.1976 1.473,-2.8269 3.75,-5.8429 4.6105,-6.1065 4.7085,-6.3882 2.7707,-7.9592 -2.3367,-1.8944 -27.8509,-20.9963 -33.2473,-24.8916 l -5.1169,-3.6935 -17.55023,21.8464 c -19.4756,24.2428 -16.6037,22.0816 -31.5048,23.7088 -3.4588,0.3778 -6.1588,1.043 -6,1.4784 0.1589,0.4353 23.0138,18.8188 50.78873,40.8521 l 50.5,40.0606 4.5,-0.4473 c 2.475,-0.246 7.3587,-0.7529 10.8527,-1.1265 z m 36.4624,-43.6339 c -0.9983,-1.1208 -9.2032,-9.021 -18.2331,-17.5561 l -16.418,-15.5183 -2.3833,2.7707 c -1.3108,1.5239 -2.2477,2.8793 -2.082,3.012 29.2378,23.4125 46.2076,35.2524 39.1164,27.2917 z m -157.81503,-46.5521 9,-3.7182 8.7644,-20.4772 c 4.8204,-11.2624 9.6242,-22.7751 10.675,-25.5837 l 1.9107,-5.1067 -9.175,-5.3591 c -34.6836,-20.2584 -105.9723,-52.002696 -109.3033,-48.671796 -0.3384,0.3384 -5.8517,12.386096 -12.2517,26.772696 l -11.6365,26.1575 -8.4918,3.4857 c -4.6705,1.9171 -8.8577,3.8299 -9.305,4.2506 -0.4472,0.4208 7.2028,4.2358 17,8.4779 9.7973,4.242 36.2632,15.7321 58.8132,25.5333 46.6508,20.2766 42.2162,19.1073 54,14.239 z m -45.2203,-42.5821 c -6.7212,-2.8803 -12.5177,-5.5342 -12.8811,-5.8976 -0.3635,-0.3635 3.084,-9.623 7.661,-20.5768 l 8.3218,-19.916 8.0593,3.4709 c 4.4327,1.909 10.4212,4.4427 13.308,5.6305 2.8867,1.1877 5.2492,2.603 5.25,3.1451 0,1.1407 -15.9229,37.6738 -16.868,38.6976 -0.3469,0.3758 -6.1298,-1.6734 -12.851,-4.5537 z m 9.0822,-20.5157 c 2.1729,-5.1412 2.9198,-9.1216 1.3192,-7.0305 -0.8371,1.0937 -5.6811,13.1864 -5.6811,14.1826 0,2.0236 1.5758,-0.5601 4.3619,-7.1521 z m -99.3619,8.0821 c 3.025,-1.8908 5.6287,-3.5496 5.786,-3.6862 0.3538,-0.3072 9.7231,-43.294196 11.5821,-53.139196 l 1.3569,-7.1865 -11.6125,-3.0141 c -20.0443,-5.2025 -34.9526,-8.4452 -36.3539,-7.9075 -1.2205,0.4683 -3.4914,9.4002 -12.8096,50.380696 l -2.0789,9.1432 -8.5312,5.6774 c -4.6921,3.1225 -8.3321,5.8764 -8.0888,6.1197 0.2434,0.2434 11.1991,2.8546 24.3462,5.8028 l 23.9037,5.3603 3.5,-2.0564 c 1.925,-1.131 5.975,-3.6034 9,-5.4942 z m -68.7687,-14.9199 c 3.9978,-3.6982 7.4439,-6.8359 7.6581,-6.9727 0.2141,-0.1367 -5.1512,-6.1392 -11.9228,-13.3389 l -12.31216,-13.090196 12.67276,-12.701 c 11.4759,-11.5014 12.6728,-13.037 12.6728,-16.2588 v -3.5578 l -13.75,-1.6763 c -46.23725,-5.6368 -114.28974,-6.4091 -116.17729,-1.3185 -0.43606,1.176 -1.24567,14.6753 -1.79913,29.9985 l -1.00629,27.860196 -7.38363,6.779 c -4.06099,3.7285 -7.15862,7.0085 -6.88362,7.289 0.59991,0.6118 64.28236,2.519 65,1.9466 0.275,-0.2193 0.65147,-10.0597 0.83659,-21.8675 0.30274,-19.309596 0.4934,-21.338596 1.8958,-20.174696 0.85757,0.7117 7.33013,7.4474 14.38348,14.968196 l 12.82426,13.6742 -0.62364,6.6784 c -0.81057,8.6803 -1.33247,8.4525 19.41477,8.471 l 17.2313,0.015 7.2687,-6.724 z m -57.48126,-52.023596 -13.75,-0.3088 -10e-4,-7.7218 -10e-4,-7.7218 14.25142,0.32 c 7.83828,0.1759 14.54676,0.6259 14.90774,1 0.81312,0.8425 -0.19004,15.2637 -1.04069,14.9607 -0.3386,-0.1207 -6.80313,-0.3584 -14.36563,-0.5283 z m 75.98566,17.0664 c 1.7797,-8.0744 3.0031,-14.9134 2.7187,-15.1978 -0.2843,-0.2843 -4.522,3.4695 -9.4169,8.3417 l -8.9,8.8587 5.6813,6.306696 c 3.1247,3.4686 5.9062,6.3212 6.1812,6.3391 0.275,0.018 1.9561,-6.5739 3.7357,-14.648396 z m 86.7778,-17.1387 c -1.2041,-1.204 -3.3458,2.5393 -3.9021,6.8199 l -0.5847,4.5 2.5239,-5.3794 c 1.3882,-2.9587 2.2714,-5.6319 1.9629,-5.9405 z m -79.1371,-17.0887 c 1.8302,-8.2687 1.7326,-8.9742 -0.8475,-6.1233 -1.2661,1.399 -1.9167,4.1164 -2.2163,9.2561 -0.5103,8.7561 0.708,7.5103 3.0638,-3.1328 z M 395.20381,216.97652 c 0,-0.1776 3.80547,-10.27 8.45659,-22.4275 l 8.45659,-22.1047 -7.11551,-16.7252 c -3.91352,-9.1989 -7.41,-17.0688 -7.76993,-17.4886 -0.35994,-0.4199 -8.86587,2.7997 -18.90207,7.1547 -17.75734,7.7053 -18.27034,7.8601 -19.09184,5.7633 -0.4643,-1.1851 -3.1368,-7.4821 -5.939,-13.9934 -6.6552,-15.4645 -6.6253,-15.9409 2.3112,-36.743 l 3.6825,-8.571896 77.08265,-33.213 c 42.39545,-18.2671 77.23681,-33.0587 77.42524,-32.8703 0.18844,0.1884 -3.41661,10.1881 -8.01122,22.2214 l -8.35383,21.8788 3.47917,8.0684 c 1.91355,4.4376 3.86011,9.0407 4.32568,10.2292 0.79058,2.0181 -0.19026,2.6044 -14.84485,8.8735 -8.63026,3.691896 -16.89356,7.325296 -18.3629,8.074196 l -2.67153,1.3616 8.92153,20.712 c 6.71547,15.5904 8.92153,21.7943 8.92153,25.0892 0,5.8297 -9.3383,28.8017 -12.37116,30.4328 -3.35656,1.8052 -79.62884,34.6388 -79.62884,34.2785 z m 47.47357,-34.9826 c 26.00704,-11.3222 23.32514,-9.3179 27.88566,-20.8404 l 3.71759,-9.3927 -11.60621,-26.1193 C 456.291,111.27592 451.3342,99.091924 451.65929,98.565824 c 0.75322,-1.2187 -14.97906,5.129696 -32.67177,13.183896 -7.72425,3.5163 -13.73101,6.8396 -13.75,7.6072 -0.0298,1.205 8.14191,21.2125 18.2392,44.6565 l 3.45403,8.0197 -3.78613,9.7303 c -2.08238,5.3517 -3.44916,9.7304 -3.0373,9.7304 0.41186,0 10.56839,-4.275 22.57006,-9.4999 z"/>
</svg>
