<svg width="781" height="780" viewBox="0 0 781 780" version="1.1" xmlns="http://www.w3.org/2000/svg" xmlns:xlink="http://www.w3.org/1999/xlink" xml:space="preserve" xmlns:serif="http://www.serif.com/" style="fill-rule:evenodd;clip-rule:evenodd;stroke-linejoin:round;stroke-miterlimit:2;"><rect x="0" y="0" width="781" height="780" style="fill:none;"/><path d="M406.469,758.07c0.368,-1.856 0.669,-3.769 0.669,-4.25c-0,-0.481 0.876,-0.875 1.948,-0.875c1.721,-0 1.829,0.342 0.922,2.942c-0.564,1.618 -1.741,3.53 -2.616,4.25c-1.416,1.164 -1.518,0.937 -0.923,-2.067Zm-39.408,-4.048c-2.293,-2.293 -2.923,-3.819 -2.923,-7.077c-0,-3.258 0.63,-4.785 2.923,-7.077c6.913,-6.913 17.365,-0.309 15.473,9.776c-1.36,7.253 -10.12,9.731 -15.473,4.378Zm10.52,-2.3c3.181,-4.541 0.767,-11.777 -3.928,-11.777c-3.473,-0 -5.515,2.592 -5.515,7c-0,2.173 0.686,4.543 1.571,5.428c2.256,2.256 6.056,1.941 7.872,-0.651Zm10.805,2.973c-6.368,-6.822 -1.886,-17.75 7.279,-17.75c4.012,-0 8.473,4.995 8.473,9.489c-0,6.857 -3.265,10.43 -9.576,10.479c-2.965,0.023 -4.648,-0.581 -6.176,-2.218Zm10.532,-2c0.999,-1.217 1.555,-4.531 1.33,-7.929c-0.306,-4.64 -6.872,-6.427 -9.554,-2.599c-3.356,4.793 -0.76,11.778 4.378,11.778c1.552,-0 3.282,-0.563 3.846,-1.25Zm-50.53,2.544c-1.238,-0.238 -2.25,-0.872 -2.25,-1.408c-0,-0.536 2.288,-3.992 5.084,-7.68l5.084,-6.706l-4.584,-0.305c-3.19,-0.212 -4.584,-0.744 -4.584,-1.75c-0,-1.111 1.491,-1.445 6.441,-1.445c3.542,-0 6.732,0.471 7.088,1.047c0.356,0.576 -1.642,4.186 -4.441,8.022c-2.798,3.835 -5.088,7.189 -5.088,7.452c-0,0.263 2.25,0.479 5,0.479c3.778,-0 5,0.367 5,1.5c-0,1.16 -1.19,1.469 -5.25,1.364c-2.888,-0.075 -6.263,-0.332 -7.5,-0.57Zm73.107,-5.441c0.354,-3.38 0.643,-7.685 0.643,-9.566c-0,-3.119 0.235,-3.392 2.673,-3.104c2.278,0.27 2.954,1.165 4.583,6.067c1.051,3.162 2.216,5.75 2.59,5.75c0.373,-0 1.523,-2.949 2.555,-6.553c1.743,-6.084 2.064,-6.531 4.488,-6.25c2.58,0.299 2.614,0.41 2.898,9.553c0.242,7.78 0.044,9.25 -1.25,9.25c-1.225,-0 -1.537,-1.319 -1.537,-6.5c-0,-3.575 -0.338,-6.496 -0.75,-6.492c-0.413,0.006 -1.875,3.009 -3.25,6.675c-1.375,3.666 -3.031,6.839 -3.68,7.051c-0.7,0.229 -1.894,-1.976 -2.937,-5.424c-2.113,-6.99 -3.379,-8.766 -3.394,-4.76c-0.023,5.916 -1.221,10.45 -2.763,10.45c-1.254,-0 -1.402,-1.045 -0.869,-6.147Zm-82.207,2.147c-0.889,-2.55 -1.563,-3 -4.49,-3c-2.839,-0 -3.554,0.439 -4.071,2.5c-0.393,1.565 -1.335,2.5 -2.519,2.5c-1.769,-0 -1.688,-0.622 1.251,-9.544c2.905,-8.82 3.329,-9.522 5.578,-9.25c2.124,0.256 2.85,1.537 5.696,10.044c2.988,8.929 3.109,9.75 1.432,9.75c-1.136,-0 -2.229,-1.14 -2.877,-3Zm-2.613,-8.75c-1.072,-4.341 -2.099,-4.584 -3.268,-0.775c-1.039,3.385 -0.983,3.525 1.433,3.525c2.241,-0 2.441,-0.299 1.835,-2.75Zm110.463,1.75c-0,-9.125 0.176,-10.113 1.75,-9.81c1.52,0.293 1.75,1.583 1.75,9.81c-0,8.226 -0.23,9.517 -1.75,9.81c-1.574,0.303 -1.75,-0.685 -1.75,-9.81Zm12.27,8.293c-3.047,-0.583 -6.27,-4.941 -6.27,-8.478c-0,-4.444 2.745,-8.811 6.534,-10.394c4.507,-1.883 8.466,-1.846 8.466,0.079c-0,0.984 -0.985,1.5 -2.865,1.5c-4.309,-0 -8.135,3.472 -8.135,7.381c-0,5.014 2.068,7.081 6.895,6.889c2.991,-0.12 4.105,0.229 4.105,1.283c-0,0.796 -0.863,1.447 -1.918,1.447c-1.055,-0 -2.518,0.162 -3.25,0.36c-0.733,0.197 -2.336,0.167 -3.562,-0.067l-0,-0Zm-139.27,-7.352c-0,-3.883 -0.385,-6.821 -0.855,-6.531c-0.47,0.291 -1.844,3.242 -3.054,6.559c-1.264,3.467 -2.796,6.031 -3.603,6.031c-0.866,-0 -2.277,-2.776 -3.684,-7.25l-2.28,-7.25l-0.276,4.5c-0.417,6.808 -1.124,9 -2.903,9c-1.348,-0 -1.511,-0.771 -0.981,-4.64c0.35,-2.551 0.636,-6.856 0.636,-9.566c-0,-4.785 0.079,-4.918 2.749,-4.611c2.466,0.284 2.949,1.014 4.685,7.067c1.065,3.712 2.217,6.75 2.562,6.75c0.344,-0 1.191,-2.205 1.882,-4.9c1.761,-6.871 3.213,-8.657 5.88,-7.23c1.853,0.992 2.138,2.184 2.421,10.129c0.286,8.033 0.132,9.005 -1.429,9.003c-1.501,-0.002 -1.75,-1.006 -1.75,-7.061l-0,-0Zm152,-3.441c-0,-7.778 0.272,-9.5 1.5,-9.5c1.052,-0 1.5,1.062 1.5,3.557l-0,3.558l4.25,-0.308c4.141,-0.299 4.263,-0.409 4.75,-4.297c0.35,-2.792 1.037,-4.093 2.287,-4.331c1.633,-0.311 1.762,0.505 1.5,9.479c-0.246,8.421 -0.536,9.866 -2.037,10.154c-1.439,0.275 -1.75,-0.401 -1.75,-3.796l-0,-4.131l-4.25,0.307c-4.23,0.306 -4.252,0.329 -4.558,4.558c-0.209,2.894 -0.768,4.25 -1.75,4.25c-1.155,-0 -1.442,-1.891 -1.442,-9.5Zm-177.251,5.75c-1.48,-3.369 -2.584,-4.215 -5.524,-4.235c-1.514,-0.011 -2.592,0.821 -3.225,2.485c-0.864,2.271 -4,3.607 -4,1.705c-0,-0.438 1.278,-4.6 2.841,-9.25c2.513,-7.481 3.118,-8.455 5.25,-8.455c2.154,-0 2.745,1.006 5.579,9.5c3.776,11.316 3.724,11 1.808,11c-0.836,-0 -2.065,-1.238 -2.729,-2.75Zm-2.934,-10c-1.341,-4.91 -1.563,-5.045 -2.828,-1.716c-1.329,3.495 -0.644,5.466 1.901,5.466c1.769,-0 1.855,-0.348 0.927,-3.75Zm199.398,2.08c0.232,-7.944 0.575,-9.83 1.787,-9.83c1.228,-0 1.5,1.721 1.5,9.486c-0,8.315 -0.221,9.529 -1.787,9.831c-1.634,0.314 -1.763,-0.501 -1.5,-9.487Zm-219.963,6.946l-3.25,-0.403l-0,-9.936c-0,-8.166 0.267,-9.937 1.5,-9.937c1.214,-0 1.5,1.599 1.5,8.393c-0,8.979 0.365,9.607 5.582,9.607c1.482,-0 2.418,0.58 2.418,1.5c-0,1.509 -1.02,1.612 -7.75,0.776Zm229.204,-1.731c-6.837,-6.837 0.586,-18.504 11.796,-18.54c3.655,-0.011 1.703,2.738 -2.328,3.278c-4.604,0.618 -7.463,2.752 -8.334,6.221c-1.358,5.412 3.087,9.686 8.34,8.019c2.715,-0.862 2.736,-4.537 0.031,-5.244c-2.987,-0.781 -1.81,-2.729 1.868,-3.092l3.173,-0.314l-0,5.017c-0,4.944 -0.054,5.031 -3.75,6.057c-5.725,1.59 -8.114,1.28 -10.796,-1.402l0,0Zm-241.019,-3.045c-1.251,-2.996 -1.937,-3.5 -4.756,-3.5c-2.591,-0 -3.494,0.531 -4.236,2.492c-0.669,1.767 -1.337,2.241 -2.297,1.627c-1.104,-0.706 -0.833,-2.462 1.471,-9.537c2.6,-7.982 3.019,-8.649 5.269,-8.377c2.414,0.291 3.481,2.621 8.638,18.871c1.127,3.551 -2.536,2.139 -4.089,-1.576Zm-3.013,-10.064c-0.651,-3.47 -0.814,-3.621 -2.065,-1.911c-1.881,2.573 -1.697,5.253 0.393,5.717c2.423,0.54 2.468,0.438 1.672,-3.806Zm263.275,4.86c1.348,-4.788 2.883,-9.513 3.412,-10.5c1.453,-2.714 4.493,-2.205 5.694,0.954c3.686,9.688 5.151,14.515 4.651,15.324c-1.099,1.779 -3.242,0.906 -3.865,-1.574c-0.497,-1.979 -1.259,-2.5 -3.659,-2.5c-2.52,-0 -3.279,0.591 -4.495,3.5c-0.804,1.925 -2.076,3.5 -2.826,3.5c-1.068,-0 -0.833,-1.885 1.088,-8.704Zm7.065,-1.128c0.998,-0.633 1.012,-1.517 0.069,-4.223l-1.193,-3.421l-1.274,2.988c-2.161,5.067 -1.197,6.938 2.398,4.656l-0,0Zm-287.296,1.765c-2.917,-5.756 -4.823,-5.975 -5.277,-0.606c-0.201,2.386 -0.814,3.673 -1.75,3.673c-1.156,-0 -1.439,-1.964 -1.439,-10c-0,-8.222 0.266,-10 1.5,-10c1.083,-0 1.5,1.111 1.5,4c-0,2.2 0.366,4 0.813,4c0.447,-0 2.106,-1.35 3.687,-3c2.589,-2.702 6.5,-4.085 6.5,-2.298c-0,0.387 -1.407,2.154 -3.126,3.928l-3.127,3.225l2.316,3.823c1.273,2.102 2.957,4.834 3.741,6.072c1.313,2.071 1.259,2.25 -0.672,2.25c-1.517,-0 -2.81,-1.404 -4.666,-5.067Zm298.534,-4.85c-0,-9.453 0.126,-10.083 2.022,-10.083c1.379,-0 3.286,1.956 6,6.155l3.978,6.155l-0,-7.155c-0,-5.768 0.298,-7.155 1.536,-7.155c1.296,-0 1.491,1.522 1.25,9.738c-0.359,12.199 -1.612,12.894 -7.286,4.041l-4,-6.241l-0.5,6.903c-0.308,4.251 -0.98,7.06 -1.75,7.314c-0.945,0.311 -1.25,-2.052 -1.25,-9.672Zm-177.5,-12.761c-60.793,-2.485 -131.367,-13.03 -187.25,-27.978c-16.32,-4.366 -17.25,-4.745 -17.25,-7.038c-0,-1.333 0.407,-2.172 0.905,-1.865c0.497,0.308 11.41,3.22 24.25,6.471c48.215,12.211 93.143,19.571 148.345,24.302c23.29,1.996 108.746,1.667 133.258,-0.513c43.728,-3.89 85.021,-10.406 121.742,-19.211c12.988,-3.115 35.586,-9.383 39.838,-11.051c1.514,-0.594 1.778,-0.3 1.5,1.667c-0.298,2.106 -1.639,2.78 -11.338,5.699c-52.451,15.785 -112.836,25.85 -175,29.17c-17.025,0.909 -60.57,1.1 -79,0.347Zm7,-5.992c-64.354,-2.147 -125.693,-10.752 -185.5,-26.021c-11.825,-3.019 -22.513,-5.726 -23.75,-6.016l-2.25,-0.526l-0,-62.465l14.25,3.843c53.946,14.549 115.375,24.296 175.461,27.84c22.163,1.307 74.004,1.304 96.928,-0.006c58.692,-3.353 120.166,-13.126 167.228,-26.585c8.451,-2.417 15.545,-4.395 15.764,-4.395c0.219,0 0.279,13.819 0.133,30.708l-0.264,30.707l-7.366,2.306c-67.469,21.127 -167.758,33.376 -250.634,30.61l-0,0Zm60.563,-11.162c-2.937,-1.426 -5.043,-4.581 -14.5,-21.722c-13.372,-24.24 -12.171,-22.446 -15.038,-22.446c-2.037,-0 -3.576,2.34 -11.348,17.25c-12.625,24.223 -13.681,25.935 -16.854,27.339c-2.491,1.102 -1.648,1.246 7.177,1.226c8.508,-0.02 9.441,-0.17 6.25,-1.018c-4.413,-1.172 -4.753,-2.911 -1.73,-8.837l2.02,-3.96l21.875,-0l2.543,4.338c3.252,5.549 3.197,6.483 -0.475,8.027c-1.659,0.697 -2.823,1.463 -2.587,1.702c0.237,0.238 6.207,0.284 13.267,0.101c12.791,-0.33 12.824,-0.337 9.4,-2l0,0Zm-42.063,-15.725c-0,-1.434 8.287,-16.443 9.078,-16.443c0.776,-0 8.922,15.044 8.922,16.478c-0,0.287 -4.05,0.522 -9,0.522c-4.95,-0 -9,-0.251 -9,-0.557Zm-24.989,16.307c0.005,-0.688 0.29,-2.938 0.631,-5c0.491,-2.972 0.301,-3.75 -0.914,-3.75c-0.843,-0 -2.003,1.35 -2.578,3l-1.046,3l-9.47,-0c-5.209,-0 -10.182,-0.273 -11.052,-0.607c-1.289,-0.495 -1.582,-2.368 -1.582,-10.117l-0,-9.509l6.75,0.678c9.015,0.905 10.069,1.286 10.436,3.774c0.173,1.168 0.876,2.309 1.564,2.536c0.921,0.303 1.25,-1.452 1.25,-6.672c-0,-7.048 -1.37,-9.443 -2.599,-4.545c-0.625,2.49 -0.795,2.533 -8.769,2.25l-8.132,-0.288l-0.291,-8.872l-0.291,-8.871l8.791,0.699c12.161,0.968 13.122,1.275 13.483,4.311c0.169,1.418 0.827,2.749 1.461,2.957c1.388,0.455 2.951,-7.548 1.701,-8.71c-0.978,-0.909 -43.245,-3.456 -44.047,-2.655c-0.29,0.29 0.985,0.918 2.833,1.397l3.36,0.87l0.271,20.275c0.262,19.62 0.205,20.292 -1.75,20.804c-4.161,1.088 -1.794,2.299 4.729,2.419c3.712,0.068 9.9,0.448 13.75,0.843c12.307,1.263 21.499,1.17 21.511,-0.217Zm100.844,-1.285c6.153,-0.399 11.429,-1.117 11.725,-1.595c0.296,-0.479 -0.749,-0.87 -2.321,-0.87c-5.033,-0 -5.259,-0.907 -5.259,-21.075l-0,-18.675l3.125,-0.625c1.719,-0.344 5.508,-0.625 8.42,-0.625c5.071,-0 5.324,0.127 5.955,3c1.085,4.94 3.261,3.673 3.653,-2.126l0.347,-5.125l-7.5,0.637c-4.125,0.35 -16.253,1.322 -26.95,2.158c-10.697,0.837 -19.505,1.62 -19.574,1.739c-0.068,0.119 0.067,2.354 0.301,4.967c0.286,3.201 0.88,4.75 1.823,4.75c0.77,-0 1.4,-0.814 1.4,-1.809c-0,-3.895 2.232,-5.166 10.25,-5.836l7.75,-0.649l-0,19.025c-0,20.354 -0.032,20.486 -5.249,21.795c-1.506,0.378 -2.47,1.12 -2.143,1.649c0.327,0.529 1.149,0.748 1.827,0.488c0.678,-0.26 6.267,-0.799 12.42,-1.198Zm-152.855,-1.386c-0,-0.506 -1.354,-1.218 -3.009,-1.581c-1.654,-0.363 -3.454,-1.495 -4,-2.514c-1.061,-1.984 -1.399,-34.759 -0.384,-37.402c0.388,-1.013 1.828,-1.582 4,-1.582c1.866,-0 3.393,-0.382 3.393,-0.848c-0,-0.467 -5.574,-1.592 -12.387,-2.5c-14.541,-1.939 -14.92,-1.957 -14.113,-0.652c0.34,0.55 1.459,1 2.487,1c3.805,-0 5.013,2.676 5.013,11.106l-0,7.963l-4.75,-0.616c-2.613,-0.338 -8.8,-1.141 -13.75,-1.784l-9,-1.169l-0,-17l3.25,-0.313c1.787,-0.173 3.25,-0.735 3.25,-1.25c-0,-0.516 -0.338,-0.946 -0.75,-0.957c-0.413,-0.011 -5.7,-0.682 -11.75,-1.491c-6.05,-0.81 -11.589,-1.476 -12.309,-1.481c-2.315,-0.014 -0.33,1.714 2.653,2.311c2.257,0.451 3.023,1.269 3.52,3.754c1.045,5.224 0.727,33.888 -0.399,35.993c-0.689,1.286 -2.095,1.934 -4.2,1.934c-6.518,-0 -0.945,1.757 9.235,2.912c5.775,0.655 11.287,1.423 12.25,1.707c3.056,0.901 1.884,-1.199 -1.5,-2.689l-3.25,-1.43l-0.288,-9.25l-0.287,-9.25l2.787,0.032c1.533,0.017 7.513,0.678 13.288,1.468c5.775,0.79 10.837,1.451 11.25,1.468c0.892,0.038 1.017,16.171 0.143,18.45c-0.396,1.033 -1.843,1.582 -4.167,1.582c-6.705,-0 -2.075,1.5 9.599,3.11c6.421,0.885 12.237,1.673 12.925,1.75c0.687,0.077 1.25,-0.274 1.25,-0.781l-0,0Zm196.5,-3.096c3.85,-0.586 8.462,-1.292 10.25,-1.57c1.787,-0.277 3.25,-0.905 3.25,-1.395c-0,-0.49 -1.463,-1.032 -3.25,-1.205l-3.25,-0.313l-0.542,-39.256l2.271,-0.608c1.249,-0.335 4.376,-0.615 6.948,-0.622c3.871,-0.012 5.035,0.44 6.75,2.621c4.713,5.991 0.918,12.657 -9.323,16.375l-2.895,1.051l2.367,2.719c6.729,7.732 16.547,17.22 17.817,17.22c3.649,-0 14.107,-2.3 14.107,-3.103c-0,-0.493 -0.733,-0.897 -1.629,-0.897c-1.878,-0 -19.371,-16.76 -19.371,-18.56c-0,-0.659 1.352,-1.758 3.004,-2.442c4.943,-2.047 8.996,-7.443 8.996,-11.976c-0,-7.905 -4.543,-8.542 -30.75,-4.315c-16.291,2.628 -21.617,4.293 -13.729,4.293l3.52,-0l-0.27,20.213l-0.271,20.213l-3.25,0.932c-3.942,1.13 -4.364,3.026 -0.5,2.246c1.512,-0.305 5.9,-1.035 9.75,-1.621l-0,0Zm-280.5,-9.776c-0,-0.437 -1.449,-1.224 -3.219,-1.75c-2.157,-0.641 -3.444,-1.782 -3.9,-3.457c-0.807,-2.959 -1.121,-36.427 -0.35,-37.198c0.928,-0.928 15.693,2.944 16.584,4.35c0.47,0.741 0.861,2.36 0.87,3.598c0.009,1.326 0.63,2.25 1.515,2.25c1.083,-0 1.5,-1.111 1.5,-4c-0,-2.2 0.064,-4.338 0.143,-4.75c0.079,-0.413 -4.309,-1.695 -9.75,-2.85c-5.441,-1.155 -16.868,-3.576 -25.393,-5.38c-8.525,-1.805 -16.063,-3.495 -16.75,-3.758c-1.537,-0.586 -1.731,7.459 -0.235,9.738c0.875,1.333 1.094,1.333 1.97,-0c0.541,-0.825 0.991,-2.288 1,-3.25c0.017,-1.985 2.527,-2.249 8.015,-0.842c1.925,0.494 4.747,1.177 6.271,1.519l2.772,0.622l-0.272,19.225l-0.271,19.226l-3.25,0.313c-4.993,0.482 -3.87,1.92 2.5,3.204c3.162,0.637 8.225,1.744 11.25,2.46c6.699,1.585 9,1.772 9,0.73l-0,-0Zm349.5,-2.756c17.779,-3.799 23.742,-5.291 24.565,-6.146c0.663,-0.689 1.333,-6.968 1.032,-9.678c-0.202,-1.815 -2.881,1.541 -3.433,4.3c-0.622,3.114 -4.16,4.716 -15.463,7.001c-8.74,1.767 -8.308,2.193 -7.784,-7.678c0.256,-4.813 0.491,-9.039 0.524,-9.392c0.094,-1.028 13.904,-4.132 15.558,-3.497c0.825,0.317 1.501,1.49 1.501,2.607c-0,1.14 0.659,2.032 1.5,2.032c1.192,-0 1.5,-1.454 1.5,-7.083c-0,-5.137 -0.336,-6.972 -1.223,-6.676c-0.672,0.224 -1.475,1.499 -1.784,2.833c-0.466,2.013 -1.663,2.712 -7.027,4.108c-10.912,2.838 -10.5,3.093 -10.247,-6.353c0.135,-5.013 0.68,-8.458 1.408,-8.908c2.039,-1.26 18.655,-4.174 19.793,-3.471c0.594,0.368 1.08,1.541 1.08,2.609c-0,1.915 1.445,2.649 2.344,1.191c0.254,-0.413 0.611,-2.55 0.794,-4.75c0.403,-4.847 1.759,-4.879 -21.138,0.486c-9.075,2.126 -17.963,4.159 -19.75,4.519c-1.788,0.36 -3.25,1.077 -3.25,1.593c-0,0.517 1.173,0.645 2.607,0.286c1.726,-0.434 2.904,-0.187 3.485,0.731c0.482,0.761 0.884,9.681 0.892,19.82c0.015,17.735 -0.07,18.529 -2.234,20.891l-2.25,2.456l3,-0.74c1.65,-0.407 7.95,-1.798 14,-3.091Zm-463.5,-12.951c-0,-1.285 2.944,-1.5 20.5,-1.5c17.555,-0 20.5,0.215 20.5,1.5c-0,1.284 -2.945,1.5 -20.5,1.5c-17.556,-0 -20.5,-0.216 -20.5,-1.5Zm519,-0.5c-0,-1.935 0.666,-2 20.5,-2c19.833,-0 20.5,0.065 20.5,2c-0,1.935 -0.667,2 -20.5,2c-19.834,-0 -20.5,-0.065 -20.5,-2Zm-519,-3l-0,-66l24.75,0.059c19.539,0.046 24.359,0.309 22.891,1.25c-1.022,0.655 -2.934,2.011 -4.25,3.013l-2.391,1.823l-0,59.855l-41,-0Zm519,-30.47l-0,-29.47l-3,-2.218c-1.65,-1.22 -3,-2.592 -3,-3.049c-0,-0.456 10.462,-0.709 23.25,-0.562l23.25,0.269l0.264,32.25l0.264,32.25l-41.028,-0l-0,-29.47Zm-560.362,19.97c0.863,-2.248 37.362,-2.248 37.362,-0c-0,1.28 -2.774,1.5 -18.969,1.5c-16.45,-0 -18.892,-0.199 -18.393,-1.5Zm604.362,-0.5c-0,-1.928 0.666,-2 18.5,-2c10.175,-0 18.5,0.188 18.5,0.418c-0,0.23 0.273,1.13 0.607,2c0.54,1.408 -1.488,1.582 -18.5,1.582c-18.441,-0 -19.107,-0.07 -19.107,-2Zm-602.705,-4.326c0.279,-0.729 2.629,-8.066 5.22,-16.305l4.712,-14.98l-4.613,-14.794c-2.538,-8.136 -4.614,-15.424 -4.614,-16.194c-0,-1.157 3.613,-1.396 20.75,-1.374l20.75,0.025l-3.259,2.723l-3.259,2.723l0.018,59.5l-18.107,0c-14.626,0 -18.009,-0.254 -17.598,-1.325l-0,0.001Zm602.698,-29.424l-0.005,-29.75l-3.244,-2l-3.244,-2l20.896,-0.271c11.493,-0.149 21.099,-0.068 21.346,0.179c0.247,0.247 -1.956,7.717 -4.896,16.599l-5.346,16.149l4.891,14.172c2.69,7.795 5.1,14.735 5.357,15.422c0.362,0.971 -3.573,1.25 -17.641,1.25l-18.107,-0l-0.006,-29.75l-0.001,-0Zm-314.993,25.653c-62.585,-2.532 -130.335,-12.752 -188.75,-28.474c-11.623,-3.129 -14.25,-4.167 -14.25,-5.632c-0,-0.989 0.337,-1.793 0.75,-1.788c0.412,0.006 7.886,1.809 16.608,4.008c46.87,11.815 100.983,20.396 158.142,25.078c19.245,1.576 76.583,2.549 101.844,1.727c60.085,-1.954 121.942,-11.254 175.521,-26.388c8.599,-2.429 15.972,-4.42 16.385,-4.425c0.412,-0.006 0.75,0.873 0.75,1.951c-0,2.26 -4.222,3.751 -28.5,10.064c-51.751,13.458 -109.464,21.452 -173,23.962c-27.617,1.091 -36.768,1.08 -65.5,-0.083l-0,0Zm-7,-9.037c-34.828,-1.885 -35.96,-2.077 -46.278,-7.814c-15.028,-8.356 -27.456,-17.8 -40.215,-30.559c-27.185,-27.185 -43.124,-58.171 -50.15,-97.493c-2.093,-11.715 -2.384,-42.74 -0.512,-54.5c8.85,-55.571 40.639,-101.762 89.025,-129.359c54.314,-30.978 122.54,-30.5 176.462,1.235c31.753,18.687 55.531,44.848 71.594,78.77c28.806,60.829 19.984,134.062 -22.527,187.022c-16.297,20.302 -33.21,34.284 -56.526,46.73l-9.373,5.003l-18.5,1.049c-21.151,1.199 -70.111,1.155 -93,-0.084l-0,-0Zm88.496,-6.029c0.86,-0.86 -0.512,-7.837 -1.541,-7.837c-0.452,-0 -0.965,1.191 -1.139,2.646c-0.26,2.176 -1.116,2.884 -4.816,3.985c-2.475,0.736 -4.797,1.345 -5.16,1.354c-0.756,0.017 0.823,-6.264 4.202,-16.712c1.285,-3.975 2.046,-7.518 1.69,-7.874c-1.466,-1.466 -3.664,0.741 -4.28,4.298c-0.362,2.092 -1.737,8.159 -3.055,13.484c-1.318,5.325 -2.397,10.117 -2.397,10.65c-0,0.947 15.247,-2.745 16.496,-3.994Zm-88.617,-9.359c5.082,-5.788 9.632,-10.28 10.111,-9.984c0.479,0.296 1.139,0.106 1.466,-0.424c0.327,-0.529 -1.104,-1.434 -3.181,-2.01c-5.051,-1.403 -5.746,-1.332 -4.279,0.435c1,1.205 0.922,1.981 -0.401,4c-1.939,2.959 -1.915,2.956 -7.917,0.911c-4.343,-1.48 -4.678,-1.838 -4.678,-5c-0,-2.539 0.433,-3.406 1.7,-3.406c2.521,-0 0.414,-1.562 -4.017,-2.979c-3.715,-1.188 -6.316,-0.648 -3.944,0.818c0.944,0.583 4.261,21.512 4.261,26.881c-0,2.609 1.855,1.033 10.879,-9.242Zm-7.879,-1.095c-0,-4.299 0.154,-4.575 2.25,-4.013c1.237,0.331 2.812,0.609 3.5,0.616c0.687,0.009 1.25,0.429 1.25,0.937c-0,1.289 -4.98,7.077 -6.089,7.077c-0.501,-0 -0.911,-2.078 -0.911,-4.617Zm49.96,7.165c1.451,-1.748 0.557,-5.136 -1.571,-5.952c-2.147,-0.824 -5.389,1.125 -5.389,3.239c-0,3.762 4.601,5.555 6.96,2.713Zm61.818,-2.812c2.396,-2.55 5.225,-8.762 5.216,-11.454c-0.011,-3.658 -2.091,-9.095 -4.456,-11.646c-3.324,-3.587 -8.315,-3.587 -11.902,0c-7.426,7.426 2.415,19.362 10.049,12.19l2.315,-2.175l-0,4.098c-0,2.912 -0.724,4.957 -2.5,7.069c-1.375,1.634 -2.5,3.243 -2.5,3.576c-0,1.277 1.737,0.514 3.778,-1.658Zm-8.706,-14.371c-4.888,-6.214 0.492,-12.97 5.795,-7.277c2.905,3.118 3.258,5.786 1.059,7.986c-2.607,2.607 -4.39,2.422 -6.854,-0.709Zm-139.664,2.135c1.365,-2.084 1.398,-2.5 0.198,-2.5c-0.792,-0 -1.624,0.553 -1.849,1.229c-0.3,0.9 -1.124,0.76 -3.083,-0.523c-1.471,-0.964 -2.674,-2.187 -2.674,-2.718c-0,-0.531 2.693,-4.755 5.985,-9.387c4.828,-6.794 6.375,-8.32 8,-7.895c3.053,0.798 2.463,-0.046 -2.546,-3.642c-4.467,-3.208 -6.924,-3.558 -4.503,-0.641c1.002,1.207 0.175,2.999 -4.608,9.984c-3.205,4.682 -6.29,8.531 -6.856,8.553c-0.565,0.022 -2.029,-0.662 -3.253,-1.519c-1.797,-1.259 -2.026,-1.934 -1.187,-3.5c1.36,-2.543 -0.224,-2.491 -2.554,0.082c-1.142,1.263 -1.477,2.378 -0.891,2.964c1.467,1.467 16.837,11.972 17.548,11.993c0.349,0.012 1.372,-1.105 2.273,-2.48l-0,-0Zm175.517,-1.921c4.978,-5.299 1.46,-14.579 -5.527,-14.579c-2.279,-0 -3.842,0.749 -5.22,2.5c-1.081,1.375 -2.239,2.5 -2.572,2.5c-1.503,-0 -0.435,-8.769 1.443,-11.848c2.67,-4.381 0.243,-3.667 -2.799,0.823c-2.502,3.692 -3.079,11.543 -1.128,15.341c3.952,7.691 11.241,10.119 15.803,5.263Zm-8.827,-1.975c-2.912,-3.099 -2.54,-7.543 0.731,-8.744c1.885,-0.691 2.888,-0.297 5.25,2.066c3.293,3.292 3.638,5.214 1.349,7.502c-2.23,2.23 -4.725,1.95 -7.33,-0.824Zm-145.62,1.774c1.949,-1.949 1.657,-4.264 -0.728,-5.766c-3.465,-2.182 -7.367,2.735 -4.71,5.936c1.574,1.897 3.43,1.839 5.438,-0.17l0,0Zm83.812,-11.869c45.24,-7.89 83.052,-39.444 98.724,-82.385c9.8,-26.854 9.936,-59.544 0.359,-86.358c-10.863,-30.413 -34.543,-57.275 -63.202,-71.691c-28.276,-14.224 -64.733,-17.083 -95.342,-7.479c-44.913,14.093 -78.374,52.052 -87.463,99.222c-2.478,12.859 -2.218,34.735 0.571,48.115c5.171,24.803 17.094,46.869 35.141,65.037c18.034,18.154 42.324,30.857 67.844,35.478c10.342,1.873 32.795,1.904 43.368,0.06l-0,0.001Zm-39.093,-6.976c-0.963,-2.114 -0.76,-2.899 1.422,-5.492c1.4,-1.664 3.858,-3.801 5.463,-4.749c3.959,-2.339 3.667,-3.292 -1.009,-3.292c-3.298,-0 -4.406,0.581 -6.915,3.624c-6.067,7.36 -11.884,9.06 -19.753,5.772l-3.84,-1.605l3.734,-1.283c2.054,-0.706 5.686,-3.084 8.073,-5.284c2.387,-2.199 5.302,-4.514 6.478,-5.144l2.138,-1.144l-2.315,-3.659c-2.797,-4.419 -5.239,-5.679 -4.16,-2.145c0.398,1.302 1.374,3.111 2.17,4.019c1.664,1.898 1.154,2.344 -3.683,3.221c-1.925,0.349 -5.525,1.981 -8,3.627c-5.253,3.493 -10.947,3.948 -16.466,1.316c-4.255,-2.029 -4.538,-3.315 -0.73,-3.315c1.542,-0 5.023,-1.407 7.734,-3.127c2.712,-1.719 6.531,-3.341 8.488,-3.603l3.558,-0.478l-1.621,-6.439c-0.892,-3.542 -2.373,-7.192 -3.292,-8.111c-1.562,-1.561 -1.668,-1.443 -1.627,1.794c0.025,1.905 0.692,5.264 1.485,7.464c1.771,4.917 1.768,4.828 0.123,4.197c-0.742,-0.285 -5.049,0.792 -9.573,2.393c-9.782,3.461 -15.877,3.668 -22.079,0.747l-4.5,-2.119l3,-0.74c1.65,-0.407 4.659,-1.463 6.687,-2.346c2.028,-0.884 6.817,-1.897 10.642,-2.253l6.955,-0.646l-0.894,-3.115c-0.491,-1.713 -0.618,-5.193 -0.281,-7.732c0.677,-5.103 -1.177,-10.308 -4.825,-13.545c-2.058,-1.826 -2.064,-1.82 -0.739,0.659c0.735,1.375 1.646,6.1 2.025,10.5c0.378,4.4 0.993,8.909 1.365,10.02c0.638,1.901 0.249,2.023 -6.629,2.072c-4.018,0.029 -10.082,0.417 -13.475,0.862c-5.382,0.706 -6.603,0.541 -9.566,-1.29c-1.868,-1.155 -4.219,-3.009 -5.225,-4.12c-1.805,-1.995 -1.78,-2.018 2.066,-1.902c2.142,0.064 5.919,-0.429 8.394,-1.098c2.527,-0.682 6.761,-0.959 9.655,-0.632l5.155,0.583l-0.437,-8.248c-0.24,-4.536 -0.609,-9.97 -0.82,-12.076c-0.383,-3.82 -0.379,-3.824 1.742,-2l2.126,1.829l-1.911,-3c-12.123,-19.027 -17.584,-32.186 -22.076,-53.198l-1.752,-8.197l-7.334,6.563c-5.52,4.941 -7.592,7.524 -8.379,10.448c-0.576,2.136 -1.245,3.884 -1.487,3.884c-0.243,-0 -1.342,-1.765 -2.443,-3.923c-1.239,-2.43 -4.265,-5.51 -7.95,-8.095c-4.244,-2.977 -6.398,-5.298 -7.519,-8.098c-1.624,-4.06 -2.219,-17.884 -0.769,-17.884c0.44,-0 1.752,1.96 2.916,4.355c1.164,2.395 3.557,5.657 5.319,7.25c1.762,1.592 4.726,4.391 6.586,6.219l3.383,3.323l2.541,-3.02c1.398,-1.661 4.884,-3.891 7.748,-4.955c4.233,-1.574 5.264,-2.419 5.52,-4.525l0.313,-2.589l-5.2,2.161c-2.86,1.188 -6.688,3.693 -8.506,5.565c-3.617,3.724 -5.421,3.544 -5.421,-0.539c-0,-2.647 -4.536,-10.245 -6.116,-10.245c-1.858,-0 -5.235,-8.829 -5.833,-15.25c-0.346,-3.713 -0.304,-6.75 0.093,-6.75c2.625,-0 13.853,18.794 13.855,23.191c0.001,2.763 1.562,2.905 3.954,0.359c1.234,-1.314 4.478,-3.35 7.208,-4.524c3.236,-1.392 4.855,-2.657 4.652,-3.634c-0.172,-0.824 -0.651,-1.474 -1.063,-1.445c-0.413,0.029 -2.145,0.053 -3.849,0.053c-2.171,-0 -3.959,0.921 -5.972,3.076c-3.253,3.482 -4.929,3.13 -4.929,-1.035c-0,-1.579 -1.527,-5.11 -3.441,-7.953c-5.001,-7.432 -5.947,-18.561 -2.019,-23.746c1.289,-1.7 1.399,-1.595 1.428,1.36c0.018,1.762 1.758,6.487 3.867,10.5c2.11,4.014 4.143,8.532 4.517,10.04l0.682,2.743l3.718,-1.993c2.045,-1.095 4.287,-1.992 4.983,-1.992c0.696,-0 1.265,-0.948 1.265,-2.107c-0,-1.611 -0.412,-1.94 -1.75,-1.396c-3.882,1.577 -7.134,2.285 -7.735,1.684c-0.35,-0.349 1.529,-1.357 4.174,-2.24c3.685,-1.228 4.891,-2.15 5.152,-3.938l0.341,-2.335l-3.168,2.666c-3.549,2.987 -7.014,3.513 -7.014,1.067c-0,-0.88 -1.662,-4.292 -3.692,-7.582c-4.532,-7.341 -4.897,-12.949 -1.292,-19.819l2.362,-4.5l0.724,4.045c0.398,2.225 1.733,5.756 2.967,7.848c1.583,2.682 2.383,5.977 2.717,11.18l0.474,7.378l2.87,-2.044c3.417,-2.433 3.88,-4.984 0.756,-4.167c-1.862,0.487 -2.015,0.267 -1.282,-1.844c1.291,-3.721 0.877,-7.35 -1.458,-12.778c-2.647,-6.152 -2.706,-12.288 -0.173,-17.868c2.383,-5.251 4.002,-5.448 4.106,-0.5c0.043,2.062 0.306,3.187 0.583,2.5c0.278,-0.688 1.305,-1.25 2.283,-1.25c1.361,-0 2.045,-1.327 2.914,-5.652c1.054,-5.251 5.133,-12.348 7.097,-12.348c0.469,-0 0.617,1.761 0.328,3.914c-0.575,4.294 1.381,14.086 2.816,14.086c0.495,-0 0.9,-3.201 0.9,-7.114c-0,-8.403 2.142,-13.058 8.275,-17.987l3.947,-3.172l-0.56,3.887c-0.308,2.137 -0.852,6.586 -1.209,9.886c-0.356,3.3 -1.279,7.517 -2.051,9.372c-0.771,1.855 -1.402,3.767 -1.402,4.25c-0,0.494 23.527,0.854 53.75,0.823c51.635,-0.052 53.576,-0.121 49.332,-1.75c-2.429,-0.932 -4.568,-2.15 -4.753,-2.707c-0.185,-0.556 2.589,-1.849 6.164,-2.873l6.501,-1.861l6.024,2.253c3.313,1.239 6.24,2.602 6.504,3.029c0.264,0.427 -1.883,1.093 -4.771,1.481c-9.762,1.312 -8.663,2.498 2.07,2.235l10.322,-0.252l-0.653,-3c-1.124,-5.165 -3.259,-21.979 -2.849,-22.433c0.849,-0.939 5.981,3.834 8.092,7.527c1.693,2.96 2.238,5.527 2.25,10.597c0.015,5.969 1.127,9.032 2.705,7.454c0.306,-0.306 0.614,-4.4 0.684,-9.099c0.078,-5.19 0.52,-8.415 1.128,-8.217c1.73,0.562 5.469,6.819 6.622,11.08c0.608,2.25 1.266,4.653 1.461,5.341c0.195,0.687 1.268,1.25 2.385,1.25c1.526,-0 2.032,-0.653 2.032,-2.623c-0,-2.266 0.212,-2.446 1.566,-1.322c2.158,1.791 4.039,5.74 4.84,10.163c0.494,2.73 -0.003,5.678 -1.873,11.093c-1.748,5.063 -2.345,8.379 -1.906,10.575c0.484,2.42 0.207,3.514 -1.138,4.498c-1.672,1.223 -1.635,1.401 0.616,2.982l2.395,1.682l0.796,-6.233c0.437,-3.429 1.734,-8.277 2.881,-10.775c1.147,-2.497 2.669,-6.115 3.381,-8.04l1.294,-3.5l1.744,4c2.792,6.405 2.325,13.134 -1.304,18.772c-1.689,2.624 -3.38,6.83 -3.758,9.347c-0.618,4.12 -0.902,4.507 -2.86,3.897c-5.479,-1.707 -6.674,-1.748 -6.674,-0.227c-0,0.919 1.853,2.154 4.678,3.117c5.653,1.926 5.322,1.916 5.322,0.162c-0,-0.787 2.025,-5.592 4.5,-10.677c2.475,-5.085 4.5,-10.066 4.5,-11.069c-0,-2.567 1.646,-2.27 2.37,0.428c0.841,3.14 0.774,3.957 -0.274,3.309c-1.182,-0.73 -10.096,16.989 -10.096,20.069c-0,2.874 -0.112,2.884 -4.226,0.376c-1.801,-1.098 -4.009,-1.998 -4.908,-2c-2.296,-0.006 -3.197,3.979 -1.039,4.597c0.92,0.264 3.838,1.552 6.483,2.863c4.323,2.141 4.86,2.213 5.294,0.71c0.266,-0.921 1.439,-3.474 2.609,-5.674c1.169,-2.2 3.399,-6.426 4.956,-9.391c2.236,-4.258 2.831,-4.869 2.831,-2.905c-0,1.367 -1.857,5.358 -4.126,8.869c-2.269,3.511 -4.353,8.081 -4.632,10.155c-0.611,4.556 -1.945,4.735 -5.742,0.772c-2.086,-2.177 -3.804,-3 -6.261,-3c-4.834,-0 -4.009,3.088 1.274,4.767c2.193,0.697 5.218,2.609 6.723,4.25c3.094,3.374 3.764,3.634 3.764,1.463c-0,-5.546 11.819,-25.328 14.239,-23.832c1.513,0.935 0.234,10.494 -2.116,15.805c-1.12,2.532 -3.628,6.547 -5.574,8.921c-1.946,2.375 -3.823,5.746 -4.173,7.493c-0.787,3.938 -1.966,4.767 -3.283,2.307c-0.554,-1.034 -4.176,-3.546 -8.05,-5.582l-7.043,-3.701l-0,2.57c-0,1.954 0.78,2.899 3.25,3.936c1.787,0.75 4.899,2.067 6.914,2.927c2.016,0.859 3.959,2.488 4.318,3.619c0.664,2.094 2.518,2.874 2.518,1.06c-0,-0.548 3.13,-4.293 6.956,-8.32c3.826,-4.028 7.489,-8.642 8.141,-10.253l1.183,-2.93l0.76,2.5c0.418,1.375 0.805,5.027 0.86,8.115c0.118,6.646 -1.348,8.937 -9.645,15.066c-3.721,2.748 -6.012,5.336 -7.038,7.947c-0.836,2.13 -2.015,3.856 -2.619,3.836c-0.604,-0.02 -1.998,-1.932 -3.098,-4.249c-1.137,-2.395 -3.51,-5.156 -5.5,-6.398c-4.212,-2.631 -6.145,-4.378 -7.571,-6.844c-0.88,-1.521 -1.526,0.011 -3.619,8.587c-3.408,13.967 -9.763,29.907 -16.129,40.46l-5.217,8.649l0.736,9.665c0.405,5.316 0.496,11.016 0.204,12.666l-0.533,3l6.814,0.094c3.748,0.052 9.63,0.452 13.071,0.889c7.052,0.897 7.072,2.033 0.1,5.59c-4.235,2.161 -9.451,2.445 -15.262,0.831c-2.149,-0.596 -5.91,-0.784 -8.359,-0.417l-4.452,0.668l8.359,2.99c4.597,1.645 9.145,3.237 10.108,3.539c4.359,1.368 -0.972,4.271 -9.254,5.039c-4.451,0.412 -6.691,0.011 -11.719,-2.106c-3.42,-1.44 -7.506,-2.617 -9.08,-2.617c-1.575,-0 -3.093,-0.229 -3.374,-0.51c-0.28,-0.28 0.305,-2.868 1.301,-5.75c0.996,-2.882 1.825,-6.256 1.843,-7.499c0.029,-2.009 -0.187,-2.121 -1.967,-1.009c-1.1,0.687 -2,2.261 -2,3.498c-0,1.237 -0.857,4.503 -1.904,7.259l-1.904,5.011l3.956,-0c2.565,-0 6.331,1.23 10.718,3.5c3.72,1.925 7.297,3.5 7.949,3.5c2.699,-0 0.883,1.95 -3.307,3.55c-5.961,2.277 -10.606,1.515 -17.949,-2.943c-3.268,-1.984 -6.756,-3.607 -7.75,-3.607c-2.199,-0 -2.261,-0.906 -0.315,-4.636c1.891,-3.627 1.915,-5.458 0.062,-4.747c-2.2,0.844 -6.049,8.719 -4.512,9.231c0.681,0.227 3.005,2.009 5.163,3.959c2.159,1.95 6.157,4.301 8.885,5.224c4.389,1.486 4.773,1.836 3.33,3.034c-0.897,0.744 -4.451,1.533 -7.897,1.752l-6.265,0.399l-5.641,-5.108c-4.517,-4.09 -6.336,-5.108 -9.13,-5.108c-1.919,-0 -3.489,0.302 -3.489,0.671c-0,0.368 2.318,2.746 5.15,5.283c4.673,4.186 5.041,4.82 3.965,6.83c-0.652,1.219 -1.59,2.216 -2.084,2.216c-0.494,-0 -3.155,-2.198 -5.913,-4.885c-3.787,-3.689 -5.945,-4.994 -8.816,-5.333c-3.516,-0.415 -4.261,-0.009 -9.887,5.385c-3.347,3.208 -6.312,5.833 -6.59,5.833c-0.277,-0 -1.01,-1.11 -1.628,-2.467l-0,0Zm12.794,-10.868c-2.019,-2.214 -12.752,6.909 -11.615,9.873c0.518,1.351 1.719,0.67 6.506,-3.691c3.229,-2.941 5.528,-5.723 5.109,-6.182Zm20.509,8.364c-0,-1.953 -9.157,-9.359 -10.526,-8.513c-0.77,0.475 0.486,2.329 3.679,5.43c4.81,4.672 6.847,5.59 6.847,3.083Zm-41.701,-2.426c1.486,-0.768 4.159,-3.211 5.941,-5.429c1.783,-2.219 4.178,-4.331 5.322,-4.694c1.949,-0.619 1.87,-0.819 -1.24,-3.143c-1.827,-1.365 -4.222,-2.925 -5.322,-3.466c-1.657,-0.815 -1.605,-0.639 0.302,1.025l2.303,2.01l-3.803,1.962c-2.091,1.079 -5.581,3.801 -7.755,6.047c-2.174,2.247 -4.537,4.085 -5.25,4.085c-1.922,-0 -1.573,1.781 0.453,2.311c3.439,0.898 6.39,0.668 9.049,-0.708Zm62.201,-0.508l2.5,-0.705l-3.048,-1.072c-1.676,-0.59 -5.151,-2.894 -7.723,-5.12c-2.571,-2.225 -5.62,-4.346 -6.775,-4.713c-2.003,-0.635 -2.02,-0.755 -0.367,-2.582c2.851,-3.15 1.222,-2.886 -3.968,0.642l-4.881,3.319l3.729,1.558c2.051,0.857 4.659,2.74 5.796,4.186c3.502,4.451 8.965,6.115 14.737,4.487Zm17.754,-6.978c2.003,-1.12 -9.164,-6.867 -14.912,-7.674c-6.904,-0.97 -6.854,-0.913 -4.673,-5.32c1.092,-2.206 1.837,-4.903 1.658,-5.993c-0.325,-1.966 -0.346,-1.967 -2.716,-0.034c-1.313,1.072 -2.719,3.626 -3.124,5.676c-0.405,2.051 -1.01,4.403 -1.345,5.228c-0.434,1.071 0.744,2.135 4.125,3.722c2.603,1.222 6.308,3.158 8.233,4.303c3.507,2.084 9.122,2.125 12.754,0.092l0,0Zm-92.185,-2.617c3.693,-1.925 7.599,-3.5 8.68,-3.5c1.494,-0 1.783,-0.42 1.205,-1.75c-0.417,-0.963 -0.96,-3.171 -1.205,-4.907c-0.246,-1.743 -1.747,-4.404 -3.348,-5.938l-2.901,-2.779l0.003,2.937c0.002,1.615 0.902,4.41 2,6.211c1.098,1.801 1.996,3.488 1.996,3.75c-0,0.262 -2.138,0.478 -4.75,0.48c-3.601,0.003 -5.839,0.728 -9.25,2.996c-2.475,1.645 -5.063,2.993 -5.75,2.996c-0.688,0.002 -1.25,0.416 -1.25,0.921c-0,0.504 0.562,1.143 1.25,1.421c3.107,1.253 7.103,0.402 13.319,-2.838l0.001,-0Zm47.642,-6.128c24.844,-16.87 39.554,-31.911 52.294,-53.47c14.568,-24.654 20.261,-49.902 21.229,-94.152l0.541,-24.75l-166.566,-0l0.57,24.25c0.83,35.371 4.487,58.352 12.631,79.392c9.659,24.951 30.4,48.682 59.792,68.411c4.839,3.248 9.343,5.915 10.009,5.926c0.666,0.012 4.941,-2.512 9.5,-5.607Zm-17.211,-3.505c-33.012,-20.892 -54.275,-49.859 -63.396,-86.367c-4.196,-16.795 -5.682,-29.699 -6.306,-54.75l-0.591,-23.75l156.293,-0l0.103,9.75c0.342,32.162 -1.094,49.297 -5.574,66.541c-8.343,32.111 -27.008,59.868 -54.035,80.357c-8.547,6.48 -17.646,12.358 -19.105,12.342c-0.489,-0.005 -3.814,-1.86 -7.389,-4.123l-0,0Zm15.687,-2.507c17.22,-11.728 34.042,-28.125 43.579,-42.477c18.457,-27.777 25.7,-56.536 25.725,-102.133l0.009,-15.75l-154.285,-0l0.697,18.75c0.383,10.312 1.138,23.025 1.677,28.25c4.521,43.818 20.747,76.984 49.31,100.788c9.364,7.804 23.186,17.212 25.288,17.212c0.652,-0 4.252,-2.088 8,-4.64Zm-12.289,-18.11c1.119,-5.525 5.601,-39.248 5.577,-41.959c-0.033,-3.606 -7.764,-12.232 -9.089,-10.141c-1.182,1.865 -1.098,3.596 0.466,9.628l1.353,5.215l-6.265,3.503c-3.446,1.927 -6.487,3.504 -6.759,3.504c-1.062,-0 -3.681,-9.577 -3.671,-13.428c0.011,-4.767 3.803,-13.476 7.458,-17.131l2.56,-2.561l-2.872,-8.69c-1.581,-4.78 -3.68,-11.734 -4.667,-15.454c-0.987,-3.721 -2.021,-6.537 -2.3,-6.259c-0.278,0.278 -1.731,4.316 -3.228,8.974c-4.435,13.788 -11.016,23.305 -18.453,26.684c-2.882,1.309 -6.467,1.827 -12.758,1.843c-4.813,0.011 -8.75,-0.284 -8.75,-0.658c-0,-0.375 1.853,-3.525 4.117,-7l4.118,-6.32l6.448,-0c3.547,-0 7.256,-0.432 8.242,-0.96c0.987,-0.528 2.747,-3.174 3.911,-5.881c2.072,-4.817 9.164,-31.467 9.164,-34.438c-0,-2.807 -6.726,-2.921 -13.259,-0.226c-2.923,1.206 -3.267,5.43 -0.975,11.972c1.156,3.299 2.019,6.047 1.918,6.107c-0.101,0.06 -2.752,1.981 -5.892,4.268c-3.139,2.287 -5.896,4.158 -6.126,4.158c-0.231,-0 -1.375,-2.221 -2.543,-4.935c-2.77,-6.439 -2.685,-12.339 0.267,-18.565c5.526,-11.656 15.147,-18.5 26.008,-18.5c5.38,0 6.345,-0.328 9.249,-3.143l3.243,-3.143l0.644,2.893c2.742,12.31 13.911,51.059 15.077,52.31c0.87,0.932 1.486,-1.118 3.902,-12.993c4.927,-24.217 7.701,-31.819 14.28,-39.137c5.973,-6.644 11.704,-9.787 17.844,-9.787c2.884,0 5.461,0.35 5.725,0.777c0.264,0.428 -0.947,3.465 -2.691,6.75c-3.126,5.887 -3.242,5.98 -8.122,6.473c-5.765,0.582 -7.179,2.363 -11.114,13.993c-2.356,6.965 -9.435,37.232 -9.435,40.343c-0,1.33 1.055,1.682 5.25,1.752c2.887,0.048 7.404,0.385 10.037,0.75l4.787,0.662l-4.959,3.918c-4.686,3.703 -4.995,4.241 -5.642,9.811c-0.376,3.242 -0.524,6.028 -0.329,6.192c0.196,0.164 1.559,0.586 3.029,0.938c3.827,0.917 7.909,-2.873 10.229,-9.498c1.032,-2.949 2.249,-5.774 2.705,-6.278c0.911,-1.011 0.998,-0.812 3.352,7.667c0.878,3.162 2.001,5.75 2.495,5.75c1.727,0 6.357,-11.121 6.452,-15.498c0.071,-3.3 -0.487,-4.958 -2.331,-6.921l-2.424,-2.581l2.228,-2.371c5.57,-5.93 11.814,-6.936 16.146,-2.604c3.217,3.217 2.74,12.854 -1.031,20.826c-4.149,8.769 -9.31,15.276 -31.126,39.242c-18.335,20.142 -19.03,20.776 -23.925,21.826c-7.627,1.636 -8.189,1.511 -7.545,-1.669l-0,-0Zm15.102,-6.541c44.34,-48.592 48.058,-53.842 47.305,-66.804c-0.274,-4.719 -0.582,-5.34 -3.053,-6.159c-2.158,-0.716 -3.496,-0.449 -6.229,1.239c-3.428,2.119 -3.455,2.189 -1.809,4.701c3.988,6.087 0.919,17.062 -8.442,30.191c-4.699,6.59 -28.209,31.52 -28.989,30.739c-0.386,-0.385 2.266,-22.598 3.259,-27.294c0.422,-2.001 1.05,-2.175 7.709,-2.129c8.347,0.057 16.237,-2.478 15.301,-4.917c-0.308,-0.804 -0.833,-2.545 -1.165,-3.869c-0.73,-2.911 -2.028,-3.115 -2.873,-0.451c-0.891,2.806 -6.271,7.044 -8.942,7.044c-1.25,-0 -3.747,-0.514 -5.548,-1.142l-3.274,-1.141l0.67,-7.394c0.805,-8.893 1.203,-10.069 3.672,-10.852c4.236,-1.345 1.46,-2.471 -6.092,-2.471c-6.795,-0 -8,-0.251 -8,-1.664c-0,-2.779 6.941,-33.27 9.638,-42.336c3.389,-11.397 6.461,-16.548 10.705,-17.948c1.843,-0.609 4.035,-0.844 4.871,-0.524c1.799,0.691 6.182,-5.532 4.84,-6.873c-2.092,-2.093 -7.692,0.775 -14.177,7.261c-5.965,5.965 -6.915,7.479 -9.165,14.619c-2.206,6.996 -6.11,23.782 -9.702,41.715c-0.634,3.162 -1.511,5.75 -1.949,5.75c-1.849,-0 -13.375,-35.428 -16.593,-51c-0.398,-1.925 -1.123,-4.562 -1.612,-5.859c-0.751,-1.992 -1.13,-2.159 -2.436,-1.075c-0.906,0.752 -4.55,1.337 -8.799,1.413c-8.316,0.149 -12.05,1.932 -18.124,8.656c-6.661,7.372 -8.684,14.054 -6.349,20.966c1.548,4.58 1.346,4.522 5.27,1.529c3.441,-2.624 3.459,-2.68 2.027,-6.107c-4.731,-11.324 1.055,-18.663 14.548,-18.453c8.261,0.129 8.128,-0.346 4.338,15.43c-3.927,16.35 -6.849,25.568 -9.565,30.172c-2.202,3.731 -7.951,5.881 -13.175,4.926c-3.487,-0.637 -4.489,-0.147 -6.899,3.374c-2.451,3.581 -2.166,4.028 2.558,4.022c7.103,-0.008 11.237,-1.714 15.58,-6.426c5.922,-6.424 10.031,-15.398 13.664,-29.838c1.767,-7.024 3.414,-12.972 3.661,-13.219c0.247,-0.246 2.165,6.626 4.263,15.271c2.099,8.645 5.128,19.03 6.732,23.078l2.917,7.361l-4.336,4.639c-5.063,5.418 -7.332,11.981 -6.323,18.29c0.907,5.672 1.299,6.063 4.399,4.383c5.393,-2.924 5.33,-2.797 4.156,-8.267c-0.778,-3.63 -0.784,-6.219 -0.019,-9.058c1.827,-6.785 2.902,-6.71 9.69,0.679l6.135,6.678l-2.371,17.467c-1.304,9.608 -2.67,19.675 -3.034,22.373l-0.663,4.905l3.899,-0.609c2.913,-0.455 4.912,-1.718 7.9,-4.992l-0,-0Zm-6.825,-51.488c-1.827,-3.41 -1.541,-5.221 0.825,-5.221c1.915,-0 2.205,0.953 1.523,5l-0.591,3.5l-1.757,-3.279Zm19.244,28.122c4.455,-4.762 7.983,-8.759 7.84,-8.883c-0.143,-0.124 -3.696,0.003 -7.897,0.281l-7.638,0.508l-0.647,5.125c-0.356,2.819 -0.906,6.588 -1.223,8.376c-0.341,1.921 -0.159,3.25 0.444,3.25c0.562,-0 4.666,-3.896 9.121,-8.657l0,-0Zm44.581,55.22l4,-1.282l-5,-2.342c-3.45,-1.616 -7.593,-2.512 -13.364,-2.89l-8.363,-0.549l2.156,-1.944c1.819,-1.639 2.055,-1.678 1.507,-0.25c-0.358,0.932 -0.265,1.687 0.207,1.679c1.341,-0.023 3.524,-1.615 3.562,-2.597c0.02,-0.488 0.43,-1.93 0.915,-3.203c0.484,-1.274 0.865,-5.999 0.846,-10.5l-0.033,-8.185l-2.084,2.5c-1.809,2.17 -2.006,3.358 -1.491,9c0.326,3.575 0.266,7.016 -0.133,7.648c-0.399,0.631 -0.829,-1.572 -0.955,-4.897c-0.127,-3.324 -0.502,-6.316 -0.835,-6.648c-1.018,-1.015 -5.435,4.864 -5.435,7.235c-0,1.224 -0.611,4.582 -1.358,7.461l-1.358,5.234l2.608,0.512c2.607,0.512 5.529,1.481 12.108,4.018c4.309,1.661 7.321,1.661 12.5,0l-0,0Zm-118.797,-2.696c8.533,-2.653 10.066,-3.434 9.365,-4.77c-0.462,-0.878 -1.155,-4.368 -1.541,-7.755c-0.541,-4.743 -1.281,-6.696 -3.223,-8.5l-2.522,-2.342l0.497,7.5c0.274,4.125 0.808,8.448 1.188,9.607c0.657,2.003 0.332,2.117 -6.546,2.291c-4.865,0.122 -8.885,0.891 -12.264,2.345l-5.027,2.162l2.935,1.252c4.346,1.855 5.961,1.686 17.138,-1.79Zm-16.386,-8.293c3.749,-0.785 8.437,-1.164 10.418,-0.842c3.263,0.529 3.522,0.405 2.763,-1.324c-0.46,-1.05 -1.121,-5.508 -1.468,-9.908c-0.662,-8.376 -3.451,-15.019 -5.169,-12.31c-1.363,2.149 -0.972,11.609 0.639,15.464c0.825,1.975 1.5,3.738 1.5,3.919c-0,0.181 -3.713,0.103 -8.25,-0.175c-5.609,-0.342 -9.691,-0.051 -12.75,0.91l-4.5,1.415l3.5,2.135c4.153,2.533 4.535,2.553 13.317,0.716Zm147.604,0.161c4.42,-2.255 3.408,-3.396 -4.137,-4.668c-5.227,-0.881 -8.548,-0.938 -11.757,-0.203c-2.46,0.563 -4.673,0.823 -4.918,0.578c-0.245,-0.245 0.147,-1.551 0.87,-2.903c1.314,-2.455 0.948,-16.945 -0.464,-18.357c-1.878,-1.879 -4.202,6.623 -4.752,17.386l-0.411,8.067l5.074,-0.416c2.79,-0.229 6.649,0.038 8.574,0.592c4.871,1.404 9.074,1.377 11.921,-0.076l-0,0Zm-181.921,-76.835c-0,-2.138 3.366,-5.774 10.836,-11.707c4.66,-3.7 5.85,-7.837 1.914,-6.649c-7.324,2.209 -12.75,6.866 -12.75,10.944c-0,2.677 -2.334,1.163 -3.17,-2.056c-0.454,-1.75 -3.166,-5.048 -6.728,-8.182c-3.282,-2.887 -6.253,-6.149 -6.602,-7.25c-1.303,-4.106 -2.787,-2.071 -2.187,2.999c0.778,6.567 3.062,11.201 6.532,13.25c1.547,0.914 4.577,3.664 6.734,6.112c4.46,5.062 5.421,5.512 5.421,2.539Zm210.96,-5.631c1.947,-1.778 5.272,-4.718 7.388,-6.535c3.159,-2.711 3.941,-4.124 4.366,-7.888c0.299,-2.656 0.081,-4.855 -0.519,-5.225c-1.223,-0.756 -11.818,10.014 -14.695,14.937c-2.44,4.175 -3.31,4.286 -4.6,0.585c-1.058,-3.034 -2.831,-4.245 -9.65,-6.592c-3.912,-1.346 -4.247,-1.327 -4.215,0.243c0.064,3.073 2.554,6.332 6.544,8.565c2.157,1.207 5.037,3.913 6.401,6.014l2.48,3.82l1.48,-2.347c0.814,-1.29 3.073,-3.8 5.02,-5.577l-0,-0Zm-202.028,-19.149c4.93,-1.832 7.179,-4.409 5.402,-6.186c-1.662,-1.662 -9.596,2.149 -12.416,5.963c-1.262,1.706 -2.571,3.103 -2.909,3.103c-0.339,-0 -1.596,-3.043 -2.794,-6.763c-2.338,-7.26 -7.921,-17.345 -9.965,-18.002c-1.899,-0.61 -1.519,5.583 0.629,10.265c1.01,2.2 3.488,5.789 5.506,7.975c2.018,2.187 4.183,5.688 4.81,7.782l1.14,3.806l3.12,-3.161c1.715,-1.739 5.08,-3.891 7.477,-4.782Zm197.568,4.879c0.362,-1.65 2.265,-4.913 4.227,-7.25c4.643,-5.528 7.223,-11.285 7.251,-16.173l0.023,-3.925l-2.358,2.215c-2.988,2.807 -7.263,11.493 -9.003,18.29c-0.738,2.885 -1.747,5.369 -2.241,5.521c-0.494,0.151 -1.573,-1.176 -2.399,-2.951c-1.9,-4.087 -10.646,-8.881 -12.095,-6.629c-1.685,2.62 -0.404,4.397 5.39,7.477c3.18,1.691 6.536,3.828 7.458,4.75c2.344,2.344 2.992,2.115 3.748,-1.325l-0.001,0Zm-197.829,-18.424c4.187,-1.091 4.793,-1.57 4.557,-3.605c-0.149,-1.291 -0.443,-2.518 -0.653,-2.728c-0.542,-0.542 -8.312,3.524 -9.066,4.744c-1.285,2.078 -2.509,0.905 -2.509,-2.405c-0,-2.069 -1.678,-6.656 -4.25,-11.619l-4.25,-8.199l-0.319,4.346c-0.472,6.441 0.532,10.256 3.776,14.337c1.599,2.012 3.205,5.015 3.569,6.675c0.626,2.85 0.765,2.926 2.489,1.365c1.005,-0.909 4,-2.219 6.656,-2.911Zm190.329,-12.992c-0,-1.329 1.575,-5.386 3.5,-9.014c2.428,-4.578 3.495,-7.895 3.484,-10.833c-0.025,-7.022 -1.359,-7.658 -4.57,-2.18c-2.366,4.038 -2.883,6.212 -3.237,13.624c-0.232,4.851 -0.68,8.82 -0.995,8.82c-0.315,-0 -1.835,-1.209 -3.377,-2.687l-2.805,-2.687l-0,2.494c-0,1.79 0.775,2.8 2.75,3.58c4.283,1.693 5.25,1.487 5.25,-1.117Zm-193.137,-10.083c0.055,-1.65 -1.441,-6.359 -3.325,-10.465c-3.364,-7.332 -3.443,-7.415 -4.481,-4.685c-1.874,4.927 -1.253,9.95 1.83,14.811c1.588,2.504 3.251,5.629 3.695,6.946c0.799,2.366 0.815,2.359 1.494,-0.607c0.378,-1.65 0.732,-4.35 0.787,-6Zm5.244,-27.564l-1.955,-3.215l-1.209,4.389c-1.074,3.899 -0.959,5.061 1.034,10.39c1.234,3.3 2.531,8.025 2.883,10.5c0.458,3.219 0.72,1.178 0.921,-7.175c0.244,-10.133 0.023,-12.099 -1.674,-14.889Zm184.837,5.879c0.031,-2.027 -0.428,-4.952 -1.019,-6.5c-1.033,-2.706 -1.129,-2.741 -2.49,-0.888c-1.402,1.909 -1.943,16.939 -0.683,18.98c0.889,1.44 4.13,-7.525 4.192,-11.592Zm-170.944,-10.266c-0,-0.798 -0.498,-3.772 -1.106,-6.608c-0.994,-4.635 -1.262,-5.002 -2.64,-3.624c-0.843,0.843 -1.753,3.817 -2.021,6.608l-0.488,5.075l3.128,-0c2.066,-0 3.127,-0.492 3.127,-1.451Zm11.06,-4.05c0.93,-2.75 1.994,-7.812 2.365,-11.249c0.781,-7.242 -0.76,-8.397 -4.394,-3.294c-3.364,4.725 -4.314,8.626 -3.563,14.639c0.886,7.084 3.176,7.045 5.592,-0.096l-0,-0Zm136.742,0.225c0.402,-6.123 -1.291,-12.059 -4.406,-15.458l-2.536,-2.766l0.46,8.018c0.758,13.233 5.767,21.12 6.482,10.206Zm11.993,3.129c0.417,-2.203 -3.769,-10.987 -4.902,-10.287c-0.491,0.304 -0.893,3.255 -0.893,6.559c-0,5.96 0.022,6.005 2.741,5.691c1.579,-0.182 2.874,-1.014 3.054,-1.963Zm-33.339,-0.962l3.955,-1.099l-3.32,-1.396c-4.182,-1.758 -8.863,-1.731 -12.091,0.07l-2.5,1.394l2.5,1.007c3.336,1.343 6.678,1.35 11.456,0.022l-0,0.002Zm-119.456,161.959c-1.503,-0.615 -5.957,-0.762 -11.167,-0.368c-6.779,0.512 -9.307,0.324 -11.602,-0.862c-3.097,-1.602 -9.231,-8.018 -9.231,-9.655c-0,-1.252 0.1,-1.239 4.439,0.574c2.933,1.226 4.778,1.337 9.047,0.548c4.875,-0.901 7.823,-0.592 12.514,1.314c1.241,0.504 1.514,-0.557 1.582,-6.146c0.086,-7.03 1.883,-15.255 3.333,-15.255c0.461,-0 1.811,2.261 3,5.025c1.689,3.925 2.208,7.316 2.373,15.501c0.221,10.933 0.129,11.132 -4.288,9.324Zm-5.5,-2.221c1.1,-0.008 3.35,0.302 5,0.692l3,0.708l0.27,-8.844c0.466,-15.233 -4.657,-22.319 -5.586,-7.728c-0.226,3.549 0.066,7.823 0.65,9.498c1.234,3.54 0.346,3.861 -3.585,1.295c-2.091,-1.365 -4.835,-1.75 -12.461,-1.75c-5.379,-0 -9.781,0.259 -9.784,0.576c-0.008,1.055 4.463,4.79 6.996,5.844c1.437,0.598 4.839,0.761 8,0.383c3.025,-0.361 6.4,-0.665 7.5,-0.674l-0,0Zm140.874,-8.281c0.171,-8.784 0.697,-12.947 2.037,-16.098c1.997,-4.7 3.589,-5.532 3.589,-1.876c-0,1.306 0.675,4.288 1.5,6.626c0.825,2.338 1.432,6.107 1.35,8.376c-0.12,3.3 -0.229,3.524 -0.548,1.124c-0.665,-5.014 -3.305,-13.5 -4.2,-13.5c-1.959,-0 -3.335,9.044 -2.642,17.365l0.702,8.429l3.669,-1.016c2.018,-0.558 6.369,-0.771 9.669,-0.473c7.809,0.707 10.606,0.087 14.584,-3.234l3.272,-2.732l-9.154,-0.202c-7.527,-0.166 -9.869,0.162 -13.178,1.851l-4.024,2.052l0.079,-2.27c0.043,-1.248 0.304,-1.714 0.578,-1.035c0.378,0.934 1.274,0.824 3.671,-0.45c2.375,-1.262 5.851,-1.702 13.831,-1.75c9.791,-0.059 10.584,0.076 9.737,1.66c-0.508,0.948 -2.571,2.979 -4.586,4.514c-3.41,2.598 -4.327,2.793 -13.237,2.824c-5.265,0.017 -11.228,0.399 -13.251,0.847l-3.678,0.815l0.23,-11.847l0,-0Zm10.998,-1.464c1.71,-6.032 1.671,-7.699 -0.294,-12.686c-1.143,-2.9 -2.054,-6.718 -2.024,-8.485c0.064,-3.755 2.995,-11.906 4.446,-12.362c1.224,-0.384 5.311,9.328 6.795,16.149c0.599,2.75 1.169,5.129 1.267,5.287c0.098,0.157 2.503,-0.63 5.345,-1.75c2.842,-1.121 6.74,-2.037 8.662,-2.037c1.922,-0 5.125,-0.681 7.116,-1.513c1.992,-0.832 3.823,-1.313 4.068,-1.067c0.245,0.245 -0.837,2.826 -2.404,5.735c-3.908,7.253 -7.453,9.413 -16.588,10.104c-6.241,0.472 -9.738,1.461 -16.163,4.572c-0.498,0.241 -0.599,-0.631 -0.226,-1.947Zm4.807,-1.98c1.126,-0.602 5.859,-1.443 10.518,-1.867c5.983,-0.546 9.255,-1.356 11.137,-2.759c2.674,-1.993 6.77,-8.007 5.987,-8.79c-0.835,-0.835 -14.245,1.764 -18.49,3.584c-2.397,1.028 -4.63,1.769 -4.965,1.648c-0.334,-0.121 -0.726,-2.02 -0.872,-4.22c-0.307,-4.641 -4.675,-16.072 -6.056,-15.848c-0.516,0.083 -1.519,2.108 -2.228,4.5c-1.146,3.863 -1.051,5.165 0.852,11.672c1.179,4.028 1.95,8.64 1.714,10.25c-0.485,3.299 -0.426,3.344 2.403,1.83Zm-162.679,1.56c-1.65,-0.756 -5.25,-1.397 -8,-1.425c-7.908,-0.08 -12.597,-1.837 -16.878,-6.326c-3.559,-3.731 -8.037,-11.632 -7.116,-12.553c0.214,-0.213 1.875,0.516 3.691,1.621c1.817,1.105 5.778,2.326 8.803,2.713c3.025,0.387 7.412,1.533 9.75,2.548l4.25,1.845l0.001,-2.693c0,-1.482 1.35,-5.547 3,-9.034c1.649,-3.487 2.999,-7.462 2.999,-8.833c-0,-3.489 2.103,-2.519 4.346,2.005c2.438,4.919 2.285,12.001 -0.39,18.04c-2.044,4.614 -2.143,7.423 -0.419,11.878c0.792,2.047 0.051,2.086 -4.037,0.214l-0,-0Zm1.339,-4.778c-0.122,-1.822 0.821,-5.884 2.096,-9.026c2.418,-5.959 2.513,-13.612 0.197,-15.928c-1.669,-1.669 -7.426,11.638 -7.363,17.018c0.028,2.337 -0.114,4.25 -0.315,4.25c-0.201,-0 -2.006,-1.113 -4.01,-2.474c-2.005,-1.36 -5.288,-2.713 -7.295,-3.006c-2.007,-0.293 -5.787,-0.902 -8.399,-1.353c-2.613,-0.451 -4.75,-0.585 -4.75,-0.298c-0,0.288 1.187,2.237 2.639,4.332c3.88,5.599 8.018,7.781 14.979,7.899c3.235,0.054 7.007,0.46 8.382,0.9c3.945,1.264 4.075,1.186 3.839,-2.314l0,0Zm-12.83,-13.176c-1.459,-1.554 -5.443,-3.436 -10.597,-5.008c-6.919,-2.111 -8.734,-3.126 -11.198,-6.261c-3.812,-4.85 -6.214,-9.598 -6.214,-12.28c-0,-2.124 0.02,-2.122 2.854,0.263c1.57,1.321 5.733,3.436 9.25,4.7c3.518,1.263 6.823,2.697 7.346,3.187c1.456,1.363 2.552,1.057 1.938,-0.541c-0.302,-0.787 -4.088,-3.272 -8.413,-5.522c-8.868,-4.614 -11.02,-6.879 -13.934,-14.668c-2.944,-7.867 -2.487,-12.526 0.723,-7.386c0.685,1.097 3.722,3.392 6.748,5.1c3.026,1.708 7.236,5.133 9.355,7.612l3.852,4.506l2.174,-4.356c1.195,-2.396 4.633,-7.056 7.638,-10.356l5.465,-6l0.002,5.3c0.002,5.536 -1.31,8.887 -6.031,15.405c-3.496,4.825 -6.251,15.795 -3.967,15.795c0.55,0 1,-1.25 1,-2.777c-0,-3.118 1.606,-5.798 7.147,-11.921c4.393,-4.856 5.316,-4.284 5.208,3.224c-0.066,4.609 -0.688,6.301 -5.09,13.855c-0.68,1.165 -1.242,4.032 -1.25,6.369c-0.017,4.899 -0.753,5.222 -4.006,1.76l0,0Zm6.018,-12.548c1.368,-1.921 2.486,-5.249 2.775,-8.26l0.485,-5.043l-3.26,2.322c-3.581,2.55 -6.971,8.97 -7.005,13.269c-0.023,2.893 -1.703,3.746 -2.628,1.334c-0.299,-0.778 -2.197,-2.556 -4.219,-3.95c-4.148,-2.86 -18.175,-8.8 -18.175,-7.696c-0,0.395 1.403,2.837 3.117,5.426c3.418,5.159 5.662,6.625 13.896,9.075c3.018,0.898 6.607,2.253 7.976,3.01c2.41,1.333 2.525,1.255 3.618,-2.446c0.621,-2.103 2.16,-5.271 3.42,-7.041Zm-10.027,-6.899c-0,-1.065 2.079,-4.973 4.62,-8.685c2.964,-4.33 4.801,-8.205 5.126,-10.813l0.507,-4.065l-4.212,4c-5.329,5.062 -7.815,9.862 -8.045,15.536c-0.233,5.72 -0.192,5.964 1.004,5.964c0.55,-0 1,-0.872 1,-1.937Zm-3,-0.726c-0,-1.235 -5.949,-9.94 -8.306,-12.154c-1.289,-1.211 -4.898,-3.74 -8.02,-5.62l-5.676,-3.418l0.602,2.677c0.332,1.473 1.796,4.703 3.255,7.178c2.096,3.556 4.119,5.263 9.648,8.137c7.406,3.851 8.497,4.261 8.497,3.2Zm189,18.859c-0,-2.476 -1.008,-5.394 -2.887,-8.357c-1.588,-2.504 -3.202,-5.543 -3.586,-6.754c-0.872,-2.746 0.339,-12.085 1.567,-12.085c0.498,-0 0.906,0.675 0.906,1.501c-0,0.826 1.729,3.188 3.843,5.25c4.382,4.274 6.157,7.21 6.157,10.183c-0,1.136 0.45,2.066 1,2.066c0.55,-0 1,-0.444 1,-0.986c-0,-1.476 7.023,-5.836 13.119,-8.144c2.959,-1.12 6.171,-2.746 7.137,-3.614c5.356,-4.81 1.285,7.203 -4.351,12.838c-2.576,2.576 -5.617,4.348 -9.305,5.42c-3.013,0.876 -7.1,2.693 -9.083,4.039c-4.829,3.277 -5.517,3.108 -5.517,-1.357Zm14.951,-4.196c2.884,-0 9.392,-5.399 11.863,-9.841c1.338,-2.405 1.836,-4.159 1.18,-4.159c-2.904,-0 -15.974,6.37 -18.519,9.026c-1.567,1.635 -3.158,2.974 -3.534,2.974c-0.377,-0 -0.974,-1.806 -1.327,-4.012c-0.61,-3.816 -6.562,-11.988 -8.731,-11.988c-2.138,-0 -0.795,8.07 2.105,12.642c1.643,2.591 3.259,6.161 3.592,7.933l0.604,3.221l5.51,-2.898c3.03,-1.594 6.296,-2.898 7.257,-2.898Zm-7.278,-8.66c-0.37,-0.371 -0.673,-1.882 -0.673,-3.359c-0,-2.612 -1.535,-5.206 -7.298,-12.335c-3.003,-3.714 -4.337,-8.981 -3.31,-13.071c0.618,-2.464 0.826,-2.347 7.622,4.302c3.842,3.759 6.986,7.549 6.986,8.42c-0,2.964 2.012,2.842 4.641,-0.282c2.536,-3.014 16.75,-13.015 18.497,-13.015c2.125,-0 -0.137,7.948 -3.743,13.151c-1.846,2.664 -4.646,4.768 -9.224,6.931c-3.615,1.708 -7.98,4.641 -9.699,6.518c-1.719,1.877 -3.429,3.11 -3.799,2.74l-0,-0Zm4.732,-5.696c1.702,-1.295 5.12,-3.369 7.595,-4.608c2.475,-1.238 5.954,-3.633 7.731,-5.322c3.116,-2.961 6.071,-9.245 4.898,-10.418c-1.609,-1.61 -17.652,11.091 -20.467,16.204c-1.004,1.823 -1.105,1.734 -1.138,-1c-0.047,-3.814 -2.33,-7.257 -8.291,-12.503l-4.733,-4.167l-0,4.052c-0,3.39 0.741,4.886 4.541,9.164c2.497,2.812 4.803,6.427 5.125,8.033c0.705,3.525 0.832,3.54 4.739,0.565Zm-157.285,-110.836c-3.673,-0.819 -4.157,-1.191 -3,-2.3c1.85,-1.773 10.286,-4.522 13.665,-4.452c1.493,0.03 4.663,0.846 7.043,1.812c4.943,2.006 4.401,3.174 -2.328,5.022c-4.706,1.292 -9.333,1.268 -15.38,-0.082l0,0Zm16.13,-1.463c4.679,-1.283 0.173,-3.332 -7.25,-3.296c-4.918,0.023 -10.645,2.407 -8,3.33c4.056,1.414 10.018,1.401 15.25,-0.034l-0,0Zm-22.25,-1.723c-0,-0.208 0.675,-1.993 1.5,-3.968c0.825,-1.974 1.51,-5.067 1.522,-6.872c0.043,-6.493 4.17,-12.774 11.43,-17.397c2.919,-1.859 2.942,-1.858 2.114,0.118c-0.903,2.152 -3.178,10.43 -3.984,14.499c-0.742,3.742 -12.582,16.559 -12.582,13.62l-0,0Zm8.297,-8.851c2.554,-3.155 6.39,-15.417 5.197,-16.61c-0.776,-0.777 -5.476,3.508 -6.952,6.339c-1.991,3.817 -3.68,14.713 -2.205,14.221c0.575,-0.192 2.357,-1.969 3.96,-3.95Zm109.986,5.979c-3.88,-4.056 -7.027,-10.094 -8.836,-16.95c-0.766,-2.905 -1.855,-5.436 -2.42,-5.624c-1.601,-0.534 -1.206,-2.176 0.522,-2.176c2.671,-0 7.208,2.85 9.37,5.886c1.142,1.605 2.747,6.421 3.567,10.703c0.819,4.283 1.945,8.242 2.502,8.799c1.401,1.401 1.265,2.612 -0.292,2.612c-0.717,-0 -2.703,-1.463 -4.413,-3.25Zm0.724,-8.219c-1.867,-8.033 -3.836,-11.834 -7.007,-13.531c-2.483,-1.329 -2.569,-0.278 -0.535,6.568c1.559,5.25 6.894,14.432 8.385,14.432c0.491,-0 0.112,-3.361 -0.843,-7.469Zm-92.507,7.787c-5.481,-1.05 -10.5,-2.663 -10.5,-3.376c-0,-0.83 10.163,-4.931 12.287,-4.957c0.759,-0.012 0.654,-0.369 -0.28,-0.959c-1.232,-0.779 -0.806,-1.648 2.438,-4.97c4.937,-5.055 9.103,-6.553 14.254,-5.123c2.091,0.581 5.038,1.058 6.551,1.061c1.512,0.003 2.749,0.343 2.749,0.756c-0.002,1.376 -10.422,6.638 -16.499,8.331l-6,1.672l6.25,1.254c3.437,0.689 6.25,1.576 6.25,1.971c-0,2.144 -12.622,5.274 -17.5,4.34l-0,-0Zm12,-2.782c2.372,-1.086 2.581,-1.394 1,-1.469c-1.1,-0.053 -3.878,-0.751 -6.174,-1.55c-3.694,-1.287 -4.781,-1.274 -9.461,0.116c-5.217,1.549 -5.255,1.589 -2.827,2.933c3.175,1.758 13.596,1.74 17.462,-0.03l-0,0Zm6.765,-10.521c5.745,-2.875 5.042,-4.008 -2.9,-4.679c-5.462,-0.461 -6.123,-0.278 -9.615,2.657c-2.063,1.734 -3.75,3.624 -3.75,4.2c-0,1.86 11.192,0.361 16.265,-2.178Zm37.772,12.145c-4.397,-2.358 -4.973,-4.049 -1.349,-3.962c2.428,0.058 10.312,-2.539 10.312,-3.397c-0.001,-0.166 -2.049,-0.345 -4.551,-0.398c-4.547,-0.097 -17.409,-5.783 -18.157,-8.027c-0.473,-1.419 13.185,-3.386 16.636,-2.397c3.903,1.12 7.635,3.706 9.538,6.61c1.527,2.331 1.495,2.493 -0.681,3.367c-1.503,0.603 -1.732,0.939 -0.669,0.981c2.34,0.091 11.884,4.19 11.884,5.102c-0,1.415 -9.285,3.961 -14.444,3.961c-3.03,-0 -6.475,-0.744 -8.519,-1.84Zm15.213,-0.213c4.577,-1.271 4.753,-2.402 0.601,-3.849c-4.438,-1.547 -7.804,-1.306 -11.851,0.85l-3.5,1.864l3.5,1.003c4.682,1.344 6.798,1.368 11.25,0.132l-0,0Zm-4.427,-10.697c-0.178,-0.963 -2.348,-2.794 -4.823,-4.069c-3.528,-1.818 -5.532,-2.206 -9.274,-1.794c-6.238,0.685 -7.385,1.463 -4.812,3.265c3.519,2.465 9.377,4.204 14.409,4.277c4.071,0.06 4.773,-0.202 4.5,-1.679Zm-81.823,8.236c-0,-0.282 0.447,-1.295 0.994,-2.25c0.547,-0.955 1.93,-4.326 3.074,-7.492c1.387,-3.837 3.138,-6.541 5.256,-8.115c3.059,-2.273 11.62,-5.629 14.357,-5.629c2.278,-0 -9.458,14.265 -15.838,19.25c-5.574,4.356 -7.843,5.581 -7.843,4.236Zm15.127,-12.972c2.68,-3.292 4.873,-6.329 4.873,-6.75c-0,-2.357 -8.474,0.822 -11.612,4.357c-2.097,2.363 -4.388,7.889 -4.388,10.585c-0,2.56 5.925,-1.801 11.127,-8.192Zm76.487,9.378c-2.567,-2.26 -6.07,-6.198 -7.786,-8.75c-1.715,-2.553 -4.491,-6.105 -6.169,-7.892c-2.87,-3.056 -2.923,-3.25 -0.89,-3.25c3.483,-0 11.546,3.031 13.947,5.243c1.218,1.122 3.156,4.868 4.306,8.323c1.15,3.455 2.74,6.822 3.534,7.481c1.991,1.651 1.807,2.953 -0.415,2.953c-1.023,-0 -3.96,-1.849 -6.527,-4.108Zm2.263,-5.55c-1.092,-3.372 -2.765,-6.836 -3.718,-7.698c-2.505,-2.267 -8.957,-4.78 -9.601,-3.739c-0.76,1.23 7.452,12.176 11.531,15.367c1.842,1.442 3.445,2.527 3.561,2.411c0.117,-0.117 -0.681,-2.97 -1.773,-6.341Zm67.86,223.261c1.973,-4.061 2.032,-5.603 0.213,-5.603c-0.394,-0 -0.952,0.9 -1.24,2c-0.288,1.1 -0.923,2 -1.413,2c-0.489,-0 -3.757,-3.203 -7.261,-7.117c-5.674,-6.337 -6.236,-7.333 -5.135,-9.097c2.257,-3.613 0.123,-3.213 -4.154,0.779c-2.319,2.164 -4.411,4.047 -4.648,4.185c-0.238,0.137 -0.125,0.557 0.251,0.933c0.376,0.376 1.216,0.151 1.867,-0.5c0.651,-0.651 1.468,-1.183 1.817,-1.183c0.349,-0 4.196,4.046 8.55,8.991c4.354,4.944 8.164,8.994 8.467,9c0.303,0.005 1.512,-1.97 2.686,-4.388l0,0Zm-222.835,0.779c-1.175,-1.416 -0.373,-2.546 6.452,-9.09c6.626,-6.353 8.169,-7.378 10.303,-6.842c2.38,0.597 2.314,0.396 -1.286,-3.91c-2.087,-2.497 -4.149,-4.54 -4.583,-4.54c-1.131,-0 -0.973,1.768 0.224,2.507c1.357,0.839 0.183,2.664 -3.913,6.084l-3.4,2.84l-4.86,-5.466l-4.86,-5.465l3.592,-3.338c2.801,-2.604 4.142,-3.2 6.093,-2.71c2.369,0.594 2.3,0.386 -1.293,-3.912c-2.087,-2.497 -4.149,-4.54 -4.583,-4.54c-1.172,-0 -0.954,1.779 0.314,2.563c0.672,0.415 -1.573,3.394 -5.75,7.63c-8.128,8.242 -9.922,9.409 -11.916,7.754c-2.492,-2.068 -1.561,0.037 1.814,4.102c3.484,4.196 5.24,5.07 4.311,2.144c-0.381,-1.201 0.444,-2.782 2.459,-4.712l3.032,-2.905l5.208,5.208l5.209,5.208l-3.241,3.241c-2.832,2.833 -3.491,3.084 -5.234,1.995c-1.097,-0.685 -1.994,-0.986 -1.994,-0.669c-0,1.33 6.613,8.406 7.872,8.423c1.151,0.014 1.156,-0.243 0.03,-1.6l0,0Zm227.908,-19.565c0.454,-3.932 -3.014,-5.614 -5.81,-2.817c-2.797,2.796 -1.115,6.264 2.817,5.81c2.07,-0.239 2.754,-0.923 2.993,-2.993Zm24.053,-14.372c2.95,-4.703 5.063,-8.852 4.696,-9.219c-0.367,-0.368 -1.045,-0.058 -1.506,0.688c-0.668,1.081 -1.928,0.732 -6.214,-1.72c-9.172,-5.248 -13.842,-9.025 -13.206,-10.681c0.32,-0.832 0.193,-1.513 -0.282,-1.513c-0.474,-0 -3.227,3.712 -6.116,8.25l-5.254,8.25l2.625,2.301c3.02,2.648 4.117,2.33 2.254,-0.654c-1.065,-1.705 -0.994,-2.644 0.429,-5.628c0.939,-1.969 2.372,-3.836 3.184,-4.147c1.349,-0.518 8.527,3.106 8.527,4.305c-0,0.283 -0.786,1.845 -1.747,3.471c-1.161,1.966 -2.333,2.803 -3.499,2.498c-3.328,-0.87 -2.58,0.909 1.326,3.158c3.636,2.092 5.213,1.889 2.944,-0.38c-0.634,-0.634 -0.278,-2.123 1.018,-4.254l1.994,-3.278l3.982,2.238c2.19,1.231 3.982,2.675 3.982,3.21c-0,0.534 -1.162,2.495 -2.583,4.357c-1.889,2.477 -3.096,3.222 -4.5,2.777c-1.054,-0.335 -1.917,-0.277 -1.917,0.13c-0,0.916 3.093,4.396 3.905,4.394c0.327,-0.001 3.008,-3.85 5.958,-8.553l0,0Zm-278.05,3.33c-0.259,-1.839 1.16,-3.126 8.187,-7.423c8.33,-5.094 12,-6.407 12,-4.293c-0,0.582 0.422,0.798 0.937,0.479c0.919,-0.568 -5.844,-13.653 -8.51,-16.466c-1.159,-1.222 -1.753,-1.228 -4.14,-0.043l-2.787,1.383l2.76,0.361c1.827,0.239 3.601,1.599 5.25,4.026c1.369,2.016 2.49,3.966 2.49,4.334c-0,0.798 -6.717,4.867 -8.034,4.867c-0.506,-0 -1.686,-1.169 -2.622,-2.598c-1.37,-2.091 -1.471,-2.97 -0.515,-4.5c1.48,-2.37 0.243,-2.42 -3.742,-0.152c-3.11,1.77 -4.322,3.938 -1.623,2.902c1.632,-0.626 6.025,4.747 5.102,6.24c-0.308,0.499 -2.108,1.82 -4,2.936c-3.866,2.281 -4.505,1.926 -6.938,-3.86c-1.276,-3.035 -1.252,-3.523 0.221,-4.6c2.358,-1.724 0.768,-2.762 -2.014,-1.314c-3.211,1.673 -3.138,1.505 -1.78,4.11c2.99,5.738 9.081,15.836 9.552,15.836c0.285,-0 0.378,-1.002 0.206,-2.225l-0,-0Zm290.988,-27.302c5.707,-11.748 -0.043,-23.481 -11.502,-23.469c-7.747,0.008 -14.225,7.352 -14.277,16.187c-0.033,5.404 1.636,5.534 2.24,0.175c0.942,-8.361 6.973,-13 14.66,-11.275c4.728,1.061 9.079,5.939 9.074,10.175c-0.006,4.866 -3.356,9.727 -6.732,9.766c-2.647,0.03 -2.682,0.094 -0.823,1.5c3.252,2.459 5.039,1.717 7.36,-3.059l-0,0Zm-282.198,-8.066c-0.337,-0.876 -0.884,-2.676 -1.216,-4c-0.663,-2.643 -2.387,-3.298 -2.387,-0.907c-0,1.031 -1.035,1.5 -3.309,1.5c-3.11,-0 -3.412,-0.317 -5.009,-5.25l-1.699,-5.25l2.695,-2.186c2.498,-2.027 2.788,-2.064 3.976,-0.5c1.599,2.103 1.644,1.254 0.227,-4.371c-1.043,-4.143 -2.881,-6.123 -2.881,-3.105c-0,0.736 -4.5,5.286 -10,10.112c-5.5,4.826 -10,9.154 -10,9.617c-0,0.969 2.639,1.438 16.487,2.931c5.493,0.592 10.421,1.51 10.95,2.039c1.512,1.512 2.839,1.126 2.166,-0.63Zm-18.353,-4.208c-2.338,-0.173 -4.25,-0.715 -4.25,-1.206c-0,-1.005 6.875,-6.487 7.379,-5.883c0.939,1.128 2.403,6.886 1.811,7.125c-0.38,0.153 -2.603,0.138 -4.94,-0.036l-0,0Zm309.984,-19.449c0.521,-4.983 0.2,-5.72 -1.495,-3.425c-1.112,1.506 -2.139,1.562 -9.989,0.543c-4.813,-0.624 -8.743,-1.412 -8.733,-1.751c0.008,-0.34 5.184,-3.917 11.5,-7.949c11.168,-7.132 11.483,-7.431 11.483,-10.941c-0,-3.24 -0.136,-3.424 -1.324,-1.799c-1.24,1.696 -2.011,1.73 -12.136,0.53c-9.459,-1.121 -10.879,-1.536 -11.344,-3.316c-0.52,-1.988 -0.55,-1.99 -1.294,-0.089c-1.118,2.857 -1.058,7.447 0.098,7.447c0.55,-0 1,-0.698 1,-1.55c-0,-1.305 0.987,-1.445 6.25,-0.887c3.437,0.365 7.805,0.966 9.705,1.335l3.456,0.673l-11.651,7.35c-6.408,4.043 -11.915,8.041 -12.239,8.885c-0.71,1.85 1.105,3.158 4.411,3.178c1.338,0.009 6.4,0.525 11.25,1.147c7.542,0.967 8.818,1.401 8.818,3c-0,3.694 1.799,1.777 2.234,-2.381l0,-0Zm-321.652,-0.75c2.312,-0 1.612,-1.833 -0.832,-2.181c-1.698,-0.241 -2.324,-1.08 -2.552,-3.417l-0.302,-3.099l10.728,-1.271c10.038,-1.19 10.813,-1.155 12.052,0.539c1.178,1.612 1.316,1.378 1.254,-2.13c-0.074,-4.131 -1.721,-9.631 -1.86,-6.21c-0.079,1.937 -1.241,2.289 -12.393,3.746c-11.033,1.443 -10.677,1.525 -10.677,-2.477c-0,-2.445 0.452,-3.5 1.5,-3.5c0.825,-0 1.5,-0.45 1.5,-1c-0,-0.55 -1.408,-1 -3.128,-1c-3.05,-0 -3.113,0.093 -2.553,3.75c0.316,2.062 0.859,6.675 1.206,10.25c0.814,8.38 1.155,9.337 3.065,8.604c0.865,-0.332 2.212,-0.604 2.992,-0.604Zm18.418,-31.375c-0,-1.306 0.281,-3.781 0.625,-5.5c0.404,-2.019 0.226,-3.125 -0.5,-3.125c-0.619,-0 -1.125,0.733 -1.125,1.629c-0,1.417 -0.947,1.543 -7.25,0.969c-14.573,-1.327 -15.75,-1.625 -15.75,-3.989c-0,-2.847 2.691,-6.609 4.728,-6.609c2.62,-0 5.272,3.095 5.272,6.155c-0,1.565 0.213,2.845 0.473,2.845c0.26,-0 3.86,-2.09 8,-4.645c6.525,-4.027 7.527,-5.025 7.527,-7.499l-0,-2.853l-4.75,3.368c-8.248,5.847 -8.943,6.041 -10.443,2.913c-2.478,-5.166 -8.68,-6.259 -10.994,-1.936c-1.129,2.111 -2.968,16.782 -2.203,17.579c0.226,0.235 0.968,-0.267 1.65,-1.115c1.081,-1.344 2.585,-1.399 11.729,-0.427c8.664,0.921 10.548,1.42 10.824,2.865c0.496,2.601 2.187,2.118 2.187,-0.625Zm281.256,-3.495c0.394,-1.507 1.821,-2 7.366,-2.542c3.783,-0.369 8.727,-0.919 10.987,-1.222c3.658,-0.491 4.195,-0.294 4.891,1.791l0.782,2.343l0.398,-2.5c0.219,-1.375 -0.029,-4.3 -0.551,-6.5c-0.802,-3.38 -1.055,-3.668 -1.629,-1.854c-0.553,1.747 -1.73,2.264 -6.34,2.781c-17.474,1.961 -16.066,2.001 -16.986,-0.484c-1.241,-3.356 -1.872,-1.185 -1.397,4.807c0.418,5.281 1.57,6.852 2.479,3.38Zm9.709,-17.064c0.569,-1.064 1.035,-4.182 1.035,-6.929c-0,-5.097 1.708,-8.137 4.571,-8.137c2.275,-0 5.429,3.771 5.429,6.491c-0,1.409 -0.87,3.035 -2,3.741c-2.827,1.765 -2.481,2.956 0.75,2.584c2.614,-0.3 2.748,-0.574 2.709,-5.529c-0.053,-6.77 -2.985,-10.287 -8.577,-10.287c-4.921,-0 -6.882,2.714 -6.882,9.522c-0,5.335 -1.204,7.478 -4.2,7.478c-5.279,-0 -7.946,-9.259 -3.55,-12.326c2.247,-1.568 2.246,-1.569 -0.981,-1.622c-2.585,-0.042 -3.35,0.421 -3.825,2.314c-0.915,3.647 1.312,10.297 4.215,12.58c3.474,2.733 9.871,2.801 11.306,0.12l-0,-0Zm-287.586,-6.816c0.283,-0.963 0.791,-3.55 1.129,-5.75c0.552,-3.586 0.467,-3.817 -0.821,-2.23c-1.37,1.687 -1.941,1.662 -12.312,-0.552c-8.412,-1.796 -10.878,-2.691 -10.888,-3.95c-0.03,-3.775 -1.372,-2.533 -2.39,2.212c-1.434,6.687 -1.345,7.932 0.4,5.626c1.392,-1.838 1.687,-1.843 10.114,-0.17c11.267,2.238 13.741,3.203 13.022,5.078c-0.314,0.817 -0.165,1.486 0.331,1.486c0.495,-0 1.132,-0.788 1.415,-1.75l0,-0Zm4.631,-21.025c4.284,-4.284 6.628,-10.63 5.498,-14.885c-0.818,-3.079 -1.02,-2.779 -1.976,2.931c-0.778,4.654 -5.63,10.372 -9.525,11.227c-4.177,0.918 -11.454,-2.527 -13.436,-6.361c-2.022,-3.909 -1.985,-4.652 0.49,-9.763c1.699,-3.51 2.615,-4.311 5.224,-4.565l3.163,-0.309l-2.752,-1.792c-3.457,-2.25 -4.33,-1.691 -7.289,4.664c-5.671,12.18 -0.154,22.615 11.96,22.624c4.3,0.003 5.309,-0.437 8.643,-3.771Zm280.059,0.191c1.76,-2.121 0.06,-4.816 -3.292,-5.22c-2.793,-0.337 -4.217,1.842 -3.233,4.945c0.73,2.299 4.707,2.466 6.525,0.275l0,0Zm-9.814,-15.059c8.411,-4.721 10.357,-5.456 11.9,-4.492c2.421,1.512 2.337,0.084 -0.254,-4.308c-2.421,-4.103 -3.156,-4.467 -2.714,-1.343c0.259,1.835 -1.022,2.97 -7.48,6.625c-4.285,2.425 -7.972,4.23 -8.192,4.01c-0.22,-0.22 1.827,-6.013 4.549,-12.874c4.912,-12.383 4.936,-12.499 3.248,-15.664c-1.756,-3.291 -3.467,-3.649 -2.678,-0.56c0.627,2.454 -18.393,13.258 -19.678,11.178c-1.73,-2.799 -1.981,-0.048 -0.314,3.447c1.618,3.394 4.211,5.291 3.032,2.218c-0.297,-0.773 0.218,-2.054 1.143,-2.845c2.533,-2.166 13.238,-8.027 13.741,-7.524c0.242,0.242 -1.631,5.921 -4.162,12.619c-4.073,10.781 -4.889,15.156 -2.827,15.156c0.347,0 5.156,-2.54 10.686,-5.643l0,-0Zm-256.255,-12.504c-0,-0.975 -0.267,-0.986 -1.2,-0.053c-1.718,1.718 -2.363,1.517 -4.22,-1.319c-1.589,-2.424 -1.535,-2.686 1.433,-7c3.331,-4.842 3.588,-4.963 7.403,-3.513c1.701,0.647 2.351,1.476 1.958,2.5c-0.901,2.348 0.967,1.819 2.538,-0.718c0.766,-1.237 2.068,-3.288 2.893,-4.557c1.455,-2.238 1.42,-2.287 -1.156,-1.641c-1.462,0.367 -8.293,-0.335 -15.201,-1.561c-6.9,-1.225 -12.796,-1.977 -13.102,-1.67c-0.307,0.307 2.688,5.758 6.656,12.115c3.968,6.356 6.972,12.189 6.675,12.963c-0.297,0.773 -0.273,1.672 0.053,1.998c0.722,0.722 5.27,-5.789 5.27,-7.544l-0,0Zm-11.466,-10.981l-2.733,-4.129l4.85,0.722c2.667,0.397 5.005,0.874 5.196,1.059c0.495,0.48 -3.144,6.476 -3.93,6.476c-0.358,0 -1.881,-1.858 -3.383,-4.128Zm249.76,-5.541c6.413,-3.278 8.576,-12.26 4.432,-18.409c-7.127,-10.576 -20.972,-10.354 -26.083,0.418c-2.054,4.328 -2.071,6.956 -0.072,11.168c3.958,8.342 13.121,11.22 21.723,6.823l0,0Zm-14.544,-1.411c-2.778,-1.618 -5.018,-6.833 -4.356,-10.143c1.255,-6.274 7.391,-11.777 13.133,-11.777c4.181,0 8.473,4.988 8.473,9.846c-0,8.299 -10.779,15.843 -17.25,12.074Zm-200.638,-8.599c3.788,-3.674 6.873,-6.936 6.855,-7.25c-0.068,-1.168 -4.038,-5.334 -4.573,-4.798c-0.306,0.305 -0.023,1.553 0.63,2.772c1.054,1.97 0.757,2.644 -2.688,6.09l-3.874,3.874l-7.833,-7.88c-7.039,-7.08 -7.718,-8.094 -6.696,-10.004c1.654,-3.091 0.097,-2.564 -4.183,1.415c-4.162,3.87 -4.647,4.879 -1.929,4.017c2.356,-0.748 16.179,13.209 16.179,16.336c-0,1.159 0.275,2.107 0.612,2.107c0.337,-0 3.712,-3.006 7.5,-6.679Zm183.818,-7.905c-1.359,-1.638 -0.732,-2.734 6.811,-11.916c3.589,-4.37 5.517,-5.935 7.094,-5.762c3.029,0.333 2.701,-0.816 -1.085,-3.801c-5.349,-4.217 -5.905,-4.4 -5.233,-1.727c0.47,1.873 -0.716,4.069 -5.581,10.334c-5.16,6.646 -6.61,7.923 -8.807,7.753c-2.459,-0.189 -2.339,0.048 1.861,3.661c4.195,3.608 7.546,4.597 4.94,1.458Zm-17.49,-11.836c-1.526,-1.116 -1.247,-1.996 3.068,-9.654c6.355,-11.279 6.135,-11.046 9.147,-9.674c1.888,0.861 2.393,1.717 2.055,3.484c-0.53,2.771 1.024,2.55 3,-0.426c1.309,-1.972 0.979,-2.299 -6.415,-6.347c-4.287,-2.348 -8.779,-4.907 -9.982,-5.689c-2.034,-1.322 -2.297,-1.206 -3.775,1.653c-1.598,3.088 -0.95,4.085 1.235,1.9c1.438,-1.439 6.23,0.41 6.221,2.401c-0.002,0.7 -2.159,5.097 -4.791,9.772c-3.937,6.992 -5.178,8.458 -6.995,8.262c-3.523,-0.38 -2.575,1.037 2.545,3.801c4.693,2.535 7.935,2.892 4.687,0.517Zm-155.64,-1.78c1.8,-1.8 1.446,-4.598 -0.728,-5.761c-2.442,-1.307 -4.817,-0.419 -5.617,2.101c-1.185,3.736 3.542,6.463 6.345,3.66Zm22.483,-1.531c4.646,-2.432 4.938,-2.765 2.669,-3.047c-2.121,-0.263 -3.344,-1.919 -7.301,-9.885c-2.614,-5.263 -4.618,-9.681 -4.452,-9.817c0.165,-0.137 1.351,-0.796 2.634,-1.464c1.961,-1.021 2.663,-0.923 4.4,0.614c2.045,1.811 2.059,1.799 1.335,-1.168c-0.402,-1.649 -0.932,-3.2 -1.179,-3.446c-0.749,-0.749 -20.391,9.289 -20.357,10.404c0.04,1.312 2.454,4.54 3.395,4.54c0.389,-0 0.434,-0.862 0.1,-1.915c-0.416,-1.311 0.106,-2.415 1.655,-3.5c1.244,-0.872 2.608,-1.585 3.031,-1.585c0.423,-0 2.993,4.433 5.712,9.851c4.593,9.152 4.827,9.968 3.295,11.5c-2.355,2.355 -0.914,2.047 5.063,-1.082l0,-0Zm114.439,-5.681c-1.676,-1.272 -1.543,-1.957 2.339,-12.008c3.559,-9.214 4.376,-10.576 6.028,-10.052c1.051,0.334 1.911,0.169 1.911,-0.367c-0,-0.898 -8.102,-4.161 -10.333,-4.161c-0.538,-0 -0.282,0.787 0.568,1.75c1.407,1.594 1.215,2.597 -2.154,11.25c-2.959,7.599 -4.138,9.564 -5.89,9.819c-3.319,0.484 -2.648,1.592 2.059,3.401c5.457,2.097 7.974,2.266 5.472,0.368Zm-93.722,-2.684c4.027,-1.088 4.239,-1.283 2.016,-1.851c-2.182,-0.558 -2.83,-1.895 -5.329,-10.987c-3.072,-11.182 -2.908,-12.019 2.363,-12.051c5.57,-0.033 6.906,5.965 1.956,8.781c-1.646,0.937 -2.996,1.975 -3,2.306c-0.006,0.565 10.106,8.736 12.66,10.23c0.641,0.375 2.431,0.201 3.977,-0.387l2.812,-1.069l-2.978,-1.457c-1.637,-0.802 -4.741,-2.948 -6.897,-4.769l-3.919,-3.312l2.169,-2.169c3.94,-3.939 2.033,-11.169 -2.946,-11.169c-2.875,-0 -15.221,3.127 -16.334,4.138c-0.57,0.517 -0.261,0.862 0.771,0.862c2.067,-0 2.924,1.908 5.79,12.903c2.023,7.761 2.064,8.495 0.54,9.61c-2.166,1.584 -2.111,2.755 0.099,2.114c0.962,-0.279 3.775,-1.055 6.25,-1.723l-0,-0Zm76.58,-5.79c5.785,-3.527 8.437,-14.176 4.648,-18.657c-3.099,-3.665 -4.828,-4.448 -14.261,-6.464c-9.464,-2.023 -11.651,-1.955 -8.644,0.267c1.565,1.157 1.541,1.943 -0.357,11.702c-1.119,5.754 -2.569,10.792 -3.222,11.196c-1.579,0.976 -0.989,1.385 3.756,2.606c6.734,1.733 14.639,1.449 18.08,-0.65l-0,0Zm-14.4,-1.171c-1.565,-0.628 -2.153,-1.501 -1.807,-2.687c0.281,-0.966 1.274,-5.694 2.206,-10.506c1.847,-9.536 1.902,-9.585 8.539,-7.597c5.062,1.517 7.115,3.947 7.235,8.566c0.261,10.022 -7.339,15.766 -16.173,12.224Zm-36.348,0.998c2.28,-0.05 2.43,-0.221 1.03,-1.174c-1.308,-0.891 -1.439,-1.683 -0.65,-3.947c1.084,-3.108 3.622,-4.149 8.881,-3.644c2.69,0.258 3.576,0.913 4.389,3.24c0.763,2.185 0.704,3.021 -0.232,3.333c-2.961,0.988 -0.857,2.251 3.75,2.251c2.75,-0 5,-0.45 5,-1c-0,-0.55 -0.482,-1 -1.072,-1c-0.589,-0 -3.742,-5.625 -7.006,-12.5c-3.264,-6.875 -6.34,-12.5 -6.835,-12.5c-0.496,-0 -3.054,5.512 -5.685,12.25c-2.63,6.737 -5.372,12.75 -6.092,13.36c-1.808,1.533 -1.645,2.732 0.272,1.997c0.87,-0.334 2.782,-0.634 4.25,-0.666l-0,0Zm3.168,-11.819c-0,-1.288 3.062,-8.4 3.435,-7.98c0.176,0.197 1.283,2.27 2.462,4.608l2.143,4.25l-4.02,-0c-2.211,-0 -4.02,-0.395 -4.02,-0.878Zm98,312.897c0.825,-0.574 5.659,-3.625 10.741,-6.781c13.071,-8.115 22.96,-16.127 33.447,-27.097c25.363,-26.53 40.799,-55.823 48.551,-92.141c2.431,-11.385 2.672,-14.507 2.711,-35c0.038,-19.686 -0.247,-23.938 -2.28,-34c-13.803,-68.325 -61.751,-121.91 -126.539,-141.417c-19.469,-5.861 -28.547,-7.083 -52.631,-7.083c-24.084,-0 -33.163,1.222 -52.631,7.083c-69.296,20.864 -119.867,81.385 -128.391,153.653c-1.897,16.084 -0.781,43.077 2.393,57.913c10.685,49.935 39.034,90.845 81.928,118.224c9.089,5.802 9.148,5.866 4.869,5.225c-2.772,-0.415 -6.915,-2.392 -11.5,-5.49c-38.377,-25.926 -64.775,-63.423 -76.636,-108.858l-1.109,-4.25l-140.923,-0l-0,-10l68.941,-0c37.917,-0 69.139,-0.338 69.381,-0.75c0.242,-0.413 0.217,-2.213 -0.055,-4l-0.494,-3.25l-137.878,-0l0.303,-5.25l0.302,-5.25l68.25,-0.257c66.437,-0.25 68.25,-0.308 68.25,-2.168c-0,-5.402 4.446,-5.075 -69.107,-5.075l-67.893,0l-0,-10.986l68.25,-0.257l68.25,-0.257l0.304,-3.128c0.257,-2.639 -0.096,-3.228 -2.256,-3.771c-1.408,-0.353 -32.145,-0.612 -68.304,-0.575l-65.744,0.067l-0.302,-5.046l-0.303,-5.047l69.053,0c65.092,0 69.053,-0.1 69.065,-1.75c0.008,-0.962 0.285,-2.762 0.617,-4l0.603,-2.25l-139.233,0l-0,-10l140.923,0l1.075,-4.25c6.284,-24.834 20.393,-52.944 35.923,-71.571c2.898,-3.477 5.033,-6.558 4.743,-6.848c-1.567,-1.567 -64.833,12.887 -87.884,20.077c-8.096,2.526 -14.959,4.592 -15.25,4.592c-0.292,0 -0.53,-13.927 -0.53,-30.949l-0,-30.949l5.5,-1.734l5.5,-1.733l-0,-85.818c-0,-47.199 -0.338,-85.81 -0.75,-85.802c-0.413,0.008 -4.8,1.271 -9.75,2.804l-9,2.789l-0.5,117.397l-0.5,117.397l-6,2.22c-20.485,7.58 -28.07,10.107 -28.602,9.531c-0.33,-0.359 -3.705,-11.901 -7.5,-25.649l-6.898,-24.997l-0.265,28.648l-0.266,28.648l-31.708,15.848c-17.44,8.717 -32.058,15.999 -32.485,16.182c-0.427,0.184 -0.776,-13.83 -0.776,-31.141l-0,-31.474l6.496,-3.359l6.496,-3.359l0.004,-84.75c0.002,-46.613 -0.334,-84.742 -0.746,-84.732c-0.413,0.01 -3.185,1.36 -6.16,3c-2.975,1.64 -5.563,2.982 -5.75,2.982c-0.187,-0 -0.34,-14.116 -0.34,-31.368l-0,-31.368l13.25,-7.053c23.18,-12.339 34.653,-17.713 35.606,-16.68c0.491,0.533 3.472,10.644 6.624,22.469c3.152,11.825 6.12,22.175 6.595,23c0.501,0.87 0.877,-9.919 0.894,-25.703l0.031,-27.204l4.75,-2.111c39.562,-17.59 100.218,-35.905 150.25,-45.368c23.88,-4.516 66.831,-10.614 74.763,-10.614c0.999,-0 1.21,6.473 1.001,30.75l-0.264,30.75l-4.5,0.5c-3.536,0.393 -4.56,0.928 -4.778,2.5c-0.337,2.419 7.5,62.556 8.25,63.305c0.29,0.291 0.529,0.116 0.532,-0.388c0.001,-0.505 2.236,-20.267 4.966,-43.917c2.729,-23.65 5.915,-51.325 7.079,-61.5c2.809,-24.555 2.256,-22.624 6.686,-23.356c6.916,-1.143 20.296,-0.751 20.697,0.606c0.203,0.687 2.929,20.825 6.058,44.75c7.56,57.82 10.763,81.08 11.116,80.727c0.426,-0.426 7.394,-60.923 7.394,-64.192l-0,-2.766l-5.5,0.688l-5.5,0.687l-0,-62.144l28.36,-0c15.598,-0 30.455,0.287 33.014,0.638l4.654,0.638l-0.528,61.112l-5.75,-0.266c-3.163,-0.147 -5.744,0.103 -5.736,0.555c0.009,0.453 -1.566,13.198 -3.498,28.323c-1.932,15.125 -5.749,46.4 -8.482,69.5c-2.733,23.1 -6.109,51.443 -7.502,62.984c-1.393,11.541 -2.532,21.779 -2.532,22.75c-0,1.386 0.839,1.766 3.901,1.766c5.874,-0 25.963,3.637 35.941,6.508c23.384,6.728 45.301,17.944 63.908,32.706c3.437,2.727 6.246,4.357 6.241,3.622c-0.006,-0.735 -4.463,-32.836 -9.907,-71.336c-5.444,-38.5 -12.509,-88.613 -15.699,-111.361c-3.191,-22.749 -6.27,-41.503 -6.843,-41.676c-0.573,-0.172 -3.18,-0.6 -5.792,-0.95l-4.75,-0.636l-0,-60.877l3.75,0.017c7.905,0.037 48.892,5.447 58.014,7.658l2.264,0.549l-0.528,61.276l-4.564,-0.325l-4.564,-0.324l3.177,23.824c1.747,13.104 4.239,32.262 5.536,42.575c1.297,10.312 2.642,18.75 2.99,18.75c0.347,-0 1.407,-5.963 2.354,-13.25c0.947,-7.288 3.461,-25.4 5.586,-40.25c2.125,-14.85 3.554,-27.311 3.175,-27.69c-0.38,-0.38 -2.94,-1.065 -5.69,-1.523l-5,-0.833l-0.264,-30.843l-0.265,-30.843l4.764,0.679c23.445,3.342 81.591,18.979 110.765,29.788l9,3.335l0.5,14.386l0.5,14.387l4.486,-5.922c7.328,-9.674 12.267,-15.421 13.252,-15.421c1.913,-0 31.846,13.365 46.55,20.785l15.287,7.715l8.432,19l8.431,19l0.062,73.38l-8.75,-4.685c-4.812,-2.577 -13.925,-7.387 -20.25,-10.69l-11.5,-6.005l-0.27,-19.537l-0.271,-19.538l-8.494,-4.212c-4.672,-2.317 -8.938,-4.213 -9.48,-4.213c-0.639,-0 -0.985,29.858 -0.985,85.037l0,85.037l9.25,4.281l9.25,4.282l0.271,-19.819c0.149,-10.9 0.537,-19.818 0.862,-19.818c0.325,-0 9.541,4.559 20.479,10.131l19.888,10.132l0,69.807l-6.284,7.715c-3.456,4.243 -7.583,9.515 -9.171,11.715c-1.589,2.2 -2.995,4.146 -3.126,4.326c-0.13,0.179 -3.541,-1.48 -7.578,-3.687c-7.305,-3.993 -32.924,-15.731 -48.52,-22.231l-8.178,-3.408l-13.964,-29l-0.089,11.857c-0.083,10.87 -0.236,11.799 -1.84,11.163c-6.729,-2.665 -38.483,-13.05 -47.619,-15.572c-6.122,-1.69 -12.143,-3.485 -13.381,-3.989l-2.25,-0.916l0,-61.276l2.25,0.617c1.238,0.339 3.938,0.899 6,1.244l3.75,0.627l0,-171.952l-8.25,-2.165c-4.537,-1.191 -8.758,-2.159 -9.378,-2.152c-0.637,0.008 -1.641,3.389 -2.304,7.764c-2.378,15.677 -20.309,139.947 -25.721,178.25c-3.069,21.725 -5.683,39.617 -5.808,39.761c-0.126,0.144 -6.035,-0.814 -13.133,-2.127c-7.098,-1.314 -13.047,-2.265 -13.219,-2.115c-0.172,0.151 2.69,3.994 6.361,8.541c16.067,19.901 27.64,42.783 34.993,69.19l1.601,5.75l140.858,-0l0,10l-139.25,-0l0.625,3.125c0.344,1.719 0.625,3.519 0.625,4c0,0.491 30.261,0.875 69.052,0.875l69.053,-0l-0.303,5.25l-0.302,5.25l-67,0.215c-36.85,0.118 -67.562,0.231 -68.25,0.25c-0.755,0.02 -1.25,1.419 -1.25,3.528l0,3.493l68.25,0.257l68.25,0.257l0,10l-136.5,0.514l0,6.972l136.5,0.514l0.302,5.25l0.303,5.25l-137.855,-0l-0.621,3.102c-0.341,1.707 -0.37,3.507 -0.066,4c0.319,0.516 29.875,0.898 69.496,0.898l68.941,-0l-0,10l-70.5,-0c-38.775,-0 -70.5,0.199 -70.5,0.441c0,2.108 -7.753,25.194 -10.887,32.421c-14.659,33.797 -41.88,65.281 -72.613,83.984c-4.629,2.817 -15.172,5.725 -11.5,3.172l-0,0.001Zm-403.25,-237.82l9.25,-4.16l-0,-25.02c-0,-16.652 -0.348,-25.019 -1.04,-25.019c-0.572,-0 -2.804,0.9 -4.96,2c-2.156,1.1 -4.163,2 -4.46,2c-0.297,-0 -0.526,-20.138 -0.51,-44.75c0.018,-25.735 0.399,-44.113 0.897,-43.25c0.477,0.825 5.376,17.925 10.888,38c19.223,70.007 23.566,85 24.622,84.979c0.585,-0.012 6.463,-1.952 13.063,-4.312l12,-4.29l0.5,-117.315l0.5,-117.315l6,-2.127l6,-2.127l0.268,-24.428c0.148,-13.436 -0.077,-24.766 -0.5,-25.177c-0.79,-0.77 -27.383,8.706 -44.268,15.774l-9.5,3.976l-0.269,23.911c-0.148,13.151 -0.055,24.467 0.205,25.146c0.347,0.904 1.931,0.59 5.912,-1.17c2.991,-1.323 5.711,-2.132 6.045,-1.799c0.334,0.334 0.576,21.57 0.539,47.191c-0.042,28.701 -0.415,45.815 -0.974,44.583c-0.498,-1.1 -7.045,-24.95 -14.548,-53c-7.504,-28.05 -15.012,-56.063 -16.685,-62.25c-2.002,-7.4 -3.513,-11.25 -4.417,-11.25c-1.6,-0 -6.795,2.54 -25.058,12.249l-13.25,7.044l-0,24.853c-0,13.67 0.24,24.854 0.533,24.854c0.293,-0 2.753,-1.125 5.467,-2.5c2.713,-1.375 5.173,-2.5 5.467,-2.5c0.293,-0 0.533,40.923 0.533,90.941l-0,90.942l-6,3.198l-6,3.198l-0,50.726l17.25,-8.823c9.487,-4.853 21.412,-10.695 26.5,-12.983Zm-39.75,-6.208l-0,-20.01l6.5,-3.205l6.5,-3.205l-0,-96.286c-0,-52.957 -0.153,-96.285 -0.34,-96.285c-0.188,-0 -2.775,1.342 -5.75,2.982c-2.976,1.64 -5.757,2.99 -6.181,3c-0.424,0.01 -0.649,-9.025 -0.5,-20.077l0.271,-20.095l15.654,-8.155c8.61,-4.485 15.896,-7.919 16.191,-7.631c0.594,0.581 8.175,28.156 21.225,77.206c12.531,47.102 20.487,76.16 20.989,76.662c0.242,0.243 0.441,-29.342 0.441,-65.745l-0,-66.185l-2.75,0.659c-1.513,0.363 -3.965,1.271 -5.451,2.019c-1.485,0.748 -2.947,1.36 -3.25,1.36c-0.302,-0 -0.549,-9.133 -0.549,-20.294l-0,-20.295l15.75,-6.184c8.662,-3.402 18.787,-7.299 22.5,-8.661l6.75,-2.476l-0,41.545l-5.466,1.723c-3.006,0.947 -5.784,2.237 -6.173,2.866c-0.388,0.629 -0.649,50.223 -0.578,110.21c0.07,59.986 -0.19,112.434 -0.578,116.55l-0.705,7.484l-8.768,3.142c-4.822,1.729 -8.945,2.854 -9.163,2.502c-0.517,-0.836 -11.984,-41.617 -23.932,-85.112c-5.213,-18.975 -11.426,-41.475 -13.808,-50l-4.329,-15.5l-0.258,63.909c-0.141,35.15 -0.073,64.093 0.151,64.317c0.224,0.225 2.703,-0.754 5.507,-2.176l5.1,-2.584l-0,41.073l-9.25,4.178c-5.088,2.297 -14.784,7.014 -21.548,10.48c-6.763,3.467 -12.726,6.303 -13.25,6.303c-0.571,-0 -0.952,-8.003 -0.952,-20.009Zm711.764,7.838l6.264,-7.765l-0.264,-31.656l-0.264,-31.656l-14,-7.361c-7.7,-4.048 -14.338,-7.367 -14.75,-7.376c-0.413,-0.008 -0.75,8.76 -0.75,19.485c-0,10.725 -0.367,19.5 -0.816,19.5c-0.449,-0 -6.721,-2.7 -13.939,-6c-7.218,-3.3 -13.601,-6 -14.185,-6c-0.74,-0 -1.06,-27.805 -1.06,-91.958l-0,-91.958l6.25,2.846c3.437,1.565 10.187,4.676 15,6.912l8.75,4.066l-0,38.876l13.995,7.608c7.697,4.184 14.447,7.608 15,7.608c0.651,-0 1.005,-10.694 1.005,-30.362l-0,-30.363l-8.161,-18.534l-8.161,-18.535l-16.589,-8.091c-9.124,-4.449 -21.764,-10.334 -28.089,-13.076l-11.5,-4.986l-3,3.607c-1.65,1.984 -5.804,7.485 -9.23,12.224l-6.23,8.616l-0.04,223.73l8.158,17.135c4.487,9.424 8.65,17.626 9.25,18.227c0.601,0.6 7.617,3.877 15.592,7.281c7.975,3.404 20.8,9.272 28.5,13.039c13.87,6.786 14.014,6.83 15.5,4.766c0.825,-1.145 4.319,-5.577 7.764,-9.849l-0,0Zm-23.264,0.149c-6.6,-3.215 -18.536,-8.633 -26.525,-12.041l-14.525,-6.196l-15.478,-32.241l0.014,-111.316c0.011,-82.41 0.315,-111.883 1.172,-113.5c2.008,-3.786 12.89,-17.684 13.846,-17.684c1.651,-0 24.221,10.114 37.996,17.027l13.5,6.774l7.25,16.514l7.25,16.513l0,54.351l-10.25,-5.476l-10.25,-5.477l-0.543,-39.285l-10.728,-5.07c-13.551,-6.403 -26.134,-11.871 -27.318,-11.871c-0.542,-0 -0.911,38.898 -0.911,96.021l-0,96.022l2.75,1.152c1.512,0.634 10.007,4.449 18.876,8.479c8.869,4.029 16.406,7.326 16.75,7.326c0.343,-0 0.624,-8.775 0.624,-19.5c-0,-10.725 0.288,-19.5 0.639,-19.5c0.352,-0 5.077,2.35 10.5,5.221l9.861,5.222l-0,59.763l-5.75,7.351c-3.163,4.043 -5.975,7.331 -6.25,7.308c-0.275,-0.023 -5.9,-2.673 -12.5,-5.887l-0,-0Zm-68.5,-49.234l-0,-25.257l-11.5,-4.135l-0.255,-91.676c-0.141,-50.422 0.084,-91.676 0.5,-91.676c0.415,0.001 3.117,0.899 6.005,1.996l5.25,1.996l-0,-50.892l-22.75,-7.466c-12.513,-4.107 -24.438,-7.779 -26.5,-8.162l-3.75,-0.695l-0,50.081l5.5,1.599l5.5,1.599l-0,91.972c-0,50.584 -0.196,91.972 -0.435,91.972c-0.239,-0 -1.477,-0.384 -2.75,-0.854c-1.273,-0.469 -3.553,-1.153 -5.065,-1.519l-2.75,-0.665l-0,50.804l7.25,1.736c3.987,0.955 15.575,4.541 25.75,7.971c10.175,3.429 18.837,6.3 19.25,6.38c0.412,0.081 0.75,-11.219 0.75,-25.109l-0,-0Zm-20,14.08c-7.975,-2.585 -17.763,-5.647 -21.75,-6.805l-7.25,-2.104l-0,-20.458c-0,-11.251 0.378,-20.457 0.841,-20.457c0.462,-0 2.965,0.639 5.562,1.421c3.527,1.061 4.833,1.124 5.166,0.25c0.246,-0.644 0.33,-44.126 0.189,-96.626l-0.258,-95.454l-5.5,-1.59l-5.5,-1.591l-0.272,-19.883c-0.15,-10.936 0.075,-20.227 0.5,-20.646c0.424,-0.419 10.447,2.473 22.272,6.428l21.5,7.191l0.27,20.25c0.153,11.451 -0.118,20.25 -0.624,20.25c-0.492,-0 -2.808,-0.675 -5.146,-1.5c-2.339,-0.825 -4.645,-1.5 -5.126,-1.5c-0.493,-0 -0.874,41.98 -0.874,96.256l-0,96.256l11.5,4.134l0.271,19.855c0.15,10.92 -0.075,20.118 -0.5,20.439c-0.424,0.321 -7.296,-1.531 -15.271,-4.116l-0,-0Zm-446,-6.799c19.385,-4.873 44.458,-10.539 53,-11.977c3.575,-0.602 7.512,-1.317 8.75,-1.59l2.25,-0.496l-0,-53.981c-0,-46.566 -0.2,-53.981 -1.455,-53.981c-0.8,-0 -7.55,1.178 -15,2.618l-13.545,2.617l-0,28.815c-0,26.574 -0.136,28.856 -1.75,29.345c-3.848,1.167 -23.518,5.605 -24.839,5.605c-1.191,-0 -1.411,-6.222 -1.411,-39.953l-0,-39.953l3.744,-1.034c2.06,-0.569 9.26,-2.275 16,-3.793l12.256,-2.759l-0,-25.254c-0,-19.543 -0.283,-25.251 -1.25,-25.241c-0.688,0.007 -7.7,1.522 -15.583,3.366c-9.949,2.328 -14.466,3.006 -14.768,2.219c-0.239,-0.624 -0.315,-12.376 -0.167,-26.116l0.268,-24.982l10.5,-2.583c5.775,-1.421 11.962,-2.873 13.75,-3.225l3.25,-0.642l-0,19.082c-0,15.308 0.259,18.983 1.308,18.58c1.17,-0.449 5.323,-1.305 23.442,-4.832l5.25,-1.022l-0,-43.929c-0,-41.842 -0.087,-43.929 -1.823,-43.929c-8.201,-0 -66.549,14.106 -89.427,21.619l-7.75,2.545l-0,24.918c-0,13.705 0.378,24.918 0.841,24.918c0.462,-0 3.05,-0.67 5.75,-1.489c2.7,-0.819 5.021,-1.494 5.159,-1.5c0.137,-0.006 0.25,41.318 0.25,91.831l-0,91.841l-6,1.817l-6,1.817l-0,50.485l9.75,-2.94c5.362,-1.617 16.725,-4.694 25.25,-6.837l-0,0Zm-30.582,2.622c-0.255,-0.664 -0.34,-9.952 -0.191,-20.642l0.273,-19.436l5.5,-1.657l5.5,-1.657l0.255,-96.627c0.14,-53.146 0.084,-96.628 -0.124,-96.628c-0.209,-0 -2.329,0.687 -4.711,1.528c-2.382,0.84 -4.914,1.305 -5.626,1.031c-0.998,-0.383 -1.294,-4.961 -1.294,-19.993c-0,-18.632 0.091,-19.544 2.05,-20.593c5.837,-3.124 64.844,-18.14 84.2,-21.427l3.75,-0.637l-0,79.771l-7.25,1.228c-3.988,0.676 -8.713,1.473 -10.5,1.772l-3.25,0.542l-0,-18.611c-0,-14.229 -0.295,-18.608 -1.25,-18.599c-1.334,0.013 -23.745,5.101 -30.627,6.955l-4.123,1.11l-0,61.614l15.25,-3.715c8.387,-2.043 15.587,-3.522 16,-3.286c0.412,0.235 0.75,9.557 0.75,20.714l-0,20.287l-16,3.84l-16,3.84l-0,44.814c-0,24.648 0.145,44.815 0.321,44.815c0.177,-0 7.94,-1.797 17.25,-3.994c9.311,-2.197 17.266,-3.997 17.679,-4c0.412,-0.003 0.75,-13.056 0.75,-29.006c-0,-15.95 0.175,-29 0.39,-29c0.214,-0 4.785,-0.904 10.157,-2.01c5.372,-1.105 9.909,-1.868 10.082,-1.694c0.173,0.173 0.44,22.472 0.593,49.553c0.274,48.539 0.249,49.245 -1.722,49.682c-1.1,0.244 -9.65,2.055 -19,4.026c-18.137,3.822 -51.89,12.137 -62.31,15.35c-4.699,1.449 -6.428,1.638 -6.772,0.74l-0,-0Zm394.05,-16.897c0.308,-1.788 3.011,-20.575 6.008,-41.75c11.862,-83.818 25.108,-175.141 26.06,-179.654c0.439,-2.083 0.607,-2.107 5.118,-0.75c7.912,2.382 7.346,4.198 7.346,-23.568l-0,-24.972l-5.25,-1.522c-7.076,-2.051 -43.492,-10.306 -47.25,-10.711l-3,-0.323l-0,49.978l6.25,1.348c3.529,0.761 6.25,1.88 6.25,2.572c-0,0.673 -1.546,11.771 -3.436,24.663c-1.889,12.891 -5.747,40.539 -8.573,61.439c-2.826,20.9 -5.4,38.675 -5.721,39.5c-0.321,0.825 -1.165,-2.775 -1.876,-8c-2.083,-15.308 -13.242,-101.67 -14.407,-111.5c-0.587,-4.95 -1.298,-10.074 -1.58,-11.386c-0.502,-2.332 -0.399,-2.371 4.54,-1.716l5.053,0.671l-0,-25.066c-0,-19.145 -0.296,-25.173 -1.25,-25.518c-2.494,-0.902 -43.362,-6.479 -47.5,-6.482l-4.25,-0.003l-0,49.676l5.688,0.912l5.688,0.912l8.849,63c22.838,162.609 24.48,173.634 26.099,175.253c1.483,1.482 21.657,5.934 27.88,6.152c2.298,0.081 2.789,-0.394 3.264,-3.155l0,-0Zm-18.386,-3.802c-5.18,-1.037 -9.722,-2.236 -10.093,-2.666c-0.371,-0.43 -1.233,-5.282 -1.915,-10.782c-1.15,-9.261 -5.548,-40.994 -24.045,-173.5c-3.877,-27.775 -7.268,-51.47 -7.535,-52.656c-0.389,-1.728 -1.477,-2.292 -5.49,-2.843l-5.004,-0.689l-0,-41.686l3.25,0.423c12.046,1.568 33.832,4.722 36.75,5.321l3.5,0.718l0.27,20.706c0.148,11.388 -0.076,20.686 -0.5,20.662c-0.424,-0.023 -2.693,-0.415 -5.042,-0.869c-2.349,-0.455 -4.464,-0.515 -4.699,-0.135c-0.235,0.381 0.909,10.56 2.543,22.62c1.634,12.06 3.623,27.553 4.421,34.428c3.743,32.244 15.011,114.884 15.576,114.232c0.35,-0.403 1.639,-8.382 2.866,-17.732c3.757,-28.635 11.895,-87.495 16.159,-116.88c2.226,-15.333 3.677,-28.2 3.226,-28.591c-0.451,-0.392 -3.408,-1.266 -6.57,-1.943l-5.75,-1.23l-0,-20.428c-0,-17.898 0.194,-20.428 1.57,-20.428c2.221,-0 39.358,8.603 42.68,9.887l2.75,1.063l-0,20.025c-0,22.39 0.491,21.122 -7.344,18.946c-2.114,-0.587 -4.036,-0.874 -4.272,-0.639c-0.54,0.54 -6.151,38.575 -20.834,141.218c-6.373,44.55 -11.813,82.012 -12.088,83.25c-0.606,2.722 -1.683,2.737 -14.38,0.197l-0,0.001Zm-265.314,-4.514c5.352,-4.712 13.204,-10.899 17.448,-13.75c8.549,-5.744 8.504,-5.635 6.785,-16.102c-1.418,-8.639 -27.001,-190.851 -27.001,-192.314c-0,-0.214 -1.688,-0.249 -3.75,-0.078l-3.75,0.31l-0.271,19.163l-0.272,19.163l-7.228,1.182c-8.653,1.414 -30.195,5.85 -32.262,6.643c-1.258,0.483 -1.467,-2.16 -1.467,-18.544c-0,-10.509 -0.338,-19.097 -0.75,-19.084c-0.413,0.012 -3.9,0.828 -7.75,1.813l-7,1.79l-0.271,20.761c-0.253,19.473 -0.16,20.726 1.5,20.209c2.657,-0.827 28.349,-6.596 29.378,-6.596c0.504,-0 0.893,13.284 0.893,30.521l-0,30.522l-2.25,0.909c-1.238,0.5 -8.438,2.324 -16,4.054l-13.75,3.145l-0,34.425c-0,19.074 0.391,34.424 0.877,34.424c0.483,-0 4.083,-0.724 8,-1.609l7.123,-1.608l-0,-57.623l6.91,-1.571c3.8,-0.865 13.025,-2.642 20.5,-3.949l13.59,-2.376l-0,57.368c-0,31.552 0.233,57.368 0.518,57.368c0.285,-0 4.897,-3.855 10.25,-8.566Zm-184.238,1.553c3.538,-1.517 4.575,-2.441 4.205,-3.75c-0.27,-0.955 -2.403,-8.712 -4.74,-17.237c-2.337,-8.525 -4.417,-15.688 -4.622,-15.917c-0.205,-0.229 -0.373,8.434 -0.373,19.25c-0,10.817 0.188,19.667 0.417,19.667c0.229,-0 2.53,-0.906 5.113,-2.013Zm572.47,-102.889l-0,-85.902l-3.149,-1.098c-1.733,-0.604 -3.533,-1.098 -4,-1.098c-0.468,-0 -0.851,38.635 -0.851,85.855l-0,85.856l3.25,1.042c1.787,0.574 3.587,1.089 4,1.145c0.412,0.056 0.75,-38.554 0.75,-85.8Zm-354.282,76.652c0.638,-0.829 -2.512,-25.661 -9.357,-73.75c-5.675,-39.875 -12.27,-86.675 -14.656,-104l-4.337,-31.5l-10.368,0.684l-0,-41.025l2.75,-0.577c3.676,-0.772 28.158,-4.235 36.02,-5.097l6.271,-0.686l-0.271,20.85l-0.27,20.851l-2.5,0.27c-1.375,0.148 -3.889,0.492 -5.588,0.764l-3.087,0.495l1.848,14.236c1.017,7.829 2.967,22.785 4.335,33.235c1.367,10.45 4.978,38.125 8.024,61.5c4.942,37.924 7.172,51.325 7.4,44.463c0.108,-3.242 15.973,-142.415 20.572,-180.463c2.428,-20.087 2.095,-19 5.819,-19l3.233,-0l12.841,96.25c13.976,104.746 13.728,102.958 14.198,102.488c0.178,-0.178 2.383,-18.979 4.901,-41.781c2.517,-22.801 6.136,-55.003 8.041,-71.559c1.905,-16.556 3.754,-33.543 4.11,-37.75l0.646,-7.648l-12.293,-0l-0,-41l46,-0l-0,42l-10.653,-0l-2.191,17.25c-1.205,9.487 -5.316,43.35 -9.136,75.25c-3.82,31.9 -8.088,67.443 -9.483,78.984c-3.038,25.131 -3,23.516 -0.556,23.516c2.281,-0 2.515,-0.808 3.903,-13.5c4.856,-44.412 21.058,-175.572 21.847,-176.865c0.291,-0.475 2.72,-0.654 5.399,-0.397l4.87,0.468l-0,-50.489l-18.25,-0.686c-10.038,-0.377 -22.3,-0.538 -27.25,-0.358l-9,0.327l-0,50l6.064,0.293l6.064,0.293l-3.267,28.707c-1.797,15.789 -4.731,42.077 -6.52,58.418c-1.789,16.34 -3.498,29.466 -3.797,29.167c-0.299,-0.3 -5.523,-37.744 -11.609,-83.211l-11.066,-82.667l-6.933,0.332c-3.814,0.183 -7.085,0.483 -7.269,0.667c-0.431,0.431 -5.441,42.043 -13.125,109.001c-6.249,54.454 -7.06,60.721 -7.63,59c-0.182,-0.55 -1.942,-13.375 -3.911,-28.5c-1.968,-15.125 -4.9,-37.625 -6.513,-50c-1.614,-12.375 -3.318,-25.532 -3.788,-29.237l-0.855,-6.737l3.077,-0.493c1.693,-0.272 4.203,-0.615 5.578,-0.763l2.5,-0.27l-0,-50l-6.5,0.347c-9.344,0.5 -46.151,5.904 -47.174,6.927c-0.474,0.474 -0.742,11.857 -0.594,25.294l0.268,24.432l3,-0.347c1.65,-0.19 4.125,-0.415 5.5,-0.5l2.5,-0.153l3.146,22.5c18.872,134.952 25.953,183 26.968,183c0.627,-0 1.574,-0.563 2.104,-1.25l-0,-0Zm35.567,-20.75c0.431,-3.575 2.307,-19.476 4.169,-35.336c1.861,-15.86 3.565,-29.017 3.786,-29.238c0.221,-0.221 0.963,4.205 1.647,9.836c3.332,27.394 7.717,56.11 8.613,56.391c3.339,1.049 3.298,-1.369 -0.497,-29.159c-2.103,-15.397 -5.061,-37.894 -6.573,-49.994c-1.513,-12.1 -3.064,-22.363 -3.447,-22.807c-0.383,-0.444 -1.008,2.706 -1.389,7c-0.381,4.294 -2.032,19.057 -3.67,32.807c-1.639,13.75 -3.863,32.875 -4.943,42.5c-1.081,9.625 -2.24,19.225 -2.575,21.333c-0.571,3.59 -0.461,3.812 1.742,3.5c2.095,-0.297 2.437,-1.042 3.137,-6.833Zm11.328,2.566c0.247,-0.643 -0.254,-5.847 -1.113,-11.565c-1.494,-9.949 -2.457,-13.523 -2.538,-9.418c-0.02,1.054 -0.607,6.542 -1.304,12.196c-0.697,5.653 -1.12,10.426 -0.939,10.606c0.732,0.733 5.476,-0.731 5.894,-1.819Zm-250.114,-132.401c-0.886,-0.885 -9.497,3.698 -9.528,5.072c-0.016,0.695 2.121,9.363 4.75,19.263l4.779,18l0.271,-20.896c0.148,-11.493 0.026,-21.14 -0.272,-21.439l-0,0Zm66.001,450.218c-2.75,-0.813 -5.65,-1.701 -6.445,-1.974c-0.909,-0.312 1.314,-2.331 6,-5.45c4.095,-2.725 7.782,-4.955 8.195,-4.957c0.412,-0.001 0.75,3.148 0.75,6.998c-0,7.953 0.062,7.914 -8.5,5.383Zm444.5,-5.883c-0,-4.125 0.259,-7.5 0.576,-7.5c1.482,-0 15.351,10.465 14.683,11.08c-0.962,0.885 -11.538,3.92 -13.663,3.92c-1.32,-0 -1.596,-1.299 -1.596,-7.5Zm-475.25,-5.269c-19.307,-0.228 -22.75,-0.493 -22.75,-1.75c-0,-1.274 3.95,-1.477 28.25,-1.449c25.058,0.028 28.031,0.197 26.309,1.5c-1.068,0.807 -2.418,1.513 -3,1.567c-3.742,0.351 -8.476,0.372 -28.809,0.132l-0,0Zm484.111,-1.198c-2.359,-1.965 -2.34,-1.967 25.389,-2c27.094,-0.032 27.75,0.014 27.75,1.967c-0,1.947 -0.667,2 -25.389,2c-23.78,-0 -25.539,-0.125 -27.75,-1.967Zm-499.861,-7.857c2.475,-1.532 6.187,-3.811 8.25,-5.063l3.75,-2.276l-0,10.163l-16.5,-0.04l4.5,-2.784Zm533.666,2.157c-0.707,-0.708 -0.949,-9.333 -0.261,-9.333c0.494,-0 14.582,8.653 15.368,9.44c0.308,0.308 -2.815,0.56 -6.94,0.56c-4.125,-0 -7.8,-0.3 -8.166,-0.667l-0.001,0Zm-580.999,-6c-0.367,-0.366 -0.667,-1.491 -0.667,-2.5c-0,-1.731 1.47,-1.833 26.5,-1.833c14.575,-0 26.5,0.231 26.5,0.515c-0,0.283 -1.463,1.406 -3.25,2.496c-2.986,1.82 -5.084,1.982 -25.834,1.985c-12.42,0.002 -22.883,-0.296 -23.249,-0.663Zm590.342,-1.6l-3.492,-2.233l26.892,-0.267c14.79,-0.146 27.089,-0.068 27.332,0.175c0.243,0.242 0.145,1.375 -0.217,2.516c-0.642,2.023 -1.249,2.075 -23.842,2.059c-22.265,-0.017 -23.32,-0.105 -26.673,-2.25l-0,0Zm-155.509,-547.379c-10.043,-1.952 -41.39,-6.102 -52.25,-6.917c-6.62,-0.498 -9.25,-1.069 -9.25,-2.009c-0,-0.83 1.563,-1.426 4.25,-1.621l4.25,-0.307l-0.144,-10l-4.178,-0.308c-4.841,-0.356 -6.109,-3.192 -1.427,-3.192c9.233,-0 63.56,7.838 66.371,9.576c1.624,1.003 0.95,4.424 -0.872,4.423c-4.003,-0.003 -16.027,-2.805 -18.3,-4.264c-2.646,-1.7 -21.494,-4.524 -22.628,-3.391c-1.454,1.454 1.533,2.409 11.268,3.603c10.572,1.297 13.611,2.293 11.902,3.903c-0.616,0.58 -4.023,0.427 -8.992,-0.405c-11.741,-1.965 -14.5,-1.868 -14.5,0.51c-0,2.1 -0.089,2.075 14.331,4.104c6.731,0.947 7.995,0.887 9,-0.427c1.047,-1.37 2.108,-1.351 10.169,0.177c8.106,1.538 9.033,1.941 9.335,4.064c0.509,3.589 -0.731,3.958 -8.335,2.481l-0,-0Zm-214.5,-3.641c-0,-0.927 1.456,-1.857 3.75,-2.396c3.551,-0.835 3.766,-1.112 4.064,-5.235c0.173,-2.395 -0.052,-4.663 -0.5,-5.042c-1.569,-1.326 -11.086,0.978 -11.562,2.8c-0.336,1.284 -2.425,2.051 -8.258,3.031c-4.294,0.722 -8.412,1.544 -9.151,1.827c-0.943,0.362 -1.343,-0.39 -1.343,-2.524c-0,-3.519 -0.414,-3.341 14,-6.048c15.154,-2.845 30.26,-4.913 48.41,-6.625c20.167,-1.903 18.59,-2.025 18.59,1.438c-0,2.708 -0.333,2.979 -4.25,3.461c-10.827,1.332 -14.92,1.322 -15.442,-0.039c-0.545,-1.419 -6.007,-1.816 -10.058,-0.731c-1.944,0.521 -2.25,1.268 -2.25,5.487l-0,4.883l4.5,-0c3.027,-0 4.5,0.426 4.5,1.301c-0,0.923 -4.13,1.815 -14.25,3.076c-7.838,0.976 -15.713,2.017 -17.5,2.313c-2.472,0.408 -3.25,0.175 -3.25,-0.977l-0,-0Zm65,-6.549c-0,-1.696 0.732,-2.102 4.25,-2.357l4.25,-0.307l-0,-10l-4.251,-0c-4.252,-0 -5.808,-1.688 -2.667,-2.893c0.87,-0.334 8.97,-0.607 18,-0.607c13.927,-0 16.418,0.227 16.418,1.5c-0,1.083 -1.111,1.5 -4,1.5c-2.889,-0 -4,0.417 -4,1.5c-0,1.215 1.801,1.534 9.5,1.678c5.225,0.099 10.506,0.211 11.736,0.25c1.372,0.044 2.367,-0.605 2.573,-1.678c0.282,-1.461 -0.419,-1.75 -4.236,-1.75c-3.398,-0 -4.573,-0.385 -4.573,-1.5c-0,-1.241 1.858,-1.499 10.75,-1.494c16.595,0.009 27.25,1.042 27.25,2.642c-0,0.938 -1.395,1.352 -4.552,1.352l-4.553,-0l0.605,10.5l4.25,0.307c3.092,0.224 4.25,0.742 4.25,1.9c-0,1.388 -1.176,1.509 -9.154,0.943c-5.034,-0.358 -13.584,-0.65 -19,-0.65c-8.085,-0 -9.846,-0.268 -9.846,-1.5c-0,-1.111 1.166,-1.5 4.5,-1.5c3.756,-0 4.5,-0.315 4.5,-1.902c-0,-1.586 -0.954,-1.991 -5.75,-2.439c-3.163,-0.296 -8.45,-0.453 -11.75,-0.349c-5.27,0.167 -6,0.433 -6,2.19c-0,1.589 0.77,2.064 3.75,2.31c2.453,0.203 3.75,0.809 3.75,1.75c-0,1.195 -2.797,1.44 -16.418,1.44c-9.03,-0 -17.13,0.273 -18,0.607c-1.126,0.432 -1.582,0.015 -1.582,-1.443l-0,0Z" style="fill-rule:nonzero;"/></svg>
