<svg data-name="Layer 1" xmlns="http://www.w3.org/2000/svg" viewBox="0 0 268.5 82.88" width="269" height="83"><title>Vicksburg Community Schools</title><path d="M117.41,4.15a2.66,2.66,0,0,0,.18-.9,1,1,0,0,0-.63-1,6.89,6.89,0,0,0-2-.5c-.37,0-.55-.28-.55-.76a1.7,1.7,0,0,1,.05-.41,1.25,1.25,0,0,1,0-.31l.59,0,1.2.09,1.51.07,1.53,0q1.49,0,2.73-.09c.83-.06,1.31-.1,1.47-.13a1.25,1.25,0,0,0,0,.31,2,2,0,0,0,0,.25.75.75,0,0,1,0,.2c0,.48-.17.75-.5.81a5.63,5.63,0,0,0-2.12.46,2.33,2.33,0,0,0-1,1.21l-11.14,26.8a.71.71,0,0,0-.2,0l-.2,0c-.34,0-.61-.26-.82-.77L97,3.34a1.85,1.85,0,0,0-.9-.95,8.1,8.1,0,0,0-2.25-.54c-.34,0-.5-.3-.5-.81a3,3,0,0,1,.09-.72c.9.06,1.88.11,2.93.15s2,.07,2.75.07,1.67,0,2.75-.07,2.09-.09,3-.15A3.87,3.87,0,0,1,105,1c0,.45-.18.7-.54.76-1.78.18-2.67.67-2.67,1.45a1.81,1.81,0,0,0,.09.58l7.67,19.62Z"/><path d="M138.43,30.4a17.3,17.3,0,0,1-6.63-1.17A12.92,12.92,0,0,1,127.08,26a13.08,13.08,0,0,1-2.79-4.82,18.69,18.69,0,0,1-.93-6,16.5,16.5,0,0,1,.93-5.37,14.72,14.72,0,0,1,2.79-4.89,14.18,14.18,0,0,1,4.72-3.56A15,15,0,0,1,138.43,0c1,0,1.9,0,2.72.07s1.62.12,2.37.22,1.49.24,2.21.41,1.48.35,2.26.56a26.52,26.52,0,0,0,.31,3A36.3,36.3,0,0,0,149,7.8a1.67,1.67,0,0,1-.73.18,2.17,2.17,0,0,1-.65-.09.58.58,0,0,1-.38-.49,7.42,7.42,0,0,0-2.57-4.24,8.73,8.73,0,0,0-5.1-1.27,12.65,12.65,0,0,0-4.94.91,10,10,0,0,0-3.61,2.52,10.75,10.75,0,0,0-2.21,3.9,16.19,16.19,0,0,0-.74,5.08A16.8,16.8,0,0,0,129,20a14.88,14.88,0,0,0,2.55,4.51,11.38,11.38,0,0,0,3.75,2.93,10.34,10.34,0,0,0,4.57,1,11.71,11.71,0,0,0,3.27-.39,6,6,0,0,0,2.21-1.1,6.31,6.31,0,0,0,1.49-1.78A18.26,18.26,0,0,0,148,22.82a1.1,1.1,0,0,1,1.09-.67,2,2,0,0,1,.47.06,1.55,1.55,0,0,1,.38.16c-.36,1.06-.72,2.21-1.08,3.48s-.66,2.52-.9,3.78c-1.48.24-3,.43-4.51.57S140.26,30.4,138.43,30.4Z"/><path d="M172.84,7.62a3.83,3.83,0,0,1-.68.09,1.31,1.31,0,0,1-.85-.22,1.59,1.59,0,0,1-.41-.5,9.11,9.11,0,0,0-2.8-3.74,7.41,7.41,0,0,0-4.42-1.18,6.92,6.92,0,0,0-2.05.3,4.91,4.91,0,0,0-1.69.86,4.23,4.23,0,0,0-1.15,1.37,3.74,3.74,0,0,0-.43,1.8,4.17,4.17,0,0,0,1.78,3.48,23.34,23.34,0,0,0,5.26,2.75,18.39,18.39,0,0,1,6.38,3.81,7.1,7.1,0,0,1,2.05,5.17,10.49,10.49,0,0,1-.56,3.45,7.36,7.36,0,0,1-1.76,2.79,8.17,8.17,0,0,1-3.09,1.87,13.36,13.36,0,0,1-4.56.68,20.4,20.4,0,0,1-5.07-.59,14.66,14.66,0,0,1-3.86-1.53c-.09-1.26-.22-2.48-.4-3.65s-.39-2.35-.63-3.52a1.91,1.91,0,0,1,.76-.14,1.31,1.31,0,0,1,.84.25A2.16,2.16,0,0,1,156,22a10.8,10.8,0,0,0,2.91,4.78,7.33,7.33,0,0,0,5,1.54,7.26,7.26,0,0,0,2.53-.41,5,5,0,0,0,1.8-1.13,4.79,4.79,0,0,0,1.08-1.62,5.19,5.19,0,0,0,.36-1.94,4.58,4.58,0,0,0-1.6-3.7,15.35,15.35,0,0,0-4.58-2.44A34.54,34.54,0,0,1,160,15.58a11.36,11.36,0,0,1-2.71-1.82,7.29,7.29,0,0,1-1.74-2.42,8.09,8.09,0,0,1-.61-3.27,8.2,8.2,0,0,1,.61-3.13,7.29,7.29,0,0,1,1.76-2.55A8.46,8.46,0,0,1,160.08.68a10,10,0,0,1,3.65-.63,19.83,19.83,0,0,1,4.06.4,28.19,28.19,0,0,1,4.37,1.35c.06.91.15,1.88.25,2.91S172.66,6.72,172.84,7.62Z"/><path d="M11.41,42.53a1.14,1.14,0,0,0,.09-.42.48.48,0,0,0-.3-.44,3.15,3.15,0,0,0-.93-.22c-.17,0-.25-.14-.25-.36a.58.58,0,0,1,0-.19.36.36,0,0,1,0-.14l.27,0,.55,0c.22,0,.45,0,.7,0h.71c.46,0,.87,0,1.26,0l.67-.06a.78.78,0,0,0,0,.14c0,.05,0,.08,0,.12a.29.29,0,0,1,0,.09c0,.22-.08.35-.23.38a2.23,2.23,0,0,0-1,.21,1,1,0,0,0-.48.56L7.44,54.63H7.25c-.16,0-.28-.12-.38-.36L2,42.15a.8.8,0,0,0-.42-.43,3.61,3.61,0,0,0-1-.25c-.15,0-.23-.14-.23-.38a1.86,1.86,0,0,1,0-.33l1.36.07,1.27,0,1.27,0,1.39-.07a1.76,1.76,0,0,1,0,.33c0,.21-.09.33-.25.36q-1.23.12-1.23.66a.77.77,0,0,0,0,.27l3.54,9.06Z"/><path d="M17.34,54.4h-.73c-.24,0-.47,0-.68,0l-.54,0-.29,0,0-.14a.8.8,0,0,1,0-.19.23.23,0,0,1,.18-.25,4.12,4.12,0,0,0,.88-.25.5.5,0,0,0,.33-.48V47.53a1.42,1.42,0,0,0-.22-.9,1.34,1.34,0,0,0-.94-.33c-.19,0-.28-.13-.28-.29a1.12,1.12,0,0,1,.05-.27l.76,0c.32,0,.59,0,.8-.07a7.57,7.57,0,0,0,.86-.18,2.83,2.83,0,0,1,.55-.09c.2,0,.3.1.3.31a5,5,0,0,1-.07.7,7.64,7.64,0,0,0-.06,1.07v5.75a.5.5,0,0,0,.32.48,4,4,0,0,0,.91.25.23.23,0,0,1,.17.25s0,.1,0,.19,0,.13,0,.14l-.28,0-.53,0c-.21,0-.43,0-.68,0ZM16.12,41.88a1.2,1.2,0,0,1,.34-.86,1.16,1.16,0,0,1,.87-.37,1.09,1.09,0,0,1,.83.37,1.23,1.23,0,0,1,.33.86,1.2,1.2,0,0,1-.33.88,1.13,1.13,0,0,1-.83.33,1.21,1.21,0,0,1-.87-.33A1.17,1.17,0,0,1,16.12,41.88Z"/><path d="M25,46.15a1.89,1.89,0,0,0-1.6.86,3.86,3.86,0,0,0-.61,2.31,4.85,4.85,0,0,0,.91,3.14,2.92,2.92,0,0,0,2.4,1.13,2.63,2.63,0,0,0,1.12-.21q.43-.21.78-.42l.14-.09a.29.29,0,0,1,.17-.06c.07,0,.14,0,.23.15a1,1,0,0,1,.16.23,3.13,3.13,0,0,1-.52.5,3.73,3.73,0,0,1-.75.47,4.77,4.77,0,0,1-1,.35,6,6,0,0,1-1.34.14,4.74,4.74,0,0,1-1.61-.28,3.78,3.78,0,0,1-1.34-.85,3.93,3.93,0,0,1-.9-1.4,5.38,5.38,0,0,1-.34-2,4.63,4.63,0,0,1,.41-1.95,5.13,5.13,0,0,1,1-1.51,5.23,5.23,0,0,1,1.42-1,3.77,3.77,0,0,1,1.53-.35,5.4,5.4,0,0,1,1.39.17,4,4,0,0,1,1.07.43,2.17,2.17,0,0,1,.67.64,1.36,1.36,0,0,1,.24.76q0,.12-.21.21a2.65,2.65,0,0,1-.47.13c-.17,0-.34.06-.49.08l-.29,0a.47.47,0,0,1-.42-.26L26.36,47a2.2,2.2,0,0,0-.51-.56A1.4,1.4,0,0,0,25,46.15Z"/><path d="M33,53.19a.51.51,0,0,0,.33.47,4.07,4.07,0,0,0,.81.26.23.23,0,0,1,.19.25,1.6,1.6,0,0,1,0,.33l-1.06-.07c-.34,0-.7,0-1.1,0s-.79,0-1.16,0l-1.08.07a2.86,2.86,0,0,1,0-.33.23.23,0,0,1,.17-.25,5.33,5.33,0,0,0,.83-.24.52.52,0,0,0,.4-.49V42a1.29,1.29,0,0,0-.25-.91,1.7,1.7,0,0,0-1-.3.28.28,0,0,1-.27-.29,1.06,1.06,0,0,1,0-.29c.18,0,.43,0,.75,0l.88-.07a7.84,7.84,0,0,0,.86-.16,2.35,2.35,0,0,1,.55-.11.32.32,0,0,1,.25.08.41.41,0,0,1,.06.23,6.73,6.73,0,0,1-.06.83A8.6,8.6,0,0,0,33,42.05V49.5l3.12-2.77a.32.32,0,0,0,.19-.31.19.19,0,0,0-.16-.19l-.34-.07a1.29,1.29,0,0,1-.35-.1.27.27,0,0,1-.15-.26,1,1,0,0,1,0-.25l.69,0c.37,0,.77,0,1.18,0s.8,0,1.13,0l.64,0a.25.25,0,0,0,0,.09.41.41,0,0,1,0,.16A.4.4,0,0,1,39,46a.23.23,0,0,1-.21.1,3,3,0,0,0-.79.16,1.32,1.32,0,0,0-.42.22l-2.92,2.62L38.05,53a1.83,1.83,0,0,0,.81.64,3.7,3.7,0,0,0,.75.18c.14,0,.21.08.21.25a.82.82,0,0,1,0,.18.87.87,0,0,1,0,.21q-1.41-.06-2.91-.06l-3.79-4.58h0Z"/><path d="M46,47.92a.33.33,0,0,1-.24-.07.29.29,0,0,1-.09-.16A1.8,1.8,0,0,0,45,46.47a2.28,2.28,0,0,0-1.32-.36,1.75,1.75,0,0,0-1.07.34,1.1,1.1,0,0,0-.47.95,1.17,1.17,0,0,0,.42.91,5,5,0,0,0,1.56.72,9.54,9.54,0,0,1,1.11.41,3.41,3.41,0,0,1,.87.55,2.28,2.28,0,0,1,.58.79,2.76,2.76,0,0,1,.21,1.12,2.83,2.83,0,0,1-.2,1,2.37,2.37,0,0,1-.61.87,3,3,0,0,1-1,.61,4.26,4.26,0,0,1-1.46.23,7.5,7.5,0,0,1-1.49-.16A4.71,4.71,0,0,1,40.63,54c0-.36-.05-.74-.08-1.13s0-.8,0-1.2h.21a.8.8,0,0,1,.36.07.3.3,0,0,1,.16.24,2.11,2.11,0,0,0,.68,1.41,2.4,2.4,0,0,0,1.65.53,2,2,0,0,0,1.32-.39,1.3,1.3,0,0,0,.45-1.05,1.2,1.2,0,0,0-.5-1,5.11,5.11,0,0,0-1.47-.66,5.21,5.21,0,0,1-1.93-1,2.19,2.19,0,0,1-.7-1.77,2.54,2.54,0,0,1,.79-1.85,2.74,2.74,0,0,1,.92-.56,3.3,3.3,0,0,1,1.21-.21,5.37,5.37,0,0,1,1.57.22,4.86,4.86,0,0,1,1.16.47c0,.11,0,.24,0,.4l0,.5c0,.18,0,.35,0,.52s0,.33,0,.47Z"/><path d="M49.62,42a1.38,1.38,0,0,0-.22-.89,1.4,1.4,0,0,0-.94-.32.28.28,0,0,1-.27-.29,1.06,1.06,0,0,1,0-.29c.18,0,.43,0,.76,0s.59,0,.8-.07a8.53,8.53,0,0,0,.87-.16,2.39,2.39,0,0,1,.54-.11.27.27,0,0,1,.3.31,5.13,5.13,0,0,1-.07.82,8.77,8.77,0,0,0-.06,1.12v5.21a5.72,5.72,0,0,1,1.51-1.47,3.48,3.48,0,0,1,1.82-.45,3.36,3.36,0,0,1,1.36.29,3.22,3.22,0,0,1,1.15.87,4.43,4.43,0,0,1,.8,1.4,5.61,5.61,0,0,1,.3,1.9,4.69,4.69,0,0,1-.44,2.06,5.29,5.29,0,0,1-1.08,1.51,4.54,4.54,0,0,1-1.41.93,3.67,3.67,0,0,1-1.42.33,5.79,5.79,0,0,1-1.51-.19A5.94,5.94,0,0,1,51.14,54a1.39,1.39,0,0,0-.44.13l-.37.21-.3.21a.38.38,0,0,1-.22.1.59.59,0,0,1-.31-.09c0-.22,0-.42,0-.59s0-.34,0-.51a4.36,4.36,0,0,0,0-.51c0-.17,0-.37,0-.59Zm1.75,10.74a4.39,4.39,0,0,0,1.14.86,3.27,3.27,0,0,0,1.43.31,2,2,0,0,0,1.8-1,4.83,4.83,0,0,0,.61-2.56,6.18,6.18,0,0,0-.18-1.51,4,4,0,0,0-.52-1.26,2.79,2.79,0,0,0-.81-.86,2,2,0,0,0-1.1-.31,1.62,1.62,0,0,0-.83.24,3.18,3.18,0,0,0-.76.62,3.24,3.24,0,0,0-.56.84,2.31,2.31,0,0,0-.22.95Z"/><path d="M60.91,47.53a1.56,1.56,0,0,0-.2-.93,1.33,1.33,0,0,0-.9-.3q-.27,0-.27-.27a1.06,1.06,0,0,1,0-.29l.72,0a6.64,6.64,0,0,0,.76-.09,5.13,5.13,0,0,0,.8-.16,2.26,2.26,0,0,1,.51-.09c.19,0,.29.1.29.31v5.21a7.16,7.16,0,0,0,.06,1,2.42,2.42,0,0,0,.23.76,1.22,1.22,0,0,0,.48.5,1.68,1.68,0,0,0,.79.17,3.21,3.21,0,0,0,1-.17,2.93,2.93,0,0,0,.89-.52,2.54,2.54,0,0,0,.61-.85A2.79,2.79,0,0,0,67,50.57v-3a1.56,1.56,0,0,0-.2-.92,1.33,1.33,0,0,0-.93-.31q-.27,0-.27-.27a1.1,1.1,0,0,1,.05-.29c.18,0,.42,0,.71,0a7,7,0,0,0,.78-.09,5,5,0,0,0,.81-.16,2.12,2.12,0,0,1,.5-.09c.2,0,.3.1.3.31v6.77a2.91,2.91,0,0,0,0,.57.67.67,0,0,0,.17.36.76.76,0,0,0,.34.21,2.62,2.62,0,0,0,.57.09q.27,0,.27.27a1.11,1.11,0,0,1,0,.29,6.12,6.12,0,0,0-.83.06l-.84.13-.7.12a2.08,2.08,0,0,1-.44.07c-.19,0-.29-.11-.29-.32V52.57l-.35.39a6,6,0,0,1-1.85,1.39,3,3,0,0,1-1.32.3,2.43,2.43,0,0,1-1.91-.73,3.06,3.06,0,0,1-.63-2.06Z"/><path d="M77.38,45.38a1.26,1.26,0,0,1,.9.29.92.92,0,0,1,.29.65.85.85,0,0,1,0,.23.65.65,0,0,1-.2.22l-.44.27c-.19.1-.45.23-.78.38a1.71,1.71,0,0,0-.45-.39,1,1,0,0,0-.57-.17,1.16,1.16,0,0,0-.65.2,1.74,1.74,0,0,0-.5.54,3.34,3.34,0,0,0-.32.79,4.08,4.08,0,0,0-.11.93V52.9a.73.73,0,0,0,.48.68,5.21,5.21,0,0,0,1.37.34.23.23,0,0,1,.21.25,2.86,2.86,0,0,1,0,.33l-.58,0-.71,0c-.25,0-.51,0-.78,0h-.73l-1.18,0-1.15.07a2.86,2.86,0,0,1,0-.33.23.23,0,0,1,.19-.25,3.62,3.62,0,0,0,.84-.25.52.52,0,0,0,.37-.48V47.9a4.91,4.91,0,0,0-.05-.73,1.36,1.36,0,0,0-.18-.47.8.8,0,0,0-.37-.26,3.45,3.45,0,0,0-.61-.12q-.27,0-.27-.27a1.06,1.06,0,0,1,0-.29c.18,0,.43,0,.76,0s.59,0,.8-.07a6.79,6.79,0,0,0,.82-.18,2.26,2.26,0,0,1,.51-.09.27.27,0,0,1,.3.31v1.4a8.76,8.76,0,0,1,1.34-1.22A2.52,2.52,0,0,1,77.38,45.38Z"/><path d="M80.11,54a1.65,1.65,0,0,1-.9-1.5q0-1,1.38-1.71a2.62,2.62,0,0,1-.93-.94,2.91,2.91,0,0,1-.34-1.47,2.39,2.39,0,0,1,.28-1.13,3.16,3.16,0,0,1,.76-1,3.65,3.65,0,0,1,1.09-.66,3.57,3.57,0,0,1,1.3-.24,4.52,4.52,0,0,1,1.67.25,4,4,0,0,1,1.08.62l2.06-.89a.88.88,0,0,1,.34.38,1.12,1.12,0,0,1,.1.45c0,.31-.1.46-.31.46l-.75,0a4.8,4.8,0,0,0-1,.12,2.54,2.54,0,0,1,.5,1.59,2.48,2.48,0,0,1-.29,1.18,3,3,0,0,1-.79.93,3.7,3.7,0,0,1-1.19.6,4.65,4.65,0,0,1-1.46.22,5.53,5.53,0,0,1-.83,0,3.16,3.16,0,0,1-.75-.18,2.35,2.35,0,0,0-.75.5.78.78,0,0,0-.21.48.62.62,0,0,0,.11.33.84.84,0,0,0,.38.27,3.45,3.45,0,0,0,.79.18,9.24,9.24,0,0,0,1.31.08,11.14,11.14,0,0,1,1.77.14,5.11,5.11,0,0,1,1.46.48,2.61,2.61,0,0,1,1,.88,2.22,2.22,0,0,1,.37,1.31,3.39,3.39,0,0,1-.35,1.54,3.62,3.62,0,0,1-1,1.18,4.68,4.68,0,0,1-1.48.75,6.69,6.69,0,0,1-1.89.26,5.68,5.68,0,0,1-3.06-.71,2.51,2.51,0,0,1-1.1-2.27,2.57,2.57,0,0,1,.14-.85,3,3,0,0,1,.37-.69,2.35,2.35,0,0,1,.5-.54A3.81,3.81,0,0,1,80.11,54Zm.5.25A2.26,2.26,0,0,0,80,55.75v.36a2.33,2.33,0,0,0,.22.87,2.24,2.24,0,0,0,.61.77,3.16,3.16,0,0,0,1,.54,4,4,0,0,0,1.35.21,2.87,2.87,0,0,0,2.09-.64,2.08,2.08,0,0,0,.66-1.57,1.66,1.66,0,0,0-.17-.73,1.45,1.45,0,0,0-.56-.57,3.3,3.3,0,0,0-1-.37,8,8,0,0,0-1.6-.14,9,9,0,0,1-1.06-.06A3.72,3.72,0,0,1,80.61,54.21ZM83,50.52a1.56,1.56,0,0,0,1.23-.5,1.93,1.93,0,0,0,.46-1.37,4,4,0,0,0-.1-.91,2.59,2.59,0,0,0-.32-.81,1.81,1.81,0,0,0-.61-.59,1.91,1.91,0,0,0-1-.23,1.48,1.48,0,0,0-1.16.48,1.93,1.93,0,0,0-.42,1.31,5,5,0,0,0,.09,1,2.81,2.81,0,0,0,.31.84,1.81,1.81,0,0,0,.59.61A1.67,1.67,0,0,0,83,50.52Z"/><path d="M100.49,54.65a8,8,0,0,1-3.06-.54,6,6,0,0,1-2.17-1.49A6.05,6.05,0,0,1,94,50.39a8.49,8.49,0,0,1-.43-2.76A7.49,7.49,0,0,1,94,45.15a6.8,6.8,0,0,1,1.29-2.26,6.55,6.55,0,0,1,2.17-1.64,6.89,6.89,0,0,1,3.06-.64q.69,0,1.26,0c.39,0,.75.06,1.1.11s.69.11,1,.19.68.16,1,.26a10.29,10.29,0,0,0,.15,1.37,16.42,16.42,0,0,0,.33,1.64.68.68,0,0,1-.33.09,1.37,1.37,0,0,1-.31,0,.27.27,0,0,1-.17-.23,3.42,3.42,0,0,0-1.19-2,4,4,0,0,0-2.35-.58,6,6,0,0,0-2.28.41,4.66,4.66,0,0,0-1.67,1.17,5,5,0,0,0-1,1.8,7.47,7.47,0,0,0-.34,2.34,7.79,7.79,0,0,0,.43,2.65,7,7,0,0,0,1.18,2.08,5.24,5.24,0,0,0,1.73,1.35,4.76,4.76,0,0,0,2.11.48,5.87,5.87,0,0,0,1.51-.17,2.87,2.87,0,0,0,1-.51,3.12,3.12,0,0,0,.69-.83,8.24,8.24,0,0,0,.53-1.11.5.5,0,0,1,.5-.31l.22,0a.75.75,0,0,1,.18.07c-.17.49-.34,1-.5,1.6s-.31,1.17-.42,1.75c-.68.11-1.37.2-2.08.26S101.34,54.65,100.49,54.65Z"/><path d="M107.28,50a4.48,4.48,0,0,1,.37-1.81,4.58,4.58,0,0,1,1-1.48,4.83,4.83,0,0,1,1.46-1,4.63,4.63,0,0,1,1.83-.36,4.94,4.94,0,0,1,1.87.34,4.49,4.49,0,0,1,1.47.95,4.17,4.17,0,0,1,1,1.47,5,5,0,0,1,.34,1.88,4.63,4.63,0,0,1-.36,1.83,4.83,4.83,0,0,1-1,1.46,4.64,4.64,0,0,1-1.47,1,4.42,4.42,0,0,1-1.82.37,5,5,0,0,1-1.88-.35,4.47,4.47,0,0,1-1.47-.94,4.29,4.29,0,0,1-1-1.46A5,5,0,0,1,107.28,50Zm2-.68a8,8,0,0,0,.17,1.58,5.55,5.55,0,0,0,.51,1.47,3.34,3.34,0,0,0,.88,1.08,2.08,2.08,0,0,0,1.31.43A2.21,2.21,0,0,0,114,53a3.39,3.39,0,0,0,.65-2.14,9.19,9.19,0,0,0-.15-1.61,6.12,6.12,0,0,0-.5-1.55,3.44,3.44,0,0,0-.9-1.15,2,2,0,0,0-1.36-.46,2.25,2.25,0,0,0-1.78.76A3.62,3.62,0,0,0,109.24,49.32Z"/><path d="M126.88,47.46a3.89,3.89,0,0,0,.37-.39,6.14,6.14,0,0,1,.77-.71,6.26,6.26,0,0,1,1.08-.69,2.89,2.89,0,0,1,1.33-.31,2,2,0,0,1,1.78.74,3.49,3.49,0,0,1,.52,2v5.06a.5.5,0,0,0,.37.47,4.63,4.63,0,0,0,.84.24.23.23,0,0,1,.18.25,1.6,1.6,0,0,1,0,.33L133,54.43c-.35,0-.73,0-1.13,0l-1.12,0-1.08.07a1.6,1.6,0,0,1,0-.33.23.23,0,0,1,.19-.25,1.84,1.84,0,0,0,.38-.08,3,3,0,0,0,.36-.15,1.06,1.06,0,0,0,.29-.2.39.39,0,0,0,.11-.28V48.92a3.31,3.31,0,0,0-.31-1.74,1.16,1.16,0,0,0-1-.45,2.94,2.94,0,0,0-1,.18,2.55,2.55,0,0,0-.87.52,2.51,2.51,0,0,0-.6.85,2.73,2.73,0,0,0-.23,1.14v3.79a.5.5,0,0,0,.35.47,4.19,4.19,0,0,0,.8.24.23.23,0,0,1,.18.25,1.6,1.6,0,0,1,0,.33l-1.05-.07c-.34,0-.7,0-1.07,0s-.75,0-1.12,0l-1.09.07a1.6,1.6,0,0,1,0-.33.23.23,0,0,1,.19-.25,3.81,3.81,0,0,0,.76-.22.52.52,0,0,0,.38-.49V48.92a3.44,3.44,0,0,0-.3-1.74,1.11,1.11,0,0,0-1-.45,2.94,2.94,0,0,0-1,.18,2.76,2.76,0,0,0-.87.52,2.4,2.4,0,0,0-.61.85,2.73,2.73,0,0,0-.23,1.14v3.79a.5.5,0,0,0,.37.47,4.45,4.45,0,0,0,.78.24.23.23,0,0,1,.18.25,1.6,1.6,0,0,1,0,.33l-1.06-.07q-.52,0-1.11,0c-.41,0-.8,0-1.16,0L118,54.5a1.6,1.6,0,0,1,0-.33.23.23,0,0,1,.18-.25,4.63,4.63,0,0,0,.84-.24.51.51,0,0,0,.37-.49V47.53a1.42,1.42,0,0,0-.22-.9,1.34,1.34,0,0,0-.94-.33c-.19,0-.28-.13-.28-.29a1.12,1.12,0,0,1,0-.27l.76,0c.32,0,.59,0,.8-.07a7.57,7.57,0,0,0,.86-.18,2.83,2.83,0,0,1,.55-.09c.2,0,.3.1.3.31a5,5,0,0,1-.07.7,7.64,7.64,0,0,0-.06,1.07l.35-.39a6.24,6.24,0,0,1,1.83-1.39,2.92,2.92,0,0,1,1.33-.3,2.14,2.14,0,0,1,1.61.55A2.59,2.59,0,0,1,126.88,47.46Z"/><path d="M144.2,47.46a3.53,3.53,0,0,0,.38-.39,6,6,0,0,1,.76-.71,6.78,6.78,0,0,1,1.09-.69,2.86,2.86,0,0,1,1.33-.31,2,2,0,0,1,1.77.74,3.49,3.49,0,0,1,.52,2v5.06a.51.51,0,0,0,.38.47,4.76,4.76,0,0,0,.83.24.23.23,0,0,1,.19.25,1.6,1.6,0,0,1,0,.33l-1.07-.07c-.34,0-.72,0-1.13,0l-1.11,0L147,54.5a2.86,2.86,0,0,1,0-.33.23.23,0,0,1,.19-.25,2.08,2.08,0,0,0,.39-.08,3,3,0,0,0,.36-.15,1.18,1.18,0,0,0,.28-.2.36.36,0,0,0,.12-.28V48.92a3.29,3.29,0,0,0-.32-1.74,1.16,1.16,0,0,0-1-.45,3,3,0,0,0-1,.18,2.61,2.61,0,0,0-.86.52,2.68,2.68,0,0,0-.61.85,2.73,2.73,0,0,0-.23,1.14v3.79a.5.5,0,0,0,.36.47,4.08,4.08,0,0,0,.79.24.23.23,0,0,1,.19.25,2.86,2.86,0,0,1,0,.33l-1.06-.07c-.34,0-.69,0-1.07,0s-.74,0-1.11,0l-1.1.07a2.86,2.86,0,0,1,0-.33.23.23,0,0,1,.19-.25,3.81,3.81,0,0,0,.76-.22.52.52,0,0,0,.39-.49V48.92a3.44,3.44,0,0,0-.3-1.74,1.14,1.14,0,0,0-1-.45,3,3,0,0,0-1,.18,2.76,2.76,0,0,0-.87.52,2.68,2.68,0,0,0-.61.85,2.73,2.73,0,0,0-.22,1.14v3.79a.5.5,0,0,0,.36.47,4.45,4.45,0,0,0,.78.24.23.23,0,0,1,.19.25,2.86,2.86,0,0,1,0,.33l-1.07-.07q-.52,0-1.11,0c-.41,0-.79,0-1.15,0l-1.07.07a2.86,2.86,0,0,1,0-.33.23.23,0,0,1,.19-.25,4.76,4.76,0,0,0,.83-.24.52.52,0,0,0,.38-.49V47.53a1.48,1.48,0,0,0-.22-.9,1.37,1.37,0,0,0-1-.33.28.28,0,0,1-.27-.29,1,1,0,0,1,0-.27l.76,0c.33,0,.6,0,.8-.07a7.33,7.33,0,0,0,.87-.18,2.62,2.62,0,0,1,.55-.09c.19,0,.29.1.29.31a4.83,4.83,0,0,1-.06.7,7.64,7.64,0,0,0-.06,1.07l.35-.39a4.85,4.85,0,0,1,.76-.71,5.84,5.84,0,0,1,1.06-.68,3,3,0,0,1,1.33-.3,2.12,2.12,0,0,1,1.61.55A2.59,2.59,0,0,1,144.2,47.46Z"/><path d="M153.62,47.53a1.56,1.56,0,0,0-.2-.93,1.36,1.36,0,0,0-.91-.3q-.27,0-.27-.27a1.06,1.06,0,0,1,0-.29l.72,0a6.37,6.37,0,0,0,.76-.09,4.91,4.91,0,0,0,.8-.16,2.26,2.26,0,0,1,.51-.09c.2,0,.29.1.29.31v5.21a7.09,7.09,0,0,0,.07,1,2.18,2.18,0,0,0,.23.76,1.26,1.26,0,0,0,.47.5,1.72,1.72,0,0,0,.8.17,3.3,3.3,0,0,0,1-.17,2.88,2.88,0,0,0,.88-.52,2.56,2.56,0,0,0,.62-.85,2.79,2.79,0,0,0,.22-1.16v-3a1.57,1.57,0,0,0-.19-.92,1.35,1.35,0,0,0-.93-.31q-.27,0-.27-.27a1.06,1.06,0,0,1,0-.29l.72,0a7,7,0,0,0,.78-.09,4.7,4.7,0,0,0,.8-.16,2.26,2.26,0,0,1,.51-.09c.2,0,.29.1.29.31v6.77a2.79,2.79,0,0,0,.05.57.67.67,0,0,0,.16.36.86.86,0,0,0,.35.21,2.43,2.43,0,0,0,.57.09q.27,0,.27.27a1.11,1.11,0,0,1,0,.29,6.26,6.26,0,0,0-.84.06l-.83.13-.71.12a2,2,0,0,1-.43.07c-.2,0-.3-.11-.3-.32V52.57l-.35.39a6,6,0,0,1-.76.71,6.24,6.24,0,0,1-1.08.68,3,3,0,0,1-1.32.3,2.41,2.41,0,0,1-1.91-.73,3.06,3.06,0,0,1-.63-2.06Z"/><path d="M173.25,53.21a.51.51,0,0,0,.38.47,4.52,4.52,0,0,0,.83.24.23.23,0,0,1,.19.25,2.86,2.86,0,0,1,0,.33l-1.07-.07c-.34,0-.72,0-1.12,0s-.75,0-1.12,0l-1.09.07a1.6,1.6,0,0,1,0-.33.23.23,0,0,1,.19-.25,4.31,4.31,0,0,0,.79-.24.5.5,0,0,0,.35-.47V49.13a7.06,7.06,0,0,0-.06-1,2.19,2.19,0,0,0-.24-.76,1.33,1.33,0,0,0-.47-.5,1.53,1.53,0,0,0-.78-.18,3,3,0,0,0-1,.18,2.7,2.7,0,0,0-.88.52,2.54,2.54,0,0,0-.61.85,2.73,2.73,0,0,0-.23,1.14v3.79a.5.5,0,0,0,.37.47,4.45,4.45,0,0,0,.78.24.23.23,0,0,1,.19.25,1.76,1.76,0,0,1-.05.33l-1.06-.07q-.52,0-1.11,0c-.41,0-.79,0-1.16,0l-1.06.07a1.6,1.6,0,0,1,0-.33.23.23,0,0,1,.19-.25,4.76,4.76,0,0,0,.83-.24.51.51,0,0,0,.37-.49V47.53a1.42,1.42,0,0,0-.22-.9,1.34,1.34,0,0,0-.94-.33A.28.28,0,0,1,164,46a1,1,0,0,1,0-.27l.76,0c.32,0,.59,0,.8-.07a8.28,8.28,0,0,0,.87-.18,2.66,2.66,0,0,1,.54-.09c.2,0,.3.1.3.31a4.83,4.83,0,0,1-.06.7,6.21,6.21,0,0,0-.07,1.07,9.63,9.63,0,0,1,1.71-1.54,3.22,3.22,0,0,1,1.8-.54,2.38,2.38,0,0,1,1.9.74,3.06,3.06,0,0,1,.63,2Z"/><path d="M178.11,54.4h-.72c-.25,0-.47,0-.68,0l-.54,0-.29,0a1.2,1.2,0,0,0,0-.14c0-.09,0-.15,0-.19a.23.23,0,0,1,.19-.25,4.31,4.31,0,0,0,.88-.25.5.5,0,0,0,.33-.48V47.53a1.42,1.42,0,0,0-.22-.9,1.37,1.37,0,0,0-.95-.33.28.28,0,0,1-.27-.29,1.76,1.76,0,0,1,0-.27l.76,0c.33,0,.6,0,.81-.07a7.57,7.57,0,0,0,.86-.18,2.72,2.72,0,0,1,.55-.09c.19,0,.29.1.29.31a4.83,4.83,0,0,1-.06.7,7.64,7.64,0,0,0-.06,1.07v5.75a.5.5,0,0,0,.32.48,4,4,0,0,0,.91.25c.11,0,.16.11.16.25a1.58,1.58,0,0,1,0,.19.25.25,0,0,1,0,.14l-.28,0-.53,0c-.21,0-.44,0-.68,0ZM176.9,41.88a1.2,1.2,0,0,1,.34-.86,1.16,1.16,0,0,1,.86-.37,1.11,1.11,0,0,1,.84.37,1.23,1.23,0,0,1,.33.86,1.2,1.2,0,0,1-.33.88,1.15,1.15,0,0,1-.84.33,1.2,1.2,0,0,1-.86-.33A1.17,1.17,0,0,1,176.9,41.88Z"/><path d="M186.45,53.17a.56.56,0,0,1,.18-.13l.11,0c.13,0,.24.09.34.27a4.84,4.84,0,0,1-1.17,1,2.53,2.53,0,0,1-1.33.38,2.9,2.9,0,0,1-.79-.1,1.35,1.35,0,0,1-.65-.36,1.82,1.82,0,0,1-.42-.74,3.76,3.76,0,0,1-.16-1.22V46.48h-1.25v-.22a.87.87,0,0,1,.05-.28.22.22,0,0,1,.22-.12,1.43,1.43,0,0,0,.92-.29,2.43,2.43,0,0,0,.58-.75c.17-.33.31-.65.44-.94s.26-.44.41-.44h.38v2.17h2.43a1.86,1.86,0,0,1-.09.66.34.34,0,0,1-.34.21h-2v5.17a7.64,7.64,0,0,0,.06,1.07,2,2,0,0,0,.19.63.6.6,0,0,0,.29.28,1.1,1.1,0,0,0,.37.06,1.34,1.34,0,0,0,.66-.16A3.41,3.41,0,0,0,186.45,53.17Z"/><path d="M192.62,52.13c.21-.53.43-1.07.68-1.64s.49-1.09.7-1.59.39-.95.53-1.35a3.11,3.11,0,0,0,.21-.9.29.29,0,0,0-.17-.28,3,3,0,0,0-.36-.17,3,3,0,0,1-.36-.14.24.24,0,0,1-.17-.24,1.05,1.05,0,0,1,0-.13s0-.1,0-.14c.54,0,1.12.06,1.73.06h.83c.24,0,.46,0,.67-.05a.34.34,0,0,1,.05.14.72.72,0,0,1,0,.13c0,.15-.09.25-.27.29a3.9,3.9,0,0,0-.49.12,1,1,0,0,0-.29.17,1,1,0,0,0-.21.27c-.06.11-.13.27-.22.48l-4.27,10.08A3.49,3.49,0,0,1,190,58.81a3.1,3.1,0,0,1-1.8.59.3.3,0,0,1-.24-.1.38.38,0,0,1-.07-.22,2.25,2.25,0,0,1,.06-.49,3.39,3.39,0,0,1,.17-.48,1.35,1.35,0,0,1,.24-.35.38.38,0,0,1,.28-.13,1.39,1.39,0,0,1,.3,0,1.42,1.42,0,0,0,.31,0,1.35,1.35,0,0,0,.83-.22,1.86,1.86,0,0,0,.48-.7l1.06-2.48-3.21-7.14c-.09-.19-.18-.35-.25-.47a1.13,1.13,0,0,0-.23-.29.77.77,0,0,0-.29-.17l-.44-.09a.3.3,0,0,1-.27-.31s0-.07,0-.13a.35.35,0,0,1,.06-.14c.27,0,.56,0,.84.05h2.51c.29,0,.58,0,.87-.05a.35.35,0,0,1,.06.14c0,.06,0,.1,0,.13a.25.25,0,0,1-.27.27,1.93,1.93,0,0,0-.65.18.29.29,0,0,0-.17.26,3.25,3.25,0,0,0,.13.52,8.68,8.68,0,0,0,.41,1Z"/><path d="M211.3,44.13a1.6,1.6,0,0,1-.32,0,.59.59,0,0,1-.39-.1.67.67,0,0,1-.19-.23,4.24,4.24,0,0,0-1.29-1.73,3.43,3.43,0,0,0-2-.54,3.31,3.31,0,0,0-.95.14,2.38,2.38,0,0,0-.78.39,2,2,0,0,0-.53.64,1.76,1.76,0,0,0-.2.83,1.94,1.94,0,0,0,.82,1.6,10.67,10.67,0,0,0,2.43,1.27,8.75,8.75,0,0,1,2.95,1.76,3.29,3.29,0,0,1,.94,2.39,4.57,4.57,0,0,1-.26,1.59,3.36,3.36,0,0,1-.81,1.29,3.8,3.8,0,0,1-1.42.87,6.57,6.57,0,0,1-2.11.31,9.4,9.4,0,0,1-2.34-.27,6.67,6.67,0,0,1-1.78-.71c0-.58-.11-1.15-.19-1.69s-.18-1.08-.29-1.62a.91.91,0,0,1,.35-.06.57.57,0,0,1,.39.11,1,1,0,0,1,.24.36A5,5,0,0,0,204.87,53a3.44,3.44,0,0,0,2.3.71,3.19,3.19,0,0,0,1.17-.19,2.26,2.26,0,0,0,.83-.52,2.19,2.19,0,0,0,.5-.75,2.39,2.39,0,0,0,.17-.89,2.13,2.13,0,0,0-.74-1.71A7.08,7.08,0,0,0,207,48.5a17,17,0,0,1-1.63-.69,5.59,5.59,0,0,1-1.25-.85,3.35,3.35,0,0,1-.8-1.11,3.67,3.67,0,0,1-.28-1.51,3.71,3.71,0,0,1,.28-1.45,3.41,3.41,0,0,1,.81-1.17,4,4,0,0,1,1.28-.8,4.71,4.71,0,0,1,1.69-.29,9.41,9.41,0,0,1,1.87.19,12.65,12.65,0,0,1,2,.63c0,.41.07.86.12,1.34A12.26,12.26,0,0,0,211.3,44.13Z"/><path d="M217.83,46.15a1.88,1.88,0,0,0-1.59.86,3.86,3.86,0,0,0-.61,2.31,4.91,4.91,0,0,0,.9,3.14,3,3,0,0,0,2.41,1.13,2.62,2.62,0,0,0,1.11-.21,6.88,6.88,0,0,0,.78-.42l.15-.09a.27.27,0,0,1,.16-.06.33.33,0,0,1,.23.15,1.08,1.08,0,0,1,.17.23,3.57,3.57,0,0,1-.52.5,4.39,4.39,0,0,1-.75.47,4.77,4.77,0,0,1-1,.35,6.06,6.06,0,0,1-1.34.14,4.84,4.84,0,0,1-1.62-.28,3.74,3.74,0,0,1-1.33-.85,4.09,4.09,0,0,1-.91-1.4,5.38,5.38,0,0,1-.33-2,4.63,4.63,0,0,1,.41-1.95,5,5,0,0,1,1-1.51,5,5,0,0,1,1.41-1,3.77,3.77,0,0,1,1.53-.35,5.48,5.48,0,0,1,1.4.17,3.84,3.84,0,0,1,1.06.43,2.21,2.21,0,0,1,.68.64,1.36,1.36,0,0,1,.24.76q0,.12-.21.21a2.91,2.91,0,0,1-.47.13,4.71,4.71,0,0,1-.5.08l-.28,0a.5.5,0,0,1-.43-.26c-.1-.18-.22-.36-.34-.57a2.4,2.4,0,0,0-.51-.56A1.45,1.45,0,0,0,217.83,46.15Z"/><path d="M225.91,47.42a3.13,3.13,0,0,0,.36-.37,5.34,5.34,0,0,1,.76-.71,5.93,5.93,0,0,1,1.07-.68,3,3,0,0,1,1.33-.3,3.06,3.06,0,0,1,1,.15,1.91,1.91,0,0,1,.8.47,2.36,2.36,0,0,1,.55.86,3.48,3.48,0,0,1,.21,1.29v5.08a.51.51,0,0,0,.38.47,4.52,4.52,0,0,0,.85.24.23.23,0,0,1,.17.25,2.86,2.86,0,0,1,0,.33l-1.06-.07q-.51,0-1.14,0c-.37,0-.73,0-1.1,0l-1.1.07a1.6,1.6,0,0,1,0-.33.23.23,0,0,1,.19-.25,1.84,1.84,0,0,0,.38-.08,3.17,3.17,0,0,0,.37-.15,1.18,1.18,0,0,0,.28-.2.39.39,0,0,0,.11-.28V49.13a7.06,7.06,0,0,0-.06-1,2.19,2.19,0,0,0-.24-.76,1.26,1.26,0,0,0-.47-.5,1.5,1.5,0,0,0-.78-.18,3,3,0,0,0-1,.18,2.7,2.7,0,0,0-.88.52,2.54,2.54,0,0,0-.61.85,2.73,2.73,0,0,0-.23,1.14v3.79a.5.5,0,0,0,.36.47,4.08,4.08,0,0,0,.79.24.23.23,0,0,1,.19.25,1.76,1.76,0,0,1-.05.33l-1.06-.07q-.52,0-1.11,0c-.41,0-.79,0-1.16,0l-1.06.07a1.6,1.6,0,0,1,0-.33c0-.14,0-.22.17-.25a4.75,4.75,0,0,0,.85-.24.51.51,0,0,0,.37-.49V42a1.2,1.2,0,0,0-.25-.9,1.82,1.82,0,0,0-1-.31.28.28,0,0,1-.27-.29,1.1,1.1,0,0,1,.05-.29c.18,0,.43,0,.75,0l.87-.07a7.84,7.84,0,0,0,.86-.16,2.56,2.56,0,0,1,.55-.11.31.31,0,0,1,.25.08.35.35,0,0,1,.07.23A6.73,6.73,0,0,1,226,41a7,7,0,0,0-.07,1.09Z"/><path d="M234.62,50a4.64,4.64,0,0,1,.36-1.81,4.58,4.58,0,0,1,1-1.48,5,5,0,0,1,1.47-1,4.58,4.58,0,0,1,1.82-.36,5,5,0,0,1,1.88.34,4.55,4.55,0,0,1,1.46.95,4.17,4.17,0,0,1,1,1.47A5,5,0,0,1,243.9,50a4.63,4.63,0,0,1-.36,1.83,4.65,4.65,0,0,1-2.46,2.45,4.42,4.42,0,0,1-1.82.37,4.94,4.94,0,0,1-1.87-.35,4.47,4.47,0,0,1-1.47-.94,4.31,4.31,0,0,1-1-1.46A5,5,0,0,1,234.62,50Zm1.95-.68a8,8,0,0,0,.17,1.58,5.55,5.55,0,0,0,.51,1.47,3.37,3.37,0,0,0,.89,1.08,2.06,2.06,0,0,0,1.31.43,2.2,2.2,0,0,0,1.84-.84A3.33,3.33,0,0,0,242,50.9a8.36,8.36,0,0,0-.16-1.61,5.75,5.75,0,0,0-.5-1.55,3.55,3.55,0,0,0-.89-1.15,2.06,2.06,0,0,0-1.37-.46,2.26,2.26,0,0,0-1.78.76A3.62,3.62,0,0,0,236.57,49.32Z"/><path d="M245.38,50a4.48,4.48,0,0,1,.37-1.81,4.58,4.58,0,0,1,1-1.48,4.83,4.83,0,0,1,1.46-1,4.63,4.63,0,0,1,1.83-.36,4.94,4.94,0,0,1,1.87.34,4.49,4.49,0,0,1,1.47.95,4.17,4.17,0,0,1,1,1.47,5,5,0,0,1,.34,1.88,4.63,4.63,0,0,1-.36,1.83,4.83,4.83,0,0,1-1,1.46,4.64,4.64,0,0,1-1.47,1,4.42,4.42,0,0,1-1.82.37,5,5,0,0,1-1.88-.35,4.13,4.13,0,0,1-2.42-2.4A5,5,0,0,1,245.38,50Zm2-.68a8,8,0,0,0,.17,1.58,5.55,5.55,0,0,0,.51,1.47,3.34,3.34,0,0,0,.88,1.08,2.08,2.08,0,0,0,1.31.43,2.21,2.21,0,0,0,1.85-.84,3.39,3.39,0,0,0,.65-2.14,9.19,9.19,0,0,0-.15-1.61,6.12,6.12,0,0,0-.5-1.55,3.44,3.44,0,0,0-.9-1.15,2,2,0,0,0-1.36-.46,2.25,2.25,0,0,0-1.78.76A3.62,3.62,0,0,0,247.34,49.32Z"/><path d="M260.69,54.5l-1.11-.07c-.37,0-.75,0-1.13,0l-1.16,0-1.12.07a1.6,1.6,0,0,1,0-.33.23.23,0,0,1,.19-.25,5.27,5.27,0,0,0,.85-.24.53.53,0,0,0,.4-.49V42a1.19,1.19,0,0,0-.27-.91,1.68,1.68,0,0,0-1-.3c-.18,0-.28-.13-.28-.29a1.1,1.1,0,0,1,0-.29c.18,0,.43,0,.75,0l.87-.07a8,8,0,0,0,.87-.16,2.39,2.39,0,0,1,.54-.11.35.35,0,0,1,.26.08.41.41,0,0,1,.06.23,6.73,6.73,0,0,1-.06.83,8.43,8.43,0,0,0-.07,1.09V53.19a.52.52,0,0,0,.39.49,4.86,4.86,0,0,0,.86.24.23.23,0,0,1,.17.25A1.6,1.6,0,0,1,260.69,54.5Z"/><path d="M267.62,47.92a.33.33,0,0,1-.24-.07.29.29,0,0,1-.09-.16,1.76,1.76,0,0,0-.68-1.22,2.28,2.28,0,0,0-1.32-.36,1.75,1.75,0,0,0-1.07.34,1.13,1.13,0,0,0-.47.95,1.15,1.15,0,0,0,.43.91,4.79,4.79,0,0,0,1.55.72,9.54,9.54,0,0,1,1.11.41,3.66,3.66,0,0,1,.88.55,2.39,2.39,0,0,1,.57.79,2.76,2.76,0,0,1,.21,1.12,2.83,2.83,0,0,1-.2,1,2.35,2.35,0,0,1-.6.87,3.22,3.22,0,0,1-1,.61,4.28,4.28,0,0,1-1.47.23,7.58,7.58,0,0,1-1.49-.16,4.71,4.71,0,0,1-1.49-.53c0-.36-.05-.74-.07-1.13s0-.8,0-1.2h.2a.8.8,0,0,1,.36.07.3.3,0,0,1,.16.24,2.15,2.15,0,0,0,.68,1.41,2.43,2.43,0,0,0,1.66.53,2,2,0,0,0,1.31-.39,1.31,1.31,0,0,0,.46-1.05,1.22,1.22,0,0,0-.5-1,5.33,5.33,0,0,0-1.48-.66,5.21,5.21,0,0,1-1.93-1,2.22,2.22,0,0,1-.7-1.77,2.52,2.52,0,0,1,.21-1,2.57,2.57,0,0,1,.59-.83,2.69,2.69,0,0,1,.91-.56,3.34,3.34,0,0,1,1.21-.21,5.37,5.37,0,0,1,1.57.22,4.86,4.86,0,0,1,1.16.47c0,.11,0,.24,0,.4l0,.5c0,.18,0,.35,0,.52s0,.33,0,.47Z"/><path d="M81.53,75h-1a1.93,1.93,0,0,0-.57.07,1.44,1.44,0,0,0-.43.21,1.78,1.78,0,0,0-.37.36,5.5,5.5,0,0,0-.38.54.28.28,0,0,1-.12.1.27.27,0,0,1-.12,0,.28.28,0,0,1-.15,0l-.08,0a4.73,4.73,0,0,0,.2-.5c.05-.16.1-.31.14-.45a2.55,2.55,0,0,0,.08-.28c0-.07,0-.14,0-.19s0-.09,0-.13a.34.34,0,0,1,.06-.12A.24.24,0,0,1,79,74.4l.23,0a1.29,1.29,0,0,0,.29,0l.38,0h4.48l.34,0a.76.76,0,0,0,.21,0l.19,0a.28.28,0,0,1,.13,0,.14.14,0,0,1,.08.09,1.61,1.61,0,0,1,0,.26,3.28,3.28,0,0,0,0,.47,3.58,3.58,0,0,0,.08.43c0,.16.07.32.11.5a.39.39,0,0,1-.26.09.17.17,0,0,1-.19-.13,1.71,1.71,0,0,0-.51-.91,1.55,1.55,0,0,0-1-.27h-1l-1.28,6.8a.33.33,0,0,0,0,.26.59.59,0,0,0,.18.17,1.49,1.49,0,0,0,.28.11l.31.06.13,0s.06.08.06.17a.6.6,0,0,1,0,.22c-.24,0-.5,0-.75-.06l-.87,0-.84,0c-.28,0-.54,0-.76.06,0,0,0-.08,0-.11v-.11a.24.24,0,0,1,0-.13.14.14,0,0,1,.1-.08,2.48,2.48,0,0,0,.72-.2.61.61,0,0,0,.33-.4Z"/><path d="M87.91,78.32a.84.84,0,0,0-.46.18,2.27,2.27,0,0,0-.52.48,6.06,6.06,0,0,0-.51.7,6.15,6.15,0,0,0-.43.85,5.85,5.85,0,0,0-.31.92,4.1,4.1,0,0,0-.11.9,1.32,1.32,0,0,0,0,.34l-.52.07-.51.12a.16.16,0,0,1-.11-.15.62.62,0,0,1,0-.18c0-.07,0-.12.05-.17a.53.53,0,0,0,0-.15,1.09,1.09,0,0,0,0-.25l.56-2.88.12-.67a2.43,2.43,0,0,1,0-.25c0-.11,0-.17-.11-.17l-.15,0-.2.09-.2.09a.56.56,0,0,1-.15,0,.11.11,0,0,1-.1-.08.48.48,0,0,1-.07-.18l.53-.29c.21-.11.41-.21.6-.29L86,77.2a1,1,0,0,1,.28-.09.25.25,0,0,1,.15,0,.17.17,0,0,1,.07.14s0,0,0,.09a.51.51,0,0,1,0,.13l-.4,1.9h0a7.85,7.85,0,0,1,1.24-1.76,1.67,1.67,0,0,1,1.11-.55.65.65,0,0,1,.21,0,.36.36,0,0,1,.13.08c-.07.19-.14.4-.2.61a5.58,5.58,0,0,0-.14.71h-.2A.39.39,0,0,0,87.91,78.32Z"/><path d="M92.11,80.61h-.06a6.6,6.6,0,0,1-.64,1,4.5,4.5,0,0,1-.65.7,2.34,2.34,0,0,1-.64.39,1.59,1.59,0,0,1-.59.12,1.13,1.13,0,0,1-.36-.06.72.72,0,0,1-.3-.2.92.92,0,0,1-.21-.38,2,2,0,0,1-.08-.61,5,5,0,0,1,.35-1.91,4.68,4.68,0,0,1,.87-1.41,3.78,3.78,0,0,1,1.12-.88A2.57,2.57,0,0,1,92,77.11c.27,0,.53,0,.78,0a8.15,8.15,0,0,1,.84.14l-.87,4.4a1,1,0,0,0,0,.23c0,.11,0,.16.14.16a.46.46,0,0,0,.19,0l.19-.11.17-.1a.3.3,0,0,1,.14,0c.08,0,.14.08.17.25a4.76,4.76,0,0,1-.47.31,4.59,4.59,0,0,1-.48.26,3.15,3.15,0,0,1-.43.19,1.22,1.22,0,0,1-.33.07.54.54,0,0,1-.25-.06.26.26,0,0,1-.11-.25.71.71,0,0,1,0-.14,1.16,1.16,0,0,1,0-.18Zm.45-2.87a1.59,1.59,0,0,0-.33-.09l-.35,0a1.6,1.6,0,0,0-.91.27,2.08,2.08,0,0,0-.7.74,3.88,3.88,0,0,0-.45,1.14,5.94,5.94,0,0,0-.16,1.44,1.46,1.46,0,0,0,.11.65.36.36,0,0,0,.32.19.93.93,0,0,0,.55-.22,3.27,3.27,0,0,0,.56-.6,7,7,0,0,0,.53-.83,8.79,8.79,0,0,0,.43-.94,7.57,7.57,0,0,0,.29-.93A3.1,3.1,0,0,0,92.56,77.74Z"/><path d="M98.83,76.15q0-.15.06-.33c0-.13,0-.25,0-.36l0-.34c0-.11,0-.19,0-.26a.32.32,0,0,0,0-.13s0-.06-.1-.06l-.14,0-.2,0-.2,0h-.13c-.11,0-.17-.09-.17-.26.38-.11.73-.21,1-.32s.64-.22,1-.34a.38.38,0,0,1,.13.11.19.19,0,0,1,0,.1,1,1,0,0,1,0,.23l-1.44,7.42a1,1,0,0,1,0,.12.38.38,0,0,0,0,.1.13.13,0,0,0,.15.15A.46.46,0,0,0,99,82l.19-.11.17-.1a.3.3,0,0,1,.14,0c.08,0,.13.08.16.25a3.7,3.7,0,0,1-.46.31c-.17.1-.33.19-.48.26a3.15,3.15,0,0,1-.43.19,1.22,1.22,0,0,1-.33.07.54.54,0,0,1-.25-.06c-.08,0-.11-.13-.11-.27a2.13,2.13,0,0,1,0-.3L98,80.61h0a5.6,5.6,0,0,1-1.19,1.72,1.81,1.81,0,0,1-1.21.54,1.21,1.21,0,0,1-.38-.06.84.84,0,0,1-.33-.21,1.1,1.1,0,0,1-.25-.41,2.1,2.1,0,0,1-.1-.67,5.33,5.33,0,0,1,.32-1.9,4.41,4.41,0,0,1,.81-1.38,3.44,3.44,0,0,1,1.09-.84,2.68,2.68,0,0,1,1.15-.29c.27,0,.52,0,.74,0Zm-.34,1.59a1.54,1.54,0,0,0-.37-.09l-.39,0a1.53,1.53,0,0,0-.89.27,2.37,2.37,0,0,0-.66.74,4.14,4.14,0,0,0-.43,1.11,5.82,5.82,0,0,0-.15,1.35,1.5,1.5,0,0,0,.13.75.41.41,0,0,0,.38.21.76.76,0,0,0,.5-.22,3.61,3.61,0,0,0,.54-.6,7,7,0,0,0,.5-.83,10,10,0,0,0,.43-1c.12-.33.22-.64.3-.94A3.46,3.46,0,0,0,98.49,77.74Z"/><path d="M101.83,81.67s0,.08,0,.14a.57.57,0,0,0,0,.12.13.13,0,0,0,.15.15.39.39,0,0,0,.18,0l.19-.11.17-.1a.24.24,0,0,1,.13,0c.08,0,.14.08.18.25a3.82,3.82,0,0,1-.47.31,4.49,4.49,0,0,1-.47.26,3.8,3.8,0,0,1-.43.19,1.4,1.4,0,0,1-.33.07.66.66,0,0,1-.27-.06q-.12-.06-.12-.27a.88.88,0,0,1,0-.14,1.05,1.05,0,0,0,0-.13q.29-1.35.45-2.16t.24-1.23c.06-.28.1-.47.11-.56a1.19,1.19,0,0,0,0-.17q0-.15-.12-.15a.5.5,0,0,0-.15,0l-.21.08-.21.09a.5.5,0,0,1-.15,0,.12.12,0,0,1-.11-.08.75.75,0,0,1-.07-.18l.54-.28.59-.3.5-.23a1.06,1.06,0,0,1,.3-.09.19.19,0,0,1,.21.22.65.65,0,0,1,0,.19Zm.65-5.91a.49.49,0,0,1-.38-.15.52.52,0,0,1-.14-.38,1,1,0,0,1,.23-.62.74.74,0,0,1,.57-.27.4.4,0,0,1,.36.17.73.73,0,0,1,.11.41.86.86,0,0,1-.22.58A.67.67,0,0,1,102.48,75.76Z"/><path d="M104.94,77.05a4.63,4.63,0,0,0,.1-.77,1.37,1.37,0,0,0,0-.34l.51-.08a3.58,3.58,0,0,0,.53-.11.19.19,0,0,1,.1.15.46.46,0,0,1,0,.1.51.51,0,0,1,0,.13l-.21,1.14h1.3a2.83,2.83,0,0,0-.07.28c0,.11,0,.21-.07.3a4.48,4.48,0,0,0-.64-.08l-.62,0-.7,4a2.42,2.42,0,0,0,0,.26c0,.21.13.31.37.31a1.29,1.29,0,0,0,.35-.05,1.83,1.83,0,0,0,.28-.1l.2-.1a.3.3,0,0,1,.13,0c.1,0,.15.08.17.24a3.45,3.45,0,0,1-.86.48,2.37,2.37,0,0,1-.86.18,1.07,1.07,0,0,1-.65-.15.51.51,0,0,1-.19-.44,2.45,2.45,0,0,1,0-.27l.8-4.33h-.92a.77.77,0,0,1,.08-.31.2.2,0,0,1,.2-.1h.72Z"/><path d="M108.75,81.67s0,.08,0,.14,0,.09,0,.12a.13.13,0,0,0,.15.15.46.46,0,0,0,.19,0l.19-.11.17-.1a.24.24,0,0,1,.13,0c.08,0,.14.08.17.25a3.7,3.7,0,0,1-.46.31,3.77,3.77,0,0,1-.48.26,3.15,3.15,0,0,1-.43.19,1.22,1.22,0,0,1-.33.07.58.58,0,0,1-.26-.06c-.09,0-.13-.13-.13-.27s0-.07,0-.14a.86.86,0,0,1,0-.13c.19-.9.33-1.62.44-2.16s.2-1,.25-1.23.09-.47.11-.56a.76.76,0,0,0,0-.17c0-.1,0-.15-.11-.15a.5.5,0,0,0-.15,0l-.22.08-.21.09a.39.39,0,0,1-.14,0,.14.14,0,0,1-.12-.08,1.89,1.89,0,0,1-.06-.18l.53-.28.59-.3.51-.23a1,1,0,0,1,.3-.09.19.19,0,0,1,.21.22,1.37,1.37,0,0,1,0,.19Zm.65-5.91a.49.49,0,0,1-.38-.15.48.48,0,0,1-.14-.38.9.9,0,0,1,.23-.62.72.72,0,0,1,.56-.27.43.43,0,0,1,.37.17.73.73,0,0,1,.1.41.9.9,0,0,1-.21.58A.68.68,0,0,1,109.4,75.76Z"/><path d="M113.46,77.11a2.07,2.07,0,0,1,.82.16,1.47,1.47,0,0,1,.56.45,2,2,0,0,1,.33.67,3.36,3.36,0,0,1,.1.85,4,4,0,0,1-.29,1.6,3.52,3.52,0,0,1-.74,1.13,2.79,2.79,0,0,1-1,.67,2.88,2.88,0,0,1-1.09.23,1.89,1.89,0,0,1-.75-.14,1.26,1.26,0,0,1-.5-.41,1.6,1.6,0,0,1-.27-.65,4,4,0,0,1,.92-3.55,3.31,3.31,0,0,1,.95-.75A2.21,2.21,0,0,1,113.46,77.11Zm-1,5.26a1.13,1.13,0,0,0,.7-.23,1.82,1.82,0,0,0,.56-.63,3.2,3.2,0,0,0,.36-1,5,5,0,0,0,.13-1.21,3.34,3.34,0,0,0-.19-1.26.68.68,0,0,0-.67-.47,1.11,1.11,0,0,0-.75.28,2.15,2.15,0,0,0-.55.72,4.12,4.12,0,0,0-.34,1,5.63,5.63,0,0,0-.11,1.07,3.2,3.2,0,0,0,.2,1.27A.67.67,0,0,0,112.46,82.37Z"/><path d="M120.26,78.89a2.85,2.85,0,0,0,.08-.57c0-.25-.12-.37-.35-.37a.82.82,0,0,0-.47.21,4.67,4.67,0,0,0-.59.54c-.2.23-.4.48-.6.76a6.92,6.92,0,0,0-.52.85c-.08.14-.15.3-.23.47s-.13.35-.19.53-.09.36-.12.54a3,3,0,0,0,0,.5,2,2,0,0,0,0,.34,6.48,6.48,0,0,0-1,.19.17.17,0,0,1-.1-.15.54.54,0,0,1,0-.11.86.86,0,0,1,0-.13l.45-2.32c.11-.57.2-1,.25-1.29s.09-.48.1-.57,0-.14,0-.16,0-.15-.1-.15a.5.5,0,0,0-.15,0l-.21.08-.21.09a.5.5,0,0,1-.15,0,.14.14,0,0,1-.11-.08A.75.75,0,0,1,116,78c.15-.09.33-.19.54-.29a5.48,5.48,0,0,1,.6-.29l.5-.23a1.11,1.11,0,0,1,.28-.09.25.25,0,0,1,.15,0,.15.15,0,0,1,.07.14.38.38,0,0,1,0,.1.5.5,0,0,1,0,.12l-.45,2.2h0a11.48,11.48,0,0,1,.68-1,6.11,6.11,0,0,1,.71-.83,3.18,3.18,0,0,1,.73-.55,1.56,1.56,0,0,1,.75-.2.84.84,0,0,1,.56.18.72.72,0,0,1,.21.58,2.49,2.49,0,0,1,0,.36l-.06.4-.65,3a2.35,2.35,0,0,0,0,.25.14.14,0,0,0,.16.16.38.38,0,0,0,.17,0l.2-.11.17-.1a.24.24,0,0,1,.13,0c.08,0,.14.08.17.25a4.63,4.63,0,0,1-.46.31,4.49,4.49,0,0,1-.47.26l-.43.19a1.4,1.4,0,0,1-.33.07.55.55,0,0,1-.26-.06q-.12-.06-.12-.27a.57.57,0,0,1,0-.12,1,1,0,0,0,0-.15Z"/><path d="M125.94,78.51a.25.25,0,0,1-.18-.07.5.5,0,0,1-.05-.13,1,1,0,0,0-.29-.59.88.88,0,0,0-.62-.21,1.25,1.25,0,0,0-.7.19.65.65,0,0,0-.29.57.77.77,0,0,0,.22.51,6.61,6.61,0,0,0,.53.53l.48.41c.17.15.32.29.46.44a2.79,2.79,0,0,1,.33.46,1,1,0,0,1,.13.5,1.45,1.45,0,0,1-.16.68,1.7,1.7,0,0,1-.45.55,2.29,2.29,0,0,1-.67.38,2.48,2.48,0,0,1-.82.14,4.91,4.91,0,0,1-.86-.08,3.45,3.45,0,0,1-.79-.24,5.7,5.7,0,0,0,.16-.7,6.93,6.93,0,0,0,.09-.73h.12c.2,0,.31.07.31.21a1.09,1.09,0,0,0,.24.83,1,1,0,0,0,.76.29,1.25,1.25,0,0,0,.81-.26.84.84,0,0,0,.31-.68.81.81,0,0,0-.09-.37,1.31,1.31,0,0,0-.25-.33,3.53,3.53,0,0,0-.34-.32l-.39-.32a5.5,5.5,0,0,1-.69-.67,1.15,1.15,0,0,1-.31-.8,1.29,1.29,0,0,1,.16-.64,1.46,1.46,0,0,1,.43-.5,2.67,2.67,0,0,1,.63-.33,2.43,2.43,0,0,1,.77-.12,2.89,2.89,0,0,1,1.38.35,2.14,2.14,0,0,0-.11.48c0,.19,0,.39-.07.58Z"/><path d="M131.69,75.34a.37.37,0,0,0-.08-.37,1,1,0,0,0-.54-.17.2.2,0,0,1-.18-.21s0,0,0-.08a.81.81,0,0,0,0-.11q.38,0,.75.06l.68,0,.65,0q.38,0,.72-.06a.8.8,0,0,1,0,.19c0,.12-.05.19-.17.19A1.35,1.35,0,0,0,133,75a.66.66,0,0,0-.22.38l-1.25,6.51a.33.33,0,0,0,.09.37,1.29,1.29,0,0,0,.57.18.18.18,0,0,1,.16.19,1.91,1.91,0,0,1,0,.2c-.26,0-.52,0-.78-.06l-.71,0-.64,0c-.25,0-.48,0-.71.06a.88.88,0,0,1,0-.2.17.17,0,0,1,.16-.18,1.46,1.46,0,0,0,.58-.18.59.59,0,0,0,.23-.38Z"/><path d="M138.26,78.89a2.85,2.85,0,0,0,.08-.57c0-.25-.12-.37-.35-.37a.82.82,0,0,0-.47.21,4.67,4.67,0,0,0-.59.54c-.2.23-.4.48-.6.76a6.92,6.92,0,0,0-.52.85c-.08.14-.15.3-.23.47s-.13.35-.19.53-.09.36-.12.54a3,3,0,0,0-.05.5,2,2,0,0,0,0,.34,6.48,6.48,0,0,0-1,.19.17.17,0,0,1-.1-.15.54.54,0,0,1,0-.11.86.86,0,0,1,0-.13l.45-2.32c.11-.57.2-1,.25-1.29s.09-.48.1-.57,0-.14,0-.16,0-.15-.1-.15a.5.5,0,0,0-.15,0l-.21.08-.21.09a.5.5,0,0,1-.15,0,.14.14,0,0,1-.11-.08A.75.75,0,0,1,134,78c.15-.09.33-.19.54-.29a5.48,5.48,0,0,1,.6-.29l.5-.23a1.11,1.11,0,0,1,.28-.09.25.25,0,0,1,.15,0,.15.15,0,0,1,.07.14.38.38,0,0,1,0,.1.5.5,0,0,1,0,.12l-.45,2.2h0a11.48,11.48,0,0,1,.68-1,6.11,6.11,0,0,1,.71-.83,3.18,3.18,0,0,1,.73-.55,1.56,1.56,0,0,1,.75-.2.84.84,0,0,1,.56.18.72.72,0,0,1,.21.58,2.49,2.49,0,0,1,0,.36l-.06.4-.65,3a2.35,2.35,0,0,0,0,.25.14.14,0,0,0,.16.16.38.38,0,0,0,.17,0l.2-.11.17-.1a.24.24,0,0,1,.13,0c.08,0,.14.08.17.25a4.63,4.63,0,0,1-.46.31,4.49,4.49,0,0,1-.47.26l-.43.19a1.4,1.4,0,0,1-.33.07.55.55,0,0,1-.26-.06q-.12-.06-.12-.27a.57.57,0,0,1,0-.12,1,1,0,0,0,0-.15Z"/><path d="M145.26,75.34a.33.33,0,0,0-.14-.37,1.48,1.48,0,0,0-.5-.15.19.19,0,0,1-.17-.21v-.09s0-.07,0-.12c.25,0,.51,0,.77.06l.74,0h2.39a4.37,4.37,0,0,0,.76,0,3,3,0,0,1,.36,0,.19.19,0,0,1,.2.16c0,.14,0,.36.06.65a9.13,9.13,0,0,0,.16,1l-.13.06-.14,0a.22.22,0,0,1-.22-.15,1.69,1.69,0,0,0-.48-.91A1.44,1.44,0,0,0,148,75h-1.58l-.63,3.31h1.73a.48.48,0,0,0,.41-.19,2,2,0,0,0,.22-.52.26.26,0,0,1,.07-.1.21.21,0,0,1,.15,0,.69.69,0,0,1,.24,0c0,.2-.09.39-.13.55s-.07.33-.1.5-.06.35-.08.53,0,.4-.06.64a.83.83,0,0,1-.22,0,.18.18,0,0,1-.16-.06.17.17,0,0,1,0-.14,1.31,1.31,0,0,0-.06-.53.32.32,0,0,0-.35-.24h-1.72l-.6,3.14q0,.21.06.27a.51.51,0,0,0,.31.07h1.46a1.72,1.72,0,0,0,1-.28,3.25,3.25,0,0,0,.9-1,.41.41,0,0,1,.1-.09.15.15,0,0,1,.12,0,.42.42,0,0,1,.15,0l.14.1c-.05.09-.09.18-.13.27l-.13.27-.12.3a3.58,3.58,0,0,0-.17.49,1.52,1.52,0,0,1-.12.35.25.25,0,0,1-.21.1l-.43,0a3,3,0,0,0-.58,0h-3l-.65,0c-.26,0-.5,0-.73.06a.52.52,0,0,1,0-.11s0-.07,0-.09a.28.28,0,0,1,0-.13.2.2,0,0,1,.14-.08,1.35,1.35,0,0,0,.58-.19.46.46,0,0,0,.23-.34Z"/><path d="M150.42,81.88a1,1,0,0,0,.49-.12,1.57,1.57,0,0,0,.42-.34,5.16,5.16,0,0,0,.45-.57l.56-.8-.76-1.9-.09-.15a.18.18,0,0,0-.17-.09A.7.7,0,0,0,151,78a.74.74,0,0,1-.33.12.09.09,0,0,1-.1-.07.66.66,0,0,1-.05-.15,6.11,6.11,0,0,1,.71-.57,1.22,1.22,0,0,1,.62-.25.53.53,0,0,1,.41.16,1.76,1.76,0,0,1,.23.41l.63,1.6a8.79,8.79,0,0,1,1.44-1.67,1.84,1.84,0,0,1,1.12-.5.58.58,0,0,1,.35.11,1.76,1.76,0,0,0-.18.39,3.18,3.18,0,0,0-.12.56l-.19.06-.15-.12a.48.48,0,0,0-.24-.06,1.13,1.13,0,0,0-.8.32,3.26,3.26,0,0,0-.39.42l-.47.64-.19.27.83,2a1,1,0,0,0,.16.3.23.23,0,0,0,.19.09.67.67,0,0,0,.34-.12.66.66,0,0,1,.29-.11.14.14,0,0,1,.12,0,.6.6,0,0,1,.06.18,5.82,5.82,0,0,1-.69.53,1.17,1.17,0,0,1-.58.22.58.58,0,0,1-.53-.25,2.62,2.62,0,0,1-.33-.63l-.61-1.52a9.46,9.46,0,0,1-.74,1.12,6.4,6.4,0,0,1-.7.74,2.58,2.58,0,0,1-.63.41,1.46,1.46,0,0,1-.55.13.86.86,0,0,1-.21,0,.35.35,0,0,1-.15-.07,2,2,0,0,0,.17-.41,4.08,4.08,0,0,0,.12-.59l.17-.06.18.12A.54.54,0,0,0,150.42,81.88Z"/><path d="M158.91,77.6a1.27,1.27,0,0,0-.78.25,1.88,1.88,0,0,0-.55.68,3.71,3.71,0,0,0-.34,1,5.82,5.82,0,0,0-.11,1.2,2.67,2.67,0,0,0,.05.58,1.46,1.46,0,0,0,.19.48,1,1,0,0,0,.37.32,1.28,1.28,0,0,0,.58.12,1.78,1.78,0,0,0,.71-.15,3.66,3.66,0,0,0,.67-.36l.06,0,.06,0a.13.13,0,0,1,.14.09l0,.16-.43.34a3.85,3.85,0,0,1-1.13.54,2.39,2.39,0,0,1-.66.09,1.67,1.67,0,0,1-.81-.18,1.58,1.58,0,0,1-.53-.46,1.81,1.81,0,0,1-.28-.65,3.06,3.06,0,0,1-.09-.74,4.55,4.55,0,0,1,.21-1.37,4.2,4.2,0,0,1,.59-1.2,3.06,3.06,0,0,1,.92-.84,2.3,2.3,0,0,1,1.18-.32,3.43,3.43,0,0,1,1.52.36,3.19,3.19,0,0,0-.11.53c0,.23-.06.43-.08.61h-.19a.22.22,0,0,1-.22-.19,1.14,1.14,0,0,0-.39-.64A1.07,1.07,0,0,0,158.91,77.6Z"/><path d="M161.71,80.14c0,.09,0,.17,0,.26v.26a2.63,2.63,0,0,0,.05.57,1.55,1.55,0,0,0,.17.5,1,1,0,0,0,.35.34,1.09,1.09,0,0,0,.57.14,2.12,2.12,0,0,0,.68-.12,2.79,2.79,0,0,0,.72-.38.46.46,0,0,1,.18-.09.13.13,0,0,1,.13.11.49.49,0,0,1,0,.15,4.06,4.06,0,0,1-.43.35,3,3,0,0,1-.52.32,3.45,3.45,0,0,1-.59.23,2.39,2.39,0,0,1-.66.09,1.75,1.75,0,0,1-.87-.2,1.52,1.52,0,0,1-.53-.51,1.94,1.94,0,0,1-.27-.68,4.37,4.37,0,0,1-.07-.7,4.3,4.3,0,0,1,.21-1.33,4.08,4.08,0,0,1,.59-1.18,3,3,0,0,1,.93-.84,2.38,2.38,0,0,1,1.21-.32,2.25,2.25,0,0,1,.52.07,1.55,1.55,0,0,1,.45.21,1.07,1.07,0,0,1,.44.92,1.27,1.27,0,0,1-.25.8,1.91,1.91,0,0,1-.68.56,4,4,0,0,1-1,.33A7.51,7.51,0,0,1,161.71,80.14Zm0-.38a3.38,3.38,0,0,0,1.71-.49,1.2,1.2,0,0,0,.51-1,.73.73,0,0,0-.18-.54.59.59,0,0,0-.46-.18,1,1,0,0,0-.56.18,2,2,0,0,0-.47.49,2.86,2.86,0,0,0-.35.7A4.78,4.78,0,0,0,161.75,79.76Z"/><path d="M167,74.86a.69.69,0,0,0,0-.13.11.11,0,0,0-.11-.06l-.13,0-.21,0-.19,0h-.13c-.11,0-.16-.09-.16-.26.38-.11.73-.21,1.05-.32s.64-.22,1-.34a.31.31,0,0,1,.13.12.37.37,0,0,1,0,.12,1.5,1.5,0,0,1,0,.2l-1.45,7.38s0,.1,0,.15,0,.09,0,.11.05.15.16.15a.42.42,0,0,0,.18,0l.19-.11.17-.1a.24.24,0,0,1,.13,0c.08,0,.14.08.17.25a3.08,3.08,0,0,1-.46.31,4.49,4.49,0,0,1-.47.26,3.8,3.8,0,0,1-.43.19,1.4,1.4,0,0,1-.33.07.63.63,0,0,1-.27-.06.28.28,0,0,1-.13-.27s0-.07,0-.14a1.23,1.23,0,0,1,0-.13l1.19-6.12c0-.24.09-.49.12-.73S167,75,167,74.86Z"/><path d="M170.1,74.86a.69.69,0,0,0,0-.13.11.11,0,0,0-.11-.06l-.13,0-.21,0-.19,0h-.13c-.11,0-.16-.09-.16-.26.38-.11.73-.21,1-.32s.64-.22,1-.34a.31.31,0,0,1,.13.12.37.37,0,0,1,0,.12,1.5,1.5,0,0,1,0,.2l-1.45,7.38s0,.1,0,.15a.59.59,0,0,0,0,.11.13.13,0,0,0,.15.15.39.39,0,0,0,.18,0l.19-.11.17-.1a.24.24,0,0,1,.13,0c.08,0,.14.08.18.25a3.82,3.82,0,0,1-.47.31,4.49,4.49,0,0,1-.47.26,3.8,3.8,0,0,1-.43.19,1.4,1.4,0,0,1-.33.07.66.66,0,0,1-.27-.06q-.12-.06-.12-.27a.88.88,0,0,1,0-.14,1.05,1.05,0,0,0,0-.13l1.19-6.12a6.17,6.17,0,0,0,.12-.73C170.08,75.18,170.1,75,170.1,74.86Z"/><path d="M172.73,80.14c0,.09,0,.17,0,.26v.26a2.63,2.63,0,0,0,0,.57,1.55,1.55,0,0,0,.17.5,1,1,0,0,0,.35.34,1.09,1.09,0,0,0,.57.14,2.12,2.12,0,0,0,.68-.12,2.79,2.79,0,0,0,.72-.38.46.46,0,0,1,.18-.09.13.13,0,0,1,.13.11.49.49,0,0,1,0,.15,4.06,4.06,0,0,1-.43.35,3,3,0,0,1-.52.32,3.45,3.45,0,0,1-.59.23,2.39,2.39,0,0,1-.66.09,1.75,1.75,0,0,1-.87-.2,1.52,1.52,0,0,1-.53-.51,1.94,1.94,0,0,1-.27-.68,4.37,4.37,0,0,1-.07-.7,4.3,4.3,0,0,1,.21-1.33,4.08,4.08,0,0,1,.59-1.18,3,3,0,0,1,.93-.84,2.38,2.38,0,0,1,1.21-.32,2.25,2.25,0,0,1,.52.07,1.55,1.55,0,0,1,.45.21,1.07,1.07,0,0,1,.44.92,1.27,1.27,0,0,1-.25.8,1.91,1.91,0,0,1-.68.56,4,4,0,0,1-1,.33A7.51,7.51,0,0,1,172.73,80.14Zm0-.38a3.38,3.38,0,0,0,1.71-.49,1.2,1.2,0,0,0,.51-1,.78.78,0,0,0-.17-.54.63.63,0,0,0-.47-.18,1,1,0,0,0-.56.18,2,2,0,0,0-.47.49,2.86,2.86,0,0,0-.35.7A4.78,4.78,0,0,0,172.77,79.76Z"/><path d="M180.77,78.89a2.27,2.27,0,0,0,.08-.57c0-.25-.12-.37-.35-.37a.82.82,0,0,0-.47.21,4.67,4.67,0,0,0-.59.54c-.2.23-.4.48-.6.76a6.92,6.92,0,0,0-.52.85,4.12,4.12,0,0,0-.22.47,3.75,3.75,0,0,0-.19.53,3.84,3.84,0,0,0-.13.54,3,3,0,0,0-.05.5,2,2,0,0,0,0,.34,6.48,6.48,0,0,0-1,.19.17.17,0,0,1-.1-.15.54.54,0,0,1,0-.11.86.86,0,0,1,0-.13l.45-2.32c.11-.57.2-1,.25-1.29s.09-.48.1-.57a.69.69,0,0,0,0-.16c0-.1,0-.15-.1-.15a.5.5,0,0,0-.15,0l-.21.08-.21.09a.5.5,0,0,1-.15,0,.14.14,0,0,1-.11-.08.75.75,0,0,1-.07-.18c.15-.09.33-.19.54-.29s.41-.21.6-.29l.5-.23a1.11,1.11,0,0,1,.28-.09.3.3,0,0,1,.16,0,.17.17,0,0,1,.06.14.38.38,0,0,1,0,.1.5.5,0,0,1,0,.12l-.45,2.2h.05a11.48,11.48,0,0,1,.68-1,6.11,6.11,0,0,1,.71-.83,3.18,3.18,0,0,1,.73-.55,1.56,1.56,0,0,1,.75-.2.84.84,0,0,1,.56.18.72.72,0,0,1,.21.58,2.49,2.49,0,0,1,0,.36l-.06.4-.65,3a2.35,2.35,0,0,0,0,.25.14.14,0,0,0,.16.16.38.38,0,0,0,.17,0l.2-.11.17-.1a.24.24,0,0,1,.13,0c.08,0,.14.08.17.25a4.63,4.63,0,0,1-.46.31,4.49,4.49,0,0,1-.47.26,3.8,3.8,0,0,1-.43.19,1.4,1.4,0,0,1-.33.07.55.55,0,0,1-.26-.06q-.12-.06-.12-.27a.57.57,0,0,1,0-.12l0-.15Z"/><path d="M185.82,77.6a1.23,1.23,0,0,0-.78.25,1.9,1.9,0,0,0-.56.68,3.71,3.71,0,0,0-.34,1,6.61,6.61,0,0,0-.11,1.2,2.65,2.65,0,0,0,.06.58,1.46,1.46,0,0,0,.19.48,1,1,0,0,0,.36.32,1.28,1.28,0,0,0,.58.12,1.74,1.74,0,0,0,.71-.15,3.36,3.36,0,0,0,.67-.36l.07,0,.06,0a.12.12,0,0,1,.13.09l0,.16-.43.34a4.6,4.6,0,0,1-.53.31,3.92,3.92,0,0,1-.6.23,2.39,2.39,0,0,1-.66.09,1.67,1.67,0,0,1-.81-.18,1.49,1.49,0,0,1-.53-.46,1.82,1.82,0,0,1-.29-.65,3.65,3.65,0,0,1-.08-.74,4.55,4.55,0,0,1,.21-1.37,4,4,0,0,1,.59-1.2,3,3,0,0,1,.92-.84,2.27,2.27,0,0,1,1.18-.32,3.49,3.49,0,0,1,1.52.36,3.19,3.19,0,0,0-.11.53c0,.23-.06.43-.08.61H187a.23.23,0,0,1-.23-.19,1.08,1.08,0,0,0-.38-.64A1.1,1.1,0,0,0,185.82,77.6Z"/><path d="M188.62,80.14a2.28,2.28,0,0,0,0,.26,2.17,2.17,0,0,0,0,.26,3.45,3.45,0,0,0,0,.57,1.56,1.56,0,0,0,.18.5.88.88,0,0,0,.35.34,1,1,0,0,0,.56.14,2.08,2.08,0,0,0,.68-.12,3,3,0,0,0,.73-.38.39.39,0,0,1,.17-.09.14.14,0,0,1,.14.11.49.49,0,0,1,0,.15,5.41,5.41,0,0,1-.43.35,3.46,3.46,0,0,1-.52.32,3.92,3.92,0,0,1-.6.23,2.39,2.39,0,0,1-.66.09,1.68,1.68,0,0,1-.86-.2,1.44,1.44,0,0,1-.53-.51,1.77,1.77,0,0,1-.27-.68,3.46,3.46,0,0,1-.07-.7,4.3,4.3,0,0,1,.21-1.33,3.84,3.84,0,0,1,.59-1.18,3,3,0,0,1,.92-.84,2.41,2.41,0,0,1,1.22-.32,2.25,2.25,0,0,1,.52.07,1.55,1.55,0,0,1,.45.21,1.12,1.12,0,0,1,.31.37,1.15,1.15,0,0,1,.12.55,1.33,1.33,0,0,1-.24.8,2,2,0,0,1-.69.56,3.9,3.9,0,0,1-1,.33A7.4,7.4,0,0,1,188.62,80.14Zm0-.38a3.31,3.31,0,0,0,1.71-.49,1.2,1.2,0,0,0,.51-1,.78.78,0,0,0-.17-.54.6.6,0,0,0-.46-.18,1,1,0,0,0-.57.18,1.81,1.81,0,0,0-.46.49,2.86,2.86,0,0,0-.35.7A4.81,4.81,0,0,0,188.65,79.76Z"/><rect y="64.42" width="268.18" height="0.66"/></svg>
