<svg xmlns="http://www.w3.org/2000/svg" viewBox="0 0 1536 814" width="512" height="271">
  <title>Youz Guys Dogz</title>
<g id="layer1"><path id="path193" d="M702.994,812.685c-19.169,-5.091 -25.144,-32.3 -12.596,-57.356c1.002,-2 1.714,-3.723 1.583,-3.828c-0.13,-0.104 -2.423,-0.609 -5.094,-1.121c-12.518,-2.399 -20.909,-11.243 -24.747,-26.084c-0.82,-3.17 -0.82,-3.17 -4.019,-2.731c-19.408,2.66 -36.891,-16.024 -37.289,-39.849c-0.063,-3.75 -0.063,-3.75 -11.694,-13.125c-6.397,-5.156 -16.035,-13.594 -21.418,-18.75c-10.968,-10.508 -11.397,-10.821 -10.231,-7.478c5.771,16.556 -24.819,65.222 -49.62,78.942c-17.751,9.819 -33.686,10.705 -62.595,3.479c-9.837,-2.459 -18.011,-4.025 -23.655,-4.532c-14.653,-1.316 -23.913,-4.386 -25.181,-8.348c-0.592,-1.848 -2.348,-1.632 -5.019,0.615c-17.996,15.142 -53.279,14.727 -70.761,-0.833c-3.566,-3.174 -2.919,-3.246 -7.414,0.824c-20.205,18.296 -52.632,12.796 -72.941,-12.371c-1.474,-1.826 -1.474,-1.826 -7.016,2.726c-9.443,7.756 -18.258,12.387 -26.168,13.748c-32.58,5.609 -75.487,-10.981 -86.932,-33.611c-3.227,-6.38 -5.487,6.82 -3.882,22.671c2.342,23.124 -9.956,34.043 -34.328,30.479c-36.029,-5.268 -52.027,-31.127 -46.992,-75.956c1.286,-11.445 1.286,-11.445 -0.478,-12.581c-24.722,-15.923 -56.033,-85.266 -54.449,-120.587c1.091,-24.349 13.573,-32.781 48.561,-32.803c24.797,-0.017 33.462,6.812 42.803,33.726c3.58,10.318 3.211,10.342 8.572,-0.569c22.552,-45.907 47.573,-55.288 79.636,-29.861c22.096,17.524 24.696,33.715 9.993,62.231c-4.288,8.315 -4.342,7.804 0.727,6.843c24.541,-4.654 56.893,6.854 70.322,25.015c2.694,3.644 2.694,3.644 3.814,1.5c12.378,-23.693 49.361,-28.772 70.494,-9.68c3.078,2.781 3.078,2.781 5.42,-1.025c8.466,-13.757 27.625,-19.119 49.88,-13.958c18.794,4.359 28.039,19.646 22.69,37.519c-3.051,10.196 -8.101,28.967 -8.101,30.111c-0,0.712 1.397,-1.047 3.104,-3.908c1.707,-2.862 4.187,-6.553 5.511,-8.203c2.131,-2.656 2.455,-3.687 2.822,-9c2.636,-38.138 26.747,-51.485 86.063,-47.639c35.823,2.323 49.65,18.68 45.023,53.264c-0.274,2.049 -0.109,2.561 0.75,2.334c3.771,-0.998 9.201,-0.907 11.968,0.2c4.385,1.755 4.626,1.571 2.584,-1.971c-5.354,-9.289 -6.688,-23.945 -2.994,-32.881c1.611,-3.897 2.027,-6.226 2.2,-12.307c0.117,-4.125 0.474,-9.187 0.795,-11.25c0.581,-3.75 0.581,-3.75 -7.804,-10.048c-4.612,-3.463 -8.79,-6.67 -9.285,-7.125c-0.494,-0.455 -3.422,-2.989 -6.506,-5.632c-114.474,-98.111 -139.487,-276.967 -56.052,-400.8c2.918,-4.331 2.936,-4.401 3.098,-12.375c0.458,-22.504 20.093,-43.858 44.689,-48.6c3.075,-0.593 5.775,-1.338 6,-1.656c1.679,-2.37 28.261,-22.953 37.159,-28.772c72.759,-47.584 174.461,-62.754 253.955,-37.881c5.706,1.785 5.706,1.785 10.875,0.425c68.64,-18.067 122.818,17.081 139.832,90.716c1.528,6.612 1.936,7.416 7.353,14.473c22.677,29.546 38.617,58.863 50.414,92.724c1.441,4.137 2.229,5.17 6.574,8.625c28.669,22.798 49.072,43.009 55.45,54.926c10.135,18.939 -5.604,33.573 -38.805,36.079c-5.501,0.415 -6.775,0.738 -6.784,1.716c-0.626,69.2 -23.881,134.028 -68.799,191.791c-12.625,16.235 -35.916,38.702 -54.19,52.273c-4.744,3.523 -9.623,7.189 -10.843,8.148c-3.034,2.385 -13.65,9.025 -21.656,13.544c-6.624,3.739 -6.624,3.739 -4.824,5.719c8.57,9.429 7.654,24.416 -2.088,34.159c-1.078,1.078 -0.72,1.71 4.019,7.088c7.841,8.897 12.449,17.361 15.168,27.858c0.512,1.975 2.196,4.931 4.06,7.125c16.75,19.716 16.878,54.617 0.269,73.486c-8.116,9.22 -29.027,20.639 -37.795,20.639c-2.082,0 -2.7,0.482 -4.45,3.469c-9.002,15.359 -20.765,20.91 -44.235,20.874c-22.33,-0.033 -30.123,-1.661 -56.135,-11.723c-6.518,-2.521 -6.223,-2.627 -8.764,3.13c-12.344,27.968 -40.605,48.639 -59.601,43.594l-0,-0Zm15.164,-7.791c7.7,-2.705 20.029,-13.089 28.398,-23.92c4.882,-6.317 13.414,-19.288 12.969,-19.715c-0.155,-0.149 -3.278,-1.652 -6.94,-3.34c-6.709,-3.093 -26.429,-13.432 -36.016,-18.884c-6.242,-3.549 -6.047,-3.63 -12.933,5.387c-24.116,31.576 -14.711,70.741 14.522,60.472Zm119.516,-33.262c15.959,-2.731 34.643,-17.176 24.035,-18.583c-17.055,-2.262 -34.823,-15.2 -52.553,-38.265c-19.414,-25.256 -32.141,-35.637 -61.162,-49.888c-33.994,-16.693 -42.998,-21.016 -59.286,-28.468c-5.285,-2.419 -5.285,-2.419 -11.896,-0.503c-3.636,1.054 -7.325,1.916 -8.198,1.916c-1.35,0 -1.166,0.348 1.237,2.328c3.753,3.094 7.167,9.988 7.761,15.674c0.259,2.474 0.528,4.498 0.598,4.498c0.07,0 2.217,-2.044 4.77,-4.542c32.466,-31.769 53.217,20.487 26.016,65.517c-1.445,2.393 -2.627,4.463 -2.627,4.602c-0,0.574 22.531,13.373 37.284,21.181c34.921,18.48 72.338,28.242 94.021,24.533Zm-138.904,-29.617c1.086,-1.391 3.267,-3.786 4.848,-5.323c3.078,-2.994 3.059,-3.765 -0.137,-5.418c-1.828,-0.945 -2.236,-0.907 -3.89,0.364c-5.023,3.86 -7.204,-0.107 -2.522,-4.587c17.322,-16.579 25.06,-58.176 12.926,-69.487c-20.996,-19.57 -54.517,41.544 -39.575,72.152c6.333,12.975 22.388,19.94 28.35,12.299l0,0Zm-579.789,-13.077c9.726,-2.889 12.669,-9.777 10.583,-24.774c-1.32,-9.49 0.275,-21.225 5.439,-40.004c2.352,-8.556 2.352,-8.556 3.993,-1.875c4.35,17.711 16.894,33.124 32.286,39.671c35.288,15.01 63.543,11.672 84.153,-9.939c2.58,-2.705 4.806,-4.78 4.947,-4.61c0.141,0.17 1.196,2.063 2.344,4.206c14.744,27.531 52.792,33.351 71.525,10.941c2.688,-3.216 2.688,-3.216 6.09,0.02c20.906,19.886 47.409,19.942 73.591,0.155c3.438,-2.598 3.438,-2.598 5.153,1.198c2.754,6.092 7.719,8.26 22.159,9.673c4.859,0.476 15.29,2.512 25.381,4.955c27.195,6.583 38.403,6.365 54.494,-1.06c4.264,-1.968 17.232,-11.448 19.875,-14.53c8.939,-10.425 10.527,-12.546 17.173,-22.937c14.908,-23.309 16.862,-37.978 6.267,-47.046c-9.196,-7.872 -17.408,-5.342 -26.732,8.234c-11.44,16.658 -20.961,24.813 -28.182,24.138c-6.176,-0.576 -18.401,-2.915 -18.401,-3.519c-0,-2.269 21.162,-17.612 32.17,-23.324c14.345,-7.444 17.464,-12.041 17.945,-26.44c0.972,-29.091 -8.729,-36.829 -48.615,-38.781c-48.307,-2.364 -67.768,9.675 -69.536,43.018c-0.379,7.145 -0.622,8.244 -2.068,9.382c-2.766,2.175 -6.717,8.243 -13.529,20.775c-6.075,11.178 -12.478,21.015 -13.205,20.287c-2.314,-2.313 2.761,-29.567 10.061,-54.037c8.386,-28.112 -0.533,-39.375 -31.181,-39.375c-19.974,0 -26.873,6.166 -34.825,31.125c-0.681,2.135 -0.742,2.036 -1.211,-1.957c-2.683,-22.825 -43.534,-33.65 -59.804,-15.847c-4.769,5.217 -6.266,7.532 -12.612,19.495c-1.187,2.239 -2.523,0.986 -6.345,-5.951c-5.137,-9.324 -14.173,-17.269 -23.851,-20.972c-24.522,-9.383 -45.257,-9.25 -61.446,0.393c-2.446,1.458 -4.448,2.49 -4.448,2.294c-0,-0.404 3.588,-6.268 10.462,-17.097c18.012,-28.376 17.666,-43.373 -1.389,-60.188c-29.59,-26.112 -53.805,-16.003 -74.755,31.205c-9.078,20.456 -8.786,20.43 -15.295,1.362c-11.548,-33.828 -17.791,-38.759 -46.397,-36.643c-24.116,1.783 -32.698,7.55 -34.673,23.295c-4.011,31.991 28.087,103.796 53.347,119.339c3.448,2.121 3.708,2.484 3.344,4.661c-0.218,1.299 -0.753,4.555 -1.19,7.236c-8.047,49.361 19.405,84.984 56.908,73.847l-0,0.001Zm-19.282,-13.131c-11.354,-2.974 -21.17,-12.18 -24.47,-22.949c-2.534,-8.266 -2.203,-20.773 1.151,-43.556c1.77,-12.025 1.901,-11.647 -5.167,-14.959c-19.367,-9.077 -45.613,-58.456 -51.132,-96.2c-2.748,-18.794 0.359,-22.366 21.005,-24.147c20.775,-1.792 25.018,0.682 30.779,17.945c16.032,48.047 21.145,54.86 28.949,38.576c33.936,-70.814 40.79,-76.957 65.1,-58.337c16.234,12.434 17.014,21.509 3.67,42.744c-8.125,12.93 -10.035,16.072 -13.335,21.94c-1.902,3.381 -5.683,10.975 -8.401,16.875c-2.718,5.9 -5.909,12.805 -7.09,15.344c-15.739,33.821 -25.219,70.443 -24.367,94.127c0.552,15.351 -1.181,16.659 -16.692,12.597Zm383.545,-7.122c-2.888,-0.547 -10.544,-2.347 -17.014,-4.001c-11.58,-2.961 -17.865,-4.039 -29.255,-5.016c-7.308,-0.627 -9.589,-6.576 -6.489,-16.922c1.663,-5.551 20.596,-25.185 42.577,-44.155c19.48,-16.81 17.939,-18.64 -9.694,-11.512c-15.539,4.008 -18,5.428 -18,10.387c-0,1.731 -3.278,1.362 -4.996,-0.562c-7.992,-8.949 -4.869,-36.102 4.934,-42.895c17.043,-11.811 72.674,-10.867 79.836,1.354c7.368,12.571 3.923,25.375 -8.524,31.69c-3.094,1.569 -6.469,3.407 -7.5,4.085c-1.032,0.678 -4.407,2.871 -7.5,4.875c-3.094,2.003 -6.822,4.668 -8.285,5.922c-1.463,1.255 -3.825,3.223 -5.25,4.373c-11.302,9.127 -18.761,18.595 -17.581,22.314c1.075,3.386 28.869,9.73 42.548,9.712c9.203,-0.011 24.366,-12.042 33.568,-26.633c6.657,-10.558 7.095,-10.94 9.464,-8.276c5.2,5.845 -6.359,29.739 -24.07,49.758c-11.525,13.027 -30.307,18.997 -48.769,15.502Zm-22.125,-56.969c-0,-0.206 -0.169,-0.375 -0.375,-0.375c-0.207,0 -0.375,0.169 -0.375,0.375c-0,0.207 0.168,0.375 0.375,0.375c0.206,0 0.375,-0.169 0.375,-0.375Zm-162.544,51.027c-27.436,-6.172 -38.632,-39.61 -26.376,-78.777c9.132,-29.179 20.89,-37.889 40.303,-29.854c10.548,4.366 11.368,5.219 11.365,11.834c-0.003,4.314 -0.836,8.107 -7.06,32.108c-7.762,29.933 -7.135,43.993 1.797,40.293c7.731,-3.202 18.843,-25.786 28.972,-58.881c9.949,-32.509 11.515,-34.264 29.543,-33.115c15.987,1.019 19.699,4.855 16.079,16.615c-1.129,3.667 -4.728,16.531 -6.714,24c-16.218,60.976 6.202,76.728 33.833,23.773c6.679,-12.799 9.544,-16.29 11.187,-13.631c0.616,0.997 -2.45,12.952 -4.515,17.608c-0.549,1.238 -2.585,5.963 -4.525,10.5c-6.995,16.362 -17.595,31.125 -22.347,31.125c-0.174,0 -2.262,1.171 -4.639,2.603c-20.589,12.398 -49.738,1.147 -51.846,-20.012c-0.831,-8.335 -4.058,-10.241 -7.034,-4.153c-10.862,22.217 -23.207,31.297 -38.023,27.964Zm21.544,-103.527c-0,-0.206 -0.169,-0.375 -0.375,-0.375c-0.207,0 -0.375,0.169 -0.375,0.375c-0,0.207 0.168,0.375 0.375,0.375c0.206,0 0.375,-0.169 0.375,-0.375Zm-122.495,97.399c-22.215,-4.024 -39.037,-16.295 -44.269,-32.295c-15.676,-47.936 25.838,-92.925 69.639,-75.469c13.557,5.403 20.194,10.63 24.475,19.277c1.249,2.523 3.886,6.107 5.859,7.963c11.967,11.258 9.187,44.679 -5.323,64c-11.461,15.26 -27.789,20.615 -50.381,16.524Zm24.842,-19.554c12.48,-5.923 25.448,-39.298 16.003,-41.187c-5.773,-1.155 -8.248,-6.385 -6.56,-13.86c6.693,-29.639 -18.655,-13.666 -26.306,16.577c-7.326,28.961 0.289,46.334 16.863,38.47Zm-6.574,-15.782c0.063,-9.682 3.394,-26.274 4.785,-23.83c0.449,0.79 2.207,2.973 3.907,4.851c4.157,4.594 1.276,15.702 -5.441,20.986c-2.848,2.241 -3.277,1.976 -3.251,-2.007Zm444.974,46.792c0.668,-10.923 3.826,-23.709 7.791,-31.546c5.692,-11.251 1.661,-29.727 -7.295,-33.436c-19.146,-7.931 -40.877,26.399 -32.375,51.145c7.135,20.767 30.826,31.05 31.879,13.837Zm149.779,-28.417c13.132,-6.627 -1.247,-29.26 -27.278,-42.938c-12.723,-6.685 -13.63,-7.3 -13.037,-8.844c0.875,-2.279 4.05,-2.321 10.468,-0.141c22.113,7.515 52.097,-6.172 51.867,-23.676c-0.237,-18.119 -15.147,-23.057 -40.567,-13.435c-15.692,5.94 -22.734,6.072 -27.848,0.522c-2.393,-2.597 -1.008,-3.105 3.286,-1.205c13.413,5.933 27.2,-9.179 26.462,-29.007c-0.404,-10.846 -4.588,-15.674 -13.527,-15.609c-5.783,0.042 -14.462,6.878 -24.303,19.143c-7.033,8.766 -13.573,14.683 -19.421,17.573c-9.522,4.707 -13.87,2.191 -5.267,-3.047c11.656,-7.097 12.913,-9.745 8.772,-18.468c-6.217,-13.094 -6.584,-15.168 -7.62,-43.056c-1.055,-28.392 -2.802,-32.225 -23.268,-51.067c-14.891,-13.71 -17.29,-18.939 -18.724,-40.808c-2.08,-31.708 -5.238,-39.403 -21.771,-53.051c-12.678,-10.465 -13.194,-11.641 -12.933,-29.449c0.277,-18.826 -0.609,-21.916 -8.597,-30c-3.454,-3.495 -5.669,-6.639 -7.826,-11.108c-6.182,-12.806 -15.644,-12.585 -15.644,0.365c-0,4.674 2.012,7.166 10.677,13.225c12.342,8.63 13.882,13.047 10.616,30.46c-1.741,9.279 -1.201,18.254 1.358,22.61c2.168,3.691 3.563,4.846 12.121,10.038c13.998,8.491 17.592,18.356 15.178,41.667c-2.702,26.086 -1.084,34.59 8.916,46.868c14.871,18.258 16.734,27.058 13.062,61.681c-1.267,11.938 -1.471,17.079 -1.048,26.444c0.723,16.027 0.742,15.595 -0.765,17.26c-2.88,3.183 -12.413,0.217 -21.603,-6.722c-10.043,-7.583 -18.154,0.088 -16.257,15.377c1.467,11.833 12.809,18.633 30.482,18.277c18.368,-0.371 3.769,4.703 -20.515,7.129c-16.153,1.614 -24.544,4.729 -27.999,10.397c-8.981,14.729 24.153,18.639 52.152,6.153c21.043,-9.384 39.174,-3.26 57.059,19.275c24.104,30.369 48.475,44.669 63.342,37.167l-0,-0Zm-187.615,-12.374c2.771,-11.92 11.741,-24.173 20.901,-28.551c3.177,-1.519 3.078,-1.905 -0.75,-2.93c-12.869,-3.444 -18.466,-13.79 -11.888,-21.976c2.996,-3.728 3.571,-3.151 -8.924,-8.956c-5.569,-2.587 -16.268,-7.706 -23.776,-11.376c-27.148,-13.269 -35.029,-11.644 -35.027,7.225c0.003,16.486 15.802,37.063 49.089,63.933c10.173,8.211 9.139,7.948 10.375,2.631Zm-102.595,-15.257c5.803,-5.92 7.567,-8.182 6.381,-8.182c-0.725,0 -10.059,5.527 -12.447,7.371c-1.444,1.114 -4.054,2.991 -5.8,4.17c-3.871,2.616 -3.527,3.459 1.411,3.459c3.763,0 3.789,-0.017 10.455,-6.818Zm380.538,-6.741c-2.906,-8.235 -7.723,-14.61 -17.229,-22.803c-4.701,-4.052 -39.972,-23.643 -42.555,-23.637c-0.107,-0 -0.227,2.615 -0.267,5.812c-0.051,4.14 -0.519,6.815 -1.627,9.296c-1.556,3.484 -1.556,3.484 3.071,5.167c2.545,0.925 7.665,3.103 11.377,4.84c3.713,1.737 7.932,3.631 9.375,4.208c4.96,1.985 27.379,13.346 33,16.722c3.094,1.858 5.695,3.396 5.78,3.416c0.084,0.02 -0.332,-1.339 -0.926,-3.021l0.001,-0Zm-13.776,-33.128c15.149,-17.167 -0.331,-35.065 -23.571,-27.254c-4.611,1.55 -17.331,7.264 -18.278,8.212c-0.173,0.173 6.202,3.674 14.166,7.781c7.964,4.107 16.673,8.866 19.355,10.575c5.866,3.741 5.648,3.723 8.328,0.686Zm-45.453,-24.094c4.415,-1.192 15.375,-6.507 15.375,-7.455c-0,-0.362 0.759,-1.719 1.687,-3.017c0.928,-1.298 2.622,-4.05 3.763,-6.116c46.145,-83.499 58.826,-246.708 20.616,-265.34c-19.76,-9.635 -27.815,-5.327 -71.441,38.212c-20.092,20.052 -26.258,25.176 -39.767,33.046c-9.891,5.762 -26.65,9.918 -28.424,7.048c-0.222,-0.359 -1.361,-0.845 -2.531,-1.079c-12.803,-2.56 -16.698,-28.155 -6.832,-44.888c2.273,-3.856 2.273,-3.856 0.02,-8.433c-2.04,-4.143 -4.16,-13.174 -3.664,-15.605c0.282,-1.38 -8.965,1.831 -11.803,4.098c-0.412,0.33 -2.437,1.668 -4.5,2.975c-2.062,1.306 -4.968,3.407 -6.456,4.668c-1.489,1.261 -4.352,3.642 -6.362,5.292c-3.668,3.01 -18.716,15.824 -20.25,17.243c-0.45,0.417 -3.909,3.601 -7.687,7.078c-8.302,7.638 -8.35,6.174 0.443,13.367c17.505,14.318 21.545,23.78 23.409,54.815c1.269,21.145 2.304,23.216 20.927,41.909c20.562,20.639 22.276,24.661 21.988,51.588c-0.221,20.675 0.862,28.382 3.389,24.111c0.329,-0.557 1.85,-2.498 3.378,-4.312c27.801,-33.002 48.665,-67.471 63.739,-105.299c15.326,-38.462 16.047,-41.769 11.15,-51.178c-4.408,-8.47 -1.424,-11.742 3.56,-3.903c1.621,2.55 3.142,4.322 3.38,3.937c0.557,-0.901 3.289,-14.42 3.955,-19.571c0.357,-2.762 0.942,-4.194 1.928,-4.722c11.199,-5.993 -6.664,58.57 -28.229,102.031c-5.613,11.312 -14.003,26.591 -14.774,26.906c-0.337,0.138 -0.613,0.614 -0.613,1.059c0,0.446 -1.076,2.527 -2.392,4.625c-1.315,2.099 -3.555,5.672 -4.977,7.941c-8.218,13.115 -22.856,33.184 -32.959,45.187c-6.262,7.44 -6.397,8.428 -1.48,10.822c3.183,1.549 3.183,1.549 11.084,-6.071c23.01,-22.193 51.306,-7.066 41.254,22.054c-0.781,2.264 -1.361,4.124 -1.288,4.132c0.074,0.008 2.482,0.826 5.352,1.818c2.87,0.993 7.419,1.905 10.108,2.027c5.685,0.258 13.938,3.878 17.626,7.73c2.487,2.598 3.06,2.685 8.297,1.27l0.001,0Zm-44.813,-5.442c0.928,-0.248 1.688,-0.75 1.688,-1.114c-0,-1.089 -2.744,-0.75 -3.75,0.462c-1.009,1.216 -0.565,1.356 2.062,0.652Zm86.137,-24.16c14.187,-7.721 29.104,-17.935 41.159,-28.181c2.465,-2.096 5.291,-4.486 6.28,-5.311c8.36,-6.977 19.712,-18.1 27.165,-26.617c3.064,-3.502 5.938,-6.708 6.387,-7.125c1.405,-1.306 10.345,-12.5 12.31,-15.412c1.031,-1.529 3.728,-5.439 5.993,-8.688c9.154,-13.133 17.956,-28.871 25.474,-45.549c13.176,-29.228 22.479,-73.63 22.525,-107.512c0.009,-5.404 0.009,-5.404 -2.805,-5.887c-1.547,-0.266 -5.175,-0.956 -8.062,-1.533c-2.888,-0.578 -5.619,-1.051 -6.07,-1.051c-0.543,-0.001 -0.983,4.484 -1.305,13.312c-2.764,75.627 -37.961,147.306 -95.294,194.07c-6.732,5.49 -17.373,13.445 -23.845,17.825c-6.845,4.633 -6.668,4.381 -11.095,15.758c-1.25,3.212 -3.284,7.843 -4.52,10.291c-3.323,6.583 -3.396,6.563 5.703,1.61Zm-196.193,-8.929c0.003,-2.785 0.21,-6.757 0.459,-8.828c0.918,-7.635 -41.782,-17.351 -52.156,-11.868c-5.127,2.711 -5.334,3.405 -1.373,4.622c10.148,3.119 33.944,12.662 48.156,19.313c5.082,2.379 4.907,2.495 4.914,-3.239Zm-102.331,-13.674c2.973,-2.055 6.372,-4.113 7.552,-4.572c2.148,-0.836 2.148,-0.836 0.287,-2.076c-21.649,-14.432 -45.881,-37.51 -61.944,-58.996c-19.148,-25.614 -31.358,-48.796 -40.871,-77.596c-2.84,-8.601 -2.84,-8.601 -11.201,-12.872c-4.598,-2.348 -9.01,-4.858 -9.804,-5.577c-3.507,-3.174 1.257,15.127 10.166,39.05c14.17,38.054 46.33,82.359 81.39,112.127c3.506,2.977 7.387,6.33 8.625,7.451c8.398,7.607 9.043,7.732 15.8,3.061Zm38.575,-6.701c-0,-0.378 -0.254,-0.829 -0.563,-1.002c-0.309,-0.173 -0.15,-0.216 0.353,-0.095c0.504,0.121 1.355,-0.219 1.892,-0.756c6.331,-6.33 21.201,-8.655 35.443,-5.54c8.326,1.821 18.713,4.657 19.144,5.227c1.514,2.005 9.252,2.183 8.489,0.194c-0.235,-0.61 -0.023,-1.597 0.471,-2.191c1.237,-1.491 2.095,-27.4 0.908,-27.4c-0.462,-0 -0.646,-0.506 -0.409,-1.125c0.339,-0.883 -0.27,-1.153 -2.836,-1.256c-3.267,-0.131 -3.267,-0.131 0.107,-0.486c2.674,-0.282 1.507,-0.553 -5.62,-1.305c-6.696,-0.707 -9.13,-0.732 -9.522,-0.097c-0.353,0.571 -0.69,0.427 -1.022,-0.439c-0.326,-0.849 -1.317,-1.292 -2.888,-1.292c-5.217,0 -18.666,-3.417 -29.698,-7.546c-3.506,-1.312 -6.992,-2.453 -7.747,-2.535c-0.755,-0.082 -1.599,-0.502 -1.875,-0.933c-0.865,-1.349 -6.969,-4.111 -8.114,-3.672c-0.6,0.231 -0.895,0.101 -0.655,-0.288c0.453,-0.733 -1.766,-3.776 -2.753,-3.776c-0.309,0 -2.085,-1.074 -3.947,-2.386c-3.411,-2.405 -5.263,-2.48 -3.328,-0.135c0.901,1.091 0.89,1.214 -0.08,0.893c-0.619,-0.204 -1.249,-1.018 -1.4,-1.809c-0.15,-0.791 -0.657,-1.713 -1.125,-2.05c-0.481,-0.346 -0.142,-0.413 0.781,-0.155c1.543,0.433 1.525,0.342 -0.326,-1.678c-2.29,-2.5 -10.512,0.556 -9.561,3.553c0.483,1.52 -0.982,2.359 -3.135,1.795c-0.913,-0.238 -2.329,0.508 -4.011,2.114c-1.43,1.366 -3.848,3.415 -5.373,4.554c-5.541,4.139 -9.601,8.302 -9.612,9.857c-0.008,1.178 -0.174,1.315 -0.661,0.546c-0.523,-0.826 -0.973,-0.703 -2.301,0.625c-0.908,0.908 -1.482,1.82 -1.276,2.027c0.555,0.555 -1.933,3.249 -3,3.249c-1.692,0 -3.327,3.128 -2.292,4.384c0.794,0.962 0.69,0.991 -0.771,0.213c-3.284,-1.75 -1.612,0.51 4.428,5.985c3.972,3.6 6.666,5.494 7.687,5.403c0.865,-0.077 1.125,0.044 0.578,0.269c-0.864,0.356 3.716,5.496 4.896,5.496c0.185,0 2.399,1.586 4.918,3.525c2.807,2.159 4.698,3.174 4.882,2.62c0.166,-0.497 0.646,-0.691 1.068,-0.431c0.499,0.309 0.453,0.667 -0.131,1.028c-0.588,0.363 0.094,1.156 1.983,2.304c1.583,0.963 3.11,2.091 3.393,2.507c0.284,0.416 5.462,1 11.508,1.297c6.046,0.297 11.186,0.734 11.423,0.97c0.664,0.664 1.68,0.509 1.68,-0.257l-0,-0Zm56.859,-4.325c0.541,-0.217 1.188,-0.19 1.437,0.059c0.25,0.249 -0.193,0.427 -0.984,0.394c-0.874,-0.036 -1.051,-0.214 -0.453,-0.453l-0,-0Zm-82.859,-0.738c0.275,-0.275 0.725,-0.275 1,0c0.275,0.275 0.049,0.5 -0.5,0.5c-0.55,0 -0.775,-0.225 -0.5,-0.5Zm80.25,0c0.275,-0.275 0.725,-0.275 1,0c0.275,0.275 0.049,0.5 -0.5,0.5c-0.55,0 -0.775,-0.225 -0.5,-0.5Zm-54.25,-0.625c-0,-0.206 0.168,-0.375 0.375,-0.375c0.206,0 0.375,0.169 0.375,0.375c-0,0.207 -0.169,0.375 -0.375,0.375c-0.207,0 -0.375,-0.169 -0.375,-0.375Zm3.75,-0.375c-0,-0.55 0.225,-0.775 0.5,-0.5c0.275,0.275 0.275,0.725 -0,1c-0.275,0.275 -0.5,0.05 -0.5,-0.5Zm43.907,0.052c-0.499,-0.807 0.969,-1.926 1.642,-1.252c0.248,0.248 0.037,0.45 -0.469,0.45c-0.505,0 -0.71,0.338 -0.455,0.75c0.254,0.413 0.294,0.75 0.088,0.75c-0.206,0 -0.569,-0.314 -0.806,-0.698l-0,0Zm11.218,-0.052c0.254,-0.412 0.612,-0.75 0.794,-0.75c0.182,0 0.331,0.338 0.331,0.75c-0,0.413 -0.358,0.75 -0.795,0.75c-0.437,0 -0.585,-0.337 -0.33,-0.75Zm-87.125,-0.5c0.275,-0.275 0.725,-0.275 1,0c0.275,0.275 0.049,0.5 -0.5,0.5c-0.55,0 -0.775,-0.225 -0.5,-0.5Zm83.201,-0.77c0.73,-0.19 1.743,-0.177 2.25,0.029c0.508,0.205 -0.089,0.361 -1.326,0.345c-1.238,-0.014 -1.653,-0.183 -0.924,-0.373l0,-0.001Zm-42.951,-2.105c-0,-0.206 0.168,-0.375 0.375,-0.375c0.206,0 0.375,0.169 0.375,0.375c-0,0.206 -0.169,0.375 -0.375,0.375c-0.207,0 -0.375,-0.169 -0.375,-0.375Zm4.359,-0.887c0.541,-0.217 1.188,-0.19 1.437,0.059c0.25,0.249 -0.193,0.427 -0.984,0.394c-0.874,-0.036 -1.051,-0.214 -0.453,-0.453l-0,-0Zm3,-0c0.541,-0.217 1.188,-0.19 1.437,0.059c0.25,0.249 -0.193,0.427 -0.984,0.394c-0.874,-0.036 -1.051,-0.214 -0.453,-0.453l-0,-0Zm3.391,0.011c0.275,-0.275 0.725,-0.275 1,0c0.275,0.275 0.049,0.5 -0.5,0.5c-0.55,0 -0.775,-0.225 -0.5,-0.5l-0,0Zm5.375,-0.25c1.237,-0.315 3.093,-0.572 4.125,-0.572c1.672,-0 1.632,0.061 -0.375,0.572c-1.238,0.315 -3.094,0.573 -4.125,0.573c-1.673,-0 -1.632,-0.062 0.375,-0.573Zm-11.625,-1.504c-1.125,-0.362 0.074,-0.44 3,-0.195c2.681,0.225 5.015,0.531 5.187,0.679c0.605,0.523 -6.336,0.113 -8.187,-0.484l-0,0Zm9,0.379c-0,-0.206 0.168,-0.375 0.375,-0.375c0.206,0 0.375,0.169 0.375,0.375c-0,0.206 -0.169,0.375 -0.375,0.375c-0.207,0 -0.375,-0.169 -0.375,-0.375Zm-62.25,-0.749c-0,-0.206 0.168,-0.375 0.375,-0.375c0.206,0 0.375,0.169 0.375,0.375c-0,0.207 -0.169,0.375 -0.375,0.375c-0.207,0 -0.375,-0.169 -0.375,-0.375Zm72,0c-0,-0.206 0.168,-0.375 0.375,-0.375c0.206,0 0.375,0.169 0.375,0.375c-0,0.207 -0.169,0.375 -0.375,0.375c-0.207,0 -0.375,-0.169 -0.375,-0.375Zm-73.5,-0.75c-0,-0.206 0.168,-0.375 0.375,-0.375c0.206,0 0.375,0.169 0.375,0.375c-0,0.207 -0.169,0.375 -0.375,0.375c-0.207,0 -0.375,-0.169 -0.375,-0.375Zm4,-0.125c0.275,-0.275 0.725,-0.275 1,0c0.275,0.275 0.049,0.5 -0.5,0.5c-0.55,0 -0.775,-0.225 -0.5,-0.5Zm63,0c0.275,-0.275 0.725,-0.275 1,0c0.275,0.275 0.049,0.5 -0.5,0.5c-0.55,0 -0.775,-0.225 -0.5,-0.5Zm-71.5,-3.625c-0,-0.206 0.168,-0.375 0.375,-0.375c0.206,0 0.375,0.169 0.375,0.375c-0,0.207 -0.169,0.375 -0.375,0.375c-0.207,0 -0.375,-0.169 -0.375,-0.375Zm-1.5,-1.125c-0,-0.55 0.225,-0.775 0.5,-0.5c0.275,0.275 0.275,0.725 -0,1c-0.275,0.275 -0.5,0.05 -0.5,-0.5Zm1.5,-1.125c-0,-0.206 0.168,-0.375 0.375,-0.375c0.206,0 0.375,0.169 0.375,0.375c-0,0.207 -0.169,0.375 -0.375,0.375c-0.207,0 -0.375,-0.169 -0.375,-0.375Zm-8.346,-4.623c-0.933,-1.131 -0.872,-1.164 0.658,-0.348c1.745,0.93 2.175,1.596 1.029,1.596c-0.362,0 -1.121,-0.561 -1.687,-1.248Zm-2.904,-1.377c-0,-0.206 0.168,-0.375 0.375,-0.375c0.206,0 0.375,0.169 0.375,0.375c-0,0.206 -0.169,0.375 -0.375,0.375c-0.207,0 -0.375,-0.169 -0.375,-0.375Zm4.75,-0.125c0.275,-0.275 0.725,-0.275 1,0c0.275,0.275 0.049,0.5 -0.5,0.5c-0.55,0 -0.775,-0.225 -0.5,-0.5Zm-7.375,-3.25c-0.255,-0.412 -0.127,-0.75 0.286,-0.75c0.413,0 0.959,0.338 1.214,0.75c0.254,0.413 0.126,0.75 -0.287,0.75c-0.412,0 -0.958,-0.337 -1.213,-0.75Zm1.875,-1.5c-0,-0.55 0.225,-0.775 0.5,-0.5c0.275,0.275 0.275,0.725 -0,1c-0.275,0.275 -0.5,0.05 -0.5,-0.5Zm-1.5,-1.125c-0,-0.206 0.168,-0.375 0.375,-0.375c0.206,0 0.375,0.169 0.375,0.375c-0,0.206 -0.169,0.375 -0.375,0.375c-0.207,0 -0.375,-0.169 -0.375,-0.375Zm107.812,-0.872c0.516,-0.208 1.359,-0.208 1.875,0c0.516,0.208 0.094,0.379 -0.937,0.379c-1.032,-0 -1.454,-0.171 -0.938,-0.379Zm9,0c0.516,-0.208 1.359,-0.208 1.875,0c0.516,0.208 0.094,0.379 -0.937,0.379c-1.032,-0 -1.454,-0.171 -0.938,-0.379Zm-116.812,-1.003c-0,-0.412 0.357,-0.75 0.794,-0.75c0.437,0 0.586,0.338 0.331,0.75c-0.255,0.413 -0.613,0.75 -0.795,0.75c-0.182,0 -0.33,-0.337 -0.33,-0.75Zm104.25,0.014c-0,-0.42 1.068,-0.764 2.375,-0.764c2.731,0 2.632,0.327 -0.313,1.034c-1.224,0.294 -2.062,0.184 -2.062,-0.27l-0,0Zm6,-0.764c-0,-0.412 1.201,-0.75 2.669,-0.75c1.588,0 2.481,0.304 2.206,0.75c-0.255,0.413 -1.457,0.75 -2.67,0.75c-1.213,0 -2.205,-0.337 -2.205,-0.75Zm-36,-4.125c-0,-0.206 0.168,-0.375 0.375,-0.375c0.206,0 0.375,0.169 0.375,0.375c-0,0.206 -0.169,0.375 -0.375,0.375c-0.207,0 -0.375,-0.169 -0.375,-0.375Zm4.5,-0.375c-1.723,-0.552 -1.743,-0.606 -0.25,-0.675c0.893,-0.041 1.779,-0.497 1.968,-1.012c0.275,-0.75 0.543,-0.75 1.338,-0c0.816,0.769 0.732,0.946 -0.469,0.99c-1.424,0.051 -1.423,0.07 0.037,0.697c1.912,0.821 -0.06,0.821 -2.625,0l0.001,0Zm8.062,-0.497c0.516,-0.208 1.359,-0.208 1.875,0c0.516,0.208 0.094,0.379 -0.937,0.379c-1.032,-0 -1.454,-0.171 -0.938,-0.379Zm-80.812,-0.628c-0,-0.206 0.168,-0.375 0.375,-0.375c0.206,0 0.375,0.169 0.375,0.375c-0,0.207 -0.169,0.375 -0.375,0.375c-0.207,0 -0.375,-0.169 -0.375,-0.375Zm70.125,-1.125c0.825,-0.354 2.006,-0.644 2.625,-0.644c0.709,-0 0.57,0.238 -0.375,0.644c-0.825,0.355 -2.007,0.645 -2.625,0.645c-0.71,-0 -0.571,-0.239 0.375,-0.645Zm-64.137,-4.465c1.025,-0.788 2.013,-1.283 2.196,-1.101c0.424,0.424 -2.317,2.516 -3.309,2.526c-0.413,0.002 0.088,-0.638 1.113,-1.425Zm51.621,0.953c0.541,-0.217 1.188,-0.19 1.437,0.059c0.25,0.249 -0.193,0.427 -0.984,0.394c-0.874,-0.036 -1.051,-0.214 -0.453,-0.453l-0,-0Zm4.891,0.011c0.275,-0.275 0.725,-0.275 1,0c0.275,0.275 0.049,0.5 -0.5,0.5c-0.55,0 -0.775,-0.225 -0.5,-0.5l-0,0Zm-6,-2.25c0.275,-0.275 0.725,-0.275 1,0c0.275,0.275 0.049,0.5 -0.5,0.5c-0.55,0 -0.775,-0.225 -0.5,-0.5l-0,0Zm-44.5,-3.625c-0,-0.206 0.168,-0.375 0.375,-0.375c0.206,0 0.375,0.169 0.375,0.375c-0,0.207 -0.169,0.375 -0.375,0.375c-0.207,0 -0.375,-0.168 -0.375,-0.375Zm6,0c-0,-0.206 0.168,-0.375 0.375,-0.375c0.206,0 0.375,0.169 0.375,0.375c-0,0.207 -0.169,0.375 -0.375,0.375c-0.207,0 -0.375,-0.168 -0.375,-0.375Zm27.75,0c-0,-0.206 0.168,-0.375 0.375,-0.375c0.206,0 0.375,0.169 0.375,0.375c-0,0.207 -0.169,0.375 -0.375,0.375c-0.207,0 -0.375,-0.168 -0.375,-0.375Zm4,-0.125c0.275,-0.275 0.725,-0.275 1,0c0.275,0.275 0.049,0.5 -0.5,0.5c-0.55,0 -0.775,-0.225 -0.5,-0.5Zm-36.25,-0.999c-0,-0.55 0.225,-0.775 0.5,-0.5c0.275,0.275 0.275,0.725 -0,1c-0.275,0.275 -0.5,0.05 -0.5,-0.5Zm1.5,-0.375c-0,-0.206 0.168,-0.375 0.375,-0.375c0.206,0 0.375,0.169 0.375,0.375c-0,0.207 -0.169,0.375 -0.375,0.375c-0.207,0 -0.375,-0.169 -0.375,-0.375Zm4.559,-0.812c0.036,-0.874 0.214,-1.052 0.453,-0.453c0.216,0.541 0.19,1.188 -0.059,1.437c-0.249,0.249 -0.427,-0.194 -0.394,-0.984l-0,-0Zm-2.581,-1.438c0.238,-0.619 0.565,-1.125 0.727,-1.125c0.162,0 0.295,0.506 0.295,1.125c-0,0.619 -0.327,1.125 -0.727,1.125c-0.399,0 -0.532,-0.506 -0.295,-1.125Zm2.522,-1.5c-0,-0.206 0.168,-0.375 0.375,-0.375c0.206,0 0.375,0.169 0.375,0.375c-0,0.207 -0.169,0.375 -0.375,0.375c-0.207,0 -0.375,-0.169 -0.375,-0.375Zm2.5,-0.875c0.275,-0.275 0.725,-0.275 1,0c0.275,0.275 0.049,0.5 -0.5,0.5c-0.55,0 -0.775,-0.225 -0.5,-0.5Zm11.75,0.125c-0,-0.206 0.168,-0.375 0.375,-0.375c0.206,0 0.375,0.169 0.375,0.375c-0,0.207 -0.169,0.375 -0.375,0.375c-0.207,0 -0.375,-0.169 -0.375,-0.375Zm2.859,-0.137c0.541,-0.217 1.188,-0.19 1.437,0.059c0.25,0.249 -0.193,0.426 -0.984,0.394c-0.874,-0.036 -1.051,-0.214 -0.453,-0.453l-0,-0Zm3.391,0.011c0.275,-0.275 0.725,-0.275 1,0c0.275,0.275 0.049,0.5 -0.5,0.5c-0.55,0 -0.775,-0.225 -0.5,-0.5l-0,0Zm-20.125,-1c0.254,-0.412 0.612,-0.75 0.794,-0.75c0.182,0 0.331,0.338 0.331,0.75c-0,0.413 -0.358,0.75 -0.795,0.75c-0.437,0 -0.585,-0.337 -0.33,-0.75Zm12.375,-0.375c-0,-0.206 0.168,-0.375 0.375,-0.375c0.206,0 0.375,0.169 0.375,0.375c-0,0.206 -0.169,0.375 -0.375,0.375c-0.207,0 -0.375,-0.169 -0.375,-0.375Zm6,0c-0,-0.206 0.168,-0.375 0.375,-0.375c0.206,0 0.375,0.169 0.375,0.375c-0,0.206 -0.169,0.375 -0.375,0.375c-0.207,0 -0.375,-0.169 -0.375,-0.375Zm-12.174,-4.251c0.436,-0.436 1.235,-0.645 1.776,-0.465c0.562,0.188 0.222,0.527 -0.792,0.793c-1.248,0.326 -1.541,0.228 -0.984,-0.328Zm5.424,-0.249c-0,-0.206 0.168,-0.375 0.375,-0.375c0.206,0 0.375,0.169 0.375,0.375c-0,0.206 -0.169,0.375 -0.375,0.375c-0.207,0 -0.375,-0.169 -0.375,-0.375Zm-2.25,-1.045c-0,-0.368 0.533,-0.874 1.186,-1.125c1.835,-0.704 2.017,-0.551 0.796,0.67c-1.275,1.275 -1.982,1.438 -1.982,0.455Zm360.75,29.546c-0,-0.206 -0.169,-0.375 -0.375,-0.375c-0.207,0 -0.375,0.169 -0.375,0.375c-0,0.207 0.168,0.375 0.375,0.375c0.206,0 0.375,-0.169 0.375,-0.375Zm-394.125,-12.134c21.761,-21.187 36.53,-29.891 41.665,-24.555c6.396,6.645 19.237,14.694 29.585,18.543c13.551,5.041 46.875,11.526 46.875,9.121c-0,-1.53 -7.664,-13.019 -11.49,-17.225c-8.999,-9.89 -10.787,-21.034 -8.001,-49.875c2.155,-22.315 -1.018,-30.207 -15.41,-38.33c-4.661,-2.63 -4.329,-2.721 -9.772,2.677c-1.264,1.253 -3.977,3.797 -6.029,5.653c-2.053,1.856 -6.756,6.132 -10.453,9.501c-3.696,3.37 -7.564,6.857 -8.595,7.75c-1.032,0.894 -4.585,4.212 -7.896,7.374c-5.885,5.621 -18.471,17.226 -22.004,20.288c-0.975,0.846 -5.7,5.207 -10.5,9.691c-4.799,4.483 -11.101,10.316 -14.005,12.962c-24.462,22.282 -22.733,18.469 -13.022,28.703c9.116,9.608 6.525,9.917 19.052,-2.278Zm0.661,8.345c0.256,-0.667 0.13,-0.968 -0.295,-0.706c-0.408,0.252 -0.741,0.776 -0.741,1.164c-0,1.079 0.537,0.842 1.036,-0.458Zm27.089,-22.086c0.254,-0.412 -0.063,-0.75 -0.706,-0.75c-0.643,0 -1.169,0.338 -1.169,0.75c-0,0.413 0.317,0.75 0.705,0.75c0.388,0 0.915,-0.337 1.17,-0.75Zm328.275,-12.098c27.869,-5.944 39.411,-37.42 27.129,-73.983c-2.449,-7.289 -13.297,-27.334 -17.844,-32.972c-8.319,-10.314 -13.506,-15.862 -24.55,-26.259c-6.015,-5.662 -6.12,-5.683 -4.359,-0.865c9.322,25.504 9.669,70.021 1.022,131.365c-0.539,3.822 7.743,5.031 18.602,2.714Zm-317.4,-67.353c18.986,-2.914 24.746,-4.327 26.968,-6.612c1.102,-1.134 3.596,-3.513 5.542,-5.287c3.538,-3.225 3.538,-3.225 2.138,-5.25c-4.269,-6.175 -4.813,-12.665 -2.401,-28.632c2.315,-15.325 -2.888,-27.768 -11.612,-27.768c-0.245,0 -1.373,-0.685 -2.506,-1.523c-2.06,-1.523 -2.06,-1.523 -16.282,1.077c-24.151,4.413 -40.792,5.137 -51.86,2.254c-4.892,-1.274 -5.487,-1.299 -5.487,-0.231c-0,10.072 -16.827,26.523 -27.128,26.523c-7.292,0 -6.718,-1.642 2.097,-5.997c12.225,-6.041 19.525,-17.589 22.383,-35.409c3.217,-20.058 2.578,-18.837 15.892,-30.413c3.869,-3.365 3.869,-3.365 0.933,-4.689c-1.615,-0.728 -3.33,-1.799 -3.812,-2.379c-0.482,-0.581 -2.628,-2.219 -4.769,-3.64c-8.623,-5.723 -12.931,-11.267 -14.623,-18.817c-0.448,-1.996 -1.417,-4.305 -2.154,-5.131c-1.561,-1.746 -3.819,-7.264 -3.819,-9.33c-0,-1.001 -0.727,-1.582 -2.438,-1.95c-12.615,-2.715 -21.325,-13.036 -25.556,-30.283c-1.709,-6.968 -1.709,-6.968 -4.769,-2.913c-10.643,14.096 -11.839,34.747 -3.064,52.885c2.887,5.967 2.518,8.466 -1.25,8.466c-1.402,0 -2.706,-0.422 -2.899,-0.937c-0.221,-0.593 -0.556,-0.386 -0.911,0.562c-3.148,8.418 -9.711,20.886 -17.369,33c-23.784,37.624 -26.18,45.523 -19.363,63.846c7.552,20.3 38.629,34.769 85.869,39.98c11.436,1.262 50.649,0.378 62.25,-1.402Zm151.766,-13.95c11.323,-4.481 24.446,-14.096 43.208,-31.657c4.596,-4.302 -6.058,-5.119 -11.789,-0.905c-13.367,9.83 -33.291,8.287 -47.799,-3.701c-4.232,-3.498 -4.214,-3.508 -7.053,4.039c-8.638,22.963 3.758,40.01 23.433,32.224Zm-92.267,-22.095c2.265,-2.399 20.478,-18.452 31.626,-27.874c7.8,-6.593 17.499,-13.058 24.106,-16.069c4.606,-2.099 4.606,-2.099 -0,-7.34c-8.611,-9.798 -6.867,-8.897 -16.449,-8.502c-9.027,0.372 -11.715,0.918 -27.907,5.662c-5.775,1.692 -14.338,4.082 -19.027,5.312c-10.483,2.749 -10.083,2.246 -5.581,7.006c6.558,6.934 6.903,8.139 7.681,26.801c0.769,18.48 1.192,19.623 5.551,15.004Zm108.623,-10.089c10.199,-2.162 19.352,-8.623 22.685,-16.015c0.781,-1.732 1.875,-3.15 2.431,-3.15c1.486,0 1.243,3.356 -0.488,6.75c-0.825,1.617 -1.5,3.123 -1.5,3.345c-0,0.223 3.057,0.405 6.794,0.405c7.588,0 6.918,0.428 20.13,-12.851c26.704,-26.841 39.648,-32.179 57.625,-23.764c4,1.873 4.126,1.792 15.579,-10.007c13.329,-13.733 35.622,-43.943 35.622,-48.274c-0,-0.195 -2.11,-0.373 -4.688,-0.396c-6.131,-0.056 -9.866,-1.33 -10.171,-3.472c-0.224,-1.576 0.009,-1.636 6,-1.579c31.986,0.302 65.314,-39.547 54.082,-64.666c-7.635,-17.073 -41.156,-0.565 -56.857,27.999c-3.68,6.695 -6.707,6.199 -4.095,-0.67c0.99,-2.605 0.705,-2.817 -1.984,-1.476c-10.3,5.139 -32.537,4.992 -32.537,-0.215c-0,-2.106 7.307,-11.987 18.006,-24.347c8.342,-9.638 8.309,-10.252 -0.543,-10.27c-7.139,-0.015 -8.25,-7.298 -1.831,-12c0.853,-0.624 8.368,-11.998 8.368,-12.664c-0,-1.025 -51.377,-26.014 -60.375,-29.366c-26.276,-9.788 -57.027,-11.019 -84.05,-3.366c-7.508,2.127 -11.327,5.449 -24.841,21.609c-3.223,3.854 -6.831,8.165 -8.018,9.579c-9.781,11.652 -21.295,33.127 -27.718,51.696c-13.957,40.352 -3.529,85.981 26.271,114.946c3.674,3.571 3.674,3.571 5.317,0.187c2.531,-5.209 4.012,-4.676 2.06,0.742c-6.044,16.778 8.236,38.51 27.354,41.625c5.118,0.834 5.976,0.808 11.372,-0.335l-0,-0Zm17.884,-43.589c-6.927,-1.502 -12.006,-3.457 -12.006,-4.623c-0,-1.456 2.097,-2.028 3.988,-1.088c8.187,4.073 12.14,3.29 13.116,-2.598c0.976,-5.891 3.549,-11.466 7.332,-15.886c3.214,-3.755 3.16,-5.086 -0.509,-12.539c-2.321,-4.715 -2.321,-4.715 -7.749,-4.305c-13.622,1.03 -30.428,-6.335 -30.428,-13.336c-0,-1.242 -0.793,-1.308 -11.063,-0.926c-13.593,0.506 -20.629,-0.958 -18.269,-3.802c0.765,-0.922 1.334,-0.979 2.952,-0.297c10.179,4.29 33.725,-1.327 62.005,-14.791c47.787,-22.752 65.667,-24.37 74.301,-6.722c17.641,36.058 -38.799,90.638 -83.67,80.913Zm28.401,-6.621c23.729,-8.201 49.269,-28.297 37.908,-29.827c-29.213,-3.933 -54.317,9.152 -56.921,29.669c-0.59,4.648 5.869,4.702 19.013,0.158l0,0Zm-11.157,-39.863c52.278,-8.457 70.077,-17.999 62.237,-33.367c-7.771,-15.233 -21.258,-12.659 -81.868,15.621c-3.434,1.602 -9.366,3.873 -13.182,5.047c-7.588,2.333 -7.649,2.403 -5.362,6.104c4.281,6.927 19.678,9.587 38.175,6.595Zm-94.125,-19.303c-15.883,-11.744 -15.918,-46.635 -0.053,-52.372c2.38,-0.861 2.537,-1.147 3.016,-5.475c2.614,-23.667 15.944,-44.894 33.787,-53.803c20.699,-10.336 35.477,16.548 27.682,50.361c-0.397,1.722 -0.247,1.661 1.834,-0.75c2.934,-3.4 4.709,-2.351 2.71,1.601c-4.786,9.466 -16.872,20.853 -27.904,26.29c-4.154,2.047 -4.627,2.503 -4.231,4.082c0.769,3.065 -0.931,2.061 -10.646,-6.285c-17.199,-14.777 -22.329,-16.526 -28.495,-9.716c-10.312,11.391 -6.86,37.921 5.786,44.461c1.176,0.608 2.139,1.603 2.139,2.211c-0,1.643 -3.026,1.317 -5.625,-0.605l-0,-0Zm52.01,-46.101c15.274,-14.886 14.231,-54.648 -1.652,-62.967c-15.148,-7.933 -40.827,22.305 -44.225,52.077c-0.354,3.103 1.507,4.663 5.604,4.698c0.268,0.002 1.055,-2.611 1.75,-5.808c3.985,-18.334 18.176,-30.91 27.099,-24.016c5.789,4.472 7.899,9.578 3.957,9.578c-4.456,0 -11.168,6.782 -11.168,11.284c-0,5.679 5.183,8.767 10.786,6.426c2.493,-1.041 2.825,-1.042 3.22,-0.012c0.47,1.225 -0.254,10.023 -0.982,11.918c-0.867,2.26 1.276,1.046 5.611,-3.178l-0,-0Zm166.052,34.32c-4.379,-2.67 -2.513,-11.594 3.831,-18.321c1.513,-1.605 2.662,-2.966 2.554,-3.025c-0.109,-0.06 -1.135,-0.511 -2.281,-1.003c-9.391,-4.036 20.068,-31.385 29.788,-27.655c1.957,0.751 0.455,2.593 -3.103,3.806c-6.253,2.13 -13.075,6.547 -19.052,12.335c-7.283,7.052 -7.31,7.358 -0.688,7.732c7.99,0.451 8.864,2.666 2.287,5.788c-2.098,0.996 -4.443,2.852 -5.423,4.29c-0.949,1.394 -1.921,2.537 -2.16,2.54c-0.94,0.011 -3.867,7.463 -3.405,8.668c0.505,1.316 0.979,1.309 11.152,-0.163c5.106,-0.739 2.887,3.332 -2.95,5.414c-4.075,1.453 -7.733,1.312 -10.55,-0.406l0,0Zm-138.937,-14.474c-0,-0.531 1.643,-2.452 3.651,-4.27c3.574,-3.235 3.63,-3.353 2.677,-5.635c-19.059,-45.615 38.583,-119.841 59.59,-76.735c7.464,15.314 6.651,37.719 -2.011,55.472c-3.532,7.241 -3.532,7.241 1.513,7.731c4.408,0.429 6.648,1.335 5.682,2.301c-0.163,0.163 -5.85,0.641 -12.637,1.061c-20.909,1.294 -38.086,7.112 -52.09,17.642c-4.607,3.464 -6.375,4.139 -6.375,2.433Zm15.403,-13.854c-9.15,-23.846 10.331,-61.104 27.348,-52.304c4.559,2.358 8.961,10.874 5.62,10.874c-2.666,0 -8.255,3.37 -10.526,6.347c-5.768,7.563 1.689,16.406 10.146,12.032c2.645,-1.367 3.753,2.863 2.461,9.398c-0.863,4.361 -0.922,4.257 2.212,3.885c6.703,-0.795 14.334,-20.46 14.324,-36.912c-0.023,-37.542 -20.925,-46.8 -43,-19.046c-15.469,19.45 -22.49,53.127 -14.276,68.476c1.029,1.923 6.475,-0.708 5.691,-2.75Zm-347.374,105.728c1.597,-2.768 6.238,-10.456 10.312,-17.084c4.417,-7.185 7.409,-12.843 7.409,-14.013c-0,-2.945 3.567,-21.709 5.663,-29.79c1.565,-6.031 1.774,-8.127 1.383,-13.875c-1.129,-16.606 3.3,-29.227 14.142,-40.3c6.914,-7.061 8.59,-18.739 4.17,-29.05c-1.626,-3.794 -2.228,-3.492 -5.908,2.954c-0.824,1.444 -2.546,4.313 -3.826,6.375c-21.023,33.862 -34.819,81.937 -37.075,129.188c-0.582,12.198 -0.314,12.601 3.73,5.595Zm604.596,3.226c38.908,-7.941 37.568,-24.683 -4.868,-60.811c-4.327,-3.684 -8.377,-7.258 -9,-7.942c-1.578,-1.735 -18.702,-15.824 -25.833,-21.256c-3.25,-2.475 -7.121,-5.53 -8.604,-6.788c-4.848,-4.116 -32.202,-22.837 -33.369,-22.837c-0.248,0 -0.451,0.703 -0.451,1.563c-0,17.975 -17.149,40.076 -39.551,50.972c-3.743,1.821 -5.668,3.258 -6.483,4.84c-2.536,4.928 -6.603,11.952 -9.092,15.701c-3.244,4.888 -3.251,4.756 0.429,7.813c21.358,17.737 65.067,33.724 109.822,40.168c4.503,0.648 21.15,-0.229 27,-1.423Zm-22.125,-8.76c-20.408,-2.867 -27.121,-4.035 -36,-6.266c-5.569,-1.399 -12.962,-3.571 -16.428,-4.826c-3.467,-1.255 -6.42,-2.282 -6.563,-2.282c-0.143,0 -0.259,-0.675 -0.259,-1.5c-0,-1.952 -0.247,-1.987 10.566,1.517c30.94,10.026 74.146,12.123 76.81,3.727c2.495,-7.858 -33.211,-40.434 -65.759,-59.994c-12.828,-7.709 -15.865,-10.164 -13.632,-11.021c2.766,-1.061 26.552,12.807 39.563,23.066c34.184,26.955 44.702,38.114 44.702,47.424c-0,7.43 -16.423,12.484 -33,10.155l-0,0Zm-58.125,-20.801c-16.41,-5.788 -27.714,-12.234 -25.441,-14.508c0.383,-0.382 3.487,0.917 14.941,6.255c1.65,0.769 6.206,2.637 10.125,4.151c13.317,5.147 13.65,8.785 0.375,4.102Zm-362.929,16.802c1.52,-1.031 3.265,-1.875 3.88,-1.875c1.347,0 0.978,-7.499 -1.638,-33.375c-2.176,-21.511 -2.056,-21.313 -13.33,-21.956c-7.191,-0.41 -9.206,-2.189 -4.546,-4.014c8.843,-3.462 19.742,1.475 21.421,9.703c1.239,6.078 1.419,6.134 4.828,1.512c14.008,-18.99 3.006,-31.104 -25.14,-27.681c-33.205,4.038 -61.828,36.704 -43.152,49.246c4.8,3.224 5.981,3.563 13.543,3.897c8.746,0.385 8.735,0.396 4.714,-4.955c-4.584,-6.1 -4.684,-10.557 -0.393,-17.381c2.376,-3.777 7.599,-8.301 8.975,-7.773c1.777,0.682 1.418,1.592 -2.639,6.69c-4.472,5.621 -5.705,10.771 -3.223,13.462c0.761,0.825 3.576,4.027 6.256,7.115c8.041,9.266 26.806,29.26 27.46,29.26c0.122,0 1.464,-0.844 2.984,-1.875Zm-68.245,-39.563c0.426,-30.119 63.2,-58.235 84.773,-37.969c2.078,1.953 2.414,1.297 2.202,-4.307c-0.287,-7.59 -3.884,-11.835 -12.004,-14.165c-44.421,-12.749 -103.842,31.277 -78.615,58.247c1.869,1.998 3.436,3.632 3.483,3.632c0.046,-0 0.119,-2.447 0.162,-5.438l-0.001,0Zm-10.49,-25.499c12.899,-25.567 53.086,-43.436 83.539,-37.146c2.625,0.543 2.625,0.543 -0.309,-2.059c-7.495,-6.646 -23.481,-11.982 -25.605,-8.546c-2.855,4.621 -23.815,5.713 -37.439,1.951c-8.676,-2.396 -7.432,-3.05 -13.906,7.312c-3.995,6.393 -4.23,7.508 -1.055,5.011c4.908,-3.861 5.026,-2.055 0.318,4.854c-7.844,11.51 -11.916,25.62 -8.978,31.109c1.083,2.024 1.204,1.936 3.435,-2.486Zm-8.711,-6.024c-0,-0.942 0.525,-3.557 1.166,-5.813c0.642,-2.255 1.648,-6.609 2.235,-9.675c3.296,-17.193 16.794,-37.32 21.283,-31.735c6.336,7.883 39.066,6.233 39.066,-1.97c-0,-13.629 -18.807,-22.728 -37.378,-18.086c-9.109,2.277 -11.871,1.061 -6.248,-2.751c7.259,-4.919 18.426,-5.941 27.977,-2.561c6.937,2.454 7.399,2.405 7.399,-0.785c-0,-10.295 -7.473,-17.799 -18.423,-18.502c-6.701,-0.43 -14.244,1.947 -26.026,8.201c-0.974,0.517 -1.445,0.387 -1.782,-0.493c-1.281,-3.336 11.491,-10.344 21.512,-11.804c7.011,-1.022 6.991,-0.854 0.719,-5.891c-26.951,-21.642 -73.611,3.303 -59.703,31.917c5.099,10.488 5.275,11.59 4.169,25.979c-1.283,16.674 0.477,25.31 7.281,35.727c4.716,7.22 16.753,13.141 16.753,8.242Zm372.38,-26.405c3.709,-1.026 7.841,-1.869 9.182,-1.875c1.566,-0.005 2.438,-0.378 2.438,-1.042c-0,-0.568 0.521,-1.466 1.159,-1.995c0.637,-0.529 0.987,-1.41 0.777,-1.958c-0.21,-0.548 -0.124,-0.916 0.192,-0.817c0.315,0.098 3.565,-2.962 7.221,-6.8c6.905,-7.247 13.688,-12.855 18.091,-14.954c3.491,-1.665 3.835,-1.313 -8.133,-8.338c-5.875,-3.449 -12.572,-7.404 -14.882,-8.789c-7.942,-4.763 -14.175,-7.905 -14.851,-7.487c-0.373,0.231 -2.966,3.813 -5.763,7.96c-2.796,4.148 -5.361,7.712 -5.698,7.921c-1.918,1.185 -0.278,2.362 3.809,2.733c10.304,0.934 11.509,5.655 3.621,14.183c-0.918,0.992 -2.279,2.738 -3.025,3.879c-0.746,1.142 -2.939,3.862 -4.875,6.046c-11.008,12.42 -11.182,13.199 -2.96,13.199c5.099,0 8.75,-0.497 13.697,-1.866l-0,0Zm19.12,-40.509c-0,-0.206 0.168,-0.375 0.375,-0.375c0.206,0 0.375,0.169 0.375,0.375c-0,0.206 -0.169,0.375 -0.375,0.375c-0.207,0 -0.375,-0.169 -0.375,-0.375Zm-12.75,-9.75c-0,-0.206 0.168,-0.375 0.375,-0.375c0.206,0 0.375,0.169 0.375,0.375c-0,0.206 -0.169,0.375 -0.375,0.375c-0.207,0 -0.375,-0.169 -0.375,-0.375Zm84.543,36.938c-4.922,-9.637 -13.315,-23.996 -15.989,-27.352c-2.413,-3.028 -4.093,9.616 -1.796,13.51c0.801,1.357 1.91,4.478 2.466,6.935c1.011,4.469 1.011,4.469 9.581,10.23c11.166,7.506 11.244,7.46 5.738,-3.323Zm-32.627,-22.076c3.185,-0.247 5.612,-0.738 5.393,-1.093c-0.219,-0.354 -0.04,-0.644 0.396,-0.644c0.437,0 0.805,0.591 0.817,1.313c0.02,1.181 0.106,1.169 0.855,-0.12c0.996,-1.717 1.284,-24.939 0.391,-31.568c-1.385,-10.276 -2.075,-14.521 -3.17,-19.5c-0.635,-2.887 -1.353,-6.178 -1.595,-7.312c-0.291,-1.36 -0.92,-2.063 -1.847,-2.063c-1.541,0 -1.928,-1.201 -0.536,-1.665c1.269,-0.423 -3.401,-14.763 -5.537,-17.001c-0.939,-0.984 -1.287,-1.555 -0.771,-1.268c1.308,0.729 1.226,0.412 -1.312,-5.072c-1.238,-2.674 -2.25,-5.065 -2.25,-5.313c-0,-0.249 -0.76,-1.624 -1.688,-3.057c-1.828,-2.822 -3.404,-3.631 -2.014,-1.033c0.482,0.9 0.525,1.389 0.1,1.126c-0.413,-0.255 -1.108,-1.489 -1.545,-2.741c-0.61,-1.751 -0.584,-2.149 0.114,-1.721c0.499,0.306 0.312,-0.273 -0.416,-1.287c-0.727,-1.013 -1.535,-2.297 -1.795,-2.852c-0.26,-0.555 -1.436,-2.065 -2.614,-3.355c-1.179,-1.29 -2.143,-2.565 -2.143,-2.833c0,-0.634 -12.83,-13.441 -15.543,-15.516c-7.436,-5.685 -10.512,-7.773 -12.007,-8.148c-0.935,-0.234 -1.7,-0.727 -1.7,-1.095c0,-0.368 -0.341,-0.669 -0.758,-0.669c-0.417,0 -2.189,-0.644 -3.937,-1.432c-18.334,-8.26 -70.589,-11.215 -68.28,-3.861c0.313,0.995 0.253,1.007 -0.405,0.078c-0.608,-0.86 -1.14,-0.914 -2.508,-0.257c-0.955,0.458 -3.424,1.252 -5.486,1.764c-5.312,1.319 -21.375,8.981 -21.375,10.196c-0,0.556 -0.682,1.012 -1.515,1.012c-1.44,0 -7.422,3.31 -8.251,4.565c-0.214,0.325 -1.384,0.969 -2.599,1.431c-1.806,0.687 -2.008,0.982 -1.11,1.618c0.905,0.64 0.868,0.703 -0.211,0.356c-0.721,-0.232 -2.577,0.318 -4.125,1.223c-3.604,2.105 -6.039,4.307 -4.762,4.307c0.529,0 1.819,0.675 2.868,1.5c2.602,2.047 0.7,1.911 -2.087,-0.149c-2.149,-1.589 -2.279,-1.6 -3.532,-0.295c-1.243,1.295 -1.218,1.333 0.574,0.851c1.428,-0.385 1.606,-0.319 0.75,0.277c-0.619,0.43 -1.701,0.603 -2.403,0.384c-0.791,-0.245 -2.216,0.499 -3.737,1.953c-1.353,1.292 -2.873,2.582 -3.38,2.865c-1.266,0.708 1.2,7.581 2.764,7.701c0.819,0.063 0.769,0.182 -0.182,0.43c-1.283,0.336 -1.877,1.733 -0.736,1.733c0.317,0 2.595,-1.865 5.062,-4.144c4.852,-4.482 12.543,-10.106 13.82,-10.106c0.435,0 0.791,-0.275 0.791,-0.612c0,-0.336 1.414,-1.406 3.142,-2.378c2.784,-1.564 2.977,-1.838 1.688,-2.403c-1.18,-0.517 -1.102,-0.568 0.417,-0.269c1.592,0.313 8.253,-2.117 8.253,-3.011c0,-0.508 -4.846,0.596 -5.587,1.272c-1.254,1.146 -2.064,0.696 -0.88,-0.488c0.659,-0.659 2.658,-1.189 4.741,-1.257c1.981,-0.064 3.939,-0.36 4.351,-0.658c0.413,-0.297 2.269,-0.972 4.125,-1.5c1.857,-0.527 3.713,-1.2 4.125,-1.496c5.789,-4.152 30.508,-5.855 36.756,-2.533c2.868,1.524 3.748,1.716 4.308,0.937c0.531,-0.74 0.61,-0.686 0.323,0.223c-0.383,1.213 2.324,4.189 3.482,3.829c0.34,-0.106 0.44,0.095 0.222,0.448c-0.218,0.352 0.046,2.132 0.585,3.956c0.539,1.823 1.171,5.34 1.404,7.815c0.233,2.475 0.176,3.656 -0.129,2.625c-0.488,-1.657 -0.664,-1.417 -1.514,2.065c-0.529,2.167 -1.271,4.131 -1.649,4.364c-0.816,0.504 -0.146,1.821 0.926,1.821c0.412,0 0.542,-0.337 0.287,-0.748c-0.254,-0.412 0.082,-1.509 0.748,-2.438c1.21,-1.689 1.21,-1.689 0.746,0.238c-0.409,1.7 -0.103,2.091 2.591,3.305c1.68,0.758 2.914,1.519 2.742,1.691c-0.172,0.172 -1.388,-0.243 -2.703,-0.923c-1.314,-0.679 -2.553,-1.072 -2.753,-0.872c-0.584,0.584 5.217,4.247 6.727,4.247c2.388,0 7.261,3.265 6.303,4.223c-0.221,0.221 -1.071,-0.268 -1.89,-1.086c-0.819,-0.819 -2.281,-1.738 -3.25,-2.042c-1.136,-0.356 -0.429,0.517 1.988,2.456c6.436,5.164 8.367,7.53 11.653,14.282c1.66,3.413 1.577,4.382 -0.838,9.73c-0.792,1.753 -2.148,4.79 -3.014,6.75c-2.786,6.302 -3.163,6.937 -4.115,6.937c-0.514,0 -1.071,0.408 -1.238,0.906c-0.328,0.986 -1.563,0.173 -4.514,-2.974c-1.755,-1.87 -2.776,-1.183 -2.797,1.881c-0.009,0.928 -0.322,1.687 -0.701,1.687c-0.411,0 -0.391,-1.08 0.047,-2.67c0.406,-1.468 0.595,-3.071 0.42,-3.562c-0.174,-0.491 -0.672,0.363 -1.106,1.898c-0.98,3.468 -3.668,7.334 -5.098,7.334c-0.591,0 -1.074,0.338 -1.074,0.75c0,0.413 0.465,0.75 1.033,0.75c0.569,0 1.454,0.506 1.967,1.125c0.514,0.619 1.369,1.125 1.9,1.125c0.531,0 3.274,1.289 6.096,2.864c4.149,2.317 5.8,2.836 8.638,2.714c2.837,-0.121 3.34,0.036 2.625,0.823c-0.539,0.594 -1.162,0.706 -1.596,0.286c-0.392,-0.378 -1.219,-0.687 -1.838,-0.687c-1.875,0 0,1.274 4.418,3.007c2.265,0.887 4.29,1.84 4.5,2.116c0.427,0.561 17.642,9.127 18.343,9.127c0.246,0 1.766,0.874 3.38,1.942c1.84,1.217 3.473,1.77 4.378,1.483c1.857,-0.59 3.664,0.113 4.255,1.654c0.392,1.02 0.23,0.999 -1.023,-0.135c-0.819,-0.741 -1.93,-1.191 -2.47,-1c-0.539,0.191 0.622,1.137 2.582,2.101c1.959,0.965 3.562,2.024 3.562,2.355c0,0.966 2.086,0.689 2.541,-0.337c0.228,-0.516 0.341,-0.317 0.25,0.442c-0.223,1.853 8.819,7.443 11.041,6.826c1.108,-0.308 1.257,-0.23 0.526,0.276c-1.093,0.758 -0.931,0.94 2.517,2.834c4.037,2.217 7.646,4.344 9,5.303c0.825,0.585 2.175,0.867 3,0.627c0.825,-0.24 4.106,-0.638 7.292,-0.884l-0,-0Zm-10.258,-0.933c-0.482,-0.779 2.453,-1.942 3.148,-1.247c0.244,0.244 -0.203,0.448 -0.994,0.455c-1.203,0.009 -1.254,0.13 -0.312,0.738c0.969,0.627 0.949,0.729 -0.144,0.739c-0.697,0.006 -1.461,-0.302 -1.698,-0.685l-0,0Zm5.779,-0.571c0.722,-0.188 1.903,-0.188 2.625,0c0.722,0.189 0.131,0.343 -1.312,0.343c-1.444,0 -2.035,-0.154 -1.313,-0.343Zm7.313,-0.608c-0,-0.206 0.168,-0.375 0.375,-0.375c0.206,0 0.375,0.169 0.375,0.375c-0,0.206 -0.169,0.375 -0.375,0.375c-0.207,0 -0.375,-0.169 -0.375,-0.375Zm2.548,-4.906c-0.033,-2.492 0.195,-4.264 0.508,-3.938c0.711,0.743 0.895,2.078 0.782,5.657c-0.146,4.617 -1.223,3.182 -1.29,-1.719Zm-23.548,0.737c-0,-0.437 0.337,-0.586 0.75,-0.331c0.412,0.255 0.75,0.613 0.75,0.794c-0,0.182 -0.338,0.331 -0.75,0.331c-0.413,0 -0.75,-0.357 -0.75,-0.794Zm21.868,-0.706c-0,-1.031 0.17,-1.453 0.378,-0.937c0.208,0.515 0.208,1.359 0,1.875c-0.208,0.515 -0.378,0.093 -0.378,-0.938Zm-23.368,-0.75c-0,-0.55 0.225,-0.775 0.5,-0.5c0.275,0.275 0.275,0.725 -0,1c-0.275,0.275 -0.5,0.05 -0.5,-0.5Zm3.75,-0.375c-0,-0.206 0.168,-0.375 0.375,-0.375c0.206,0 0.375,0.169 0.375,0.375c-0,0.206 -0.169,0.375 -0.375,0.375c-0.207,0 -0.375,-0.169 -0.375,-0.375Zm-13.5,-4.5c-0.514,-0.619 -0.7,-1.125 -0.414,-1.125c0.287,0 1.027,0.506 1.646,1.125c0.619,0.619 0.804,1.125 0.413,1.125c-0.391,0 -1.132,-0.506 -1.645,-1.125Zm-6.75,-4.875c-0,-0.55 0.225,-0.775 0.5,-0.5c0.275,0.275 0.275,0.725 -0,1c-0.275,0.275 -0.5,0.05 -0.5,-0.5Zm1.188,-1.981c-0.395,-1.029 -0.286,-1.076 0.669,-0.283c1.302,1.08 1.437,1.514 0.473,1.514c-0.369,0 -0.883,-0.554 -1.142,-1.231l-0,0Zm-13.618,-4.378c-0.795,-0.601 -1.108,-1.099 -0.695,-1.105c1.114,-0.019 3.019,1.32 2.548,1.791c-0.224,0.224 -1.058,-0.084 -1.853,-0.686Zm2.68,-1.141c-0,-0.55 0.225,-0.775 0.5,-0.5c0.275,0.275 0.275,0.725 -0,1c-0.275,0.275 -0.5,0.05 -0.5,-0.5Zm-2.75,-1.25c0.275,-0.275 0.725,-0.275 1,0c0.275,0.275 0.05,0.5 -0.5,0.5c-0.55,0 -0.775,-0.225 -0.5,-0.5Zm52.368,-1.75c-0,-1.031 0.17,-1.453 0.378,-0.937c0.208,0.515 0.208,1.359 0,1.875c-0.208,0.515 -0.378,0.093 -0.378,-0.938Zm-61.993,-0.75c-0.255,-0.412 -0.106,-0.75 0.33,-0.75c0.437,0 0.795,0.338 0.795,0.75c-0,0.413 -0.149,0.75 -0.331,0.75c-0.182,0 -0.54,-0.337 -0.794,-0.75Zm-2.766,-1.262c0.541,-0.217 1.188,-0.19 1.437,0.059c0.25,0.249 -0.193,0.426 -0.984,0.394c-0.874,-0.036 -1.051,-0.214 -0.453,-0.453l-0,-0Zm-2.109,-0.613c-0,-0.206 0.168,-0.375 0.375,-0.375c0.206,0 0.375,0.169 0.375,0.375c-0,0.206 -0.169,0.375 -0.375,0.375c-0.207,0 -0.375,-0.169 -0.375,-0.375Zm69.146,-3.75c0.014,-1.237 0.183,-1.653 0.373,-0.923c0.191,0.73 0.178,1.742 -0.028,2.25c-0.206,0.508 -0.361,-0.089 -0.346,-1.327l0.001,0Zm-78.709,-0.904c-0.928,-0.179 -1.687,-0.639 -1.687,-1.023c-0,-1.096 1.968,-0.816 3,0.427c0.513,0.619 0.808,1.079 0.654,1.023c-0.154,-0.056 -1.039,-0.248 -1.967,-0.427Zm1.731,-2.157c-0.801,-0.585 -1.138,-1.059 -0.749,-1.052c1.036,0.017 2.97,1.348 2.558,1.761c-0.195,0.195 -1.009,-0.124 -1.809,-0.709Zm73.832,-1.814c-0,-0.55 0.225,-0.775 0.5,-0.5c0.275,0.275 0.275,0.725 -0,1c-0.275,0.275 -0.5,0.05 -0.5,-0.5Zm1.5,-2.25c-0,-1.65 0.133,-3 0.296,-3c0.163,0 0.425,1.35 0.582,3c0.157,1.65 0.023,3 -0.296,3c-0.32,0 -0.582,-1.35 -0.582,-3Zm-87.75,0.375c-0,-0.206 0.168,-0.375 0.375,-0.375c0.206,0 0.375,0.169 0.375,0.375c-0,0.206 -0.169,0.375 -0.375,0.375c-0.207,0 -0.375,-0.169 -0.375,-0.375Zm-3.42,-1.476c-0.8,-0.606 -1.098,-1.112 -0.661,-1.125c0.436,-0.013 1.449,0.472 2.25,1.077c0.8,0.606 1.098,1.112 0.661,1.125c-0.436,0.013 -1.449,-0.471 -2.25,-1.077Zm4.92,-0.024c-0,-0.206 0.168,-0.375 0.375,-0.375c0.206,0 0.375,0.169 0.375,0.375c-0,0.206 -0.169,0.375 -0.375,0.375c-0.207,0 -0.375,-0.169 -0.375,-0.375Zm-2.391,-1.637c0.541,-0.217 1.188,-0.19 1.437,0.059c0.25,0.249 -0.193,0.427 -0.984,0.394c-0.874,-0.036 -1.051,-0.214 -0.453,-0.453l-0,-0Zm88.009,-4.738c-0,-1.031 0.17,-1.453 0.378,-0.937c0.208,0.515 0.208,1.359 0,1.875c-0.208,0.515 -0.378,0.093 -0.378,-0.938Zm-90.259,-2.012c0.541,-0.217 1.188,-0.19 1.437,0.059c0.25,0.249 -0.193,0.427 -0.984,0.394c-0.874,-0.036 -1.051,-0.214 -0.453,-0.453l-0,-0Zm6.391,0.012c0.275,-0.275 0.725,-0.275 1,0c0.275,0.275 0.05,0.5 -0.5,0.5c-0.55,0 -0.775,-0.225 -0.5,-0.5l-0,0Zm4.048,-1.06c0.265,-1.014 0.605,-1.354 0.792,-0.792c0.181,0.541 -0.028,1.34 -0.464,1.776c-0.557,0.556 -0.654,0.263 -0.328,-0.984Zm6.261,0.373c0.036,-0.874 0.213,-1.052 0.453,-0.454c0.216,0.542 0.19,1.189 -0.059,1.438c-0.249,0.249 -0.427,-0.194 -0.394,-0.984l-0,-0Zm-18.059,-0.688c-0,-0.206 0.168,-0.375 0.375,-0.375c0.206,0 0.375,0.169 0.375,0.375c-0,0.206 -0.169,0.375 -0.375,0.375c-0.207,0 -0.375,-0.169 -0.375,-0.375Zm10.552,-1.643c0.17,-1.947 1.342,-3.599 1.395,-1.964c0.029,0.904 -0.285,1.852 -0.697,2.107c-0.413,0.255 -0.727,0.191 -0.698,-0.143Zm80.198,0.143c-0,-0.206 0.168,-0.375 0.375,-0.375c0.206,0 0.375,0.169 0.375,0.375c-0,0.206 -0.169,0.375 -0.375,0.375c-0.207,0 -0.375,-0.169 -0.375,-0.375Zm-76.5,-9c-0,-0.206 0.168,-0.375 0.375,-0.375c0.206,0 0.375,0.169 0.375,0.375c-0,0.206 -0.169,0.375 -0.375,0.375c-0.207,0 -0.375,-0.169 -0.375,-0.375Zm2.625,-0.375c0.254,-0.412 0.612,-0.75 0.794,-0.75c0.182,0 0.331,0.338 0.331,0.75c-0,0.413 -0.358,0.75 -0.795,0.75c-0.437,0 -0.585,-0.337 -0.33,-0.75Zm70.625,-0.5c-0.275,-0.275 -0.5,-0.849 -0.5,-1.275c-0,-0.47 0.349,-0.426 0.887,0.113c0.488,0.488 0.713,1.061 0.5,1.275c-0.213,0.213 -0.612,0.162 -0.887,-0.113l-0,0Zm-2.75,-1c-0,-0.55 0.225,-0.775 0.5,-0.5c0.275,0.275 0.275,0.725 -0,1c-0.275,0.275 -0.5,0.05 -0.5,-0.5Zm-69.75,-1.5c-0,-0.55 0.225,-0.775 0.5,-0.5c0.275,0.275 0.275,0.725 -0,1c-0.275,0.275 -0.5,0.05 -0.5,-0.5Zm3,0.375c-0,-0.206 0.168,-0.375 0.375,-0.375c0.206,0 0.375,0.169 0.375,0.375c-0,0.206 -0.169,0.375 -0.375,0.375c-0.207,0 -0.375,-0.169 -0.375,-0.375Zm-0.947,-1.687c-0.157,-0.31 -0.048,-1.575 0.242,-2.813c0.518,-2.212 0.529,-2.203 0.616,0.563c0.084,2.67 -0.229,3.49 -0.858,2.25l-0,-0Zm68.914,-0.592c-0.723,-1.886 -0.51,-2.372 0.374,-0.852c0.438,0.753 0.638,1.527 0.445,1.72c-0.193,0.193 -0.562,-0.198 -0.819,-0.868Zm-1.967,-6.721c-0,-0.206 0.168,-0.375 0.375,-0.375c0.206,0 0.375,0.169 0.375,0.375c-0,0.206 -0.169,0.375 -0.375,0.375c-0.207,0 -0.375,-0.169 -0.375,-0.375Zm-67.5,-1.5c-0,-0.206 0.168,-0.375 0.375,-0.375c0.206,0 0.375,0.169 0.375,0.375c-0,0.206 -0.169,0.375 -0.375,0.375c-0.207,0 -0.375,-0.169 -0.375,-0.375Zm63.75,-0.375c-0,-0.412 0.337,-0.75 0.75,-0.75c0.412,0 0.75,0.338 0.75,0.75c-0,0.413 -0.338,0.75 -0.75,0.75c-0.413,0 -0.75,-0.337 -0.75,-0.75Zm-62.452,-2.19c-0.326,-1.247 -0.228,-1.54 0.328,-0.983c0.436,0.435 0.645,1.235 0.464,1.776c-0.187,0.561 -0.527,0.221 -0.792,-0.793Zm61.202,-1.31c0.275,-0.275 0.725,-0.275 1,0c0.275,0.275 0.049,0.5 -0.5,0.5c-0.55,0 -0.775,-0.225 -0.5,-0.5Zm1.25,-2.5c-0,-0.55 0.225,-0.775 0.5,-0.5c0.275,0.275 0.275,0.725 -0,1c-0.275,0.275 -0.5,0.05 -0.5,-0.5Zm-1.5,-3c-0,-0.412 0.357,-0.75 0.794,-0.75c0.437,0 0.586,0.338 0.331,0.75c-0.255,0.413 -0.613,0.75 -0.795,0.75c-0.182,0 -0.33,-0.337 -0.33,-0.75Zm-69.75,-0.375c-0,-0.206 0.168,-0.375 0.375,-0.375c0.206,0 0.375,0.169 0.375,0.375c-0,0.206 -0.169,0.375 -0.375,0.375c-0.207,0 -0.375,-0.169 -0.375,-0.375Zm3,0c-0,-0.206 0.168,-0.375 0.375,-0.375c0.206,0 0.375,0.169 0.375,0.375c-0,0.206 -0.169,0.375 -0.375,0.375c-0.207,0 -0.375,-0.169 -0.375,-0.375Zm61.5,-7.125c-0,-0.55 0.225,-0.775 0.5,-0.5c0.275,0.275 0.275,0.725 -0,1c-0.275,0.275 -0.5,0.05 -0.5,-0.5Zm2.25,0.375c-0,-0.206 0.168,-0.375 0.375,-0.375c0.206,0 0.375,0.169 0.375,0.375c-0,0.206 -0.169,0.375 -0.375,0.375c-0.207,0 -0.375,-0.169 -0.375,-0.375Zm-7.5,-6c-0,-0.206 0.168,-0.375 0.375,-0.375c0.206,0 0.375,0.169 0.375,0.375c-0,0.206 -0.169,0.375 -0.375,0.375c-0.207,0 -0.375,-0.169 -0.375,-0.375Zm3.375,-1.125c0.254,-0.412 0.632,-0.75 0.838,-0.75c0.206,0 0.166,0.338 -0.088,0.75c-0.255,0.413 -0.633,0.75 -0.839,0.75c-0.206,0 -0.166,-0.337 0.089,-0.75Zm-168.579,-0.453c-0.3,-0.301 -0.525,-1.419 -0.499,-2.484c0.047,-1.938 0.047,-1.938 0.771,-0.127c0.781,1.951 0.619,3.502 -0.272,2.611l0,0Zm2.612,-0.596c0.531,-0.577 1.085,-0.937 1.229,-0.8c0.445,0.423 -0.682,1.849 -1.461,1.849c-0.405,0 -0.3,-0.472 0.232,-1.049l-0,-0Zm163.342,-1.201c-0,-0.55 0.225,-0.775 0.5,-0.5c0.275,0.275 0.275,0.725 -0,1c-0.275,0.275 -0.5,0.05 -0.5,-0.5Zm-164.25,-0.75c-0,-0.55 0.225,-0.775 0.5,-0.5c0.275,0.275 0.275,0.725 -0,1c-0.275,0.275 -0.5,0.05 -0.5,-0.5Zm3.75,-1.125c-0,-0.206 0.168,-0.375 0.375,-0.375c0.206,0 0.375,0.169 0.375,0.375c-0,0.206 -0.169,0.375 -0.375,0.375c-0.207,0 -0.375,-0.169 -0.375,-0.375Zm158.553,-1.241c-0.332,-0.536 -0.206,-0.662 0.331,-0.33c0.864,0.534 1.16,1.196 0.535,1.196c-0.182,0 -0.572,-0.389 -0.866,-0.866Zm-163.053,-1.009c-0,-0.206 0.168,-0.375 0.375,-0.375c0.206,0 0.375,0.169 0.375,0.375c-0,0.206 -0.169,0.375 -0.375,0.375c-0.207,0 -0.375,-0.169 -0.375,-0.375Zm8.363,-1.534c0.682,-0.696 1.648,-1.129 2.148,-0.962c0.5,0.167 -0.058,0.736 -1.239,1.265c-2.01,0.901 -2.068,0.882 -0.909,-0.303Zm4.387,-1.466c-0,-0.206 0.168,-0.375 0.375,-0.375c0.206,0 0.375,0.169 0.375,0.375c-0,0.206 -0.169,0.375 -0.375,0.375c-0.207,0 -0.375,-0.169 -0.375,-0.375Zm-5.75,-0.875c0.275,-0.275 0.725,-0.275 1,0c0.275,0.275 0.049,0.5 -0.5,0.5c-0.55,0 -0.775,-0.225 -0.5,-0.5Zm149.75,-0.625c-0,-0.206 0.168,-0.375 0.375,-0.375c0.206,0 0.375,0.169 0.375,0.375c-0,0.206 -0.169,0.375 -0.375,0.375c-0.207,0 -0.375,-0.169 -0.375,-0.375Zm2.25,0c-0,-0.206 0.168,-0.375 0.375,-0.375c0.206,0 0.375,0.169 0.375,0.375c-0,0.206 -0.169,0.375 -0.375,0.375c-0.207,0 -0.375,-0.169 -0.375,-0.375Zm-147,-2.625c-0,-0.55 0.225,-0.775 0.5,-0.5c0.275,0.275 0.275,0.725 -0,1c-0.275,0.275 -0.5,0.05 -0.5,-0.5Zm144.75,0.375c-0,-0.206 0.168,-0.375 0.375,-0.375c0.206,0 0.375,0.169 0.375,0.375c-0,0.206 -0.169,0.375 -0.375,0.375c-0.207,0 -0.375,-0.169 -0.375,-0.375Zm-146.25,-1.5c-0,-0.206 0.168,-0.375 0.375,-0.375c0.206,0 0.375,0.169 0.375,0.375c-0,0.206 -0.169,0.375 -0.375,0.375c-0.207,0 -0.375,-0.169 -0.375,-0.375Zm9.25,-0.125c0.274,-0.275 0.725,-0.275 1,0c0.275,0.275 0.049,0.5 -0.5,0.5c-0.55,0 -0.775,-0.225 -0.5,-0.5Zm-7.2,-1.843c0.508,-0.512 1.114,-0.743 1.344,-0.512c0.231,0.231 -0.185,0.65 -0.925,0.932c-1.069,0.407 -1.155,0.321 -0.419,-0.42Zm6.2,0.468c-0,-0.206 0.168,-0.375 0.375,-0.375c0.206,0 0.375,0.169 0.375,0.375c-0,0.206 -0.169,0.375 -0.375,0.375c-0.207,0 -0.375,-0.169 -0.375,-0.375Zm71.25,-1.125c-0,-0.55 0.225,-0.775 0.5,-0.5c0.275,0.275 0.275,0.725 -0,1c-0.275,0.275 -0.5,0.05 -0.5,-0.5Zm62.553,-0.116c-0.332,-0.536 -0.206,-0.662 0.331,-0.33c0.864,0.534 1.16,1.196 0.535,1.196c-0.182,0 -0.572,-0.389 -0.866,-0.866Zm-63.303,-1.759c-0,-0.206 0.168,-0.375 0.375,-0.375c0.206,0 0.375,0.169 0.375,0.375c-0,0.206 -0.169,0.375 -0.375,0.375c-0.207,0 -0.375,-0.169 -0.375,-0.375Zm61.5,0c-0,-0.206 0.168,-0.375 0.375,-0.375c0.206,0 0.375,0.169 0.375,0.375c-0,0.206 -0.169,0.375 -0.375,0.375c-0.207,0 -0.375,-0.169 -0.375,-0.375Zm-125.75,-1.625c0.275,-0.275 0.725,-0.275 1,0c0.275,0.275 0.049,0.5 -0.5,0.5c-0.55,0 -0.775,-0.225 -0.5,-0.5Zm4.625,-1c2.061,-0.886 3.246,-0.886 1.875,0c-0.619,0.4 -1.632,0.709 -2.25,0.686c-0.742,-0.027 -0.614,-0.261 0.375,-0.686Zm3.375,0.375c-0,-0.206 0.168,-0.375 0.375,-0.375c0.206,0 0.375,0.169 0.375,0.375c-0,0.206 -0.169,0.375 -0.375,0.375c-0.207,0 -0.375,-0.169 -0.375,-0.375Zm3,-0.75c-0,-0.206 0.168,-0.375 0.375,-0.375c0.206,0 0.375,0.169 0.375,0.375c-0,0.206 -0.169,0.375 -0.375,0.375c-0.207,0 -0.375,-0.169 -0.375,-0.375Zm-12.375,-1.125c0.254,-0.412 0.612,-0.75 0.794,-0.75c0.182,0 0.331,0.338 0.331,0.75c-0,0.413 -0.358,0.75 -0.795,0.75c-0.437,0 -0.585,-0.337 -0.33,-0.75Zm116.875,0.25c0.275,-0.275 0.725,-0.275 1,0c0.275,0.275 0.049,0.5 -0.5,0.5c-0.55,0 -0.775,-0.225 -0.5,-0.5Zm6,0c0.275,-0.275 0.725,-0.275 1,0c0.275,0.275 0.049,0.5 -0.5,0.5c-0.55,0 -0.775,-0.225 -0.5,-0.5Zm-116.5,-1c-0,-0.55 0.225,-0.775 0.5,-0.5c0.275,0.275 0.275,0.725 -0,1c-0.275,0.275 -0.5,0.05 -0.5,-0.5Zm114.75,0.125c-0,-0.481 -0.675,-0.875 -1.5,-0.875c-0.825,0 -1.5,-0.337 -1.5,-0.75c-0,-1.048 0.96,-0.935 2.668,0.314c0.8,0.585 1.202,1.316 0.893,1.625c-0.309,0.309 -0.561,0.167 -0.561,-0.314Zm-119,-0.625c0.275,-0.275 0.725,-0.275 1,0c0.275,0.275 0.049,0.5 -0.5,0.5c-0.55,0 -0.775,-0.225 -0.5,-0.5Zm113,0.125c-0,-0.206 0.168,-0.375 0.375,-0.375c0.206,0 0.375,0.169 0.375,0.375c-0,0.206 -0.169,0.375 -0.375,0.375c-0.207,0 -0.375,-0.169 -0.375,-0.375Zm-93.5,-1.625c0.275,-0.275 0.725,-0.275 1,0c0.275,0.275 0.049,0.5 -0.5,0.5c-0.55,0 -0.775,-0.225 -0.5,-0.5Zm36.75,0c0.275,-0.275 0.725,-0.275 1,0c0.275,0.275 0.049,0.5 -0.5,0.5c-0.55,0 -0.775,-0.225 -0.5,-0.5Zm-33.25,-1c-0,-0.412 0.357,-0.75 0.794,-0.75c0.437,0 0.586,0.338 0.331,0.75c-0.255,0.413 -0.613,0.75 -0.795,0.75c-0.182,0 -0.33,-0.337 -0.33,-0.75Zm-6,-0.375c-0,-0.206 0.168,-0.375 0.375,-0.375c0.206,0 0.375,0.169 0.375,0.375c-0,0.206 -0.169,0.375 -0.375,0.375c-0.207,0 -0.375,-0.169 -0.375,-0.375Zm41.25,0c-0,-0.206 0.168,-0.375 0.375,-0.375c0.206,0 0.375,0.169 0.375,0.375c-0,0.206 -0.169,0.375 -0.375,0.375c-0.207,0 -0.375,-0.169 -0.375,-0.375Zm56.25,-0.375c-0,-0.55 0.225,-0.775 0.5,-0.5c0.275,0.275 0.275,0.725 -0,1c-0.275,0.275 -0.5,0.05 -0.5,-0.5Zm-95.391,-0.512c0.541,-0.217 1.188,-0.19 1.437,0.059c0.25,0.249 -0.193,0.427 -0.984,0.394c-0.874,-0.036 -1.051,-0.214 -0.453,-0.453l-0,-0Zm6.891,0.137c-0,-0.206 0.168,-0.375 0.375,-0.375c0.206,0 0.375,0.169 0.375,0.375c-0,0.206 -0.169,0.375 -0.375,0.375c-0.207,0 -0.375,-0.169 -0.375,-0.375Zm25.75,-0.125c0.275,-0.275 0.725,-0.275 1,0c0.275,0.275 0.049,0.5 -0.5,0.5c-0.55,0 -0.775,-0.225 -0.5,-0.5Zm4.109,-0.012c0.541,-0.217 1.188,-0.19 1.437,0.059c0.25,0.249 -0.193,0.426 -0.984,0.394c-0.874,-0.036 -1.051,-0.214 -0.453,-0.453l-0,-0Zm-46.078,-1.798c1.09,-0.858 2.402,-1.391 2.913,-1.184c0.701,0.283 0.686,0.39 -0.06,0.435c-0.545,0.033 -1.498,0.565 -2.117,1.184c-0.618,0.619 -1.483,1.125 -1.922,1.125c-0.439,0 0.095,-0.702 1.186,-1.56l-0,0Zm6.469,1.185c-0,-0.206 0.168,-0.375 0.375,-0.375c0.206,0 0.375,0.169 0.375,0.375c-0,0.206 -0.169,0.375 -0.375,0.375c-0.207,0 -0.375,-0.169 -0.375,-0.375Zm90.75,0c-0,-0.206 0.168,-0.375 0.375,-0.375c0.206,0 0.375,0.169 0.375,0.375c-0,0.206 -0.169,0.375 -0.375,0.375c-0.207,0 -0.375,-0.169 -0.375,-0.375Zm6,0c-0,-0.206 0.168,-0.375 0.375,-0.375c0.206,0 0.375,0.169 0.375,0.375c-0,0.206 -0.169,0.375 -0.375,0.375c-0.207,0 -0.375,-0.169 -0.375,-0.375Zm-4.5,-1.875c-0,-0.412 0.337,-0.75 0.75,-0.75c0.412,0 0.75,0.338 0.75,0.75c-0,0.413 -0.338,0.75 -0.75,0.75c-0.413,0 -0.75,-0.337 -0.75,-0.75Zm-92.25,-1.5c-0,-0.55 0.225,-0.775 0.5,-0.5c0.275,0.275 0.275,0.725 -0,1c-0.275,0.275 -0.5,0.05 -0.5,-0.5Zm4.5,-2.625c-0,-0.206 0.168,-0.375 0.375,-0.375c0.206,0 0.375,0.169 0.375,0.375c-0,0.206 -0.169,0.375 -0.375,0.375c-0.207,0 -0.375,-0.169 -0.375,-0.375Zm10.75,-0.125c0.275,-0.275 0.725,-0.275 1,0c0.275,0.275 0.049,0.5 -0.5,0.5c-0.55,0 -0.775,-0.225 -0.5,-0.5Zm68.021,-0.051c-1.02,-0.191 -2.529,-0.82 -3.355,-1.398c-0.825,-0.578 -2.184,-1.062 -3.021,-1.075c-0.836,-0.013 -2.176,-0.519 -2.976,-1.125c-0.801,-0.605 -1.074,-1.101 -0.607,-1.101c0.467,0 1.03,0.293 1.252,0.652c0.221,0.358 1.675,0.868 3.231,1.133c1.556,0.265 4.18,1.126 5.83,1.913c3.042,1.451 2.98,1.625 -0.354,1.001Zm-77.271,-0.574c-0,-0.206 0.168,-0.375 0.375,-0.375c0.206,0 0.375,0.169 0.375,0.375c-0,0.206 -0.169,0.375 -0.375,0.375c-0.207,0 -0.375,-0.169 -0.375,-0.375Zm3.423,-0.296c-0.541,-0.876 1.536,-1.754 4.821,-2.04c1.87,-0.162 2.299,-0.025 1.5,0.481c-0.616,0.389 -1.879,0.712 -2.807,0.719c-0.928,0.006 -1.687,0.349 -1.687,0.761c-0,0.932 -1.266,0.986 -1.827,0.079l0,-0Zm8.202,-0.079c0.254,-0.412 0.612,-0.75 0.794,-0.75c0.182,0 0.331,0.338 0.331,0.75c-0,0.413 -0.358,0.75 -0.795,0.75c-0.437,0 -0.585,-0.337 -0.33,-0.75Zm59.484,0.238c0.541,-0.217 1.188,-0.19 1.437,0.059c0.25,0.249 -0.193,0.427 -0.984,0.394c-0.874,-0.036 -1.051,-0.214 -0.453,-0.453l-0,-0Zm-42,-5.25c0.541,-0.217 1.188,-0.19 1.437,0.059c0.25,0.249 -0.193,0.427 -0.984,0.394c-0.874,-0.036 -1.051,-0.214 -0.453,-0.453Zm6.391,0.012c0.275,-0.275 0.725,-0.275 1,0c0.275,0.275 0.05,0.5 -0.5,0.5c-0.55,0 -0.775,-0.225 -0.5,-0.5Zm7.5,0c0.275,-0.275 0.725,-0.275 1,0c0.275,0.275 0.049,0.5 -0.5,0.5c-0.55,0 -0.775,-0.225 -0.5,-0.5Zm6,0c0.275,-0.275 0.725,-0.275 1,0c0.275,0.275 0.05,0.5 -0.5,0.5c-0.55,0 -0.775,-0.225 -0.5,-0.5Zm4.625,-1c-1.912,-0.821 0.06,-0.821 2.625,0c1.507,0.483 1.58,0.605 0.375,0.623c-0.825,0.012 -2.175,-0.268 -3,-0.623Zm-26.813,-0.542c1.341,-0.167 3.534,-0.167 4.875,-0c1.341,0.166 0.244,0.302 -2.437,0.302c-2.682,0 -3.779,-0.136 -2.438,-0.302Zm17.25,0.013c0.928,-0.179 2.447,-0.179 3.375,0c0.928,0.179 0.169,0.325 -1.687,0.325c-1.857,0 -2.616,-0.146 -1.688,-0.325Zm-375.181,124.092c0.026,-26.405 42.821,-44.536 66.847,-28.322c4.293,2.898 4.022,3.102 4.022,-3.015c-0,-19.267 -26.665,-30.667 -48.75,-20.843c-7.406,3.294 -9.93,4.787 -14.492,8.573c-17.443,14.479 -22.552,36.887 -10.869,47.673c1.711,1.579 3.138,2.871 3.173,2.871c0.034,0 0.066,-3.122 0.07,-6.937l-0.001,-0Zm234.854,-19.835c1.589,-1.937 4.013,-4.792 5.387,-6.345c1.737,-1.963 2.357,-3.267 2.035,-4.282c-0.889,-2.799 7.445,-6.757 22.316,-10.597c31.348,-8.095 64.464,-5.164 94.079,8.327c10.01,4.56 17.287,-8.346 7.502,-13.305c-14.099,-7.145 -29.488,-11.309 -44.429,-12.022c-10.679,-0.511 -10.875,-0.651 -10.875,-7.807c-0,-5.841 -1.479,-6.255 -18.26,-5.109c-11.724,0.801 -11.45,0.68 -12.065,5.313c-0.877,6.614 -0.852,6.597 -10.014,6.612c-16.75,0.027 -24.987,2.86 -31.276,10.757c-9.29,11.663 -12.269,21.137 -9.312,29.618c1.081,3.102 1.494,3.005 4.912,-1.16Zm-133.61,-37.337c49.08,-31.363 109.023,-45.536 168.363,-39.809c10.864,1.048 10.864,1.048 15.75,-2.447c2.688,-1.923 7.542,-5.227 10.787,-7.342c6.997,-4.561 7.279,-4.265 -5.91,-6.202c-30.011,-4.408 -67.174,-4.271 -94.74,0.349c-19.349,3.243 -38.575,8.154 -51.125,13.06c-2.269,0.887 -4.969,1.895 -6,2.24c-14.004,4.686 -54.412,27.095 -62.672,34.756c-0.522,0.484 -3.163,2.567 -5.871,4.629c-4.379,3.335 -6.142,5.625 -4.332,5.625c1.24,0 6.342,5.709 8.506,9.519c2.213,3.894 2.213,3.894 12.478,-3.804c5.646,-4.234 12.291,-8.992 14.766,-10.574Zm284.336,12.547c0.624,-1.547 1.807,-4.285 2.63,-6.085c6.001,-13.128 -50.021,-43.376 -64.157,-34.64c-4.186,2.588 -7.184,10.484 -7.184,18.925c-0,2.862 -0,2.862 3.562,2.866c9.357,0.009 25.548,3.311 37.688,7.685c8.438,3.041 23.693,11.404 24.625,13.499c0.585,1.317 1.779,0.37 2.836,-2.25Zm1.039,-8.813c-0,-0.206 0.168,-0.375 0.375,-0.375c0.206,0 0.375,0.169 0.375,0.375c-0,0.206 -0.169,0.375 -0.375,0.375c-0.207,0 -0.375,-0.169 -0.375,-0.375Zm-61.5,-27c-0,-0.206 0.168,-0.375 0.375,-0.375c0.206,0 0.375,0.169 0.375,0.375c-0,0.206 -0.169,0.375 -0.375,0.375c-0.207,0 -0.375,-0.169 -0.375,-0.375Zm-86.685,23.206c8.364,-3.864 18.835,-6.372 28.665,-6.864c9.532,-0.478 9.244,-0.133 9.261,-11.104c0.023,-14.285 -9.23,-15.781 -30.334,-4.904c-8.61,4.438 -11.05,6.179 -17.378,12.399c-9.235,9.076 -9.726,22.962 -0.582,16.437c2.567,-1.831 7.233,-4.515 10.368,-5.964Zm74.685,-52.456c-0,-0.206 -0.169,-0.375 -0.375,-0.375c-0.207,0 -0.375,0.169 -0.375,0.375c-0,0.206 0.168,0.375 0.375,0.375c0.206,0 0.375,-0.169 0.375,-0.375Zm512.147,752.243c-28.911,-5.759 -53.596,-29.059 -57.998,-54.743c-1.02,-5.953 -0.222,-5.613 -9.662,-4.109c-14.868,2.37 -35.245,-3.062 -44.629,-11.896c-3.165,-2.98 -2.897,-3.018 -7.291,1.042c-15.641,14.453 -43.378,14.04 -61.385,-0.914c-2.083,-1.729 -3.844,-3.083 -3.914,-3.008c-0.186,0.197 -0.867,6.736 -1.42,13.635c-1.15,14.354 -8.64,20.591 -26.612,22.162c-21.083,1.842 -35.302,-2.186 -47.314,-13.404c-5.584,-5.215 -5.584,-5.215 -11.191,-4.069c-47.769,9.77 -108.67,-19.773 -122.526,-59.439c-17.721,-50.729 15.859,-136.174 66.352,-168.839c62.037,-40.131 147.941,18.25 124.753,84.782c-2.299,6.596 -2.468,6.046 2.176,7.086c2.192,0.49 5.636,1.77 7.654,2.844c2.409,1.283 3.766,1.656 3.955,1.089c2.497,-7.489 15.868,-19.82 23.549,-21.718c13.286,-3.281 38.555,2.442 47.848,10.839c2.925,2.642 2.925,2.642 4.868,-0.435c15.657,-24.803 64.473,-21.646 73.433,4.748c0.377,1.113 1.206,0.277 4.092,-4.125c13.946,-21.275 49.527,-24.439 68.94,-6.131c3.211,3.029 2.587,3.156 5.307,-1.077c10.685,-16.634 38.653,-21.668 59.198,-10.655c5.456,2.925 5.456,2.925 9.375,0.424c28.787,-18.373 71.108,-10.335 92.365,17.543c11.266,14.776 11.726,38.942 1.009,53.101c-3.345,4.418 -3.646,5.12 -2.79,6.489c25.987,41.575 -26.761,95.297 -77.095,78.516c-5.931,-1.977 -16.549,-7.239 -18.757,-9.296c-0.928,-0.864 -1.687,-1.381 -1.687,-1.148c-0,4.726 -3.543,17.008 -8.066,27.963c-12.173,29.485 -56.442,49.933 -92.537,42.743Zm26.111,-5.658c42.932,-5.785 66.629,-32.571 68.469,-77.395c0.014,-0.308 3.028,1.722 6.7,4.51c48.693,36.968 122.834,-10.604 90.388,-57.997c-3.409,-4.979 -3.409,-4.979 -0.395,-7.559c15.501,-13.268 14.294,-41.942 -2.397,-56.957c-23.944,-21.541 -55.391,-24.141 -82.273,-6.805c-4.125,2.661 -4.125,2.661 -6.375,0.49c-8.79,-8.478 -37.269,-10.38 -47.724,-3.187c-6.511,4.48 -11.822,12.921 -14.822,23.559c-1.338,4.745 -1.338,4.745 -1.863,0.626c-1.824,-14.303 -17.198,-23.394 -39.841,-23.559c-22.073,-0.162 -40.271,29.494 -43.008,70.083c-0.647,9.591 -1.676,12.108 -8.818,21.571c-6.547,8.675 -1.984,-20.19 9.088,-57.487c6.448,-21.719 -4.759,-33.125 -32.516,-33.094c-12.996,0.014 -20.22,2.849 -25.843,10.14c-3.272,4.242 -3.47,4.658 -7.264,15.259c-2.785,7.784 -2.785,7.784 -3.292,3.375c-1.712,-14.888 -21.981,-25.993 -43.826,-24.011c-7.073,0.642 -21.146,10.582 -21.146,14.936c-0,0.331 -0.632,1.517 -1.405,2.635c-0.772,1.118 -2.302,3.63 -3.399,5.582c-1.995,3.55 -1.995,3.55 -5.135,1.275c-5.415,-3.923 -10.999,-5.872 -20.308,-7.087c-2.364,-0.308 -3.49,-0.779 -3.241,-1.355c7.267,-16.831 8.966,-23.334 9.047,-34.633c0.302,-42.134 -55.009,-78.27 -99.113,-64.754c-16.194,4.963 -39.746,22.671 -50.058,37.637c-1.466,2.127 -4.015,5.723 -5.664,7.992c-28.832,39.659 -40.465,98.886 -25.557,130.125c17.046,35.721 75.307,60.316 116.708,49.268c6,-1.601 6,-1.601 7.5,0.392c10.698,14.214 24.479,19.29 47.321,17.428c14.077,-1.147 20.032,-4.823 20.831,-12.859c0.218,-2.188 0.982,-10.138 1.7,-17.666c1.394,-14.624 1.551,-15.062 3.98,-11.131c14.609,23.637 48.521,27.439 67.722,7.591c3.886,-4.017 3.886,-4.017 8.247,0.02c14.843,13.742 38.6,18.081 54.881,10.025c2.438,-1.206 4.51,-2.193 4.604,-2.193c0.095,-0 -0.008,2.828 -0.22,6.285c-2.114,33.89 38.321,64.313 78.317,58.924l-0,0.001Zm-21.633,-13.885c-24.231,-4.384 -44.653,-25.402 -43.226,-44.489c1.399,-18.732 22.356,-17.293 26.047,1.789c6.204,32.064 35.964,26.089 45.472,-9.129c0.649,-2.404 1.656,-6.058 2.238,-8.121c0.582,-2.062 2.406,-10.331 4.053,-18.375c1.648,-8.044 3.343,-15.804 3.768,-17.245c2.93,-9.937 -1.323,-10.077 -6.506,-0.214c-14.525,27.637 -24.687,34.434 -43.003,28.764c-9.877,-3.057 -18.365,-10.962 -22.406,-20.867c-1.282,-3.142 -3.865,-3.323 -5.344,-0.375c-18.547,36.948 -70.653,40.41 -74.685,4.962c-1.179,-10.359 -3.519,-10.679 -8.855,-1.21c-27.409,48.637 -73.478,23.314 -66.431,-36.514c2.575,-21.86 16.661,-49.904 25.326,-50.424c7.292,-0.437 12.564,0.552 21.317,4.003c11.256,4.437 11.414,7.114 2.4,40.695c-9.841,36.664 -6.971,52.768 6.757,37.915c5.877,-6.359 19.308,-38.155 24.496,-57.991c6.682,-25.55 11.558,-30.602 28.45,-29.475c19.16,1.278 20.397,4.177 12.455,29.181c-1.1,3.463 -1.652,5.653 -4.862,19.295c-11.876,50.473 8.212,65.91 31.231,24c2.039,-3.712 2.315,-5.025 2.764,-13.125c1.296,-23.411 13.241,-54.487 22.861,-59.478c6.553,-3.399 30.405,2.207 32.926,7.739c1.754,3.85 0.946,9.948 -3.959,29.849c-9.391,38.106 -10.101,47.372 -3.756,48.964c8.782,2.204 21.332,-21.956 33.738,-64.949c7.333,-25.416 10.574,-28.629 27.734,-27.498c18.652,1.229 20.702,4.917 14.326,25.771c-1.922,6.287 -4.908,19.597 -6.949,30.977c-0.85,4.74 -1.291,15.514 -1.719,42c-0.652,40.334 -0.446,38.886 -7.632,53.572c-10.436,21.329 -41.747,34.939 -69.026,30.003l0,0Zm-114.625,-121.45c-0,-0.206 -0.169,-0.375 -0.375,-0.375c-0.207,0 -0.375,0.169 -0.375,0.375c-0,0.206 0.168,0.375 0.375,0.375c0.206,0 0.375,-0.169 0.375,-0.375Zm90.75,-42c-0,-0.206 -0.169,-0.375 -0.375,-0.375c-0.207,0 -0.375,0.169 -0.375,0.375c-0,0.207 0.168,0.375 0.375,0.375c0.206,0 0.375,-0.169 0.375,-0.375Zm-114,-0.75c-0,-0.206 -0.169,-0.375 -0.375,-0.375c-0.207,0 -0.375,0.169 -0.375,0.375c-0,0.206 0.168,0.375 0.375,0.375c0.206,0 0.375,-0.169 0.375,-0.375Zm136.073,126.743c-0.605,-1.448 -1.559,-4.738 -2.12,-7.312c-0.561,-2.575 -1.248,-5.224 -1.526,-5.887c-0.436,-1.04 0.406,-1.261 6.096,-1.602c4.19,-0.251 8.075,-0.985 10.637,-2.009c5.074,-2.028 4.995,-2.208 2.028,4.617c-5.448,12.532 -12.572,18.279 -15.115,12.193Zm-236.658,-1.456c-9.15,-2.523 -15.123,-7.599 -17.886,-15.201c-2.351,-6.469 -2.876,-6.788 -8.528,-5.18c-12.327,3.507 -15.865,4.244 -23.627,4.926c-51.98,4.561 -94.988,-28.356 -94.997,-72.707c-0,-12.984 1.733,-23.592 6.26,-38.25c7.082,-22.932 20.858,-48.621 32.662,-60.905c1.073,-1.116 1.951,-2.351 1.951,-2.743c-0,-0.393 2.784,-3.299 6.187,-6.459c25.098,-23.3 50.138,-27.964 77.813,-14.494c3.506,1.707 6.543,3.3 6.75,3.542c0.206,0.241 2.395,1.76 4.865,3.375c24.598,16.084 30.768,40.605 16.867,67.041c-6.234,11.856 -9.983,14.626 -17.407,12.859c-3.976,-0.947 -14.807,-5.541 -15.551,-6.596c-0.22,-0.312 -1.492,-1.33 -2.827,-2.262c-4.614,-3.223 -4.434,-6.572 1.334,-24.869c12.768,-40.499 -37.247,-6.551 -53.056,36.011c-17.66,47.548 -9.121,74.251 24.15,75.52c12.566,0.479 33.598,-4.653 36.972,-9.021c1.743,-2.258 5.273,-26.277 3.979,-27.077c-3.51,-2.169 -23.865,2.203 -25.948,5.573c-1.461,2.364 -4.873,-2.622 -4.871,-7.12c0.008,-19.563 44.553,-37.76 73.351,-29.965c10.89,2.948 14.565,10.259 12.125,24.122c-7.117,40.446 -10.664,63.787 -11.599,76.343c-0.991,13.317 -0.846,12.874 -4.527,13.801c-4.369,1.1 -20.112,0.93 -24.442,-0.264l-0,-0Zm-109.415,-180.037c-0,-0.206 -0.169,-0.375 -0.375,-0.375c-0.207,0 -0.375,0.169 -0.375,0.375c-0,0.207 0.168,0.375 0.375,0.375c0.206,0 0.375,-0.169 0.375,-0.375Zm475.875,160.398c-32.639,-5.014 -60.832,-55.134 -36.689,-65.222c13.223,-5.525 25.079,3.918 19.347,15.408c-1.483,2.972 -0.946,8.51 1.092,11.261c6.646,8.972 24.817,5.462 29.045,-5.61c2.935,-7.686 0.321,-10.669 -15.795,-18.026c-30.144,-13.76 -37.951,-42.492 -15.375,-56.585c2.268,-1.416 4.293,-2.768 4.5,-3.004c4.09,-4.681 24.264,-7.44 36,-4.923c28.306,6.07 44.878,35.868 28.127,50.575c-8.076,7.091 -20.144,3.044 -15.814,-5.304c5.287,-10.189 -5.93,-17.426 -14.197,-9.16c-6.851,6.852 -4.549,16.596 5.257,22.248c12.365,7.127 14.468,8.56 18.504,12.614c12.658,12.709 11.012,29.42 -4.476,45.454c-7.69,7.961 -25.109,12.489 -39.526,10.274Zm40.875,-116.898c-0,-0.206 -0.169,-0.375 -0.375,-0.375c-0.207,0 -0.375,0.169 -0.375,0.375c-0,0.206 0.168,0.375 0.375,0.375c0.206,0 0.375,-0.169 0.375,-0.375Zm-468.936,76.862c-22.815,-5.781 -14.018,-58.567 14.864,-89.183c5.95,-6.307 5.777,-6.321 4.035,0.321c-3.332,12.704 -0.297,21.537 9.741,28.349c1.007,0.683 1.682,1.355 1.5,1.493c-0.181,0.139 -2.965,1.871 -6.187,3.849c-13.101,8.044 -20.065,17.701 -20.639,28.618c-0.905,17.217 14.443,30.189 25.349,21.424c3.418,-2.747 3.773,-2.837 3.773,-0.96c-0,1.43 -2.126,2.48 -10.125,5.005c-4.475,1.413 -18.352,2.087 -22.311,1.084Zm0.032,-11.191c-7.501,-15.629 -1.807,-33.522 14.471,-45.47c4.27,-3.135 4.322,-3.337 1.73,-6.736c-1.074,-1.408 -2.715,-4.435 -3.647,-6.727c-1.665,-4.098 -1.711,-4.138 -2.798,-2.452c-15.418,23.932 -21.317,58.768 -11.013,65.034c3.476,2.114 3.705,1.451 1.257,-3.649Zm423.903,4.454c0,-0.412 0.338,-0.75 0.751,-0.75c0.412,0 0.749,0.338 0.749,0.75c0,0.413 -0.337,0.75 -0.749,0.75c-0.413,0 -0.751,-0.337 -0.751,-0.75Z" style="fill-rule:nonzero;"/></g></svg>
