<svg data-name="Layer 1" xmlns="http://www.w3.org/2000/svg" viewBox="0 0 924.31 576.5" width="924" height="576"><title>A Beautiful Lady &amp; a Salty Pirate</title><g data-name="8PznGa"><path d="M609.25,248.49a12,12,0,0,1,6.36-3.9c2.58-.65,3.78-2.86,4.82-5.11a10.38,10.38,0,0,1,1.45-2.88,15.89,15.89,0,0,1,9.69-5.28,35.45,35.45,0,0,1,5-.64c3.41.07,6.82.37,10.21.68a6.39,6.39,0,0,1,2.81.79c2.51,1.62,5.46,2,8.16,3.14,2.12.87,3.21.34,4.24-1.76.82-1.65,2.28-2.89,2.66-4.86.32-1.69,1.69-3.09,1.35-5s.59-3.51.79-5.3a31.85,31.85,0,0,1,4.63-13.1c.47-.74,1-1.44,1.47-2.19.17-.27.1-.84.28-.91,2.59-1,3-4.41,5.83-5.22.49-.15.84-.79,1.25-1.2a72.24,72.24,0,0,1,10-8c2.74-2,5.23-4.28,7.87-6.39,1.92-1.53,3.85-3.05,5.86-4.45,3.52-2.45,7.1-4.81,10.67-7.19,1.18-.78,2.42-1.49,3.63-2.23,3.62-2.23,7.26-4.44,10.88-6.69,4.43-2.76,9.12-5.07,13.58-7.82,4.31-2.66,9-4.73,13.5-7.07a59,59,0,0,0,5.42-3c1.74-1.15,3.8-1.65,5.4-3.13,1-.9,2.51-1.18,3.77-1.79,2.64-1.27,5.1-2.84,7.77-4.06s5.17-2.74,7.73-4.17c1.14-.64,2.18-1.48,3.34-2.08a62.43,62.43,0,0,0,9.36-5.28c4.63-1.19,8.32-4.6,13.22-5.36,2-.31,3.85-1.7,6.1-1.16l.88,1.71a17.24,17.24,0,0,1-5.45,5.83,5.27,5.27,0,0,1-3.34.58c-3.9,3.76-7.86,7.46-11.67,11.3-3.15,3.19-6.11,6.57-9.18,9.84a44.93,44.93,0,0,1-6.31,5c-1.81,1.33-3.2,3.22-5.18,4.42-.94.57-1.55,1.53-2.65,2-.88.42-1.36,1.7-2,2.59-2.6,3.45-4.84,7.16-7.6,10.53-1.42,1.75-2.44,3.88-3.72,5.8a20.92,20.92,0,0,1-5.68,5.65c-3,2.06-5.7,4.43-8.52,6.64a28.07,28.07,0,0,0,0,4c.33,2.12-.8,3.63-1.87,5.19s-2.33,3.24-3.44,4.89a2.77,2.77,0,0,0-.32,1.26,13.59,13.59,0,0,1-3.88,8.56,45.32,45.32,0,0,0-3.24,4.19c3.18-.47,5.94,1,9,.69,1.74-.15,3.37.78,4.95,1.51s1.87,2.4,2.1,3.63c.31,1.67,1.29,2,2.47,2.5a21.59,21.59,0,0,1,2.14.74,2.93,2.93,0,0,1,1.18,1.16,6.77,6.77,0,0,1,.69,2.15c0,.36-.3.79-.6,1.5.57.51,1.37,1.14,2.08,1.87a5.1,5.1,0,0,0,3.39,2,13.48,13.48,0,0,1,1.58.39,60.54,60.54,0,0,0,20.41-.06,14.43,14.43,0,0,0,4.7-1.3,34.51,34.51,0,0,1,5.72-2.25,30.45,30.45,0,0,0,6.84-3.74,71.39,71.39,0,0,0,8.86-6.59c3.47-3.1,7-6.15,10.57-9.15a55.27,55.27,0,0,1,7.68-5.84c1.63-.94,2.79-2.58,4.39-3.73s3.46-2.41,5.17-3.63q3.8-2.72,7.55-5.45a62.36,62.36,0,0,1,5.64-4.15c2.07-1.19,3.65-2.94,5.54-4.32,2.38-1.74,4.42-4,6.7-5.85a10,10,0,0,1,3.38-1.95c1.14-.34,2.57-.43,3.29,1.53-1.33,1.33-2.73,2.86-4.26,4.23s-3,2.8-4.54,4.1a17.79,17.79,0,0,0-5.3,6.83c-1.2,3-3.35,5.37-5,8-.62,1-2.16,1.39-3.39,2.13a12.81,12.81,0,0,1,0,2.31c-.34,1.93-1.12,3.79-2.88,4.71s-2.94,2.49-4.37,3.78a5.63,5.63,0,0,0-1.88,4.13,7.23,7.23,0,0,1-1.56,4.26c-1.57,1.93-2.54,4.35-4.91,5.63-.41.22-.41,1.17-.63,1.89,2.25.35,3.73,1.09,3.75,3.65a7.7,7.7,0,0,1,0,2.95c-.6,1.83.23,2.69,2.3,2.73,2.44,0,3.92,1.29,5,3.52,1.15,0,2.41,0,3.68,0a34.77,34.77,0,0,1,8.22,1.23,50.46,50.46,0,0,1,7,1.63c2.34.89,4.74,1.54,7.13,2.22,1.36.39,2.68.89,4.05,1.2s2.83.51,4.26.72c2,.28,4.07.63,5.39,2.09,1.57,1.75,3.65,1.89,5.48,2,4.56.3,9.09,1.23,13.7.85a12.38,12.38,0,0,1,3.21.65c1,.19,2.11-.44,2.89.64a.42.42,0,0,0,.32.06c3.46-.6,6.63.84,9.92,1.43a40.17,40.17,0,0,1,5,1.39c1.2.38,1.42,1.35,1.2,2.5a26.36,26.36,0,0,1-13.41,3.1c-2.57-.07-5.14-.1-7.7,0-2.83.13-5.64.54-8.47.65s-5.93-.44-8.73.14c-4.24.87-8.53,0-12.66.7a68.44,68.44,0,0,1-10.58.57c-3.62.08-7.24.09-10.85,0-3.3-.09-6.52-.93-9.87-.73s-6.85.53-10.12-.09c-3.45-.64-6.83-.35-10.24-.57-2.51-.16-4.85,1-7.42.76a56.38,56.38,0,0,0-7.69,0,20.11,20.11,0,0,0-3.21.66c-1.19.25-2.37.48-3.56.7s-2.12-.12-3.29.58c-1,.59-2.56.5-3.85.69a9.07,9.07,0,0,0-4.25,1.61c-2.86,2.22-6.27,2.93-9.5,4.18-2.11.81-4.34,1.56-6,3.31a10.24,10.24,0,0,0-.87,1.44c5.89-.18,9.36,3.1,12.26,8,0,.45,0,1.49,0,2.53.09,2.3,1.07,3.56,3.42,4.3a6.84,6.84,0,0,1,3.52,2.46,10.4,10.4,0,0,1,1.41,2.9,3.28,3.28,0,0,1-.27,1.61c-.54,2.12-.84,4,.85,6a6.41,6.41,0,0,1,1.59,5.26c-.22,1.18.44,1.86,1.67,2.08,1.71.32,3.21,1.22,5,1.57,2.1.41,3.84,2.32,4.81,4.14s2.7,2.59,4.07,3.81a17.89,17.89,0,0,0,4.11,2.72c2,1,4.22,1.65,6.34,2.44.2.08.51-.07.69,0a24.71,24.71,0,0,0,6,2.39c2,.49,3.84,1.95,5.81,2.85a46.63,46.63,0,0,1,7.76,4.13,25.08,25.08,0,0,1,5.71,5.38,14.38,14.38,0,0,0,3.33,3c2.3,1.72,4.86,3,7.07,4.94a23.14,23.14,0,0,0,5.38,3c2.17,1,4.16,2.31,6.32,3.32,1.13.53,2.22,1.33,3.42,1.89,4.06,1.91,7.24,4.95,10.24,8.19a11.81,11.81,0,0,1,1.34,2.51c-2.48.82-4.57.08-6.68-.89-3.14-1.43-6.15-3.19-9.56-4a19.33,19.33,0,0,0-2.84-.71c-2.23-.17-4.1-1.42-6.24-1.93s-4.37-.53-6.16-2c-3.42.12-6.26-2-9.45-2.48-3.63-.5-6.88-2.4-10.58-2.44-.41,0-1-.12-1.2-.4-1-1.64-3.08-.5-4.23-1.68-5.16-.47-10-2.31-15-3.61a25.45,25.45,0,0,0-2.54-.62c-.85-.13-1.67-.48-2.51-.67a14.29,14.29,0,0,1-3.53-.77c-1.31-.67-2.68-.34-3.92-.71s-2.56-1.25-4-1.3-2.48-1.22-3.91-.73c-2.39-1.18-5.33-.28-7.57-2-4.18.19-7.84-2.14-12-2.34a51,51,0,0,1-9.9-1.34c-1.93-.49-3.93-.1-5.65-.7-1.94-.68-3.81-.42-5.7-.62a22.7,22.7,0,0,1-2.51-.67c-.86-.19-1.86.37-2.6-.5a.85.85,0,0,0-.61-.2,51.28,51.28,0,0,1-8.12-.62,46.14,46.14,0,0,1-7.53-1.29,37.38,37.38,0,0,0-5.6-.88,52.46,52.46,0,0,1-9.73-2.73,24.6,24.6,0,0,1-2.52-1.5c-3.12-2.06-6.73-2.93-10.18-4.16-6.49-2.3-10-4-15.44-8.4-2.54-2.05-5.35-3.77-7.56-6.22a5.86,5.86,0,0,1-1.25-2.29,9.66,9.66,0,0,0-7.3-6.92c-.22-.05-.52.07-.68,0-4.14-2.86-9.15-3.84-13.54-6.21-3.94-2.13-7.74-4.34-10.85-7.62-1.15-1.23-2.19-2.62-3.88-3.27a2.23,2.23,0,0,1-1.21-1.22c-.49-1.53-1.72-2.42-2.79-3.39-3-2.68-5-6-7.28-9.24-1.47-2.1-3.06-4.11-4.58-6.16a91.06,91.06,0,0,1-5.83-8.1,9.75,9.75,0,0,0-3.79-3.6c-1.4-.82-3-1.39-4.27-2.31A9.54,9.54,0,0,1,609.25,248.49Z"/><path d="M269.65,257.08l3.12,1.78c1-1.06,2-2.05,2.88-3.09a2.42,2.42,0,0,1,2.83-.48c.75.25,1,1.06,1,2-.1,2,0,4,0,5.95,0,.46.17,1.08-.06,1.36-1.78,2.16-.08,4,.49,5.94a23.51,23.51,0,0,0,2.18,4.34,10.14,10.14,0,0,1,1.61,6.34,2.42,2.42,0,0,0,.83,2.48,2.76,2.76,0,0,1,1,1.66,7.16,7.16,0,0,1,0,3.26c-.42,1.2-1.75.76-2.84.83-1.57-1.82-3.69-3.22-4.62-5.72-.24-.64-1.55-1-2.43-1.25s-1.43.53-1.68,1.33c-.54,1.79-2.22,3-2.48,4.93-.16,1.24-1.32,1.55-2.35,2.08-3-.45-3.49-3.19-4.2-5.47a32,32,0,0,1-.74-6c-1.58-1.37-2.89-.77-4.23.58.45,3.6-1.14,6.44-3.88,8.78h-2.5c-1.64-2-3.53-3.75-4.6-5.89-.78-1.57-2.06-1.78-3.1-2.56-1.47.89-2.44,2-2,3.7.38,1.56-.62,2.46-1.62,3.15-1.33.92-2.95,1.41-4.26,2.35a3.6,3.6,0,0,1-4.64-.11c-1.2-1-2.45-2.25-2.1-4.17a5.87,5.87,0,0,0-1-4.16c-2.31,0-4.64,0-7,0s-5.69-2.46-5.91-4.66c-.15-1.46-.52-2.83-.76-4.25a4.43,4.43,0,0,1,1.32-4,2.65,2.65,0,0,1,2.36-1.11,23.08,23.08,0,0,0,3,0c1.51-2.18,1.51-2.18.77-4.2-2.71,0-5.49-.08-8.26,0-3.85.14-7.41-1.12-11-2.13a2.52,2.52,0,0,1-1.1-.68c-.81-.87-1.57-1.62-2.94-1.46-.43.06-1-.43-1.4-.77a20.28,20.28,0,0,0-10.91-4.12,9.6,9.6,0,0,0-8.46,3.35,14.76,14.76,0,0,1-3.18,1.95c-1.39-1.35-2.57-2.59-3.85-3.73a9.89,9.89,0,0,0-2.95-2.14c-.82-.29-1.7-1.41-3-.18-.6.57-2.21.09-3.27.09a23.68,23.68,0,0,0-3.35-3.25c-1-.68-2.5-1.67-3.71-.77s-3.16,1.57-3,3.5c.18,3-1.45,5.34-2.95,7.53-1,1.51-3.05,2.35-4.62,3.5-2.79-.31-4.37,1.88-6.41,3-.34,4.09-.66,8.06-1,12.32l-1.63,1.51c-1.59,0-3.34-.06-5.08,0a5.09,5.09,0,0,1-4.3-1.83c.41-1.28-.41-2.7.64-4.19.76-1.08-.58-3,.8-4.19,0-3.61.71-4.82-3.8-4.52-.35,0-.81-.14-1,0-2.49,1.82-4.2-.07-5.87-1.36s-2.95-3-5.1-3.77c-1-.36-1.71-1.76-2.23-2.84a5.71,5.71,0,0,0-4.14-3.49,2.54,2.54,0,0,1-2-1.83c-.26-1-1.22-1.82-1.9-2.7a1.67,1.67,0,0,1,.28-2.63,5,5,0,0,1,.92-.31c2.67-1.16,5.29-2.45,8-3.46,2.23-.83,4.42-1.71,6.61-2.64,5.74-2.46,11.33-5.32,17.31-7.21.62-.19,1.46-.33,1.75-.78.9-1.43,2.5-1.66,3.77-1.89,1.6-.31,2.48-2,4.19-1.79a4.51,4.51,0,0,1,4.49-1.88,3.58,3.58,0,0,0,1.8-.66c3.31-1.9,7-2.84,10.55-4.12,1.15-.41,2.17-1,3.26-1.42,2.21-.88,4.29-2,6.51-2.89s4.1-1.93,6.16-2.88a5.56,5.56,0,0,1,1.86-.56c1.16-.09,2.33,0,3.5,0,6.42,0,6.43,0,13-2.41,2.65-1,5.12-2.31,8.05-2.62,1.57-.18,3-1.51,4.73-2.05,6-1.88,11.7-4.41,17.53-6.66,3-1.16,6.22-1.86,9-3.51,2.6.18,4.3-1.94,6.64-2.6,3.18-.9,6.13-2.63,9.13-4.11a26.77,26.77,0,0,0,3.08-2.11c-1.29-2-3.17-1.41-4.66-1.08-2.52.56-4.88,1.94-7.41,2.3s-4.95,1.62-7.42,2.45-4.82,2-7.34,2.5a10.54,10.54,0,0,0-4.47,1.9c-1.7,1.25-3.77,1-5.54,1.88-2.13,1-4.51,1.63-6.41,3.06-1,.73-2,.22-2.91.64a20.55,20.55,0,0,1-4.05,1.2c-1.39.31-2.44,1.33-3.95,1.55-.76.11-1.63.5-2.52.58a3.81,3.81,0,0,0-1.56.45c-1.74,1.05-3.45,2-5.63,1.67-.32-.05-.77.39-1.1.67-1.46,1.28-3.38,1.42-5.1,2.06s-3.35.92-5,1.45c-1.23.39-2.42.91-3.63,1.39-3,1.19-6.26,1.81-9,3.54-1.62,1-3.48,1.11-5.17,1.94-1.9.95-4.12,1.24-5.94,2.56-.56.4-1.65,0-2.27.4-2.63,1.52-5.73,1.87-8.28,3.76-1.66,1.23-4.05,1.33-6,2.44-1.37.79-3.33.64-4.58,1.53-3,2.12-7,2-9.71,4.53a1.27,1.27,0,0,1-.91.28c-1.82-.33-3.25.66-4.66,1.46-2.29,1.3-4.85,1.81-7.26,2.76a18.48,18.48,0,0,0-6.3,3.41,4.42,4.42,0,0,1-2.18,1.42c-1.69.16-2.77,1.22-4.12,2a14.94,14.94,0,0,1-3.74,2c-1.23.31-2.21,1.79-3.81,1.72-1.44,1.85-4.06,1.89-5.55,3.4-1.64,1.66-3.64,2-5.61,2.63-.2.06-.49-.13-.73-.21a2.84,2.84,0,0,0-3.37.78c-1.65,1.68-2.69,1.65-4.28-.06a63.79,63.79,0,0,1-7-9.34c-1.11-1.76-2.34-3.46-3.44-5.24a26.86,26.86,0,0,1-3.57-8.57c2.12-3.7,5.43-5.95,7.08-9.48.09-.2.21-.48.38-.53,2.29-.67,2.91-3,4.4-4.44,2.09-2,4.14-4.11,6.19-6.18a48.79,48.79,0,0,0,5.19-5.83c1.68-2.3,4.42-3.7,5.66-6.42,2.16-.79,3.26-2.81,4.91-4.2,2.09-1.77,3.59-4.16,6.11-5.51.79-.42,1.09-1.67,1.79-2.35,1-1,2.55-1.64,3.32-2.8s1.93-1.67,2.78-2.61c1-1.13,1.95-2.54,3.24-3.15,2.12-1,3.1-3.26,5.27-4.17.68-.28.9-1.52,1.56-2,2.78-2.13,5.12-4.76,8-6.75a59.68,59.68,0,0,0,6.85-5.44c2.24-2.05,4.92-3.44,7.26-5.32.26-.2.56-.37.8-.59,2.8-2.55,5.58-5.12,8.38-7.67a70.68,70.68,0,0,1,10.76-8.67,6.44,6.44,0,0,0,.75-.73c2.46-2.23,4.72-4.75,7.43-6.61,3.08-2.12,5.64-5,9.16-6.44a35.61,35.61,0,0,0,4.69-2.18,9.63,9.63,0,0,1,5.37-1.43c1.51.07,3,0,4.55,0a16.85,16.85,0,0,1,3.23.59c4.53,1,8.46,3.3,12.64,5,1.79.75,3.92.91,5.19,2.69,2,.12,3.54,1.67,5.4,2.14,2.36.6,3.92,2.94,6.53,2.85,1.24,1.69,3.23,2.32,4.88,3.43,3,2,6.4,3.54,9,6.17.19.19.64.1,1,.21,1.55.52,3,1.4,4.44,2a19.55,19.55,0,0,1,3.92,2.34,6.91,6.91,0,0,0,3.66,1.33c3.35.19,6,2.08,6.34,5.24.26,2.11,1.37,3.66,2.05,5.48.79,2.12,2.51,3.86,2.36,6.41-.05.93.85,1.95,1.41,2.88,2,3.26,2.52,7.15,4.69,10.31-.37,2.44,2.1,4.22,1.52,6.73a30.74,30.74,0,0,0-.69,4.26c-.13,1.45.1,2.89-.7,4.28s-1,2.91-1.87,4.1c-2.29,3.18-2,6.4-.64,9.76,1.07,2.71,2.31,5.34,3.33,8.08a9.37,9.37,0,0,0,5,5.23,11.2,11.2,0,0,1,3.9,3.21c.53.62.52,1.72,1.07,2.32.86,1-.12,1.39-.34,2a18.33,18.33,0,0,1-.91,2.77c-1.22,2.29-2.68,4.45-3.45,7A3.57,3.57,0,0,1,273,241c-2.84,2.85-3.36,6.42-3.3,10.2C269.68,253.11,269.65,255.08,269.65,257.08Zm-77.8-124.74c-.9-1.63-1.71-.62-2.65-.53a10.4,10.4,0,0,0-6.63,3.51c-2,2.11-4.24,3.94-6.19,6.1A61.87,61.87,0,0,0,171,149a17.46,17.46,0,0,0-2.45,5.27c-.52,2-1.77,3.72-2.28,5.71a7.13,7.13,0,0,1-1.71,3.17c-1.25,1.37-2.71,2.91-3.13,4.61-.48,2-2.2,3.32-2.41,5.32-.13,1.17-1.36,1.55-1.56,2.9-.29,2.07-2.26,3.73-2.1,6.09-1.47,1-1.7,2.81-2.68,4.16a18.72,18.72,0,0,0-2.82,5.82,20.07,20.07,0,0,1-6.44,10.22c-2.27,1.84-4.42,3.82-6.79,5.52a31.51,31.51,0,0,1-3.53,2.47c-5.78,3.09-11.18,6.8-16.79,10.16a16.83,16.83,0,0,0-3.59,2.27c-2.62,2.7-5.91,4.54-8.73,7s-5.87,4.47-8.61,6.88c-4.53,4-8.65,8.5-12.91,12.82-.31.3-.35.87-.52,1.35.42.1.56.18.63.14a63.59,63.59,0,0,0,8.91-6.37c2.13-1.85,4.34-3.61,6.48-5.44,3.1-2.66,7-4.28,9.86-7.38a1.19,1.19,0,0,1,.53-.4c2-.4,3.15-2.06,4.6-3.28a6,6,0,0,1,2.82-1.57c4.68-.44,8-3.53,11.55-5.94,2.88-2,5.26-4.65,8.16-6.57a69.26,69.26,0,0,0,12.69-10.72,14.07,14.07,0,0,0,1.25-1.92,35,35,0,0,0,2.92-4.4c.75-1.57,1.58-3.11,2.3-4.65a41.36,41.36,0,0,0,2.14-4.7c.76-2.39,2.56-4.37,2.83-6.86a10.64,10.64,0,0,1,1.2-3.37c1.25-2.76,2.92-5.4,3.65-8.27.51-2.05,1.7-3.81,2-5.84.33-2.25,2.56-3.62,2.52-6,1.63-.57.94-2.41,1.88-3.44a36.43,36.43,0,0,0,2.34-3.56,62.15,62.15,0,0,1,4.48-5.83c2.77-3,5.73-5.82,8.64-8.68a3.37,3.37,0,0,1,1.66-1C189.74,134.54,190.8,133.41,191.85,132.34Zm38.65,89.33c-.19,1.79-.2,3.31,1.3,4.51.5.4.57,1.38.74,2.11,1.22,5.23,3.84,9,9.52,10.19,1.78.36,2.89-.74,4.33-1a47.36,47.36,0,0,0,2.91-5.78c1.14-3.28,1.19-6.79,1.41-10.23,0-.81-.64-1.67-.62-2.5.1-4.23-1.42-7.93-3.54-11.46-1-1.62-2.42-3.1-4.25-2.63a11.53,11.53,0,0,0-5.23,2.58,16.45,16.45,0,0,0-5,8.07C231.53,217.6,229.59,219.38,230.5,221.67Zm-11.69-5.54c-1.79-.38-2.38.1-3.15,1.27a95.52,95.52,0,0,1-6.19,7.93c-2.39,2.92-5.49,5-8.56,7.16-.88.61-1.85,1.5-2.81,1.55a9.63,9.63,0,0,0-4,1.48c-3.73,1.86-7.51,3.56-11.81,3.51-1.81,1.05-4.38.4-5.94,2.82a7.9,7.9,0,0,0,2.33.64c2.47-.13,4.94-.66,7.39-.6a20.26,20.26,0,0,0,9.59-2.2c.61-.3,1.08-.77,1.83-.66,1.76.25,3.14-.7,4.69-1.3,2.53-1,5.16-1.63,7.36-3.35a2.41,2.41,0,0,1,1.28-.24,3.49,3.49,0,0,0,3.35-2.88,20,20,0,0,1,1.55-4.28c.55-1.42.66-2.93,1.25-4.37A51.14,51.14,0,0,0,218.81,216.13Zm-20.52-49.59c-1.52-.83-2.13,0-2.57,1.08-2.83.92-5,3.09-7.71,4.14-3.42,1.33-5.57,4.34-8.68,6-.8,2.5-3.17,3.24-5.05,4.53a17.69,17.69,0,0,1-2.49,1.58c-2.33,1.06-3.86,3.19-6.21,4.37a8.12,8.12,0,0,0-4.31,5.29c1.29-.11,2.33.12,3.32-.93s2.38-1.5,3.56-2.28,1.69-2,3.17-2.49a12.24,12.24,0,0,0,3.61-2.21c2.37-1.81,4.32-4.21,7.3-5.16,3-3.12,7-5.24,9.55-8.84a1.77,1.77,0,0,1,.83-.51C195.07,170.3,196.44,168.19,198.29,166.54Zm37.49-18c-2.65-2.9-4.8-3.25-7.35-1.64a5.24,5.24,0,0,1-1.2.46A51.27,51.27,0,0,1,222,149c-2,.44-3.46,1.75-5.25,2.5-.39.17-.77.67-1.11.63-1-.12-1.42.57-2,1.08-1.28,1.09-2.87,1.95-3.83,3.27a11.1,11.1,0,0,1-3.66,2.91c-.16.09.06.8.11,1.23l.55.42c1-2.09,2.79-2.6,4.7-2.91a4.74,4.74,0,0,0,1.44-.72c2.34-1.34,4.87-2.28,7.24-3.61,3.07-1.72,6.68-2.36,9.74-4.24a2.94,2.94,0,0,1,1-.19Z"/><path d="M355.77,475.33l-.81.82c-.83.82-1.61,1.7-2.49,2.46s-1.44,1.94-3,2.08c-.93.09-1.77,1.28-2.64,2a16.69,16.69,0,0,1-8,3.5c-2.35,2.16-4.54.74-6.78-.27a29,29,0,0,0-3-1.11,4.73,4.73,0,0,0-1.28.07c.3,2.95-.58,5.68-1.22,8.48a11,11,0,0,1-2.49,4.58,52.11,52.11,0,0,1-4.68,4.72,12,12,0,0,1-1.92,1.25c-.65.4-1.3.8-2,1.18-1.22.71-2.38,1.75-3.7,2a25.33,25.33,0,0,1-5.23.08,4.78,4.78,0,0,1-2.22-.58c-1.64-.84-3.59-.91-5.41-1.24-2.62-.48-4.4-2.34-6.68-3.36a49.43,49.43,0,0,1-13.69-9.28c-1.87-1.76-3.61-3.63-5.45-5.36-3-2.77-4.84-6.41-8-9a15.3,15.3,0,0,1-2-2.64c-.63-.83-1.57-1.3-2.29-2.1-1.61-1.78-3.79-3.07-5.75-4.54a16.18,16.18,0,0,1-1.91-1.26c-2.07-2.13-4.66-3.15-7.4-4.15a86.71,86.71,0,0,1-9.68-4.52c-3-1.51-6.16-2.58-9.28-3.8-.4-.16-1-.13-1.2-.41-.86-1.4-2.42-1.52-3.66-2.21s-2.28-1.27-3.38-2c-5.21-3.36-11.2-5.35-16.16-9.15-3.45-.8-5.8-3.52-8.78-5-1.91-1-3.83-2-5.77-2.93A13.6,13.6,0,0,1,185,432c-2.72-2.28-6.3-3.27-8.76-5.92-2.8-.82-5-2.61-7.31-4.3s-5.32-2.28-7.2-4.61c-3-.69-4.92-3.31-7.63-4.4-3.26-1.32-6-3.44-9.13-5-1-.49-1.67-1.65-2.67-2a27,27,0,0,1-5.13-2.84,49.38,49.38,0,0,0-4.88-2.58,40.57,40.57,0,0,1-3.68-2.14,17.86,17.86,0,0,0-3.73-2c-1.78-.57-3.75-1.09-5.2-2.75-.82-.93-2.59-.85-3.79-1.75s-2.63-1-3.76-1.84a9.22,9.22,0,0,0-3.5-1.74,14.18,14.18,0,0,1-2.59-1.34c-3.24-1.45-6.64-2.64-9.72-4.37a50.36,50.36,0,0,0-6.25-2.7c-2.24-.9-4.35-2.05-6.86-2.08-.34,0-.66-.58-1-.83a5.17,5.17,0,0,0-1.69-1c-4-.7-7.49-3.2-11.69-3.06-3.44-1.65-7.5-1.5-10.77-3.56-1.4-.88-3.09-.32-4.35-1.34-3.78.38-7.17-1.29-10.6-2.34A81.5,81.5,0,0,0,34,362.94a4.9,4.9,0,0,1-2.11-.79,5.86,5.86,0,0,0-4-1.33c-.49,0-1-.41-1.48-.62a5.44,5.44,0,0,0-1.79-.71c-3.54,0-6.49-1.77-9.63-3-1-.4-2-.76-3-1.25s-2.09-.58-2.32-1.92a1.21,1.21,0,0,0-.72-.73c-3.39-1-4.84-4.15-6.45-6.71-1.43-2.28-2.85-5-2.44-8.07a15.78,15.78,0,0,0,0-3.15,5.14,5.14,0,0,1,1.45-4.31,7.71,7.71,0,0,0,.67-1.12c.89-1.25.57-3.41,2.76-3.69.49-1.8,1.9-2.61,3.4-3.48a14.66,14.66,0,0,0,2.54-2.46c3.35.17,6.41-2,9.84-1.44,3.25.51,6.49,1.15,10.06,1.79l1.5-2.14a13.13,13.13,0,0,0,0-2.61c-.58-3.89,1-7.16,2.83-10.39.21-.38.43-.91.77-1.05,3.59-1.52,6.62-4.45,11-3.88a68.29,68.29,0,0,0,8.38.06c.46.52.94,1.59,1.7,1.84,2.4.79,3.82,2.46,5.12,4.46C63.26,308,64,310,65.73,311.45a11.23,11.23,0,0,1,3.39,4.84c.48,1.57,1.65,2.57,2.12,4a32.89,32.89,0,0,1,1.44,4.3c.48,2.7,2.11,4.78,3.54,6.94a32,32,0,0,0,10.24,9.71,16.81,16.81,0,0,1,3.19,2.41c3.51,3.49,8.09,5.29,12.15,7.89a25.76,25.76,0,0,0,4.84,2.67,30.59,30.59,0,0,1,5.3,2.42,35.87,35.87,0,0,0,3.1,1.82,19.3,19.3,0,0,1,2.93,1.43c2,1.3,4.55,1.42,6.42,3,2.26-.24,3.55,1.61,5.23,2.55a10.55,10.55,0,0,0,3.52,1.7,6.63,6.63,0,0,1,2.28,1.21c2.67,1.69,5.53,3,8.28,4.57,1.44.8,2.66,2.2,4.19,2.47,1.78.31,2.85,1.58,4.35,2.23A54.83,54.83,0,0,1,163.93,385a15.1,15.1,0,0,0,3.12,1.74c3.22,1.48,5.4,4.57,8.86,5.65,3,2.92,7,4.18,10.09,7a14.62,14.62,0,0,0,2.6,1.28c.76.45,1.42,1.06,2.16,1.56,5.43,3.68,11.37,6.5,16.79,10.22,2.47,1.69,5.35,2.85,7.94,4.46a64,64,0,0,0,5.73,3c2.13,1,4.4,1.83,6.44,3s4,2.19,5.92,3.56,4.35,1.77,6.44,3c4.8,2.73,10,4.66,15.06,6.75a21.14,21.14,0,0,1,5.54,2.72c.52.42,1.79,0,2.23.42,1.87,1.89,4.85,1.36,6.73,3.38a6.13,6.13,0,0,0,3.89,1.4c2.37.13,4.47,1.3,6.77,1.45s4.16,1.26,6.26,1.82c1.26.33,2.54,1,3.78.94,2.88-.2,5.36,1.51,8.17,1.47,1.66,1.48,4.06-.08,5.72,1.4,3.63-.21,7.05,1.15,10.6,1.56a50.09,50.09,0,0,1,12.48,2.72,7.12,7.12,0,0,0,3.24.59c2.42-.18,4.3.51,8.25,2.11.9.36,2,.33,2.83.75,2.35,1.11,4.65,2.31,6.92,3.57,1,.54,1.73,1.46,2.71,1.93a7.56,7.56,0,0,1,4.57,7.52C355.76,473,355.77,474,355.77,475.33Zm-97.29-17c-.2,2,.82,2.88,2.4,3.37a20.67,20.67,0,0,1,6.47,3.73c2,1.6,3.68,3.71,5.91,5.15a26.26,26.26,0,0,1,3.42,2.71c1.54,1.43,3,3,4.46,4.44s3.09,3.17,4.71,4.68,3.34,2.45,4.57,4a33.49,33.49,0,0,0,4.41,4.42,20.75,20.75,0,0,0,8.48,4.94c2.49.67,4.61-.33,6.83-.81,1.31-.29,1.41-2.4,2.93-2.86a1.28,1.28,0,0,0,.67-.75,9.77,9.77,0,0,1,.76-2.47c1.45-2,.2-3.31-1-4.65a3.13,3.13,0,0,0-4-.42c-1.5,1.36-3.61,1.71-5,3.37a2.88,2.88,0,0,1-3,1.06,26.27,26.27,0,0,1-5.28-2.41c-1.7-1.08-3-2.72-4.74-3.8s-2.82-2.87-4.5-4.09c-2.37-1.73-4.13-4.23-6.65-5.89a33.31,33.31,0,0,1-3.26-3.15c-1-.9-2.59-1.46-3-2.54-.68-1.65-2.3-1.42-3.25-2.36a30.6,30.6,0,0,0-5.95-4.11A9.06,9.06,0,0,0,258.48,458.32ZM39,335.09c-2.53.83-3.42,2.65-3.27,5.17a5,5,0,0,1-.5,1.87,30.51,30.51,0,0,0-1.81,5.21c-.48,2.87-.18,3.83,2.57,4.41,1.18.25,2.66.11,3.5.78,2,1.59,4.23,1.28,6.46,1.32a15.29,15.29,0,0,0,2.44,0c3.87-.55,7.21.78,10.36,2.82.65.42,1.24.94,1.87,1.39a15.94,15.94,0,0,1,2.16,1.5c2.73,2.71,6.43,3.06,9.84,4.07A1.79,1.79,0,0,0,75,362.28c-.34-1.45-1.67-1.18-2.62-1.63a45,45,0,0,1-9-5.39,17.14,17.14,0,0,1-2.39-1.76,10.23,10.23,0,0,0-7.79-3.85c-2.33,0-4.66,0-7,0-.84,0-1.77.76-2.46.55a31.41,31.41,0,0,1-5-2.17,1.6,1.6,0,0,1-.87-2c1-2.27,1.19-4.84,3-6.81,1.18-1.3.71-2.59-.89-3.56C39.66,335.43,39.28,335.23,39,335.09ZM330.47,469.62c-3.63-.51-5.7-2.87-8.26-4.44-.93-.57-1.84-1.16-2.79-1.68-1.9-1.06-2.94-.06-4.31,1.26s-1.45,2.72-1.29,4.33a18.19,18.19,0,0,0,2,1.94c.68.5,1.57,1.17,2.29,1.08,3.2-.39,6.24,1.06,9.41.74Z"/><path d="M164.14,433c-1.77,2.27-4.28,2.75-6.67,3.44a8.25,8.25,0,0,0-1.93.4,41.92,41.92,0,0,1-9.85,4.05c-2.56.75-4.65,2.42-7.15,3a48.33,48.33,0,0,0-7,2.48c-2.26.94-4.44,2.16-6.78,3.06-4.73,1.81-9.32,4-13.92,6.07-3.34,1.53-6.58,3.25-9.94,4.72a21.61,21.61,0,0,0-5.68,3.22c-1.3,1.11-3.11,1.45-4.64,2.3-4.21,2.34-8.12,5.13-12.22,7.62-4.92,3-9.16,6.81-13.49,10.58-3,2.58-5.86,5.43-9.87,6.51a2.23,2.23,0,0,0-1.13.61c-1.13,1.5-2.75,1.23-4.33,1.44-1.82.25-3.66.8-5.47,1a46.71,46.71,0,0,1-7.48,0c-.41,0-.84-.42-1.22-.37-2.77.41-5.42-.5-8.1-.81a11.52,11.52,0,0,1-6.07-3c-.81-.71-2.11-4.15-2.17-5.39a10.91,10.91,0,0,1,0-1.4c.09-1.13.32-2.27.32-3.41,0-1.35-.26-2.7-.32-4.05a18.23,18.23,0,0,1,0-3.84c.42-2.41-.82-4.13-2.18-5.75s-2.88-3.2-4.26-4.87a30.16,30.16,0,0,0-5.4-4.57c-1.84-1.37-3.9-2.46-5-4.61-1.29-2.52-.77-5,.39-7.3,1.69-3.35,4.52-5.75,7.37-8.07a9.45,9.45,0,0,1,2.35-1.05,7.13,7.13,0,0,0,1.79-.72A9.35,9.35,0,0,1,19.48,432a25.12,25.12,0,0,0,5.4-1.24c3.07-1,6.13-.37,9.18-.61a8.43,8.43,0,0,1,4.26.7c2.15,1,4.57.63,6.76,1.39s4.4.34,6.45,1.33a5.25,5.25,0,0,0,2.07.08,60.34,60.34,0,0,0,7-.06c1.93-.22,3.81,1.3,5.72.06,2.49,1.34,5,0,7.45-.15a71.89,71.89,0,0,0,10.95-1.38,29.83,29.83,0,0,1,5.68-.54,15.1,15.1,0,0,0,2.88-.67c4.15-.95,8.27-2.08,12.43-3,3-.67,6.2-1.09,9-2.71a8,8,0,0,1,3.08-1c3-.31,5.37-2.44,8.44-2.5.76,0,1.47-.9,2.27-1.22a8,8,0,0,1,3.16-.89,5.59,5.59,0,0,0,2.74-.89c1.67-.95,4.62-2.08,6.23-1.81a38.81,38.81,0,0,1,9.48,2.45c1.09.5,1.14,1.49,1.9,2s1.5.94,2.17,1.5c1.91,1.61,3.27,3.86,5.66,4.94.37,1.24,1.61,1.62,2.4,2.45A22,22,0,0,1,164.14,433ZM41.62,481.28c1.34-.88,1.67-2.15,2.25-3.38,1-2.1,3.35-2.86,5.29-3.92.9-.49,2.19-.32,3.31-.39a11.53,11.53,0,0,0,2.43,0c1.67-.46,3.73-.51,4.05-3.24a5.79,5.79,0,0,0-1.86-.88c-1.62-.13-3.27.06-4.88-.06a9.88,9.88,0,0,0-7.12,2.25c-1.42,1.11-2.41.73-3-1a11.93,11.93,0,0,1-.72-4.6c.22-3.12-.19-6-2.74-8.31a6.53,6.53,0,0,0-5.2-2,17.17,17.17,0,0,0,.93,2.1c.4.67,1.15,1.17,1.39,1.87.83,2.52,1.74,5,1.46,7.79a43.54,43.54,0,0,0,0,4.42l2.23,2.21c1.41,2.49-.19,3.28-1.14,4.41a1.69,1.69,0,0,0,1.1,2.79A15.25,15.25,0,0,0,41.62,481.28Zm-12.21-38.4c-7.48-.48-8,.36-11.56,4.24-1.16,4.48.47,8,3.07,11.08,1.13,1.33,3.1,1.94,4.66,2.85L26.65,460c-1-1.29-1.19-3.11-2.62-4.1-1.2-.84-1.53-2.14-2-3.39-.64-1.86-.23-3.67,1.45-3.93s2.56-1.78,4.06-2.1C29.52,446,29.73,444.73,29.41,442.88Z"/><path d="M360,365.41a4.69,4.69,0,0,0,0,1c.85,3.39-1.59,5.62-2.93,8.24-.07.14-.41.13-.58.26-2.38,1.84-4.43,4.12-7.2,5.42a37,37,0,0,1-6.84,2.9c-4.42,1.06-8.78,2.47-13.47,2.22-4.54-.24-9.15.37-13.64-.15-6.68-.77-13.35-.46-20-.6a21.23,21.23,0,0,0-8.6,2.07,58.18,58.18,0,0,1-6.47,2.11A38.39,38.39,0,0,0,274.8,391c-1.48.66-3,1.27-4.51,1.8-1.16.4-2.4.57-3.14,1.74-.17.28-.53.67-.76.64-2.83-.31-4.39,2.3-6.87,2.92-1.95.49-3.64,1.93-5.56,2.58s-3.29,2.15-5.38,2.3c-.65.05-1.19,1-1.89,1.3a37.47,37.47,0,0,1-4.31,1.42c-1.35.39-2.34,1.64-4,1.47a4.93,4.93,0,0,0-2.49.67,11.08,11.08,0,0,1-4.33,1.47c-1.4.12-2.79.6-4.27.67-1.1,0-2,.62-3.32,0-1.06-.49-2.52-.1-3.8-.11-.23,0-.51,0-.66-.07-3.32-2.56-7.45-3.49-11-5.53a3.74,3.74,0,0,1-.78-.65c-2.87-3-6.52-4.94-10-7-.18-.1-.48,0-.63-.15-2.18-1.65-2.46-3.32.45-5s5.81-3.39,9.2-4c.4-.07.74-.46,1.12-.68,3-1.73,6.39-2.6,9.56-3.95,1.7-.71,3.68-.76,5-2.34,3.26-.11,5.92-2.1,9-2.8.22-.05.55.09.69,0,2.33-1.95,5.45-2,8.05-3.43,2.44-1.33,5.25-1.9,7.8-3.11,3.12-1.47,6.05-3.42,9.54-4,2.72-2.94,7.08-2.92,10-5.55,2.94-.53,4.95-3.22,8-3.5,2.54-2.35,5.9-3.27,8.81-5,3.4-2,6.33-4.67,10-6.3a18.46,18.46,0,0,0,4.27-3.21c2.59-2.26,5.09-4.62,7.65-6.92s5.48-4.54,8.34-6.68a43,43,0,0,1,7-4.3c3.08-1.48,6.25-3.05,9.81-3.35,1.2-.1,2.37-.54,3.56-.66a19.48,19.48,0,0,1,3.5,0,31.11,31.11,0,0,1,5.64.75,5.68,5.68,0,0,1,2.95,2,14.38,14.38,0,0,1,2.1,4.72c.45,1.68.91,3.23-.25,4.77.36,3.31-2.18,6.2-1.4,9.57-1.7,2.66-.25,5.15.48,7.63a21.89,21.89,0,0,0,5.67,8.5c1.12.93,2.32,1.77,3.41,2.74S358.92,364.35,360,365.41Zm-23.1,1.42c-.07-1.92.3-3.77-.7-5.44a15.38,15.38,0,0,0-7.44-5.43,1.83,1.83,0,0,0-2.35,1.75,9.33,9.33,0,0,0,0,1.4c3.42,3.42,3.42,3.42,1.14,6.55-4.09.11-8.12,1.1-12.26.84-3.26-.2-6.53-.06-9.8,0-1.44,0-2.87-.17-4.29.62a7,7,0,0,1-3.52.72,15.8,15.8,0,0,0-4.84,1c-1.29.36-2.35,1.48-3.47,1.69-2.63.5-4.1,2.71-6.62,3.34,1.75,2,2.47,2.08,4.09,1a6.29,6.29,0,0,1,2.55-1.36c1.81-.14,3.33-1.15,5-1.41,1.87-.3,3.75-.1,5.67-.66,1.73-.49,3.71,0,5.57-.13s3.77-.61,5.66-.64c5.25-.09,10.5-.07,15.75,0,2.08,0,4.06,0,5.61-1.7a1.5,1.5,0,0,1,1.21-.39C335.31,368.89,335.86,367.7,336.87,366.83Z"/><path d="M154,273.1c.65-.64,1.11-.91,1.28-1.31.67-1.52,2.49-.92,3.41-1.94,1.27.83,3.1,1.37,3.73,2.54,2.64,4.91,9.22,6.49,13.35,5.75,1.25-.23,3-.36,3.76-1.86,5.44-3,4.1-2.82,7.06-7.8,1-1.66,1.63-3.53,2.56-5.23a33.92,33.92,0,0,1,2.18-3.18c1.94-.13,3.71-.18,4.94,1.21a33.38,33.38,0,0,1,2.65,3.79,12.07,12.07,0,0,1,2,3.34,19.54,19.54,0,0,1,.08,4.53c0,4.32,0,8.63,0,12.95,0,1.93.8,3.6,1.29,5.4,1,3.69,3.87,6.3,5.11,9.79,2.48,1.61,3.25,4.91,6.12,6.19.64.29,1,1.22,1.5,1.78.92,1,1.88,1.88,2.85,2.79.32.3.9.45,1,.8.85,2.06,2.49,2.13,4.59,1.91-.51-3.69-2.84-6.2-5.09-8.93a21.25,21.25,0,0,1,1.46-2.44,11.72,11.72,0,0,1,2.23-2.22,6.44,6.44,0,0,1,2.37-1c.83-.18,1.57-.68,2.61-.12.81.43,2,.08,3.12.08.9-1.56,1.89-3,3.71-3.49,1.88.45,2.86,2,3.73,3.44a5.72,5.72,0,0,1,.46,2.6c.09,2.95.07,2.95,3.32,3.06a17.4,17.4,0,0,1,4-6.38c1-1.12,2.35-1.23,3.49-1.85s3.73,1.42,3.91,2.84a19.62,19.62,0,0,1,0,2.43L256,304.4l6.06-7.95c1.39,0,2.48-.13,3.37,1s2.26,2.28,2.09,4a3,3,0,0,0,1.33,3,2.55,2.55,0,0,0,3.58-.62,7.65,7.65,0,0,0,1.34-2.91c.13-2,1.58-3.11,2.56-4.59s2.58-.83,3.45-1.93l2.8,1.14c1.1,2.46-.76,4.43-.33,6.55-1.5,2.2-.95,5.14-2.7,7.29-.95,1.17-.88,2.82-1.89,4.14a3.85,3.85,0,0,0,.2,4.17c.84,1.34,1.43,2.77,2.93,3.64,1.66,1,2.13,2.86,2.43,4.55a26.87,26.87,0,0,1,.25,6.08c-.07,1.14-3.43,3.35-5,3.74-5,1.25-10.07.47-15.11.69-1.64-1.18-3.72-.11-5.24-.83-1.74-.82-3.37-.3-5-.57a5,5,0,0,1-1.61-.33,3.62,3.62,0,0,0-2.87-.08,10.07,10.07,0,0,1-4,.22c-2.33-.43-2.3-.55-5.45.14a9.62,9.62,0,0,1-2.08.05c-3.27,0-6.54.07-9.8,0-1.54-.05-3.06-.53-4.61-.64s-3.41.4-4.86-.12c-2.93-1-6.05-.85-9-1.88a6.62,6.62,0,0,0-6.19.79c-1,.78-2,.28-2.91.64-2.2.84-8.51.72-10.77.05-1.15-.33-2.33-.45-3.49-.86-4.74-1.68-7.16-5.49-8.87-9.75a34.21,34.21,0,0,1-1.85-5.56c-.41-1.83-1.36-3.6-1.9-5.49-1.27-4.47-3.51-8.58-5.07-12.93-1.41-3.94-3.92-7.06-6.25-10.36a15.11,15.11,0,0,1-.75-1.44,5.91,5.91,0,0,0-2.1-2.31c-1.55-1-2.56-2.81-3.78-4.29a1,1,0,0,1-.09-.66C155.16,277.7,154.39,275.41,154,273.1Z"/><path d="M60.35,225.7c-.43,0-1.26.23-1.78-.07s-1.68-.85-.83-1.85a2.91,2.91,0,0,0,.34-3.24c-.78-1.14-.54-2.2-.55-3.29-.05-5.71,0-11.43,0-17.15,0-3.71,1-7.3,1.42-11,0-.39.69-.78.64-1.11-.46-2.94,1.15-5.34,1.87-8s2.26-4.9,3.33-7.38c1.41-3.26,3.68-6,5.79-8.84,1.67-2.26,3.68-4.25,5.45-6.39a39.19,39.19,0,0,1,7.25-6.62c2.25-1.62,4.5-3.22,6.74-4.85.28-.2.46-.6.76-.72,4.27-1.63,7.46-5,11.41-7.1,3.75-2,7-4.77,11-6.35,1.26-.5,2.77-.79,3.75-2,.26-.31.83-.73,1.09-.63,2,.75,3-1.37,4.66-1.57a13.32,13.32,0,0,0,4.16-1.71,13.08,13.08,0,0,1,4.13-1.09,20.62,20.62,0,0,0,6.56-1.84,5.64,5.64,0,0,1,2.44-.83c3.19,0,6.27-1.05,9.51-.8s6.57-.26,9.78.16c2.61.33,5.29.39,7.86,1.24.86.28,1.47.6,1.69,1.39a1.76,1.76,0,0,1-1.22,2.16c-.2.09-.57,0-.62.15-1,2.16-3.19,2.86-4.86,4.19-2.32,1.85-4.25,4.24-6.73,5.82s-3.83,4.19-6.54,5.28c-1.07,2.36-3.4,3.56-5.25,5s-3.62,3.48-5.56,5.05a59.76,59.76,0,0,1-5.87,4.43c-1.8,1.13-3.4,2.49-5.1,3.74-2.78,2-5.59,4.12-8.15,6.35s-6.18,4-7.78,7.46a5.2,5.2,0,0,1-1.46,1.5c-1,.85-2.2,1.57-3.15,2.5s-1.32,2.27-2.3,2.82a9.83,9.83,0,0,0-2.74,2.34c-2.76,3.42-6.17,6.22-8.86,9.63-1,1.24-2.48,1.16-3.27,2.31-.55-.76-1.87-.62-2-1.94,0-.46-.58-.78-.22-1.47a5.42,5.42,0,0,0,.48-2.24c.08-1.69.06-3.18,1.31-4.75,1.42-1.78,1.23-4.27.37-6.45-.76-1.91.13-3.53,1-4.95.71-1.15,1.71-2,1.58-3.58s-1.56-1.91-2.16-3.14v-3.57l-1.9-.12a7,7,0,0,0,.84,5.61c.94,1.42-.57,2.37-.84,3.56-.15.64-1.13,1.09-1.65,1.55.24,2.24-.13,4.22.67,6.27s-.83,3.78-1.77,5.49a14.75,14.75,0,0,0-1.66,4.93,8.72,8.72,0,0,1-.42,2.26,7,7,0,0,0,.14,3.93A5.07,5.07,0,0,1,82,201.55c-1.22,1.33-2.31,2.87-3.57,4s-2.23,2.65-3.52,3.83c-1.66,1.53-3,3.42-4.51,5.1a13.71,13.71,0,0,1-1.86,1.4c-.36.27-1,.52-1,.85-.41,2.51-2.79,3.26-4.19,4.87C62.37,222.8,61.54,224.1,60.35,225.7Z"/><path d="M364.09,39.41c1.26,1.66,2.36,3,3.28,4.36,1.3,2,1.11,4.42,1.7,6.63,0,.17-.91,1.16-1.35,1.45l1.35.52c0,2.61.2,5.3,0,7.94a17.32,17.32,0,0,1-5,11.2c-.75.74-1.49,1.49-2.36,2.36-2-1.12-4.1,2-6.28,0l-1.21,1.22c-.08,0-.18,0-.24,0s-.22-.14-.24-.24c-.23-1-.85-2.06-.55-2.79s1.53-1.18,2.3-1.8c.23-.18.29-.57.51-1-1.42-.55-2.77-.18-4.06-.33,0,.09-1.34,5.61-1.35,5.63a30.27,30.27,0,0,1-5.22-.07c-1.71-.3-3,1-4.61.74l-1.22-2.12c-2.33,2-4.61,2-6.79-.15-1.59,2.29-3.78,2.4-6.43,2.24l1.54-1.85c-.27-.94-1.26-1.91,0-2.89l-.92-.94a7,7,0,0,1-2.52,5.81,8.29,8.29,0,0,1-6.08,1.27c-.81-1.59-.19-2.79,1.12-3.8,2.12-1.65,4.22-3.31,6.37-4.92.15-.11.63.29,1,.35.67.14,1.18-.06,1-.86-.05-.29-.61-.73-.57-.77,1.23-1.34-.15-3.36.9-4.43.79-.8-1.09-1.47.24-1.82-1.12-3-.39-6.06-.52-9.09s-.06-6.3,0-9.44c0-.94.76-2.11.4-2.73a6.09,6.09,0,0,1-.42-2.64,6.28,6.28,0,0,1,2.15-6.1l1.15.83.25-1.34h-3.55c0-1.7-.48-3.5.12-4.83.7-1.55-.26-2.69-.16-4,.14-1.62,0-3.26,0-4.85-.49-.54-1-1-1.4-1.57-.25-.29-.51-.91-.67-.88-1.16.22-1.56-1-2.32-1.19-1.24-.32-1.42-2.18-3.09-1.86-.3.06-.86-1.16-1.31-1.81l-.86,1.8c-.08-1.34-.12-2.2-.18-3.18h2.54c.75,1.42,1.42,1.81,2.3.94a3.25,3.25,0,0,1,3.5-.88v4.37c.81.51,1.43.67,1.47-.46.05-1.35,0-2.71,0-4.19,2,.82,2,.82,1.38,1.92.3.1.65.36.85.27a11,11,0,0,1,5-.69c.33,0,.84,0,1-.15,1.23-1.87,3.11-1.18,4.76-1.22,3.12-.07,6.24,0,9.42,0V8.71L349,8c-.1.34-.19.65-.33,1.16,1.62.47,3.2.1,4.68.26,1-1.53-.43-1.4-1-2.13a29.29,29.29,0,0,0,3.38,0c1.74-.21,2.83.39,3.18,2.19l.62-.62c.56.6,1.12,1.22,1.72,1.78A7,7,0,0,0,362,10c3.39,2,5,5.28,6.31,8.77a3.1,3.1,0,0,1,.08,1.36c-.12,1-.77,2.32-.38,3.07.62,1.17.27,2.25.37,3.35s0,2.33,0,3.49A9.85,9.85,0,0,1,365.68,37,15.72,15.72,0,0,0,364.09,39.41ZM341.37,73.88c.44-.22.89-.43,1.32-.66,1.58-.82,3.64-1.39,2-3.88-.05-.07.19-.32.27-.49a3,3,0,0,1,2.94-2.06c1.63,0,3.27-.12,4.89,0a5.68,5.68,0,0,0,4.89-2.45c1.61-1.92,2.88-4.24,2.32-7.06a14.41,14.41,0,0,1,0-3.15,7.17,7.17,0,0,0-.68-3.57,31.52,31.52,0,0,1-2.08-5.08c-.37-1.25-.56-2.15-2-1.12-1.67-1-4.1-1-4.67-3.93l-.71,2.92-3.39-2.77-.81,1.7c-3.28-1.25-5.51-.8-7.89,1.6a2.5,2.5,0,0,0-.81,1.4c-.12,2-.47,4-.61,6-.39,5.08-.13,10.2-.13,15.35,1.92.29,3.66.68,5.42.78,1,.06,2,.28,2.23,1.19A1.84,1.84,0,0,1,342.48,71C341.27,71.45,341.48,72.67,341.37,73.88Zm-7.93-49.27c1-1.86,1-1.86,2.87-1.61-.69,3.86.4,7.62.75,11.51a12.47,12.47,0,0,0,2.8.74c3.84.09,7.69,0,11.53,0a3.28,3.28,0,0,0,1.58-.36,16.44,16.44,0,0,0,7.66-10c.11-.36-.35-.88-.55-1.32,1.82-.72,4.06.81,5.68-1.58-.87,0-1.69-.26-2.16,0-2.7,1.72-4,.12-5.22-2a7,7,0,0,0-1.26-1.91,3.38,3.38,0,0,1-1.45-3c-1.18-.8-1.53,1.46-2.65.27-1.27-1.37-3-1.15-5.24-1.13l-.66-1.24-2.73,1.29-2.15-2.81c-.56.8-.85,1.3-1.22,1.74-.8.94-1.63,1.51-2.9.58-.45-.33-1.33.66-1.24,1.42.05.41,1,.52.23,1.28-1.25,1.22-.91,2.92-.95,4.48a5.61,5.61,0,0,1-.24,1h-2.48Z"/><path d="M506.05,324.43a9.63,9.63,0,0,0,.83-1.64,10.07,10.07,0,0,0,.15-1.74h-1.94c0,.24-.1.56-.19.87-.81,2.83-2.31,3.3-4.31,1.36-.67-.65-1.32-1.32-2-2l1.88-1.84h3.6l.05-.37c-.45-.07-.9-.18-1.35-.22a5.3,5.3,0,0,1-1.39,0c-1-.38-1.57-1.44-3-.77a6.85,6.85,0,0,1-3.79,0c-.89-.15-1.42.8-2.36.37a10,10,0,0,0-2.55-.47c-.46-1.23,0-2,1.18-2.76l2.22,1.68,2.8-2.6a2,2,0,0,0-2.41.14c-.6.39-1.29.47-2-.79-1.17-2.15-3.43-3.68-4.76-5.76-2.24-3.5-5.91-5.69-8-9.27a10,10,0,0,0-1.5-1.61,15.23,15.23,0,0,0-3,11.08,9.7,9.7,0,0,0,2.26,4.27,11.41,11.41,0,0,0,4.11,3.52c.26.12.41.49.6.73-1.35,1.85-1.35,1.85-1.11,4.05.87-1.4,1.53-2.49,2.19-3.55.25.61.62,1.52,1.23,3,.52-1.66.32-3.11,1.82-3.41.85.49,1.67,1,2.55,1.47,1.13.57.8,1.78,1.19,2.67.92-.4,1.27-1.72,2.58-1.36,1,.29,2.41,1,3.12.55,1-.6,1.92-.45,3.44-.49a19.09,19.09,0,0,0-1.48,1.54,4.92,4.92,0,0,0-.74,1.44c-.54,1.94-2,2.52-3.78,2.57-2.21.05-4.41,0-7,0a5.88,5.88,0,0,0,.57-.84,9.66,9.66,0,0,0,.34-1.13c-1.58.39-2.76,1.28-4.33,1.35-2.54.11-6.71-.63-8.18-2.47a27.77,27.77,0,0,0-3.05-2.82A16.56,16.56,0,0,1,465,305.1a7.7,7.7,0,0,0,1.23-.51,5.69,5.69,0,0,0,.93-.9l-1.24-.33a2.3,2.3,0,0,1-.26-.58,12.58,12.58,0,0,1,1.38-7.12c1.23-2.29,2.37-4.62,3.58-7-1.13-1.08-.86-3.17-2.76-3.68A24.82,24.82,0,0,1,465,270.44c.15-1.51,1.72-1.14,3.2-1.72l-2.28-.38c-.67-1.66-.16-3.2.86-5l1.18,1.92,1.14-2.29-2.06-.33a14.58,14.58,0,0,1,6.47-4.75c2.41-1,2.37-1.09,3.7,1.41l5.39-2.45-.48,2.9c.92.11.92.11,1.21-2l6,5c.28,1.35-.24,2.6,1,3.42.35.22.46,1,.48,1.51.06,1.74,0,3.49,0,5.31l-1.61.56,1.61.66a27.27,27.27,0,0,0,0,3.38c.45,3.6-1.21,6.31-3.61,8.66-1.2,1.17-2.1,2.76-4.23,3.33.45.45,1.06.77,1.1,1.15.19,1.91,1.94,2.45,3,3.62,2.67,3,5.36,6,8.06,9a4.37,4.37,0,0,0,1.28-3.93c-.23-1.44.39-2.6,1.18-4l1.2,1.68c1-.82,1.72-1.55.27-2.67a40.46,40.46,0,0,1,4.36-.84c1.78-.15,1.79-.06,4.26-1.42a5.4,5.4,0,0,1,1.46-.69c2-.35,3.94-.62,6.37-1a9,9,0,0,1-4.56,5.88c-2.34,1.34-3.82,3.56-5.41,5.65a2.85,2.85,0,0,0-.67,1.79c.27,2.31-.52,4.48-.77,6.71a21,21,0,0,1-.89,3.12L507,317a4.27,4.27,0,0,1,0,.67c-.19.63-1.49,1.27-.23,1.88,1,.52.71-.84,1.15-1.2.94-.79,1.92-1.52,3.05-2.4l.44,2.22c1.54.24,1.13-1.94,2.57-1.72.5.07,1.07-.38,1.58-.32,2.05.24,2.05.28,3.71-.74a1.56,1.56,0,0,1-.3,2.38,12.38,12.38,0,0,1-3.2,2.39c-1,.34-1.8.32-2.17,1.52a.93.93,0,0,1-1.63.42c-.48-.46-.45-.16-.81.23A6.28,6.28,0,0,1,506.05,324.43ZM473.6,270.68c.18.67.61,1.36.44,1.84-.31.81,0,1.54-.05,2.22-.3,3.68,2.58,5.36,4.4,8.2,1.3-1.6,2.63-2.76,3.33-4.23s.7-3.13,1-4.67c.89,0,1.59,0,2.29,0,.52,0,1-.17,1.56-.26l-.07-.51h-3.77c-.36-1.56-.35-3-1-4.07a9.15,9.15,0,0,0-3.54-3.45c-1.74-.77-1.73,1.6-2.7,2.36-.09.08-.16.17-.48.49h-5.08V269l5.1.26Zm-.15,14c.26.75,1.23,1.31.23,2a1.86,1.86,0,0,0-.75,2.62c1.72.54,2.63-.67,3.19-1.83.39-.81.08-2,.08-2.84Z"/><path d="M239.39,50.88l-2.32-1-1,1.84c-.43-.52-.67-.67-.68-.83a14.32,14.32,0,0,1,1.12-5.13c.58-1.78.72-1.74,3.34-2.53l-2.54-.44c.3-1,.66-1.84.85-2.75.53-2.45,1.89-4.65,2.12-7.18.89-.27.26-1.93,1.64-1.79.14,0,.46-.35.43-.42-1.29-2.87.88-5.08,1.47-7.58a32.86,32.86,0,0,1,2.06-6.84L247,13.82c-1.43-1.15-2.1.67-2.6.95l-5.5-.71c-.53-2.53,2.12-3,2.89-4.57,1.91-.46,4,.52,5.57-1a3.91,3.91,0,0,1,4.39.24,3.4,3.4,0,0,0,3.8.29c1.28-.63,2.38-.1,4-.46l-2.82,4.57,1.37,1.06c.59-1.81,2.29-2.73,3.54-4.29.82,1.18,1.95,2.18,2.27,3.39.59,2.21,1.93,4.1,2.31,6.44.23,1.37,1.26,2.67,1.57,4.22.66,3.3,1.87,6.47,2.58,9.78a57.56,57.56,0,0,0,2.15,6.1c1.3,3.81,2.41,7.64,3.52,11.5a52,52,0,0,0,2.3,7.07,12,12,0,0,1,.47,2.15,9.65,9.65,0,0,0-2.66-.61,13.09,13.09,0,0,0-2.95,1.17h4.18a13.82,13.82,0,0,0-.35,2.88c0,.31.81.55,1.86,1.2a25.81,25.81,0,0,1-.86-3c0-.32.33-.7.51-1.06.29.25.56.52.86.75.89.71,0,1.83.66,2.66a7.07,7.07,0,0,1,1.38,2.56c.18.6.42.74.91,1.1,2.8,2.06,5.46,4.32,8.17,6.5a1.78,1.78,0,0,1,.53,2.46c-.34-.21-.7-.62-1-.59-1.08.14-2.41.94-3.15.54a8.43,8.43,0,0,0-3.16-.63c-.09-.86-.18-1.8-.28-2.75h-.36c-.11.64-.23,1.28-.35,2h-2.39c-.46-.43-.13-2.18-1.68-1a6.54,6.54,0,0,1-2.17.5c.21-1.18.36-2,.54-3-.41.13-1,.24-1,.32.14,3.06-2.47,2.77-4.18,3.2a20.08,20.08,0,0,1-4.78.08c-.91-1.65.2-2.69,1.22-3.17,1.76-.82,2.68-2.43,4-3.36a17.67,17.67,0,0,1-.61-3.05c0-1.18,0-2.3-1.11-3.06a.77.77,0,0,1-.31-.56c.12-.69.58-1.46.41-2.05-.24-.8-1-1.44-1.4-2.21a18,18,0,0,1-.77-2.13c-.08-.2-.28-.36-.35-.56-.75-2.23-.74-2.24-2.91-2.26-2.67,0-5.34,0-8,0-.83-1,.59-2.81-1.23-3.24l-2.43,2.45h-6.17l-1.22-1.22c-.35.44-.63,1.09-1.08,1.26a6.37,6.37,0,0,1-2.06,0c-.34,5.91-4,10.77-4.32,16.1,1.43,2.77,4.67,3.27,5.51,6.18-1.85.42-3.75-.09-5.63.73-1.67.73-2.34-.09-2.94-2.68-2,0-3,1.69-4.23,2.7-1.57.31-3.14-.45-4.43.75-.1.09-.81-.19-.83-.34-.24-2-1.4-1-2.16-.59a8.75,8.75,0,0,0-1.64,1.69,11.44,11.44,0,0,0-1.81-.39,8.68,8.68,0,0,0-1.77.37c.58-1.22.95-2,1.17-2.44l3.07.37c1.07-1.83-1.21-1.06-1.11-2,.07-.26.13-.65.19-.65,1.42,0,1.89-2.14,3.55-1.59.55-1.91,2.8-2.1,3.66-3.61a12.93,12.93,0,0,0,1.66-4.19c.39-2.29.78-4.58,2.2-6.43.78-1,.56-2.12.68-3.27,1.72,1,1.92-.11,2.19-1.23C237.15,51.62,238.9,52.93,239.39,50.88Zm-.51-2.29a3.8,3.8,0,0,0,1,0c.86-.38,1.22-2.39,2.7-.83,0,0,.38-.1.47-.24.75-1.19,1.94-1.15,3.08-1,1.42.19,1.72-2,3.26-1.42.2.08.39.19.56.27l.32,2.83c1.22-2.34,1.23-2.46,2.79-2.38a58.37,58.37,0,0,0,11.7-.94,5.4,5.4,0,0,0-.13-1.61A29.34,29.34,0,0,1,263,39.41c-.48-2.13-2.26-3.88-1.77-6.29,0-.23-.38-.52-.49-.82-.32-.8-.61-1.62-.87-2.44a7.63,7.63,0,0,0-.76-2.46c-.74-.94-.23-2.24-.74-2.82-.88-1,.37-1.56.09-2.3-.11-.3-.15-.87-.29-.89-1.68-.25-1.35-2.52-3-2.8-.19.2-.59.41-.66.7-.48,2-1.76,3.74-2.2,5.73-.5,2.25-1.69,4.23-2.24,6.41s-1.49,4.55-2,6.88c-.4,2-1.65,3.83-1.63,6,0,1.09-.83,1.58-1.89,1.47-2-.2-3.58.93-5.35,1.46C239,47.31,239,48.07,238.88,48.59Zm10.06-26c-1.88.33-2.32,2.78-4.26,3a.33.33,0,0,0-.22.24c-.16.78-.29,1.57-.46,2.55,1.51-.41,2.64-1.73,4.26-1.55.11,0,.32-.29.38-.48C249,25.18,250.05,24,248.94,22.61Z"/><path d="M435.94,434.51l-3.85-.23c0-1.53-.08-3,0-4.51.17-2.62-1.22-4.63-2.56-6.64-.25-.37-1-.43-1.45-.66-1-.46-1.95-.94-3.06-1.47l2.92-4.73-2.78-.12L425,418a25.36,25.36,0,0,1-3.51,1.64,4.52,4.52,0,0,1-2.77,0c-3.1-1.2-6.6-.35-9.6-2.17-3.88-2.36-6.11-4.38-7.51-9a27.28,27.28,0,0,1-1.13-7.62,22.42,22.42,0,0,1,1.46-8.17,17.44,17.44,0,0,1,3.69-5.16c.08-.06.26-.06.28-.13,1-3.2,3.92-3.67,6.54-4.36a15,15,0,0,1,5.08-.31c.59,0,1.08,1.23,1.63,1.9a2.45,2.45,0,0,1,3.17-2c1.66.31,3.46-.66,5,.56a2.59,2.59,0,0,1,3.24.1,17.3,17.3,0,0,0,3.32,1.33L437.5,381c.11,1,.2,1.88.34,3.11.51-.31,1.19-.53,1.19-.74a10,10,0,0,0-.44-2.16c.34,0,.89,0,.93.08.47,1.38,1.69,2.53.48,4.31-1.63,2.4-1.21,5.33-.68,7.93.58,2.84,1.05,5.77,2.51,8.4.39.71.06,1.82.06,2.66-.76,1.15-1.83-1-2.56.35a2.25,2.25,0,0,1-1.1-.53c-1-1.33-1.76-2.8-2.78-4.08-.56-.69-.62-1.82-1.9-2s0-1.14-.34-1.68c-.58-1.08-2.32-.7-2.61-2.38-.22-1.23-1.81-1.43-2.91-1.9a24.35,24.35,0,0,0-3.28-1.35c-.67-.17-1.29-.14-1.81-.75-1.19-1.4-2.8-.52-4.23-.6-.23,0-.62.42-.71.71-.31.95-.84,1.14-1.86,1.39-3.12.75-4.64,2.27-5.86,5.68-.5,1.41-1.28,2.85-1,4.5.26,1.43,1.5,4.78,2.35,5.68a4.73,4.73,0,0,0,1.39.84c1.09.53,1.26,1.5,1.25,2.81a6.55,6.55,0,0,0,1.66,0,8.7,8.7,0,0,0,1.68-1c.07,2.68-1.54,3.38-3.23,4,.43,1.76,1.85,1.13,3,1.24a16.65,16.65,0,0,1,.69-2.14c1.15-2.46,1.24-2.46,3.69-1.37,1.3.58,2.49,1.22,4,.11.68-.49,2,.49,3.12.7a21.9,21.9,0,0,1,5.09,2,2,2,0,0,1,1.11,1.19c.12.79.5.76,1.11.92,1.51.38,4,4.09,3.82,5.67,0,.36-.37.7-.58,1.05,2.47.55,2.42,2.7,2.65,4.45a48.48,48.48,0,0,1,.06,6.18l-2.59.13c.18-1,.33-1.88.49-2.74l-.41-.09a3.78,3.78,0,0,1-.43,1.17c-.6.71-1.3,1.33-2.21,2.24h5.39c-.37.81-.57,1.26-.78,1.69-.74,1.45-1.93,2.54-2.39,4.29a12.43,12.43,0,0,1-3.14,5.28,6.5,6.5,0,0,1-5,2.15,7.31,7.31,0,0,0-4.21.84c-1.61.91-3.39,1.15-5-.39a2.3,2.3,0,0,0-1.85-.33c-1.25.3-2.42,1.1-3.67,1.2a12,12,0,0,1-3.89-.65,16.58,16.58,0,0,1-2.66-1.18,1.84,1.84,0,0,0-2.41.58c-.69.79-1.47,1.5-2.21,2.24-.17.17-.32.34-.44.48h-3v-2.75l1.32.76c-1.26-3.11-.09-5.6,1.16-8.21-.33-.16-1.05-.31-1.13-.62s.26-1,.42-1.44c-1.69-.13-1.55-2-1.82-2.94a18.8,18.8,0,0,1-.69-8.38c1.26-.37,2.49-.61,3.35,1l-2.24.44c1.66,1.24,4.07,1,4.94,2.87,1.06,2.34,3.46,3.49,4.6,5.78.52,1,2.13,1.5,3.15,2.34.86.72,1.4,1.87,2.89,1.45.33-.1.9.56,1.32.93,1.77,1.55,3.38,1.55,5,0a5.54,5.54,0,0,1,3.11-1.87,4.92,4.92,0,0,0,3.05-2.41c1.15-2.19,2.6-3.36,5.12-3C435.2,435.08,435.4,434.84,435.94,434.51Z"/><path d="M583.57,405.78l-1.05,2.31c.83.52,1.08.51,1.57-.4,1.08-2,2.17-1.91,3.42,0,.12.18.11.43.22.61.76,1.26,1.62.92,2.49.14,2.17.38,2.29,2.5,2.74,3.86.82,2.46,1.73,4.92,2.7,7.29s1.36,5,2.86,7.21c-.53,1.25,1.88,2.24.32,3.58a16,16,0,0,1,1.26,2.18c1.08,2.69,2.07,5.4,3.21,8.42.51-.95.86-1.63,1.23-2.29,1.23-2.18,2.44-4.36,3.72-6.51,2.21-3.72,3.63-7.84,5.83-11.58,1.81-3.07,3.29-6.33,4.95-9.49.26-.48.72-1.2,1.1-1.2,1.53,0,1.44-1.5,2.34-2.33a7,7,0,0,0,1.36,1.53,10.42,10.42,0,0,0,2.49.64l-1.57-2.46c.78-1.8,3.68-.08,4.31-2.6.35.73.56,1.2.86,1.83,2.43-1.37,4.73-3.23,8-1.88a4.93,4.93,0,0,1-.59,1.85A29.68,29.68,0,0,1,630.9,412a10.36,10.36,0,0,0-3.08,3.43c-3.62,6.05-6.44,12.49-9.69,18.73-1.09,2.1-2.15,4.25-3.27,6.35s-1.8,4.16-2.87,6.15-2.53,3.61-3.4,5.59-1.39,3.86-2.27,5.7c-2.25,4.68-4.53,9.33-6.94,13.92a41.32,41.32,0,0,1-3.72,5.79,5,5,0,0,1-2.49,1.52,19.46,19.46,0,0,1-2.77.08c-.74.09-1.44.59-2.17.64-2.6.19-4.54-1.39-6.57-2.68-.55-.35-1.08-.72-1.65-1.1l.59-1.49-.33-.24-.92,1.58c-1.52-1.09-2.58-1.83-3.63-2.59s-.83-2-.65-3.29c1.56.26,3-.11,4.63.61,1.3.57,3.09.08,4.39,1.22.22.2.83.37.88.29.91-1.27,1.76.52,2.6,0a1.78,1.78,0,0,0,.64-.61c1.78-3.22,3.53-6.45,5.29-9.68l1.49.75c.1-.73.35-1.3.2-1.73a4.49,4.49,0,0,1,.69-4.06c1.25-2.15,2.24-4.44,3.45-6.9a26.6,26.6,0,0,1-2.18-1.58,5.12,5.12,0,0,1-1.21-1.49c-1.42-2.68-3-5.28-3.54-8.34a8.39,8.39,0,0,0-.82-1.77l1.43-.51c-.08-.16-.13-.42-.26-.46a3.79,3.79,0,0,1-2.53-2.77c-.91-2.65-2-5.22-2.75-8a71.57,71.57,0,0,0-2.91-7.88c-1-2.4-2.36-4.72-5-6-1.48-.7-2.62-2.09-4-3.11a3,3,0,0,1-1.1-3.82c.31,0,.95-.19,1.14,0,1.63,1.79,3.74,1.32,5.75,1.37C582,405.69,582.68,405.74,583.57,405.78Z"/><path d="M539.37,226.79c.22-.48.43-.95.88-2a6.62,6.62,0,0,0-2.07,1.55c-1.33-1.72-4.82-1.84-3.67-5.55a17,17,0,0,1,8.88,1.84c1,.56,1.31-.46,2-.24s1.23.45,1.95.71l5.54-10.55,1.49.74a8.09,8.09,0,0,0,.26-1.64c-.14-2.26-.15-2.25.71-4,1.09-2.23,2.17-4.47,3.31-6.82,0,0,0-.24-.17-.31-4-2.35-5-6.67-6.62-10.5a19.8,19.8,0,0,1-.72-2.56l1.26-.44c-.06-.16-.08-.43-.18-.46a3.79,3.79,0,0,1-2.57-2.75c-.93-2.64-2-5.24-2.75-7.95S545,170.56,544,168c-1-2.41-2.35-4.73-5-6-1.47-.71-2.64-2-4-3.08a3.16,3.16,0,0,1-1.23-3.86c.46,0,1.33-.21,1.5,0,1.11,1.71,2.78,1.36,4.37,1.36h3.12c-.3.92-.55,1.68-.86,2.66.5,0,1,.15,1.26,0s.28-.82.54-1.14a1.68,1.68,0,0,1,2.86,0c.25.34.29.83.52,1.18.72,1.13,1.57,1.19,2.62,0,1,.93,2.33,1.46,2.1,3.18,2.35,5,3.72,10.35,6.06,15.34-.56,1.27,1.78,2.15.49,3.65-.18.21.84,1.33,1.14,2.09,1.06,2.71,2,5.45,3.18,8.49.67-1.2,1.27-2.12,1.72-3.1,1.25-2.67,3-5,4.37-7.65,1.19-2.28,2.12-4.71,3.34-7,2.13-4,4.2-8.06,6.32-12.07.26-.49.68-1.25,1-1.26,1.51,0,1.55-1.39,2.41-2.42.74,1.36,2.06,1.76,3.86,2.36l-1.63-2.69c.51-.24,1.19-.84,1.77-.75,1.32.19,1.87-.69,2.68-1.45l.75,1.55c2.43-1.27,4.7-3.25,7.87-2,.4.75.17,1.45-.56,2.24a39.78,39.78,0,0,1-6.27,5.18,10.75,10.75,0,0,0-3.11,3.39c-3.62,6-6.44,12.49-9.69,18.72-1.1,2.11-2.09,4.28-3.29,6.35s-1.86,4.13-2.86,6.16a14.85,14.85,0,0,1-2.22,3.6,9.43,9.43,0,0,0-1.48,2.91c-2.29,5-4.71,10-7.13,14.89a84.79,84.79,0,0,1-5.16,9.08,6,6,0,0,1-2.81,2.07c-.75.37-1.84,0-2.76.1-.73.09-1.43.58-2.16.64a7,7,0,0,1-4.66-1.39C541.8,228.34,540.52,227.55,539.37,226.79Z"/><path d="M519.05,199.23c0-1.78,2.47-1,1.78-2.9l-3.27.91c0,.71-.07,1.49-.1,2.18l-4.7,1.52a2.76,2.76,0,0,1,.72-3.12c.43-.44.41-1.34.61-2.1-1.63.06-1.07,1.85-2.49,2.13-.8.16-1.34,1.66-2.08,2.67-1.78,0-3.64-.09-5.48,0a6,6,0,0,1-5.09-2.12c-.54-.6-1.15-1.16-1.72-1.73.22-.25.43-.5.66-.75-.48-.25-1-.48-1.45-.74-.92-.51-2.1-.82-2.68-1.58-1.39-1.81-3-3.55-3.55-5.86a14.07,14.07,0,0,1-.76-4.26c.16-2.91.06-5.83.05-8.75a13.47,13.47,0,0,1,3.78-9.29c1.26.77,1.26.77,2.64-.41l-2.05-.39c0-.16,0-.37.12-.47,1.39-1.42,2.91-2.72,4.16-4.25,1.14-1.38,2.83-1.71,4.18-2.66s2.59.24,3.8.6c.8.23,1.38,1.18,2.18,1.93.83-.68,1.87-1.51,2.89-2.36.36-.3.68-1,1-.94,3,.12,2.44-2,2.52-3.79,0-.65.28-1.29.35-1.94.14-1.24.72-2.75.22-3.66-.75-1.37-.52-2.65-.56-4-.08-2.56,0-5.13-.05-7.7a2.12,2.12,0,0,0-.46-1.52c-2.34-1.81-4.76-3.51-7.2-5.29l1.62-.58c-1.64-.56-3.82-.54-2.85-3a3.31,3.31,0,0,0,4.2-.38l1.49,1.44-1.29,1.59-.81-.69c-.14,1.76-.05,1.78,3.08.51-.21-.54-.42-1.07-.61-1.57,1.52-1,2.39.37,3.5.61,0,.81.09,1.6.15,2.77,2.6-1.72,5-.67,7.55,0,1.16,5,1,10.1.43,15.2-.06.54.31,1.11.31,1.67,0,3.36,0,6.71,0,9.77l-2.76.56c.37.74.68,1.38,1.07,2.17l1.54-.87v6.86l-1.66-.59-.27.41,2.08,1.57c0,.35,0,1,0,1.71.11,1.59-.24,2.6-2.18,2.71-1.15.07-1.54,1.2-1.32,2.42,1.49,1.06,2.23-.22,3.11-1.05a1.12,1.12,0,0,1,.24.19.55.55,0,0,1,.13.29c0,6.75,0,13.5,0,19.92l7.59,5.88a3.86,3.86,0,0,0-.58,1c-.74,2.72-2.47,3.39-4.83,1.84-.17-.12-.42-.39-.48-.36-1.73,1.17-2.7-1.57-4.45-.84C520.53,200,519.66,199.4,519.05,199.23Zm-4.34-20.9c-.54-3.65.72-8.37-.64-13-.5-1.74-.5-2.18-1.93-1.75-.51.15-1,.55-1.51.55a7.53,7.53,0,0,0-6.15,2.88c-.37.45-.86.79-1.22,1.25-1.4,1.82-3.1,3.47-3.69,5.8-.19.75.08,1.75-.32,2.29-1.25,1.71-.76,3.63-.53,5.32s1.37,3.12,2.12,4.68c.9,1.89,2.55,3.16,3.94,4.65,1,1,1.67,2.69,2.83,3.12s2.78-.38,4.2-.55a2.91,2.91,0,0,0,2.89-3C514.73,186.78,514.71,183.06,514.71,178.33Z"/><path d="M368.42,543.93c1.38-1.78,3.11-.71,4.84-1.16a50.32,50.32,0,0,0-.65,5.44c-.09,5.13,0,10.27,0,15.4,0,.82.05,1.64,0,2.45-.13,1.55,1.58,2.1,1.8,3.44,1.76-.4,2.41,1.12,3.34,2,.41.41.46,1.2.75,2l1.75.27v2c-.35-.24-.55-.49-.76-.5-1.37-.11-2.74-.23-4.11-.22a1.92,1.92,0,0,1-2.13-1.75l1.5-.71c-1.4-1-2.05-.33-2.52,1.33-1.48-2-3.8-1.44-5.77-2.2v1.42c-2,1.61-4.35,1.74-6.54,2.34-.72.2-1.36-1.08-2.25,0-.34.42-1.49.19-2.49.27-.3-2.62,1.37-3.7,3.06-5s3.07-2.52,5.28-2.92c0-2.54-.05-5.09,0-7.63,0-1-.51-2.1.52-2.93a.64.64,0,0,0,.14-.62c-1.42-2.61-.5-5.41-.65-8.12s0-5.6,0-8.4V515.07c-3.26-2.26-6.45-4.45-9.62-6.66a2,2,0,0,1-.67-2.65,37.58,37.58,0,0,0,3.72.7c1.38.12,2.78,0,4.52,0l-.62,1.92h3.84l-1.7-.7c1.38-.52,1.38-.52,2.05,0a4.24,4.24,0,0,0,5.23.13c.28-.19.54-.58.81-.57,2.81.07,5.52-1.49,8.47-.52.06.84.13,1.72.2,2.64,2.76-1.07,2.76-1.07,3.88-2.85,2.69,1.69,2.69,1.69,5.62-.07a7.57,7.57,0,0,1,.84,1.78c.12.59.08,1.28.88,1,.37-.11.57-.8.87-1.26,1.74-.46,3.06.57,4.63,1.18a13.32,13.32,0,0,1,4.19,2.58c2,1.8,2.38,4.39,3.45,6.63a1.39,1.39,0,0,1,0,1c-1.27,3-.66,6.11-.62,9.16,0,3.85-1,7.07-4,9.57-.72.59-1.32,1.31-2,2-.1-.09-.24-.17-.25-.26a4.16,4.16,0,0,0-.53-1.71,8.63,8.63,0,0,1-.3,1.53,6.82,6.82,0,0,1-.94,1.69.91.91,0,0,1-.89,0c-.19-.17-.31-.8-.2-.88,1.25-.94-.13-1.21-.44-1.81l-1.33,3h-5.49l1,1.15h-4.25c-.07-.89-.13-1.77-.21-2.9-2.2,1-3,4.18-5.74,2.95l-1.51-2.06c-.44.12-.82.17-.83.25-.14,1.22-1,1.62-1.89,1.17-2.35-1.23-4.5-.76-7,.46.33.69.47,1.7,1,2,.83.41.35,2.74,1.83,1.55C370.55,545.31,368.82,544.76,368.42,543.93Zm5.6-6.42c.66-.25,1.07-.28,1.25-.49,1.58-1.89,3.71-2,5.89-1.81a11.27,11.27,0,0,0,4.22-.54,3.76,3.76,0,0,1,1.67-.15c.48.06,1,.59,1.38.48s.49-1.07.85-1.16a7.57,7.57,0,0,0,3.77-2.7c.58-.64.86-1.62,1.52-2.13a3,3,0,0,0,1-3.7c-1-1.78-.19-3.59-.72-5.3-.5-.5-1.27-.91-1.43-1.5-.61-2.17-2.6-2.56-4.19-3.36a11.76,11.76,0,0,0-6.24-1c-.18,0-.38-.18-.61-.31a5.54,5.54,0,0,1,0-1.35,3.81,3.81,0,0,1,.73-1c-2.46-.3-1.87,1.66-2.39,2.63-2.28.46-2.75-1.43-3.74-2.71-.65.92-1.11,2.29-2,2.63-2.28.91-2.46,2.63-2.46,4.59,0,4.52,0,9,0,13.5l-1.44.51c1.21.77,2.34,1.51,3.14,2C374.19,535.68,374.12,536.47,374,537.51Z"/><path d="M505.2,530.29l-1.12,2.44c.32.09.57.23.64.17.67-.63,1.32-1.29,2-1.94,1.68,1,3.37-.54,5.17.24-.41,1.92-.83,3.89-1.35,6.29.64-.35,1.37-.61,1.35-.75-.28-1.73,1.06-2,2.15-2.58l-1.37-1.44,1-1,6,4.36c-1.45,2-3.45,2-5.53,1.91v2.13l2.31-1.68.52,1.51a1.36,1.36,0,0,0,.47-.13c1-.84,2.07-1.69,3.22-2.64,1.43,2.44,3.75,4.18,4.17,7.1,0,.3.34.58.36.89.3,4.44.91,8.86.83,13.34,0,1.18-1.49,2-.48,3.44.62.91.35,2.42.53,4.16,2,1.44,4.32,3.17,6.71,4.8s2.89,2.4,2.75,5.6a10.47,10.47,0,0,1-5.92-1.54c-.19-.12-.32-.45-.5-.47a8,8,0,0,1-2-.13c-.48-.2-.67-1.12-1.15-1.31-1.86-.7-3.65-1.19-5.62.19a7.31,7.31,0,0,1-4.74,1.2c-1.84-.13-3.7,0-5.95,0a9.32,9.32,0,0,0,.86-1.86,6.61,6.61,0,0,0-.06-1.75c-2.61.45-2.08,3.2-3.74,4.22a6.55,6.55,0,0,1-6.61-2.23,2.67,2.67,0,0,0-1.85-.4c-1,0-2.68,0-3.13-.46-2.44-2.28-4.53-4.7-4.2-8.41.14-1.61,0-3.26,0-4.89a10.25,10.25,0,0,1,4.78-8.72,12.12,12.12,0,0,1,7.17-2.17c3.75,0,7.5-.38,11.25-.66.38,0,.73-.48,1.28-.86a12.39,12.39,0,0,0-5.36-5.59,10.3,10.3,0,0,1-2.43-1.72c-.93-.89-1.75-1.43-2.94-.39-.15.13-.87-.37-1.38-.6a42.67,42.67,0,0,0-6.95,8.3,5.07,5.07,0,0,1-3.37,2c-1,.25-2.33-.82-2-1.61,1.24-3.14,1.31-6.61,2.77-9.69-.33-1.79,1.27-2.94,1.53-4.64.22-1.45,1.94-2,3.51-2C500.71,530.31,502.68,530.29,505.2,530.29Zm1.37,37.89a12.23,12.23,0,0,1,2.14-.76c2.1-.3,4.23-.45,6.34-.75.5-.07,1.24-.35,1.39-.73.42-1.05,1.1-2.42.74-3.27-.79-1.85,0-3.65-.47-5.51l-1.65-1.66a19.1,19.1,0,0,1-3.47-.08c-.36-.06-1.7-.7-.44-1.66.13-.11,0-.61-.06-1-2.68,2.76-2.68,2.76-7.24,2.76-.72.72-1.52,1.41-2.19,2.21-2,2.4-2.47,4.11-.52,6.85a9.82,9.82,0,0,1,1.22,2.89c1.24-1.22,2.53-.55,3.67-.77Zm12.91-20.26h-4.83a5.14,5.14,0,0,1-1.76,4.85c-.1.1-.08.32-.14.56h1.88c.34-1.34.69-2.69,1.11-4.3l2.83.88a13.06,13.06,0,0,0,1-1.23C519.68,548.55,519.54,548.26,519.48,547.92Zm2.28,3.05c-.27-.23-.39-.38-.44-.36-.78.28-2.5,2.77-2.12,3.35.85,1.28.25,2.41-.34,4.24,1.12-.88,1.69-1.37,2.3-1.8s2,.21,2.38-1a5.47,5.47,0,0,0,.12-.7l-1.74.62C520,554,521.34,552.35,521.76,551Z"/><path d="M470.38,412.8c.31-.32.9-.66.87-.94-.15-1.58,1.07-1.79,2.27-2.34l-1.72-1.22,1.29-1.26,6,4.47a5.38,5.38,0,0,1-5.53,1.74v2.23l2.17-1.65.75,1.53,3.61-2.77c1.32,2.42,3.83,4,4.09,7,0,.3.46.61.41.85-.46,2.32.79,4.44.74,6.71a37.78,37.78,0,0,0,.1,7c.2,1.22-1.73,2-.31,3.42.58.58.1,2.2.1,3.3,2,2.52,4.74,3.8,7.22,5.45A5.27,5.27,0,0,1,495,451.7a4.18,4.18,0,0,1-3.2-.42c-.84-.5-2.28.08-3-1.13-.06-.09-.15-.22-.24-.24a5.78,5.78,0,0,1-2.3-.32c-.52-.33-.63-1-1.51-1.33a5.41,5.41,0,0,0-5,.32,9,9,0,0,1-4.74,1.22c-1.85-.11-3.71,0-6,0a10.81,10.81,0,0,0,.79-1.76,8.94,8.94,0,0,0,0-1.82c-2.71.33-2.09,3.17-3.95,4.17a6.3,6.3,0,0,1-6.43-2.14,2.52,2.52,0,0,0-1.84-.52c-1.41.1-2.75,0-3.39-.59-2.5-2.27-4.36-4.83-4-8.48a43,43,0,0,0,0-4.54,10.21,10.21,0,0,1,4.7-8.8,9.85,9.85,0,0,1,7.15-2.13c3.79.49,7.47-.95,11.25-.75.44,0,.92-.57,1.38-.87a14.29,14.29,0,0,0-6.09-6.1,7.18,7.18,0,0,1-1.87-1.36c-.73-.77-1.62-1.16-2.37-.44s-1.24-1-2-.21c-1.24,1.36-2.57,2.64-3.75,4.05s-2.35,3.27-3.69,4.74a3.65,3.65,0,0,1-4.77.69c.24-1.22.43-2.49.75-3.74.66-2.51,1.5-5,2.05-7.53.33-1.51,1.42-2.64,1.63-4.27.13-1,1.73-1.65,3-1.69,2.18-.07,4.36,0,6.78,0l-1,2.63c1.71.15,1.55-2.84,3.79-1.57.85.48,2.43-.32,4-.59-.28,1.34-.49,2.36-.72,3.38s-.44,1.89-.66,2.84Zm-8.78,29.6,3.8-.41c.23.63.38,1,.57,1.57a11.26,11.26,0,0,1,2.14-.76c2.11-.3,4.23-.55,6.35-.7a1.72,1.72,0,0,0,1.71-1.36c.21-.84-.28-1.87.71-2.5-1.45-1.73-.28-3.78-.77-5.71l-1.66-1.66H472.7c-2.49,0-2.49,0-2.28-3.33-1.61,3.69-4.38,3.53-7.16,3.27-.76.78-1.55,1.48-2.22,2.28-2,2.36-2.49,4-.51,6.86A6.44,6.44,0,0,1,461.6,442.4Zm19.58-11.56a6,6,0,0,1-.73-1.92,9,9,0,0,1,.63-2.15.76.76,0,0,0-.17-.61.74.74,0,0,0-.6-.17c-.48.14-2,3-1.69,3.39.9,1.24.22,2.4,0,3.69a21.51,21.51,0,0,0,2-1.32c.74-.42,1.91.12,2.36-1,.06-.13,0-.32,0-.71Zm-6.82-7.56a16.12,16.12,0,0,1-.67,2.7,21.21,21.21,0,0,1-1.57,2.68c.93.06,1.68.58,2.12-.91a13,13,0,0,0,.57-2.53,3.1,3.1,0,0,1,.37-.79l2.87.89,1.2-2Z"/><path d="M458.29,156.41l-1.11,2.5c.34.05.6.15.66.08.62-.68,1.21-1.39,1.77-2,1.87,1.2,3.58-.48,5.31.39-.4,1.93-.82,3.9-1.33,6.33.67-.42,1.38-.69,1.35-.86-.23-1.69,1.08-2,2.14-2.56l-1.48-1.49,1.66-.56,5.52,4c-1.51,1.91-3.49,2-5.59,1.89v2.08c.92-.13,1.15-1.39,2.38-1.34l.53,1.27,3.63-2.7a33.52,33.52,0,0,1,2.7,3.45,11.4,11.4,0,0,1,1.8,4.12,79.6,79.6,0,0,1,.77,14.39c-1.26,2.14.68,4.27-.19,6.63,2.38,1.69,4.67,3.48,7.13,5a5.34,5.34,0,0,1,2.8,5.62,10.45,10.45,0,0,1-6.08-1.56,2.78,2.78,0,0,0-1.18-.5c-.88-.06-1.88.2-1.9-1.2-1.51-.19-3.1-1.71-4.44-.8-3.81,2.57-8,1.83-12.13,2-.37-1.32,1.44-2.35.21-3.53-1.32,0-1.51,1-1.93,1.94a21.12,21.12,0,0,1-1.31,2.17c-2.63.37-4.91.08-6.57-2.05a1.93,1.93,0,0,0-2.15-.57,5.55,5.55,0,0,1-3.12-.49c-2.46-2.28-4.49-4.74-4.17-8.42.14-1.62,0-3.27,0-4.9a10.34,10.34,0,0,1,4.81-8.68,12.21,12.21,0,0,1,7.18-2.15c3.75,0,7.5-.39,11.25-.67.37,0,.72-.51,1.19-.86a13,13,0,0,0-5.61-5.85,9.33,9.33,0,0,1-1.92-1.25c-1-.92-1.83-1.89-3.19-.56-.08.08-.67-.37-1.32-.74-1.22,1.65-3.08,2.67-4.12,4.74-.84,1.67-2.57,2.86-3.57,4.48-.73,1.2-1.88.51-2.75,1.12s-2.19-.71-1.95-1.63c.91-3.47,1.9-6.91,2.77-10.39.35-1.37,1.27-2.46,1.53-3.94.24-1.32,1.87-1.81,3.23-1.87C453.61,156.34,455.69,156.41,458.29,156.41Zm1.37,37.89a11.41,11.41,0,0,1,2.14-.75c2.1-.31,4.22-.56,6.34-.7a1.72,1.72,0,0,0,1.72-1.35c.23-.84-.29-1.87.71-2.5-1.49-1.73-.23-3.79-.78-5.74l-1.64-1.64a19.1,19.1,0,0,1-3.47-.08c-.36-.06-1.7-.7-.44-1.66.13-.11,0-.61-.11-1.62-1.65,3.83-4.64,3.43-7.17,3.34l-2,2c-2.35,2.41-2.61,4.65-.61,7.42a18.09,18.09,0,0,1,1.25,2.44c1.44-.62,1.44-.66,3.55-.48ZM469,175.12a6.87,6.87,0,0,0,2.33.83,1.34,1.34,0,0,0,1.29-1.89H467.9c-.32,1.08.26,2.14-.73,3a9.31,9.31,0,0,0-1.4,2.51c.75-.09,1.66,0,1.78-.26A38.89,38.89,0,0,0,469,175.12Zm5.82,1.66c-.52,0-.92-.13-1-.05-.68,1.42-2.1,2.62-1.18,4.51.2.42-.09,1.09-.18,1.63a4.09,4.09,0,0,1-.24.75c.32,0,.75.1.93-.06.77-.69,1.38-1.51,2.65-1.3.3.05.72-.64,1.17-1.07-.45-.14-.68-.3-.86-.26-1.54.42-2.07.2-2-1.09A19.32,19.32,0,0,1,474.79,176.78Z"/><path d="M442.05,31.79c-.38,1-.66,1.77-.95,2.57,1.68.21,1.68-2.91,3.67-1.45a7.25,7.25,0,0,1,4.08-.25l-1.32,5.81c.6.49,1.34.68,1.32-.42,0-1.51.88-1.92,2.45-2.41l-2-1.09,1.31-1.39,6,4.44c-1.53,1.92-3.55,2-5.59,1.88v2.2l2.24-1.81.72,1.58,3.6-2.68a32.84,32.84,0,0,1,2.78,3.55c.76,1.29,1.74,2.78,1.67,4.14-.13,2.45.94,4.66.84,7.06a46.44,46.44,0,0,0,.05,7c.1,1.07-1.54,1.72-.32,3.07.6.67.24,2.21.32,3.57,1.73,2.31,4.49,3.61,7,5.24a5.33,5.33,0,0,1,2.7,5.45,4,4,0,0,1-3.14-.43c-.84-.52-2.3.19-3.05-1.07-.1-.18-.39-.45-.5-.41-2,.74-2.71-1.84-4.47-1.79-.86,0-2-.51-2.55-.13-3.22,2.27-6.84,1.88-10.42,1.9H446.8c.3-1.27.54-2.28.76-3.23-1.32-.66-1.76.26-2.13.84a20.5,20.5,0,0,0-1.34,2.9c-2.81.55-5.06.08-6.92-2a2.48,2.48,0,0,0-1.82-.57c-2,.15-2.81,0-3.91-1-2.45-2.23-3.9-4.86-3.57-8.32a39,39,0,0,0,0-4.19,10.66,10.66,0,0,1,4.63-8.88,10.05,10.05,0,0,1,7.15-2.07c3.81.3,7.47-1,11.25-.79.46,0,.94-.53,1.4-.81a13.43,13.43,0,0,0-6-6.15,6.52,6.52,0,0,1-1.15-.58c-1.08-.92-1.95-2.58-3.64-.84-1.27-1.55-1.92-.11-2.66.59a29.17,29.17,0,0,0-5.44,6.83c-.81,1.45-2.36,1.65-3.66,2.15-.48.18-1.29-.48-2.12-.83,1.77-4.6,1.71-9.7,4.42-14-.09-2.71,1.88-3,3.82-3.12S439.81,31.79,442.05,31.79Zm11.54,26.75c-.11-.11-.37-.34-.6-.6s-.59-.71-.79-.95c-3.33,0-3.33,0-4.58-.94l.61-1.66c-1.78,3.13-4.68,2.67-7.36,2.58-.64.63-1.19,1.23-1.79,1.78-2.27,2.06-3.16,4.81-.51,7.93a5.29,5.29,0,0,1,.68,1.86l3.79-.41c.22.65.37,1.06.54,1.56a11.49,11.49,0,0,1,2.19-.77c2.1-.3,4.24-.43,6.34-.76a2.36,2.36,0,0,0,1.61-1c.35-.88-.31-2.07.75-2.81C453.08,62.69,454.19,60.75,453.59,58.54Zm2.46.76L461,56.64c-.5-.19-.72-.36-.9-.33-.45.08-1.06.49-1.29.33a1.86,1.86,0,0,1-.75-1.37,22.22,22.22,0,0,1,.61-3.07c-.44-.05-.82-.17-.86-.1-.76,1.38-2.09,2.54-1.26,4.47C456.79,57.19,456.28,58.15,456.05,59.3Zm-4.5-4.41c.39-1.36.79-2.79,1.2-4.2,3.42.55,3.42.55,3.62-1.23h-4.66c-.11,2.66-.15,2.75-1.94,4.93-.06.07.09.31.15.48l.33,0Z"/><path d="M329,423.16H325.3c-1.08-1.19.22-2.08.4-3.09.51-2.78,1.3-5.51,2-8.25.37-1.51,1.38-2.67,1.61-4.28.18-1.3,1.89-1.77,3.24-1.85,2.08-.11,4.16,0,6.59,0l-.88,2.42c.37.36.37.36,2.63-1.72,1.61,1,3.32-.65,5,.23-.21.9-.43,1.82-.63,2.75s-.38,1.91-.6,3c.47.59,1.25.72,1.23-.33,0-1.63,1.08-2,2.14-2.53L346.58,408l1.53-.66,5.63,4.09c-1.49,1.93-3.53,2-5.59,2v2.2l2.24-2,.7,1.69,3.63-2.68a31.94,31.94,0,0,1,2.48,3.23c.81,1.39,2,2.92,1.94,4.38,0,2.43.92,4.67.85,7.06s.47,5-.15,7.31.81,4.29,0,6.64c2.42,1.69,4.77,3.37,7.16,5s2.71,2.26,2.81,5.49c-1.07.08-2,.33-3.14-.46-.82-.57-2.32.26-3.05-1.05a1,1,0,0,0-.5-.46c-.78-.28-2.11.58-2.34-.62-.3-1.55-1.52-.46-2.2-1a2.65,2.65,0,0,0-2.48-.28c-3.33,2.36-7.08,1.9-10.77,1.92h-1.4c.29-1.25.53-2.25.75-3.19-1.31-.78-1.77.22-2.13.77a18.48,18.48,0,0,0-1.3,2.94c-2.81.5-5.09.13-6.93-2-.31-.36-1.2-.73-1.43-.56-1.18.84-2.22-.32-3.31-.06-1-1.34-2.45-2.23-3.34-3.83a8.86,8.86,0,0,1-1.25-4.75c.06-1.63,0-3.26,0-4.9a10.69,10.69,0,0,1,4.61-8.9,10.06,10.06,0,0,1,7.15-2.07c3.82.32,7.47-1,11.26-.79.45,0,.94-.53,1.4-.8a13.31,13.31,0,0,0-5.95-6.16,7,7,0,0,1-1.16-.57c-1.08-.93-1.95-2.59-3.64-.85-1.26-1.55-1.92-.12-2.67.59a39.74,39.74,0,0,0-5.71,7.07A11.75,11.75,0,0,1,329,423.16Zm7.4,19.63c1.5-.7,1.5-.7,3.91-.47l.45,1.32c.7-.33,1.33-.9,1.86-.81,2.21.35,4.22-.77,6.36-.75,1.27,0,2.27-.71,1.84-1.78s1.15-1.54.32-2.73c-.56-.79-.19-2.22-.22-3.37-.05-2.32-1-3.25-3.29-3.32-1.13,0-2.34.25-2.85-.89.2-.71.36-1.26.51-1.81-1.74,3.17-4.66,2.76-7.31,2.68-.84.84-1.61,1.56-2.32,2.33-1.88,2-2.21,4.52-.55,6.61A6.64,6.64,0,0,1,336.35,442.79ZM356,430.73c-2.13-1.21-.45-3-.21-4.54-2-.74-1.47,1.1-2.07,1.66a2.36,2.36,0,0,0-.15,2.52c.27.72-.19,1.72-.35,2.77l4.66-2.51-.19-.47Zm-1.72-7.44h-5.19c-.35,1.1-.59,2-1,2.93s-.87,1.6-1.43,2.59c.74-.06,1.49.1,1.79-.19,1.07-1.07,1-2.59,1-4.31l3.13,1Z"/><path d="M636.31,77.62c-.62-1.78-.9-3.55-3.2-3.93v3.78l-7-1.86c-.08-.49-.18-1.13-.27-1.78h-.38L625.18,76c-.7-.18-1.39-.37-2.08-.53s-1.78-1-2,.7c0,.23-.93.44-1.42.44s-.93-.61-1-.52c-1.52,1.3-3.39,0-5,.71a3.38,3.38,0,0,0-.67.52,1.85,1.85,0,0,1,.6-2.55,33.46,33.46,0,0,1,4.89-3.4,4.36,4.36,0,0,0,2.68-4.48c0-3.15,0-6.3,0-9.45,0-1.27.72-2.7.31-3.76-.5-1.3-.2-2.49-.3-3.71-.13-1.39,0-2.8,0-4.19s-.26-3.06-.43-4.84l4.27.8-1-2,2.07-1.34c-1.32-.4-2.42-.49-3.45.66a4.5,4.5,0,0,1-4,1.19c-1.78-.17-3.44-1-5.32-.77-.59.07-1.77-.6-1.84-1.06-.23-1.38-.59-.38-1.13-.38a34.5,34.5,0,0,1-5.1-.69c-.89-3.21,2.29-2.37,3.53-3.64.34.66.5,1.45.82,1.51a2.37,2.37,0,0,0,1.84-.35,6.59,6.59,0,0,1,4.25-1.67c3.78-.25,5.48-2.26,5.5-6.1q0-5.07,0-10.14c0-.94-.09-1.89.88-2.43s-.64-1.66.58-2a21.3,21.3,0,0,0,2.87-.77l-1.52-.13.57-.6-2.37.58c.71-1.34,1.1-2.24,1.62-3,.66-1,1.33-.59,2.09.38l.31-3a44.35,44.35,0,0,1,6-1.33c1.51-.13,3.06.49,4.61.61s3.27,0,4.89.06c.37,0,.7.55,1.08.86-.32.66-.64,1.29-1,2.09l-1.35-.78-1.07,1,3,1,1.74-2.44a10.66,10.66,0,0,1,2.23,1.81c.45.71.36,2.19.84,2.36,1.94.66,1.18,2.13,1.28,3.33a2.61,2.61,0,0,1-.34,1.25c-1,2.14-2,4.29-3.16,6.38a12.65,12.65,0,0,1-1.63,2h-5.36a16.88,16.88,0,0,1,.76-3.78c.83-1.86.57-3.77.66-5.66.88-.72,2.39-.5,2.77-1.89,0-.14-.21-.36-.41-.67-1.43.51-2.49,2.51-4.47,1.21-1.66-1.1-1.45-2.71-1.38-4.34-.56-.16-1.47-.78-1,.43a1.88,1.88,0,0,1-.37,2.42c-.6.56-1.06,1.39-1.76,1.69-2.55,1.1-3,3.38-3.15,5.65-.21,2.9-.05,5.82-.05,8.81a10,10,0,0,0-1.37.72c-.11.07-.12.5,0,.66.42.67,1.28-.87,1.73.34a2.6,2.6,0,0,0,1.08,1.4c1.65.8,3.36,1.48,5.07,2.12.77.29,1.92.79,2.37.46,1.29-.92,1.16.68,1.79.77a12,12,0,0,0,1.32.18c1.28,0,2.55,0,3.82,0,.21,2,.21,2-2.09,3.44-.32-.78-1.44-1.2-1.56-1.6-.37-1.24-1.1-1.21-2.22-1.1-.07.83-.14,1.7-.21,2.5-1,.34-2,.58-2.85,1s-1.66,1.3-2.72.31c-.12-.1-.51,0-.72.11a6.56,6.56,0,0,0-3.44,4.46c-.33,1.22-.36,1.22-1.43,1.84l1.39.49V69.28c2.85,2.28,6.32,3.56,8.7,6.7Z"/><path d="M678,67.26a4.38,4.38,0,0,1-.46.92c-.47.51-.6,1.13.06,1.38,1,.37,1-.57,1-1,1.16.13,2.37.64,3.23.28a12.76,12.76,0,0,1,4.64-.62c1.23-.06,1.73-.6,1.88-1.87.23-1.89.56-3.77.68-5.66s0-4,0-5.94c0-1-.07-2.11,0-3.15s.8-2.16.42-2.72c-.69-1.05-.31-2-.41-3a29.85,29.85,0,0,1,0-3.14,27.57,27.57,0,0,1,0-3.15,14.65,14.65,0,0,1,.72-3.54,9,9,0,0,1,1.49-2h3.19l.62,1.84,1.25-3.24a.27.27,0,0,1,.18-.1c3.09,0,3.09,0,5.94-1.16.29-.12.84-.31.91-.21.79,1.13,1.42.45,2.29,0,.51-.24,1.39.27,2.27.47a6,6,0,0,1-5.46,4.52c.12.48.39,1,.27,1.13-1.1.95-2.26,1.83-3.58,2.86-.79-.63-1.49-2-3.13-1.07a4.34,4.34,0,0,0,.13,1.51c.13.29.75.36,1.26.57v26l1.35,1.35-2,1.47-3.39.72c5.38.56,5.38.56,7.14-1L703.88,72c-1.41.63-2.85,1.2-2.17,2.76l2.89-2.89c1.13,2.13,3.65,2.65,3.29,5.41-1.28-.21-2.53.5-3.83-.61-.54-.45-1.49.59-2.56,0-1.4-.77-1.51-.52-1.34-2.58,0-.23-.46-.5-.81-.85a5.44,5.44,0,0,0-1.23.57c-.29.21-.4.68-.69.91a3.28,3.28,0,0,1-3.45.15c-.5-.21-1-.48-1.44-.72a4.13,4.13,0,0,0,0-1.06c-.08-.27-.33-.63-.54-.66a1,1,0,0,0-.81.38A6.39,6.39,0,0,1,690,75.21l-.42-2.12h-.37c-.06.87-.13,1.75-.21,2.8-3,0-5.86.1-8.74-.06-1.1-.06-2.18-1.06-3.28.36-.53-.73-.94-1.29-1.39-1.89-.76,1.17-1.75.94-2.62.86s-1.33-1-.94-2.17a5.23,5.23,0,0,0,.24-1.3c0-.19-.14-.4-.23-.62l-1.47,2.14A28.4,28.4,0,0,1,662,62.38a12.75,12.75,0,0,1-.9-5.21c-.12-4.77-.15-9.56,0-14.33a3.26,3.26,0,0,0-1.68-3.14c-2.72-1.56-4.7-4.08-7.5-5.52-.76-.39-.69-.62-.36-3.17,1.55.59,3,1.38,4.77.35.52-.31,1.58.22,2.37.43,2.52.68,5,1.42,7.53,2.09,1.43.38,2.63,1.11,2.44,2.71-.11.88,1,1.41.32,2.34a1.66,1.66,0,0,0,.22,2.15,7.92,7.92,0,0,1,.91,2.41,1.68,1.68,0,0,1,0,1,12.68,12.68,0,0,0,0,8.88c.29.83,0,1.86.08,2.78a11.45,11.45,0,0,0,.67,2.16,6,6,0,0,0,.73,2.13C673.63,62.77,674.85,65.85,678,67.26Z"/><path d="M494.75,67.09c-.44.67-.71.91-.78,1.21a5.88,5.88,0,0,0,0,1.19c.39-.1.89-.09,1.13-.33s-.31-1.22.84-.59a3.85,3.85,0,0,0,3.54-.07,10.06,10.06,0,0,1,3.37-.3c1.53-.09,1.92-.48,2.09-2,.24-2.24.89-4.41.73-6.71a63.93,63.93,0,0,1,0-6.64c.05-1.39.67-2.88.31-4.12a20,20,0,0,1-.31-4.4c-.09-1.5-.05-3,0-4.54a8.59,8.59,0,0,1,.3-2.32C507,34.09,507.31,33.88,511,34c.14.39.29.79.6,1.66l1.42-3c-.16.09,0-.1.22-.1,3.13.1,3.12.09,5.65-1,.37-.16,1-.4,1.15-.25.75.8,1.21.49,2,0a1.7,1.7,0,0,1,2.34.83A5.55,5.55,0,0,1,519.68,36c-1.16.14-.19.82-.25.9a9.52,9.52,0,0,1-1.75,1.89,15.15,15.15,0,0,1-1.85,1.17l-3-1.57c0,1.33-.88,2.46.94,2.59.09.2.26.39.26.59,0,7.92.07,15.85,0,23.77a3.42,3.42,0,0,0,1.33,3.1c-.46.45-1.13.81-1.24,1.29-.3,1.46-1.32-1-1.68.37-.08.28-1.2.28-1.84.61a25.76,25.76,0,0,0,5.22.31l1.3-1.3L520.33,72c-1.38.66-2.74,1.27-1.88,3.25l2.8-3.11c1.1,1.89,3.62,2.39,3.17,5.18-1.38-.09-2.75.42-3.9-.69-1.09.84-2.22.11-3.25-.09-.67-.13-1.74-.84-.83-2.05.12-.16-.12-.68-.31-.94s-.49-.13-.71-.07c-.41.12-1,.21-1.16.5-.38.65-.44,1.31-1.55,1.31a9.87,9.87,0,0,1-3.19-.83c-.27-.09-.23-1-.44-1.48a.92.92,0,0,0-.69-.51c-.23,0-.67.36-.65.52a2.44,2.44,0,0,1-1.27,2.34l-.31-2.11-.34,0c-.1.8-.2,1.6-.31,2.45-.12.07-.31.27-.5.27-2.33,0-4.68-.15-7,.08-1.47.14-2.78-1.35-4.36-.12-.74.57-.82-1.5-2.05-1A6.55,6.55,0,0,1,489,75c-.38,0-.74-.52-1-.71l.92-3-.46-.22c-.4.62-.81,1.24-1.22,1.86-1.8-.59-2.73-1.89-3.82-3.3A35.47,35.47,0,0,1,479.37,64a14.75,14.75,0,0,1-1.77-6.61c0-5.36,0-10.72,0-16.17l-8-6.6c-2.32-.26-1.72-1.91-1.71-3.63,1.78.49,3.46,1.65,5.1.21,1.74.6,3.56.9,5.29,1.42,1.56.46,3.19.63,4.72,1.25,1.27.51,2.21,1.21,2.3,2.55a11.3,11.3,0,0,1,.18,3.65c-.23,1.05.84,2.36,1.23,3.59a2.14,2.14,0,0,1-.19,1.3,12.08,12.08,0,0,0-.33,7.12c.44,2.13.35,4.4,1.25,6.44a10.24,10.24,0,0,0,.72,1.8c1.62,2.28,3.11,4.69,5.33,6.48C493.67,67,494.06,66.93,494.75,67.09Z"/><path d="M402.68,159.8l-2.86.34,2.22.78.64-.58V174.5c0,2.22.07,4.44,0,6.65s.45,4.47-.48,6.62l1.07.28v3.58l2.66,2.67c2.76-.76,5.59-1.6,8.19.46l2.45-1c1,1.51,1.73-.68,2.66-.22s1.72.91,2.62,1.27,1.58,1,2.57.2c.15-.12,1.05.68,1.77,1.16.74-.67,2.39-.55,2.45-2.44l-2.35-.39a33.5,33.5,0,0,0,7.24-9.53h3.22c1,2.19-.69,4.2-.38,6.26.18,1.2-1.75,0-1.17,1.35.25.56.51,1.55.24,1.82-.72.73-.25,1.6-.57,2.24-.63,1.26-.8,2.65-1.75,3.87a4,4,0,0,1-3.41,1.9,64.15,64.15,0,0,0-7.34.05c-2.05.23-3.91-.91-6.11-.19-1.89.62-4.15.13-6.25.13.06-.68.12-1.32.17-2l-2.22.51-1.52-1.4c-.13.68-.25,1.32-.4,2.09l-2.33-1.17c-1.26.22-2.42,2.42-4.18.57-.11-.11-.7,0-.9.23a1.67,1.67,0,0,1-2.17.18,3.67,3.67,0,0,0-4.32.57,8.62,8.62,0,0,1-7.52,1.62,3.4,3.4,0,0,1,1.27-3.62,32.08,32.08,0,0,1,5.87-4.39c2.09-1.06,2.55-2.55,2.54-4.55,0-5.95,0-11.89,0-17.84V149l2.24-1.1,1.67,1.44,1.17-2.45-1.47-.64-3.16,1.24c-.76-1.17-.63-2,.23-2.64-1.06-.75-.45-1.91-.72-2.84a13.21,13.21,0,0,0-1.36-2.43c.45-.9,1-2,1.73-3.41-.82.11-1.46,0-1.68.27a25.5,25.5,0,0,0-1.72,2.72l-4.84-5.51c1.72-.9,3.53.37,4.84-1,0,0,.51.62.74.6a4.45,4.45,0,0,1,4.95,2.63c1.67-1.92,3.56-2,5.49-1.91.7,0,1.65.27,2-.08,1.46-1.32,2.7-.38,4.1.11.91-.63,1.57-2.09,3.11-1.22a1.71,1.71,0,0,1-.71,2.37c-2.78,1.46-4.53,4.3-7.52,5.49-.92.36-.73,1.31-.73,2.12,0,4.9,0,9.79,0,14.69Z"/><path d="M529.54,533.63v-2.1l3.66,1.89c1.08-3.67,4.08-3.47,6.61-3.75,1.84-.21,3.59-.21,5-1.86,0-2.3,0-4.74,0-7.17a7.5,7.5,0,0,1,1.61-4.95,20,20,0,0,0,2.36-3.91,19.63,19.63,0,0,1,4.08-5.29H555c.11.19.34.38.33.56-.21,3.75,0,7.62-.83,11.22-.79,3.24-.13,6.38-.64,9.51l1.88,1.78c2.87.3,6.21-.94,8.46,2.4,1.93-1.8,3.92-1.37,6-.53a5.55,5.55,0,0,0,1.3.26c1.85.29,1.91.37,1.91,2.72h-2.68c.23-.65.43-1.19.66-1.85h-2.5l.61,2.37-3.66,1c-1.09-1.28-2.18,0-3.27,0s-2.57-.32-3.38.22c-1.23.82-2.49.1-3.61.65a5.3,5.3,0,0,0-1.61,4.23c.07,3.74,0,7.47,0,11.2,0,.8.23,2-.19,2.32-1.14,1,.28,1.31.28,2,0,4.56,2.8,7.22,7,9.17v5.12c.63-1.51.95-2.39,1.36-3.24a1.77,1.77,0,0,1,2.3-1,2.22,2.22,0,0,0,2.66-1.12l-2.27-.35a7.61,7.61,0,0,1,.43-1.17c1.23.25,1.88-.57,2.66-1.27,1.26-1.12,2.49-2.28,3.82-3.34a8.19,8.19,0,0,1,6.23-1.7c1.09,2.33-1.27,3.42-1.66,5.12a2.1,2.1,0,0,1-1.73,1.57c-1.83-.64-2,.89-3.06,1.88l1.93.84c-1.18,2-2.19,4-4.32,5.27a6.48,6.48,0,0,1-5.53.33,4,4,0,0,0-2.87,0,7.23,7.23,0,0,1-5.61,0c-1.61-.76-3.59-1.14-4.29-3.32-.17-.54-1.42-.77-1.54-1.74-2.36-.82-3.3-3.1-3.8-5s-1.82-4.15-.48-6.51c.41-.72-.35-2-.37-3.07-.05-4.08-.08-8.16,0-12.24a7.1,7.1,0,0,0-.88-3.15,2.58,2.58,0,0,0-1.33-.95c-.79-.33-1.79-.34-2.42-.85-.81-.64-1.27-.71-2.05,0-.12.11-1.51-1.31-1.71-1.17a2.8,2.8,0,0,1-3.21-.28C532,533.48,530.76,534.15,529.54,533.63Z"/><path d="M552.94,31.09c3,.11,6.26-.8,8.4,2.15a4.72,4.72,0,0,0,.8-.24,4.27,4.27,0,0,1,3.41-.51,36.66,36.66,0,0,1,3.9.72c1.19.34,1.45,1.33,1.19,2.62h-2.85c.25-.66.46-1.19.71-1.83h-2.43c.16.69.35,1.47.59,2.44-1.33.33-2.87,1.23-3.77.8a2.88,2.88,0,0,0-2.66.08c-1,.31-2.09,0-3.12.1-.86.09-1.67.55-2.52.65-2.47.27-3.44,1.25-3.47,3.86,0,4,0,7.93,0,11.89,0,.79.15,1.84-.28,2.3-.85.9.35,1.06.35,1.67,0,4.77,2.89,7.42,7,9.45v4.9c.63-1.34,1-2.12,1.36-2.88.6-1.19,1-1.36,2.42-1.09a2.15,2.15,0,0,0,2.5-1.13l-2.17-.46a4.93,4.93,0,0,1,.25-1c1.76.09,2.55-1.31,3.63-2.26a47.11,47.11,0,0,1,4.18-3.44c1.46-1,3.22-.86,5.11-.77a3.27,3.27,0,0,1-.87,3.58c-.91.91-.88,2.67-2.48,3.06a1.66,1.66,0,0,1-.77-.1l-2.48,1.81,2.06,1.16c-.73,1.11-1.36,2.26-2.17,3.28-2.06,2.6-4.72,3.19-7.86,2.23a4.52,4.52,0,0,0-2.57-.11,9.13,9.13,0,0,1-7.39-.66c-1.49-.77-2.2-2-3.2-3.08s-2.47-2-3.39-3.51a19.56,19.56,0,0,1-1.78-4.53,9,9,0,0,1-.24-4.55,18.82,18.82,0,0,0-.26-3c0-4.08,0-8.17,0-12.25a4.59,4.59,0,0,0-.54-2.59c-.57-.93-.83-1.81-2.1-1.73s-2.3-2.6-4-.72c-.16-.16-.33-.32-.49-.49-.65-.7-1.28-1.49-2.21-.31,0,0-.3-.21-.47-.27-1.78-.56-3.48-1.46-5.63-.83.1-1,.15-1.68.22-2.46a5.36,5.36,0,0,1,1.16.45c1.79,1.37,1.78,1.37,3.39-.41.38-.44.76-1.08,1.24-1.2a27.44,27.44,0,0,1,4.59-.74c2.41-.14,2.41-.07,4.87-1.69,0-2.24,0-4.66,0-7.08a8.69,8.69,0,0,1,1.69-5.26c1-1.4,1.6-3.07,2.54-4.53.78-1.22,1.83-2.26,2.68-3.44s2-1.33,3.66-.95c-.47,1.89.74,4-.75,5.84-.12.15,0,.46,0,.69-.23,4.1-.38,8.21-.74,12.3A4.09,4.09,0,0,0,552.94,31.09Z"/><path d="M548.14,403.05c.75.74,1.33,1.31,1.91,1.9,3,.18,6.25-.82,8.53,2.31l2.62-1.53c.79,1.34,2.44,0,3.37,1.08.23.26.84.19,1.27.26,1.73.27,1.73.27,2.12,2.64l-3,.21c.3-.81.51-1.35.75-2h-2.49c.19.8.39,1.59.59,2.4l-3.68.95c-1.09-1.35-2.18,0-3.27,0s-2.57-.32-3.37.22c-1.23.83-2.5,0-3.61.65a5.31,5.31,0,0,0-1.59,4.25c.06,3.73,0,7.46,0,11.19,0,.8.21,1.94-.22,2.32-1,.87.38,1.07.24,1.66-.5,2.16.78,3.86,1.75,5.55.87,1.53,2.92,2.81,5.31,3.84v5.2c.61-1.49.93-2.4,1.34-3.26a1.8,1.8,0,0,1,2.32-.92,2,2,0,0,0,2.55-1.16l-2.21-.33a6.67,6.67,0,0,1,.49-1.17c1.43.31,2-.79,2.89-1.54,1.17-1,2.37-2.08,3.58-3.07a8.14,8.14,0,0,1,6.31-1.69c.32,1.37.36,2.51-.85,3.46a2.48,2.48,0,0,0-.95,1.66c0,1.34-1.36.95-1.75,1.69-1.57-.87-1.83.72-2.88,1.54l1.76,1.15c-1,1.89-2.09,3.93-4,5.09a7,7,0,0,1-5.85.47c-.72-.24-1.79-.65-2.23-.33-1.28.92-2.63.57-4,.61a7.53,7.53,0,0,1-6.31-3.17c-.41-.52-.63-.92-1.28-1.16s-.12-1.06-1.12-1.37c-1.32-.41-3.06-3.94-3.33-5.44-.38-2-1.52-4,0-6.05-1.4-2.37-.43-4.95-.61-7.43s0-4.89,0-7.34a4.49,4.49,0,0,0-.64-2.9c-.54-.74-.79-1.42-1.89-1.59-.91-.14-1.71-.93-2.63-1.19-.49-.14-1.17.43-1.66.3s-1-1.18-1.24-1.09c-2.58,1.07-4.65-1.65-7.2-.63v-2.15a3.15,3.15,0,0,1,.47-.08c1.17.05,1.55,2.08,2.89,1.34.78-.43,1.11-1.66,1.89-2.1a9.71,9.71,0,0,1,5.38-1.33,5.33,5.33,0,0,0,4.63-1.78c0-2.34,0-4.78,0-7.22a10.75,10.75,0,0,1,1.63-4.92c.92-1.48,1.65-3.06,2.59-4.52.78-1.22,1.8-2.28,2.61-3.48s2.06-1.28,3.63-1.15c-.24,1.95.77,4-.6,5.88-.17.23,0,.67-.06,1C548.72,393.61,548.43,398.4,548.14,403.05Z"/><path d="M726.15,39.22l-1.68.61,1.68.56v3.25c0,1.17.07,2.34,0,3.5s.54,2.35-.68,3.21c1.22.85.58,2.12.68,3.21s0,2.09,0,3.14V67.15l6.92,5.27c-.28.72-.49,1.26-.93,2.36l1.51-1c1.1,0,2.07,1.41,2.23,3.35-3,.74-5.2-1.19-7.34-2,.17-1.1.29-1.9.41-2.7l-.42-.15-2.31,2.93-3.79-1.11.85-1.49-.95-1c-1.2,1-3,1.1-3.69,2.85-.13.34-.95.57-1.46.59-1.84.07-3.69,0-5.53,0,0-2.27,0-2.27,1.52-2.8a22.15,22.15,0,0,0,3.61-2.92,14.2,14.2,0,0,0,.26-2.34c0-2,.06-4,0-6a9.06,9.06,0,0,1,.68-3.89c-1.31-1.12-.46-2.61-.64-3.92-.2-1.46-.18-2.91,1.66-3.85l-1.54-.34V10.06c-1-1.59-3.47-2.37-1.63-4.62-1.35-.74-2,0-2.55,1.51-1.76-2.42-5.56-2.71-5.85-6.95a7.11,7.11,0,0,1,1.69.88,2,2,0,0,0,2.69.46,9.6,9.6,0,0,1,3.17-.42l.59,1.71c.22-.63.35-1,.54-1.6l3.75.86.95,2.61.52-.06c.09-.59.19-1.18.28-1.77,2.09-.2,3.21.26,3.77,1.86.72,2.06,1.78,4.09.63,6.4-.25.49.56,1.47.35,2-.58,1.5,0,2.9,0,4.34C726.2,24.61,726.15,31.94,726.15,39.22Zm-2.08,11.11-.54-.56c-.65.55-1.59,1-1.91,1.67-.89,2-2.44,3.6-3,5.73,0,.09-.11.19-.09.24a1.54,1.54,0,0,0,.25.27h1.37c.58-1,1.69-2.09,1.63-3.07C721.64,52.56,722.85,51.51,724.07,50.33Z"/><path d="M515.41,413.18l-1.65.55,1.65.58v4.42c0,1.52.37,3.16-.1,4.51-.55,1.59.38,2.89.15,4.36a29.88,29.88,0,0,0-.05,4.54V441l7,5.41-1.15,2.13,1.8-.86c.2.08.46.09.6.23a3.89,3.89,0,0,1,1.57,3.06c-1.42.31-2.75.51-4.1-.45a5.83,5.83,0,0,0-2.14-.72c-1.28-.29-1.56-.86-.82-2,.2-.31,0-.87,0-1.4-.33.1-.5.14-.66.2-1.19.45-1,2.41-2.4,2.43a11.12,11.12,0,0,1-3.12-.86c-.89-.7,1.92-1.91-.61-2.33.11-.05-.07,0-.21.1-1,.84-2.69.77-3.17,2.42-.21.74-1,.77-1.76.75-1.75,0-3.49,0-5.26,0-.87-1.3-.18-2.11.87-2.81,1.66.81,1.59-1.31,2.76-1.66s1.88-1.78,1.7-3.41a41.6,41.6,0,0,1,0-5.24c0-1.56-.24-3.18.69-4.61-1.31-1.37-.46-3.07-.69-4.6a2.57,2.57,0,0,1,1.57-3.14c-.66-.38-1.44-.57-1.51-.9a13.65,13.65,0,0,1-.07-2.79V383.79c-.47-1.38-3.45-2.06-1.49-4.36-1.53-.34-1.53-.34-2.69,1.18q-2.46-2-4.93-4a1.62,1.62,0,0,1-.4-2.4c1.55.72,2.65.85,5.42.66.57,0,1.14,0,1.75,0,.17.46.31.86.56,1.55l.64-1.46,3.6.79c.34.77.75,1.73,1.44,3.34l.46-2.73a3,3,0,0,1,3.79,2.18c.58,2,1.65,3.93.67,6.14a2.56,2.56,0,0,0,.32,2c.65,1.14-1.51,1.73-.36,3.11.59.71.31,2.19.31,3.33C515.42,399.72,515.41,406.37,515.41,413.18Zm-2.2,10.72a2.57,2.57,0,0,0-2.49,1.58c-1.14,1.83-2,3.81-3,5.73,0,0,.13.16.25.3h1.64c.54-1.33,1.52-2.64,1.47-3.92C511,425.78,512.79,425.38,513.21,423.9Z"/><path d="M459.54,550.84c0,5.92,0,11.14,0,16.35,0,.26.39.52.74.95a14.18,14.18,0,0,0-1.12,1.25,9.1,9.1,0,0,0-.64,1.13c.34.11.6.25.66.2.65-.66,1.27-1.35,2.08-2.24l6.91,5.67-8.65,1.1-.24-2.14-5.27-1c-.15.86-.27,1.5-.4,2.24l-10.74,1.51a1.83,1.83,0,0,1,.48-2.56L451,567v-2c0-7.23-.08-14.46.07-21.7,0-1.44-.63-2.58-.85-3.89a2.48,2.48,0,0,0-2.35-2.11c-1.54-.08-1.39-.73-1.19-2.07a4.38,4.38,0,0,1,1.64-3.24l-1.61-.58,2.21-1.15c1.07.43.77,2.28,2.25,2.13,1-.11,1.93-.37,3.11-.6l2.16,2.48c1-.3,1.4-2.37,3.22-1.9.07,0,.25-.53.45-.76.82-.93,1.38-.86,2.1.25a5.74,5.74,0,0,0,.61.79,3.5,3.5,0,0,0,.55.45l1.84-2.74c2.42-.25,4.86.41,7.11-.75.19-.09.48,0,.69,0,1-.28,1.73.64,2.51.63s1.53-.7,2.52-.66a3.61,3.61,0,0,1,3.55,2.29,42,42,0,0,1,3,10.29c.1.74.56,1.43.64,2.17s-.87,1.18.13,2H481l.53-.66-7.84-8.44c-2.21.27-4.43.66-6.67.8s-4.42,0-6.62,0c-1.48,4-.92,8.14-1.05,12.47l-3.36.24v1.76C457.43,553.41,458.16,552.12,459.54,550.84Zm6.68-14a9.93,9.93,0,0,1,2-1.56c.89-.38,1.57-.68,1.65-1.79a2.27,2.27,0,0,0-1-2.36c-1.6.93-1.49,1-2.68,3.12C465.75,535.1,465.34,535.73,466.22,536.8Z"/><path d="M407.64,66.54c-.76.33-1.38.41-1.46.66-.56,1.87-2.44,3.23-2.1,5.44,0,.22,0,.47,0,.69a1.63,1.63,0,0,1-1.23,1.83,1.7,1.7,0,0,1-2.07-.82,9.18,9.18,0,0,1-.55-1.51c-.46,1.91-1.46,2.66-3.21,2.4a2.68,2.68,0,0,0-1.94.29c-1.23,1-1.56-.21-2.1-.6l1.44-2.11c-1.7.66-3.41.43-5,1-3.87-2.52-7.33-5.43-9.19-9.85-.63-1.49-1.92-2.79-1.25-4.72l1.88-.28V58.6l-2.74-.33c0-3.15,0-6.38,0-9.61s1.94-5.5,3-8.49h3.21l-2.17-1.06a20.13,20.13,0,0,0,3-2.93c1.81-2.61,4.95-2.81,7.36-4.32a2.17,2.17,0,0,1,2.8.69,6.9,6.9,0,0,0,1.3,1c.25-1,.42-1.7.59-2.39,1.8.69,1.8.69,1.77,3.23-1.62.22-2.26,1.25-1.91,3.2l-2.36-.91c-1.65,2.87-1.65,2.87.31,3.85-3.22.62-4.2,3.33-5.52,5.51-1.12,1.84,0,3.14,2.3,3.24.46,0,.92,0,1.67,0-.23,1.79.38,3.45-.58,5.29-.63,1.22-1.16,1.82-2.46,1.71-1.09-.09-2.07,0-2.57,1.26.78,1.26.6,3,2.06,4.05.33.24.05,1.33.05,1.92l4.45,2.29c-.34.55-.56.92-.81,1.34a7.72,7.72,0,0,1,2,5.31c1.25-.69,1.83-1.67,1.16-2.6s-.45-1.9-.38-3.15c5,2.29,9.08-.31,12.81-2.9a53.53,53.53,0,0,0,6.11-4.46l2.15,2.22.91-2c.91,2.2-.58,3.77-1.5,4.9-1.49,1.84-2.35,4-3.81,5.82a16,16,0,0,1-4.66,4.36c-1.11.59-1.84.75-2.67-.18a1.5,1.5,0,0,1,.24-2.39,2.23,2.23,0,0,0,.83-1.77A28.27,28.27,0,0,1,407.64,66.54Z"/><path d="M584.72,557.73l2.09-.31,0-.46H584c0-3.72-.16-7.21.07-10.68a15.88,15.88,0,0,1,1.52-4.59,30.11,30.11,0,0,1,1.53-2.91l3.11-.31-2.1-.75c1.66-1.67,3.08-3.53,4.91-4.79a25.48,25.48,0,0,1,5.91-2.59,1.81,1.81,0,0,1,2.18.59,6.81,6.81,0,0,0,1.51,1.06c.2-1,.35-1.71.5-2.46,2.2.31,1.84,1.85,1.86,3.19-1.85,1-1.85,1-2.45,3.3l-2-.95a22.09,22.09,0,0,0-1.14,2.15c-.5,1.28.57,1.47,1.38,1.81-.8.33-1.83.45-2.33,1a21.37,21.37,0,0,0-3.2,4.61c-.84,1.75.22,3,2.29,3.12.55,0,1.11,0,1.66,0,.28,4.37.28,4.37-1.51,7a12.9,12.9,0,0,0-2.23,0,3.13,3.13,0,0,0-1.41.78c-.61.53-.08.93.18,1.45.44.86.38,1.87,1.22,2.68.52.51.43,1.66.62,2.55a18.43,18.43,0,0,1,2.07.74,20.67,20.67,0,0,1,2,1.25c.23.69-.84,1.22,0,2.23s1.18,2.74,1.72,4.16a1.48,1.48,0,0,0,.79-2.46c-.65-1-.41-1.89-.2-3.07,3.87,2.06,7.28.48,10.41-1.31s5.8-4.09,9-6.39c.6.61,1.29,1.32,1.92,2,.1-.26.24-.66.64-1.76.08,1.28.38,2.06.11,2.42-1,1.33-1.36,3-2.61,4.22s-1.93,2.9-2.87,4.38a12.71,12.71,0,0,1-4.54,4.41c-1,.57-1.78,1-2.67,0s-.66-1.81.24-2.65a2.19,2.19,0,0,0,.64-1.12c.25-1.27.39-2.57.61-4.12a3.57,3.57,0,0,0-1.19.35c-.34.26-.79.73-.75,1,.23,1.71-2.24,2.48-1.45,4.33a1.34,1.34,0,0,1,0,.35c.09,1.11-.16,2.11-1.4,2.35-1.45.29-2-.75-2.34-2.11a6.11,6.11,0,0,1-1.22,1.75,5.05,5.05,0,0,1-1.92.38l-3.4.61-.75-.95,1.41-2c-.35-.19-.55-.38-.65-.34-.9.39-1.87,1.26-2.62,1.09s-1-.39-1.55.15a.66.66,0,0,1-.65,0,50.66,50.66,0,0,1-6.09-5.49,38.29,38.29,0,0,1-4-6.72C584.47,559.48,584.72,558.65,584.72,557.73Z"/><path d="M574.15,28.58a9.51,9.51,0,0,1,6.73.57,8.31,8.31,0,0,0,2.58.53c3.4.28,6.6,1,8.87,3.77.43,1.35-.49,2.81.54,4l.25.24c-2.26,2.15.23,4.84-1,7.25H585.6c-.07.5-.13.9-.2,1.39,1.87-.68,3.51-1.17,5,.46.19.21,1.07-.21,1.82-.39.4,1.58.08,3.16.21,4.62l-2.87,1.06.07.51,2.53.26c.08.2.24.4.24.59,0,4,.13,7.94,0,11.9a3.42,3.42,0,0,0,1.55,3.22c2.05,1.47,4.19,2.81,6.28,4.23a6.44,6.44,0,0,1,.84,1h-4.44c1,2,2.67,1.37,4,1.35,2.07,0,2.07-.14,2.26,2.16-1.31-.29-2.59.5-3.87-.67-.49-.45-1.51-.06-2.09.59-1.82-1.1-4-.95-5.93-1.73-.82-.34-1.62-.52-1.43-1.84a5.1,5.1,0,0,0-.78-2.43c-.09-.2-.58-.21-1.07-.37a9.55,9.55,0,0,1-.4,2.71,4,4,0,0,1-1.75,1.58,15.48,15.48,0,0,1-2.75.76c-.11-.93-.22-1.88-.35-2.94-.49.15-1,.16-1.08.35-1,2.48-1,2.49-3.56,2.51-.47-2.28,1.3-3.11,2.69-4.13A10.3,10.3,0,0,1,582,71a3.49,3.49,0,0,0,2.11-3.5c-.09-9.33-.07-18.66,0-28a4.27,4.27,0,0,0-2.44-4.2c-1.35-.73-2.51-2-3.91-2.35-1.67-.35-1.54-2.33-3.08-2.64C574.35,30.25,574.3,29.16,574.15,28.58Z"/><path d="M409.62,526.85c2.77-.15,5.1-.17,7.25,1.13a2.71,2.71,0,0,0,1.65.19c1.52-.23,2.86.4,4.27.7a8.08,8.08,0,0,1,4.87,3c.23,1.48.43,2.81.65,4.13,0,.09.24.22.23.24-.69,1-1.29,1.89-.74,3.35.42,1.11.09,2.51.09,4H421v1.21c1.74-.56,3.39-1.09,4.89.51.2.22,1.06-.19,1.82-.35.48,1.55.09,3.13.25,4.61l-2.81,1,0,.52,2.49.28c.07.07.22.15.22.23,0,4.66,0,9.32,0,14.23l8.87,6.45H432c1.14,2.18,2.93,1.35,4.35,1.36,1.76,0,1.76-.17,2,2.13-1.31-.2-2.57.52-3.87-.61-.5-.44-1.54-.16-2.09.61-1.81-1.16-4-1-5.93-1.75-.78-.31-1.69-.44-1.46-1.81a5.11,5.11,0,0,0-.75-2.44c-.09-.21-.58-.25-.9-.37-.68,3.34-.68,3.34-5.06,5.09-.14-1-.28-1.94-.45-3.14-.51.32-1,.45-1.14.73-.8,2.22-.78,2.23-3.43,2.29-.41-2.42,1.3-3.25,3-4.2,1.15-.66,2.21-1.49,3.24-2.2,0-10.11-.05-20,0-29.93a4.33,4.33,0,0,0-2.42-4.21c-1.33-.76-2.5-2-3.9-2.36-1.76-.4-1.68-2.54-3.34-2.85C409.7,528.6,409.71,527.61,409.62,526.85Z"/><path d="M618.21,552.48c-.58-.88-1-1.46-1.43-2.19l-1.14,2.17,1.47.58-1.35,1.18a6.58,6.58,0,0,0-6.73-.05,5.39,5.39,0,0,1-2.54.63h-5.24c-1.55-4.66-1.55-4.66.51-7.6a13.67,13.67,0,0,1,3,.07c.37.09,1.82.78-.25,1.79h3.88l.07-.32-1-.24c-.32-.07-.64-.1-1.35-.21.82-.53,1.34-1.16,1.84-1.14,2.65.09,3.78-1.89,5.11-3.57a2.38,2.38,0,0,0-.28-3.07c-1-1.08-2-2.12-3.18-3.29,2.22-1.58,4.91-1.16,6.84-3.12l.75,1.72c.15-.12.4-.22.42-.35a1.84,1.84,0,0,0-.78-2.1c-.12-.08-.43-.1-.47,0-.94,1.56-2.06-1.25-2.87.09s-2.34.68-3.32,1.27-1.8,1.8-2.81,2.56c-.45.35-1.23.27-1.79.37l-1.84-1.52c.36-1,2.62-.65,2-2.53.79-.84,1.57-1.69,2.44-2.63,1.81.43,3.82-.68,5.58.71,1.32-1.3,2.75-.75,3.92.08,3.22,2.27,5.53,5.2,5.53,9.37a21.05,21.05,0,0,1-.31,4.72C622.26,548.61,620.38,550.23,618.21,552.48Z"/><path d="M402.22,32.36c2,.55,3.88-.59,5.56.67.06,0,.2.09.24.06,1.25-1.2,2.54-.74,3.63.13a21.9,21.9,0,0,1,3.61,3.46c3,3.82,2.52,8.09,1.28,12.39a3.58,3.58,0,0,1-.74,1.42c-1,1.1-2.09,2.12-3.23,3.26l-1.89-1.59L409.75,54l1.74.59-2.22.73a7,7,0,0,0-6.25.44,4.14,4.14,0,0,1-2.21.58h-5.53c-1-2.61-1.82-5.14.74-7.7a12,12,0,0,1,2.77.08c.35.07,1.74.71.15,1.83h3.74l0-.28-2.42-.46c.87-.51,1.43-1.09,2-1.13,2.81-.19,4-2.25,5.25-4.3.25-.43,0-1.14,0-2.34l-3.51-3.52c1.81-1.58,4.8-.7,6.59-3,.25.85.31,1.17.43,1.46a2.16,2.16,0,0,0,.39.48,1.58,1.58,0,0,0-.37-2.39,3.84,3.84,0,0,0-.49-.27c-.87,1.79-2.24-1.21-3.13.33-.73,1.28-2,.87-3.12,1a8.34,8.34,0,0,1-5,3.3c-.36-.41-.9-1-1.59-1.76a9.93,9.93,0,0,1,1-.75c.36-.22,1.12-.42,1.1-.51C399.45,34.33,401.4,33.89,402.22,32.36Z"/><path d="M127.9,304.14c-2.21-2-1.73-4.38-1.78-6.6-2.34-1.31-3-2.75-2.06-4.76.25-.52,1-1.23,1.44-1.17,1.69.25,2.49-.87,3.42-1.86,0-1.28,0-2.56,0-3.84.14-2.77,2.46-4.14,5-3,.6.26,1.17.58,1.9.95-.1,1.31.47,2.52-.53,3.87-.51.68-.24,2.06,0,3.07.11.53.75,1,1.25,1.4.68.49,1.67.65,2.16,1.25,1.43,1.8.78,3.49-1.53,4.37s-2.55,1.21-2.63,3.63-.33,2.65-2.83,2.67Z"/><path d="M583.64,12.18c1.77,0,3.52,0,5.26,0a4.18,4.18,0,0,1,4.2,4.19c0,2.25.39,4.55-.68,6.69a5.85,5.85,0,0,1-.8,1.4c-.12.13-.65-.13-1.06-.23l-.64,1.38-.54-1.53-1.62,1.42c-.33-.08-.65-.06-.73-.19-1-1.66-2.67-1.49-4-1.12-.84.23-1.62,1-2.38.28a4.6,4.6,0,0,1-1.45-2.5,42.45,42.45,0,0,1,0-6.28,1.39,1.39,0,0,1,1.61-1.39C582.44,14.51,583.23,13.62,583.64,12.18Z"/><path d="M426.84,523.28l-.74-.7-.72,1.53-.55-1.52-1.76,1.57c-1.66-1.33-3.22-2.43-5.44-.94-1.09.73-2.87-.89-3-2.75a45.39,45.39,0,0,1,0-6.28c.07-1,.9-1.51,2-1.4,1.39.14,2.15-.49,2.34-2.1,1.79,0,3.63,0,5.46,0a4.44,4.44,0,0,1,4.2,3.51,24.3,24.3,0,0,1-.77,8.06C427.66,522.67,427.19,522.94,426.84,523.28Z"/><path d="M127.37,322.35c1.07.29,2.49-.53,3.76.42.12.09.47-.14.72-.2,1.84-.41,2.59.08,2.67,1.8a17.19,17.19,0,0,1,0,2.78,7.44,7.44,0,0,1-.69,2.14c-.63,1.3-2.57,2.54-5,3.31a3.33,3.33,0,0,1-3.12-.39c-2.46-1.55-4.72-6.39-3.68-8.84a2.34,2.34,0,0,1,1.63-1A30.11,30.11,0,0,1,127.37,322.35Z"/><path d="M132.75,318.85a29,29,0,0,0-3.94,0,3.89,3.89,0,0,1-4.09-1.87c0-2.45,0-4.9,0-7.35,0-1.47.59-1.87,2.09-2,1.31-.15,2.57.25,4-.56s3.74,1.16,3.71,3.07c0,.87.23,1.74-.44,2.63a2.78,2.78,0,0,0-.19,2.3C134.45,316.58,134.06,317.69,132.75,318.85Z"/><path d="M124.55,337.14h4.36c.28,1.67,2.18,2.42,2.16,4.36a2.65,2.65,0,0,1-1.22,2.62c-1.57.81-3.12,2.19-5.09.66a18.62,18.62,0,0,0-2.8-1.52v-3.81C122.71,338.77,123.57,338,124.55,337.14Z"/><path d="M642.9,25c-1.36,3.36-1.36,3.36-4.77,3.17-.07-.08-.19-.17-.19-.26,0-.92,0-1.83,0-2.91Z"/></g></svg>
