<svg xmlns="http://www.w3.org/2000/svg" viewBox="0 0 567 486" width="567" height="486"><title>Aunt Millie's</title>
<path id="path179" d="M137.681,485.378c-3.965,-0.273 -9.125,-0.838 -11.467,-1.254c-2.343,-0.416 -6.437,-1.357 -9.098,-2.09c-2.661,-0.734 -7.157,-2.312 -9.991,-3.508c-2.835,-1.195 -7.587,-3.799 -10.561,-5.786c-2.974,-1.986 -6.492,-4.741 -7.819,-6.122c-2.182,-2.271 -2.534,-3.163 -3.703,-9.39c-0.71,-3.784 -1.629,-9.534 -2.043,-12.778c-0.413,-3.243 -0.901,-6.604 -1.084,-7.469c-0.332,-1.568 -0.348,-1.57 -7.012,-1.159c-3.674,0.227 -10.071,1.019 -14.215,1.76c-4.145,0.741 -11.959,2.495 -17.365,3.899c-5.406,1.403 -13.957,4.007 -19.002,5.787c-5.046,1.779 -10.552,3.771 -12.236,4.426c-2.547,0.992 -3.235,1.048 -4.095,0.334c-0.569,-0.472 -1.034,-1.416 -1.034,-2.098c0,-0.682 8.109,-13.599 18.02,-28.706c9.911,-15.106 18.019,-27.61 18.019,-27.785c0,-0.176 -9.566,-8.492 -21.259,-18.48c-11.693,-9.989 -21.414,-18.564 -21.603,-19.056c-0.189,-0.493 -0.175,-1.336 0.031,-1.873c0.207,-0.538 2.264,-1.561 4.573,-2.274c2.308,-0.713 9.134,-2.359 15.167,-3.657c6.033,-1.297 15.097,-3.057 20.143,-3.909c5.045,-0.853 13.154,-2.006 18.02,-2.563c4.865,-0.557 13.858,-1.348 19.985,-1.756c6.387,-0.426 16.092,-0.566 22.749,-0.327c6.385,0.229 12.47,0.588 13.522,0.799l1.913,0.382l-1.907,-7.766c-1.048,-4.271 -2.619,-11.599 -3.491,-16.285c-0.871,-4.685 -2.046,-12.351 -2.611,-17.036c-0.564,-4.685 -1.166,-9.772 -1.336,-11.304l-0.31,-2.784l4.305,-0c4.252,-0 4.352,0.041 8.015,3.327c2.04,1.83 6.533,5.19 9.984,7.468c3.452,2.278 8.103,5.065 10.337,6.192c2.234,1.128 5.805,2.497 7.936,3.043c2.13,0.546 6.153,1.201 8.939,1.457l5.066,0.464l1.46,7.988c0.802,4.394 2.528,12.26 3.835,17.481c1.306,5.22 3.865,13.863 5.686,19.205c1.82,5.342 4.809,13.204 6.64,17.471c1.832,4.268 3.761,7.925 4.287,8.127c0.527,0.202 2.914,0.008 5.305,-0.425c2.391,-0.435 9.36,-1.847 15.486,-3.136c6.127,-1.29 11.398,-2.578 11.713,-2.863c0.315,-0.284 5.233,-18.597 10.927,-40.695c5.695,-22.098 10.234,-40.298 10.087,-40.445c-0.147,-0.146 -7.072,0.103 -15.389,0.556c-8.317,0.452 -15.229,0.716 -15.36,0.585c-0.13,-0.13 -0.87,-5.691 -1.644,-12.356c-0.773,-6.666 -1.607,-12.585 -1.853,-13.154c-0.402,-0.932 -0.956,-0.941 -5.589,-0.092l-5.141,0.942l0.363,2.713c0.201,1.493 0.853,6.252 1.45,10.577c0.597,4.324 1.341,8.348 1.652,8.941c0.312,0.593 1.678,1.34 3.037,1.66c1.782,0.42 2.527,0.969 2.672,1.969c0.165,1.142 -0.356,1.565 -2.949,2.391c-1.732,0.551 -4.329,1.177 -5.77,1.39c-1.973,0.291 -3.148,0.062 -4.751,-0.928c-1.566,-0.968 -2.132,-1.795 -2.139,-3.128c-0.005,-0.996 -0.173,-2.424 -0.374,-3.174l-0.366,-1.362l-5.353,1.551c-2.945,0.852 -8.157,2.01 -11.584,2.572c-3.778,0.62 -8.316,0.899 -11.527,0.71c-3.434,-0.202 -6.427,-0.812 -8.515,-1.736c-1.771,-0.783 -6.465,-3.596 -10.431,-6.25c-3.966,-2.655 -9.118,-6.768 -11.451,-9.14l-4.24,-4.312l-29.921,-0l-4.765,-4.511c-2.621,-2.481 -5.776,-5.036 -7.01,-5.677c-1.234,-0.642 -4.595,-1.929 -7.467,-2.861c-3.933,-1.276 -5.436,-2.099 -6.087,-3.333c-0.488,-0.925 -0.732,-2.747 -0.561,-4.185c0.167,-1.401 0.739,-2.984 1.272,-3.517c0.533,-0.533 2.251,-1.217 3.818,-1.519c1.567,-0.303 7.788,-0.564 13.825,-0.579c6.376,-0.017 10.975,-0.286 10.975,-0.643c0,-0.338 -0.427,-2.476 -0.95,-4.751c-0.523,-2.275 -1.244,-7.038 -1.603,-10.585c-0.435,-4.314 -1.043,-7.001 -1.834,-8.115c-0.65,-0.916 -1.995,-2.879 -2.988,-4.363c-0.993,-1.483 -2.27,-4.256 -2.838,-6.161c-0.687,-2.304 -0.879,-4.389 -0.573,-6.225c0.252,-1.518 1.001,-3.831 1.664,-5.138c0.662,-1.308 2.574,-3.583 4.248,-5.057c1.674,-1.473 4.642,-3.277 6.595,-4.007c1.953,-0.731 5.674,-1.658 8.269,-2.061c2.595,-0.403 6.272,-0.549 8.171,-0.326c1.9,0.223 5.818,1.269 8.707,2.323c2.89,1.055 6.995,2.975 9.123,4.268c2.128,1.292 5.343,3.675 7.144,5.295c2.991,2.689 3.366,2.854 4.315,1.905c0.572,-0.571 1.04,-1.328 1.04,-1.68c-0,-0.353 -0.417,-1.437 -0.927,-2.411c-0.51,-0.973 -1.911,-2.687 -3.113,-3.809c-1.202,-1.122 -3.342,-2.805 -4.755,-3.741l-2.57,-1.701l1.914,-0.812c1.054,-0.446 4.422,-0.827 7.485,-0.846c5.074,-0.031 5.978,0.168 10.157,2.241c2.875,1.425 6.115,3.787 8.683,6.329c4.085,4.043 4.1,4.051 5.57,2.843l1.473,-1.211l-1.311,-2.497c-0.777,-1.48 -2.702,-3.412 -4.731,-4.746c-2.753,-1.811 -3.273,-2.428 -2.665,-3.161c0.416,-0.501 1.955,-1.523 3.421,-2.272c1.907,-0.974 4.363,-1.45 8.64,-1.675c4.27,-0.224 7.45,0.012 11.14,0.829c2.84,0.628 6.98,1.963 9.2,2.966c2.22,1.002 5.375,3.057 7.012,4.565c1.636,1.508 3.579,3.991 4.318,5.517c0.912,1.885 1.343,4.081 1.343,6.848c-0,2.24 -0.409,5.022 -0.909,6.182c-0.5,1.159 -2.237,3.643 -3.861,5.519c-2.823,3.262 -2.972,3.641 -3.422,8.725c-0.259,2.923 -1.149,8.73 -1.979,12.904c-0.83,4.174 -1.355,7.988 -1.168,8.475c0.264,0.69 2.489,0.886 10.01,0.886c8.791,0 9.828,0.124 11.397,1.359c1.331,1.046 1.727,1.936 1.727,3.877c-0,1.386 -0.184,2.998 -0.407,3.581c-0.224,0.583 -1.21,1.476 -2.19,1.983c-0.981,0.507 -4.04,1.126 -6.799,1.376c-2.759,0.25 -5.505,0.812 -6.101,1.248c-0.655,0.479 -0.881,1.124 -0.569,1.629c0.36,0.583 1.431,0.715 3.54,0.436c1.664,-0.22 11.575,-3.468 22.027,-7.219c17.589,-6.313 19.017,-6.942 19.202,-8.452c0.11,-0.897 -0.582,-5.12 -1.539,-9.384c-0.956,-4.265 -3.472,-12.728 -5.591,-18.807c-2.118,-6.079 -4.308,-13.459 -4.866,-16.398c-0.616,-3.25 -0.842,-6.504 -0.574,-8.3c0.241,-1.624 0.987,-4.551 1.657,-6.504c0.67,-1.953 2.422,-5.787 3.894,-8.519c1.473,-2.732 4.685,-7.768 7.139,-11.192c2.454,-3.424 7.159,-9.616 10.455,-13.761c3.297,-4.144 7.366,-9.535 9.043,-11.98l3.05,-4.444l-0.755,-6.751c-0.415,-3.713 -1.37,-8.397 -2.123,-10.409c-0.752,-2.011 -1.936,-4.379 -2.63,-5.261c-0.693,-0.882 -2.177,-1.983 -3.296,-2.446c-1.704,-0.706 -3.228,-0.656 -9.366,0.306c-5.775,0.905 -7.9,0.997 -10.006,0.429c-1.471,-0.396 -3.237,-1.342 -3.925,-2.102c-0.9,-0.996 -1.266,-2.419 -1.306,-5.081c-0.031,-2.035 -0.104,-4.067 -0.164,-4.518c-0.06,-0.45 -0.54,-0.819 -1.068,-0.819c-0.528,0 -1.279,-0.596 -1.669,-1.324c-0.389,-0.728 -0.534,-1.607 -0.32,-1.952c0.213,-0.345 -0.234,-1.469 -0.995,-2.497c-1.336,-1.807 -1.345,-1.949 -0.264,-4.214c0.614,-1.289 0.941,-2.804 0.725,-3.366c-0.215,-0.561 -1.439,-1.459 -2.718,-1.993c-1.385,-0.579 -2.59,-1.665 -2.977,-2.685c-0.443,-1.163 -0.427,-2.132 0.048,-3.02c0.385,-0.719 2.302,-3.66 4.26,-6.535c1.957,-2.875 3.558,-5.437 3.557,-5.694c-0,-0.256 -1.103,-1.056 -2.449,-1.776c-1.346,-0.721 -2.559,-1.891 -2.695,-2.601c-0.194,-1.013 -0.055,-1.137 0.647,-0.579c0.493,0.391 1.639,0.844 2.549,1.007l1.653,0.296l-0.015,-6.27c-0.009,-3.448 0.214,-7.349 0.495,-8.669c0.496,-2.332 0.443,-2.423 -1.858,-3.182c-1.303,-0.43 -3.358,-1.65 -4.566,-2.711c-1.208,-1.061 -2.527,-2.927 -2.929,-4.147c-0.529,-1.603 -0.537,-2.944 -0.028,-4.834c0.402,-1.494 1.548,-3.326 2.671,-4.27c1.764,-1.485 1.923,-1.923 1.548,-4.269c-0.23,-1.438 -0.087,-3.564 0.318,-4.724c0.404,-1.161 0.61,-2.237 0.456,-2.39c-0.154,-0.154 -0.733,0.557 -1.287,1.58c-0.555,1.023 -1.013,1.418 -1.02,0.877c-0.006,-0.54 0.542,-2.201 1.218,-3.69c0.764,-1.683 2.337,-3.47 4.154,-4.72c1.608,-1.106 4.201,-2.523 5.762,-3.148c1.561,-0.624 2.548,-1.232 2.193,-1.351c-0.356,-0.118 -2.051,0.208 -3.767,0.724c-2.426,0.73 -2.964,0.751 -2.419,0.095c0.385,-0.465 2.413,-1.613 4.506,-2.553c2.094,-0.939 5.996,-2.23 8.673,-2.87c3.14,-0.75 7.308,-1.149 11.747,-1.126c3.909,0.021 9.279,0.538 12.435,1.197c3.054,0.638 8.362,2.058 11.794,3.154c3.433,1.097 7.704,2.733 9.492,3.636l3.251,1.641l1.008,-1.54c0.555,-0.847 1.865,-2.523 2.912,-3.724c1.047,-1.201 3.034,-2.76 4.415,-3.465c1.381,-0.704 4.21,-1.456 6.287,-1.669c2.467,-0.254 5.1,-0.04 7.595,0.616c2.101,0.552 5.411,1.968 7.356,3.147c1.945,1.179 5.239,3.922 7.32,6.095c2.081,2.173 3.047,3.339 2.146,2.59c-0.901,-0.749 -2.043,-1.593 -2.536,-1.875c-0.494,-0.281 0.427,1.114 2.046,3.102c1.619,1.988 3.402,4.902 3.962,6.476c0.561,1.574 1.168,3.894 1.349,5.155l0.329,2.294l-0.925,-1.966l-0.925,-1.966l0.386,2.703c0.236,1.648 -0.017,4.092 -0.65,6.266c-0.57,1.961 -1.877,4.726 -2.905,6.145c-1.861,2.569 -1.864,2.589 -0.676,4.545c0.696,1.147 1.194,3.226 1.196,4.995c0.002,1.667 -0.444,4.3 -0.992,5.852c-0.548,1.553 -1.718,3.77 -2.601,4.928c-1.589,2.083 -1.596,2.151 -0.654,6.597c0.523,2.471 0.957,5.732 0.963,7.246c0.009,1.513 -0.314,4.315 -0.713,6.225c-0.398,1.909 -1.606,5.344 -2.685,7.631c-1.208,2.564 -3.421,5.62 -5.765,7.964c-2.75,2.751 -5.411,4.569 -9.601,6.562c-3.188,1.516 -6.239,2.975 -6.78,3.242c-0.622,0.308 -1.058,1.656 -1.188,3.679c-0.113,1.756 0.123,5.667 0.526,8.692c0.402,3.025 1.462,7.439 2.354,9.809c0.892,2.37 3.13,6.66 4.973,9.533c1.843,2.873 4.617,7.902 6.166,11.176c1.548,3.274 3.605,8.606 4.57,11.85c1.395,4.685 1.822,7.715 2.078,14.743c0.236,6.483 0.034,10.509 -0.754,15.071c-0.591,3.424 -1.961,9.763 -3.045,14.088c-1.083,4.325 -3.153,11.645 -4.601,16.267c-1.756,5.609 -2.758,10.205 -3.013,13.823c-0.215,3.037 -0.034,7.84 0.411,10.927c0.436,3.028 1.221,6.17 1.743,6.981c0.877,1.361 1.44,1.475 7.324,1.489c4.993,0.011 7.012,0.304 9.322,1.351c1.622,0.735 3.64,1.982 4.485,2.77c0.845,0.789 1.951,2.23 2.458,3.203c0.506,0.974 0.92,2.65 0.92,3.726c0,1.075 -0.313,2.785 -0.697,3.8c-0.383,1.014 -1.377,2.582 -2.208,3.483c-0.831,0.901 -1.684,2.78 -1.896,4.176c-0.212,1.396 -0.84,3.041 -1.396,3.656c-0.556,0.614 -1.011,1.288 -1.011,1.498c0,0.209 1.843,1.535 4.096,2.946c2.252,1.41 4.685,2.811 5.406,3.113c0.72,0.301 2.678,0.722 4.349,0.934l3.04,0.386l-0.746,2.271c-0.41,1.249 -1.515,2.702 -2.455,3.227c-1.555,0.871 -1.966,0.824 -4.586,-0.525c-1.583,-0.815 -4.624,-2.842 -6.757,-4.504c-2.818,-2.197 -3.771,-2.674 -3.486,-1.746c0.216,0.702 2.208,6.437 4.427,12.744c2.219,6.307 5.35,16.618 6.959,22.913c1.609,6.295 3.055,11.576 3.214,11.734c0.159,0.159 5.525,-0.917 11.925,-2.392c6.4,-1.474 15.837,-3.474 20.971,-4.445l9.334,-1.764l0.614,-2.375c0.337,-1.306 1.069,-4.881 1.627,-7.945c0.558,-3.063 1.61,-10.225 2.339,-15.915c0.728,-5.69 1.617,-16.453 1.975,-23.917c0.439,-9.158 0.43,-18.047 -0.026,-27.332c-0.372,-7.568 -1.25,-18.23 -1.95,-23.693c-0.7,-5.462 -2.03,-13.866 -2.956,-18.674c-0.925,-4.809 -2.698,-12.611 -3.94,-17.339c-1.242,-4.727 -3.609,-12.541 -5.261,-17.364c-1.652,-4.823 -4.041,-11.276 -5.308,-14.339c-1.267,-3.064 -4.505,-9.917 -7.195,-15.23c-2.69,-5.313 -7.392,-13.404 -10.448,-17.981c-3.057,-4.576 -6.921,-9.96 -8.588,-11.963c-1.666,-2.004 -5.026,-5.707 -7.466,-8.23l-4.437,-4.587l2.786,-5.656c1.532,-3.111 3.205,-7.387 3.717,-9.501c0.546,-2.253 0.937,-7.238 0.944,-12.036c0.012,-6.341 0.287,-8.931 1.228,-11.467c0.669,-1.802 1.328,-3.662 1.465,-4.133c0.163,-0.561 2.568,0.732 6.972,3.747c3.697,2.532 9.671,7.079 13.275,10.106c3.604,3.026 9.714,8.778 13.579,12.782c3.864,4.003 9.319,10.163 12.122,13.687c2.803,3.525 7.189,9.503 9.746,13.286c2.557,3.782 6.186,9.495 8.064,12.694c1.878,3.2 5.421,9.834 7.872,14.744c2.451,4.909 5.948,12.612 7.771,17.117c1.823,4.505 4.514,11.82 5.979,16.256c1.466,4.436 3.687,11.955 4.935,16.709c1.249,4.754 3.156,13.214 4.239,18.8c1.082,5.587 2.622,15.612 3.421,22.279c1.198,9.991 1.463,15.753 1.505,32.763c0.031,12.614 -0.279,23.827 -0.798,28.832c-0.466,4.505 -1.586,12.997 -2.489,18.872c-0.902,5.875 -1.788,11.065 -1.967,11.533c-0.251,0.654 1.467,0.957 7.405,1.308c4.252,0.252 10.955,0.905 14.895,1.451c3.94,0.547 10.448,1.841 14.462,2.876c4.014,1.035 8.528,2.374 10.03,2.975c2.243,0.897 2.845,1.521 3.364,3.482c0.348,1.313 0.938,4.305 1.313,6.648c0.374,2.342 0.682,6.95 0.685,10.239l0.006,5.981l6.388,1.473c3.514,0.81 9.235,2.463 12.712,3.671c3.478,1.209 8.595,3.233 11.371,4.499c2.776,1.265 8.482,4.347 12.68,6.849c4.197,2.502 10.486,6.707 13.974,9.344c3.489,2.637 8.259,6.417 10.602,8.399c2.342,1.982 4.426,3.994 4.63,4.47c0.205,0.477 0.081,1.41 -0.274,2.074c-0.385,0.72 -2.828,1.93 -6.059,3.001c-2.977,0.987 -8.509,3.039 -12.293,4.559c-3.784,1.521 -11.377,4.75 -16.873,7.176c-5.496,2.426 -9.993,4.586 -9.993,4.801c0,0.214 1.313,2.345 2.917,4.736c1.604,2.391 4.121,6.58 5.592,9.308c1.472,2.728 3.572,7.415 4.667,10.416c1.095,3.001 2.552,7.822 3.238,10.712c0.686,2.891 1.536,8.562 1.89,12.602c0.354,4.04 0.466,8.844 0.249,10.676c-0.275,2.322 -0.77,3.53 -1.634,3.992c-0.994,0.532 -2.392,0.006 -7.044,-2.658c-3.192,-1.827 -10.085,-5.389 -15.318,-7.916c-5.232,-2.528 -13.446,-5.88 -18.253,-7.449c-4.807,-1.569 -11.393,-3.327 -14.637,-3.906c-3.243,-0.579 -9.14,-1.12 -13.105,-1.202c-3.964,-0.082 -14.284,-0.068 -22.934,0.032c-12.02,0.139 -17.07,-0.059 -21.431,-0.839c-3.137,-0.562 -7.403,-1.657 -9.48,-2.434c-2.572,-0.963 -4.859,-2.496 -7.168,-4.804c-2.804,-2.804 -3.518,-4.006 -4.129,-6.948c-0.504,-2.426 -0.538,-4.61 -0.11,-6.871c0.346,-1.824 1.388,-5.332 2.316,-7.796c0.927,-2.465 1.554,-4.613 1.393,-4.775c-0.162,-0.161 -4.663,0.648 -10.002,1.8c-5.339,1.151 -16.718,3.845 -25.286,5.985c-8.568,2.141 -24.196,6.363 -34.729,9.382c-10.532,3.019 -31.223,9.216 -45.979,13.772c-14.756,4.556 -32.153,10.014 -38.661,12.129c-6.507,2.115 -16.727,5.326 -22.711,7.136c-5.984,1.81 -15.42,4.481 -20.968,5.935c-5.549,1.455 -15.249,3.666 -21.556,4.914c-6.306,1.248 -15.595,2.711 -20.64,3.251c-5.046,0.54 -12.27,1.107 -16.054,1.258c-3.784,0.152 -10.124,0.052 -14.088,-0.222l-0.002,0Zm21.787,-23.976c1.159,-0.311 1.475,-0.867 1.475,-2.6c-0,-1.803 -0.298,-2.279 -1.633,-2.614c-1.457,-0.366 -1.978,-1.506 -4.867,-10.66c-1.78,-5.638 -5.355,-17.033 -7.944,-25.322c-2.59,-8.289 -4.901,-15.282 -5.134,-15.539c-0.234,-0.257 -3.191,-0.78 -6.57,-1.163c-3.38,-0.383 -6.268,-0.573 -6.419,-0.423c-0.15,0.151 0.193,1.391 0.764,2.755l1.036,2.482l-6.665,19.995c-4.597,13.793 -7.133,20.463 -8.176,21.506c-0.831,0.831 -1.967,1.512 -2.524,1.512c-0.64,-0 -1.013,0.595 -1.013,1.615c-0,0.888 0.516,1.887 1.147,2.219c0.63,0.333 2.612,1.099 4.404,1.703c1.791,0.604 4.961,1.496 7.044,1.981l3.787,0.884l-0,-3.164c-0,-2.992 -0.132,-3.23 -2.413,-4.365c-1.326,-0.661 -2.707,-1.688 -3.068,-2.284c-0.451,-0.742 -0.385,-2.217 0.21,-4.696c0.477,-1.988 1.047,-3.885 1.267,-4.216c0.24,-0.361 3.412,-0.264 7.935,0.242c4.145,0.464 7.872,0.858 8.283,0.875c0.411,0.017 1.396,2.437 2.189,5.376c0.793,2.939 1.594,5.74 1.78,6.225c0.239,0.621 -0.262,0.881 -1.698,0.881c-2.002,0 -2.036,0.053 -2.036,3.231c0,2.829 0.184,3.266 1.475,3.515c0.811,0.156 4.718,0.32 8.682,0.364c3.964,0.044 7.871,-0.098 8.682,-0.315l0,-0Zm-27.029,-24.79c-3.604,-0.376 -6.514,-0.977 -6.466,-1.337c0.048,-0.359 1.501,-5.157 3.229,-10.661c1.727,-5.505 3.351,-9.78 3.608,-9.502c0.257,0.279 1.84,5.334 3.517,11.235c1.678,5.9 2.964,10.777 2.858,10.838c-0.107,0.06 -3.142,-0.197 -6.746,-0.573Zm45.092,21.848c0.787,-0.404 2.352,-1.605 3.478,-2.669l2.046,-1.935l0.433,1.723c0.307,1.224 0.758,1.631 1.557,1.404c0.619,-0.176 3.41,-0.812 6.203,-1.414c4.861,-1.047 5.079,-1.172 5.079,-2.923c-0,-1.023 -0.434,-1.997 -0.983,-2.208c-0.828,-0.317 -0.983,-2.409 -0.983,-13.227l-0,-12.85l-1.802,0.358c-0.991,0.197 -3.719,0.67 -6.061,1.05c-2.343,0.38 -4.923,0.838 -5.734,1.017c-1.05,0.231 -1.474,0.797 -1.474,1.967c-0,1.148 0.492,1.829 1.638,2.265c1.634,0.621 1.638,0.644 1.638,9.339c0,6.92 -0.215,9.024 -1.046,10.209c-0.783,1.12 -1.563,1.443 -3.112,1.293l-2.067,-0.201l-0.179,-12.042l-0.179,-12.041l-5.39,0.441c-2.965,0.243 -6.349,0.608 -7.521,0.812c-1.826,0.317 -2.129,0.64 -2.129,2.262c-0,1.421 0.309,1.893 1.24,1.893c0.682,0 1.419,0.467 1.638,1.037c0.219,0.57 0.408,5.361 0.421,10.648c0.016,6.715 0.285,10.083 0.891,11.177c0.478,0.862 1.573,1.957 2.434,2.434c0.862,0.478 3.134,0.879 5.05,0.892c1.915,0.011 4.127,-0.307 4.914,-0.711l0,-0Zm26.815,-5.126c2.617,-0.7 6.012,-1.596 7.543,-1.991c2.602,-0.671 2.785,-0.867 2.785,-2.986c0,-1.58 -0.298,-2.268 -0.983,-2.268c-0.828,-0 -0.983,-1.493 -0.983,-9.502c0,-8.627 0.121,-9.621 1.311,-10.811c0.721,-0.721 2.016,-1.311 2.878,-1.311c0.863,-0 1.747,0.466 1.966,1.036c0.219,0.571 0.398,5.109 0.398,10.087c-0,7.44 -0.175,9.117 -0.983,9.427c-0.611,0.235 -0.983,1.233 -0.983,2.639l0,2.261l8.027,-2.098l8.027,-2.098l0.207,-2.494c0.187,-2.261 0.08,-2.454 -1.147,-2.064c-1.321,0.419 -1.354,0.222 -1.361,-8.297c-0.004,-4.8 -0.189,-9.83 -0.412,-11.18c-0.223,-1.349 -1.145,-3.192 -2.048,-4.095c-1.191,-1.191 -2.344,-1.642 -4.195,-1.642c-1.404,-0 -3.543,0.413 -4.753,0.919c-1.21,0.505 -3.379,1.984 -4.82,3.286c-1.82,1.644 -2.721,2.103 -2.951,1.503c-0.268,-0.699 -1.597,-0.618 -6.954,0.426c-6.532,1.272 -6.622,1.315 -6.622,3.147c-0,1.386 0.315,1.858 1.24,1.858c0.682,0 1.419,0.466 1.638,1.037c0.219,0.57 0.398,5.441 0.398,10.825l-0,9.79l-1.638,0.746c-1.272,0.579 -1.638,1.237 -1.638,2.935c-0,1.203 0.291,2.188 0.647,2.188c0.357,-0 2.79,-0.573 5.406,-1.273Zm42.833,-12.557c1.48,-0.697 3.808,-2.232 5.173,-3.413c2.3,-1.988 2.421,-2.264 1.644,-3.755c-0.461,-0.885 -0.921,-1.706 -1.021,-1.825c-0.1,-0.118 -0.943,0.282 -1.872,0.891c-0.929,0.609 -2.135,0.937 -2.678,0.729c-0.82,-0.315 -0.988,-2.053 -0.988,-10.203l0,-9.823l2.621,-0.785c2.483,-0.744 2.621,-0.922 2.621,-3.373c0,-2.098 -0.197,-2.511 -1.044,-2.187c-0.574,0.221 -1.753,0.579 -2.621,0.797c-1.57,0.394 -1.577,0.371 -1.577,-4.972c0,-2.952 -0.25,-5.27 -0.556,-5.15c-0.306,0.121 -2.96,1.693 -5.897,3.494l-5.342,3.275l0,3.785c0,3.435 -0.151,3.843 -1.638,4.408c-1.332,0.507 -1.638,1.067 -1.638,3.004c0,2.181 0.131,2.348 1.562,1.989l1.561,-0.392l0.273,10.641c0.176,6.866 0.567,11.177 1.102,12.152c0.457,0.832 1.474,1.775 2.261,2.096c0.788,0.321 2.316,0.426 3.398,0.233c1.081,-0.193 3.176,-0.92 4.656,-1.616l-0,-0Zm27.288,-9.886c5.679,-1.985 5.733,-2.024 5.733,-4.215c0,-1.87 -0.232,-2.211 -1.507,-2.211c-0.829,-0 -1.861,-0.354 -2.293,-0.786c-0.546,-0.546 -0.775,-3.807 -0.749,-10.648c0.02,-5.424 0.242,-10.989 0.492,-12.367c0.435,-2.404 0.584,-2.124 3.674,6.88c1.772,5.162 3.449,10.019 3.727,10.793c0.494,1.379 0.567,1.386 3.449,0.35l2.943,-1.059l3.814,-13.454l3.815,-13.455l0.405,4.914c0.224,2.703 0.445,8.627 0.492,13.164c0.085,8.2 0.076,8.254 -1.553,8.996c-1.296,0.591 -1.638,1.229 -1.638,3.054c0,1.269 0.267,2.307 0.592,2.307c0.326,0 4.675,-1.435 9.665,-3.191l9.073,-3.191l0.209,-2.463c0.194,-2.293 0.099,-2.443 -1.375,-2.161l-1.583,0.303l-0.427,-11.79c-0.235,-6.485 -0.427,-14.386 -0.427,-17.559c-0,-5.099 0.152,-5.851 1.31,-6.471c0.935,-0.501 1.311,-1.372 1.311,-3.042c-0,-1.594 -0.261,-2.245 -0.819,-2.042c-0.451,0.163 -4.112,1.445 -8.137,2.848l-7.318,2.551l-2.064,7.214c-1.135,3.968 -2.526,8.827 -3.091,10.798l-1.026,3.583l-2.538,-7.187c-1.396,-3.953 -2.817,-7.835 -3.158,-8.627l-0.621,-1.44l-5.436,1.945c-2.989,1.069 -6.689,2.405 -8.22,2.968c-2.534,0.931 -2.785,1.226 -2.785,3.263c-0,1.971 0.202,2.239 1.694,2.239l1.694,-0l-0.403,12.614c-0.221,6.937 -0.57,14.508 -0.775,16.824c-0.31,3.499 -0.694,4.531 -2.275,6.111c-1.38,1.38 -1.901,2.536 -1.901,4.215c-0,1.934 0.188,2.241 1.147,1.871c0.63,-0.243 3.726,-1.343 6.88,-2.446l-0,0Zm52.421,-17.999l7.044,-2.253l-0,-2.261c-0,-1.969 -0.21,-2.26 -1.625,-2.26l-1.625,-0l-0.177,-13.42l-0.177,-13.42l-6.713,4.082c-6.296,3.829 -6.713,4.215 -6.717,6.212c-0.002,1.694 0.265,2.13 1.307,2.13c1.25,-0 1.311,0.437 1.311,9.425c-0,8.874 -0.077,9.445 -1.311,9.767c-1.009,0.264 -1.31,0.894 -1.31,2.742c-0,2.183 0.133,2.359 1.474,1.954c0.811,-0.244 4.644,-1.458 8.518,-2.698l0.001,0Zm18.422,-5.523l7.624,-2.134l0,-2.18c0,-1.743 -0.263,-2.179 -1.31,-2.179c-1.283,-0 -1.311,-0.437 -1.311,-20.532c0,-11.292 -0.167,-20.699 -0.372,-20.903c-0.204,-0.205 -1.457,-0.085 -2.785,0.267c-1.327,0.351 -4.403,1.219 -6.836,1.928c-4.359,1.271 -4.423,1.322 -4.423,3.555c0,1.829 0.253,2.266 1.311,2.266c1.279,0 1.31,0.437 1.31,18.324c0,17.654 -0.047,18.35 -1.31,19.026c-0.935,0.5 -1.311,1.372 -1.311,3.042c0,1.708 0.242,2.248 0.895,1.997c0.492,-0.189 4.325,-1.303 8.518,-2.477l0,0Zm18.279,-4.532c3.33,-0.723 6.718,-1.466 7.529,-1.651c1.182,-0.269 1.474,-0.787 1.474,-2.616c0,-1.996 -0.205,-2.281 -1.638,-2.281l-1.638,-0l-0,-20.641c-0,-16.074 -0.181,-20.642 -0.819,-20.644c-0.451,-0.002 -3.694,0.636 -7.208,1.418c-6.261,1.394 -6.389,1.461 -6.389,3.297c0,1.395 0.418,2.032 1.638,2.496l1.638,0.623l0,35.861l-1.638,0.747c-1.221,0.556 -1.638,1.25 -1.638,2.726c0,1.547 0.288,1.98 1.317,1.98c0.725,-0 4.042,-0.592 7.372,-1.315Zm21.125,-3.927c3.924,-0.721 7.224,-1.311 7.335,-1.311c0.111,0 0.201,-1.032 0.201,-2.293c-0,-1.857 -0.25,-2.294 -1.311,-2.294c-1.267,0 -1.31,-0.436 -1.31,-13.394c-0,-7.367 -0.221,-13.521 -0.492,-13.676c-0.27,-0.155 -3.587,1.12 -7.371,2.833c-6.432,2.911 -6.894,3.247 -7.086,5.157c-0.167,1.662 0.034,2.044 1.077,2.044c0.705,-0 1.461,0.466 1.679,1.036c0.219,0.57 0.398,4.84 0.398,9.489l0,8.452l-1.638,0.411c-1.345,0.338 -1.638,0.81 -1.638,2.634c-0,1.884 0.23,2.222 1.512,2.222c0.831,0 4.721,-0.589 8.644,-1.31l0,-0Zm30.156,-4.166c1.81,-0.843 4.246,-2.488 5.415,-3.657c1.168,-1.168 2.404,-2.646 2.745,-3.285c0.475,-0.888 0.24,-1.52 -0.996,-2.681l-1.618,-1.52l-2.048,2.094c-1.126,1.152 -2.767,2.275 -3.647,2.495c-0.879,0.221 -2.299,0.083 -3.154,-0.307c-0.856,-0.389 -2.046,-1.457 -2.645,-2.371c-0.6,-0.915 -0.937,-2.062 -0.75,-2.548c0.187,-0.487 3.774,-2.185 7.972,-3.773l7.633,-2.888l-0.407,-2.293c-0.224,-1.262 -1.01,-3.558 -1.746,-5.102c-0.736,-1.545 -2.407,-3.536 -3.713,-4.423c-1.847,-1.256 -3.218,-1.615 -6.162,-1.615c-2.488,0 -4.797,0.475 -6.733,1.385c-1.62,0.762 -3.695,2.275 -4.611,3.364c-0.916,1.088 -2.292,3.193 -3.057,4.676c-0.973,1.884 -1.483,4.334 -1.69,8.119c-0.222,4.039 -0.023,6.145 0.785,8.256c0.595,1.559 1.738,3.449 2.54,4.2c0.802,0.751 2.342,1.826 3.424,2.388c1.087,0.566 3.576,1.022 5.569,1.02c2.399,-0.001 4.704,-0.514 6.894,-1.534Zm-7.549,-21.139c-0,-1.987 0.305,-4.183 0.678,-4.88c0.373,-0.697 1.246,-1.268 1.94,-1.268c0.904,0 1.484,0.743 2.047,2.623c0.573,1.914 0.594,3.043 0.077,4.177c-0.389,0.855 -1.615,1.871 -2.725,2.258l-2.017,0.703l-0,-3.613Zm42.118,20.023c1.362,-0.378 3.495,-1.583 4.742,-2.677c1.372,-1.204 2.546,-3.03 2.976,-4.625c0.391,-1.454 0.504,-3.849 0.252,-5.344c-0.315,-1.865 -1.198,-3.445 -2.83,-5.068c-1.574,-1.565 -3.845,-2.846 -6.746,-3.807c-2.405,-0.796 -4.715,-1.859 -5.133,-2.362c-0.417,-0.503 -0.572,-1.503 -0.343,-2.223c0.228,-0.719 1.05,-1.51 1.827,-1.756c0.776,-0.247 1.5,-0.188 1.607,0.13c0.108,0.318 0.775,1.529 1.483,2.69c0.708,1.162 2.034,2.3 2.946,2.529c0.912,0.228 2.406,0.228 3.319,-0.001c0.913,-0.229 1.98,-1.117 2.37,-1.973c0.464,-1.018 0.498,-2.186 0.1,-3.382c-0.335,-1.004 -1.356,-2.384 -2.269,-3.066c-0.99,-0.739 -3.222,-1.379 -5.529,-1.587c-2.127,-0.191 -5.145,-0.002 -6.705,0.421c-1.561,0.422 -3.891,1.733 -5.179,2.913c-2.034,1.864 -2.382,2.63 -2.647,5.828c-0.168,2.025 -0.127,4.393 0.091,5.263c0.219,0.87 1.322,2.485 2.452,3.59c1.13,1.105 3.941,2.675 6.246,3.489c2.305,0.814 4.655,1.992 5.222,2.618c0.635,0.702 0.865,1.657 0.599,2.494c-0.236,0.746 -1.124,1.53 -1.973,1.743c-0.848,0.213 -2.036,0.287 -2.64,0.166c-0.604,-0.123 -1.501,-1.398 -1.994,-2.835c-0.493,-1.436 -1.405,-2.984 -2.028,-3.44c-0.623,-0.455 -2.086,-0.827 -3.253,-0.827c-1.51,-0 -2.511,0.496 -3.478,1.726c-0.747,0.95 -1.358,2.401 -1.358,3.226c-0,0.825 0.739,2.378 1.642,3.452c0.904,1.073 2.746,2.245 4.096,2.603c1.349,0.359 4.074,0.681 6.056,0.716c1.983,0.035 4.718,-0.245 6.079,-0.623l0,-0.001Zm-121.109,-16.402c1.411,-1.239 2.583,-3.051 3.018,-4.666c0.523,-1.943 0.511,-3.124 -0.047,-4.471c-0.417,-1.006 -1.593,-2.176 -2.613,-2.598c-1.522,-0.631 -2.278,-0.567 -4.216,0.352c-1.298,0.616 -2.975,1.983 -3.725,3.036c-0.75,1.054 -1.52,3.075 -1.71,4.492c-0.237,1.772 -0.008,3.093 0.737,4.229c0.854,1.303 1.628,1.652 3.666,1.652c1.953,-0 3.146,-0.494 4.89,-2.026Zm103.203,-14.028c0.995,-1.442 2.171,-3.733 2.614,-5.092c0.487,-1.495 0.625,-3.542 0.347,-5.183c-0.252,-1.492 -1.148,-3.403 -1.991,-4.246c-1.165,-1.165 -2.26,-1.533 -4.562,-1.533c-2.474,0 -3.38,0.351 -4.944,1.915c-1.356,1.356 -1.916,2.558 -1.916,4.114c0,1.209 0.461,2.855 1.023,3.658c0.563,0.803 1.89,1.908 2.949,2.456c1.059,0.548 1.926,1.42 1.926,1.939c-0,0.519 -0.885,1.951 -1.966,3.182c-1.081,1.232 -1.966,2.472 -1.966,2.757c0,0.284 0.495,1.063 1.099,1.731c1.062,1.173 1.175,1.141 3.339,-0.931c1.232,-1.18 3.054,-3.325 4.048,-4.767Zm-44.619,-0.023c1.085,-0.912 2.3,-2.652 2.7,-3.865c0.401,-1.214 0.535,-2.978 0.298,-3.921c-0.237,-0.943 -1.174,-2.299 -2.083,-3.014c-0.909,-0.716 -2.454,-1.301 -3.434,-1.301c-0.979,0 -2.772,0.669 -3.983,1.485c-1.231,0.829 -2.61,2.553 -3.124,3.903c-0.508,1.335 -0.731,3.173 -0.498,4.102c0.232,0.926 1.005,2.265 1.716,2.977c0.849,0.849 2.179,1.294 3.865,1.294c1.795,-0 3.166,-0.501 4.543,-1.66l-0,0Zm-109.55,-8.504l7.976,-2.473l3.417,-6.168c1.879,-3.393 4.866,-9.416 6.637,-13.385c1.771,-3.97 4.252,-10.299 5.512,-14.065c1.26,-3.766 2.889,-9.421 3.62,-12.568c0.92,-3.958 1.441,-9.101 1.691,-16.696c0.261,-7.923 0.156,-10.976 -0.378,-10.976c-0.406,0 -0.739,0.422 -0.739,0.938c0,0.516 -1.478,5.505 -3.286,11.086c-1.807,5.582 -4.477,13.012 -5.934,16.513c-1.457,3.501 -4.147,9.349 -5.976,12.995c-1.83,3.647 -4.925,9.253 -6.878,12.459c-1.953,3.205 -5.229,8.071 -7.281,10.811c-2.051,2.741 -6.194,7.552 -9.206,10.69l-5.476,5.707l4.163,-1.197c2.289,-0.659 7.752,-2.31 12.138,-3.671Zm-49.043,-69.448c5.164,-0.525 13.088,-1.556 17.61,-2.291c4.523,-0.735 11.685,-2.211 15.917,-3.279c4.232,-1.068 10.313,-2.862 13.515,-3.987c3.201,-1.124 8.673,-3.505 12.159,-5.29c3.487,-1.784 7.522,-4.101 8.966,-5.148c1.445,-1.046 3.377,-3.182 4.293,-4.746c1.058,-1.805 1.94,-4.744 2.416,-8.054c0.413,-2.867 4.253,-19.955 8.534,-37.975c7.114,-29.94 7.784,-33.299 7.777,-38.988c-0.006,-3.424 -0.412,-7.743 -0.906,-9.599c-0.494,-1.856 -1.734,-4.91 -2.755,-6.786c-1.021,-1.876 -2.899,-4.275 -4.172,-5.33c-1.274,-1.056 -3.884,-2.378 -5.8,-2.939c-2.892,-0.846 -4.216,-0.893 -7.776,-0.273c-2.36,0.411 -5.645,1.384 -7.299,2.162c-1.655,0.777 -4.098,2.503 -5.43,3.835c-1.331,1.331 -3.331,4.328 -4.443,6.659c-1.113,2.331 -2.753,7.004 -3.644,10.384c-0.891,3.381 -1.94,8.187 -2.331,10.682c-0.391,2.494 -1.135,10.308 -1.653,17.364c-0.519,7.056 -0.948,18.499 -0.953,25.428c-0.011,12.339 -0.039,12.618 -1.483,13.56c-0.811,0.528 -15.776,5.873 -33.255,11.878c-17.479,6.004 -32.054,11.175 -32.39,11.491c-0.375,0.353 -0.162,4.176 0.552,9.925c0.64,5.142 1.315,10.013 1.5,10.824c0.319,1.39 0.66,1.474 6.001,1.461c3.114,-0.008 9.887,-0.442 15.05,-0.968Zm101.679,-11.451c0,-1.656 -0.604,-3.264 -1.877,-4.998c-1.032,-1.405 -2.58,-3.164 -3.44,-3.908c-0.86,-0.745 -2.374,-1.857 -3.365,-2.473c-0.991,-0.615 -1.802,-0.884 -1.802,-0.596c-0,0.287 1.366,2.874 3.036,5.748c1.67,2.875 3.656,6.311 4.413,7.636c1.034,1.81 1.583,2.239 2.206,1.722c0.456,-0.378 0.829,-1.787 0.829,-3.131Zm-166.895,-1.164l2.097,-1.147l-5.406,-0.191c-2.973,-0.104 -7.839,-0.104 -10.812,0l-5.406,0.191l5.242,1.083c2.883,0.595 6.805,1.111 8.715,1.146c2.179,0.041 4.254,-0.363 5.57,-1.082Zm172.137,-8.813c0,-1.252 -0.655,-2.592 -1.853,-3.79c-1.02,-1.019 -3.01,-2.174 -4.423,-2.567c-1.414,-0.392 -3.89,-0.715 -5.504,-0.717l-2.933,-0.002l4.17,2.457c2.293,1.352 5.235,3.682 6.537,5.18c1.741,2.001 2.585,2.544 3.187,2.049c0.451,-0.37 0.819,-1.544 0.819,-2.609l0,-0.001Zm117.62,53.923c-0.721,-0.315 -1.998,-1.313 -2.839,-2.218c-0.84,-0.905 -1.684,-2.806 -1.874,-4.225c-0.226,-1.684 0.02,-3.284 0.705,-4.611c0.578,-1.118 1.709,-2.493 2.512,-3.055c0.803,-0.563 2.647,-1.022 4.099,-1.021c1.459,0.002 3.576,0.574 4.735,1.281c1.49,0.909 2.31,2.073 2.837,4.027c0.578,2.147 0.549,3.25 -0.131,5.038c-0.48,1.259 -1.615,2.844 -2.525,3.523c-0.909,0.679 -2.678,1.369 -3.931,1.534c-1.253,0.164 -2.868,0.042 -3.588,-0.273l-0,-0Zm6.582,-2.98c1.217,-1.217 1.608,-2.305 1.608,-4.473c0,-2.133 -0.376,-3.208 -1.474,-4.213c-0.811,-0.742 -2.123,-1.546 -2.916,-1.786c-0.836,-0.254 -2.251,-0.017 -3.369,0.56c-1.079,0.558 -2.237,1.885 -2.631,3.014c-0.387,1.11 -0.528,2.897 -0.313,3.972c0.215,1.074 1.129,2.534 2.032,3.244c0.902,0.71 2.499,1.29 3.547,1.29c1.152,0 2.545,-0.637 3.516,-1.608Zm-6.91,-4.617l0,-4.259l2.009,0c1.105,0 2.579,0.305 3.276,0.679c0.697,0.373 1.268,1.266 1.268,1.986c-0,0.719 -0.435,1.475 -0.967,1.679c-0.85,0.326 -0.848,0.6 0.017,2.273c0.881,1.703 0.878,1.902 -0.03,1.902c-0.558,-0 -1.35,-0.738 -1.76,-1.639c-0.411,-0.901 -0.994,-1.638 -1.297,-1.638c-0.303,0 -0.55,0.737 -0.55,1.638c-0,1.02 -0.371,1.639 -0.983,1.639c-0.773,-0 -0.983,-0.91 -0.983,-4.26l0,0Zm4.259,-1.638c0,-0.53 -0.516,-1.064 -1.146,-1.186c-0.805,-0.155 -1.147,0.199 -1.147,1.186c-0,0.987 0.342,1.341 1.147,1.186c0.63,-0.121 1.146,-0.655 1.146,-1.186Zm-316.364,-135.311c1.539,-3.292 1.835,-4.783 1.823,-9.174c-0.013,-4.925 -0.19,-5.578 -2.94,-10.811c-2.833,-5.394 -2.926,-5.756 -2.929,-11.467c-0.003,-4.841 0.257,-6.387 1.451,-8.627c0.801,-1.502 2.318,-3.345 3.373,-4.096c1.055,-0.751 2.085,-1.366 2.289,-1.366c0.204,0 -0.343,1.051 -1.214,2.335c-0.872,1.284 -1.784,3.666 -2.028,5.293c-0.244,1.628 -0.258,4.336 -0.03,6.02c0.227,1.684 1.63,5.568 3.117,8.631c2.227,4.587 2.76,6.442 3.021,10.513c0.263,4.095 0.073,5.512 -1.11,8.261c-0.785,1.825 -2.605,4.466 -4.044,5.869l-2.616,2.551l1.837,-3.932l0,0Zm-18.875,0.471c0.695,-1.363 1.562,-4.091 1.926,-6.061c0.394,-2.133 0.438,-4.777 0.109,-6.532c-0.304,-1.622 -1.802,-5.552 -3.329,-8.733c-2.464,-5.133 -2.778,-6.314 -2.786,-10.485c-0.006,-3.019 0.395,-5.633 1.12,-7.311c0.621,-1.437 1.779,-3.307 2.573,-4.156c0.793,-0.849 1.947,-1.815 2.563,-2.147c0.9,-0.486 0.795,0.02 -0.533,2.581c-1.272,2.453 -1.648,4.148 -1.633,7.38c0.011,2.308 0.292,5.08 0.626,6.162c0.333,1.081 1.744,4.324 3.134,7.207c2.252,4.669 2.526,5.78 2.513,10.157c-0.012,3.766 -0.349,5.545 -1.443,7.612c-0.786,1.483 -2.206,3.621 -3.156,4.751c-0.95,1.129 -2.002,2.053 -2.338,2.053c-0.336,-0 -0.041,-1.115 0.654,-2.478l-0,-0Zm39.76,-1.255c1.122,-2.731 1.568,-5.084 1.579,-8.348c0.014,-4.061 -0.313,-5.247 -3.062,-11.129c-2.666,-5.703 -3.08,-7.155 -3.093,-10.853c-0.008,-2.349 0.37,-5.383 0.841,-6.744c0.47,-1.361 1.599,-3.358 2.508,-4.438c0.909,-1.08 2.256,-2.287 2.993,-2.681c1.318,-0.706 1.317,-0.679 -0.076,1.575c-0.779,1.261 -1.683,3.719 -2.009,5.463c-0.339,1.813 -0.353,4.642 -0.033,6.608c0.308,1.891 1.736,5.812 3.173,8.714c1.519,3.066 2.798,6.751 3.054,8.799c0.306,2.447 0.118,4.63 -0.616,7.152c-0.58,1.997 -2.011,4.88 -3.179,6.407c-1.168,1.528 -2.466,2.89 -2.884,3.028c-0.435,0.143 -0.091,-1.378 0.804,-3.553l-0,-0Zm18.27,-25.93c-0.702,-1.157 -1.623,-2.991 -2.046,-4.076c-0.423,-1.085 -0.792,-3.11 -0.819,-4.499c-0.028,-1.39 0.406,-4.288 0.964,-6.441c0.926,-3.574 0.92,-4.238 -0.066,-7.63c-0.758,-2.609 -1.819,-4.419 -3.561,-6.077c-1.522,-1.448 -3.645,-2.654 -5.49,-3.118c-2.19,-0.552 -3.86,-0.568 -6.135,-0.06c-1.72,0.384 -4.331,1.403 -5.802,2.263c-2.635,1.541 -2.695,1.546 -3.932,0.312c-0.691,-0.69 -2.38,-1.642 -3.753,-2.117l-2.498,-0.863l5.119,-7.294c2.815,-4.012 7.528,-10.202 10.473,-13.755c2.946,-3.553 9.285,-10.292 14.088,-14.975c4.804,-4.684 12.125,-11.047 16.269,-14.142c4.145,-3.094 10.548,-7.437 14.23,-9.651c3.682,-2.213 6.94,-4.024 7.241,-4.024c0.3,-0 0.876,0.33 1.28,0.734c0.543,0.543 0.398,1.381 -0.554,3.207c-0.708,1.36 -1.459,3.527 -1.669,4.816c-0.209,1.289 -0.041,3.689 0.373,5.333c0.69,2.74 0.616,3.222 -0.875,5.768c-0.896,1.528 -1.959,4.319 -2.363,6.203c-0.543,2.53 -0.543,4.324 0,6.865c0.404,1.893 1.464,4.544 2.354,5.892c0.89,1.349 1.934,3.924 2.319,5.722l0.702,3.269l-5.288,5.897c-2.908,3.243 -7.464,8.822 -10.124,12.397c-2.661,3.575 -6.415,9.109 -8.343,12.299c-1.928,3.189 -5.151,8.96 -7.162,12.824l-3.655,7.025l-1.277,-2.104l-0,0Zm155.923,-131.633c-0.289,-0.469 -0.179,-0.578 0.289,-0.289c0.416,0.257 0.757,0.598 0.757,0.757c-0,0.159 -0.13,0.289 -0.289,0.289c-0.159,-0 -0.5,-0.341 -0.757,-0.757Z" style="fill-rule:nonzero;"/></svg>
