<?xml version="1.0" encoding="UTF-8" standalone="no"?>
<!DOCTYPE svg PUBLIC "-//W3C//DTD SVG 1.1//EN" "http://www.w3.org/Graphics/SVG/1.1/DTD/svg11.dtd">
<svg width="100%" height="100%" viewBox="0 0 286 157" version="1.1" xmlns="http://www.w3.org/2000/svg" xmlns:xlink="http://www.w3.org/1999/xlink" xml:space="preserve" xmlns:serif="http://www.serif.com/" style="fill-rule:evenodd;clip-rule:evenodd;stroke-linejoin:round;stroke-miterlimit:2;">
    <g transform="matrix(1,0,0,1,-16.9813,-2.84217e-14)">
        <g transform="matrix(1,0,0,1,-17.0036,-0.543504)">
            <path d="M212.33,31.955C212.323,31.2 212.459,30.45 212.73,29.745C212.17,27.395 210.45,25.515 209.73,23.025L210.16,21.025C210.16,19.975 209.16,19.805 208.87,18.935C210.966,19.157 213.072,19.268 215.18,19.265C215.8,13.095 216,7.095 216.8,1.025C218.39,1.455 218.23,2.645 218.19,3.595C218.12,5.595 217.88,7.595 217.71,9.525C217.587,10.035 217.611,10.569 217.78,11.065C218.24,11.615 219.09,11.165 219.83,12.005C220.11,13.525 218.89,15.145 219,16.945C219.192,18.726 218.952,20.527 218.3,22.195C217.3,22.445 216.3,22.095 215.3,22.265C214.3,22.435 213.5,21.505 212.58,22.265C212.64,23.035 213.44,23.265 213.58,24.135C213.268,25.141 213.2,26.207 213.38,27.245C214.261,28.743 215.059,30.289 215.77,31.875C216.6,33.365 216.32,35.375 217.88,36.565C218.094,37.093 218.041,37.692 217.74,38.175C217.25,38.715 216.56,38.395 215.9,38.765C215.84,41.265 215.17,43.765 215.4,46.535C217.75,47.775 219.79,46.535 221.91,45.875C222.78,46.455 223.44,47.475 224.68,47.465C224.97,48.085 225.51,47.925 226.01,47.895C226.19,48.285 226.43,48.445 226.79,48.075C226.55,47.901 226.239,47.856 225.96,47.955C225.72,47.205 225.19,47.325 224.64,47.525C224.2,46.295 223.01,45.755 222.28,44.845C221.1,44.845 220.5,45.985 219.43,46.065C218.36,46.145 217.61,46.785 216.51,46.065C216.12,44.155 216.44,42.125 216.41,40.065C217.52,39.485 218.81,39.185 219.26,38.065C219.97,34.825 219.72,31.635 220.33,28.295C220.207,27.147 219.603,26.104 218.67,25.425C218.89,24.315 219.89,24.015 220.48,22.955C221.33,19.875 221.08,16.335 221.62,12.735C221.41,11.305 220.3,10.545 218.79,10.075C219.11,7.925 218.94,5.795 219.64,3.555C222.27,2.925 223.94,4.665 225.76,6.295C227.45,4.655 229.49,4.455 231.83,4.805C232.51,7.145 231.31,9.395 231.6,11.515C230.81,12.265 229.94,11.715 229.31,12.195C228.523,12.947 228.106,14.008 228.17,15.095C227.98,17.215 227.94,19.355 227.61,21.455C227.332,22.832 227.676,24.265 228.55,25.365C228.812,25.676 228.972,26.06 229.01,26.465C227.18,27.405 226.77,29.045 226.76,31.035C226.686,33.234 226.496,35.427 226.19,37.605C226.02,39.115 225.98,39.115 226.99,40.605C227.827,41.132 228.903,41.113 229.72,40.555C231.43,38.235 230.28,35.005 231.51,32.295C233.574,32.347 235.624,32.66 237.61,33.225C237.5,38.535 236.16,43.675 236.02,49.135C234.21,48.835 233.68,47.545 232.82,46.465L230.15,48.005C230.8,48.845 231.68,48.435 232.53,48.445C233.53,49.715 235.4,49.895 236.12,51.515L236.17,51.445C234.65,51.445 233.17,51.965 231.62,51.905C229.72,51.825 227.95,51.615 226.7,50.225C225.621,50.128 224.534,50.303 223.54,50.735C220.95,51.555 218.64,51.325 216.54,49.415C215.95,48.865 215.29,48.415 214.54,47.805C213.331,48.833 211.872,49.523 210.31,49.805C208.704,50.191 207.044,50.306 205.4,50.145C204.28,49.485 203.11,48.725 201.87,48.145C201.296,47.971 200.699,47.887 200.1,47.895C198.769,48.971 196.869,49.024 195.48,48.025C192.15,48.555 191.23,48.685 188.04,46.535C186.145,47.897 183.809,48.507 181.49,48.245C180.49,48.135 179.71,47.405 178,45.355C180.29,45.065 182.63,45.355 184.38,43.565C186.455,45.21 189.16,45.845 191.75,45.295L191.75,36.455C191.24,35.835 190.53,36.365 190.08,36.005C189.08,35.345 188.93,29.225 189.83,25.245C190.29,24.405 191.19,23.885 191.45,23.155C191.636,22.501 191.429,21.795 190.92,21.345C189.969,20.398 189.527,19.051 189.73,17.725C189.81,15.815 189.73,13.895 189.73,11.985C189.73,11.045 189.66,10.045 190.23,9.545C191.23,8.795 192.12,9.445 192.87,8.785L193.25,0.625C194.69,1.005 195.25,2.205 196.14,2.905C196.9,4.905 195.4,6.475 195.14,8.255C194.994,10.125 194.325,11.917 193.21,13.425L193.21,18.025C193.21,19.565 193.44,20.965 192.94,22.175C193.26,23.735 194.69,24.415 194.94,25.865C194.27,26.925 193.08,27.765 192.94,29.155C192.82,30.395 192.88,31.655 192.8,32.905C192.64,35.475 193.29,38.005 193.11,40.575C192.886,42.205 192.832,43.854 192.95,45.495C194.219,45.944 195.624,45.804 196.78,45.115C196.78,44.535 197.28,44.115 197.17,43.465L197.66,43.035C197.876,42.956 198.026,42.755 198.04,42.525C198.253,42.612 198.499,42.57 198.67,42.415C198.37,42.085 198.19,42.185 198.1,42.585C197.88,42.685 197.69,42.805 197.72,43.095C197.42,43.095 197.23,43.195 197.22,43.525C196.44,43.285 195.86,44.025 195.12,43.955C194.51,43.715 194.47,43.175 194.47,42.665C194.369,40.754 194.416,38.839 194.61,36.935C194.888,34.753 195.018,32.555 195,30.355C194.945,29.918 195.101,29.479 195.42,29.175C196.99,29.175 198.559,29.258 200.12,29.425C200.41,31.965 200.35,34.485 201.29,36.885C201.945,37.447 202.722,37.847 203.56,38.055C206.12,37.455 206.3,35.305 206.29,33.375C206.268,30.988 205.164,28.735 203.29,27.255C202.55,26.625 201.54,26.945 200.95,26.325C200.745,26.077 200.684,25.739 200.79,25.435C201.306,24.109 201.035,22.599 200.09,21.535C198.63,19.425 197.09,17.335 196.54,14.765C195.67,10.455 196.24,6.525 199.54,3.185C201.65,1.055 206.72,0.855 208.89,2.815L211.06,4.815C212.15,4.165 212.98,3.005 214.39,2.945C215.06,4.645 214.64,13.115 213.68,17.675C211.25,18.115 209.99,17.965 208.47,17.055C208.47,14.355 208.41,11.655 206.31,9.745C205.641,9.464 204.904,9.384 204.19,9.515C202.815,10.33 202.139,11.968 202.54,13.515C203.026,15.86 204.127,18.035 205.73,19.815C206.73,20.245 207.78,20.075 208.57,21.105C207.52,23.565 208.96,25.555 210.21,27.635C210.628,28.404 210.964,29.215 211.21,30.055C211.329,30.774 211.68,31.435 212.21,31.935C212.21,32.275 212,32.685 212.43,32.935C212.95,32.445 212.8,32.095 212.33,31.955ZM211.06,43.045C212.7,41.225 213.65,36.965 212.85,34.045C212.897,35.704 212.657,37.358 212.14,38.935C211.639,40.272 211.303,41.666 211.14,43.085C210.94,43.085 210.64,43.025 210.54,43.135C209.284,44.371 207.818,45.373 206.21,46.095C208.15,45.585 210.11,45.095 211.07,43.045L211.06,43.045ZM203.21,45.625L199.75,43.885C200.67,45.575 201.92,45.625 203.21,45.625Z" style="fill-rule:nonzero;"/>
        </g>
        <g transform="matrix(1,0,0,1,-17.0036,-0.543504)">
            <path d="M281.65,59.175C280.22,59.315 280.27,57.845 279.52,57.245C278.64,57.615 277.85,58.245 276.76,58.045C275.65,57.185 275.92,55.785 275.86,54.665C275.63,49.665 275.35,44.595 274.8,39.585C274.8,39.465 274.65,39.345 274.42,38.985C274.01,41.215 273.63,43.245 273.27,45.275C273.2,45.635 273.18,46.005 273.11,46.365C272.65,48.665 272.88,49.195 274.9,50.555C275.48,51.685 274.74,52.715 274.49,53.725C274.24,54.735 274.25,55.905 273.89,56.995C271.11,57.225 269.81,55.235 268.29,53.545C266.29,54.545 264.4,55.425 262.13,54.105C262.363,51.935 262.815,49.794 263.48,47.715C264.48,47.475 265.64,47.515 266.31,45.985C266.95,43.985 267.19,41.535 267.74,39.105C268.22,37.035 268.39,35.035 266.48,33.545C269.14,30.885 269.24,30.895 269.78,27.175C270.04,25.365 270.57,23.605 270.78,21.785C270.796,21.529 270.796,21.271 270.78,21.015C270.27,19.845 269.29,19.255 268.39,18.325L269.5,11.845C271.9,12.115 273.21,13.575 274.5,15.215C275.61,14.825 276.43,13.885 277.71,13.645C278.164,13.772 278.491,14.174 278.52,14.645C278.85,18.075 279.16,21.495 279.52,24.925L280.14,31.585C281.2,30.485 282.08,25.405 281.77,22.955C281.48,22.215 280.63,22.075 280.13,21.485C279.97,19.235 280.95,17.195 281.13,14.805C283.95,14.935 285.5,16.745 287.02,18.715C289.11,17.505 291.2,16.715 293.61,18.265L292.25,24.405C291.06,24.975 289.61,24.905 289,26.265C288.47,28.265 288.1,30.365 287.53,32.415C286.6,35.735 286.7,35.765 288.24,38.625C288.184,38.995 287.948,39.314 287.61,39.475C285.97,40.145 285.5,41.525 285.18,43.125C284.29,47.645 283.35,52.125 282.3,56.655C282.11,57.525 282.47,58.535 281.65,59.175ZM280.38,32.705C280.52,32.445 280.6,32.235 280.21,32.075C280.05,32.335 280,32.545 280.37,32.705L280.38,32.705Z" style="fill-rule:nonzero;"/>
        </g>
        <g transform="matrix(1,0,0,1,-17.0036,-0.543504)">
            <path d="M91.53,9.585C93.77,8.445 95.7,9.325 97.59,10.315C99.45,9.215 100.74,7.225 103.2,7.255C103.727,8.034 104.006,8.955 104,9.895C104.12,10.835 104.29,11.775 104.46,12.895C103.207,13.804 102.306,15.119 101.91,16.615C102.26,18.885 102.71,21.195 102.91,23.525C103.09,25.445 103.57,27.115 105.54,28.225C102.61,31.225 104.4,34.565 104.64,37.745C104.9,41.115 105.41,44.455 105.81,47.815C105.81,48.165 105.95,48.545 105.67,48.815C104.93,49.115 104.5,48.215 103.77,48.385C102.9,48.805 102.52,50.025 101.22,50.085C100.488,49.509 99.953,48.719 99.69,47.825C98.22,43.745 96.11,39.965 94.27,36.055C93.65,34.735 93.08,33.385 92.53,32.055C92.411,31.665 92.089,31.369 91.69,31.285C92.07,33.405 92.44,35.475 92.81,37.545C93.072,38.689 93.265,39.848 93.39,41.015C93.51,43.175 94.39,44.665 96.65,45.075C97.5,47.025 97.52,49.075 97.84,51.075C95.49,52.155 93.68,51.215 91.84,50.075C90.536,51.7 88.804,52.929 86.84,53.625C85.25,51.955 85.78,49.745 85.21,47.765C87.69,46.225 87.92,44.255 87.21,41.765C86.638,39.792 86.303,37.757 86.21,35.705C86.152,34.875 85.688,34.126 84.97,33.705C84.5,33.375 83.88,33.195 83.66,32.375C85.39,30.575 85.06,28.315 84.66,26.045C84.28,23.955 83.94,21.845 83.6,19.865C82.671,19.165 81.664,18.574 80.6,18.105C79.76,16.375 79.81,14.445 79.37,12.605C80.53,11.765 81.74,12.285 82.73,12.135C83.53,12.275 83.98,12.835 84.52,13.135C85.6,12.375 86.25,11.255 87.66,10.655C91.02,16.825 93.94,23.155 97.25,29.295C96.683,25.488 96.117,21.678 95.55,17.865C95.502,16.926 94.887,16.106 94,15.795C93.527,15.647 93.047,15.527 92.56,15.435C91.4,13.585 91.67,11.585 91.53,9.585Z" style="fill-rule:nonzero;"/>
        </g>
        <g transform="matrix(1,0,0,1,-17.0036,-0.543504)">
            <path d="M297.09,27.405L295.52,25.975C295.801,23.656 296.351,21.377 297.16,19.185C299.393,20.018 301.239,21.651 302.34,23.765C302.62,23.625 302.89,23.525 303.14,23.375C306,21.675 308.69,22.375 311.2,24.085C315.33,26.945 315.86,30.565 315.06,34.925C314.66,37.085 313.98,39.185 313.42,41.315C312.57,44.575 312.57,44.575 313.55,47.415C313.38,48.485 312.2,48.415 311.48,49.335C310.57,50.735 310.31,52.645 309.87,54.495C309.2,57.285 308.47,60.035 306.69,62.405C305.001,64.936 301.872,66.121 298.93,65.345C296.903,64.87 295.136,63.63 294,61.885C293.76,61.525 293.72,61.035 293.11,60.745C291.385,61.754 289.295,61.938 287.42,61.245C287.767,59.217 288.242,57.213 288.84,55.245C289.4,54.635 289.97,54.805 290.45,54.665C291.239,54.428 291.836,53.773 292,52.965C292.64,50.105 293.24,47.235 293.8,44.355C293.857,43.944 293.857,43.526 293.8,43.115C293.49,41.825 292.4,41.525 292.59,40.625C292.75,40.015 293.22,39.945 293.59,39.795C294.569,39.404 295.273,38.526 295.44,37.485C295.99,35.135 296.44,32.755 297.18,30.485C297.489,29.477 297.458,28.394 297.09,27.405ZM301.26,57.665C301.747,57.399 302.107,56.948 302.26,56.415C302.67,55.085 303.16,53.775 303.51,52.415C305.11,46.255 306.67,40.085 308.24,33.925C308.475,33.078 308.475,32.182 308.24,31.335C307.61,30.335 306.99,29.425 305.64,29.715C304.29,30.005 304.03,30.935 303.7,32.085C301.92,38.345 300.83,44.775 299.03,51.085C298.49,52.955 297.51,54.985 298.71,57.085C299.409,57.692 300.367,57.91 301.26,57.665Z" style="fill-rule:nonzero;"/>
        </g>
        <g transform="matrix(1,0,0,1,-17.0036,-0.543504)">
            <path d="M239.06,42.695C239.66,42.095 240.49,42.505 241.06,41.985C242.78,37.615 244.97,33.325 243.13,28.185C245.47,27.365 246.23,25.375 246.71,23.185C247.03,21.685 247.56,20.185 248.02,18.745C248.322,17.868 248.388,16.926 248.21,16.015L247,14.465C247,12.215 247.72,10.025 247.88,7.645C251.18,6.995 252.74,9.345 254.61,11.425C255.707,10.818 256.839,10.277 258,9.805C259.34,9.335 260.43,9.805 261.77,10.265C261.643,12.577 261.308,14.873 260.77,17.125C260.28,17.855 259.61,17.605 259.25,18.015C258.77,18.673 258.546,19.484 258.62,20.295C258.62,22.205 258.67,24.125 258.62,26.035C258.57,27.945 258.5,30.035 260.32,31.195C260.44,31.855 260.38,32.195 260.09,32.485C258.937,33.549 258.366,35.108 258.56,36.665C258.61,38.945 258.56,41.235 258.56,43.515C258.475,44.194 258.568,44.883 258.83,45.515C259.09,46.135 259.94,46.165 260.36,46.955C260.199,49.165 259.814,51.353 259.21,53.485C256.79,53.625 255.85,51.485 254.21,50.365C252.45,50.975 250.77,52.645 248.66,51.065C248.21,50.985 247.79,51.515 247.09,51.235C245.755,50.589 244.606,49.615 243.75,48.405C241.89,48.795 240.38,50.475 238.17,49.495C237.92,47.095 238.87,44.875 239.06,42.695ZM248.26,38.975C247.15,41.885 247.4,42.745 249.75,44.575C252.64,43.905 252.8,43.645 252.6,39.965L248.26,38.975ZM250.36,32.275C251.03,32.741 251.852,32.938 252.66,32.825C252.825,30.243 252.705,27.651 252.3,25.095L250.36,32.275Z" style="fill-rule:nonzero;"/>
        </g>
        <g transform="matrix(1,0,0,1,-17.0036,-0.543504)">
            <path d="M80,33.805C79.013,34.834 78.558,36.265 78.77,37.675C79.008,40.319 79.419,42.945 80,45.535C80.08,46.045 80.2,46.535 80.27,47.055C80.91,51.795 79.52,54.495 75.27,56.825C74.89,57.035 74.53,57.295 74.18,57.525C72.185,57.723 70.175,57.723 68.18,57.525C65.565,56.139 63.756,53.591 63.31,50.665C62.583,47.914 61.999,45.127 61.56,42.315C61.372,41.518 60.912,40.811 60.26,40.315C59.85,39.905 59.17,39.805 58.92,39.015C60.43,37.175 60.06,35.015 59.51,32.855C58.96,30.695 58.59,28.235 57.98,25.975C57.298,23.53 57.884,20.899 59.54,18.975C61.811,16.072 65.438,14.554 69.1,14.975C71.987,15.163 74.472,17.122 75.33,19.885C76.234,22.423 76.795,25.069 77,27.755C77.072,30.111 78.168,32.322 80,33.805ZM74.34,49.615C74.414,49.333 74.46,49.045 74.48,48.755C74.477,46.404 74.074,44.071 73.29,41.855C72.68,40.255 72.89,38.485 72.45,36.855C71.768,34.404 71.283,31.903 71,29.375C70.82,27.755 70.09,26.245 70,24.665C70.071,22.838 68.715,21.241 66.9,21.015C65.479,21.43 64.334,22.491 63.81,23.875C65.72,32.645 67.22,41.395 69.34,50.095L71.52,51.485C72.587,51.079 73.551,50.44 74.34,49.615Z" style="fill-rule:nonzero;"/>
        </g>
        <g transform="matrix(1,0,0,1,-17.0036,-0.543504)">
            <path d="M118.48,45.095C116.48,46.095 115.48,48.265 113.3,48.245C112.62,47.245 112.96,46.245 112.85,45.325C112.74,44.405 112.64,43.435 112.52,42.395L114.19,40.635C114.27,37.854 114.207,35.07 114,32.295C113.74,29.605 113.5,29.225 111.25,27.175C111.64,26.265 112.75,25.735 112.66,24.045C112.12,22.515 112.53,20.365 112.35,18.245C112.298,17.152 112.082,16.074 111.71,15.045C111.307,13.741 110.271,12.724 108.96,12.345C108.54,10.458 108.342,8.528 108.37,6.595C110.37,5.685 112.02,6.985 113.95,7.505C115.38,6.247 116.919,5.119 118.55,4.135L122.26,4.135C123.39,4.639 124.443,5.299 125.39,6.095C126.55,5.605 127.31,4.575 128.6,3.665L129.8,16.665C127.97,18.035 125.97,17.035 124.08,17.815L123.32,12.595C122.969,11.936 122.465,11.37 121.85,10.945C120.51,10.513 119.034,10.975 118.18,12.095C117.859,15.733 118.16,19.398 119.07,22.935C120.97,22.935 122.68,21.935 124.6,22.405C125.6,24.055 125.08,25.955 125.51,27.765C123.72,29.035 121.51,28.545 119.59,29.335C120.19,31.945 119.83,34.435 120.08,36.905C120.23,38.445 120.62,39.795 122.08,40.645C123.058,41.034 124.185,40.677 124.76,39.795C125.563,38.904 125.858,37.662 125.54,36.505C125.178,35.377 125.123,34.172 125.38,33.015C125.698,32.846 126.033,32.712 126.38,32.615C127.89,32.405 129.38,32.245 131.21,32.025C131.33,36.425 132.08,40.665 131.8,44.925C131.12,45.335 130.8,44.845 130.33,44.645C129.86,44.445 129.7,44.015 129.01,43.965C126,47.155 122.48,48.685 118.48,45.095Z" style="fill-rule:nonzero;"/>
        </g>
        <g transform="matrix(1,0,0,1,-17.0036,-0.543504)">
            <path d="M142,38.485C143.06,38.177 143.954,37.456 144.48,36.485C144.13,32.595 144.4,28.775 144.2,24.895C141.76,20.355 139.27,15.775 136.86,11.155C136.18,9.845 134.96,9.415 133.7,8.795L133.42,3.545C134.22,2.545 135.14,2.845 135.98,2.795C137.062,3.549 138.235,4.164 139.47,4.625C141.55,3.755 142.89,1.295 145.81,2.105C146.062,3.846 146.126,5.61 146,7.365C145.773,7.766 145.422,8.082 145,8.265C143.35,9.435 143.1,10.265 144.14,11.955C145.02,13.385 145.32,15.155 146.66,16.325C148.201,14.394 149.193,12.082 149.53,9.635C148.75,8.635 148.75,8.635 146.96,8.135C146.77,6.225 146.96,4.235 146.52,2.265C149.11,0.985 150.86,3.025 152.95,3.695C154.58,2.395 156.28,1.255 158.77,1.545C158.947,3.423 158.987,5.311 158.89,7.195C156.27,8.255 155.69,10.755 154.73,12.905C153.12,16.505 152.3,20.425 150.4,23.905C150.149,24.441 150.056,25.038 150.13,25.625C150.26,28.405 150.34,31.195 150.52,33.975C150.63,35.695 151.6,36.695 153.89,37.705C154.092,39.67 154.092,41.65 153.89,43.615C151.56,44.215 150,42.785 148.36,41.685L145,44.255C144.199,44.41 143.373,44.372 142.59,44.145L142,38.485Z" style="fill-rule:nonzero;"/>
        </g>
        <g transform="matrix(1,0,0,1,-17.0036,-0.543504)">
            <path d="M46.61,23.585C47.94,22.775 48.43,21.285 49.76,20.665C51.39,24.815 52.81,31.155 52.76,33.965C51.101,34.729 49.355,35.287 47.56,35.625C46.739,33.943 46.212,32.134 46,30.275C45.639,29.593 45.113,29.012 44.47,28.585C41.8,28.285 40.47,29.375 40.37,31.895C40.386,33.519 40.726,35.124 41.37,36.615C42.17,38.835 42.37,41.165 43.01,43.415C44.12,47.585 45.1,51.785 46.17,55.965C46.62,57.715 47.53,58.325 49.55,58.375C50.636,57.835 51.464,56.885 51.85,55.735C51.285,53.774 50.897,51.766 50.69,49.735C52.33,48.575 54.29,48.505 55.89,47.835C56.363,47.987 56.699,48.41 56.74,48.905C57.252,50.662 57.672,52.444 58,54.245C58.61,59.425 56.47,61.865 51.49,64.135C49.725,64.945 47.727,65.098 45.86,64.565C42.91,63.715 41.56,61.295 40.86,58.565C40.13,55.645 39.16,52.795 38.52,49.855C38.21,48.435 36.83,47.855 35.91,47.065C35.91,46.845 35.82,46.655 35.91,46.565C37.46,44.455 36.56,42.295 35.91,40.275C35.1,37.895 34.86,35.415 34.27,33.005C33.271,28.979 35.37,24.782 39.19,23.165C41.58,22.079 44.358,22.236 46.61,23.585Z" style="fill-rule:nonzero;"/>
        </g>
        <g transform="matrix(1,0,0,1,-17.0036,-0.543504)">
            <path d="M184.49,41.605C182.98,43.045 181.49,44.305 179.01,43.605C178.83,41.727 178.776,39.84 178.85,37.955C179.4,37.085 180.31,37.195 180.98,36.445C181.545,35.676 181.857,34.749 181.87,33.795L181.87,24.745L180.06,22.545C180.29,21.435 181.35,21.045 181.95,20.185L181.95,9.835C181.95,8.245 180.57,7.725 179.3,7.155C179.161,5.074 179.161,2.986 179.3,0.905C181.86,0.565 183.66,1.905 185.43,3.275C187.74,1.425 189.21,0.975 191.43,1.505C191.573,3.392 191.597,5.285 191.5,7.175C191.16,7.805 190.65,7.745 190.26,7.905C189.202,8.291 188.462,9.262 188.37,10.385C188.313,11.334 188.313,12.286 188.37,13.235C188.463,14.568 188.443,15.906 188.31,17.235C187.805,19.152 188.467,21.197 190,22.455C190,23.105 189.57,23.275 189.25,23.565C188.404,24.288 187.923,25.352 187.94,26.465L187.94,34.635C187.94,36.285 188.87,37.175 190.32,37.825C190.569,39.817 190.569,41.833 190.32,43.825C187.77,44.775 186.41,42.795 184.49,41.605Z" style="fill-rule:nonzero;"/>
        </g>
        <g transform="matrix(1,0,0,1,-17.0036,-0.543504)">
            <path d="M106.87,26.995C104.87,26.195 104.31,24.505 104.26,22.425C104.173,21.103 104.009,19.788 103.77,18.485C103.36,15.645 103.51,15.395 106.28,14.415C106.38,13.065 105.83,11.735 105.81,10.355C105.79,8.975 105.24,7.635 105.42,6.055C107.21,6.945 106.51,8.545 106.78,9.755C107.05,10.965 107.13,12.365 107.28,13.625C107.88,14.305 108.79,13.755 109.2,14.155C109.805,14.602 110.174,15.303 110.2,16.055C109.97,16.805 109.66,17.565 108.77,17.795C107.978,17.941 107.341,18.535 107.14,19.315L108.14,27.695C108.69,29.145 110.57,29.695 110.64,31.115C110.643,31.749 110.373,32.354 109.9,32.775C109.13,33.75 108.826,35.016 109.07,36.235C109.5,40.465 110.63,44.595 110.68,48.875C110.79,50.256 111.021,51.624 111.37,52.965C111.571,53.453 111.549,54.005 111.31,54.475C109.99,54.335 108.94,53.385 107.56,53.125C106.432,54.07 105.159,54.826 103.79,55.365C103.46,55.425 102.63,55.005 101.79,55.365C99.861,56.087 97.705,55.9 95.93,54.855C93.865,56.731 91.269,57.922 88.5,58.265C87.36,57.635 86.62,56.465 85.56,55.765C84.62,55.975 84.43,56.765 84.02,57.335C83.017,58.866 81.64,60.115 80.02,60.965C75.5,63.185 70.62,63.095 66.6,58.535C68.91,59.468 71.462,59.626 73.87,58.985C77.296,58.197 80.163,55.849 81.61,52.645C82.362,50.868 82.554,48.904 82.16,47.015C81.72,44.335 81.16,41.655 80.65,39.015C80.33,37.445 80.2,36.015 81.46,34.685C81.72,34.415 81.73,33.895 81.9,33.345C83.46,34.345 84.99,35.345 84.9,37.675C83.69,38.875 83.9,40.465 84.22,42.085C84.533,43.135 84.672,44.23 84.63,45.325C84.46,46.145 83.63,46.025 83.55,46.625C83.923,49.561 84.454,52.476 85.14,55.355C87.9,55.245 90.08,53.855 92.31,51.935C95.02,53.475 97.94,52.335 100.86,52.065C102.074,51.711 103.176,51.05 104.06,50.145C105.405,50.89 106.826,51.487 108.3,51.925C107.97,49.435 107.69,47.275 107.39,45.115C106.83,41.185 106.32,37.235 105.66,33.325C105.326,32.109 105.619,30.802 106.44,29.845C107.156,29.077 107.328,27.941 106.87,26.995Z" style="fill-rule:nonzero;"/>
        </g>
        <g transform="matrix(1,0,0,1,-17.0036,-0.543504)">
            <path d="M296.76,66.095C297.109,65.967 297.497,66 297.82,66.185C301.82,67.745 305.65,65.985 307.91,62.865C308.878,61.565 309.587,60.092 310,58.525C310.49,56.605 311.09,54.705 311.53,52.765C311.752,51.231 312.662,49.878 314,49.095C314.273,48.906 314.518,48.681 314.73,48.425C315.119,47.736 315.064,46.879 314.59,46.245C313.894,45.266 313.75,43.994 314.21,42.885C314.82,40.615 315.37,38.325 316.03,36.065C317.03,32.685 317.16,29.415 314.93,26.235C318.5,27.815 320.93,33.455 319.63,37.565C318.68,40.475 318.25,43.565 317.26,46.435C317.158,47.131 317.158,47.839 317.26,48.535L318.42,50.095C318.425,50.945 317.908,51.716 317.12,52.035C316.109,52.504 315.406,53.46 315.26,54.565C314.62,57.185 313.97,59.815 313.12,62.375C312.102,65.975 309.201,68.748 305.56,69.605C304.703,69.841 303.797,69.841 302.94,69.605C300.62,68.905 298.31,68.145 296.76,66.075L296.76,66.095Z" style="fill-rule:nonzero;"/>
        </g>
        <g transform="matrix(1,0,0,1,-17.0036,-0.543504)">
            <path d="M294.07,26.525C294.84,27.455 296.22,27.595 295.99,28.995C295.51,29.675 294.71,29.065 293.99,29.415C292.43,33.095 292,37.095 291.39,40.995C291.39,41.745 292.25,42.145 292.39,43.065C290.39,43.995 289.84,45.805 289.62,47.855C289.31,50.785 287.83,53.405 287.25,56.265C286.88,58.065 286.44,59.845 286.01,61.745C288.01,63.235 290.25,62.895 292.54,62.355C293.54,63.255 294.33,64.485 295.68,65.185C293.644,65.796 291.46,65.708 289.48,64.935C288.56,64.325 288.03,63.255 287.03,62.885C285.82,63.275 286.47,64.365 285.95,65.115C284.675,64.41 283.537,63.482 282.59,62.375L286.91,41.825C287.91,40.615 289.38,40.355 289.51,38.925L289.51,38.515C288.444,36.899 288.189,34.875 288.82,33.045C289.31,31.435 289.5,29.735 289.82,28.045C289.848,27.408 290.095,26.8 290.52,26.325C291.36,25.795 291.98,26.575 292.87,26.505C294.09,23.985 293.87,21.015 295,18.325C295.61,19.325 295.62,19.325 295,22.385C294.72,23.775 294.38,25.095 294.07,26.525Z" style="fill-rule:nonzero;"/>
        </g>
        <g transform="matrix(1,0,0,1,-17.0036,-0.543504)">
            <path d="M48.62,56.675C48.01,56.235 47.99,55.535 47.83,54.905C45.98,47.705 44.15,40.505 42.28,33.315C41.94,32.015 41.88,30.875 43.36,29.865C45.28,32.235 44.97,35.335 46.25,37.985L55.14,34.905L51.24,18.285C52.443,18.819 53.507,19.623 54.35,20.635C55.55,25.395 57,30.165 57.94,35.095C58.311,36.273 57.94,37.564 57,38.365C54.65,39.365 52.06,40.135 49.69,40.915C48.36,40.445 47.91,39.235 46.81,38.845C46.27,39.255 46.55,39.765 46.68,40.205C47.97,44.565 48.68,49.055 49.85,53.455C50.046,54.102 50.114,54.782 50.05,55.455C50,56.245 49.59,56.815 48.62,56.675Z" style="fill-rule:nonzero;"/>
        </g>
        <g transform="matrix(1,0,0,1,-17.0036,-0.543504)">
            <path d="M155.14,35.655L153.39,35.895C152.611,35.367 152.181,34.452 152.27,33.515C152.17,30.945 152.09,28.385 151.98,25.815C151.919,25.307 151.97,24.791 152.13,24.305C154.05,19.535 155.95,14.745 157.87,9.975C157.98,9.715 158.2,9.495 158.14,9.585C158.98,8.695 159.85,9.085 160.6,8.585C160.99,5.985 160.37,3.275 160.66,0.585C161.83,0.315 162.09,1.435 162.76,1.855C163.509,2.217 164.015,2.947 164.09,3.775L164.09,11.465C163.4,12.345 162.48,11.855 162.09,12.205C160.84,13.205 160.72,14.505 160.24,15.625C158.72,19.185 157.36,22.805 155.9,26.395C155.22,28.262 155.092,30.287 155.53,32.225C155.861,33.374 155.721,34.609 155.14,35.655Z" style="fill-rule:nonzero;"/>
        </g>
        <g transform="matrix(1,0,0,1,-17.0036,-0.543504)">
            <path d="M123.53,31.445C123.529,33.189 123.656,34.93 123.91,36.655C123.91,37.555 124.18,38.605 123.13,39.015C122.62,39.015 122.33,38.815 122.27,38.545C121.803,35.934 121.506,33.295 121.38,30.645C123.31,29.805 125.38,30.165 127.53,29.475L126.65,20.585C124.65,20.435 122.7,21.245 120.65,21.025C120.135,18.62 119.801,16.18 119.65,13.725C119.561,13.025 120.053,12.372 120.75,12.265C121.75,12.415 121.75,13.195 121.75,13.935C121.91,15.745 122.1,17.555 122.29,19.495L131.58,18.495C131.58,12.705 130.45,7.035 130.34,0.855C132.11,2.495 131.34,4.315 131.7,5.855C131.939,7.427 132.05,9.015 132.03,10.605C132.71,11.335 133.53,10.535 134.19,10.945C135.041,11.613 135.725,12.468 136.19,13.445C135.73,14.145 135.19,13.125 134.52,14.235C134.366,15.283 134.407,16.351 134.64,17.385C134.896,18.584 134.994,19.811 134.93,21.035C133.09,22.415 130.75,21.375 128.62,22.345C130.62,24.845 130.26,27.645 130.62,30.395C128.21,31.095 125.8,30.865 123.53,31.445Z" style="fill-rule:nonzero;"/>
        </g>
        <g transform="matrix(1,0,0,1,-17.0036,-0.543504)">
            <path d="M259.79,44.345L259.79,35.265C260.064,34.526 260.478,33.847 261.01,33.265C261.612,32.784 261.935,32.033 261.87,31.265C261.666,30.729 261.32,30.259 260.87,29.905C260.112,29.18 259.74,28.136 259.87,27.095C260.24,24.525 259.87,21.955 260.1,19.405C260.49,18.705 261.23,19.405 261.89,18.825L263.44,9.765C264.66,10.509 265.785,11.399 266.79,12.415C266.52,15.635 265.44,18.705 265.4,21.795C264.81,22.385 264.12,21.925 263.57,22.345C263.5,22.475 263.32,22.665 263.32,22.865C263.32,25.435 263.24,28.015 263.32,30.585C263.32,31.915 263.66,32.405 265.32,34.385C265.307,35.04 265.033,35.663 264.56,36.115C263.611,37.06 263.13,38.381 263.25,39.715L263.25,45.385C262.967,45.825 262.483,46.095 261.96,46.105C261.065,45.77 260.303,45.152 259.79,44.345Z" style="fill-rule:nonzero;"/>
        </g>
        <g transform="matrix(1,0,0,1,-17.0036,-0.543504)">
            <path d="M137.33,50.685L132.92,49.095C129.51,51.585 125.92,52.505 121.82,50.255C120.02,52.055 117.64,52.595 115.07,52.775C114.2,52.015 113.07,51.595 112.32,50.225C114.47,49.415 116.77,49.045 118.32,47.385C122.44,49.655 126.09,49.135 129.32,46.015L133.95,48.015C134.1,45.015 133.58,42.265 133.48,39.535C133.38,36.805 133.02,34.005 132.76,31.025C134.22,31.495 134.76,32.685 135.82,33.315C136.52,38.955 136.89,44.635 137.33,50.685Z" style="fill-rule:nonzero;"/>
        </g>
        <g transform="matrix(1,0,0,1,-17.0036,-0.543504)">
            <path d="M235.78,16.095L234.1,15.775C233.313,16.135 232.794,16.91 232.76,17.775C232.7,20.775 231.85,23.775 232.33,26.905C232.85,27.735 234.16,28.415 233.44,29.905C233.21,30.435 232.69,30.725 232.19,31.135L230.19,31.135C229.866,32.556 229.659,34.001 229.57,35.455C229.34,36.835 229.5,38.355 228.5,39.545C227.841,39.453 227.346,38.883 227.346,38.218C227.346,38.133 227.354,38.048 227.37,37.965C227.541,34.87 227.875,31.785 228.37,28.725C229.19,27.825 230.31,27.475 230.51,26.205C230.71,24.935 229.34,24.335 228.75,23.065C229.22,19.895 229.31,16.465 229.97,13.355C230.97,12.605 231.65,13.355 232.47,13.035C233.14,10.345 232.95,7.445 233.74,4.505C235.065,5.137 236.193,6.119 237,7.345C236.48,10.095 236.53,13.095 235.78,16.095Z" style="fill-rule:nonzero;"/>
        </g>
        <g transform="matrix(1,0,0,1,-17.0036,-0.543504)">
            <path d="M44.27,66.095C44.678,65.917 45.142,65.917 45.55,66.095C50.496,67.161 55.611,65.018 58.32,60.745C59.82,58.315 59.7,55.685 59.24,53.055C58.89,51.055 58.35,49.055 57.9,47.055C57.84,46.775 57.71,46.495 58,46.185C59.25,46.685 59.77,48.105 61,48.625C61.899,51.642 62.518,54.735 62.85,57.865C63.58,64.095 58.95,67.925 54,69.095C50.467,70.082 46.667,68.905 44.31,66.095L44.27,66.095Z" style="fill-rule:nonzero;"/>
        </g>
        <g transform="matrix(1,0,0,1,-17.0036,-0.543504)">
            <path d="M236.13,51.535L237.47,50.535C239.398,51.066 241.461,50.799 243.19,49.795C245.911,52.676 250.183,53.526 253.8,51.905C257.68,55.307 263.014,56.554 268,55.225C268.84,56.505 270.53,56.875 271.52,58.125L271.57,58.065L267.82,58.895C264.19,57.995 260.25,57.615 257.19,54.895C253.1,56.775 249.73,55.405 246.63,52.705C244.819,53.595 242.754,53.828 240.79,53.365L239.85,54.065C238.545,53.308 237.313,52.43 236.17,51.445L236.13,51.535Z" style="fill-rule:nonzero;"/>
        </g>
        <g transform="matrix(1,0,0,1,-17.0036,-0.543504)">
            <path d="M141.71,46.255C142.926,46.177 144.127,45.938 145.28,45.545C146.405,45.122 147.455,44.521 148.39,43.765C150.57,45.03 153.132,45.473 155.61,45.015C156.01,42.245 155.26,39.425 155.48,36.445C156.86,36.975 157.48,38.145 158.48,38.875C158.48,41.965 159.22,44.875 158.75,48.055C156.29,48.765 154.13,47.775 151.91,46.675C150.374,47.745 148.645,48.509 146.82,48.925C145.26,49.39 143.565,48.858 142.55,47.585C142.19,47.235 141.64,47.005 141.71,46.255Z" style="fill-rule:nonzero;"/>
        </g>
        <g transform="matrix(1,0,0,1,-17.0036,-0.543504)">
            <path d="M81.9,32.595C80.149,32.084 78.874,30.559 78.68,28.745C78.215,25.068 77.472,21.431 76.46,17.865C77.462,18.481 78.389,19.213 79.22,20.045C79.91,20.225 80.44,19.515 81.3,19.745C82.61,20.225 82.3,21.515 82.52,22.745C81.58,22.855 81.23,21.905 80.41,21.905C80.75,25.465 82.32,28.825 81.9,32.595Z" style="fill-rule:nonzero;"/>
        </g>
        <g transform="matrix(1,0,0,1,-17.0036,-0.543504)">
            <path d="M241.85,35.445L240.32,40.745C239.738,41.283 238.862,41.366 238.19,40.945L239.19,32.785C240.255,33.473 241.162,34.38 241.85,35.445Z" style="fill-rule:nonzero;"/>
        </g>
        <g transform="matrix(1,0,0,1,-17.0036,-0.543504)">
            <path d="M271.52,58.095C272.395,57.941 273.297,58.108 274.06,58.565C275.612,59.278 277.377,59.378 279,58.845C279.78,59.845 280.9,60.485 281.51,61.995C277.51,61.995 274.17,60.935 271.58,57.995L271.52,58.095Z" style="fill-rule:nonzero;"/>
        </g>
        <g transform="matrix(1,0,0,1,-17.0036,-0.543504)">
            <path d="M205,10.675C207,12.115 207.25,13.045 206.89,18.255C206.3,18.505 206.12,17.995 205.95,17.655C205.32,16.345 204.69,15.035 204.15,13.655C203.652,12.594 204.017,11.314 205,10.675Z" style="fill-rule:nonzero;"/>
        </g>
        <g transform="matrix(1,0,0,1,-17.0036,-0.543504)">
            <path d="M203.55,36.265C202.42,34.785 202.26,33.615 202.55,28.555C205.19,30.335 205.71,34.255 203.55,36.265Z" style="fill-rule:nonzero;"/>
        </g>
        <g transform="matrix(1,0,0,1,-17.0036,-0.543504)">
            <path d="M147.81,10.095L146.67,12.685C145.67,11.955 145.56,11.015 145.04,10.275C146,9.355 146.73,9.535 147.81,10.095Z" style="fill-rule:nonzero;"/>
        </g>
        <g transform="matrix(1,0,0,1,-17.0036,-0.543504)">
            <path d="M178.36,8.835C180.24,9.065 180.24,9.065 180.42,10.665C179.498,10.388 178.743,9.718 178.36,8.835Z" style="fill-rule:nonzero;"/>
        </g>
        <g transform="matrix(1,0,0,1,-17.0036,-0.543504)">
            <path d="M269.41,21.635C268.578,21.2 267.918,20.494 267.54,19.635C268.67,20.095 269.35,20.345 269.41,21.635Z" style="fill-rule:nonzero;"/>
        </g>
        <g transform="matrix(1,0,0,1,-17.0036,-0.543504)">
            <path d="M94.06,18.755C93.49,18.605 93.36,18.145 93.26,17.635C93.73,17.265 93.89,17.705 94.08,17.955C94.287,18.183 94.278,18.538 94.06,18.755Z" style="fill-rule:nonzero;"/>
        </g>
        <g transform="matrix(1,0,0,1,-17.0036,-0.543504)">
            <path d="M246.94,16.815C246.52,16.815 246.34,16.575 246.2,16.235C246.83,15.965 247.1,16.095 246.94,16.815Z" style="fill-rule:nonzero;"/>
        </g>
        <g transform="matrix(1,0,0,1,-17.0036,-0.543504)">
            <path d="M280.25,13.095C280.25,13.695 280.14,13.865 279.77,13.735C279.59,13.315 279.79,13.185 280.25,13.095Z" style="fill-rule:nonzero;"/>
        </g>
        <g transform="matrix(1,0,0,1,-17.0036,-0.543504)">
            <path d="M89.14,8.835C89.48,8.915 89.69,9.095 89.67,9.595C89.21,9.505 88.91,9.395 89.14,8.835Z" style="fill-rule:nonzero;"/>
        </g>
        <g transform="matrix(1,0,0,1,-17.0036,-0.543504)">
            <path d="M95.46,42.665C95.46,42.665 95.35,42.665 95.35,42.605C95.35,42.415 95.41,42.375 95.5,42.495C95.59,42.615 95.47,42.605 95.46,42.665Z" style="fill-rule:nonzero;"/>
        </g>
        <g transform="matrix(1,0,0,1,-17.0036,-0.543504)">
            <path d="M58.9,41.775L59.1,41.775L58.91,41.695L58.9,41.775Z" style="fill-rule:nonzero;"/>
        </g>
        <g transform="matrix(1,0,0,1,-17.0036,-0.543504)">
            <path d="M58.91,41.725L58.86,41.615L58.9,41.775L58.91,41.725Z" style="fill-rule:nonzero;"/>
        </g>
        <g transform="matrix(1,0,0,1,-17.0036,-0.543504)">
            <path d="M44.28,66.065L44.27,65.965L44.27,66.125L44.28,66.065Z" style="fill-rule:nonzero;"/>
        </g>
        <g transform="matrix(1,0,0,1,-17.0036,-0.543504)">
            <path d="M296.77,66.045L296.74,65.955L296.76,66.105L296.77,66.045Z" style="fill-rule:nonzero;"/>
        </g>
        <g transform="matrix(1,0,0,1,-17.0036,-0.543504)">
            <path d="M306.11,30.775C307.48,31.475 307.2,32.775 306.95,33.825C306.36,36.475 305.65,39.095 304.95,41.725C303.82,46.135 302.69,50.535 301.53,54.935C301.35,55.605 301.39,56.455 300.38,56.725C299.539,56.254 299.18,55.215 299.55,54.325C301.31,47.052 303.073,39.775 304.84,32.495C305,31.805 305.16,31.035 306.11,30.775Z" style="fill-rule:nonzero;"/>
        </g>
        <g transform="matrix(1,0,0,1,-17.0036,-0.543504)">
            <path d="M249.06,40.635C249.776,40.328 250.606,40.435 251.22,40.915C251.672,41.527 251.599,42.388 251.05,42.915C249.26,43.095 249.06,42.865 249.06,40.635Z" style="fill-rule:nonzero;"/>
        </g>
        <g transform="matrix(1,0,0,1,-17.0036,-0.543504)">
            <path d="M65.57,24.465C65.767,23.732 66.297,23.131 67,22.845C68.25,23.045 68.28,24.115 68.46,25.015C69.27,29.095 70,33.225 70.79,37.345C71.36,40.445 71.92,43.555 72.47,46.655C72.572,47.157 72.649,47.665 72.7,48.175C72.76,49.015 72.44,49.585 71.7,49.705C71.143,49.592 70.73,49.113 70.7,48.545C68.967,40.512 67.257,32.485 65.57,24.465Z" style="fill-rule:nonzero;"/>
        </g>
    </g>
    <g transform="matrix(1,0,0,1,-10.2777,8.13408)">
        <g transform="matrix(1,0,0,1,126.466,52.9865)">
            <path d="M31.53,58.515C31.42,59.625 32.91,59.855 32.86,61.065C32.66,61.995 31.63,62.285 31.21,62.635C30.43,63.475 31.21,64.415 30.29,64.945C30.021,63.675 29.123,62.626 27.91,62.165C27.25,62.795 28.09,63.315 27.85,63.985L26.85,64.765C27.35,66.225 27.53,67.835 28.62,69.065C29.26,69.065 29.22,68.455 29.52,68.125C30.04,68.925 29.31,69.615 29.35,70.555C29.94,71.555 30,72.995 31.35,73.845C31.788,74.133 32.052,74.624 32.052,75.148C32.052,75.549 31.897,75.935 31.62,76.225C30.734,75.732 30.011,74.992 29.54,74.095C24.83,71.095 23.4,66.355 20.94,62.095C22.233,61.529 23.463,60.828 24.61,60.005C26.41,56.275 23.88,53.465 22.81,50.085C19.06,50.665 15.59,51.565 11.87,52.305L10.55,50.545C10.379,50.347 10.285,50.094 10.285,49.833C10.285,49.504 10.434,49.192 10.69,48.985C14.4,49.345 17.77,48.375 21.2,47.345C20.9,45.075 20.49,43.015 20.38,40.935C20.176,38.084 21.422,35.314 23.69,33.575C24.69,32.455 24.18,30.775 25.37,29.815L25.31,29.765C25.366,30.651 25.201,31.538 24.83,32.345C24.32,33.825 24.508,35.459 25.34,36.785C26.913,39.673 28.299,42.659 29.49,45.725C30.471,48.094 31.645,50.378 33,52.555C33.4,53.175 34.14,53.765 33.49,54.635C32.49,54.485 33.26,53.105 32.24,52.955C31.22,52.805 30.57,53.665 29.65,54.085C27.87,51.205 27.43,47.525 24.37,45.425C22.98,49.525 27.7,57.275 31.64,58.575L31.53,58.515Z" style="fill-rule:nonzero;"/>
        </g>
        <g transform="matrix(1,0,0,1,126.466,52.9865)">
            <path d="M10.85,20.095C10.49,19.225 11.61,18.735 11.51,17.905C10.44,18.045 10.44,18.045 9.03,19.905C8.421,19.743 7.879,19.393 7.48,18.905L8.15,17.455C6.178,14.341 3.771,11.526 1,9.095C0.93,8.095 1.71,7.665 2.35,7.095C5,9.645 7,12.805 9.26,15.605C9.94,15.325 9.89,14.965 9.68,14.605C7.78,11.605 5.87,8.605 3.93,5.485L4.54,4.955L11,14.315C11.2,14.095 11.3,14.005 11.29,13.985C9.67,11.095 7.82,8.355 6,5.585C5.678,5.073 5.046,4.841 4.47,5.025C4.84,4.481 5.304,4.007 5.84,3.625C8.113,2.143 10.566,0.956 13.14,0.095C14.75,3.815 14.78,8.095 17.14,11.225C18.32,11.815 19.43,11.225 20.45,11.825L19.83,13.895C17.66,15.895 15.03,17.185 12.57,18.745C11.92,19.115 11.322,19.569 10.79,20.095L10.85,20.095ZM12.18,17.435C14.69,16.815 16.49,15.435 16.83,13.855C14.24,14.675 12.71,15.855 12.17,17.415L12.18,17.435Z" style="fill-rule:nonzero;"/>
        </g>
        <g transform="matrix(1,0,0,1,126.466,52.9865)">
            <path d="M12.49,34.145C11.62,34.495 11.66,35.245 11.65,35.995C11.65,39.505 10.57,42.875 10.3,46.435C8.95,45.785 9.3,44.685 9.47,43.875C10.28,40.575 8.59,38.165 6.57,36.055C4.775,34.404 2.867,32.88 0.86,31.495L0,29.435C1.336,26.674 3.174,24.185 5.42,22.095L7.28,24.095C7.855,23.938 8.388,23.654 8.84,23.265C8.02,22.395 7.52,21.265 6.31,20.855L6.37,20.915L6.93,19.915C7.57,20.915 8.23,21.815 9.48,21.915L9.41,21.845C9.3,22.035 9.1,22.215 9.1,22.405C9.1,24.405 9.1,24.405 7.1,25.145C6.96,26.395 5.68,27.145 5.3,28.615C6.506,28.713 7.643,29.222 8.52,30.055C9.233,30.788 9.9,31.562 10.52,32.375C11.435,32.165 12.172,31.482 12.45,30.585L12.45,34.235L12.49,34.145Z" style="fill-rule:nonzero;"/>
        </g>
        <g transform="matrix(1,0,0,1,126.466,52.9865)">
            <path d="M18.12,61.575C17.85,62.435 17.27,62.575 16.62,62.945C17.02,64.625 15.31,65.175 14.62,66.515C16.48,68.125 16.69,70.745 18.32,72.515C18.96,73.225 18.64,74.185 18.59,74.975C18.31,75.375 17.95,75.615 17.59,75.535C15.64,75.085 13.69,76.355 11.4,75.535L15,72.835C15.3,71.585 14.42,71.145 13.72,70.675C12.122,69.727 11.023,68.118 10.72,66.285C11.459,63.684 12.862,61.32 14.79,59.425C16.24,59.905 16.93,61.155 18.12,61.575Z" style="fill-rule:nonzero;"/>
        </g>
        <g transform="matrix(1,0,0,1,126.466,52.9865)">
            <path d="M12.43,34.215C13.06,33.865 13.72,34.495 14.43,34.125C14.28,33.345 13.67,33.465 13.12,33.445C13.04,32.895 12.75,32.305 13.51,31.815C14.45,31.875 14.64,33.055 15.51,33.325C17.4,33.995 19.41,33.375 21.37,33.765C21.55,35.255 20.16,36.175 20.44,37.605L15.22,35.905C14.45,35.975 14.03,36.795 13.16,36.805C12.51,36.045 13.16,34.935 12.55,34.155L12.43,34.215ZM18.75,35.305C19.25,35.575 19.62,35.695 19.92,35.245C19.56,34.875 19.21,34.895 18.75,35.305Z" style="fill-rule:nonzero;"/>
        </g>
        <g transform="matrix(1,0,0,1,126.466,52.9865)">
            <path d="M18.49,26.145C16.83,24.295 16.82,23.785 18.32,20.985C19.017,20.668 19.843,20.83 20.37,21.385C20.95,22.725 20.43,23.905 19.68,25.075L20.17,25.645C19.57,25.845 18.9,25.695 18.49,26.145ZM18.88,21.585C18.46,22.385 18.67,22.675 19.54,22.585C19.72,21.925 19.44,21.685 18.88,21.585Z" style="fill-rule:nonzero;"/>
        </g>
        <g transform="matrix(1,0,0,1,126.466,52.9865)">
            <path d="M23.06,23.605C23.06,23.325 22.97,23.025 23.24,22.755C23.74,22.495 24.17,22.755 24.63,23.075C24.976,23.682 25.136,24.378 25.09,25.075C23.69,27.075 23.69,27.075 22.09,27.075C21.04,25.285 21.41,24.025 23.09,23.525C23.18,23.975 22.77,24.525 23.42,24.855C24.16,24.025 24.16,24.025 23.06,23.605Z" style="fill-rule:nonzero;"/>
        </g>
        <g transform="matrix(1,0,0,1,126.466,52.9865)">
            <path d="M20.46,30.185C21.151,30.138 21.828,29.969 22.46,29.685C23.12,30.075 23.27,30.495 23,31.045C20.11,32.575 18.25,32.405 16.53,30.325C17.98,30.165 19.08,31.695 20.53,30.915L20.53,30.145L20.46,30.185Z" style="fill-rule:nonzero;"/>
        </g>
        <g transform="matrix(1,0,0,1,126.466,52.9865)">
            <path d="M25.36,29.805C25.339,28.774 25.54,27.751 25.95,26.805C26.53,24.725 27.35,22.695 27.27,20.485C27.95,23.845 26.56,26.775 25.27,29.725L25.36,29.805Z" style="fill-rule:nonzero;"/>
        </g>
        <g transform="matrix(1,0,0,1,126.466,52.9865)">
            <path d="M21.47,27.525C20.97,29.005 20.12,29.035 19.4,28.725C18.68,28.415 17.56,28.335 17.95,26.875C18.38,27.365 18.7,27.875 19.34,27.945C20.077,28.041 20.825,27.893 21.47,27.525Z" style="fill-rule:nonzero;"/>
        </g>
        <g transform="matrix(1,0,0,1,126.466,52.9865)">
            <path d="M16.06,29.275C14.96,28.955 14.73,28.405 15.66,27.275C16.25,28.205 17.42,28.275 17.8,29.275C17.461,29.404 17.077,29.339 16.8,29.105C16.43,28.835 16.15,28.955 15.96,29.335L16.06,29.275Z" style="fill-rule:nonzero;"/>
        </g>
        <g transform="matrix(1,0,0,1,126.466,52.9865)">
            <path d="M30.92,56.365C31.49,56.805 31.92,57.465 32.64,57.745L31.53,58.515L31.6,58.575L31,56.315L30.92,56.365Z" style="fill-rule:nonzero;"/>
        </g>
        <g transform="matrix(1,0,0,1,126.466,52.9865)">
            <path d="M18.71,19.375L19.36,18.755C19.84,18.746 20.285,19.015 20.5,19.445C19.85,20.015 19.33,19.675 18.71,19.375Z" style="fill-rule:nonzero;"/>
        </g>
        <g transform="matrix(1,0,0,1,126.466,52.9865)">
            <path d="M25.16,20.985C26.01,20.915 25.83,21.635 26.16,21.985C25.88,22.105 25.69,22.245 25.64,22.205C25.15,21.845 25.15,21.835 25.16,20.985Z" style="fill-rule:nonzero;"/>
        </g>
        <g transform="matrix(1,0,0,1,126.466,52.9865)">
            <path d="M20.5,30.095C19.73,30.035 18.89,30.415 18.22,29.725L18.17,29.725C18.96,29.725 19.79,29.365 20.46,30.095L20.5,30.095Z" style="fill-rule:nonzero;"/>
        </g>
        <g transform="matrix(1,0,0,1,126.466,52.9865)">
            <path d="M30,66.875C29.756,66.598 29.719,66.191 29.91,65.875C30.31,66.205 30.05,66.565 30,66.875Z" style="fill-rule:nonzero;"/>
        </g>
        <g transform="matrix(1,0,0,1,126.466,52.9865)">
            <path d="M28.26,74.625C28.26,74.925 28.4,75.235 28.26,75.325C27.9,75.665 28.01,75.205 28.01,75.105C28.01,75.005 28.16,74.855 28.26,74.625Z" style="fill-rule:nonzero;"/>
        </g>
        <g transform="matrix(1,0,0,1,126.466,52.9865)">
            <path d="M6.3,20.865C6.13,21.125 6,21.435 5.61,21.485C5.61,20.885 6.1,21.075 6.36,20.925L6.3,20.865Z" style="fill-rule:nonzero;"/>
        </g>
        <g transform="matrix(1,0,0,1,126.466,52.9865)">
            <path d="M34,57.745L34.41,57.295C34.7,57.665 34.43,57.775 34,57.745Z" style="fill-rule:nonzero;"/>
        </g>
        <g transform="matrix(1,0,0,1,126.466,52.9865)">
            <path d="M31,56.315C30.767,56.153 30.669,55.854 30.76,55.585C30.982,55.407 31.277,55.348 31.55,55.425L31.5,55.375C31.449,55.773 31.24,56.133 30.92,56.375L31,56.315Z" style="fill-rule:nonzero;"/>
        </g>
        <g transform="matrix(1,0,0,1,126.466,52.9865)">
            <path d="M10.49,47.925C10.484,47.869 10.484,47.811 10.49,47.755C10.496,47.699 10.55,47.755 10.58,47.755C10.586,47.812 10.586,47.868 10.58,47.925C10.574,47.982 10.52,47.905 10.49,47.925Z" style="fill-rule:nonzero;"/>
        </g>
        <g transform="matrix(1,0,0,1,126.466,52.9865)">
            <path d="M12.7,29.245C12.7,29.245 12.8,29.245 12.8,29.305C12.808,29.365 12.808,29.425 12.8,29.485C12.792,29.545 12.69,29.485 12.69,29.425C12.686,29.365 12.689,29.304 12.7,29.245Z" style="fill-rule:nonzero;"/>
        </g>
        <g transform="matrix(1,0,0,1,126.466,52.9865)">
            <path d="M13.2,28.165C13.2,28.165 13.09,28.165 13.09,28.105C13.09,27.905 13.17,27.855 13.24,27.985C13.31,28.115 13.22,28.095 13.2,28.165Z" style="fill-rule:nonzero;"/>
        </g>
        <g transform="matrix(1,0,0,1,126.466,52.9865)">
            <path d="M15,40.095C15.22,40.265 15.13,40.425 15,40.585C14.81,40.375 14.71,40.205 15,40.095Z" style="fill-rule:nonzero;"/>
        </g>
        <g transform="matrix(1,0,0,1,126.466,52.9865)">
            <path d="M10.79,20.055L10.7,20.095L10.85,20.075L10.79,20.055Z" style="fill-rule:nonzero;"/>
        </g>
        <g transform="matrix(1,0,0,1,126.466,52.9865)">
            <path d="M31.55,55.435C31.55,55.235 31.55,54.995 31.85,55.215L31.5,55.385L31.55,55.435Z" style="fill-rule:nonzero;"/>
        </g>
        <g transform="matrix(1,0,0,1,126.466,52.9865)">
            <path d="M17.8,29.305C18.1,29.305 18.32,29.445 18.17,29.815L18.22,29.815C17.97,29.745 17.73,29.655 17.84,29.305L17.8,29.305Z" style="fill-rule:nonzero;"/>
        </g>
        <g transform="matrix(1,0,0,1,126.466,52.9865)">
            <path d="M16,29.325C16.21,29.325 16.39,29.325 16.29,29.635C15.98,29.635 16.06,29.445 16.05,29.275L16,29.325Z" style="fill-rule:nonzero;"/>
        </g>
        <g transform="matrix(1,0,0,1,126.466,52.9865)">
            <path d="M9.94,21.405C9.88,21.405 10.1,21.165 9.88,21.345L9.94,21.405Z" style="fill-rule:nonzero;"/>
        </g>
        <g transform="matrix(1,0,0,1,126.466,52.9865)">
            <path d="M9.88,21.345L9.41,21.815L9.48,21.885C9.48,21.555 9.64,21.415 9.95,21.405L9.88,21.345Z" style="fill-rule:nonzero;"/>
        </g>
    </g>
    <g transform="matrix(1,0,0,1,-26.9813,9.7944)">
        <g transform="matrix(2.99813,0,0,2.99813,-366.117,-91.7645)">
            <path d="M145.18,66.965C144.069,67.204 142.921,67.204 141.81,66.965L141.81,61.765C141.077,61.321 140.169,61.268 139.39,61.625C138.99,63.325 139.39,65.105 139.09,66.855C138.121,67.163 137.089,67.225 136.09,67.035C135.56,65.545 135.42,57.035 135.87,54.035C136.886,53.713 137.976,53.699 139,53.995C139.46,55.465 139,56.995 139.36,58.375C140.05,58.75 140.88,58.772 141.59,58.435C142.06,57.035 141.5,55.525 141.97,54.055C142.97,53.595 143.97,53.895 144.97,53.825C145.5,55.385 145.64,63.915 145.18,66.965Z" style="fill-rule:nonzero;"/>
        </g>
        <g transform="matrix(2.99813,0,0,2.99813,-366.117,-91.7645)">
            <path d="M146.66,60.665C146.66,58.405 147.11,56.475 148.81,54.995C149.621,54.221 150.699,53.789 151.82,53.789C153.152,53.789 154.414,54.4 155.24,55.445C157.261,58.24 157.453,61.978 155.73,64.965C154.854,66.308 153.355,67.12 151.751,67.12C149.912,67.12 148.23,66.051 147.45,64.385C146.892,63.227 146.62,61.95 146.66,60.665ZM151.29,57.195C149.74,59.785 150.04,62.635 152.01,63.765C153.72,62.355 153.01,60.425 153.01,58.685C153.01,58.675 153.01,58.664 153.01,58.654C153.01,57.847 152.347,57.184 151.54,57.184C151.456,57.184 151.373,57.191 151.29,57.205L151.29,57.195Z" style="fill-rule:nonzero;"/>
        </g>
        <g transform="matrix(2.99813,0,0,2.99813,-366.117,-91.7645)">
            <path d="M159.93,56.985C159.03,56.295 158.18,56.775 157.53,56.245C157.193,55.566 157.171,54.772 157.47,54.075C158.85,53.555 160.33,53.885 161.77,53.825C163.21,53.765 164.69,53.825 166.16,53.825C166.556,54.559 166.628,55.426 166.36,56.215C165.59,56.785 164.7,56.345 163.69,56.815C163.24,60.025 163.81,63.465 163.38,66.905C162.353,67.21 161.265,67.248 160.22,67.015C159.67,65.355 160.01,63.665 159.95,62.015C159.89,60.365 159.93,58.625 159.93,56.985Z" style="fill-rule:nonzero;"/>
        </g>
    </g>
    <g transform="matrix(1,0,0,1,-15.355,10.039)">
        <g transform="matrix(3.00378,0,0,3.00378,-337.943,-92.2201)">
            <path d="M179.05,55.095C181.05,57.625 181.13,60.525 180.18,63.555C179.705,65.215 178.349,66.483 176.66,66.845C174.832,67.208 172.958,67.272 171.11,67.035L171.11,53.915C173.84,53.815 176.53,53.315 179.05,55.095ZM175,56.755C174.598,59.162 174.598,61.618 175,64.025C177,63.285 177,61.605 177.08,60.025C177.277,58.579 176.393,57.189 175,56.755Z" style="fill-rule:nonzero;"/>
        </g>
        <g transform="matrix(3.00378,0,0,3.00378,-337.943,-92.2201)">
            <path d="M191.7,60.405C191.815,61.697 191.569,62.995 190.99,64.155C190.299,65.831 188.709,66.974 186.9,67.095C185.18,67.248 183.523,66.372 182.68,64.865C180.89,62.145 181.3,57.405 183.52,55.265C184.355,54.349 185.539,53.827 186.778,53.827C188.39,53.827 189.878,54.71 190.65,56.125C191.434,57.408 191.801,58.904 191.7,60.405ZM186.62,63.595C187.511,62.795 188.021,61.652 188.021,60.455C188.021,59.258 187.511,58.115 186.62,57.315C184.91,59.042 184.906,61.863 186.61,63.595L186.62,63.595Z" style="fill-rule:nonzero;"/>
        </g>
        <g transform="matrix(3.00378,0,0,3.00378,-337.943,-92.2201)">
            <path d="M201.66,54.845C201.642,55.7 201.359,56.528 200.85,57.215C199.807,56.701 198.544,56.916 197.73,57.745C196.39,58.985 196.47,60.465 196.58,62.015C196.936,62.796 197.599,63.396 198.41,63.675C199.03,63.025 198.41,62.075 198.96,61.365C199.33,60.945 199.88,61.085 200.38,61.065C200.88,61.045 201.38,61.065 201.89,61.065C202.52,61.945 202.22,62.845 202.25,63.695C202.28,64.545 202.25,65.305 202.25,66.065C201.291,66.738 200.148,67.098 198.977,67.098C196.721,67.098 194.669,65.759 193.76,63.695C192.72,61.391 192.831,58.725 194.06,56.515C195.01,54.894 196.754,53.895 198.632,53.895C199.715,53.895 200.772,54.227 201.66,54.845Z" style="fill-rule:nonzero;"/>
        </g>
        <g transform="matrix(3.00378,0,0,3.00378,-337.943,-92.2201)">
            <path d="M208.19,53.905C208.644,54.532 209.206,55.074 209.85,55.505C209.97,56.285 209.9,56.835 209.47,57.075C208.71,57.455 208.41,56.665 207.87,56.825C207.601,57.084 207.525,57.486 207.68,57.825C208.071,58.363 208.513,58.862 209,59.315C209.853,60.002 210.468,60.94 210.76,61.995C210.58,63.495 211.12,65.455 209.11,66.465C207.311,67.356 205.166,67.215 203.5,66.095C203.54,65.343 203.771,64.613 204.17,63.975C204.92,63.775 205.41,64.425 206.08,64.465C206.99,64.295 207.55,63.865 207.22,62.735C206,62.415 205.4,61.265 204.56,60.535C203.78,58.535 203.4,56.625 204.56,54.645C205.582,53.834 206.932,53.558 208.19,53.905Z" style="fill-rule:nonzero;"/>
        </g>
    </g>
    <g transform="matrix(1,0,0,1,-12.9128,3.24217)">
        <g transform="matrix(1,0,0,1,-16.0884,73.7884)">
            <path d="M131,72.635C131.179,73.429 131.02,74.263 130.56,74.935C130.36,75.375 129.93,75.815 130.56,76.415C131.43,76.545 131.86,75.245 132.7,75.695C133.99,73.965 134.39,71.995 135.6,70.455C135.6,72.455 134.18,74.015 133.8,75.945C134.8,76.495 135.5,75.425 136.22,75.615C137.06,74.875 137.03,73.765 137.81,73.015C138.73,74.305 136.5,75.265 137.7,76.545C139.37,76.045 139.08,73.965 140.48,72.855C140.48,75.015 138.48,76.475 139.55,78.445C138.08,79.945 136.43,78.975 134.93,79.165C135.99,78.295 137.52,79.345 138.58,78.105C137.88,77.165 136.5,77.495 136.01,76.615C135.01,76.615 134.41,77.395 133.58,77.465C132.75,77.535 132.73,76.665 132.08,76.665C131.43,76.665 131.08,77.505 130.31,77.475C129.55,77.695 129.23,76.875 128.71,76.685C127.77,77.045 127.03,77.845 126.02,77.305C125.41,76.365 126.02,75.445 126.02,74.505C124.79,75.165 124.5,76.505 123.6,77.575C122.6,76.395 124.2,75.495 123.72,74.385L121.63,77.265C119.75,77.005 117.89,77.625 116.02,77.405C115.02,74.725 116.3,73.195 119.82,72.965C119.2,74.175 119.2,74.175 119.31,76.115L121.38,75.605C122.2,74.905 122.38,73.975 122.97,73.185C124.416,72.998 125.879,72.978 127.33,73.125C128.08,74.195 126.87,75.025 127.27,76.075C128.05,76.355 128.56,75.365 129.16,75.675C130.27,74.855 130.16,73.385 131.16,72.675L131,72.635ZM116.61,76.345C117.566,76.289 118.323,75.486 118.323,74.528C118.323,74.344 118.295,74.161 118.24,73.985C117.268,74.028 116.491,74.84 116.491,75.813C116.491,75.993 116.518,76.173 116.57,76.345L116.61,76.345Z" style="fill-rule:nonzero;"/>
        </g>
        <g transform="matrix(1,0,0,1,-16.0884,73.7884)">
            <path d="M169,72.635C169.31,73.855 167.93,74.725 168.28,76.085C169.21,76.175 169.94,75.515 170.73,75.635C171.24,74.875 171.87,74.255 170.98,73.225C172.33,73.225 172.4,72.015 172.98,71.375C173.66,71.905 172.56,73.125 174.46,73.095C173.38,73.685 172.54,73.735 172.28,74.455C172.07,75.025 171.38,75.515 171.83,76.205C172.37,76.665 172.67,76.205 173,75.975C173.29,75.704 173.733,75.671 174.06,75.895C173.53,77.035 172.36,77.055 171.56,77.435C170.65,77.435 170.73,76.525 170.11,76.305C169.35,76.615 168.79,77.415 167.85,77.445C167.27,77.445 167.02,76.855 166.41,76.615C165.19,77.805 163.52,77.125 162.1,77.435C161.38,77.435 161.19,76.585 160.58,76.565C159.76,76.565 159.2,77.145 158.35,77.445C157.528,77.126 156.61,77.155 155.81,77.525L154.49,76.585C153.18,76.585 152.14,78.005 150.62,77.275C149.77,76.135 150.85,75.355 151.31,74.435L151.31,74.355L151.31,74.485L150.6,73.915C150.614,73.321 150.81,72.745 151.16,72.265C152.06,72.325 152.26,73.265 152.97,73.395C152.97,74.795 151.53,75.055 151.36,76.265C152.69,77.135 153.52,75.345 154.72,75.705C155.487,73.945 157.202,72.776 159.12,72.705C159.06,74.015 158.03,75.055 158.49,76.365C159.49,76.565 159.93,75.215 160.9,75.725C161.621,74.15 163.111,73.058 164.83,72.845C165.64,72.155 165.45,70.935 166.57,70.355C166.76,72.655 164.57,74.145 164.66,76.355C165.73,76.435 166.2,75.265 166.98,75.525C168.07,74.695 167.71,73.115 168.98,72.595L169,72.635ZM162.58,76.635C163.16,75.745 164.01,75.465 163.58,74.445C162.733,74.83 162.304,75.8 162.59,76.685L162.58,76.635ZM157.52,74.355C156.69,74.955 156.07,75.355 156.29,76.265C157.07,75.995 157.34,75.445 157.53,74.395L157.52,74.355Z" style="fill-rule:nonzero;"/>
        </g>
        <g transform="matrix(1,0,0,1,-16.0884,73.7884)">
            <path d="M200.86,72.655C201.08,73.855 199.79,74.725 200.09,76.135L202.24,75.565C203.03,74.875 203.18,73.955 203.78,73.155C204.654,72.976 205.556,72.976 206.43,73.155C206.56,74.255 205.77,75.035 205.85,76.155C206.97,76.207 208.03,75.627 208.59,74.655C209.204,73.572 210.4,72.944 211.64,73.055C212.04,73.905 211.29,74.195 211.28,74.665C210.7,74.815 210.38,74.205 209.91,74.495C209.331,74.871 208.961,75.497 208.91,76.185C210.73,77.425 212,75.185 213.46,75.585C214.16,75.065 213.89,74.375 214.21,73.815C214.69,73.485 215.16,72.995 215.91,73.165C216.04,73.665 215.42,73.825 215.45,74.255C215.67,74.545 215.93,74.815 215.79,75.255C215.65,75.695 215.02,75.665 215.02,76.185C215.02,76.185 214.82,76.305 214.97,76.135C215.823,76.144 216.675,76.061 217.51,75.885C216.781,76.625 215.865,77.154 214.86,77.415C213.69,77.535 213.21,76.815 212.5,76.625C211.5,76.845 210.62,77.415 209.92,77.455C209.06,77.363 208.234,77.068 207.51,76.595L205.71,77.415C205.208,77.494 204.713,77.216 204.52,76.745C204.43,75.815 205.52,75.105 205,73.975C203.17,74.355 203.45,76.315 202.35,77.395C201.557,76.92 200.563,76.92 199.77,77.395C199.287,77.346 198.865,77.04 198.67,76.595C199.5,75.385 199.23,73.505 200.9,72.655L200.86,72.655Z" style="fill-rule:nonzero;"/>
        </g>
        <g transform="matrix(1,0,0,1,-16.0884,73.7884)">
            <path d="M112.93,74.315C112.93,74.885 113.45,75.365 113.25,75.995C112.16,79.585 110.9,80.635 108.92,79.385L111.09,74.265L110.3,73.165C112.3,73.315 112.2,71.275 113.3,70.315C113.79,71.235 112.81,71.735 112.96,72.265C113.24,73.165 114.03,72.895 114.48,73.265C114.09,73.785 113.29,73.475 112.93,74.315ZM110.26,78.985C112.26,77.585 112.48,76.835 111.71,75.255C110.967,76.382 110.47,77.653 110.25,78.985L110.26,78.985Z" style="fill-rule:nonzero;"/>
        </g>
        <g transform="matrix(1,0,0,1,-16.0884,73.7884)">
            <path d="M177,72.665C177.1,73.845 175.91,74.735 176.16,75.875C176.65,76.315 176.93,75.955 177.25,75.875C177.57,75.795 177.95,75.695 178.25,75.615C178.91,74.945 178.97,73.955 179.78,73.295C180.506,72.84 181.463,72.972 182.04,73.605C182.28,75.935 181.87,76.605 179.84,77.485C178.95,77.485 178.7,76.615 178.07,76.255C177.29,76.775 176.61,77.505 175.63,77.495C175.08,77.355 174.87,76.985 174.72,76.385C175.5,75.265 175.47,73.525 177.05,72.755L177,72.665ZM179.83,76.505C180.759,76.056 181.196,74.959 180.83,73.995C179.958,74.497 179.539,75.539 179.82,76.505L179.83,76.505Z" style="fill-rule:nonzero;"/>
        </g>
        <g transform="matrix(1,0,0,1,-16.0884,73.7884)">
            <path d="M226.5,77.025L229.16,75.095C228.56,74.175 226.88,74.415 227.04,72.835C227.87,70.635 228.3,70.365 230.96,70.545C231.927,71.274 232.158,72.651 231.48,73.655C230.486,75.493 228.796,76.859 226.79,77.445L226.5,77.025ZM227.89,73.025C228.39,73.955 229.36,73.685 229.82,74.295C230.549,73.712 231.008,72.855 231.09,71.925C229.6,70.535 229,70.735 227.89,73.095L227.89,73.025Z" style="fill-rule:nonzero;"/>
        </g>
        <g transform="matrix(1,0,0,1,-16.0884,73.7884)">
            <path d="M105.31,76.095C104.97,76.985 104.2,77.095 103.46,77.485C102.689,77.052 101.737,77.087 101,77.575C99.2,75.395 100.49,73.575 104.33,72.755L103.58,75.755C104.07,76.625 104.68,75.845 105.31,76.095ZM103.08,74.025C100.89,75.145 100.75,75.425 101.65,76.555C102.61,76.095 102.86,75.295 103.08,74.045L103.08,74.025Z" style="fill-rule:nonzero;"/>
        </g>
        <g transform="matrix(1,0,0,1,-16.0884,73.7884)">
            <path d="M239.83,76.615C240.53,76.244 241.105,75.673 241.48,74.975C241.22,73.365 240.05,73.665 238.9,73.905C238.68,72.465 239.47,71.565 239.97,70.495L243.84,70.495C242.69,71.195 241.71,70.745 240.96,70.995C240.21,71.245 240.15,71.905 239.9,72.495C240.54,73.335 242.13,73.015 242.34,74.435C241.59,77.275 239.57,78.255 237.28,76.825C237.59,76.325 238.05,76.655 238.44,76.615C238.83,76.575 239.32,76.615 239.83,76.615Z" style="fill-rule:nonzero;"/>
        </g>
        <g transform="matrix(1,0,0,1,-16.0884,73.7884)">
            <path d="M183.78,77.525C184.063,76 184.622,74.539 185.43,73.215C186.182,73.005 186.972,72.967 187.74,73.105C188.62,74.105 187.39,74.925 187.65,75.845C188.07,76.505 188.65,75.985 189.44,75.845C189.051,76.758 188.188,77.385 187.2,77.475C185.28,76.765 187.34,75.285 186.44,74.385C184.67,74.595 185.26,76.765 183.78,77.525Z" style="fill-rule:nonzero;"/>
        </g>
        <g transform="matrix(1,0,0,1,-16.0884,73.7884)">
            <path d="M194,75.795C194.73,75.555 194.89,76.375 195.43,76.325C195.97,76.275 195.98,75.725 195.93,75.325C195.66,74.675 195.07,75.325 194.72,74.825C194.64,73.695 195.31,72.825 196.2,71.435C196.37,73.435 197.29,74.935 196.83,76.635C196.572,77.138 196.052,77.456 195.486,77.456C195.236,77.456 194.99,77.394 194.77,77.275C194.17,77.095 193.46,76.775 194,75.795Z" style="fill-rule:nonzero;"/>
        </g>
        <g transform="matrix(1,0,0,1,-16.0884,73.7884)">
            <path d="M147.08,76.315C147.93,76.715 148.25,75.645 148.97,75.845C148.2,77.055 148.09,77.115 146.26,77.365C145.49,76.165 146.42,75.175 146.74,74.205L146.21,73.205C147.26,73.055 147.69,72.205 148.04,71.355C149.04,71.825 147.73,73.075 149.44,73.075C147.84,73.985 146.76,74.745 147.08,76.315Z" style="fill-rule:nonzero;"/>
        </g>
        <g transform="matrix(1,0,0,1,-16.0884,73.7884)">
            <path d="M233.39,77.315C233.68,75.455 234.93,73.955 235.26,72.315C235.52,71.495 234.44,71.395 234.63,70.695C235.262,70.416 235.977,70.388 236.63,70.615C236.63,71.995 235.78,73.055 235.2,74.155C234.62,75.255 234.63,76.595 233.39,77.315Z" style="fill-rule:nonzero;"/>
        </g>
        <g transform="matrix(1,0,0,1,-16.0884,73.7884)">
            <path d="M223.59,70.665C224.156,70.362 224.832,70.336 225.42,70.595C224.79,73.035 223.36,75.085 222.28,77.305C222.21,75.305 223.56,73.735 224.18,71.865C224.24,71.395 223.29,71.325 223.59,70.665Z" style="fill-rule:nonzero;"/>
        </g>
        <g transform="matrix(1,0,0,1,-16.0884,73.7884)">
            <path d="M169.08,72.705C169.08,72.285 168.92,71.835 169.27,71.465C169.77,71.925 169.77,71.925 169.01,72.645L169.08,72.705Z" style="fill-rule:nonzero;"/>
        </g>
        <g transform="matrix(1,0,0,1,-16.0884,73.7884)">
            <path d="M131,72.695C131.09,72.295 130.87,71.855 131.19,71.485C131.83,71.915 131.83,71.915 130.93,72.625L131,72.695Z" style="fill-rule:nonzero;"/>
        </g>
        <g transform="matrix(1,0,0,1,-16.0884,73.7884)">
            <path d="M200.93,72.725C200.93,72.325 200.72,71.905 201.06,71.535C201.62,72.025 201.28,72.345 200.86,72.655L200.93,72.725Z" style="fill-rule:nonzero;"/>
        </g>
        <g transform="matrix(1,0,0,1,-16.0884,73.7884)">
            <path d="M177.07,72.725C177,72.305 176.73,71.885 177.16,71.445C177.65,71.945 177.45,72.315 176.99,72.665L177.07,72.725Z" style="fill-rule:nonzero;"/>
        </g>
    </g>
</svg>
