<svg data-name="Layer 1" xmlns="http://www.w3.org/2000/svg" viewBox="0 0 190.58 91.44" width="190" height="92"><title>Old National Bank</title><path d="M111.19,2.76l-2.31-.62v-.9c0-.05.08-.12.13-.13a12.53,12.53,0,0,1,2.18-.35c3.84,0,7.69-.13,11.52,0A15.51,15.51,0,0,1,129,2.42a10.81,10.81,0,0,1,5.78,7.43,13.45,13.45,0,0,1,.27,4.54,11.06,11.06,0,0,1-2.6,6.11,11.94,11.94,0,0,1-6,3.8c-1,.28-2,.39-3,.63-1.89.48-3.75.21-5.62.27-1,0-2,.31-2.92-.32-.12-.09-.36,0-.53,0-.67-.13-1.23.3-1.84.33s-1.22-.31-1.82-.29a13.91,13.91,0,0,0-2.23.41V23.88l2.45-.59a4.37,4.37,0,0,0,.73-2.33c0-5.34,0-10.68,0-16A9.5,9.5,0,0,0,111.19,2.76Zm5.93.32V9.37c0,3.71,0,7.43,0,11.14a2.23,2.23,0,0,0,1.48,2.41c.31.12.6.3,1,.51a17.54,17.54,0,0,0,3.5-.31,6.19,6.19,0,0,0,3.66-2.38,10.89,10.89,0,0,0,2.26-7,27.67,27.67,0,0,1,0-2.88,7.85,7.85,0,0,0-.75-3.1,8.5,8.5,0,0,0-2.23-3,9.1,9.1,0,0,0-5.19-2.2,28.16,28.16,0,0,0-3.18,0Z"/><path d="M132.9,66.56l.54,1.24c-.2.15-.29.26-.39.28a16.8,16.8,0,0,0-2,.38c-.78.26-.49,1.21-1,1.72-.09.1,0,.35,0,.53v6.7l1.12.5c3.09-2.5,5.21-5.72,7.56-8.64-.31-1.06-.31-1.06-1.44-1.31V66.62c3.08.08,6.14,1,9.25-.18l.55,1.4a2.06,2.06,0,0,1-.41.24,8.28,8.28,0,0,0-5.63,2.5c-.39.45-.85.84-1.26,1.28l-3.61,3.9a2.65,2.65,0,0,0,0,.72,3.36,3.36,0,0,0,.46.88c3,3.86,5.06,8.44,8.45,11.74,1.09.56,2.21.39,3.11,1.17l-.58.8H136.25c0-.22-.12-.54,0-.77a1,1,0,0,1,1-.64c.29,0,.58-.3.91-.49-.79-1.27-1.51-2.47-2.27-3.64s-1.68-2.42-2.49-3.65c-1.28-1.95-1.27-2-2.39-2.65l-.86,1.3c0,2.15,0,4.37,0,6.58,0,1.76.66,2.42,2.48,2.58.1,0,.21.07.49.15l.36,1.23H121.89V89.72h1.4l1.26-.76a1.42,1.42,0,0,0,.13-.38c0-5.16,0-10.32,0-15.48,0-.7.19-1.41.17-2.12a17.52,17.52,0,0,0-.3-2.17c-.81-.79-2.46-.14-3.29-1.62l.86-.37A38.73,38.73,0,0,0,132.9,66.56Z"/><path d="M44.16,91.13l-.57-.66c.11-.18.17-.4.29-.45.71-.31,1.44-.58,2.38-.94a3,3,0,0,0,.65-2.19c0-5.34,0-10.67,0-16a12.81,12.81,0,0,0-.29-2l-2.51-.59v-1.2a1.32,1.32,0,0,1,.39-.11c.9,0,1.8,0,2.69,0a7.92,7.92,0,0,0,1.33-.3L49,67l.73-.39c1.44,0,3,0,4.56,0a20.58,20.58,0,0,1,4.16.39,8.28,8.28,0,0,1,3.63,1.62,4.23,4.23,0,0,1,1.41,2.84c0,.38.13.75.24,1.39-.36.78-.29,2-1.28,2.94a12.73,12.73,0,0,1-3.07,1.83c.45.2.79.34,1.12.5,1.41.65,2.85,1.22,3.73,2.68a10.67,10.67,0,0,1,.67,1.89,4.49,4.49,0,0,1,.18,1.56,6.11,6.11,0,0,1-.17,1.54,5.39,5.39,0,0,1-.73,1.85A8.55,8.55,0,0,1,59,90.81a42.76,42.76,0,0,1-7.41.31C49.11,91.17,46.65,91.13,44.16,91.13Zm14.46-3.55c.78-1.86.44-3.58.51-5-.84-2.43-2.64-3.29-4.83-3.62-.52.78-1.74-.22-2.37.92.21,2.88-.6,6,.9,8.74,1.23,1,2.48.63,3.73.74ZM52.45,77.42a6.19,6.19,0,0,0,3.68-.67,3.18,3.18,0,0,0,1.93-3c0-.77,0-1.54,0-2.21-.67-.92-.81-2-2-2.51a6.39,6.39,0,0,0-2.93-.62L52,69.28v7.64Z"/><path d="M83.57,12.9c.41,2.14-.41,4.11-1.1,6a8.65,8.65,0,0,1-3.54,4.16,16.69,16.69,0,0,0-2,1.18c-.79.7-1.8.58-2.67,1a8.18,8.18,0,0,1-2.54.38,16.11,16.11,0,0,1-2.69,0,12.85,12.85,0,0,1-4.56-1.12A11.84,11.84,0,0,1,58,16.28a26.14,26.14,0,0,1-.25-5.43A7.56,7.56,0,0,1,58.59,8c.4-.91,1-1.74,1.5-2.61C61.42,3,63.83,2,66.1.85A9.23,9.23,0,0,1,68.6.38c.5-.09,1.07.21,1.5-.31.08-.1.34-.07.51,0,.67.11,1.34.28,2,.35a4.45,4.45,0,0,1,2,.34,11.63,11.63,0,0,0,1.88.67,5,5,0,0,1,1.75,1c.49.48,1.09.84,1.62,1.28a10,10,0,0,1,3.19,5A9.81,9.81,0,0,1,83.57,12.9ZM65.71,20.82c.6.59,1.18,1.21,1.79,1.78a6.24,6.24,0,0,0,5.67.85,6.56,6.56,0,0,0,3.54-3.8,21.21,21.21,0,0,0,1.14-6.72c0-.49-.33-1-.33-1.47a12.15,12.15,0,0,0-2.17-6.85C74,2.51,71.86,1.93,69.6,2c-1.87.08-3.36,1.43-4.37,3.23a9.59,9.59,0,0,0-1.42,5.18c.06,1.44,0,2.88,0,4.32a13.56,13.56,0,0,0,.61,3A28.78,28.78,0,0,0,65.71,20.82Z"/><path d="M101,57.64c-.84,0-1.68,0-2.52,0a11.71,11.71,0,0,1-1.8-.42c-1-.25-1.78-1-2.81-1-1.35-1.1-2.82-2.07-3.68-3.67-.68-1.28-1.61-2.47-1.53-4-.56-.38-.34-1-.35-1.47,0-1,0-1.92,0-2.88a12,12,0,0,1,2.52-6.88A11.71,11.71,0,0,1,97,33a6.94,6.94,0,0,1,2.83-.56c.9.06,1.8,0,2.7,0a12.92,12.92,0,0,1,6.5,2.14,10.36,10.36,0,0,1,4.27,5.4,13.19,13.19,0,0,1,.91,3.75,12.72,12.72,0,0,1-.24,3.82,15.88,15.88,0,0,1-2.21,5.4,11.54,11.54,0,0,1-3,2.83,13.94,13.94,0,0,1-6.24,1.87Zm3.65-2.39c.57-.68,1.32-1.5,2-2.38A7.79,7.79,0,0,0,108,48.44a21.92,21.92,0,0,0-.28-7.22A10.41,10.41,0,0,0,105,35.89a15.55,15.55,0,0,0-2.56-1.66c-.66,0-1.32.05-2,0a3.24,3.24,0,0,0-2,.48,7.21,7.21,0,0,0-2.8,2.76,14.21,14.21,0,0,0-1.6,6,10,10,0,0,0,0,2c.07.68.32,1.34.33,2A9.88,9.88,0,0,0,95,50.07c.78,2.5,2.05,4.66,4.88,5.76C101.19,55.77,102.78,56.08,104.66,55.25Z"/><path d="M137.65,48.88V42c0-1.5,0-3,0-4.5a3.33,3.33,0,0,0-1.09-2.71l-2.5-.62V33c.09-.06.18-.19.27-.18,1.81.11,3.65-.28,5.54.28,1-.62,2.27-.14,3.51-.33v1.39a9.6,9.6,0,0,0-1.34.22A2.87,2.87,0,0,0,140.18,37a6.48,6.48,0,0,0,0,1.08v18.7a2.59,2.59,0,0,1-2.37.86c-4.75-6.43-10-12.53-15.28-18.69,0,.46,0,.92,0,1.37s-.37,1.07-.19,1.4a2.28,2.28,0,0,1,.18,1.36c0,.73.34,1.54-.32,2.19.71.7.24,1.58.32,2.38a20.11,20.11,0,0,1,0,2.33c0,.78,0,1.56,0,2.34a10.45,10.45,0,0,0,.16,1.37c.31,1.93,1.85,2,3.38,2.26V57.2h-9.26V55.85a2.81,2.81,0,0,0,2.77-1.27c.74-2.91.35-5.88.41-8.83s0-5.88,0-8.82a3.53,3.53,0,0,0-.71-2.17c-.88-.23-1.7-.43-2.5-.68-.19-.06-.32-.31-.57-.55l.69-.74h3.89a2,2,0,0,0,2.16.29,8.82,8.82,0,0,1,2-.33c.18.33.35.68.54,1A28.11,28.11,0,0,0,128,37.41c1.4,1.76,2.83,3.51,4.31,5.2a47.83,47.83,0,0,0,3.43,4A25,25,0,0,1,137.65,48.88Z"/><path d="M.48,57.22V55.83a2.77,2.77,0,0,0,2.65-1,10,10,0,0,0,.54-4.6c0-4.73,0-9.47,0-14.21-.38-1.3-1.42-1.61-2.6-1.75A1.86,1.86,0,0,1,.44,34,2.7,2.7,0,0,1,0,33.59l.58-.82a16.08,16.08,0,0,1,4,.34c1.3.44,2.61-.49,4.09-.28.46,1.5,1.63,2.63,2.55,3.92q.79,1.11,1.65,2.19c1.71,2.2,3.8,4.08,5.37,6.41a35.29,35.29,0,0,0,3.06,3.44V47.24c0-2.58,0-5.15,0-7.73a9.12,9.12,0,0,0-.5-4.14,4.38,4.38,0,0,0-3.06-1.26v-1.2c1.62-.53,3.13.39,4.69.24L27,32.7v1.48a4.74,4.74,0,0,0-1.11.06,3.07,3.07,0,0,0-2.06,3.2c0,3.3,0,6.6,0,9.89,0,1.14,0,2.28,0,3.42a4.38,4.38,0,0,1-.29,1.09c.64,1.61.13,3.28.34,4.87a2.66,2.66,0,0,1-2.31.93C16.7,51.2,11.59,45,6.2,38.51v12a9.17,9.17,0,0,0,.6,4.33c.53.78,1.76.86,3,1v1.3Z"/><path d="M98.84,88.35a2.69,2.69,0,0,0,2.44,1.41l1.25.47v.36l-.87.33.18.2H93.23l-.69-.55c.13-.24.17-.45.29-.52.44-.24.91-.63,1.35-.61,1.47,0,1.3-1.21,1.66-2,.17-.34,0-.83,0-1.25V69.28l-1-.56.18-.17L92.69,68V66.75a1.29,1.29,0,0,1,.41-.1,28,28,0,0,0,5.25.34,7.25,7.25,0,0,0,1-.25l.35.32,1-.5c.19.33.35.67.55,1,.75,1.13,1.47,2.29,2.3,3.36s1.86,2,2.64,3.07,2,2,2.7,3.37c.08.15.25.25.37.38,1.15,1.27,2.3,2.53,3.44,3.81a7.65,7.65,0,0,1,.64.93l.47-.48-.21-.3a2.24,2.24,0,0,0-.13-2.37c.28-.6.63-1.18.19-1.91a1.77,1.77,0,0,1-.15-1.18,6.4,6.4,0,0,0,0-3.31,19.24,19.24,0,0,1,0-2.84l-1-1.49L110,68V66.64a24.76,24.76,0,0,1,3.1,0A11.48,11.48,0,0,0,116,67l3.21-.42.08,1.36c-1,.34-2.12.37-2.88,1.43-.77,5.31-.21,10.78-.36,16.24,0,1.62,0,3.24,0,5l-1,.56.18.23h-1.64a90.07,90.07,0,0,0-7.33-9.5c-2.52-3.09-4.78-6.41-7.87-9.35V74c0,3.06,0,6.12,0,9.18C98.41,84.9,98.15,86.62,98.84,88.35Z"/><path d="M165.15,55.13l2.69.91.36.75-.42.43H157.63l-1.18-.57c.44-.38.65-.7.93-.79a13.87,13.87,0,0,1,1.79-.37A32.57,32.57,0,0,0,157.3,49h-6.59c-.3,2.12-1.47,4.06-1.59,6.34a14.32,14.32,0,0,1,2,.51,1,1,0,0,1,.5,1.36h-8.47V56l2.32-.54c.33-1,1-1.73,1.34-2.69.62-1.6,1.19-3.22,1.83-4.82.77-1.9,1.46-3.84,2.17-5.76s1.27-3.81,2.09-5.62c.3-.65,0-1.27.21-1.6,1.36-.93,2.51-1.73,3.76-2.6a2.9,2.9,0,0,1,.59.83c1.08,3.8,2.59,7.45,3.84,11.19,1,2.95,2,5.89,3,8.83C164.52,53.81,164.83,54.4,165.15,55.13Zm-8.8-8.34c.13-1.42-.58-2.49-1-3.65A14.32,14.32,0,0,0,154,39.47c-.84,2.53-1.73,4.84-2.41,7.32Z"/><path d="M36.81,34.77c1.22-.67,2.42-1.05,3.06-2.27,1,0,1,0,1.26.87,1.08,3.33,2.31,6.6,3.46,9.91.55,1.57,1,3.17,1.59,4.74.82,2.3,1.67,4.59,2.52,6.87.06.16.23.27.4.47l2.83.79-.47,1.08h-10l-1.11-.45c.23-.85.7-.92,1.27-1A6.27,6.27,0,0,0,43,55.37,39.15,39.15,0,0,0,41,49H34.68a23.76,23.76,0,0,0-1.89,6.37,6.78,6.78,0,0,0,1.51.44,1.16,1.16,0,0,1,1.13.83l-.55.6h-8.1v-1.4a6.47,6.47,0,0,0,1.16,0,8.51,8.51,0,0,0,1.18-.39,45.7,45.7,0,0,0,3.08-7.28c.62-1.6,1.16-3.24,1.79-4.83a32,32,0,0,0,1.76-4.86,17.25,17.25,0,0,1,.75-1.67A6.13,6.13,0,0,0,36.81,34.77ZM35.2,46.83h5a39,39,0,0,0-2.47-7.51Z"/><path d="M75.71,68.78l3.55-2.5c1,.11.53,1.19,1.09,1.58.13,1.6,1,2.94,1.46,4.43.65,2.19,1.38,4.34,2.16,6.49.92,2.56,1.67,5.18,2.55,7.76a9.64,9.64,0,0,0,1.1,2.23,5.26,5.26,0,0,0,1.31,1h1.51v1.32h-11a.8.8,0,0,1,.25-1.21l2.2-.62c-.77-2.22-1.07-4.47-2.27-6.38H73.29c-.37,2.1-1.75,4-1.53,6.39l2.08.59.32.77a.91.91,0,0,1-.08.17c-.27.44-.71.35-1.12.35-2.39,0-4.79,0-7-.21L65,90.43c.4-.33.67-.72.91-.71a3.46,3.46,0,0,0,2.76-1.49l1.06-2.85c1.14-3,2.33-6,3.42-9,.65-1.83,1.3-3.66,2.08-5.43A5.06,5.06,0,0,0,75.71,68.78ZM74.22,80.62H79a43.72,43.72,0,0,0-2.37-7.46C75.77,75.82,74.49,78,74.22,80.62Z"/><path d="M72.1,32.19c-.12.76-.28,1.48-.34,2.21a14,14,0,0,1-.05,2.15,4.33,4.33,0,0,0-.24,2.28H70c-.34-1.46-.7-2.91-2.08-3.83-.8-.13-1.64-.33-2.49-.39a2.54,2.54,0,0,0-2.36.62c0,6,0,12.09,0,18.2a2.32,2.32,0,0,0,1.59,2.44h2v1.34H54.16l-.08-1.37a11.21,11.21,0,0,0,1.65,0,10.14,10.14,0,0,0,1.5-.46l.47-.9V35.13l-.52-.52a10.4,10.4,0,0,0-4.62.58c-1.13.7-1.65,2.29-2.52,3.78l-1.27-.32c0-.24,0-.33.06-.41a3.62,3.62,0,0,0,.22-.63,20,20,0,0,1,.64-3.15,9.4,9.4,0,0,0,.14-2.07L51.05,32l.3.8c5.43.76,10.91.24,16.37.36a16.52,16.52,0,0,0,2.88-.45C70.9,32.44,71.21,31.81,72.1,32.19Z"/><path d="M189.31,50.66l1.27.48c.09,2.22-.88,4.1-1.5,6.09H169.85l.18-.16-.86-.33c.73-1.37,2.07-.62,2.87-1.25l.89-1v-19a3.5,3.5,0,0,0-1.68-1.08c-.51-.2-1.4,0-1.58-1l.56-.65c1.07.21,2.21-.25,3.38.33a4.48,4.48,0,0,0,2.13,0,2.62,2.62,0,0,0,.84-.38l.51.37c1.26-.6,2.63-.22,4-.35v1.36a1.31,1.31,0,0,1-.32.1c-1.83.16-2.47.82-2.48,2.58,0,4.08,0,8.16,0,12.24v4.32c.62,1.78,2,2.15,3.7,2.1a9.22,9.22,0,0,0,3.29-.32,4.73,4.73,0,0,0,2.76-2.39C188.41,52.1,188.82,51.5,189.31,50.66Z"/><path d="M98,.82V2c-.09.06-.18.16-.28.17-.73.11-1.45.2-2.27.31a15.64,15.64,0,0,0-.31,2.13c0,5.22,0,10.45,0,15.67A2.4,2.4,0,0,0,97,23h5.29c2-.8,2.69-2.63,3.74-4.33l1.33.29c-.06,2.26-1.05,4.13-1.5,6.23a27,27,0,0,1-5-.06c-2.6-.51-5.19-.17-7.78-.28-.73,0-1.55-.28-2.2.33,0,0-.12,0-.17,0a12.07,12.07,0,0,0-2.2-.33c-.64,0-1.25.58-2,.2V23.87L89,23.3a2.87,2.87,0,0,0,.77-2.24q0-8,0-16c0-.84-.4-1.55-.42-2.35a3.34,3.34,0,0,0-2.43-.48L86.4,1c.19-.16.28-.29.36-.29H97.39A4.3,4.3,0,0,1,98,.82Z"/><path d="M75.94,34.66,73.6,34.1v-.82l.48-.49c1.08,0,2.28-.3,3.2.08a5.5,5.5,0,0,0,3.28.2A13.72,13.72,0,0,1,84.74,33l1.11.43a5.55,5.55,0,0,1-1.28.78,3.53,3.53,0,0,0-2.38,1.28c0,6,0,12.09,0,18.15a9.19,9.19,0,0,0,.32,1.7l2.9.81L85,57.23H73.7c-.14-1.06-.1-1.16.65-1.39.54-.17,1.08-.31,1.64-.47A2.94,2.94,0,0,0,76.8,53c0-5.34,0-10.67,0-16A2.78,2.78,0,0,0,75.94,34.66Z"/><path d="M154.63,64.54l-.57,1.65-1.35,1.16-1.08.32-1.39-.5a3.86,3.86,0,0,1-1.41-2c-.26-.9.54-1.56.77-2.41.89-.21,1.61-1.25,2.76-.71A4.41,4.41,0,0,1,154.63,64.54Zm-3.48-1.86-1.57,1.57v1.54L150.75,67h1.88c1.68-1.79,1.65-2.64-.13-4.28Z"/><path d="M150.67,63h1.18l1.44,1.05-.91,1,.47,1.1c-.28,0-.55.14-.6.08-.26-.34-.46-.72-.81-1.28l-.19,1.26h-.58Zm2.07.81h-1.81l.12.59C151.55,64.39,152.09,64.73,152.74,63.85Z"/></svg>
