<svg width="207" height="81" viewBox="0 0 207 81" version="1.1" xmlns="http://www.w3.org/2000/svg" xmlns:xlink="http://www.w3.org/1999/xlink" xml:space="preserve" xmlns:serif="http://www.serif.com/" style="fill-rule:evenodd;clip-rule:evenodd;stroke-linejoin:round;stroke-miterlimit:2;"><rect x="0" y="0" width="206.622" height="80.611" style="fill:none;"/><clipPath><rect x="0" y="0" width="206.622" height="80.611"/></clipPath><g clip-path="url(#_clip1)"><g serif:id="Layer 1"><path d="M31.096,80.344c-10.857,-1.242 -21.115,-8.973 -26.622,-20.065c-4.948,-9.965 -5.71,-24.041 -1.909,-35.285c3.717,-10.996 13.103,-20.573 23.054,-23.524c4.898,-1.452 11.585,-1.86 16.478,-1.004c14.779,2.586 26.337,15.061 29.207,31.528c0.715,4.099 0.722,12.806 0.014,16.704c-2.337,12.873 -9.814,23.425 -20.206,28.517c-6.036,2.958 -12.578,3.98 -20.016,3.129l-0,0Zm10.565,-10.654c3.848,-1.834 6.574,-6.475 8.06,-13.718c0.741,-3.607 0.74,-17.328 -0.001,-22.538c-1.667,-11.724 -5.593,-19.899 -10.872,-22.639c-1.352,-0.701 -1.887,-0.809 -4.008,-0.81c-2.072,0 -2.695,0.12 -4.054,0.778c-6.614,3.203 -9.936,14.102 -8.93,29.295c0.753,11.374 2.653,18.923 6.19,24.598c3.511,5.633 8.493,7.475 13.615,5.034Zm139.345,-1.048c0.116,-0.277 0.275,-0.795 0.352,-1.152c0.085,-0.393 0.354,-0.648 0.683,-0.648c0.661,0 0.662,0.019 0.057,1.286c-0.491,1.03 -1.51,1.509 -1.092,0.514l-0,0Zm-93.069,-0.336c-1.086,-0.662 -1.834,-1.668 -1.832,-2.464c0.001,-0.926 1.064,-2.423 1.862,-2.623c0.834,-0.21 0.913,-0.473 0.297,-0.985c-0.602,-0.499 -0.539,-1.621 0.128,-2.288c1.064,-1.065 3.843,-1.127 4.965,-0.112c0.947,0.858 0.462,2.32 -0.91,2.744c-0.271,0.084 0.176,0.516 1.229,1.19c0.91,0.582 1.717,1.058 1.793,1.058c0.376,0 0.061,-1.185 -0.555,-2.094l-0.694,-1.023l0.972,0.407c1.259,0.526 2.843,0.52 3.285,-0.013c0.51,-0.614 0.072,-1.096 -0.813,-0.896c-0.725,0.164 -0.735,0.152 -0.201,-0.264c0.67,-0.523 1.927,-0.571 2.407,-0.091c0.19,0.19 0.346,0.705 0.346,1.144c-0,1.054 -1.363,1.803 -2.904,1.596l-1.082,-0.145l0.156,1.05c0.115,0.77 0.585,1.49 1.768,2.705l1.612,1.656l-2.151,-0.009c-1.961,-0.008 -2.102,-0.047 -1.589,-0.435c0.527,-0.398 0.532,-0.457 0.081,-0.907c-0.437,-0.438 -0.528,-0.441 -0.994,-0.032c-1.693,1.485 -5.4,1.914 -7.176,0.831l0,-0Zm5.692,-0.772c1.454,-0.735 1.266,-1.19 -1.122,-2.72c-1.225,-0.785 -2.454,-1.428 -2.731,-1.428c-1.397,0 -2.161,2.319 -1.211,3.675c0.824,1.177 3.228,1.402 5.064,0.473Zm-1.428,-5.776c0.717,-0.65 0.661,-1.15 -0.191,-1.709c-1.509,-0.988 -3.014,0.252 -1.832,1.51c0.748,0.797 1.302,0.851 2.023,0.199l-0,-0Zm76.456,6.228c-2.299,-0.689 -3.392,-3.434 -2.356,-5.915c0.525,-1.256 1.925,-1.901 3.882,-1.789c1.304,0.075 1.422,0.146 1.69,1.016c0.284,0.92 -0.011,1.354 -0.339,0.5c-0.238,-0.619 -1.574,-1.06 -2.557,-0.844c-0.975,0.214 -1.943,1.61 -1.944,2.804c-0.002,1.339 1.068,3.079 2.178,3.543c1.236,0.516 2.252,0.281 3.054,-0.707c0.455,-0.561 0.559,-0.609 0.395,-0.184c-0.122,0.317 -0.283,0.788 -0.358,1.047c-0.08,0.276 -0.571,0.542 -1.191,0.644c-1.261,0.209 -1.395,0.203 -2.454,-0.115l-0,0Zm34.07,0.036c-2.044,-0.655 -2.863,-1.89 -2.863,-4.315c-0,-1.203 0.146,-1.628 0.822,-2.384c0.756,-0.846 0.981,-0.926 2.755,-0.983c1.83,-0.057 1.947,-0.022 2.211,0.672c0.153,0.404 0.22,0.876 0.148,1.05c-0.085,0.205 -0.139,0.193 -0.154,-0.036c-0.038,-0.588 -1.71,-1.286 -2.606,-1.09c-1.107,0.243 -1.756,1.038 -1.934,2.366c-0.436,3.245 3.146,5.671 4.993,3.382l0.686,-0.85l-0.321,0.937c-0.177,0.515 -0.418,0.996 -0.536,1.069c-0.468,0.289 -2.505,0.405 -3.201,0.182l-0,-0Zm-98.047,-3.772l-0,-3.744l1.008,0.007c0.93,0.006 1.056,0.117 1.637,1.44c0.347,0.788 0.746,1.433 0.887,1.433c0.141,0 0.561,-0.648 0.932,-1.44c0.594,-1.27 0.779,-1.44 1.561,-1.44l0.887,-0.001l-0.09,3.501c-0.068,2.652 0.002,3.558 0.288,3.74c0.234,0.149 -0.1,0.241 -0.882,0.244c-1.046,0.003 -1.202,-0.064 -0.925,-0.398c0.217,-0.262 0.305,-1.395 0.251,-3.24l-0.082,-2.838l-1.121,1.8c-0.617,0.99 -1.16,1.8 -1.208,1.8c-0.047,0 -0.55,-0.81 -1.117,-1.8l-1.031,-1.8l0.078,3.241c0.075,3.075 0.049,3.24 -0.497,3.24c-0.547,-0.001 -0.576,-0.193 -0.576,-3.745l-0,0Zm7.987,3.24c0.591,-0.671 2.603,-6.336 2.379,-6.699c-0.103,-0.166 0.22,-0.282 0.777,-0.277l0.953,0.007l1.192,3.737l1.193,3.736l-0.927,0c-0.85,0 -0.917,-0.066 -0.809,-0.803c0.15,-1.023 -0.632,-1.999 -1.887,-2.353c-0.872,-0.246 -0.974,-0.204 -1.262,0.508c-0.172,0.427 -0.328,1.197 -0.346,1.711c-0.031,0.833 -0.126,0.936 -0.871,0.936c-0.774,0.001 -0.803,-0.037 -0.392,-0.503l-0,0Zm3.965,-3.244c-0,-0.519 -0.711,-2.588 -0.889,-2.588c-0.151,0 -0.839,1.959 -0.839,2.39c-0,0.139 0.322,0.235 1.512,0.451c0.118,0.022 0.216,-0.092 0.216,-0.253l-0,-0Zm3.6,3.748l-0,-7.488l1.728,0l-0,7.488l-1.728,0Zm3.607,-0.739c0.154,-0.406 0.281,-1.758 0.281,-3.005c-0,-1.246 -0.127,-2.599 -0.281,-3.005c-0.269,-0.708 -0.238,-0.739 0.75,-0.739c0.753,0 1.182,0.192 1.59,0.709c0.306,0.391 0.955,0.993 1.441,1.339l0.884,0.63l-0.106,-1.339c-0.097,-1.217 -0.049,-1.339 0.523,-1.339c0.549,0 0.602,0.103 0.411,0.792c-0.259,0.932 -0.18,5.929 0.1,6.383c0.118,0.191 -0.066,0.313 -0.471,0.313c-0.621,0.001 -0.659,-0.097 -0.564,-1.465c0.111,-1.605 -0.255,-2.17 -2.64,-4.072l-1.099,-0.877l0.091,3.208c0.089,3.151 0.079,3.207 -0.55,3.207c-0.569,-0.001 -0.61,-0.084 -0.36,-0.74l-0,0Zm8.863,0.394c0.226,-0.226 0.346,-1.421 0.346,-3.456c-0,-3.045 -0.014,-3.111 -0.656,-3.111c-0.361,0 -0.955,0.21 -1.321,0.466c-0.64,0.448 -0.661,0.441 -0.568,-0.216c0.095,-0.668 0.16,-0.682 3.121,-0.682l3.024,0l0.186,1.627l-0.597,-0.598c-0.329,-0.328 -0.921,-0.597 -1.317,-0.597l-0.72,0l-0,3.288c-0,2.361 0.101,3.329 0.36,3.434c0.198,0.079 -0.217,0.155 -0.922,0.168c-0.997,0.017 -1.205,-0.055 -0.936,-0.323l0,-0Zm5.245,-0.383c0.363,-0.954 0.371,-5.056 0.012,-6l-0.273,-0.718l2.446,-0.093c2.408,-0.091 2.449,-0.081 2.601,0.627c0.085,0.396 0.213,0.904 0.284,1.129c0.072,0.225 -0.216,0.063 -0.639,-0.36c-0.568,-0.568 -1.06,-0.769 -1.882,-0.769c-0.995,0 -1.112,0.077 -1.112,0.72c-0,0.608 0.134,0.72 0.864,0.72c0.496,0 0.865,-0.153 0.868,-0.36c0.008,-0.67 0.563,0.476 0.567,1.173c0.004,0.608 -0.037,0.627 -0.448,0.216c-0.249,-0.249 -0.767,-0.453 -1.152,-0.453c-0.677,0 -0.699,0.067 -0.699,2.127c-0,1.936 0.055,2.141 0.621,2.289c0.856,0.224 2.325,-0.443 3.074,-1.396c0.733,-0.931 0.737,-0.92 0.216,0.58l-0.4,1.152l-5.233,0.166l0.285,-0.75Zm6.851,0.383c0.225,-0.226 0.346,-1.408 0.346,-3.399c-0,-1.99 -0.121,-3.173 -0.346,-3.398c-0.269,-0.269 -0.093,-0.343 0.792,-0.333c0.951,0.011 1.35,0.223 2.434,1.294c0.712,0.704 1.393,1.282 1.512,1.283c0.353,0.004 0.245,-1.869 -0.13,-2.244c-0.269,-0.269 -0.189,-0.346 0.36,-0.346l0.706,0l-0,3.744c-0,3.708 -0.007,3.744 -0.659,3.744c-0.561,0 -0.614,-0.082 -0.36,-0.557c0.686,-1.281 0.365,-2.129 -1.509,-3.987c-0.994,-0.986 -1.902,-1.792 -2.016,-1.792c-0.389,0 -0.241,5.987 0.152,6.146c0.198,0.079 -0.088,0.155 -0.634,0.168c-0.773,0.017 -0.917,-0.055 -0.648,-0.323l0,-0Zm6.628,-0.022c0.452,-0.545 2.622,-6.76 2.428,-6.954c-0.091,-0.092 0.281,-0.167 0.828,-0.167c0.738,0 1.007,0.13 1.04,0.504c0.061,0.674 1.674,5.625 2.08,6.383c0.297,0.555 0.246,0.601 -0.656,0.601c-0.862,0 -0.964,-0.078 -0.853,-0.654c0.162,-0.848 -0.807,-2.078 -1.95,-2.476c-0.849,-0.296 -0.901,-0.267 -1.322,0.74c-0.241,0.576 -0.38,1.35 -0.31,1.719c0.112,0.582 0.014,0.671 -0.731,0.671c-0.664,0 -0.79,-0.083 -0.554,-0.367l-0,-0Zm3.807,-3.881c-0.131,-0.435 -0.368,-1.116 -0.526,-1.512l-0.288,-0.72l-0.297,0.756c-0.562,1.431 -0.519,1.787 0.238,2.004c1.115,0.32 1.126,0.313 0.873,-0.528l-0,0Zm3.677,3.903c0.225,-0.226 0.346,-1.408 0.346,-3.399c-0,-1.99 -0.121,-3.173 -0.346,-3.398c-0.269,-0.269 -0.09,-0.346 0.804,-0.346c0.982,0 1.335,0.189 2.422,1.296c0.699,0.713 1.374,1.296 1.5,1.296c0.362,0 0.264,-1.864 -0.118,-2.246c-0.269,-0.269 -0.189,-0.346 0.36,-0.346l0.706,0l-0,3.744c-0,3.678 -0.012,3.744 -0.641,3.744c-0.569,0 -0.61,-0.083 -0.36,-0.739c0.543,-1.428 0.326,-1.969 -1.527,-3.805c-0.994,-0.986 -1.902,-1.792 -2.016,-1.792c-0.368,0 -0.239,5.614 0.137,5.991c0.269,0.268 0.128,0.345 -0.633,0.345c-0.762,0 -0.903,-0.077 -0.634,-0.345Zm14.964,0.011c0.467,-0.467 0.497,-6.324 0.034,-6.786c-0.239,-0.239 0.324,-0.348 2.164,-0.418c2.172,-0.082 2.506,-0.03 2.628,0.41c0.077,0.277 0.214,0.767 0.306,1.089c0.148,0.521 0.085,0.505 -0.563,-0.144c-0.54,-0.54 -1.032,-0.729 -1.894,-0.729c-1.051,0 -1.165,0.071 -1.165,0.72c-0,0.597 0.138,0.72 0.806,0.72c0.444,0 0.947,-0.141 1.119,-0.313c0.226,-0.225 0.344,0.012 0.424,0.848c0.108,1.132 0.098,1.146 -0.411,0.601c-0.286,-0.308 -0.84,-0.56 -1.23,-0.56c-0.685,0 -0.708,0.067 -0.708,2.006c-0,1.652 0.093,2.056 0.529,2.289c0.766,0.41 1.783,0.076 2.861,-0.941l0.943,-0.888l-0.79,2.286l-2.705,0.084c-2.153,0.066 -2.632,0.011 -2.348,-0.274l0,0Zm13.901,-0.405c0.356,-0.938 0.365,-4.588 0.013,-5.815c-0.262,-0.914 -0.248,-0.934 0.648,-0.935l0.916,-0l-0.089,3.419c-0.074,2.892 -0.018,3.447 0.363,3.593c0.625,0.24 1.838,-0.268 2.481,-1.039c0.627,-0.751 0.674,-0.633 0.24,0.609l-0.316,0.907l-4.537,0l0.281,-0.739l-0,0Zm6.185,-3.005l-0,-3.744l1.728,-0.001l-0.089,3.419c-0.074,2.892 -0.018,3.447 0.363,3.593c0.698,0.268 1.733,-0.25 2.599,-1.302c0.486,-0.59 0.71,-0.736 0.584,-0.381c-0.837,2.36 -0.56,2.16 -2.982,2.16l-2.203,-0l-0,-3.744l-0,0Zm-107.712,-7.028c-1.833,-0.809 -2.736,-2.93 -2.159,-5.072c0.46,-1.711 1.42,-2.3 3.749,-2.3c1.929,0 1.945,0.007 2.068,0.844l0.124,0.843l-0.706,-0.555c-1.067,-0.84 -2.744,-0.742 -3.487,0.203c-0.723,0.918 -0.8,2.911 -0.161,4.147c0.875,1.691 3.123,2.217 4.329,1.011c0.388,-0.388 0.707,-0.667 0.707,-0.619c-0,0.049 -0.143,0.496 -0.317,0.995c-0.3,0.862 -0.39,0.907 -1.8,0.896c-0.816,-0.006 -1.872,-0.183 -2.347,-0.393l-0,0Zm7.161,-0.131c-1.351,-0.85 -1.833,-1.718 -1.833,-3.3c-0,-2.46 1.425,-3.942 3.788,-3.94c2.924,0.003 4.869,2.942 3.583,5.414c-1.116,2.145 -3.683,2.992 -5.538,1.826Zm3.581,-0.625c0.783,-0.729 1.038,-1.707 0.836,-3.209c-0.373,-2.784 -3.518,-3.899 -4.677,-1.658c-1.528,2.954 1.617,6.939 3.841,4.867Zm11.722,0.964c-0.705,-0.194 -0.998,-0.614 -1.004,-1.438c-0.004,-0.592 0.04,-0.581 0.837,0.216c1.075,1.074 2.357,1.126 3.348,0.135c0.388,-0.389 0.707,-0.842 0.707,-1.008c-0,-0.597 -1.167,-1.448 -2.419,-1.763c-2.207,-0.556 -2.978,-1.727 -2.029,-3.082c0.383,-0.546 0.714,-0.64 2.27,-0.64c1.646,0 1.839,0.063 1.996,0.648c0.295,1.101 0.206,1.203 -0.485,0.554c-0.762,-0.715 -2.53,-0.853 -3.041,-0.238c-0.44,0.531 0.284,1.128 2.1,1.731c1.86,0.619 2.472,1.206 2.472,2.374c-0,1.507 -1.033,2.475 -2.753,2.582c-0.783,0.048 -1.683,0.017 -1.999,-0.071l-0,0Zm20.589,-0.323c-0.672,-0.543 -0.727,-0.793 -0.861,-3.919l-0.144,-3.339l1.063,0.001l1.062,0l-0.413,0.792c-0.254,0.488 -0.414,1.649 -0.415,3.024c-0.001,1.85 0.097,2.331 0.575,2.808c0.747,0.748 1.858,0.734 2.625,-0.033c0.55,-0.551 0.598,-0.857 0.489,-3.143c-0.072,-1.504 -0.276,-2.718 -0.501,-2.99c-0.336,-0.405 -0.252,-0.458 0.721,-0.458c0.856,0 1.024,0.077 0.755,0.346c-0.221,0.221 -0.345,1.35 -0.345,3.136c-0,3.451 -0.329,4.012 -2.47,4.217c-1.134,0.109 -1.571,0.019 -2.141,-0.442Zm8.144,0.092c-1.865,-0.811 -2.721,-3.86 -1.658,-5.915c0.6,-1.161 1.247,-1.434 3.4,-1.434c1.683,0 1.874,0.061 2.031,0.648c0.295,1.101 0.206,1.203 -0.485,0.554c-0.844,-0.793 -2.475,-0.829 -3.405,-0.075c-0.582,0.471 -0.68,0.807 -0.68,2.326c-0,1.682 0.056,1.827 1.075,2.761c1.387,1.271 2.527,1.316 3.699,0.144c0.463,-0.463 0.842,-0.802 0.842,-0.755c-0,0.048 -0.197,0.556 -0.436,1.13c-0.424,1.013 -0.479,1.043 -1.944,1.032c-0.83,-0.006 -1.927,-0.193 -2.439,-0.416l0,0Zm17.899,0.164c-0.917,-0.395 -2.092,-1.946 -2.295,-3.028c-0.254,-1.353 0.702,-3.44 1.847,-4.032c0.481,-0.249 1.525,-0.453 2.32,-0.453c1.257,0 1.571,0.126 2.419,0.975c2.417,2.416 1.024,6.453 -2.31,6.696c-0.76,0.055 -1.651,-0.016 -1.981,-0.158l0,-0Zm2.891,-0.492c1.107,-0.425 1.698,-3.135 0.985,-4.52c-0.691,-1.34 -1.476,-1.925 -2.586,-1.925c-1.445,0 -2.274,1.018 -2.274,2.789c-0,2.664 1.868,4.427 3.875,3.656Zm-57.498,-2.865c0.061,-2.266 -0.019,-3.465 -0.251,-3.745c-0.285,-0.344 -0.16,-0.411 0.765,-0.411c0.947,0 1.325,0.216 2.628,1.502l1.521,1.503l-0,-1.157c-0,-0.636 -0.156,-1.312 -0.346,-1.502c-0.269,-0.269 -0.133,-0.346 0.611,-0.346c0.796,0 0.9,0.069 0.616,0.411c-0.232,0.28 -0.312,1.479 -0.251,3.745c0.079,2.924 0.032,3.333 -0.379,3.333c-0.386,-0.001 -0.442,-0.233 -0.32,-1.321c0.147,-1.303 0.126,-1.343 -1.683,-3.168c-1.007,-1.016 -1.944,-1.848 -2.082,-1.848c-0.137,0 -0.205,1.426 -0.152,3.169c0.082,2.667 0.029,3.168 -0.334,3.168c-0.365,0 -0.418,-0.522 -0.343,-3.333l0,-0Zm15.84,-0.123c0.083,-3.25 0.055,-3.457 -0.466,-3.457c-0.304,0 -0.917,0.286 -1.362,0.636l-0.808,0.635l0.19,-0.707c0.104,-0.389 0.191,-0.805 0.193,-0.924c0.002,-0.119 1.364,-0.216 3.028,-0.216c2.789,0 3.024,0.043 3.024,0.553c-0,0.304 0.083,0.77 0.185,1.036c0.116,0.302 -0.096,0.202 -0.562,-0.264c-0.803,-0.803 -1.775,-0.984 -2.009,-0.375c-0.079,0.206 -0.117,1.761 -0.085,3.456l0.059,3.082l-1.476,0.001l0.089,-3.456l-0,-0Zm5.184,0.123c0.061,-2.266 -0.019,-3.465 -0.251,-3.745c-0.527,-0.635 4.401,-0.594 5.037,0.042c0.541,0.54 0.536,0.489 0.121,1.4c-0.183,0.401 -0.578,0.806 -0.879,0.902c-0.373,0.118 -0.461,0.281 -0.276,0.509c0.149,0.185 0.725,1.211 1.279,2.28l1.008,1.944l-0.904,0c-0.766,-0 -0.911,-0.113 -0.947,-0.733c-0.069,-1.196 -1.461,-3.063 -2.205,-2.957c-0.574,0.082 -0.632,0.255 -0.63,1.89c0.003,1.731 -0.025,1.8 -0.72,1.801l-0.722,0l0.089,-3.333l0,-0Zm2.502,-1.189c1.057,-0.505 1.616,-1.611 1.082,-2.145c-0.159,-0.158 -0.726,-0.246 -1.261,-0.195c-0.941,0.09 -0.975,0.138 -1.06,1.461c-0.048,0.753 -0.021,1.368 0.062,1.368c0.083,0 0.612,-0.22 1.177,-0.489l-0,-0Zm20.826,1.066c0.083,-3.25 0.055,-3.457 -0.466,-3.457c-0.304,0 -0.895,0.269 -1.313,0.597c-0.707,0.557 -0.758,0.562 -0.754,0.072c0.01,-1.145 0.361,-1.27 3.32,-1.184l2.845,0.083l0.383,1.879l-0.67,-0.723c-0.389,-0.42 -0.989,-0.724 -1.429,-0.724l-0.758,0l0.193,6.913l-1.44,0l0.089,-3.456Zm5.192,0.131c0.067,-2.305 -0.01,-3.453 -0.252,-3.744c-0.295,-0.356 -0.164,-0.42 0.875,-0.42c1.026,0 1.167,0.066 0.881,0.411c-0.232,0.28 -0.312,1.479 -0.251,3.745l0.09,3.333l-0.72,0l-0.72,-0l0.097,-3.325Zm12.088,-0.008c0.061,-2.266 -0.019,-3.465 -0.251,-3.745c-0.284,-0.342 -0.173,-0.411 0.67,-0.411c0.817,0 1.305,0.277 2.555,1.454l1.545,1.453l0.09,-1.041c0.05,-0.573 -0.063,-1.227 -0.251,-1.454c-0.285,-0.343 -0.185,-0.412 0.593,-0.412c0.776,0 0.877,0.07 0.593,0.411c-0.232,0.28 -0.312,1.479 -0.251,3.745c0.079,2.924 0.032,3.333 -0.379,3.333c-0.386,-0.001 -0.442,-0.233 -0.32,-1.32c0.147,-1.304 0.126,-1.343 -1.683,-3.168c-1.007,-1.017 -1.941,-1.849 -2.074,-1.849c-0.133,0 -0.202,1.426 -0.152,3.169c0.075,2.664 0.021,3.168 -0.342,3.168c-0.365,0 -0.418,-0.522 -0.343,-3.333l0,-0Zm-87.207,-7.396l-0.002,-5.4l63.144,0.04c34.729,0.023 62.02,0.141 60.646,0.263c-5.107,0.454 -24.226,0.881 -51.214,1.143c-15.286,0.148 -30.644,0.401 -34.128,0.563c-23.114,1.071 -34.997,3.561 -37.881,7.937l-0.564,0.854l-0.002,-5.4l0.001,0Zm4.462,-7.712c-0.951,-0.12 -2.456,-0.231 -3.345,-0.248l-1.616,-0.032l-0.2,-2.467c-0.111,-1.358 -0.272,-2.654 -0.359,-2.88c-0.102,-0.267 0.031,-0.412 0.377,-0.412c0.321,0.001 0.765,0.428 1.111,1.07c0.316,0.587 1.122,1.451 1.789,1.918c2.28,1.596 7.46,1.313 8.016,-0.438c0.378,-1.193 -0.915,-1.92 -5.004,-2.813c-1.433,-0.312 -2.987,-0.766 -3.453,-1.007c-3.148,-1.627 -3.147,-5.371 0.002,-7.172c1.98,-1.132 3.752,-1.397 8.687,-1.298l4.503,0.091l0.005,0.72c0.002,0.396 0.085,1.401 0.185,2.232c0.225,1.871 -0.056,1.929 -1.821,0.376c-2.094,-1.843 -5.592,-2.283 -6.876,-0.864c-0.509,0.563 -0.507,0.598 0.061,1.167c0.372,0.371 1.834,0.902 3.987,1.446c5.178,1.308 6.207,2.054 6.401,4.641c0.267,3.571 -2.749,5.704 -8.562,6.056c-1.188,0.072 -2.938,0.033 -3.888,-0.086l-0,-0Zm47.585,-0.017c-3.921,-0.415 -7.028,-2.333 -8.157,-5.037c-0.621,-1.486 -0.519,-4.492 0.204,-6.031c1.453,-3.091 5.201,-4.75 10.71,-4.743c5.136,0.006 8.76,1.659 10.353,4.721c0.97,1.865 0.874,4.759 -0.226,6.773c-1.853,3.39 -6.603,4.981 -12.884,4.317l-0,0Zm4.752,-2.77c1.097,-0.993 1.49,-2.155 1.49,-4.405c0,-2.557 -0.439,-4.013 -1.616,-5.352c-0.755,-0.861 -1.034,-0.984 -2.234,-0.984c-2.523,0 -3.62,1.889 -3.411,5.875c0.144,2.736 0.935,4.478 2.367,5.207c1.065,0.542 2.597,0.389 3.404,-0.341l-0,0Zm63.302,2.456c-3.692,-0.401 -7.496,-2.628 -8.802,-5.153c-0.649,-1.254 -0.843,-3.45 -0.421,-4.764c0.521,-1.624 1.583,-2.907 3.338,-4.029c2.231,-1.427 4.489,-1.925 8.162,-1.798c2.614,0.089 3.273,0.217 4.671,0.901c2.147,1.051 4.844,4.285 4.006,4.804c-0.182,0.112 -1.977,0.499 -3.99,0.861c-4.505,0.81 -8.412,1.646 -8.609,1.843c-0.081,0.081 -0.003,0.587 0.174,1.124c0.367,1.112 1.734,2.515 3.14,3.224c1.267,0.639 4.308,0.64 5.651,0.003c0.974,-0.462 2.843,-2.275 3.081,-2.988c0.063,-0.19 0.324,-0.266 0.579,-0.167c0.405,0.155 0.322,0.551 -0.639,3.074c-0.607,1.592 -1.143,2.928 -1.19,2.967c-0.265,0.221 -7.326,0.296 -9.151,0.098l0,-0Zm1.483,-9.957c2.873,-0.57 3.095,-0.875 1.837,-2.526c-1.771,-2.321 -5.343,-0.882 -5.343,2.152c-0,1.051 0.06,1.058 3.506,0.374Zm-102.865,9.792c0.001,-0.119 0.37,-0.425 0.82,-0.681c1.096,-0.623 1.188,-1.329 1.191,-9.215c0.004,-7.949 -0.125,-9.123 -1.047,-9.544c-1.486,-0.677 -0.854,-0.933 3.355,-1.359c1.663,-0.169 3.315,-0.372 3.672,-0.451c0.641,-0.143 0.648,-0.111 0.648,2.985l-0,3.129l3.252,0.186c3.807,0.218 5.671,0.707 7.583,1.993c2.012,1.353 3.09,3.249 3.227,5.676c0.129,2.275 -0.452,3.699 -2.097,5.143c-2.396,2.103 -3.795,2.354 -13.132,2.354c-4.11,0 -7.473,-0.097 -7.472,-0.216l0,0Zm13.135,-2.349c2.002,-1.22 2.778,-5.125 1.531,-7.701c-0.808,-1.669 -2.174,-2.478 -4.255,-2.518l-1.628,-0.032l-0.079,4.633c-0.074,4.332 -0.04,4.682 0.525,5.4c0.482,0.613 0.846,0.767 1.806,0.766c0.674,-0 1.599,-0.242 2.1,-0.548l0,0Zm37.264,2.005c-0,-0.15 0.356,-0.443 0.792,-0.652l0.792,-0.379l0.155,-11.965l-0.868,-0.494c-1.57,-0.893 -1.076,-1.115 2.912,-1.306c2.081,-0.099 3.892,-0.114 4.024,-0.032c0.133,0.082 0.38,0.665 0.55,1.297l0.309,1.148l1.211,-0.968c1.749,-1.4 4.018,-2.139 5.457,-1.778l0.72,0.181l-0.658,1.922c-0.437,1.275 -0.788,1.883 -1.043,1.806c-0.212,-0.064 -1.165,-0.175 -2.117,-0.245c-2.965,-0.221 -3.58,0.83 -3.585,6.121c-0.003,3.102 0.303,4.136 1.362,4.605c0.353,0.156 0.643,0.448 0.643,0.648c-0,0.279 -1.229,0.363 -5.328,0.363c-3.155,0 -5.328,-0.111 -5.328,-0.272l-0,-0Zm16.992,-0.023c-0,-0.162 0.306,-0.412 0.68,-0.554c0.375,-0.142 0.764,-0.474 0.864,-0.736c0.237,-0.616 0.241,-10.891 0.005,-11.506c-0.099,-0.256 -0.567,-0.667 -1.042,-0.912c-0.474,-0.245 -0.75,-0.548 -0.613,-0.673c0.137,-0.124 1.969,-0.308 4.071,-0.408c3.777,-0.181 3.824,-0.175 4.072,0.467c0.139,0.357 0.363,0.937 0.499,1.288l0.247,0.638l1.44,-0.959c2.429,-1.619 5.308,-2.196 7.748,-1.554c2.448,0.645 2.596,1.047 2.764,7.548c0.153,5.895 0.247,6.284 1.645,6.815c1.68,0.639 0.489,0.841 -4.957,0.841c-5.474,0 -6.638,-0.201 -4.925,-0.853c1.409,-0.535 1.614,-1.25 1.609,-5.619c-0.003,-2.664 -0.127,-4.283 -0.366,-4.755c-0.525,-1.039 -1.57,-1.317 -2.884,-0.768c-1.68,0.703 -2.204,2.149 -2.207,6.091c-0.003,3.865 0.113,4.343 1.172,4.812c0.459,0.203 0.833,0.532 0.833,0.73c0,0.278 -1.244,0.362 -5.328,0.362c-3.445,0 -5.328,-0.104 -5.328,-0.295l0.001,0Z" style="fill-rule:nonzero;"/></g></g></svg>
