<svg data-name="Layer 1" xmlns="http://www.w3.org/2000/svg" viewBox="0 0 754.74 579.91" width="755" height="580"><title>Schultz's Treat Street</title><path d="M37.76,87.22c10.51,14.06,26,11.14,41.31,12.07q8.52-39,17-77.83l.52.07c-3.12,25.9-6.25,51.8-9.4,77.87,8.19,1.88,15.87,1.31,23.4,2.18l18.21-12.33.05,0-11.91,11.25.63,1.27c3.86.36,7.72.83,11.59,1.07q67.07,4.21,134.12,8.37,73.78,4.66,147.56,9.51c2.9.2,5.16-.86,7.55-2l159-77.28c2.56-1.24,5.08-2.67,8-1.11,3.47,1.84,4.05,5.35,1.42,9.89q-16.41,28.32-32.9,56.58c-4.16,7.15-8.3,14.3-12.55,21.62,15.51,3,117,8.21,120,6,1,2.58,3.26,2.45,5.47,2.58,17.95,1.07,35.9,2.23,53.85,3.22,16.57.91,20.09,5.57,15.83,21.44q-9.72,36.16-19.43,72.33c-.38,1.43-.67,2.88-1.17,5.06,9.22.38,18-1.22,26.54-1.75,4.84-5.82,7.68-7.09,10.44-4.6,2.33,2.11,2.3,4.81.71,7.25-2,3-5.33,2.42-10.57-1.8l-28.71,7.27a130.18,130.18,0,0,0-4.86,18.34l26.29,18.4,0-.06c-7.75-2.19-14.48-6.68-21.89-9.65-1.84-.73-3.62-1.6-5.17-2.29-2.11.89-1.94,2.62-2.32,4-3.92,14.1-7.9,28.19-11.59,42.35-1.37,5.28.56,10.58,1.12,15.84,1.66,15.55,3.64,31.06,5.46,46.58.12,1,0,2,0,4.36l-9.82-49.75c-2.34,1.53-2.09,3.78-2.59,5.57-4.13,15.08-8.11,30.21-12.16,45.32-2,7.53-5.17,10-12.93,10.91q-65,7.28-130,14.66-60.06,6.73-120.13,13.37c-15.54,1.74-31.08,3.53-46.42,5.28-2,1.52-2.74,3.62-3.82,5.47q-40.49,69.51-80.92,139c-.67,1.15-1.3,2.33-2,3.44-1.85,2.78-4.32,4.29-7.64,2.84-3.51-1.53-4.29-4.46-3.2-7.9a322.86,322.86,0,0,0,8.38-32.36c6.67-32.36,9.29-64.91,4.56-97.8-.12-.8-.32-1.59-.61-3.07-7.32.76-14.53,1.45-21.73,2.26Q209.46,446.24,158.59,452c-8,.9-12.32-2-14.85-10q-18.54-58.55-37-117.1c-.64-2-1.39-4.05-2.14-6.25A400.93,400.93,0,0,0,64,321.5c-17.36,2-34.61,4.86-51.74,8.38-3.74.77-7.67,1.36-9.35-3.15-1.73-4.68,1.41-6.91,5.19-8.74q37.32-18,74.59-36.18c2.83-1.38,5.62-2.83,8.91-4.48-7.73-24.47-15.42-48.77-23.1-73.08l-1.21,0q-7,31.32-13.91,62.65l-.48-.08c1.81-12.95,3.6-25.9,5.46-38.84,1.74-12.19,3.55-24.37,5.31-36.56a6.89,6.89,0,0,0,0-3c-3.4-10.59-6.9-21.16-10.68-32.66-7.36,5.32-14.3,10.34-21.25,15.35l.08,0c2.69-5.14,7.46-8.42,11.32-12.49,2.62-2.76,5.91-4.88,8.6-7-2.5-8-4.51-14.51-6.52-21C35.21,127.06,24.63,126,14.94,122l-.06.07L43,124c-2.11-9.16-8.4-18.31,2.49-25.23L37.82,87.15ZM713.93,191.4l0-.08-23.2,49.34c5,1.22,8.6.11,12.49-.89,7.73-28.92,15.45-57.77,23.32-87.23l-61.78-3.82c6.21,28.72,12.17,56.3,18.14,83.89l1.58.07c3.7-5.28,7.3-10.64,11.12-15.84C701.74,208.41,706.84,199.19,713.93,191.4ZM649.64,298.94l.06.08c6.06-14.63,13.85-28.51,20-44.38l-48.78,4.05c-2.14,3.63-3.92,6.63-8.13,5.31a4.73,4.73,0,0,1-3.52-5.37c.36-3.39,2.69-4.73,5.46-4.9,2.71.37,3.95,2.46,6.43,3.59L665.22,246l.12-1.55c-5.27-3.7-10.59-7.31-15.79-11.1C642,227.91,633.93,223.24,627,217l-.08.06L673,238.58c.41-7-9.13-84.69-11-90.11L105.13,113.14c-5.2,5.54-10.81,10.19-15.28,17l50.25,13c5.09-4.18,8.58-4.58,10.46-1.48,1.53,2.53,1.46,5.18-1,7.2-3,2.46-6.12,1-10-5l-50.82-4.18L88,141.11c3,5.29,6.19,10.52,9.13,15.87,4.81,8.74,10.63,16.92,14.56,26.15l.07-.06L80.06,146.44c-2.52,11.67-4.68,21.72-6.87,31.76-.27,1.24.28,2.26.63,3.36q35.57,112.32,71.11,224.62c3.56,11.24,7.14,22.46,10.84,34.09l508.79-57.1c.52-1.67.91-2.76,1.21-3.87,4.94-18.31,9.2-36.85,15-54.88,4.5-13.95,5.21-27.43,1.13-41.39-2-6.89-2.33-14.22-4.73-21.17-2.73,1.07-3.48,3.26-4.71,5C664.77,277.46,658,288.73,649.64,298.94Zm38-38.16c1,7.91,1.08,15.19,3.93,22.26q2.45-9.21,4.89-18.4C693.75,262.79,691.43,261.33,687.63,260.78ZM56.17,124.91a22.19,22.19,0,0,0,8.8.35L53.38,109.44l-1.45.91C52.5,115.35,54.48,120,56.17,124.91Zm8.19-14.27A27.88,27.88,0,0,0,74,121.12c1.09-3.61,2.45-6.38,1.65-9.75Zm5.06,34.13a7.61,7.61,0,0,0-5.7,4.24c1.12,3.39,1.68,7,3.62,10.33A30.75,30.75,0,0,0,69.42,144.77ZM85.33,120c3.43-2.46,7-3.59,8.74-7.56-3-.2-5.43-.73-7.92.14A11.54,11.54,0,0,0,85.33,120ZM698.46,255.29c1.48-1.6,1.46-3.54,1.69-5.79-2.71.05-5,.22-6.84,2.27C694.87,253.58,696.25,254.93,698.46,255.29ZM59.61,134.76c.15,2,0,3.65,2.08,4.58,1.08-.88,2.49-1.49,2.36-3.33C63.05,134.5,61.55,134.72,59.61,134.76Z"/><path d="M14.94,122a6,6,0,0,0-5.23,2.11c-2.47,2.75-5.72,3-8.27.22-2.28-2.45-1.75-5.4.87-7.42,3.24-2.5,6.11-1.22,7.85,2,1.13,2.08,2.81,2.63,4.71,3.18Z"/><path d="M703.55,394.43c3.3.87,6.07,2.32,5.68,6.31a5,5,0,0,1-5,4.72,4.63,4.63,0,0,1-5.12-3.8C698.25,397.89,700.18,395.71,703.55,394.43Z"/><path d="M99.14,10.75c-3.85-1-5.68-3.15-5-6.91.49-2.72,2.57-3.81,5-3.84a4.69,4.69,0,0,1,5,3.93C104.92,7.74,102.85,9.76,99.14,10.75Z"/><path d="M653.94,120.6c.06-3.2,1.48-5.16,4.76-5.2s5.56,1.61,5.55,5-2.08,5.27-5.4,5.27S654.16,123.62,653.94,120.6Z"/><path d="M50,289.62c-3.71-.52-5.45-2.4-5.69-5.76.84-2.95,2.51-5.11,5.91-4.83a4.83,4.83,0,0,1,4.59,4.54C55.22,287,53,288.65,50,289.62Z"/><path d="M702.31,386.78l-.08.76h0l.09-.76Z"/><polygon points="128.79 89.25 128.92 89.06 128.84 89.2 128.79 89.25"/><path d="M735.76,282.08l0-.06Z"/><path d="M36.69,86.08l-.07.07Z"/><path d="M31.82,171.17l.08,0Z"/><path d="M36.62,86.15l1.14,1.07.06-.07L36.7,86.08Z"/><path d="M158.05,388.6c2.3-.11,3.58,1.06,4.9,2,19.84,14.63,42.14,18.21,66,14.46,16.45-2.6,32-7.76,45.89-17.32a53.87,53.87,0,0,0,15.55-16c9.64-15.57,5.34-32.41-10.59-41.45-11.51-6.54-24.19-9.3-37-11.49C212.89,313.7,183,309,153.17,303.68c-20.53-3.65-37.74-12.47-45.46-33.56a61.1,61.1,0,0,1-1.38-37.87c10.43-37.49,31.18-67.89,64-89.36,18-11.82,38.3-12.25,58.83-9.06,4.62.71,9.61,2.33,10.79,7.64a22.18,22.18,0,0,1-3.39,17.66c-2,3-5,1.71-7.57.12a86.41,86.41,0,0,0-20.24-9.62c-9.83-3-19.18-2.69-28.5,2.27-14.29,7.61-25.75,18.29-35.3,31.14-11.78,15.85-22.48,32.31-26.85,52a52.26,52.26,0,0,0-1.36,15.85c1.46,16.91,12.83,24.28,27.29,28.57,15.69,4.65,32,6.11,48.05,9,22.92,4.12,46.15,6.65,68.43,13.91,11.15,3.64,22,7.94,30.7,16.15,18.29,17.23,19.27,47.32,2.5,66-11.35,12.65-25.51,20.81-41.32,26.19-30.68,10.45-61.73,10.74-92.91,2.3-9.4-2.55-10.68-5.16-7.56-14.45C153.17,394.67,154.18,390.48,158.05,388.6Z"/><path d="M267.06,276.9c-4.68,2.68-8.06.84-8.81-4.52-.45-3.24-.37-6.57-1.9-9.56-2.07-.09-2.61,1.53-3.45,2.67a70.19,70.19,0,0,1-10.18,11c-10.74,9.49-25.24,9.3-36.87-.39-16.8-14-17.43-46.39-1.17-61,8.29-7.43,19.4-8,26.79-1.25,2.26,2.05,4.52,4.39,3.66,7.72-.91,3.55-4.06,4.43-7.2,5-2.48-1.75-2.16-4.55-3.12-6.76-1.24-2.88-2.84-5.39-6.2-5.9s-5.62,1.63-7.47,4.1c-10.13,13.46-8.76,42.08,2.58,54.49,7,7.66,17.5,8,26.46.58a50.67,50.67,0,0,0,14.11-18.55c2.6-5.88.1-11.86-.58-17.69-2.24-19.16-5-38.26-7.47-57.39-.28-2.11-.54-4.3.26-6.27,5.8-3.31,8.21-2,9,4.34,2.86,24.28,5.86,48.54,8.82,72.8a4.08,4.08,0,0,0,1.8,3.45c10.42-16.43,16.51-34.46,21.17-52.63,7.08-.67,11.84,3.76,12,10.92.27,9.49.11,19,.17,28.49a61.28,61.28,0,0,0,3.06,19.14c1,3.07,2.53,5.85,6.2,6.6,4-.47,6.35-3.41,8.8-6.08,1.91-2.07,3.49-4.46,5.27-6.65,4.66-5.74,6.38-11.72,4.59-19.41A128.71,128.71,0,0,1,323.94,202c.13-5.86,4.4-8.56,9.83-6.25,2.24,1,2.83,2.72,2.31,4.91-3.86,16.44-.93,32.42,3.39,48.27a38.11,38.11,0,0,0,3.25,7.82c3,5.68,7.09,6.19,11.43,1.38,3.39-3.77,5.37-8.4,7.08-13.12,5.06-13.92,6.48-28.49,7.77-43.09.14-1.62-.29-3.36,1-5.1,5.07-.49,5.66,3.5,6.17,7,.95,6.58,1.31,13.25,2.23,19.83,1.24,8.88,2.1,17.85,4.85,26.46.92,2.9,2.08,5.66,5.37,7,3.37-.26,5.35-2.76,7.61-5,9.94-9.74,10.68-21.33,8.74-34.43-3.56-24-5.91-48.19-8.74-72.3a10,10,0,0,1,.19-2c2.72-2.8,5.75-1.81,8.72-1.23,3.37,4.83,2.35,10.29,2.9,15.25,2.74,24.8,4.95,49.65,7.42,74.47.52,5.29,1.19,10.58,2.09,15.82.44,2.58,1.2,5.26,3.87,6.47a3.88,3.88,0,0,0,1.15.15c8.53-2.2,21.25-19.21,20.39-27.9-1.52-15.23-3.4-30.41-5.2-45.61a21.72,21.72,0,0,0-1.19-4c-6.77-2.53-14.08,4-21.18-2.22,7-3.31,14-1.72,20.41-4.3,1-8.66-2.63-17.09-1.48-25.6a8.65,8.65,0,0,1,9.2,0c2.38,7.72,1.49,16.24,3.91,24.53,8.07.06,15.74-1.5,23.46-2.21,6.62-.61,13.19-1.65,19.8-2.39,2.52-.29,5-.11,6.86,3.65-16.6,3.3-33.16,3.56-49.83,6.67.67,8.4,1.22,16.31,1.94,24.2,1.19,12.92,2.4,25.83,3.76,38.73.48,4.53.51,9.41,5.08,12.33,4.89-.61,7.84-3.85,10.73-7A76.79,76.79,0,0,0,480,227c.89-1.68,1.39-3.87,4.12-4,2.2,2.23.45,4.42-.42,6.32a66.29,66.29,0,0,1-16.59,22.3c-9.12,8-18.24,5.09-21.64-6.56-.36-1.25-.66-2.53-1-3.67-2.06-.62-2.5.92-3.23,1.92a76.07,76.07,0,0,1-10.49,12c-9.4,8.39-18.29,6-22-6-.34-1.08-.76-2.14-1.12-3.17-2.44,0-2.84,1.91-3.72,3.16a60.92,60.92,0,0,1-10.08,11.7q-10.15,8.56-16-3.22c-3.46-7-4.53-14.57-5.75-22.13-.23-1.43.15-3-1.21-4.19-1.76.11-1.39,1.56-1.57,2.59-1.64,9.08-4.27,17.81-9.29,25.65-3.36,5.25-7.32,9.7-14.36,9-6.43-.62-9.05-5.59-11.61-10.53-1.12-2.15-2.09-4.38-3.3-6.92-3.13,2.59-4.49,5.7-6.44,8.32a70.21,70.21,0,0,1-8.95,10.07c-7.05,6.4-13.6,5.37-18.33-3.15-4.26-7.68-5.8-16.2-7.08-24.82-.81-5.52-.21-11.28-2.32-16.76-2.47,1.09-2.65,3.27-3.3,5.05-4.23,11.62-9.29,22.87-16.12,33.18C265.27,267.72,267.15,272.2,267.06,276.9Z"/><path d="M646.83,304.15c4.29,3.06,8.59-.12,12.89-.1,3.28,0,6.57-.9,9.87-1.34,1.63-.21,3.34-.46,4.91,2.12-8.79,4.1-18.65,2.14-28,5.79,1.71,13.73,2,27.68,5.51,41.92,8.41-3.17,10.15-10.93,14.48-15.92,2.08.8,2,2,1.52,3.11a34.58,34.58,0,0,1-11.48,15.44c-3.75,2.79-7.78,1.89-10.38-1.95-.72-1.07-1.28-2.26-2.21-3.91-4.61,3.86-7.67,9.21-13.46,11-6.42,2-10.83-1.3-14.94-6.46-4,4.53-7.64,8.58-13.08,10.3-6.28,2-10-2.08-13.91-5.94-3.09,1.43-4.62,4.4-7.08,6.28-2.07,1.58-4.25,3-6.86,1.87s-3.43-3.57-3.47-6.17c-.09-6,0-12,0-17.91a17.82,17.82,0,0,0-7.06-4.71c-.92,3.45-1.84,6.58-2.59,9.74a42.5,42.5,0,0,1-10.16,19.21c-2.88,3.16-6.14,5.32-10.54,4-4.23-1.28-4.94-5.19-5.47-8.8-1.52-10.53-2.82-21.09-4.19-31.65-.17-1.32-.14-2.67-1.08-3.76-3.48-2.37-8.21,2-11.74-2.2,3.11-2.85,7.35-1.11,10.61-3.48,1.69-4.51-1.62-9.42-.25-14.12,2.12-1.41,4-1.38,6.21,0,.69,4.1,1.43,8.47,2.16,12.78,5.79,2.1,11.72-2.93,18.15,1.09-5.8,3.37-11.73,1.86-17.5,4.6,1.62,13.62,1.81,27.68,5.26,41.13,4,.16,5.37-1.86,6.82-3.63,8.78-10.72,10.75-23.21,9.6-36.58-.36-4.22-3-8.68.67-12.81,2.78,1,3.27,3.46,3.15,5.35-.46,7.62,4.37,12,9.54,16,3.67,2.81,5.17,5.71,3.8,10.23a32.77,32.77,0,0,0-1.12,11.38c.12,2,.22,4,1.93,5.36,6.28-2,9.85-7.45,8.58-13.6A38.26,38.26,0,0,1,587,328.67a13.63,13.63,0,0,1,3-5.68c1.55-1.63,3.44-2.92,5.76-2.16,2.53.83,3.33,3.08,3.54,5.54.56,6.54-1.42,12.61-4.18,18.3-2.17,4.47-1,8,1.47,11.61s5.77,4.33,9.48,1.84a22.16,22.16,0,0,0,7.69-9.2c-.71-6.15-1.84-12.37-.77-18.71.65-3.85,1.64-7.48,4.13-10.56a5.61,5.61,0,0,1,6.26-2c2.56.72,2.9,2.89,3.08,5.15.5,6.51-1.44,12.48-3.88,18.38-2.73,6.63-.47,12,6.13,14.93,8.8-2,15.3-11.45,14-20.08-1-6.57-1.8-13.18-2.65-19.78-.21-1.65-.28-3.33-1.72-4.81-3.29-1.52-7.65,2.45-11.07-1.46,2.83-3.65,7.56-1.26,10.51-3.71,1.39-4.69-1.24-9.23-.46-13.77,4.34-2.91,6.38-2.05,7,2.79.41,3.07.14,6.32,2.39,8.91Zm-24.5,17c-4.36,3.2-5.3,10.29-2.1,15.28C622.23,331.42,624.25,326.87,622.33,321.14ZM594.46,325c-4.48,4.4-2.91,9.58-2.15,14.68C594.91,335.07,597.19,330.42,594.46,325Z"/><path d="M421.62,319.23c-2.44,3-3,6.87-4.87,10.07-1.2,2-2.23,4.11-3.55,6-4.7,6.77-8.87,7.09-15,.91-7.16,6.6-14.51,14.12-23.39,2.21-4.5,2.32-6.55,7.37-11.79,8.12-4.6-1.7-4.64-6-4.77-9.87a117.7,117.7,0,0,1,.69-11.78c-1.5-2.28-3.1-4.09-6.15-4.62-3.45,6.75-2.78,15.55-10.2,20.61,7-13.69,6.6-28.33,4.72-43.62,4.52,1.48,4.79,4.07,4.76,5.9-.11,6.12,3.24,10,7.71,13.2,3.92,2.77,5.19,5.89,3.9,10.68s-2.64,9.69.62,14.31c4-1.36,4.78-2.09,8.33-7.89a80.22,80.22,0,0,1-.54-16.1c.3-4.07,1.47-7.88,4.36-10.9,1.45-1.51,3.3-2.4,5.43-1.58s2.42,2.53,2.57,4.47c.47,6-1.13,11.54-3.58,16.91-1,2.13-1.81,4.19-.95,6.69,2.65,7.68,7.75,9,13.43,3.21,3-3.06,4.86-6.49,4.87-11.07a31,31,0,0,1,6.59-19,18,18,0,0,1,9.68-6.68c4.12-1.14,7-.63,7,4.8,6.22,1,7,5.41,7,10.76-.08,6.07.07,12.25,3.66,17.5,4.42-.85,10.75-6.91,10.52-11.06a187,187,0,0,0-3.34-26.5c-3.58-2.58-7.84,2-10.65-2.17,1.21-2,3.2-1.78,4.89-2.13s3.37,0,5-1.67c-.28-3.76-.58-7.84-.86-11.65,1.65-2.07,3.33-2,5.4-1.09,2.3,3.5.58,8.15,3,12.07,8.07,1.67,16.51-3.36,24.83-.12-7.69,3.65-16.28,2.44-24.62,5.3a276.92,276.92,0,0,0,4.21,37.89c8-2.47,9.13-9.92,13.47-14.32,2.11,1.71,1.21,3.3.54,4.75a31.63,31.63,0,0,1-9.14,11.72c-4.38,3.44-7,2.53-12.15-3.86-2.51.91-3.39,3.5-5.18,5.16-4.79,4.44-8.94,3.89-12-1.91a31,31,0,0,1-3-10C422.93,321.67,423.47,320.16,421.62,319.23Zm-16.71,17.61c6.64-2,15.21-19.32,15.28-31.08-1.41-.6-2.54-2-4.41-1.75C406.93,309.13,400.38,328.93,404.91,336.84Zm-24.54-29.29c-4.25,4.59-2.8,9-2.13,13.23C380.7,317,382.39,313,380.37,307.55Z"/><path d="M524.36,182.92c-16.6,1.46-32.47,2.4-47.52,8.62-2.37-3.29-3.76-6.25-.51-9.79,10.79-.84,21.71-1.67,32.56-3.24,4.61-.67,9.26-1,13.86-1.71A10.9,10.9,0,0,1,529.5,178c6.59,3.33,7.55,6.65,3.14,12.61-12.08,16.35-24.31,32.58-36.46,48.86-1.07,1.43-2.48,2.69-2.72,5.36,7.84,1.25,15.48-.93,23.12-.69,7.15.22,14-5,21.57-2.26-.58,3.41-2.51,3.63-4.26,4.13-12.37,3.52-25.08,5.19-37.81,6.61-2.57.29-5.31.62-7.8-.89-5.67-3.44-6.72-7.83-2.92-14,9.95-16.23,22.09-30.87,33.61-46C520.84,189.34,523.32,187.23,524.36,182.92Z"/><path d="M569.69,148.52c3.22,1.73,3.65,4.59,3.55,7.06-.5,12.5,4,23.35,9.93,34,5.33,9.52,7.82,19.75,5.24,30.79a36.34,36.34,0,0,1-7.88,15c4.7.38,10.42-3.24,16.45-9.77,4.46-4.83,7.45-10.69,10.56-16.23,3.6,1.47,2.6,3.32,1.81,4.92-6.87,14-16.79,24.32-32.88,27.18-6.93,1.23-12.25-1.12-15.07-6.67,2-3.41,2-3.41,6.08-3.94,2.22,1.17,2.26,4.5,5,5.28a16.42,16.42,0,0,0,10.12-17.48,36.2,36.2,0,0,0-5.48-14.87c-2-3.2-3.83-6.52-6.33-10.83-3.9,13.22-7,25.89-15.94,36.31-2.71-2.79-1.54-4.76-.39-6.51,9.1-13.8,11.7-29.54,13.65-45.48.8-6.53-1.59-12.88-1.05-19.41C567.31,154.69,567.24,151.52,569.69,148.52Z"/><path d="M484.5,387.6c-.86-3.12-.13-5.46,2.12-7.21,1.66-.46,2.65.57,3.77,1.24,9.62,5.73,23.36,4.54,31.77-2.73,6.73-5.83,5.67-12.61-2.74-15.53-9.16-3.18-18.93-3.59-28.37-5.52-1.47-.3-2.95-.49-4.42-.78-14.49-2.87-19.9-12.51-14.77-26.43a50,50,0,0,1,14-20.33c5.91-5.23,12.87-6.61,20.49-5.89,2.47.24,4.75.8,5.6,3.36s.32,4.93-1.89,6.51a3.63,3.63,0,0,1-3-.56c-8.83-4.42-12-4-19.21,2.69a41.56,41.56,0,0,0-11,17.05c-2.93,8.44-.28,13.09,8.56,14.83,8,1.58,16.07,2.73,24.08,4.21,5.24,1,10.46,2.17,15,5.11,8.4,5.4,9.68,16,2.86,23.3C518,391,495.66,394.56,484.5,387.6Z"/><path d="M326.63,297.79c3,22,4.45,44.79,9.71,67-1.35,2.65-3.13,4.1-7.32,3.48-4.22-23.13-5.3-47.08-9.13-70.81-6.92-.28-13.07,1.22-19.29,1.78-2.86.26-4.93-.08-5.49-4.67,18.86-2.67,37.41-6.62,56.46-7.09,1.24,5.09-1.28,5.91-4.35,6.29-5.44.66-10.88,1.36-16.32,2A5.36,5.36,0,0,0,326.63,297.79Z"/><path d="M548.31,182.2c.27-12.42,4.17-23.45,4-34.55,2.58-2.83,5.21-4.15,8.18-2s1.48,4.81.13,7.44c-3.53,6.84-4.13,14.63-6.81,21.75C552.83,177.36,552.27,180.19,548.31,182.2Z"/><path d="M624.76,216.11l2.12,1L627,217l-2.17-.85Z"/><path d="M648.75,301.12c.32-.7.64-1.4,1-2.1l-.07-.08c-.28.71-.57,1.43-.86,2.15Z"/><path d="M113.71,186.2c-.28-.69-.56-1.38-.85-2.07l-.07.07.88,1.94Z"/><polygon points="624.79 216.15 624.61 216.02 624.76 216.11 624.79 216.15"/><polygon points="648.77 301.09 648.66 301.26 648.75 301.12 648.77 301.09"/><polygon points="646.77 304.19 646.92 303.99 646.82 304.16 646.77 304.19"/><polygon points="113.67 186.14 113.84 186.29 113.7 186.19 113.67 186.14"/><path d="M111.66,183.13l1.13,1.07.07-.07-1.13-1.06Z"/><path d="M713.93,191.4a.36.36,0,0,1,0-.09Z"/></svg>
