<svg data-name="Layer 1" xmlns="http://www.w3.org/2000/svg" viewBox="0 0 404 60.14" width="404" height="60"><title>Signs &amp; More</title><path d="M15.1,0h.12Q23.85,0,27,3c2.11,2,3.18,5.31,3.18,10v7.21c0,.92-.61,1.38-1.82,1.38H24.3c-1.14,0-1.7-.46-1.7-1.38V9.89q0-5.35-7.5-5.35T7.61,9.89q0,7,.85,9.36t4.6,5.47l10.1,8.43q7.05,5.76,7.05,14.1c0,4.7-1.07,8-3.18,10S21,60.14,15.22,60.14H15.1q-8.5,0-11.81-3T0,47.25V39.87c0-.86.6-1.29,1.82-1.29H5.9a4.57,4.57,0,0,1,1,.08.73.73,0,0,1,.51.28,2,2,0,0,1,.17.41,2.34,2.34,0,0,1,.06.61V50.17q0,5.43,7.49,5.43t7.5-5.43q0-7.22-.8-9.48c-.53-1.52-2-3.27-4.54-5.27L7,27Q0,21.08,0,13,0,6,3.35,3T15.1,0Z"/><path d="M40.19.73H44.4c.9,0,1.36.43,1.36,1.29V58.19a1.09,1.09,0,0,1-1.25,1.22H40.19c-1.36,0-2-.41-2-1.22V2C38.15,1.13,38.83.73,40.19.73Z"/><path d="M68.69,0h.23q8.63,0,11.92,3t3.3,10v5.75c0,.87-.5,1.3-1.48,1.3H78.23c-1.13,0-1.7-.43-1.7-1.3V10.05q0-5.43-7.61-5.43t-7.61,5.43v40q0,5.43,7.61,5.43t7.61-5.43v-15H67.9c-1.13,0-1.7-.4-1.7-1.21V31.53c0-.7.57-1.06,1.7-1.06H82c1.44,0,2.16.41,2.16,1.22V47.17q0,7-3.3,10t-11.92,3h-.23q-8.4,0-11.69-3t-3.29-10V13q0-7.05,3.29-10T68.69,0Z"/><path d="M94.13.73h2.72a10,10,0,0,1,1.48.08,2.28,2.28,0,0,1,1,.49,3,3,0,0,1,.85,1.29L117.29,46.2H118V2.27c0-1,.67-1.54,2-1.54h2.84c1.21,0,1.81.57,1.81,1.7V57.87c0,1-.64,1.54-1.93,1.54h-3.18a4.38,4.38,0,0,1-2-.29,3.82,3.82,0,0,1-1-1.74l-17-43.44h-.68V58.19c0,.81-.53,1.22-1.58,1.22H93.79q-1.71,0-1.71-1.38V2.19C92.08,1.21,92.77.73,94.13.73Z"/><path d="M147.72,0h.12q8.63,0,11.81,3c2.11,2,3.18,5.31,3.18,10v7.21c0,.92-.61,1.38-1.82,1.38h-4.09c-1.13,0-1.7-.46-1.7-1.38V9.89q0-5.35-7.5-5.35t-7.49,5.35q0,7,.85,9.36t4.6,5.47l10.11,8.43q7,5.76,7,14.1c0,4.7-1.07,8-3.18,10s-6.06,2.92-11.81,2.92h-.12q-8.5,0-11.81-3t-3.29-9.93V39.87c0-.86.6-1.29,1.82-1.29h4.08a4.57,4.57,0,0,1,1,.08.71.71,0,0,1,.51.28,2,2,0,0,1,.17.41,2.34,2.34,0,0,1,.06.61V50.17q0,5.43,7.49,5.43t7.5-5.43q0-7.22-.8-9.48c-.53-1.52-2-3.27-4.54-5.27L139.66,27q-7-5.91-7-14,0-7,3.35-10T147.72,0Z"/><path d="M284.55.73h5.79A2.25,2.25,0,0,1,291.7,1,1.51,1.51,0,0,1,292,2.19V58.11c0,.87-.49,1.3-1.47,1.3h-3.86c-1,0-1.48-.41-1.48-1.22V13.62h-.68L276.6,46a1.85,1.85,0,0,1-.51.94,2.38,2.38,0,0,1-1.19.2h-4.09c-1.14,0-1.82-.38-2.05-1.14l-7.94-32.5h-.68V58.19c0,.81-.46,1.22-1.37,1.22h-3.29a2.82,2.82,0,0,1-1.65-.33,1.27,1.27,0,0,1-.39-1V2c0-.82.56-1.22,1.7-1.22h5.68a1.57,1.57,0,0,1,1.7,1l9.88,39.71h.68L283,1.7A1.49,1.49,0,0,1,284.55.73Z"/><path d="M315.09,0h.12q8.63,0,11.92,3t3.29,10V47.25q0,7.05-3.29,10t-11.92,2.92h-.12q-8.5,0-11.81-3T300,47.09V13q0-7,3.35-10T315.09,0Zm7.73,50.09v-40a4.6,4.6,0,0,0-2.05-4,9.58,9.58,0,0,0-5.56-1.42q-7.6,0-7.61,5.43v40q0,5.43,7.61,5.43a9.75,9.75,0,0,0,5.51-1.42A4.57,4.57,0,0,0,322.82,50.09Z"/><path d="M340.07.73h10.34A30,30,0,0,1,360,2.06a12.22,12.22,0,0,1,5.68,3.53,14.53,14.53,0,0,1,2.44,4.14,12,12,0,0,1,.68,4v5.67q0,10.54-11.47,12.89L369,58a1,1,0,0,1-.17,1,1.46,1.46,0,0,1-1.08.41h-4.2a1.9,1.9,0,0,1-1.82-1.14l-10.9-25.53H346V58c0,.92-.49,1.38-1.48,1.38h-4.43c-1.13,0-1.7-.46-1.7-1.38V2C338.37,1.13,338.94.73,340.07.73ZM351.2,5.35H346V29.1h5.22a13.36,13.36,0,0,0,7.15-1.75c1.9-1.16,2.84-3.06,2.84-5.71V12.48a5.93,5.93,0,0,0-2.89-5.27A12.88,12.88,0,0,0,351.2,5.35Z"/><path d="M378,.73h24.29c1.14,0,1.71.32,1.71,1V4q0,1.38-1.71,1.38H383.56v22h14.31a2.77,2.77,0,0,1,1.47.25.91.91,0,0,1,.34.81V30.8a1.06,1.06,0,0,1-.39,1,3.35,3.35,0,0,1-1.54.24H383.56V54.79h18.73q1.71,0,1.71,1.05V58c0,1-.57,1.46-1.71,1.46H378c-1.37,0-2.05-.41-2.05-1.22V2a1,1,0,0,1,.4-1A3.65,3.65,0,0,1,378,.73Z"/><path d="M194.13,43.49c0-6.5,3.19-11.29,6.45-15-1.6-4-2.62-7.28-2.62-11.36,0-7.85,4.21-10.79,8.36-10.79,5.68,0,7.34,4,7.34,8.94,0,6.19-3.57,10.91-6.83,14.16.57,1.41,1.09,2.37,1.85,4a57.88,57.88,0,0,0,3.7,7,63.41,63.41,0,0,0,1.41-10.85H219c-.45,5.87-1.21,11.23-2.74,15.44q2.29,3,4.21,3.26v6a11.18,11.18,0,0,1-7.28-3.9,10.58,10.58,0,0,1-8.68,4.15C197.9,54.47,194.13,50.39,194.13,43.49Zm15.51,3a66.12,66.12,0,0,1-5-8.93,35.15,35.15,0,0,1-1.73-3.77,19.67,19.67,0,0,0-2.61,9.26c0,3.06,1.08,6.19,4.85,6.19A5.19,5.19,0,0,0,209.64,46.49Zm-1.41-30.76c0-2.42-.57-4.08-2-4.08-1.79,0-2.56,2-2.56,4.91a27.28,27.28,0,0,0,1.41,8.36A15.9,15.9,0,0,0,208.23,15.73Z"/></svg>
